G04 #@! TF.GenerationSoftware,KiCad,Pcbnew,8.0.2*
G04 #@! TF.CreationDate,2024-05-24T22:16:23+02:00*
G04 #@! TF.ProjectId,ESP32-C3,45535033-322d-4433-932e-6b696361645f,rev?*
G04 #@! TF.SameCoordinates,Original*
G04 #@! TF.FileFunction,Copper,L2,Bot*
G04 #@! TF.FilePolarity,Positive*
%FSLAX46Y46*%
G04 Gerber Fmt 4.6, Leading zero omitted, Abs format (unit mm)*
G04 Created by KiCad (PCBNEW 8.0.2) date 2024-05-24 22:16:23*
%MOMM*%
%LPD*%
G01*
G04 APERTURE LIST*
G04 Aperture macros list*
%AMRoundRect*
0 Rectangle with rounded corners*
0 $1 Rounding radius*
0 $2 $3 $4 $5 $6 $7 $8 $9 X,Y pos of 4 corners*
0 Add a 4 corners polygon primitive as box body*
4,1,4,$2,$3,$4,$5,$6,$7,$8,$9,$2,$3,0*
0 Add four circle primitives for the rounded corners*
1,1,$1+$1,$2,$3*
1,1,$1+$1,$4,$5*
1,1,$1+$1,$6,$7*
1,1,$1+$1,$8,$9*
0 Add four rect primitives between the rounded corners*
20,1,$1+$1,$2,$3,$4,$5,0*
20,1,$1+$1,$4,$5,$6,$7,0*
20,1,$1+$1,$6,$7,$8,$9,0*
20,1,$1+$1,$8,$9,$2,$3,0*%
G04 Aperture macros list end*
G04 #@! TA.AperFunction,ComponentPad*
%ADD10O,2.100000X1.000000*%
G04 #@! TD*
G04 #@! TA.AperFunction,ComponentPad*
%ADD11O,1.800000X1.000000*%
G04 #@! TD*
G04 #@! TA.AperFunction,ComponentPad*
%ADD12R,0.500000X0.900000*%
G04 #@! TD*
G04 #@! TA.AperFunction,ComponentPad*
%ADD13RoundRect,0.250000X-0.625000X0.350000X-0.625000X-0.350000X0.625000X-0.350000X0.625000X0.350000X0*%
G04 #@! TD*
G04 #@! TA.AperFunction,ComponentPad*
%ADD14O,1.750000X1.200000*%
G04 #@! TD*
G04 #@! TA.AperFunction,SMDPad,CuDef*
%ADD15RoundRect,0.135000X-0.185000X0.135000X-0.185000X-0.135000X0.185000X-0.135000X0.185000X0.135000X0*%
G04 #@! TD*
G04 #@! TA.AperFunction,ViaPad*
%ADD16C,0.500000*%
G04 #@! TD*
G04 #@! TA.AperFunction,Conductor*
%ADD17C,0.150000*%
G04 #@! TD*
G04 #@! TA.AperFunction,Conductor*
%ADD18C,0.200000*%
G04 #@! TD*
G04 APERTURE END LIST*
D10*
G04 #@! TO.P,U1,S1,SHIELD*
G04 #@! TO.N,GND*
X39400000Y5030000D03*
D11*
X35220000Y5030000D03*
D10*
X39400000Y-3610000D03*
D11*
X35220000Y-3610000D03*
G04 #@! TD*
D12*
G04 #@! TO.P,AE1,2,GND*
G04 #@! TO.N,GND*
X55500000Y-9350000D03*
G04 #@! TD*
D13*
G04 #@! TO.P,J2,1,Pin_1*
G04 #@! TO.N,+BATT*
X39420000Y10100000D03*
D14*
G04 #@! TO.P,J2,2,Pin_2*
G04 #@! TO.N,GND*
X39420000Y8100000D03*
G04 #@! TD*
D15*
G04 #@! TO.P,R13,1*
G04 #@! TO.N,Net-(R12-Pad2)*
X44500000Y1510000D03*
G04 #@! TO.P,R13,2*
G04 #@! TO.N,GND*
X44500000Y490000D03*
G04 #@! TD*
D16*
G04 #@! TO.N,GND*
X52100000Y9400000D03*
X54000000Y-11650000D03*
X45800000Y8700000D03*
X46700000Y-6300000D03*
X57900000Y5700000D03*
X54400000Y-4400000D03*
X38700000Y-5700000D03*
X46700000Y-4600000D03*
X57900000Y14700000D03*
X54500000Y2300000D03*
X48400000Y-4600000D03*
X45400000Y-150000D03*
X49700000Y7400000D03*
X50850000Y-10950000D03*
X51700000Y-4300000D03*
X54500000Y-1100000D03*
X47600000Y700000D03*
X54500000Y5700000D03*
X48400000Y-6300000D03*
X46500000Y12700000D03*
X45000000Y-9300000D03*
X49000000Y11700000D03*
X45600000Y12700000D03*
X43600000Y12200000D03*
X46800000Y7700000D03*
X51600000Y-10600000D03*
X54000000Y-8250000D03*
G04 #@! TO.N,NPGOOD*
X43600000Y1650000D03*
X41313629Y4800000D03*
G04 #@! TO.N,NCHG*
X43700000Y-3400000D03*
X50500000Y-1100000D03*
G04 #@! TO.N,+3.3V*
X53100000Y-2200000D03*
X40800000Y-11500000D03*
X53100000Y-4100000D03*
X48900000Y6400000D03*
X45800000Y-2050000D03*
X43100000Y5400000D03*
X43000000Y4300000D03*
X53200000Y-10200000D03*
X48800000Y7400000D03*
G04 #@! TO.N,Net-(R12-Pad2)*
X41800000Y9500000D03*
G04 #@! TO.N,MCU_SCL*
X50200000Y-2600000D03*
X42200000Y-10900000D03*
G04 #@! TO.N,NCE*
X43600000Y6400000D03*
X43850000Y3500000D03*
G04 #@! TO.N,TMR*
X45300000Y2050000D03*
X41900000Y10400000D03*
G04 #@! TO.N,EN1*
X46500000Y3400000D03*
X46000000Y6000000D03*
G04 #@! TO.N,EN2*
X42300000Y5450000D03*
X43850000Y2600000D03*
G04 #@! TO.N,TD*
X46100000Y10600000D03*
X48200000Y5800000D03*
G04 #@! TO.N,MCU_SDA*
X41600000Y-11600000D03*
X49100000Y-2100000D03*
G04 #@! TO.N,Gr\u00FCn*
X43200000Y-7000000D03*
X51600000Y400000D03*
G04 #@! TO.N,Blau*
X49500000Y100000D03*
X43100000Y-6100000D03*
G04 #@! TO.N,Rot*
X44400000Y-4200000D03*
X48800000Y-400000D03*
G04 #@! TD*
D17*
G04 #@! TO.N,NPGOOD*
X42950000Y3150000D02*
X41313629Y4786371D01*
X41313629Y4786371D02*
X41313629Y4800000D01*
X43600000Y2178248D02*
X42950000Y2828248D01*
X43600000Y1650000D02*
X43600000Y2178248D01*
X42950000Y2828248D02*
X42950000Y3150000D01*
G04 #@! TO.N,NCHG*
X48221015Y-2075000D02*
X49196015Y-1100000D01*
X43925000Y-3175000D02*
X44813908Y-3175000D01*
X46525000Y-2075000D02*
X48221015Y-2075000D01*
X44813908Y-3175000D02*
X45388908Y-2600000D01*
X46000000Y-2600000D02*
X46525000Y-2075000D01*
X45388908Y-2600000D02*
X46000000Y-2600000D01*
X43700000Y-3400000D02*
X43925000Y-3175000D01*
X49196015Y-1100000D02*
X50500000Y-1100000D01*
D18*
G04 #@! TO.N,+3.3V*
X40800000Y-11500000D02*
X40800000Y-12000000D01*
X50575736Y-6100000D02*
X50400000Y-6275736D01*
X53100000Y-2200000D02*
X53100000Y-4100000D01*
X48900000Y7300000D02*
X48800000Y7400000D01*
X40800000Y-12000000D02*
X41000000Y-12200000D01*
X51350000Y-450000D02*
X53100000Y-2200000D01*
X49300000Y-600000D02*
X49450000Y-450000D01*
X50400000Y-8124264D02*
X50575736Y-8300000D01*
X51300000Y-8300000D02*
X53200000Y-10200000D01*
X53200000Y-11100000D02*
X53200000Y-10200000D01*
X49300000Y-607107D02*
X49300000Y-600000D01*
X49450000Y-450000D02*
X51350000Y-450000D01*
X46050000Y-1800000D02*
X48100000Y-1800000D01*
X49007107Y-900000D02*
X49300000Y-607107D01*
X50400000Y-6275736D02*
X50400000Y-8124264D01*
X53100000Y-4900000D02*
X51900000Y-6100000D01*
X52100000Y-12200000D02*
X53200000Y-11100000D01*
X48100000Y-1800000D02*
X49000000Y-900000D01*
X50575736Y-8300000D02*
X51300000Y-8300000D01*
X41000000Y-12200000D02*
X52100000Y-12200000D01*
X48900000Y6400000D02*
X48900000Y7300000D01*
X43000000Y5300000D02*
X43100000Y5400000D01*
X51900000Y-6100000D02*
X50575736Y-6100000D01*
X43000000Y4300000D02*
X43000000Y5300000D01*
X49000000Y-900000D02*
X49007107Y-900000D01*
X53100000Y-4100000D02*
X53100000Y-4900000D01*
X45800000Y-2050000D02*
X46050000Y-1800000D01*
G04 #@! TO.N,Net-(R12-Pad2)*
X44500000Y3557107D02*
X44500000Y1510000D01*
X43850000Y7450000D02*
X43850000Y6857107D01*
X41800000Y9500000D02*
X43850000Y7450000D01*
X44000000Y6092893D02*
X44000000Y4057107D01*
X44000000Y4057107D02*
X44500000Y3557107D01*
X44100000Y6607107D02*
X44100000Y6192893D01*
X44100000Y6192893D02*
X44000000Y6092893D01*
X43850000Y6857107D02*
X44100000Y6607107D01*
G04 #@! TO.N,MCU_SCL*
X52500000Y-10900000D02*
X52500000Y-10631371D01*
X52300000Y-4700000D02*
X52300000Y-2924264D01*
X52300000Y-2924264D02*
X51975736Y-2600000D01*
X52400000Y-10248528D02*
X51051472Y-8900000D01*
X42200000Y-10900000D02*
X42900000Y-11600000D01*
X51500000Y-5500000D02*
X52300000Y-4700000D01*
X51051472Y-8900000D02*
X50200000Y-8900000D01*
X52400000Y-10531371D02*
X52400000Y-10248528D01*
X52500000Y-10631371D02*
X52400000Y-10531371D01*
X51800000Y-11600000D02*
X52500000Y-10900000D01*
X51975736Y-2600000D02*
X50200000Y-2600000D01*
X49700000Y-5975736D02*
X50175736Y-5500000D01*
X50175736Y-5500000D02*
X51500000Y-5500000D01*
X50200000Y-8900000D02*
X49700000Y-8400000D01*
X49700000Y-8400000D02*
X49700000Y-5975736D01*
X42900000Y-11600000D02*
X51800000Y-11600000D01*
D17*
G04 #@! TO.N,NCE*
X43850000Y3500000D02*
X43600000Y3750000D01*
X43600000Y3750000D02*
X43600000Y6400000D01*
G04 #@! TO.N,TMR*
X44150000Y6946015D02*
X44150000Y8150000D01*
X45300000Y2050000D02*
X44775000Y2575000D01*
X44275000Y4171015D02*
X44275000Y5978984D01*
X44150000Y8150000D02*
X41900000Y10400000D01*
X44375000Y6078984D02*
X44375000Y6721015D01*
X44375000Y6721015D02*
X44150000Y6946015D01*
X44275000Y5978984D02*
X44375000Y6078984D01*
X44775000Y2575000D02*
X44775000Y3671015D01*
X44775000Y3671015D02*
X44275000Y4171015D01*
D18*
G04 #@! TO.N,EN1*
X46500000Y3400000D02*
X46450000Y3450000D01*
X46450000Y5550000D02*
X46000000Y6000000D01*
X46450000Y3450000D02*
X46450000Y5550000D01*
D17*
G04 #@! TO.N,EN2*
X43200000Y3250000D02*
X43850000Y2600000D01*
X43200000Y3750000D02*
X43200000Y3250000D01*
X42500000Y4128248D02*
X42878248Y3750000D01*
X42878248Y3750000D02*
X43200000Y3750000D01*
X42500000Y5250000D02*
X42500000Y4128248D01*
X42300000Y5450000D02*
X42500000Y5250000D01*
G04 #@! TO.N,TD*
X48200000Y5800000D02*
X48200000Y8500000D01*
X48200000Y8500000D02*
X46100000Y10600000D01*
D18*
G04 #@! TO.N,MCU_SDA*
X52700000Y-10124264D02*
X51175736Y-8600000D01*
X50300000Y-5800000D02*
X51700000Y-5800000D01*
X51175736Y-8600000D02*
X50400000Y-8600000D01*
X50400000Y-8600000D02*
X50100000Y-8300000D01*
X50100000Y-6000000D02*
X50300000Y-5800000D01*
X41600000Y-11600000D02*
X41900000Y-11900000D01*
X51700000Y-5800000D02*
X52800000Y-4700000D01*
X52800000Y-4700000D02*
X52800000Y-4507107D01*
X52600000Y-2800000D02*
X51900000Y-2100000D01*
X52800000Y-10507107D02*
X52700000Y-10407107D01*
X41900000Y-11900000D02*
X51975736Y-11900000D01*
X52600000Y-4307107D02*
X52600000Y-2800000D01*
X52700000Y-10407107D02*
X52700000Y-10124264D01*
X51900000Y-2100000D02*
X49100000Y-2100000D01*
X52800000Y-11075736D02*
X52800000Y-10507107D01*
X51975736Y-11900000D02*
X52800000Y-11075736D01*
X50100000Y-8300000D02*
X50100000Y-6000000D01*
X52800000Y-4507107D02*
X52600000Y-4307107D01*
G04 #@! TO.N,Gr\u00FCn*
X42600000Y-4124264D02*
X43000000Y-4524264D01*
X51400000Y600000D02*
X48668629Y600000D01*
X51600000Y400000D02*
X51400000Y600000D01*
X48668629Y600000D02*
X47168629Y-900000D01*
X43000000Y-5300000D02*
X42600000Y-5700000D01*
X44451472Y-2300000D02*
X43244365Y-2300000D01*
X43000000Y-4524264D02*
X43000000Y-5300000D01*
X47168629Y-900000D02*
X45394365Y-900000D01*
X44525736Y-2225736D02*
X44451472Y-2300000D01*
X42600000Y-6400000D02*
X43200000Y-7000000D01*
X42600000Y-5700000D02*
X42600000Y-6400000D01*
X43244365Y-2300000D02*
X42600000Y-2944365D01*
X42600000Y-2944365D02*
X42600000Y-4124264D01*
X44525736Y-1768629D02*
X44525736Y-2225736D01*
X45394365Y-900000D02*
X44525736Y-1768629D01*
G04 #@! TO.N,Blau*
X48300000Y-192893D02*
X48592893Y100000D01*
X42900000Y-4000000D02*
X42900000Y-3068629D01*
X43300000Y-5500000D02*
X43300000Y-4400000D01*
X48592893Y100000D02*
X49500000Y100000D01*
X48300000Y-300000D02*
X48300000Y-192893D01*
X45000000Y-1718629D02*
X45518629Y-1200000D01*
X45000000Y-2175736D02*
X45000000Y-1718629D01*
X42900000Y-3068629D02*
X43368629Y-2600000D01*
X43100000Y-5700000D02*
X43300000Y-5500000D01*
X43100000Y-6100000D02*
X43100000Y-5700000D01*
X43368629Y-2600000D02*
X44575736Y-2600000D01*
X45518629Y-1200000D02*
X47400000Y-1200000D01*
X44575736Y-2600000D02*
X45000000Y-2175736D01*
X43300000Y-4400000D02*
X42900000Y-4000000D01*
X47400000Y-1200000D02*
X48300000Y-300000D01*
G04 #@! TO.N,Rot*
X45642893Y-1500000D02*
X47700000Y-1500000D01*
X43200000Y-3607107D02*
X43200000Y-3192893D01*
X43792893Y-4200000D02*
X43200000Y-3607107D01*
X47700000Y-1500000D02*
X48800000Y-400000D01*
X45300000Y-2300000D02*
X45300000Y-1842893D01*
X44400000Y-4200000D02*
X43792893Y-4200000D01*
X44700000Y-2900000D02*
X45300000Y-2300000D01*
X45300000Y-1842893D02*
X45642893Y-1500000D01*
X43492893Y-2900000D02*
X44700000Y-2900000D01*
X43200000Y-3192893D02*
X43492893Y-2900000D01*
G04 #@! TD*
G04 #@! TA.AperFunction,Conductor*
G04 #@! TO.N,GND*
G36*
X57698433Y15117218D02*
G01*
X57710423Y15117218D01*
X57747046Y15117218D01*
X57753556Y15117047D01*
X57780133Y15115650D01*
X58087180Y15099506D01*
X58100103Y15098143D01*
X58426829Y15046222D01*
X58439543Y15043510D01*
X58759024Y14957613D01*
X58771374Y14953587D01*
X59080096Y14834657D01*
X59091966Y14829352D01*
X59161207Y14793938D01*
X59386495Y14678711D01*
X59397760Y14672181D01*
X59674851Y14491495D01*
X59685370Y14483820D01*
X59941999Y14275063D01*
X59951648Y14266333D01*
X60184973Y14031811D01*
X60193648Y14022123D01*
X60401085Y13764435D01*
X60408707Y13753877D01*
X60587979Y13475853D01*
X60594451Y13464554D01*
X60737909Y13180491D01*
X60743580Y13169263D01*
X60748824Y13157365D01*
X60803034Y13014468D01*
X60811095Y12970915D01*
X60836685Y5524426D01*
X60817231Y5457319D01*
X60764585Y5411383D01*
X60712686Y5400000D01*
X54800000Y5400000D01*
X54800000Y-6276000D01*
X54780315Y-6343039D01*
X54727511Y-6388794D01*
X54676000Y-6400000D01*
X52324333Y-6400000D01*
X52257294Y-6380315D01*
X52211539Y-6327511D01*
X52201595Y-6258353D01*
X52230620Y-6194797D01*
X52236652Y-6188319D01*
X52764533Y-5660438D01*
X53340460Y-5084511D01*
X53352879Y-5063000D01*
X53377713Y-5019987D01*
X53377716Y-5019981D01*
X53377988Y-5019508D01*
X53380021Y-5015989D01*
X53400500Y-4939562D01*
X53400500Y-4487386D01*
X53420185Y-4420347D01*
X53430778Y-4406194D01*
X53482882Y-4346063D01*
X53536697Y-4228226D01*
X53555133Y-4100000D01*
X53536697Y-3971774D01*
X53482882Y-3853937D01*
X53482880Y-3853935D01*
X53482879Y-3853932D01*
X53430786Y-3793812D01*
X53401762Y-3730256D01*
X53400500Y-3712611D01*
X53400500Y-2587386D01*
X53420185Y-2520347D01*
X53430778Y-2506194D01*
X53482882Y-2446063D01*
X53536697Y-2328226D01*
X53555133Y-2200000D01*
X53536697Y-2071774D01*
X53482882Y-1953937D01*
X53398049Y-1856033D01*
X53289069Y-1785996D01*
X53289065Y-1785994D01*
X53289064Y-1785994D01*
X53164774Y-1749500D01*
X53164772Y-1749500D01*
X53125833Y-1749500D01*
X53058794Y-1729815D01*
X53038152Y-1713181D01*
X51587002Y-262031D01*
X51553517Y-200708D01*
X51558501Y-131016D01*
X51600373Y-75083D01*
X51657039Y-51612D01*
X51664773Y-50500D01*
X51740632Y-28226D01*
X51789069Y-14004D01*
X51898049Y56033D01*
X51982882Y153937D01*
X52036697Y271774D01*
X52055133Y400000D01*
X52036697Y528226D01*
X51982882Y646063D01*
X51898049Y743967D01*
X51789069Y814004D01*
X51789065Y814006D01*
X51789064Y814006D01*
X51664774Y850500D01*
X51664772Y850500D01*
X51600347Y850500D01*
X51538346Y867113D01*
X51515990Y880021D01*
X51490513Y886848D01*
X51439562Y900500D01*
X48629067Y900500D01*
X48590853Y890261D01*
X48552638Y880021D01*
X48518552Y860341D01*
X48501508Y850500D01*
X48501506Y850500D01*
X48501506Y850499D01*
X48484121Y840463D01*
X48484116Y840459D01*
X47080477Y-563181D01*
X47019154Y-596666D01*
X46992796Y-599500D01*
X45354803Y-599500D01*
X45316589Y-609739D01*
X45278374Y-619979D01*
X45244288Y-639659D01*
X45227244Y-649500D01*
X45227242Y-649500D01*
X45227242Y-649501D01*
X45209857Y-659537D01*
X45209852Y-659541D01*
X44285277Y-1584116D01*
X44285271Y-1584124D01*
X44245718Y-1652633D01*
X44245715Y-1652638D01*
X44225236Y-1729068D01*
X44225236Y-1875500D01*
X44205551Y-1942539D01*
X44152747Y-1988294D01*
X44101236Y-1999500D01*
X43204803Y-1999500D01*
X43128375Y-2019978D01*
X43059854Y-2059540D01*
X43059851Y-2059542D01*
X42359541Y-2759852D01*
X42359535Y-2759860D01*
X42319982Y-2828369D01*
X42319979Y-2828374D01*
X42306326Y-2879327D01*
X42299500Y-2904803D01*
X42299500Y-4163826D01*
X42309193Y-4200000D01*
X42319979Y-4240254D01*
X42319982Y-4240259D01*
X42359535Y-4308768D01*
X42359541Y-4308776D01*
X42663181Y-4612416D01*
X42696666Y-4673739D01*
X42699500Y-4700097D01*
X42699500Y-5124167D01*
X42679815Y-5191206D01*
X42663181Y-5211848D01*
X42359541Y-5515487D01*
X42359535Y-5515495D01*
X42319982Y-5584004D01*
X42319979Y-5584009D01*
X42311410Y-5615989D01*
X42299500Y-5660438D01*
X42299500Y-6439562D01*
X42313152Y-6490513D01*
X42319979Y-6515990D01*
X42319982Y-6515995D01*
X42359535Y-6584504D01*
X42359541Y-6584512D01*
X42710618Y-6935589D01*
X42744103Y-6996912D01*
X42745675Y-7005623D01*
X42763302Y-7128225D01*
X42817117Y-7246061D01*
X42817118Y-7246063D01*
X42901951Y-7343967D01*
X43010931Y-7414004D01*
X43135225Y-7450499D01*
X43135227Y-7450500D01*
X43135228Y-7450500D01*
X43264773Y-7450500D01*
X43264773Y-7450499D01*
X43389069Y-7414004D01*
X43498049Y-7343967D01*
X43582882Y-7246063D01*
X43636697Y-7128226D01*
X43655133Y-7000000D01*
X43636697Y-6871774D01*
X43582882Y-6753937D01*
X43498049Y-6656033D01*
X43498048Y-6656032D01*
X43436174Y-6616268D01*
X43390420Y-6563464D01*
X43380476Y-6494306D01*
X43409501Y-6430751D01*
X43482879Y-6346067D01*
X43482879Y-6346065D01*
X43482882Y-6346063D01*
X43536697Y-6228226D01*
X43555133Y-6100000D01*
X43536697Y-5971774D01*
X43520439Y-5936174D01*
X43483582Y-5855469D01*
X43473638Y-5786310D01*
X43502663Y-5722754D01*
X43508696Y-5716275D01*
X43540457Y-5684514D01*
X43540457Y-5684513D01*
X43540460Y-5684511D01*
X43580022Y-5615988D01*
X43600500Y-5539562D01*
X43600500Y-5460438D01*
X43600500Y-4621148D01*
X43620185Y-4554109D01*
X43672989Y-4508354D01*
X43742147Y-4498410D01*
X43750542Y-4500132D01*
X43753330Y-4500499D01*
X43753331Y-4500500D01*
X44007657Y-4500500D01*
X44074696Y-4520185D01*
X44101369Y-4543296D01*
X44101949Y-4543965D01*
X44101951Y-4543967D01*
X44210931Y-4614004D01*
X44235262Y-4621148D01*
X44335225Y-4650499D01*
X44335227Y-4650500D01*
X44335228Y-4650500D01*
X44464773Y-4650500D01*
X44464773Y-4650499D01*
X44589069Y-4614004D01*
X44698049Y-4543967D01*
X44782882Y-4446063D01*
X44836697Y-4328226D01*
X44855133Y-4200000D01*
X44836697Y-4071774D01*
X44782882Y-3953937D01*
X44698049Y-3856033D01*
X44589069Y-3785996D01*
X44589065Y-3785994D01*
X44589064Y-3785994D01*
X44464774Y-3749500D01*
X44464772Y-3749500D01*
X44335228Y-3749500D01*
X44249772Y-3774591D01*
X44179903Y-3774590D01*
X44121125Y-3736815D01*
X44092101Y-3673258D01*
X44102044Y-3604103D01*
X44136697Y-3528226D01*
X44136697Y-3528223D01*
X44139089Y-3522987D01*
X44184845Y-3470184D01*
X44251883Y-3450500D01*
X44868707Y-3450500D01*
X44868708Y-3450500D01*
X44969966Y-3408557D01*
X45047465Y-3331058D01*
X45047464Y-3331058D01*
X45106024Y-3272498D01*
X45466706Y-2911816D01*
X45528028Y-2878334D01*
X45554386Y-2875500D01*
X46054799Y-2875500D01*
X46054800Y-2875500D01*
X46156058Y-2833557D01*
X46233557Y-2756058D01*
X46233556Y-2756058D01*
X46292116Y-2697498D01*
X46602798Y-2386817D01*
X46664120Y-2353334D01*
X46690478Y-2350500D01*
X48275814Y-2350500D01*
X48275815Y-2350500D01*
X48377073Y-2308557D01*
X48454572Y-2231058D01*
X48472467Y-2213163D01*
X48533790Y-2179678D01*
X48603482Y-2184662D01*
X48659415Y-2226534D01*
X48672941Y-2249331D01*
X48717118Y-2346063D01*
X48767378Y-2404067D01*
X48801369Y-2443296D01*
X48801951Y-2443967D01*
X48910931Y-2514004D01*
X49006780Y-2542147D01*
X49035225Y-2550499D01*
X49035227Y-2550500D01*
X49035228Y-2550500D01*
X49164773Y-2550500D01*
X49164773Y-2550499D01*
X49289069Y-2514004D01*
X49398049Y-2443967D01*
X49398374Y-2443591D01*
X49398631Y-2443296D01*
X49399379Y-2442815D01*
X49404754Y-2438158D01*
X49405423Y-2438930D01*
X49457409Y-2405523D01*
X49492343Y-2400500D01*
X49630447Y-2400500D01*
X49697486Y-2420185D01*
X49743241Y-2472989D01*
X49753185Y-2542147D01*
X49744867Y-2600000D01*
X49763302Y-2728225D01*
X49811933Y-2834710D01*
X49817118Y-2846063D01*
X49864761Y-2901047D01*
X49901369Y-2943296D01*
X49901951Y-2943967D01*
X50010931Y-3014004D01*
X50129217Y-3048735D01*
X50135225Y-3050499D01*
X50135227Y-3050500D01*
X50135228Y-3050500D01*
X50264773Y-3050500D01*
X50264773Y-3050499D01*
X50389069Y-3014004D01*
X50498049Y-2943967D01*
X50498374Y-2943591D01*
X50498631Y-2943296D01*
X50499379Y-2942815D01*
X50504754Y-2938158D01*
X50505423Y-2938930D01*
X50557409Y-2905523D01*
X50592343Y-2900500D01*
X51799903Y-2900500D01*
X51866942Y-2920185D01*
X51887584Y-2936819D01*
X51963181Y-3012416D01*
X51996666Y-3073739D01*
X51999500Y-3100097D01*
X51999500Y-4524167D01*
X51979815Y-4591206D01*
X51963181Y-4611848D01*
X51411848Y-5163181D01*
X51350525Y-5196666D01*
X51324167Y-5199500D01*
X50136174Y-5199500D01*
X50097960Y-5209739D01*
X50059745Y-5219979D01*
X50059740Y-5219982D01*
X49991231Y-5259535D01*
X49991223Y-5259541D01*
X49459541Y-5791223D01*
X49459535Y-5791231D01*
X49419982Y-5859740D01*
X49419979Y-5859745D01*
X49406326Y-5910698D01*
X49399500Y-5936174D01*
X49399500Y-8439562D01*
X49419979Y-8515989D01*
X49445641Y-8560437D01*
X49445643Y-8560439D01*
X49459542Y-8584514D01*
X49459543Y-8584515D01*
X49775028Y-8899999D01*
X50015489Y-9140460D01*
X50084012Y-9180022D01*
X50160438Y-9200500D01*
X50875639Y-9200500D01*
X50942678Y-9220185D01*
X50963320Y-9236819D01*
X52063181Y-10336680D01*
X52096666Y-10398003D01*
X52099500Y-10424361D01*
X52099500Y-10570933D01*
X52119979Y-10647360D01*
X52148425Y-10696630D01*
X52164897Y-10764530D01*
X52142044Y-10830557D01*
X52128718Y-10846310D01*
X51711848Y-11263181D01*
X51650525Y-11296666D01*
X51624167Y-11299500D01*
X43075833Y-11299500D01*
X43008794Y-11279815D01*
X42988152Y-11263181D01*
X42689381Y-10964410D01*
X42655896Y-10903087D01*
X42654324Y-10894375D01*
X42647413Y-10846310D01*
X42636697Y-10771774D01*
X42582882Y-10653937D01*
X42498049Y-10556033D01*
X42389069Y-10485996D01*
X42389065Y-10485994D01*
X42389064Y-10485994D01*
X42264774Y-10449500D01*
X42264772Y-10449500D01*
X42135228Y-10449500D01*
X42135226Y-10449500D01*
X42010935Y-10485994D01*
X42010932Y-10485995D01*
X42010931Y-10485996D01*
X41959677Y-10518934D01*
X41901950Y-10556033D01*
X41817118Y-10653937D01*
X41817117Y-10653938D01*
X41763302Y-10771774D01*
X41754851Y-10830557D01*
X41744867Y-10900000D01*
X41748658Y-10926370D01*
X41760374Y-11007853D01*
X41750430Y-11077011D01*
X41704675Y-11129815D01*
X41637636Y-11149500D01*
X41535226Y-11149500D01*
X41410933Y-11185994D01*
X41410932Y-11185994D01*
X41317026Y-11246344D01*
X41249987Y-11266028D01*
X41182948Y-11246343D01*
X41156274Y-11223229D01*
X41098051Y-11156034D01*
X41077301Y-11142699D01*
X40989069Y-11085996D01*
X40989065Y-11085994D01*
X40989064Y-11085994D01*
X40864774Y-11049500D01*
X40864772Y-11049500D01*
X40735228Y-11049500D01*
X40735226Y-11049500D01*
X40610935Y-11085994D01*
X40610932Y-11085995D01*
X40610931Y-11085996D01*
X40559677Y-11118934D01*
X40501950Y-11156033D01*
X40417118Y-11253937D01*
X40417117Y-11253938D01*
X40363302Y-11371774D01*
X40344867Y-11500000D01*
X40363302Y-11628225D01*
X40391689Y-11690382D01*
X40417118Y-11746063D01*
X40469214Y-11806186D01*
X40498238Y-11869738D01*
X40499500Y-11887386D01*
X40499500Y-12039562D01*
X40509739Y-12077775D01*
X40519979Y-12115991D01*
X40519980Y-12115992D01*
X40533048Y-12138626D01*
X40549521Y-12206526D01*
X40526669Y-12272553D01*
X40471748Y-12315743D01*
X40425661Y-12324626D01*
X36378122Y-12324626D01*
X36371632Y-12324456D01*
X36036472Y-12306889D01*
X36023563Y-12305532D01*
X35695294Y-12253537D01*
X35682600Y-12250839D01*
X35596495Y-12227767D01*
X35361551Y-12164812D01*
X35349208Y-12160801D01*
X35038918Y-12041691D01*
X35027061Y-12036412D01*
X34730916Y-11885517D01*
X34719676Y-11879027D01*
X34440936Y-11698011D01*
X34430435Y-11690382D01*
X34172131Y-11481211D01*
X34162486Y-11472526D01*
X33927473Y-11237513D01*
X33918788Y-11227868D01*
X33709617Y-10969564D01*
X33701988Y-10959063D01*
X33663632Y-10900000D01*
X33520970Y-10680319D01*
X33514482Y-10669083D01*
X33363582Y-10372927D01*
X33358312Y-10361092D01*
X33239198Y-10050791D01*
X33235187Y-10038448D01*
X33212542Y-9953937D01*
X33149156Y-9717385D01*
X33146464Y-9704717D01*
X33094465Y-9376419D01*
X33093111Y-9363543D01*
X33075544Y-9028385D01*
X33075375Y-9021856D01*
X33075388Y-8985211D01*
X33077371Y-3359999D01*
X34057639Y-3359999D01*
X34057639Y-3360000D01*
X34653012Y-3360000D01*
X34635795Y-3369940D01*
X34579940Y-3425795D01*
X34540444Y-3494204D01*
X34520000Y-3570504D01*
X34520000Y-3649496D01*
X34540444Y-3725796D01*
X34579940Y-3794205D01*
X34635795Y-3850060D01*
X34653012Y-3860000D01*
X34057639Y-3860000D01*
X34111047Y-3988938D01*
X34111052Y-3988948D01*
X34198598Y-4119969D01*
X34198601Y-4119973D01*
X34310026Y-4231398D01*
X34310030Y-4231401D01*
X34441051Y-4318947D01*
X34441060Y-4318952D01*
X34586648Y-4379256D01*
X34586656Y-4379258D01*
X34741202Y-4409999D01*
X34741206Y-4410000D01*
X34970000Y-4410000D01*
X34970000Y-3910000D01*
X35470000Y-3910000D01*
X35470000Y-4410000D01*
X35698794Y-4410000D01*
X35698797Y-4409999D01*
X35853343Y-4379258D01*
X35853351Y-4379256D01*
X35998939Y-4318952D01*
X35998948Y-4318947D01*
X36129969Y-4231401D01*
X36129973Y-4231398D01*
X36241398Y-4119973D01*
X36241401Y-4119969D01*
X36328947Y-3988948D01*
X36328952Y-3988938D01*
X36382361Y-3860000D01*
X35786988Y-3860000D01*
X35804205Y-3850060D01*
X35860060Y-3794205D01*
X35899556Y-3725796D01*
X35920000Y-3649496D01*
X35920000Y-3570504D01*
X35899556Y-3494204D01*
X35860060Y-3425795D01*
X35804205Y-3369940D01*
X35786988Y-3360000D01*
X36382361Y-3360000D01*
X36382360Y-3359999D01*
X38087639Y-3359999D01*
X38087639Y-3360000D01*
X38683012Y-3360000D01*
X38665795Y-3369940D01*
X38609940Y-3425795D01*
X38570444Y-3494204D01*
X38550000Y-3570504D01*
X38550000Y-3649496D01*
X38570444Y-3725796D01*
X38609940Y-3794205D01*
X38665795Y-3850060D01*
X38683012Y-3860000D01*
X38087639Y-3860000D01*
X38141047Y-3988938D01*
X38141052Y-3988948D01*
X38228598Y-4119969D01*
X38228601Y-4119973D01*
X38340026Y-4231398D01*
X38340030Y-4231401D01*
X38471051Y-4318947D01*
X38471060Y-4318952D01*
X38616648Y-4379256D01*
X38616656Y-4379258D01*
X38771202Y-4409999D01*
X38771206Y-4410000D01*
X39150000Y-4410000D01*
X39150000Y-3910000D01*
X39650000Y-3910000D01*
X39650000Y-4410000D01*
X40028794Y-4410000D01*
X40028797Y-4409999D01*
X40183343Y-4379258D01*
X40183351Y-4379256D01*
X40328939Y-4318952D01*
X40328948Y-4318947D01*
X40459969Y-4231401D01*
X40459973Y-4231398D01*
X40571398Y-4119973D01*
X40571401Y-4119969D01*
X40658947Y-3988948D01*
X40658952Y-3988938D01*
X40712361Y-3860000D01*
X40116988Y-3860000D01*
X40134205Y-3850060D01*
X40190060Y-3794205D01*
X40229556Y-3725796D01*
X40250000Y-3649496D01*
X40250000Y-3570504D01*
X40229556Y-3494204D01*
X40190060Y-3425795D01*
X40134205Y-3369940D01*
X40116988Y-3360000D01*
X40712361Y-3360000D01*
X40712360Y-3359999D01*
X40658952Y-3231061D01*
X40658947Y-3231051D01*
X40571401Y-3100030D01*
X40571398Y-3100026D01*
X40459973Y-2988601D01*
X40459969Y-2988598D01*
X40328948Y-2901052D01*
X40328939Y-2901047D01*
X40183351Y-2840743D01*
X40183343Y-2840741D01*
X40028797Y-2810000D01*
X39650000Y-2810000D01*
X39650000Y-3310000D01*
X39150000Y-3310000D01*
X39150000Y-2777557D01*
X39169685Y-2710518D01*
X39211998Y-2670171D01*
X39256435Y-2644516D01*
X39364516Y-2536435D01*
X39440940Y-2404065D01*
X39480500Y-2256424D01*
X39480500Y-2103576D01*
X39440940Y-1955935D01*
X39364516Y-1823565D01*
X39256435Y-1715484D01*
X39124065Y-1639060D01*
X38976424Y-1599500D01*
X38823576Y-1599500D01*
X38675935Y-1639060D01*
X38675932Y-1639061D01*
X38543568Y-1715482D01*
X38543562Y-1715486D01*
X38435486Y-1823562D01*
X38435482Y-1823568D01*
X38359061Y-1955932D01*
X38359060Y-1955935D01*
X38319500Y-2103576D01*
X38319500Y-2256424D01*
X38359060Y-2404065D01*
X38435484Y-2536435D01*
X38543565Y-2644516D01*
X38554230Y-2650673D01*
X38602446Y-2701238D01*
X38615671Y-2769845D01*
X38589704Y-2834710D01*
X38539685Y-2872622D01*
X38471061Y-2901047D01*
X38471051Y-2901052D01*
X38340030Y-2988598D01*
X38340026Y-2988601D01*
X38228601Y-3100026D01*
X38228598Y-3100030D01*
X38141052Y-3231051D01*
X38141047Y-3231061D01*
X38087639Y-3359999D01*
X36382360Y-3359999D01*
X36328952Y-3231061D01*
X36328947Y-3231051D01*
X36241401Y-3100030D01*
X36241398Y-3100026D01*
X36129973Y-2988601D01*
X36129969Y-2988598D01*
X35998948Y-2901052D01*
X35998939Y-2901047D01*
X35853351Y-2840743D01*
X35853343Y-2840741D01*
X35698797Y-2810000D01*
X35470000Y-2810000D01*
X35470000Y-3310000D01*
X34970000Y-3310000D01*
X34970000Y-2810000D01*
X34741202Y-2810000D01*
X34586656Y-2840741D01*
X34586648Y-2840743D01*
X34441060Y-2901047D01*
X34441051Y-2901052D01*
X34310030Y-2988598D01*
X34310026Y-2988601D01*
X34198601Y-3100026D01*
X34198598Y-3100030D01*
X34111052Y-3231051D01*
X34111047Y-3231061D01*
X34057639Y-3359999D01*
X33077371Y-3359999D01*
X33078641Y240000D01*
X43894378Y240000D01*
X43926065Y149443D01*
X43926066Y149441D01*
X44003934Y43935D01*
X44109438Y-33931D01*
X44233219Y-77244D01*
X44249999Y-78817D01*
X44750000Y-78817D01*
X44766780Y-77244D01*
X44890561Y-33931D01*
X44996065Y43935D01*
X45073933Y149441D01*
X45073934Y149443D01*
X45105621Y240000D01*
X44750000Y240000D01*
X44750000Y-78817D01*
X44249999Y-78817D01*
X44250000Y-78816D01*
X44250000Y240000D01*
X43894378Y240000D01*
X33078641Y240000D01*
X33080418Y5280001D01*
X34057639Y5280001D01*
X34057639Y5280000D01*
X34653012Y5280000D01*
X34635795Y5270060D01*
X34579940Y5214205D01*
X34540444Y5145796D01*
X34520000Y5069496D01*
X34520000Y4990504D01*
X34540444Y4914204D01*
X34579940Y4845795D01*
X34635795Y4789940D01*
X34653012Y4780000D01*
X34057639Y4780000D01*
X34111047Y4651062D01*
X34111052Y4651052D01*
X34198598Y4520031D01*
X34198601Y4520027D01*
X34310026Y4408602D01*
X34310030Y4408599D01*
X34441051Y4321053D01*
X34441060Y4321048D01*
X34586648Y4260744D01*
X34586656Y4260742D01*
X34741202Y4230001D01*
X34741206Y4230000D01*
X34970000Y4230000D01*
X34970000Y4730000D01*
X35470000Y4730000D01*
X35470000Y4230000D01*
X35698794Y4230000D01*
X35698797Y4230001D01*
X35853343Y4260742D01*
X35853351Y4260744D01*
X35998939Y4321048D01*
X35998948Y4321053D01*
X36129969Y4408599D01*
X36129973Y4408602D01*
X36241398Y4520027D01*
X36241401Y4520031D01*
X36328947Y4651052D01*
X36328952Y4651062D01*
X36382361Y4780000D01*
X35786988Y4780000D01*
X35804205Y4789940D01*
X35860060Y4845795D01*
X35899556Y4914204D01*
X35920000Y4990504D01*
X35920000Y5069496D01*
X35899556Y5145796D01*
X35860060Y5214205D01*
X35804205Y5270060D01*
X35786988Y5280000D01*
X36382361Y5280000D01*
X36382360Y5280001D01*
X38087639Y5280001D01*
X38087639Y5280000D01*
X38683012Y5280000D01*
X38665795Y5270060D01*
X38609940Y5214205D01*
X38570444Y5145796D01*
X38550000Y5069496D01*
X38550000Y4990504D01*
X38570444Y4914204D01*
X38609940Y4845795D01*
X38665795Y4789940D01*
X38683012Y4780000D01*
X38087639Y4780000D01*
X38141047Y4651062D01*
X38141052Y4651052D01*
X38228598Y4520031D01*
X38228601Y4520027D01*
X38340026Y4408602D01*
X38340030Y4408599D01*
X38471051Y4321053D01*
X38471064Y4321046D01*
X38539684Y4292623D01*
X38594088Y4248783D01*
X38616153Y4182488D01*
X38598874Y4114789D01*
X38554234Y4070676D01*
X38543568Y4064518D01*
X38543562Y4064514D01*
X38435486Y3956438D01*
X38435482Y3956432D01*
X38359061Y3824068D01*
X38359060Y3824065D01*
X38319500Y3676424D01*
X38319500Y3523576D01*
X38359060Y3375935D01*
X38435484Y3243565D01*
X38543565Y3135484D01*
X38675935Y3059060D01*
X38823576Y3019500D01*
X38823578Y3019500D01*
X38976422Y3019500D01*
X38976424Y3019500D01*
X39124065Y3059060D01*
X39256435Y3135484D01*
X39364516Y3243565D01*
X39440940Y3375935D01*
X39480500Y3523576D01*
X39480500Y3676424D01*
X39440940Y3824065D01*
X39364516Y3956435D01*
X39256435Y4064516D01*
X39211998Y4090172D01*
X39163784Y4140739D01*
X39150000Y4197558D01*
X39150000Y4730000D01*
X39650000Y4730000D01*
X39650000Y4230000D01*
X40028794Y4230000D01*
X40028797Y4230001D01*
X40183343Y4260742D01*
X40183351Y4260744D01*
X40328939Y4321048D01*
X40328948Y4321053D01*
X40459969Y4408599D01*
X40459973Y4408602D01*
X40571398Y4520027D01*
X40571401Y4520031D01*
X40658947Y4651052D01*
X40661821Y4656428D01*
X40663400Y4655584D01*
X40701923Y4703414D01*
X40768211Y4725497D01*
X40835915Y4708236D01*
X40883540Y4657112D01*
X40885465Y4653089D01*
X40903572Y4613441D01*
X40930747Y4553937D01*
X41015580Y4456033D01*
X41124560Y4385996D01*
X41248854Y4349501D01*
X41248856Y4349500D01*
X41248857Y4349500D01*
X41309523Y4349500D01*
X41376562Y4329815D01*
X41397204Y4313181D01*
X42638181Y3072204D01*
X42671666Y3010881D01*
X42674500Y2984523D01*
X42674500Y2773448D01*
X42716443Y2672190D01*
X42716444Y2672189D01*
X43263359Y2125274D01*
X43296844Y2063951D01*
X43291860Y1994259D01*
X43269392Y1956393D01*
X43239397Y1921775D01*
X43217118Y1896063D01*
X43217117Y1896062D01*
X43163302Y1778226D01*
X43144867Y1650000D01*
X43163302Y1521775D01*
X43174660Y1496905D01*
X43217118Y1403937D01*
X43301951Y1306033D01*
X43410931Y1235996D01*
X43410938Y1235994D01*
X43535225Y1199501D01*
X43535227Y1199500D01*
X43535228Y1199500D01*
X43664773Y1199500D01*
X43664773Y1199501D01*
X43743572Y1222638D01*
X43789063Y1235994D01*
X43789063Y1235995D01*
X43789069Y1235996D01*
X43839355Y1268313D01*
X43906389Y1287996D01*
X43973428Y1268312D01*
X44018771Y1216402D01*
X44035933Y1179598D01*
X44060577Y1154954D01*
X44094062Y1093631D01*
X44089078Y1023939D01*
X44047206Y968006D01*
X44046531Y967504D01*
X44003935Y936066D01*
X43926066Y830560D01*
X43926065Y830558D01*
X43894378Y740001D01*
X43894378Y740000D01*
X45105622Y740000D01*
X45105621Y740001D01*
X45073934Y830558D01*
X45073933Y830560D01*
X44996065Y936066D01*
X44953469Y967503D01*
X44911218Y1023151D01*
X44905761Y1092807D01*
X44938828Y1154356D01*
X44939185Y1154716D01*
X44964065Y1179596D01*
X45014068Y1286827D01*
X45020500Y1335684D01*
X45020500Y1496905D01*
X45040185Y1563944D01*
X45092989Y1609699D01*
X45162147Y1619643D01*
X45179435Y1615882D01*
X45235227Y1599500D01*
X45235228Y1599500D01*
X45364773Y1599500D01*
X45364773Y1599501D01*
X45489069Y1635996D01*
X45598049Y1706033D01*
X45682882Y1803937D01*
X45736697Y1921774D01*
X45755133Y2050000D01*
X45736697Y2178226D01*
X45682882Y2296063D01*
X45598049Y2393967D01*
X45489069Y2464004D01*
X45489065Y2464006D01*
X45489064Y2464006D01*
X45364774Y2500500D01*
X45364772Y2500500D01*
X45290478Y2500500D01*
X45223439Y2520185D01*
X45202797Y2536819D01*
X45086819Y2652797D01*
X45053334Y2714120D01*
X45050500Y2740478D01*
X45050500Y3725814D01*
X45050498Y3725820D01*
X45040276Y3750499D01*
X45040274Y3750502D01*
X45008558Y3827073D01*
X44586819Y4248812D01*
X44553334Y4310135D01*
X44550500Y4336493D01*
X44550500Y5813506D01*
X44570185Y5880545D01*
X44586817Y5901186D01*
X44608557Y5922925D01*
X44630916Y5976905D01*
X44640482Y6000000D01*
X45544867Y6000000D01*
X45563302Y5871775D01*
X45617117Y5753939D01*
X45617118Y5753937D01*
X45701951Y5656033D01*
X45810931Y5585996D01*
X45920117Y5553937D01*
X45935225Y5549501D01*
X45935227Y5549500D01*
X45935228Y5549500D01*
X45974167Y5549500D01*
X46041206Y5529815D01*
X46061848Y5513181D01*
X46113181Y5461848D01*
X46146666Y5400525D01*
X46149500Y5374167D01*
X46149500Y3729683D01*
X46129815Y3662644D01*
X46119215Y3648483D01*
X46117119Y3646065D01*
X46117116Y3646061D01*
X46063302Y3528226D01*
X46044867Y3400000D01*
X46063302Y3271775D01*
X46089043Y3215412D01*
X46117118Y3153937D01*
X46201951Y3056033D01*
X46310931Y2985996D01*
X46315948Y2984523D01*
X46435225Y2949501D01*
X46435227Y2949500D01*
X46435228Y2949500D01*
X46564773Y2949500D01*
X46564773Y2949501D01*
X46689069Y2985996D01*
X46798049Y3056033D01*
X46882882Y3153937D01*
X46936697Y3271774D01*
X46955133Y3400000D01*
X46936697Y3528226D01*
X46882882Y3646063D01*
X46798049Y3743967D01*
X46798048Y3743968D01*
X46798047Y3743969D01*
X46793296Y3748086D01*
X46755523Y3806864D01*
X46750500Y3841798D01*
X46750500Y5589561D01*
X46733930Y5651399D01*
X46730021Y5665989D01*
X46726681Y5671774D01*
X46690464Y5734505D01*
X46690458Y5734513D01*
X46489381Y5935590D01*
X46455896Y5996913D01*
X46454324Y6005625D01*
X46451655Y6024186D01*
X46436697Y6128226D01*
X46382882Y6246063D01*
X46298049Y6343967D01*
X46189069Y6414004D01*
X46189065Y6414006D01*
X46189064Y6414006D01*
X46064774Y6450500D01*
X46064772Y6450500D01*
X45935228Y6450500D01*
X45935226Y6450500D01*
X45810935Y6414006D01*
X45810932Y6414005D01*
X45810931Y6414004D01*
X45759677Y6381066D01*
X45701950Y6343967D01*
X45617118Y6246063D01*
X45617117Y6246062D01*
X45563302Y6128226D01*
X45544867Y6000000D01*
X44640482Y6000000D01*
X44650500Y6024184D01*
X44650500Y6775815D01*
X44608557Y6877073D01*
X44608557Y6877074D01*
X44461819Y7023812D01*
X44428334Y7085135D01*
X44425500Y7111493D01*
X44425500Y8204799D01*
X44425498Y8204804D01*
X44383560Y8306056D01*
X44383558Y8306058D01*
X42390787Y10298828D01*
X42357302Y10360151D01*
X42356197Y10391131D01*
X42355133Y10391131D01*
X42355133Y10400000D01*
X42336697Y10528226D01*
X42307969Y10591131D01*
X42303919Y10600000D01*
X45644867Y10600000D01*
X45663302Y10471775D01*
X45696081Y10400000D01*
X45717118Y10353937D01*
X45801951Y10256033D01*
X45910931Y10185996D01*
X46020110Y10153939D01*
X46035225Y10149501D01*
X46035227Y10149500D01*
X46035228Y10149500D01*
X46109523Y10149500D01*
X46176562Y10129815D01*
X46197204Y10113181D01*
X47888181Y8422204D01*
X47921666Y8360881D01*
X47924500Y8334523D01*
X47924500Y6216240D01*
X47904815Y6149201D01*
X47894214Y6135038D01*
X47817118Y6046063D01*
X47817117Y6046062D01*
X47763302Y5928226D01*
X47744867Y5800000D01*
X47763302Y5671775D01*
X47772608Y5651399D01*
X47817118Y5553937D01*
X47901951Y5456033D01*
X48010931Y5385996D01*
X48051218Y5374167D01*
X48135225Y5349501D01*
X48135227Y5349500D01*
X48135228Y5349500D01*
X48264773Y5349500D01*
X48264773Y5349501D01*
X48389069Y5385996D01*
X48498049Y5456033D01*
X48582882Y5553937D01*
X48636697Y5671774D01*
X48655133Y5800000D01*
X48652212Y5820316D01*
X48662153Y5889473D01*
X48707907Y5942278D01*
X48774946Y5961964D01*
X48809882Y5956942D01*
X48835228Y5949500D01*
X48964773Y5949500D01*
X48964773Y5949501D01*
X49089069Y5985996D01*
X49198049Y6056033D01*
X49282882Y6153937D01*
X49336697Y6271774D01*
X49355133Y6400000D01*
X49336697Y6528226D01*
X49282882Y6646063D01*
X49282880Y6646065D01*
X49282879Y6646068D01*
X49230786Y6706188D01*
X49201762Y6769744D01*
X49200500Y6787389D01*
X49200500Y7165541D01*
X49211706Y7217053D01*
X49219713Y7234585D01*
X49236697Y7271774D01*
X49255133Y7400000D01*
X49236697Y7528226D01*
X49182882Y7646063D01*
X49098049Y7743967D01*
X48989069Y7814004D01*
X48989065Y7814006D01*
X48989064Y7814006D01*
X48864774Y7850500D01*
X48864772Y7850500D01*
X48735228Y7850500D01*
X48735226Y7850500D01*
X48634434Y7820906D01*
X48564564Y7820906D01*
X48505786Y7858681D01*
X48476762Y7922237D01*
X48475500Y7939883D01*
X48475500Y8554799D01*
X48475500Y8554800D01*
X48433557Y8656058D01*
X48433557Y8656059D01*
X46590786Y10498829D01*
X46557302Y10560151D01*
X46556197Y10591131D01*
X46555133Y10591131D01*
X46555133Y10600000D01*
X46536697Y10728226D01*
X46482882Y10846062D01*
X46482882Y10846063D01*
X46398049Y10943967D01*
X46289069Y11014004D01*
X46289065Y11014006D01*
X46289064Y11014006D01*
X46164774Y11050500D01*
X46164772Y11050500D01*
X46035228Y11050500D01*
X46035226Y11050500D01*
X45910935Y11014006D01*
X45910932Y11014005D01*
X45910931Y11014004D01*
X45859677Y10981066D01*
X45801950Y10943967D01*
X45717118Y10846063D01*
X45717117Y10846062D01*
X45663302Y10728226D01*
X45644867Y10600000D01*
X42303919Y10600000D01*
X42282882Y10646063D01*
X42198049Y10743967D01*
X42089069Y10814004D01*
X42089065Y10814006D01*
X42089064Y10814006D01*
X41964774Y10850500D01*
X41964772Y10850500D01*
X41835228Y10850500D01*
X41835226Y10850500D01*
X41710935Y10814006D01*
X41710932Y10814005D01*
X41710931Y10814004D01*
X41659677Y10781066D01*
X41601950Y10743967D01*
X41517118Y10646063D01*
X41517117Y10646062D01*
X41463302Y10528226D01*
X41444867Y10400000D01*
X41463302Y10271775D01*
X41517117Y10153939D01*
X41517118Y10153937D01*
X41590499Y10069249D01*
X41619523Y10005693D01*
X41609579Y9936534D01*
X41563825Y9883732D01*
X41501951Y9843968D01*
X41417118Y9746063D01*
X41417117Y9746062D01*
X41363302Y9628226D01*
X41344867Y9500000D01*
X41363302Y9371775D01*
X41395006Y9302354D01*
X41417118Y9253937D01*
X41501951Y9156033D01*
X41610931Y9085996D01*
X41735225Y9049501D01*
X41735227Y9049500D01*
X41735228Y9049500D01*
X41774167Y9049500D01*
X41841206Y9029815D01*
X41861848Y9013181D01*
X43513181Y7361848D01*
X43546666Y7300525D01*
X43549500Y7274167D01*
X43549500Y6947517D01*
X43529815Y6880478D01*
X43477011Y6834723D01*
X43460435Y6828540D01*
X43410934Y6814006D01*
X43301950Y6743967D01*
X43217118Y6646063D01*
X43217117Y6646062D01*
X43163302Y6528226D01*
X43144867Y6400000D01*
X43163302Y6271775D01*
X43188665Y6216240D01*
X43217118Y6153937D01*
X43294214Y6064962D01*
X43323238Y6001409D01*
X43324500Y5983762D01*
X43324500Y5969245D01*
X43304815Y5902206D01*
X43252011Y5856451D01*
X43182853Y5846507D01*
X43165572Y5850266D01*
X43164776Y5850500D01*
X43164772Y5850500D01*
X43035228Y5850500D01*
X43035226Y5850500D01*
X42910935Y5814006D01*
X42910932Y5814005D01*
X42910931Y5814004D01*
X42817465Y5753937D01*
X42794490Y5739172D01*
X42793394Y5740877D01*
X42740380Y5716672D01*
X42671222Y5726623D01*
X42629032Y5758210D01*
X42598049Y5793967D01*
X42489069Y5864004D01*
X42489065Y5864006D01*
X42489064Y5864006D01*
X42364774Y5900500D01*
X42364772Y5900500D01*
X42235228Y5900500D01*
X42235226Y5900500D01*
X42110935Y5864006D01*
X42110932Y5864005D01*
X42110931Y5864004D01*
X42083705Y5846507D01*
X42001950Y5793967D01*
X41917118Y5696063D01*
X41917117Y5696062D01*
X41863302Y5578226D01*
X41844867Y5450000D01*
X41863302Y5321775D01*
X41917117Y5203939D01*
X41917118Y5203937D01*
X42001951Y5106033D01*
X42110931Y5035996D01*
X42135433Y5028802D01*
X42194212Y4991028D01*
X42223238Y4927473D01*
X42224500Y4909824D01*
X42224500Y4564478D01*
X42204815Y4497439D01*
X42152011Y4451684D01*
X42082853Y4441740D01*
X42019297Y4470765D01*
X42012819Y4476797D01*
X41802703Y4686912D01*
X41769218Y4748235D01*
X41767646Y4792240D01*
X41768762Y4800000D01*
X41750326Y4928226D01*
X41696511Y5046063D01*
X41611678Y5143967D01*
X41502698Y5214004D01*
X41502694Y5214006D01*
X41502693Y5214006D01*
X41378403Y5250500D01*
X41378401Y5250500D01*
X41248857Y5250500D01*
X41248855Y5250500D01*
X41124564Y5214006D01*
X41124561Y5214005D01*
X41124560Y5214004D01*
X41091054Y5192472D01*
X41015578Y5143967D01*
X40959798Y5079592D01*
X40901019Y5041818D01*
X40831150Y5041818D01*
X40772372Y5079593D01*
X40744467Y5136605D01*
X40719256Y5263352D01*
X40658952Y5408940D01*
X40658947Y5408949D01*
X40571401Y5539970D01*
X40571398Y5539974D01*
X40459973Y5651399D01*
X40459969Y5651402D01*
X40328948Y5738948D01*
X40328939Y5738953D01*
X40183351Y5799257D01*
X40183343Y5799259D01*
X40028797Y5830000D01*
X39650000Y5830000D01*
X39650000Y5330000D01*
X39150000Y5330000D01*
X39150000Y5830000D01*
X38771202Y5830000D01*
X38616656Y5799259D01*
X38616648Y5799257D01*
X38471060Y5738953D01*
X38471051Y5738948D01*
X38340030Y5651402D01*
X38340026Y5651399D01*
X38228601Y5539974D01*
X38228598Y5539970D01*
X38141052Y5408949D01*
X38141047Y5408939D01*
X38087639Y5280001D01*
X36382360Y5280001D01*
X36328952Y5408939D01*
X36328947Y5408949D01*
X36241401Y5539970D01*
X36241398Y5539974D01*
X36129973Y5651399D01*
X36129969Y5651402D01*
X35998948Y5738948D01*
X35998939Y5738953D01*
X35853351Y5799257D01*
X35853343Y5799259D01*
X35698797Y5830000D01*
X35470000Y5830000D01*
X35470000Y5330000D01*
X34970000Y5330000D01*
X34970000Y5830000D01*
X34741202Y5830000D01*
X34586656Y5799259D01*
X34586648Y5799257D01*
X34441060Y5738953D01*
X34441051Y5738948D01*
X34310030Y5651402D01*
X34310026Y5651399D01*
X34198601Y5539974D01*
X34198598Y5539970D01*
X34111052Y5408949D01*
X34111047Y5408939D01*
X34057639Y5280001D01*
X33080418Y5280001D01*
X33081500Y8350000D01*
X38277096Y8350000D01*
X39139670Y8350000D01*
X39119925Y8330255D01*
X39070556Y8244745D01*
X39045000Y8149370D01*
X39045000Y8050630D01*
X39070556Y7955255D01*
X39119925Y7869745D01*
X39139670Y7850000D01*
X38277096Y7850000D01*
X38279584Y7837484D01*
X38279587Y7837477D01*
X38347428Y7673694D01*
X38347433Y7673684D01*
X38445923Y7526284D01*
X38445926Y7526280D01*
X38571279Y7400927D01*
X38571283Y7400924D01*
X38718683Y7302434D01*
X38718692Y7302429D01*
X38882479Y7234587D01*
X38882487Y7234585D01*
X39056353Y7200001D01*
X39056357Y7200000D01*
X39170000Y7200000D01*
X39170000Y7819670D01*
X39189745Y7799925D01*
X39275255Y7750556D01*
X39370630Y7725000D01*
X39469370Y7725000D01*
X39564745Y7750556D01*
X39650255Y7799925D01*
X39670000Y7819670D01*
X39670000Y7200000D01*
X39783643Y7200000D01*
X39783646Y7200001D01*
X39957512Y7234585D01*
X39957520Y7234587D01*
X40121307Y7302429D01*
X40121316Y7302434D01*
X40268716Y7400924D01*
X40268720Y7400927D01*
X40394073Y7526280D01*
X40394076Y7526284D01*
X40492566Y7673684D01*
X40492571Y7673694D01*
X40560412Y7837477D01*
X40560415Y7837484D01*
X40562904Y7850000D01*
X39700330Y7850000D01*
X39720075Y7869745D01*
X39769444Y7955255D01*
X39795000Y8050630D01*
X39795000Y8149370D01*
X39769444Y8244745D01*
X39720075Y8330255D01*
X39700330Y8350000D01*
X40562904Y8350000D01*
X40560415Y8362517D01*
X40560412Y8362524D01*
X40492571Y8526307D01*
X40492566Y8526317D01*
X40394076Y8673717D01*
X40394073Y8673721D01*
X40268720Y8799074D01*
X40268716Y8799077D01*
X40121316Y8897567D01*
X40121307Y8897572D01*
X39957520Y8965414D01*
X39957512Y8965416D01*
X39783646Y9000000D01*
X39670000Y9000000D01*
X39670000Y8380330D01*
X39650255Y8400075D01*
X39564745Y8449444D01*
X39469370Y8475000D01*
X39370630Y8475000D01*
X39275255Y8449444D01*
X39189745Y8400075D01*
X39170000Y8380330D01*
X39170000Y9000000D01*
X39056353Y9000000D01*
X38882487Y8965416D01*
X38882479Y8965414D01*
X38718692Y8897572D01*
X38718683Y8897567D01*
X38571283Y8799077D01*
X38571279Y8799074D01*
X38445926Y8673721D01*
X38445923Y8673717D01*
X38347433Y8526317D01*
X38347428Y8526307D01*
X38279587Y8362524D01*
X38279584Y8362517D01*
X38277096Y8350000D01*
X33081500Y8350000D01*
X33082260Y10504270D01*
X38344500Y10504270D01*
X38344500Y9695731D01*
X38347353Y9665301D01*
X38347353Y9665299D01*
X38392206Y9537120D01*
X38392207Y9537118D01*
X38472850Y9427850D01*
X38582118Y9347207D01*
X38624845Y9332256D01*
X38710299Y9302354D01*
X38740730Y9299500D01*
X38740734Y9299500D01*
X40099270Y9299500D01*
X40129699Y9302354D01*
X40129701Y9302354D01*
X40193790Y9324781D01*
X40257882Y9347207D01*
X40367150Y9427850D01*
X40447793Y9537118D01*
X40479673Y9628226D01*
X40492646Y9665299D01*
X40492646Y9665301D01*
X40495500Y9695731D01*
X40495500Y10504270D01*
X40492646Y10534700D01*
X40492646Y10534702D01*
X40459006Y10630837D01*
X40447793Y10662882D01*
X40367150Y10772150D01*
X40257882Y10852793D01*
X40257880Y10852794D01*
X40129700Y10897647D01*
X40099270Y10900500D01*
X40099266Y10900500D01*
X38740734Y10900500D01*
X38740730Y10900500D01*
X38710300Y10897647D01*
X38710298Y10897647D01*
X38582119Y10852794D01*
X38582117Y10852793D01*
X38472850Y10772150D01*
X38392207Y10662883D01*
X38392206Y10662881D01*
X38347353Y10534702D01*
X38347353Y10534700D01*
X38344500Y10504270D01*
X33082260Y10504270D01*
X33082713Y11790041D01*
X33082733Y11790222D01*
X33082733Y11839647D01*
X33082903Y11846136D01*
X33100330Y12178672D01*
X33101687Y12191580D01*
X33131978Y12382833D01*
X33153270Y12517268D01*
X33155959Y12529925D01*
X33241314Y12848474D01*
X33245314Y12860783D01*
X33363487Y13168637D01*
X33368766Y13180491D01*
X33518466Y13474296D01*
X33524951Y13485530D01*
X33704546Y13762082D01*
X33712161Y13772563D01*
X33919692Y14028843D01*
X33928359Y14038468D01*
X34161532Y14271641D01*
X34171157Y14280308D01*
X34427437Y14487839D01*
X34437918Y14495454D01*
X34714470Y14675049D01*
X34725704Y14681534D01*
X35019509Y14831234D01*
X35031365Y14836513D01*
X35339217Y14954686D01*
X35351526Y14958686D01*
X35670075Y15044041D01*
X35682732Y15046730D01*
X36008420Y15098313D01*
X36021327Y15099670D01*
X36173621Y15107652D01*
X36353864Y15117097D01*
X36360353Y15117267D01*
X36396989Y15117267D01*
X57697936Y15117267D01*
X57698433Y15117218D01*
G37*
G04 #@! TD.AperFunction*
G04 #@! TA.AperFunction,Conductor*
G36*
X54672789Y-8019685D02*
G01*
X54718544Y-8072489D01*
X54725224Y-8090806D01*
X54810853Y-8399073D01*
X54949999Y-8899999D01*
X54950000Y-8900000D01*
X55626000Y-8900000D01*
X55693039Y-8919685D01*
X55738794Y-8972489D01*
X55750000Y-9024000D01*
X55750000Y-9676000D01*
X55730315Y-9743039D01*
X55677511Y-9788794D01*
X55626000Y-9800000D01*
X54950000Y-9800000D01*
X54950000Y-12200626D01*
X54930315Y-12267665D01*
X54877511Y-12313420D01*
X54826000Y-12324626D01*
X52699707Y-12324626D01*
X52632668Y-12304941D01*
X52586913Y-12252137D01*
X52576969Y-12182979D01*
X52605994Y-12119423D01*
X52612026Y-12112945D01*
X52978910Y-11746061D01*
X53440460Y-11284511D01*
X53454877Y-11259540D01*
X53458112Y-11253938D01*
X53467594Y-11237513D01*
X53480021Y-11215989D01*
X53500500Y-11139562D01*
X53500500Y-10587386D01*
X53520185Y-10520347D01*
X53530778Y-10506194D01*
X53582882Y-10446063D01*
X53636697Y-10328226D01*
X53655133Y-10200000D01*
X53636697Y-10071774D01*
X53582882Y-9953937D01*
X53498049Y-9856033D01*
X53389069Y-9785996D01*
X53389065Y-9785994D01*
X53389064Y-9785994D01*
X53264774Y-9749500D01*
X53264772Y-9749500D01*
X53225833Y-9749500D01*
X53158794Y-9729815D01*
X53138152Y-9713181D01*
X51636652Y-8211681D01*
X51603167Y-8150358D01*
X51608151Y-8080666D01*
X51650023Y-8024733D01*
X51715487Y-8000316D01*
X51724333Y-8000000D01*
X54605750Y-8000000D01*
X54672789Y-8019685D01*
G37*
G04 #@! TD.AperFunction*
G04 #@! TD*
M02*
