G04 #@! TF.GenerationSoftware,KiCad,Pcbnew,8.0.2*
G04 #@! TF.CreationDate,2024-05-24T22:16:23+02:00*
G04 #@! TF.ProjectId,ESP32-C3,45535033-322d-4433-932e-6b696361645f,rev?*
G04 #@! TF.SameCoordinates,Original*
G04 #@! TF.FileFunction,Legend,Top*
G04 #@! TF.FilePolarity,Positive*
%FSLAX46Y46*%
G04 Gerber Fmt 4.6, Leading zero omitted, Abs format (unit mm)*
G04 Created by KiCad (PCBNEW 8.0.2) date 2024-05-24 22:16:23*
%MOMM*%
%LPD*%
G01*
G04 APERTURE LIST*
%ADD10C,0.300000*%
%ADD11C,0.200000*%
%ADD12C,0.250000*%
%ADD13C,0.120000*%
G04 APERTURE END LIST*
D10*
X40754510Y10070600D02*
X41897368Y10070600D01*
X41325939Y9499172D02*
X41325939Y10642029D01*
X40754510Y8170600D02*
X41897368Y8170600D01*
D11*
X54603006Y7856591D02*
X54745863Y7808972D01*
X54745863Y7808972D02*
X54793482Y7761353D01*
X54793482Y7761353D02*
X54841101Y7666115D01*
X54841101Y7666115D02*
X54841101Y7523258D01*
X54841101Y7523258D02*
X54793482Y7428020D01*
X54793482Y7428020D02*
X54745863Y7380400D01*
X54745863Y7380400D02*
X54650625Y7332781D01*
X54650625Y7332781D02*
X54269673Y7332781D01*
X54269673Y7332781D02*
X54269673Y8332781D01*
X54269673Y8332781D02*
X54603006Y8332781D01*
X54603006Y8332781D02*
X54698244Y8285162D01*
X54698244Y8285162D02*
X54745863Y8237543D01*
X54745863Y8237543D02*
X54793482Y8142305D01*
X54793482Y8142305D02*
X54793482Y8047067D01*
X54793482Y8047067D02*
X54745863Y7951829D01*
X54745863Y7951829D02*
X54698244Y7904210D01*
X54698244Y7904210D02*
X54603006Y7856591D01*
X54603006Y7856591D02*
X54269673Y7856591D01*
X55698244Y7999448D02*
X55698244Y7332781D01*
X55269673Y7999448D02*
X55269673Y7475639D01*
X55269673Y7475639D02*
X55317292Y7380400D01*
X55317292Y7380400D02*
X55412530Y7332781D01*
X55412530Y7332781D02*
X55555387Y7332781D01*
X55555387Y7332781D02*
X55650625Y7380400D01*
X55650625Y7380400D02*
X55698244Y7428020D01*
X56031578Y7999448D02*
X56412530Y7999448D01*
X56174435Y8332781D02*
X56174435Y7475639D01*
X56174435Y7475639D02*
X56222054Y7380400D01*
X56222054Y7380400D02*
X56317292Y7332781D01*
X56317292Y7332781D02*
X56412530Y7332781D01*
X56603007Y7999448D02*
X56983959Y7999448D01*
X56745864Y8332781D02*
X56745864Y7475639D01*
X56745864Y7475639D02*
X56793483Y7380400D01*
X56793483Y7380400D02*
X56888721Y7332781D01*
X56888721Y7332781D02*
X56983959Y7332781D01*
X57460150Y7332781D02*
X57364912Y7380400D01*
X57364912Y7380400D02*
X57317293Y7428020D01*
X57317293Y7428020D02*
X57269674Y7523258D01*
X57269674Y7523258D02*
X57269674Y7808972D01*
X57269674Y7808972D02*
X57317293Y7904210D01*
X57317293Y7904210D02*
X57364912Y7951829D01*
X57364912Y7951829D02*
X57460150Y7999448D01*
X57460150Y7999448D02*
X57603007Y7999448D01*
X57603007Y7999448D02*
X57698245Y7951829D01*
X57698245Y7951829D02*
X57745864Y7904210D01*
X57745864Y7904210D02*
X57793483Y7808972D01*
X57793483Y7808972D02*
X57793483Y7523258D01*
X57793483Y7523258D02*
X57745864Y7428020D01*
X57745864Y7428020D02*
X57698245Y7380400D01*
X57698245Y7380400D02*
X57603007Y7332781D01*
X57603007Y7332781D02*
X57460150Y7332781D01*
X58222055Y7999448D02*
X58222055Y7332781D01*
X58222055Y7904210D02*
X58269674Y7951829D01*
X58269674Y7951829D02*
X58364912Y7999448D01*
X58364912Y7999448D02*
X58507769Y7999448D01*
X58507769Y7999448D02*
X58603007Y7951829D01*
X58603007Y7951829D02*
X58650626Y7856591D01*
X58650626Y7856591D02*
X58650626Y7332781D01*
X34169673Y12832781D02*
X34169673Y13832781D01*
X34645863Y13499448D02*
X34645863Y12832781D01*
X34645863Y13404210D02*
X34693482Y13451829D01*
X34693482Y13451829D02*
X34788720Y13499448D01*
X34788720Y13499448D02*
X34931577Y13499448D01*
X34931577Y13499448D02*
X35026815Y13451829D01*
X35026815Y13451829D02*
X35074434Y13356591D01*
X35074434Y13356591D02*
X35074434Y12832781D01*
X35550625Y12928020D02*
X35598244Y12880400D01*
X35598244Y12880400D02*
X35550625Y12832781D01*
X35550625Y12832781D02*
X35503006Y12880400D01*
X35503006Y12880400D02*
X35550625Y12928020D01*
X35550625Y12928020D02*
X35550625Y12832781D01*
X41941101Y12028020D02*
X41893482Y11980400D01*
X41893482Y11980400D02*
X41750625Y11932781D01*
X41750625Y11932781D02*
X41655387Y11932781D01*
X41655387Y11932781D02*
X41512530Y11980400D01*
X41512530Y11980400D02*
X41417292Y12075639D01*
X41417292Y12075639D02*
X41369673Y12170877D01*
X41369673Y12170877D02*
X41322054Y12361353D01*
X41322054Y12361353D02*
X41322054Y12504210D01*
X41322054Y12504210D02*
X41369673Y12694686D01*
X41369673Y12694686D02*
X41417292Y12789924D01*
X41417292Y12789924D02*
X41512530Y12885162D01*
X41512530Y12885162D02*
X41655387Y12932781D01*
X41655387Y12932781D02*
X41750625Y12932781D01*
X41750625Y12932781D02*
X41893482Y12885162D01*
X41893482Y12885162D02*
X41941101Y12837543D01*
X42369673Y11932781D02*
X42369673Y12932781D01*
X42798244Y11932781D02*
X42798244Y12456591D01*
X42798244Y12456591D02*
X42750625Y12551829D01*
X42750625Y12551829D02*
X42655387Y12599448D01*
X42655387Y12599448D02*
X42512530Y12599448D01*
X42512530Y12599448D02*
X42417292Y12551829D01*
X42417292Y12551829D02*
X42369673Y12504210D01*
X43703006Y11932781D02*
X43703006Y12456591D01*
X43703006Y12456591D02*
X43655387Y12551829D01*
X43655387Y12551829D02*
X43560149Y12599448D01*
X43560149Y12599448D02*
X43369673Y12599448D01*
X43369673Y12599448D02*
X43274435Y12551829D01*
X43703006Y11980400D02*
X43607768Y11932781D01*
X43607768Y11932781D02*
X43369673Y11932781D01*
X43369673Y11932781D02*
X43274435Y11980400D01*
X43274435Y11980400D02*
X43226816Y12075639D01*
X43226816Y12075639D02*
X43226816Y12170877D01*
X43226816Y12170877D02*
X43274435Y12266115D01*
X43274435Y12266115D02*
X43369673Y12313734D01*
X43369673Y12313734D02*
X43607768Y12313734D01*
X43607768Y12313734D02*
X43703006Y12361353D01*
X44179197Y12028020D02*
X44226816Y11980400D01*
X44226816Y11980400D02*
X44179197Y11932781D01*
X44179197Y11932781D02*
X44131578Y11980400D01*
X44131578Y11980400D02*
X44179197Y12028020D01*
X44179197Y12028020D02*
X44179197Y11932781D01*
D12*
X41926377Y-5592350D02*
X41831139Y-5544731D01*
X41831139Y-5544731D02*
X41688282Y-5544731D01*
X41688282Y-5544731D02*
X41545425Y-5592350D01*
X41545425Y-5592350D02*
X41450187Y-5687588D01*
X41450187Y-5687588D02*
X41402568Y-5782826D01*
X41402568Y-5782826D02*
X41354949Y-5973302D01*
X41354949Y-5973302D02*
X41354949Y-6116159D01*
X41354949Y-6116159D02*
X41402568Y-6306635D01*
X41402568Y-6306635D02*
X41450187Y-6401873D01*
X41450187Y-6401873D02*
X41545425Y-6497112D01*
X41545425Y-6497112D02*
X41688282Y-6544731D01*
X41688282Y-6544731D02*
X41783520Y-6544731D01*
X41783520Y-6544731D02*
X41926377Y-6497112D01*
X41926377Y-6497112D02*
X41973996Y-6449492D01*
X41973996Y-6449492D02*
X41973996Y-6116159D01*
X41973996Y-6116159D02*
X41783520Y-6116159D01*
X42402568Y-6544731D02*
X42402568Y-5544731D01*
X42402568Y-5544731D02*
X42973996Y-6544731D01*
X42973996Y-6544731D02*
X42973996Y-5544731D01*
X43450187Y-6544731D02*
X43450187Y-5544731D01*
X43450187Y-5544731D02*
X43688282Y-5544731D01*
X43688282Y-5544731D02*
X43831139Y-5592350D01*
X43831139Y-5592350D02*
X43926377Y-5687588D01*
X43926377Y-5687588D02*
X43973996Y-5782826D01*
X43973996Y-5782826D02*
X44021615Y-5973302D01*
X44021615Y-5973302D02*
X44021615Y-6116159D01*
X44021615Y-6116159D02*
X43973996Y-6306635D01*
X43973996Y-6306635D02*
X43926377Y-6401873D01*
X43926377Y-6401873D02*
X43831139Y-6497112D01*
X43831139Y-6497112D02*
X43688282Y-6544731D01*
X43688282Y-6544731D02*
X43450187Y-6544731D01*
X41354949Y-8107056D02*
X41497806Y-8154675D01*
X41497806Y-8154675D02*
X41735901Y-8154675D01*
X41735901Y-8154675D02*
X41831139Y-8107056D01*
X41831139Y-8107056D02*
X41878758Y-8059436D01*
X41878758Y-8059436D02*
X41926377Y-7964198D01*
X41926377Y-7964198D02*
X41926377Y-7868960D01*
X41926377Y-7868960D02*
X41878758Y-7773722D01*
X41878758Y-7773722D02*
X41831139Y-7726103D01*
X41831139Y-7726103D02*
X41735901Y-7678484D01*
X41735901Y-7678484D02*
X41545425Y-7630865D01*
X41545425Y-7630865D02*
X41450187Y-7583246D01*
X41450187Y-7583246D02*
X41402568Y-7535627D01*
X41402568Y-7535627D02*
X41354949Y-7440389D01*
X41354949Y-7440389D02*
X41354949Y-7345151D01*
X41354949Y-7345151D02*
X41402568Y-7249913D01*
X41402568Y-7249913D02*
X41450187Y-7202294D01*
X41450187Y-7202294D02*
X41545425Y-7154675D01*
X41545425Y-7154675D02*
X41783520Y-7154675D01*
X41783520Y-7154675D02*
X41926377Y-7202294D01*
X42926377Y-8059436D02*
X42878758Y-8107056D01*
X42878758Y-8107056D02*
X42735901Y-8154675D01*
X42735901Y-8154675D02*
X42640663Y-8154675D01*
X42640663Y-8154675D02*
X42497806Y-8107056D01*
X42497806Y-8107056D02*
X42402568Y-8011817D01*
X42402568Y-8011817D02*
X42354949Y-7916579D01*
X42354949Y-7916579D02*
X42307330Y-7726103D01*
X42307330Y-7726103D02*
X42307330Y-7583246D01*
X42307330Y-7583246D02*
X42354949Y-7392770D01*
X42354949Y-7392770D02*
X42402568Y-7297532D01*
X42402568Y-7297532D02*
X42497806Y-7202294D01*
X42497806Y-7202294D02*
X42640663Y-7154675D01*
X42640663Y-7154675D02*
X42735901Y-7154675D01*
X42735901Y-7154675D02*
X42878758Y-7202294D01*
X42878758Y-7202294D02*
X42926377Y-7249913D01*
X43831139Y-8154675D02*
X43354949Y-8154675D01*
X43354949Y-8154675D02*
X43354949Y-7154675D01*
X41354949Y-9717000D02*
X41497806Y-9764619D01*
X41497806Y-9764619D02*
X41735901Y-9764619D01*
X41735901Y-9764619D02*
X41831139Y-9717000D01*
X41831139Y-9717000D02*
X41878758Y-9669380D01*
X41878758Y-9669380D02*
X41926377Y-9574142D01*
X41926377Y-9574142D02*
X41926377Y-9478904D01*
X41926377Y-9478904D02*
X41878758Y-9383666D01*
X41878758Y-9383666D02*
X41831139Y-9336047D01*
X41831139Y-9336047D02*
X41735901Y-9288428D01*
X41735901Y-9288428D02*
X41545425Y-9240809D01*
X41545425Y-9240809D02*
X41450187Y-9193190D01*
X41450187Y-9193190D02*
X41402568Y-9145571D01*
X41402568Y-9145571D02*
X41354949Y-9050333D01*
X41354949Y-9050333D02*
X41354949Y-8955095D01*
X41354949Y-8955095D02*
X41402568Y-8859857D01*
X41402568Y-8859857D02*
X41450187Y-8812238D01*
X41450187Y-8812238D02*
X41545425Y-8764619D01*
X41545425Y-8764619D02*
X41783520Y-8764619D01*
X41783520Y-8764619D02*
X41926377Y-8812238D01*
X42354949Y-9764619D02*
X42354949Y-8764619D01*
X42354949Y-8764619D02*
X42593044Y-8764619D01*
X42593044Y-8764619D02*
X42735901Y-8812238D01*
X42735901Y-8812238D02*
X42831139Y-8907476D01*
X42831139Y-8907476D02*
X42878758Y-9002714D01*
X42878758Y-9002714D02*
X42926377Y-9193190D01*
X42926377Y-9193190D02*
X42926377Y-9336047D01*
X42926377Y-9336047D02*
X42878758Y-9526523D01*
X42878758Y-9526523D02*
X42831139Y-9621761D01*
X42831139Y-9621761D02*
X42735901Y-9717000D01*
X42735901Y-9717000D02*
X42593044Y-9764619D01*
X42593044Y-9764619D02*
X42354949Y-9764619D01*
X43307330Y-9478904D02*
X43783520Y-9478904D01*
X43212092Y-9764619D02*
X43545425Y-8764619D01*
X43545425Y-8764619D02*
X43878758Y-9764619D01*
D13*
G04 #@! TO.C,C3*
X54240000Y-7642164D02*
X54240000Y-7857836D01*
X54960000Y-7642164D02*
X54960000Y-7857836D01*
G04 #@! TO.C,R3*
X40920000Y-2546359D02*
X40920000Y-2853641D01*
X41680000Y-2546359D02*
X41680000Y-2853641D01*
G04 #@! TO.C,C12*
X50587164Y-8890000D02*
X50802836Y-8890000D01*
X50587164Y-9610000D02*
X50802836Y-9610000D01*
G04 #@! TO.C,C5*
X47642164Y-1390000D02*
X47857836Y-1390000D01*
X47642164Y-2110000D02*
X47857836Y-2110000D01*
G04 #@! TO.C,R18*
X44920000Y11236359D02*
X44920000Y11543641D01*
X45680000Y11236359D02*
X45680000Y11543641D01*
G04 #@! TO.C,D5*
X40415000Y14635000D02*
X40415000Y13165000D01*
X40415000Y13165000D02*
X42700000Y13165000D01*
X42700000Y14635000D02*
X40415000Y14635000D01*
G04 #@! TO.C,R16*
X45420000Y4796359D02*
X45420000Y5103641D01*
X46180000Y4796359D02*
X46180000Y5103641D01*
G04 #@! TO.C,U2*
X44690000Y6590000D02*
X44690000Y7065000D01*
X45165000Y9810000D02*
X44690000Y9810000D01*
X45165000Y6590000D02*
X44690000Y6590000D01*
X47435000Y9810000D02*
X47910000Y9810000D01*
X47435000Y6590000D02*
X47910000Y6590000D01*
X47910000Y9810000D02*
X47910000Y9335000D01*
X47910000Y6590000D02*
X47910000Y7065000D01*
G04 #@! TO.C,R10*
X38770000Y13746359D02*
X38770000Y14053641D01*
X39530000Y13746359D02*
X39530000Y14053641D01*
G04 #@! TO.C,C4*
X53990000Y-5392164D02*
X53990000Y-5607836D01*
X54710000Y-5392164D02*
X54710000Y-5607836D01*
G04 #@! TO.C,C16*
X49855000Y-10762164D02*
X49855000Y-10977836D01*
X50575000Y-10762164D02*
X50575000Y-10977836D01*
G04 #@! TO.C,C11*
X43740000Y-1457836D02*
X43740000Y-1242164D01*
X44460000Y-1457836D02*
X44460000Y-1242164D01*
G04 #@! TO.C,R5*
X46520000Y11573641D02*
X46520000Y11266359D01*
X47280000Y11573641D02*
X47280000Y11266359D01*
G04 #@! TO.C,D1*
X48200000Y3600000D02*
X48200000Y1750000D01*
X50600000Y2700000D02*
X50800000Y2800000D01*
X50800000Y3600000D02*
X50800000Y1700000D01*
X50800000Y2600000D02*
X50600000Y2700000D01*
X50800000Y1700000D02*
X50025000Y1700000D01*
G04 #@! TO.C,C6*
X51240000Y-7642164D02*
X51240000Y-7857836D01*
X51960000Y-7642164D02*
X51960000Y-7857836D01*
G04 #@! TO.C,U1*
X32620000Y5210000D02*
X32620000Y-3790000D01*
G04 #@! TO.C,R9*
X43770000Y13746359D02*
X43770000Y14053641D01*
X44530000Y13746359D02*
X44530000Y14053641D01*
G04 #@! TO.C,R11*
X43170000Y10796359D02*
X43170000Y11103641D01*
X43930000Y10796359D02*
X43930000Y11103641D01*
G04 #@! TO.C,R21*
X49546359Y1380000D02*
X49853641Y1380000D01*
X49546359Y620000D02*
X49853641Y620000D01*
G04 #@! TO.C,R19*
X51020000Y2646359D02*
X51020000Y2953641D01*
X51780000Y2646359D02*
X51780000Y2953641D01*
G04 #@! TO.C,C1*
X53957836Y-2840000D02*
X53742164Y-2840000D01*
X53957836Y-3560000D02*
X53742164Y-3560000D01*
G04 #@! TO.C,C20*
X49622164Y8560000D02*
X49837836Y8560000D01*
X49622164Y7840000D02*
X49837836Y7840000D01*
G04 #@! TO.C,R14*
X49553641Y4780000D02*
X49246359Y4780000D01*
X49553641Y4020000D02*
X49246359Y4020000D01*
G04 #@! TO.C,R1*
X51970000Y-2853641D02*
X51970000Y-2546359D01*
X52730000Y-2853641D02*
X52730000Y-2546359D01*
G04 #@! TO.C,R7*
X40020000Y-7553641D02*
X40020000Y-7246359D01*
X40780000Y-7553641D02*
X40780000Y-7246359D01*
G04 #@! TO.C,C15*
X51990000Y-9857836D02*
X51990000Y-9642164D01*
X52710000Y-9857836D02*
X52710000Y-9642164D01*
G04 #@! TO.C,L1*
X53253641Y-6870000D02*
X52946359Y-6870000D01*
X53253641Y-7630000D02*
X52946359Y-7630000D01*
G04 #@! TO.C,D4*
X35415000Y14635000D02*
X35415000Y13165000D01*
X35415000Y13165000D02*
X37700000Y13165000D01*
X37700000Y14635000D02*
X35415000Y14635000D01*
G04 #@! TO.C,R2*
X41170000Y2546359D02*
X41170000Y2853641D01*
X41930000Y2546359D02*
X41930000Y2853641D01*
G04 #@! TO.C,R15*
X50062742Y9972500D02*
X50537258Y9972500D01*
X50062742Y8927500D02*
X50537258Y8927500D01*
G04 #@! TO.C,R8*
X40020000Y-9746359D02*
X40020000Y-10053641D01*
X40780000Y-9746359D02*
X40780000Y-10053641D01*
G04 #@! TO.C,R17*
X44453641Y5780000D02*
X44146359Y5780000D01*
X44453641Y5020000D02*
X44146359Y5020000D01*
G04 #@! TO.C,SW2*
X54030000Y13570000D02*
X54030000Y13170000D01*
X54030000Y13570000D02*
X58770000Y13570000D01*
X54030000Y10170000D02*
X54030000Y12230000D01*
X54030000Y8830000D02*
X54030000Y9230000D01*
X54030000Y8830000D02*
X58770000Y8830000D01*
X58770000Y13570000D02*
X58770000Y13170000D01*
X58770000Y10170000D02*
X58770000Y12230000D01*
X58770000Y8830000D02*
X58770000Y9230000D01*
G04 #@! TO.C,R12*
X43243641Y9830000D02*
X42936359Y9830000D01*
X43243641Y9070000D02*
X42936359Y9070000D01*
G04 #@! TO.C,C21*
X43217836Y8560000D02*
X43002164Y8560000D01*
X43217836Y7840000D02*
X43002164Y7840000D01*
G04 #@! TO.C,C14*
X44740000Y-1457836D02*
X44740000Y-1242164D01*
X45460000Y-1457836D02*
X45460000Y-1242164D01*
G04 #@! TO.C,J2*
X33060000Y12160000D02*
X33060000Y6040000D01*
X33060000Y9600000D02*
X37420000Y9600000D01*
X33060000Y6040000D02*
X40880000Y6040000D01*
X35320000Y11400000D02*
X35320000Y10400000D01*
X35320000Y10900000D02*
X33060000Y10900000D01*
X35320000Y10400000D02*
X33060000Y10400000D01*
X35320000Y10400000D02*
X36920000Y10400000D01*
X35320000Y7800000D02*
X36920000Y7800000D01*
X35320000Y6800000D02*
X35320000Y7800000D01*
X36920000Y11400000D02*
X35320000Y11400000D01*
X36920000Y10400000D02*
X36920000Y11400000D01*
X36920000Y7800000D02*
X36920000Y6800000D01*
X36920000Y6800000D02*
X35320000Y6800000D01*
X37420000Y9600000D02*
X37420000Y8600000D01*
X37420000Y8600000D02*
X33060000Y8600000D01*
X39280000Y12160000D02*
X39280000Y11240000D01*
X39280000Y11240000D02*
X40880000Y11240000D01*
X39280000Y10960000D02*
X39280000Y11240000D01*
X39280000Y10960000D02*
X40495000Y10960000D01*
X39280000Y6960000D02*
X39280000Y7240000D01*
X39280000Y6040000D02*
X39280000Y6960000D01*
X40880000Y12160000D02*
X33060000Y12160000D01*
X40880000Y11240000D02*
X40880000Y12160000D01*
X40880000Y6960000D02*
X39280000Y6960000D01*
X40880000Y6040000D02*
X40880000Y6960000D01*
G04 #@! TO.C,R4*
X42936359Y7580000D02*
X43243641Y7580000D01*
X42936359Y6820000D02*
X43243641Y6820000D01*
G04 #@! TO.C,L2*
X53003641Y-5620000D02*
X52696359Y-5620000D01*
X53003641Y-6380000D02*
X52696359Y-6380000D01*
G04 #@! TO.C,C7*
X50990000Y-5392164D02*
X50990000Y-5607836D01*
X51710000Y-5392164D02*
X51710000Y-5607836D01*
G04 #@! TO.C,U3*
X44990000Y-2890000D02*
X44990000Y-3365000D01*
X44990000Y-8110000D02*
X44990000Y-7635000D01*
X45465000Y-2890000D02*
X44990000Y-2890000D01*
X45465000Y-8110000D02*
X44990000Y-8110000D01*
X49735000Y-2890000D02*
X50210000Y-2890000D01*
X49735000Y-8110000D02*
X50210000Y-8110000D01*
X50210000Y-2890000D02*
X50210000Y-3365000D01*
G04 #@! TO.C,C2*
X52742164Y-4640000D02*
X52957836Y-4640000D01*
X52742164Y-5360000D02*
X52957836Y-5360000D01*
G04 #@! TO.C,R6*
X50920000Y-2853641D02*
X50920000Y-2546359D01*
X51680000Y-2853641D02*
X51680000Y-2546359D01*
G04 #@! TO.C,J1*
X33785000Y-6260000D02*
X33785000Y-9140000D01*
X35755000Y-5090000D02*
X38255000Y-5090000D01*
X35755000Y-10310000D02*
X38255000Y-10310000D01*
X38255000Y-5090000D02*
X38255000Y-6140000D01*
X38255000Y-6140000D02*
X39245000Y-6140000D01*
X38255000Y-10310000D02*
X38255000Y-9260000D01*
G04 #@! TO.C,C19*
X48442164Y11310000D02*
X48657836Y11310000D01*
X48442164Y10590000D02*
X48657836Y10590000D01*
G04 #@! TO.C,Y1*
X49600000Y-8900000D02*
X45600000Y-8900000D01*
X49600000Y-12200000D02*
X49600000Y-8900000D01*
G04 #@! TO.C,C17*
X44590000Y-10742835D02*
X44590000Y-10527163D01*
X45310000Y-10742835D02*
X45310000Y-10527163D01*
G04 #@! TD*
M02*
