G04 #@! TF.GenerationSoftware,KiCad,Pcbnew,(6.0.11)*
G04 #@! TF.CreationDate,2023-02-01T15:04:08+01:00*
G04 #@! TF.ProjectId,ESP32-C3,45535033-322d-4433-932e-6b696361645f,rev?*
G04 #@! TF.SameCoordinates,Original*
G04 #@! TF.FileFunction,Copper,L2,Bot*
G04 #@! TF.FilePolarity,Positive*
%FSLAX46Y46*%
G04 Gerber Fmt 4.6, Leading zero omitted, Abs format (unit mm)*
G04 Created by KiCad (PCBNEW (6.0.11)) date 2023-02-01 15:04:08*
%MOMM*%
%LPD*%
G01*
G04 APERTURE LIST*
G04 #@! TA.AperFunction,ComponentPad*
%ADD10C,2.000000*%
G04 #@! TD*
G04 #@! TA.AperFunction,ComponentPad*
%ADD11R,1.700000X1.700000*%
G04 #@! TD*
G04 #@! TA.AperFunction,ComponentPad*
%ADD12O,1.800000X1.000000*%
G04 #@! TD*
G04 #@! TA.AperFunction,ComponentPad*
%ADD13O,2.100000X1.000000*%
G04 #@! TD*
G04 #@! TA.AperFunction,ComponentPad*
%ADD14O,1.700000X1.700000*%
G04 #@! TD*
G04 #@! TA.AperFunction,ViaPad*
%ADD15C,0.800000*%
G04 #@! TD*
G04 #@! TA.AperFunction,Conductor*
%ADD16C,0.250000*%
G04 #@! TD*
G04 #@! TA.AperFunction,Conductor*
%ADD17C,0.300000*%
G04 #@! TD*
G04 APERTURE END LIST*
D10*
G04 #@! TO.P,SW1,1,1*
G04 #@! TO.N,GND*
X6600000Y3250000D03*
X6600000Y9750000D03*
G04 #@! TO.P,SW1,2,4*
G04 #@! TO.N,EXTI*
X11100000Y3250000D03*
X11100000Y9750000D03*
G04 #@! TD*
D11*
G04 #@! TO.P,J2,1,Pin_1*
G04 #@! TO.N,GND*
X900000Y3600000D03*
G04 #@! TD*
D12*
G04 #@! TO.P,U1,S1,SHIELD*
G04 #@! TO.N,GND*
X-1020000Y15170000D03*
D13*
X3160000Y6530000D03*
X3160000Y15170000D03*
D12*
X-1020000Y6530000D03*
G04 #@! TD*
D11*
G04 #@! TO.P,J1,1,Pin_1*
G04 #@! TO.N,+BATT*
X1015000Y17965001D03*
G04 #@! TD*
G04 #@! TO.P,X1,1,Pin_1*
G04 #@! TO.N,+3.3V*
X13200000Y19200000D03*
D14*
G04 #@! TO.P,X1,2,Pin_2*
G04 #@! TO.N,MCU_SDA*
X15740000Y19200000D03*
G04 #@! TO.P,X1,3,Pin_3*
G04 #@! TO.N,MCU_SCL*
X18280000Y19200000D03*
G04 #@! TO.P,X1,4,Pin_4*
G04 #@! TO.N,GND*
X20820000Y19200000D03*
G04 #@! TD*
D15*
G04 #@! TO.N,GND*
X17500000Y9350000D03*
X22450000Y9750000D03*
X7900000Y15900000D03*
X15900000Y9350000D03*
X21750000Y5550000D03*
X15900000Y7500000D03*
X5900000Y19050000D03*
X7600000Y12474500D03*
X13400000Y12500000D03*
X20500000Y2500000D03*
X13400000Y13650000D03*
X15567183Y12054239D03*
X13050000Y6600000D03*
X17450000Y7500000D03*
X13185000Y3800000D03*
X22750000Y5550000D03*
X23500000Y9700000D03*
X6900000Y15850000D03*
X16700000Y14150000D03*
G04 #@! TO.N,EXTI*
X11100000Y5900000D03*
X13133411Y1633411D03*
X20600000Y9700000D03*
G04 #@! TO.N,+3.3V*
X19200000Y13150000D03*
X12350000Y5750000D03*
X17350000Y13200000D03*
X12700000Y2950000D03*
G04 #@! TD*
D16*
G04 #@! TO.N,EXTI*
X24100000Y6100000D02*
X20600000Y9600000D01*
X13133411Y1633411D02*
X24333411Y1633411D01*
X25900000Y5600000D02*
X25400000Y6100000D01*
X25400000Y6100000D02*
X24100000Y6100000D01*
X11100000Y3250000D02*
X11100000Y5900000D01*
X25900000Y3200000D02*
X25900000Y5600000D01*
X20600000Y9600000D02*
X20600000Y9700000D01*
X24333411Y1633411D02*
X25900000Y3200000D01*
D17*
G04 #@! TO.N,+3.3V*
X12535000Y3115000D02*
X12700000Y2950000D01*
X19200000Y13150000D02*
X17400000Y13150000D01*
X12350000Y5750000D02*
X12535000Y5565000D01*
X12535000Y5565000D02*
X12535000Y3115000D01*
X17400000Y13150000D02*
X17350000Y13200000D01*
G04 #@! TD*
G04 #@! TA.AperFunction,Conductor*
G04 #@! TO.N,GND*
G36*
X12244006Y20380593D02*
G01*
X12279970Y20331093D01*
X12279970Y20269907D01*
X12240817Y20218185D01*
X12205448Y20194552D01*
X12161133Y20128231D01*
X12149500Y20069748D01*
X12149500Y18330252D01*
X12161133Y18271769D01*
X12205448Y18205448D01*
X12271769Y18161133D01*
X12281332Y18159231D01*
X12281334Y18159230D01*
X12304005Y18154721D01*
X12330252Y18149500D01*
X14069748Y18149500D01*
X14095995Y18154721D01*
X14118666Y18159230D01*
X14118668Y18159231D01*
X14128231Y18161133D01*
X14194552Y18205448D01*
X14238867Y18271769D01*
X14250500Y18330252D01*
X14250500Y20069748D01*
X14238867Y20128231D01*
X14194552Y20194552D01*
X14159183Y20218185D01*
X14121304Y20266235D01*
X14118902Y20327373D01*
X14152895Y20378247D01*
X14214185Y20399500D01*
X15407706Y20399500D01*
X15465897Y20380593D01*
X15501861Y20331093D01*
X15501861Y20269907D01*
X15465897Y20220407D01*
X15435658Y20205528D01*
X15344572Y20178720D01*
X15340288Y20176481D01*
X15340287Y20176480D01*
X15272528Y20141056D01*
X15162002Y20083274D01*
X15158231Y20080242D01*
X15005220Y19957219D01*
X15005217Y19957217D01*
X15001447Y19954185D01*
X14998333Y19950474D01*
X14998332Y19950473D01*
X14951775Y19894988D01*
X14869024Y19796370D01*
X14866689Y19792122D01*
X14866688Y19792121D01*
X14859955Y19779874D01*
X14769776Y19615838D01*
X14768313Y19611225D01*
X14768311Y19611221D01*
X14714413Y19441311D01*
X14707484Y19419468D01*
X14706944Y19414656D01*
X14706944Y19414655D01*
X14690092Y19264410D01*
X14684520Y19214738D01*
X14684925Y19209918D01*
X14701309Y19014809D01*
X14701759Y19009447D01*
X14703092Y19004799D01*
X14703092Y19004798D01*
X14753246Y18829891D01*
X14758544Y18811414D01*
X14852712Y18628182D01*
X14980677Y18466730D01*
X14984357Y18463598D01*
X14984359Y18463596D01*
X15097017Y18367717D01*
X15137564Y18333209D01*
X15141787Y18330849D01*
X15141791Y18330846D01*
X15185248Y18306559D01*
X15317398Y18232703D01*
X15321996Y18231209D01*
X15508724Y18170537D01*
X15508726Y18170536D01*
X15513329Y18169041D01*
X15717894Y18144649D01*
X15722716Y18145020D01*
X15722719Y18145020D01*
X15793259Y18150448D01*
X15923300Y18160454D01*
X16121725Y18215855D01*
X16126038Y18218034D01*
X16126044Y18218036D01*
X16301289Y18306559D01*
X16301291Y18306560D01*
X16305610Y18308742D01*
X16333902Y18330846D01*
X16464135Y18432594D01*
X16464139Y18432598D01*
X16467951Y18435576D01*
X16471433Y18439609D01*
X16527313Y18504349D01*
X16602564Y18591528D01*
X16621385Y18624659D01*
X16701934Y18766450D01*
X16701935Y18766453D01*
X16704323Y18770656D01*
X16705920Y18775454D01*
X16767824Y18961546D01*
X16767824Y18961548D01*
X16769351Y18966137D01*
X16769973Y18971056D01*
X16794823Y19167772D01*
X16795171Y19170526D01*
X16795583Y19200000D01*
X16790330Y19253580D01*
X16775952Y19400220D01*
X16775951Y19400224D01*
X16775480Y19405030D01*
X16715935Y19602251D01*
X16619218Y19784151D01*
X16489011Y19943800D01*
X16472790Y19957219D01*
X16334002Y20072035D01*
X16334000Y20072036D01*
X16330275Y20075118D01*
X16149055Y20173103D01*
X16079572Y20194612D01*
X16043018Y20205927D01*
X15993021Y20241197D01*
X15973303Y20299118D01*
X15991396Y20357567D01*
X16040389Y20394218D01*
X16072293Y20399500D01*
X17947706Y20399500D01*
X18005897Y20380593D01*
X18041861Y20331093D01*
X18041861Y20269907D01*
X18005897Y20220407D01*
X17975658Y20205528D01*
X17884572Y20178720D01*
X17880288Y20176481D01*
X17880287Y20176480D01*
X17812528Y20141056D01*
X17702002Y20083274D01*
X17698231Y20080242D01*
X17545220Y19957219D01*
X17545217Y19957217D01*
X17541447Y19954185D01*
X17538333Y19950474D01*
X17538332Y19950473D01*
X17491775Y19894988D01*
X17409024Y19796370D01*
X17406689Y19792122D01*
X17406688Y19792121D01*
X17399955Y19779874D01*
X17309776Y19615838D01*
X17308313Y19611225D01*
X17308311Y19611221D01*
X17254413Y19441311D01*
X17247484Y19419468D01*
X17246944Y19414656D01*
X17246944Y19414655D01*
X17230092Y19264410D01*
X17224520Y19214738D01*
X17224925Y19209918D01*
X17241309Y19014809D01*
X17241759Y19009447D01*
X17243092Y19004799D01*
X17243092Y19004798D01*
X17293246Y18829891D01*
X17298544Y18811414D01*
X17392712Y18628182D01*
X17520677Y18466730D01*
X17524357Y18463598D01*
X17524359Y18463596D01*
X17637017Y18367717D01*
X17677564Y18333209D01*
X17681787Y18330849D01*
X17681791Y18330846D01*
X17725248Y18306559D01*
X17857398Y18232703D01*
X17861996Y18231209D01*
X18048724Y18170537D01*
X18048726Y18170536D01*
X18053329Y18169041D01*
X18257894Y18144649D01*
X18262716Y18145020D01*
X18262719Y18145020D01*
X18333259Y18150448D01*
X18463300Y18160454D01*
X18661725Y18215855D01*
X18666038Y18218034D01*
X18666044Y18218036D01*
X18841289Y18306559D01*
X18841291Y18306560D01*
X18845610Y18308742D01*
X18873902Y18330846D01*
X19004135Y18432594D01*
X19004139Y18432598D01*
X19007951Y18435576D01*
X19011433Y18439609D01*
X19067313Y18504349D01*
X19142564Y18591528D01*
X19161385Y18624659D01*
X19241934Y18766450D01*
X19241935Y18766453D01*
X19244323Y18770656D01*
X19245920Y18775454D01*
X19307824Y18961546D01*
X19307824Y18961548D01*
X19309351Y18966137D01*
X19309973Y18971056D01*
X19311833Y18985778D01*
X19789065Y18985778D01*
X19837674Y18816257D01*
X19841225Y18807289D01*
X19930919Y18632764D01*
X19936142Y18624659D01*
X20058037Y18470866D01*
X20064720Y18463945D01*
X20214164Y18336759D01*
X20222078Y18331258D01*
X20393373Y18235525D01*
X20402201Y18231668D01*
X20588833Y18171028D01*
X20598247Y18168958D01*
X20604429Y18168221D01*
X20617515Y18170812D01*
X20618955Y18172367D01*
X20620000Y18177118D01*
X20620000Y18181315D01*
X21020000Y18181315D01*
X21023747Y18169782D01*
X21034079Y18169566D01*
X21196882Y18215022D01*
X21205862Y18218504D01*
X21381020Y18306983D01*
X21389155Y18312146D01*
X21543787Y18432958D01*
X21550771Y18439609D01*
X21678990Y18588152D01*
X21684546Y18596027D01*
X21781471Y18766647D01*
X21785392Y18775454D01*
X21847334Y18961654D01*
X21849469Y18971056D01*
X21851161Y18984443D01*
X21848661Y18997546D01*
X21847251Y18998870D01*
X21842196Y19000000D01*
X21035680Y19000000D01*
X21022995Y18995878D01*
X21020000Y18991757D01*
X21020000Y18181315D01*
X20620000Y18181315D01*
X20620000Y18984320D01*
X20615878Y18997005D01*
X20611757Y19000000D01*
X19800667Y19000000D01*
X19789249Y18996290D01*
X19789065Y18985778D01*
X19311833Y18985778D01*
X19334823Y19167772D01*
X19335171Y19170526D01*
X19335583Y19200000D01*
X19330330Y19253580D01*
X19315952Y19400220D01*
X19315951Y19400224D01*
X19315480Y19405030D01*
X19255935Y19602251D01*
X19159218Y19784151D01*
X19029011Y19943800D01*
X19012790Y19957219D01*
X18874002Y20072035D01*
X18874000Y20072036D01*
X18870275Y20075118D01*
X18689055Y20173103D01*
X18619572Y20194612D01*
X18583018Y20205927D01*
X18533021Y20241197D01*
X18513303Y20299118D01*
X18531396Y20357567D01*
X18580389Y20394218D01*
X18612293Y20399500D01*
X20489476Y20399500D01*
X20547667Y20380593D01*
X20583631Y20331093D01*
X20583631Y20269907D01*
X20547667Y20220407D01*
X20517428Y20205528D01*
X20429407Y20179622D01*
X20420466Y20176009D01*
X20246573Y20085101D01*
X20238497Y20079816D01*
X20085571Y19956860D01*
X20078687Y19950119D01*
X19952551Y19799795D01*
X19947104Y19791841D01*
X19852573Y19619889D01*
X19848773Y19611024D01*
X19789439Y19423979D01*
X19787602Y19415335D01*
X19790233Y19402517D01*
X19791936Y19400961D01*
X19796382Y19400000D01*
X21839791Y19400000D01*
X21852476Y19404122D01*
X21854049Y19406287D01*
X21854116Y19406902D01*
X21853589Y19409562D01*
X21796869Y19597428D01*
X21793199Y19606332D01*
X21701072Y19779599D01*
X21695740Y19787624D01*
X21571716Y19939693D01*
X21564922Y19946534D01*
X21413721Y20071619D01*
X21405738Y20077003D01*
X21233114Y20170340D01*
X21224243Y20174069D01*
X21121327Y20205927D01*
X21071330Y20241197D01*
X21051612Y20299118D01*
X21069705Y20357567D01*
X21118698Y20394218D01*
X21150602Y20399500D01*
X22551000Y20399500D01*
X22609191Y20380593D01*
X22645155Y20331093D01*
X22650000Y20300500D01*
X22650000Y17349000D01*
X22631093Y17290809D01*
X22581593Y17254845D01*
X22551000Y17250000D01*
X20200000Y17250000D01*
X20200000Y12150000D01*
X20208243Y12150000D01*
X20209190Y12149312D01*
X20245154Y12099812D01*
X20250000Y12069219D01*
X20250000Y11850000D01*
X24201000Y11850000D01*
X24259191Y11831093D01*
X24295155Y11781593D01*
X24300000Y11751000D01*
X24300000Y6599335D01*
X24281093Y6541144D01*
X24231593Y6505180D01*
X24170407Y6505180D01*
X24130996Y6529331D01*
X21210408Y9449918D01*
X21182631Y9504435D01*
X21184609Y9542188D01*
X21185044Y9543238D01*
X21205682Y9700000D01*
X21185044Y9856762D01*
X21124536Y10002841D01*
X21028282Y10128282D01*
X20902841Y10224536D01*
X20756762Y10285044D01*
X20600000Y10305682D01*
X20443238Y10285044D01*
X20297159Y10224536D01*
X20171718Y10128282D01*
X20075464Y10002841D01*
X20014956Y9856762D01*
X19994318Y9700000D01*
X20014956Y9543238D01*
X20075464Y9397159D01*
X20171718Y9271718D01*
X20297159Y9175464D01*
X20443238Y9114956D01*
X20559917Y9099595D01*
X20593566Y9095165D01*
X20600000Y9094318D01*
X20604347Y9094890D01*
X20661692Y9076258D01*
X20673505Y9066169D01*
X23856742Y5882931D01*
X23862565Y5876576D01*
X23887545Y5846806D01*
X23895042Y5842477D01*
X23895044Y5842476D01*
X23921206Y5827372D01*
X23928484Y5822736D01*
X23960316Y5800447D01*
X23968682Y5798205D01*
X23973973Y5795738D01*
X23979450Y5793745D01*
X23986955Y5789412D01*
X24016038Y5784284D01*
X24025231Y5782663D01*
X24033657Y5780795D01*
X24071193Y5770737D01*
X24109896Y5774123D01*
X24118525Y5774500D01*
X25224166Y5774500D01*
X25282357Y5755593D01*
X25294170Y5745504D01*
X25545504Y5494170D01*
X25573281Y5439653D01*
X25574500Y5424166D01*
X25574500Y3375835D01*
X25555593Y3317644D01*
X25545504Y3305831D01*
X24227581Y1987907D01*
X24173064Y1960130D01*
X24157577Y1958911D01*
X13689381Y1958911D01*
X13631190Y1977818D01*
X13610839Y1997644D01*
X13565647Y2056540D01*
X13561693Y2061693D01*
X13436252Y2157947D01*
X13290173Y2218455D01*
X13133411Y2239093D01*
X13027974Y2225212D01*
X12967813Y2236362D01*
X12925696Y2280744D01*
X12917710Y2341406D01*
X12946905Y2395177D01*
X12977166Y2414829D01*
X12980873Y2416365D01*
X13002841Y2425464D01*
X13128282Y2521718D01*
X13224536Y2647159D01*
X13285044Y2793238D01*
X13305682Y2950000D01*
X13285044Y3106762D01*
X13224536Y3252841D01*
X13128282Y3378282D01*
X13002841Y3474536D01*
X12950897Y3496052D01*
X12946614Y3497826D01*
X12900089Y3537563D01*
X12885500Y3589290D01*
X12885500Y5453936D01*
X12893036Y5491822D01*
X12932560Y5587241D01*
X12935044Y5593238D01*
X12955682Y5750000D01*
X12935044Y5906762D01*
X12874536Y6052841D01*
X12778282Y6178282D01*
X12652841Y6274536D01*
X12506762Y6335044D01*
X12350000Y6355682D01*
X12193238Y6335044D01*
X12047159Y6274536D01*
X11921718Y6178282D01*
X11917764Y6173129D01*
X11839712Y6071410D01*
X11789287Y6036754D01*
X11728123Y6038356D01*
X11679581Y6075603D01*
X11669706Y6093791D01*
X11633071Y6182236D01*
X11624536Y6202841D01*
X11528282Y6328282D01*
X11402841Y6424536D01*
X11256762Y6485044D01*
X11100000Y6505682D01*
X10943238Y6485044D01*
X10797159Y6424536D01*
X10671718Y6328282D01*
X10575464Y6202841D01*
X10514956Y6056762D01*
X10494318Y5900000D01*
X10514956Y5743238D01*
X10575464Y5597159D01*
X10671718Y5471718D01*
X10733690Y5424166D01*
X10735767Y5422572D01*
X10770423Y5372148D01*
X10774500Y5344030D01*
X10774500Y4478596D01*
X10755593Y4420405D01*
X10709766Y4385716D01*
X10580957Y4338196D01*
X10577054Y4335874D01*
X10577052Y4335873D01*
X10557492Y4324236D01*
X10391341Y4225386D01*
X10387926Y4222391D01*
X10387923Y4222389D01*
X10280036Y4127775D01*
X10225457Y4079910D01*
X10222649Y4076348D01*
X10111430Y3935266D01*
X10088863Y3906640D01*
X10086749Y3902622D01*
X10032757Y3800000D01*
X9986131Y3711380D01*
X9984787Y3707051D01*
X9932504Y3538671D01*
X9920703Y3500667D01*
X9920169Y3496157D01*
X9920169Y3496156D01*
X9900899Y3333344D01*
X9894770Y3281560D01*
X9897565Y3238914D01*
X9906227Y3106762D01*
X9909200Y3061396D01*
X9910316Y3057003D01*
X9910316Y3057001D01*
X9918457Y3024947D01*
X9963511Y2847548D01*
X10055883Y2647179D01*
X10183222Y2466998D01*
X10341264Y2313039D01*
X10524717Y2190460D01*
X10727436Y2103365D01*
X10805165Y2085777D01*
X10938206Y2055672D01*
X10938211Y2055671D01*
X10942632Y2054671D01*
X11052865Y2050340D01*
X11158565Y2046187D01*
X11158566Y2046187D01*
X11163098Y2046009D01*
X11381452Y2077669D01*
X11385751Y2079128D01*
X11385754Y2079129D01*
X11586078Y2147130D01*
X11590379Y2148590D01*
X11595158Y2151266D01*
X11778925Y2254181D01*
X11782884Y2256398D01*
X11952518Y2397482D01*
X12088897Y2561459D01*
X12140643Y2594108D01*
X12201697Y2590106D01*
X12243553Y2558422D01*
X12263775Y2532069D01*
X12271718Y2521718D01*
X12397159Y2425464D01*
X12543238Y2364956D01*
X12700000Y2344318D01*
X12805437Y2358199D01*
X12865598Y2347049D01*
X12907715Y2302667D01*
X12915701Y2242005D01*
X12886506Y2188234D01*
X12856245Y2168582D01*
X12830570Y2157947D01*
X12705129Y2061693D01*
X12608875Y1936252D01*
X12548367Y1790173D01*
X12527729Y1633411D01*
X12548367Y1476649D01*
X12550851Y1470651D01*
X12550852Y1470649D01*
X12564630Y1437385D01*
X12569430Y1376388D01*
X12537461Y1324219D01*
X12480933Y1300805D01*
X12473166Y1300500D01*
X-308361Y1300500D01*
X-317472Y1301766D01*
X-317472Y1301760D01*
X-328602Y1302338D01*
X-339332Y1305379D01*
X-350319Y1303466D01*
X-361450Y1304044D01*
X-361447Y1304094D01*
X-371568Y1303786D01*
X-535772Y1322157D01*
X-598182Y1329140D01*
X-610118Y1331221D01*
X-856986Y1390057D01*
X-868586Y1393585D01*
X-1106397Y1482150D01*
X-1117478Y1487069D01*
X-1269355Y1565953D01*
X-1342684Y1604040D01*
X-1353076Y1610274D01*
X-1562298Y1753898D01*
X-1571855Y1761358D01*
X-1597159Y1783737D01*
X-1761958Y1929485D01*
X-1770515Y1938042D01*
X-1938643Y2128146D01*
X-1946102Y2137702D01*
X-2037400Y2270699D01*
X5909371Y2270699D01*
X5909378Y2270654D01*
X5914901Y2264438D01*
X6021179Y2193425D01*
X6029133Y2189107D01*
X6223412Y2105638D01*
X6232024Y2102840D01*
X6438272Y2056171D01*
X6447232Y2054991D01*
X6658544Y2046689D01*
X6667556Y2047161D01*
X6876848Y2077506D01*
X6885630Y2079615D01*
X7085878Y2147590D01*
X7094134Y2151266D01*
X7278642Y2254596D01*
X7285755Y2259485D01*
X7292809Y2270664D01*
X7292624Y2273498D01*
X7290625Y2276532D01*
X6611086Y2956071D01*
X6599203Y2962125D01*
X6594172Y2961329D01*
X5915425Y2282582D01*
X5909371Y2270699D01*
X-2037400Y2270699D01*
X-2089726Y2346924D01*
X-2095963Y2357321D01*
X-2099488Y2364109D01*
X-2184026Y2526871D01*
X-2212931Y2582522D01*
X-2217850Y2593603D01*
X-2270568Y2735160D01*
X-150000Y2735160D01*
X-149052Y2725538D01*
X-140298Y2681526D01*
X-132979Y2663858D01*
X-99611Y2613918D01*
X-86082Y2600389D01*
X-36142Y2567021D01*
X-18474Y2559702D01*
X25538Y2550948D01*
X35160Y2550000D01*
X684320Y2550000D01*
X697005Y2554122D01*
X700000Y2558243D01*
X700000Y2565680D01*
X1100000Y2565680D01*
X1104122Y2552995D01*
X1108243Y2550000D01*
X1764840Y2550000D01*
X1774462Y2550948D01*
X1818474Y2559702D01*
X1836142Y2567021D01*
X1886082Y2600389D01*
X1899611Y2613918D01*
X1932979Y2663858D01*
X1940298Y2681526D01*
X1949052Y2725538D01*
X1950000Y2735160D01*
X1950000Y3277019D01*
X5395569Y3277019D01*
X5409399Y3066000D01*
X5410812Y3057079D01*
X5462866Y2852118D01*
X5465886Y2843590D01*
X5554417Y2651551D01*
X5558935Y2643726D01*
X5612805Y2567501D01*
X5623490Y2559522D01*
X5624241Y2559512D01*
X5630370Y2563213D01*
X6306071Y3238914D01*
X6311313Y3249203D01*
X6887875Y3249203D01*
X6888671Y3244172D01*
X7569504Y2563339D01*
X7581387Y2557285D01*
X7584189Y2557728D01*
X7587035Y2560003D01*
X7590286Y2563911D01*
X7595404Y2571358D01*
X7698734Y2755866D01*
X7702410Y2764122D01*
X7770385Y2964370D01*
X7772494Y2973152D01*
X7803072Y3184051D01*
X7803565Y3189839D01*
X7805065Y3247087D01*
X7804875Y3252899D01*
X7785376Y3465102D01*
X7783729Y3473988D01*
X7726328Y3677514D01*
X7723087Y3685958D01*
X7629560Y3875612D01*
X7624837Y3883320D01*
X7587759Y3932973D01*
X7576869Y3940669D01*
X7575418Y3940650D01*
X7570327Y3937484D01*
X6893929Y3261086D01*
X6887875Y3249203D01*
X6311313Y3249203D01*
X6312125Y3250797D01*
X6311329Y3255828D01*
X5631891Y3935266D01*
X5620008Y3941320D01*
X5617891Y3940985D01*
X5614161Y3937924D01*
X5592094Y3909932D01*
X5587170Y3902349D01*
X5488705Y3715198D01*
X5485251Y3706858D01*
X5422541Y3504902D01*
X5420660Y3496052D01*
X5395805Y3286052D01*
X5395569Y3277019D01*
X1950000Y3277019D01*
X1950000Y3384320D01*
X1945878Y3397005D01*
X1941757Y3400000D01*
X1115680Y3400000D01*
X1102995Y3395878D01*
X1100000Y3391757D01*
X1100000Y2565680D01*
X700000Y2565680D01*
X700000Y3384320D01*
X695878Y3397005D01*
X691757Y3400000D01*
X-134320Y3400000D01*
X-147005Y3395878D01*
X-150000Y3391757D01*
X-150000Y2735160D01*
X-2270568Y2735160D01*
X-2306415Y2831414D01*
X-2309943Y2843013D01*
X-2336888Y2956071D01*
X-2368779Y3089882D01*
X-2370861Y3101821D01*
X-2371413Y3106762D01*
X-2396157Y3327917D01*
X-2395836Y3337846D01*
X-2395996Y3337838D01*
X-2396536Y3348975D01*
X-2394585Y3359951D01*
X-2397588Y3370688D01*
X-2398073Y3380707D01*
X-2399500Y3391108D01*
X-2399500Y3815680D01*
X-150000Y3815680D01*
X-145878Y3802995D01*
X-141757Y3800000D01*
X684320Y3800000D01*
X697005Y3804122D01*
X700000Y3808243D01*
X700000Y3815680D01*
X1100000Y3815680D01*
X1104122Y3802995D01*
X1108243Y3800000D01*
X1934320Y3800000D01*
X1947005Y3804122D01*
X1950000Y3808243D01*
X1950000Y4229635D01*
X5907028Y4229635D01*
X5911724Y4221119D01*
X6588914Y3543929D01*
X6600797Y3537875D01*
X6605828Y3538671D01*
X7285534Y4218377D01*
X7291412Y4229915D01*
X7285319Y4236593D01*
X7150961Y4321367D01*
X7142907Y4325470D01*
X6946491Y4403832D01*
X6937833Y4406397D01*
X6730426Y4447653D01*
X6721433Y4448598D01*
X6509985Y4451367D01*
X6500970Y4450657D01*
X6292556Y4414845D01*
X6283832Y4412507D01*
X6085436Y4339316D01*
X6077268Y4335420D01*
X5915285Y4239050D01*
X5907028Y4229635D01*
X1950000Y4229635D01*
X1950000Y4464840D01*
X1949052Y4474462D01*
X1940298Y4518474D01*
X1932979Y4536142D01*
X1899611Y4586082D01*
X1886082Y4599611D01*
X1836142Y4632979D01*
X1818474Y4640298D01*
X1774462Y4649052D01*
X1764840Y4650000D01*
X1115680Y4650000D01*
X1102995Y4645878D01*
X1100000Y4641757D01*
X1100000Y3815680D01*
X700000Y3815680D01*
X700000Y4634320D01*
X695878Y4647005D01*
X691757Y4650000D01*
X35160Y4650000D01*
X25538Y4649052D01*
X-18474Y4640298D01*
X-36142Y4632979D01*
X-86082Y4599611D01*
X-99611Y4586082D01*
X-132979Y4536142D01*
X-140298Y4518474D01*
X-149052Y4474462D01*
X-150000Y4464840D01*
X-150000Y3815680D01*
X-2399500Y3815680D01*
X-2399500Y6316683D01*
X-2088713Y6316683D01*
X-2082310Y6290013D01*
X-2078178Y6278904D01*
X-2005947Y6138958D01*
X-1999284Y6129154D01*
X-1895752Y6010473D01*
X-1886952Y6002549D01*
X-1758094Y5911986D01*
X-1747656Y5906390D01*
X-1600922Y5849180D01*
X-1589445Y5846233D01*
X-1469352Y5830423D01*
X-1462898Y5830000D01*
X-1235680Y5830000D01*
X-1222995Y5834122D01*
X-1220000Y5838243D01*
X-1220000Y5845680D01*
X-820000Y5845680D01*
X-815878Y5832995D01*
X-811757Y5830000D01*
X-580505Y5830000D01*
X-574549Y5830359D01*
X-457727Y5844496D01*
X-446217Y5847323D01*
X-298892Y5902993D01*
X-288394Y5908482D01*
X-158599Y5997686D01*
X-149712Y6005522D01*
X-44942Y6123113D01*
X-38183Y6132837D01*
X35512Y6272024D01*
X39761Y6283093D01*
X47723Y6314791D01*
X47594Y6316683D01*
X1941287Y6316683D01*
X1947690Y6290013D01*
X1951822Y6278904D01*
X2024053Y6138958D01*
X2030716Y6129154D01*
X2134248Y6010473D01*
X2143048Y6002549D01*
X2271906Y5911986D01*
X2282344Y5906390D01*
X2429078Y5849180D01*
X2440555Y5846233D01*
X2560648Y5830423D01*
X2567102Y5830000D01*
X2944320Y5830000D01*
X2957005Y5834122D01*
X2960000Y5838243D01*
X2960000Y5845680D01*
X3360000Y5845680D01*
X3364122Y5832995D01*
X3368243Y5830000D01*
X3749495Y5830000D01*
X3755451Y5830359D01*
X3872273Y5844496D01*
X3883783Y5847323D01*
X4031108Y5902993D01*
X4041606Y5908482D01*
X4171401Y5997686D01*
X4180288Y6005522D01*
X4285058Y6123113D01*
X4291817Y6132837D01*
X4365512Y6272024D01*
X4369761Y6283093D01*
X4377723Y6314791D01*
X4376868Y6327329D01*
X4367586Y6330000D01*
X3375680Y6330000D01*
X3362995Y6325878D01*
X3360000Y6321757D01*
X3360000Y5845680D01*
X2960000Y5845680D01*
X2960000Y6314320D01*
X2955878Y6327005D01*
X2951757Y6330000D01*
X1953770Y6330000D01*
X1941656Y6326064D01*
X1941287Y6316683D01*
X47594Y6316683D01*
X46868Y6327329D01*
X37586Y6330000D01*
X-804320Y6330000D01*
X-817005Y6325878D01*
X-820000Y6321757D01*
X-820000Y5845680D01*
X-1220000Y5845680D01*
X-1220000Y6314320D01*
X-1224122Y6327005D01*
X-1228243Y6330000D01*
X-2076230Y6330000D01*
X-2088344Y6326064D01*
X-2088713Y6316683D01*
X-2399500Y6316683D01*
X-2399500Y6745209D01*
X-2087723Y6745209D01*
X-2086868Y6732671D01*
X-2077586Y6730000D01*
X-1235680Y6730000D01*
X-1222995Y6734122D01*
X-1220000Y6738243D01*
X-1220000Y6745680D01*
X-820000Y6745680D01*
X-815878Y6732995D01*
X-811757Y6730000D01*
X36230Y6730000D01*
X48344Y6733936D01*
X48713Y6743317D01*
X48259Y6745209D01*
X1942277Y6745209D01*
X1943132Y6732671D01*
X1952414Y6730000D01*
X2944320Y6730000D01*
X2957005Y6734122D01*
X2960000Y6738243D01*
X2960000Y6745680D01*
X3360000Y6745680D01*
X3364122Y6732995D01*
X3368243Y6730000D01*
X4366230Y6730000D01*
X4378344Y6733936D01*
X4378713Y6743317D01*
X4372310Y6769987D01*
X4368178Y6781096D01*
X4295947Y6921042D01*
X4289284Y6930846D01*
X4185752Y7049527D01*
X4176952Y7057451D01*
X4048094Y7148014D01*
X4037656Y7153610D01*
X3890922Y7210820D01*
X3879445Y7213767D01*
X3759352Y7229577D01*
X3752898Y7230000D01*
X3375680Y7230000D01*
X3362995Y7225878D01*
X3360000Y7221757D01*
X3360000Y6745680D01*
X2960000Y6745680D01*
X2960000Y7214320D01*
X2955878Y7227005D01*
X2951757Y7230000D01*
X2912249Y7230000D01*
X2854058Y7248907D01*
X2818094Y7298407D01*
X2818094Y7359593D01*
X2854058Y7409093D01*
X2874364Y7420464D01*
X2946756Y7450449D01*
X2946759Y7450451D01*
X2952754Y7452934D01*
X3074017Y7545983D01*
X3167066Y7667245D01*
X3169549Y7673239D01*
X3169551Y7673243D01*
X3223075Y7802465D01*
X3225558Y7808459D01*
X3245509Y7960000D01*
X3225558Y8111541D01*
X3208090Y8153714D01*
X3169551Y8246756D01*
X3169549Y8246759D01*
X3167066Y8252754D01*
X3074017Y8374017D01*
X2952754Y8467066D01*
X2946759Y8469549D01*
X2946756Y8469551D01*
X2853714Y8508090D01*
X2811541Y8525558D01*
X2805112Y8526404D01*
X2805110Y8526405D01*
X2701260Y8540077D01*
X2698047Y8540500D01*
X2621953Y8540500D01*
X2618740Y8540077D01*
X2514890Y8526405D01*
X2514888Y8526404D01*
X2508459Y8525558D01*
X2466286Y8508090D01*
X2373244Y8469551D01*
X2373241Y8469549D01*
X2367246Y8467066D01*
X2245983Y8374017D01*
X2152934Y8252755D01*
X2150451Y8246761D01*
X2150449Y8246757D01*
X2150449Y8246756D01*
X2094442Y8111541D01*
X2074491Y7960000D01*
X2094442Y7808459D01*
X2096925Y7802465D01*
X2150449Y7673244D01*
X2150450Y7673243D01*
X2152934Y7667246D01*
X2245983Y7545983D01*
X2367246Y7452934D01*
X2480410Y7406060D01*
X2526935Y7366325D01*
X2541219Y7306830D01*
X2517805Y7250302D01*
X2465636Y7218332D01*
X2454419Y7216314D01*
X2447726Y7215504D01*
X2436217Y7212677D01*
X2288892Y7157007D01*
X2278394Y7151518D01*
X2148599Y7062314D01*
X2139712Y7054478D01*
X2034942Y6936887D01*
X2028183Y6927163D01*
X1954488Y6787976D01*
X1950239Y6776907D01*
X1942277Y6745209D01*
X48259Y6745209D01*
X42310Y6769987D01*
X38178Y6781096D01*
X-34053Y6921042D01*
X-40716Y6930846D01*
X-144248Y7049527D01*
X-153048Y7057451D01*
X-281906Y7148014D01*
X-292344Y7153610D01*
X-439078Y7210820D01*
X-450555Y7213767D01*
X-570648Y7229577D01*
X-577102Y7230000D01*
X-804320Y7230000D01*
X-817005Y7225878D01*
X-820000Y7221757D01*
X-820000Y6745680D01*
X-1220000Y6745680D01*
X-1220000Y7214320D01*
X-1224122Y7227005D01*
X-1228243Y7230000D01*
X-1459495Y7230000D01*
X-1465451Y7229641D01*
X-1582273Y7215504D01*
X-1593783Y7212677D01*
X-1741108Y7157007D01*
X-1751606Y7151518D01*
X-1881401Y7062314D01*
X-1890288Y7054478D01*
X-1995058Y6936887D01*
X-2001817Y6927163D01*
X-2075512Y6787976D01*
X-2079761Y6776907D01*
X-2087723Y6745209D01*
X-2399500Y6745209D01*
X-2399500Y8770699D01*
X5909371Y8770699D01*
X5909378Y8770654D01*
X5914901Y8764438D01*
X6021179Y8693425D01*
X6029133Y8689107D01*
X6223412Y8605638D01*
X6232024Y8602840D01*
X6438272Y8556171D01*
X6447232Y8554991D01*
X6658544Y8546689D01*
X6667556Y8547161D01*
X6876848Y8577506D01*
X6885630Y8579615D01*
X7085878Y8647590D01*
X7094134Y8651266D01*
X7278642Y8754596D01*
X7285755Y8759485D01*
X7292809Y8770664D01*
X7292624Y8773498D01*
X7290625Y8776532D01*
X6611086Y9456071D01*
X6599203Y9462125D01*
X6594172Y9461329D01*
X5915425Y8782582D01*
X5909371Y8770699D01*
X-2399500Y8770699D01*
X-2399500Y9777019D01*
X5395569Y9777019D01*
X5409399Y9566000D01*
X5410812Y9557079D01*
X5462866Y9352118D01*
X5465886Y9343590D01*
X5554417Y9151551D01*
X5558935Y9143726D01*
X5612805Y9067501D01*
X5623490Y9059522D01*
X5624241Y9059512D01*
X5630370Y9063213D01*
X6306071Y9738914D01*
X6311313Y9749203D01*
X6887875Y9749203D01*
X6888671Y9744172D01*
X7569504Y9063339D01*
X7581387Y9057285D01*
X7584189Y9057728D01*
X7587035Y9060003D01*
X7590286Y9063911D01*
X7595404Y9071358D01*
X7698734Y9255866D01*
X7702410Y9264122D01*
X7770385Y9464370D01*
X7772494Y9473152D01*
X7803072Y9684051D01*
X7803565Y9689839D01*
X7805065Y9747087D01*
X7804875Y9752899D01*
X7802241Y9781560D01*
X9894770Y9781560D01*
X9909200Y9561396D01*
X9910316Y9557003D01*
X9910316Y9557001D01*
X9933842Y9464370D01*
X9963511Y9347548D01*
X10055883Y9147179D01*
X10183222Y8966998D01*
X10341264Y8813039D01*
X10524717Y8690460D01*
X10727436Y8603365D01*
X10805165Y8585777D01*
X10938206Y8555672D01*
X10938211Y8555671D01*
X10942632Y8554671D01*
X11052865Y8550340D01*
X11158565Y8546187D01*
X11158566Y8546187D01*
X11163098Y8546009D01*
X11381452Y8577669D01*
X11385751Y8579128D01*
X11385754Y8579129D01*
X11586078Y8647130D01*
X11590379Y8648590D01*
X11595158Y8651266D01*
X11778925Y8754181D01*
X11782884Y8756398D01*
X11952518Y8897482D01*
X12093602Y9067116D01*
X12154280Y9175464D01*
X12199192Y9255660D01*
X12199193Y9255662D01*
X12201410Y9259621D01*
X12232749Y9351942D01*
X12270871Y9464246D01*
X12270872Y9464249D01*
X12272331Y9468548D01*
X12285156Y9557001D01*
X12303571Y9684003D01*
X12303571Y9684009D01*
X12303991Y9686902D01*
X12304166Y9693566D01*
X12305567Y9747086D01*
X12305567Y9747091D01*
X12305643Y9750000D01*
X12305108Y9755828D01*
X12294975Y9866101D01*
X12285454Y9969711D01*
X12276724Y10000667D01*
X12226799Y10177689D01*
X12226798Y10177690D01*
X12225565Y10182064D01*
X12223557Y10186136D01*
X12223555Y10186141D01*
X12129988Y10375875D01*
X12127980Y10379947D01*
X11995967Y10556733D01*
X11833949Y10706501D01*
X11647350Y10824236D01*
X11442421Y10905994D01*
X11226024Y10949038D01*
X11117347Y10950461D01*
X11009946Y10951867D01*
X11009941Y10951867D01*
X11005406Y10951926D01*
X11000933Y10951157D01*
X11000928Y10951157D01*
X10792435Y10915332D01*
X10792429Y10915330D01*
X10787957Y10914562D01*
X10684457Y10876379D01*
X10585220Y10839769D01*
X10585217Y10839768D01*
X10580957Y10838196D01*
X10577054Y10835874D01*
X10577052Y10835873D01*
X10557492Y10824236D01*
X10391341Y10725386D01*
X10387926Y10722391D01*
X10387923Y10722389D01*
X10280036Y10627775D01*
X10225457Y10579910D01*
X10222649Y10576348D01*
X10111430Y10435266D01*
X10088863Y10406640D01*
X10086749Y10402622D01*
X9993053Y10224536D01*
X9986131Y10211380D01*
X9984787Y10207051D01*
X9932504Y10038671D01*
X9920703Y10000667D01*
X9920169Y9996157D01*
X9920169Y9996156D01*
X9903671Y9856762D01*
X9894770Y9781560D01*
X7802241Y9781560D01*
X7785376Y9965102D01*
X7783729Y9973988D01*
X7726328Y10177514D01*
X7723087Y10185958D01*
X7629560Y10375612D01*
X7624837Y10383320D01*
X7587759Y10432973D01*
X7576869Y10440669D01*
X7575418Y10440650D01*
X7570327Y10437484D01*
X6893929Y9761086D01*
X6887875Y9749203D01*
X6311313Y9749203D01*
X6312125Y9750797D01*
X6311329Y9755828D01*
X5631891Y10435266D01*
X5620008Y10441320D01*
X5617891Y10440985D01*
X5614161Y10437924D01*
X5592094Y10409932D01*
X5587170Y10402349D01*
X5488705Y10215198D01*
X5485251Y10206858D01*
X5422541Y10004902D01*
X5420660Y9996052D01*
X5395805Y9786052D01*
X5395569Y9777019D01*
X-2399500Y9777019D01*
X-2399500Y10729635D01*
X5907028Y10729635D01*
X5911724Y10721119D01*
X6588914Y10043929D01*
X6600797Y10037875D01*
X6605828Y10038671D01*
X7285534Y10718377D01*
X7291412Y10729915D01*
X7285319Y10736593D01*
X7150961Y10821367D01*
X7142907Y10825470D01*
X6946491Y10903832D01*
X6937833Y10906397D01*
X6730426Y10947653D01*
X6721433Y10948598D01*
X6509985Y10951367D01*
X6500970Y10950657D01*
X6292556Y10914845D01*
X6283832Y10912507D01*
X6085436Y10839316D01*
X6077268Y10835420D01*
X5915285Y10739050D01*
X5907028Y10729635D01*
X-2399500Y10729635D01*
X-2399500Y14956683D01*
X-2088713Y14956683D01*
X-2082310Y14930013D01*
X-2078178Y14918904D01*
X-2005947Y14778958D01*
X-1999284Y14769154D01*
X-1895752Y14650473D01*
X-1886952Y14642549D01*
X-1758094Y14551986D01*
X-1747656Y14546390D01*
X-1600922Y14489180D01*
X-1589445Y14486233D01*
X-1469352Y14470423D01*
X-1462898Y14470000D01*
X-1235680Y14470000D01*
X-1222995Y14474122D01*
X-1220000Y14478243D01*
X-1220000Y14485680D01*
X-820000Y14485680D01*
X-815878Y14472995D01*
X-811757Y14470000D01*
X-580505Y14470000D01*
X-574549Y14470359D01*
X-457727Y14484496D01*
X-446217Y14487323D01*
X-298892Y14542993D01*
X-288394Y14548482D01*
X-158599Y14637686D01*
X-149712Y14645522D01*
X-44942Y14763113D01*
X-38183Y14772837D01*
X35512Y14912024D01*
X39761Y14923093D01*
X47723Y14954791D01*
X47594Y14956683D01*
X1941287Y14956683D01*
X1947690Y14930013D01*
X1951822Y14918904D01*
X2024053Y14778958D01*
X2030716Y14769154D01*
X2134248Y14650473D01*
X2143048Y14642549D01*
X2271906Y14551986D01*
X2282344Y14546390D01*
X2429078Y14489180D01*
X2440555Y14486233D01*
X2456758Y14484100D01*
X2511983Y14457759D01*
X2541178Y14403988D01*
X2533192Y14343326D01*
X2491075Y14298944D01*
X2481726Y14294485D01*
X2367246Y14247066D01*
X2245983Y14154017D01*
X2152934Y14032755D01*
X2150451Y14026761D01*
X2150449Y14026757D01*
X2150449Y14026756D01*
X2094442Y13891541D01*
X2074491Y13740000D01*
X2075338Y13733566D01*
X2089878Y13623129D01*
X2094442Y13588459D01*
X2100792Y13573129D01*
X2150449Y13453244D01*
X2150450Y13453243D01*
X2152934Y13447246D01*
X2245983Y13325983D01*
X2367246Y13232934D01*
X2373241Y13230451D01*
X2373244Y13230449D01*
X2431223Y13206434D01*
X2508459Y13174442D01*
X2514888Y13173596D01*
X2514890Y13173595D01*
X2618740Y13159923D01*
X2621953Y13159500D01*
X2698047Y13159500D01*
X2701260Y13159923D01*
X2805110Y13173595D01*
X2805112Y13173596D01*
X2811541Y13174442D01*
X2873244Y13200000D01*
X16744318Y13200000D01*
X16764956Y13043238D01*
X16825464Y12897159D01*
X16921718Y12771718D01*
X17047159Y12675464D01*
X17193238Y12614956D01*
X17350000Y12594318D01*
X17506762Y12614956D01*
X17652841Y12675464D01*
X17778282Y12771718D01*
X17778301Y12771743D01*
X17830386Y12798281D01*
X17845873Y12799500D01*
X18663213Y12799500D01*
X18721404Y12780593D01*
X18741754Y12760768D01*
X18771718Y12721718D01*
X18897159Y12625464D01*
X19043238Y12564956D01*
X19200000Y12544318D01*
X19356762Y12564956D01*
X19502841Y12625464D01*
X19628282Y12721718D01*
X19724536Y12847159D01*
X19785044Y12993238D01*
X19805682Y13150000D01*
X19785044Y13306762D01*
X19724536Y13452841D01*
X19628282Y13578282D01*
X19502841Y13674536D01*
X19356762Y13735044D01*
X19200000Y13755682D01*
X19043238Y13735044D01*
X18897159Y13674536D01*
X18771718Y13578282D01*
X18767764Y13573129D01*
X18741755Y13539233D01*
X18691331Y13504577D01*
X18663213Y13500500D01*
X17925154Y13500500D01*
X17866963Y13519407D01*
X17846612Y13539232D01*
X17778282Y13628282D01*
X17652841Y13724536D01*
X17506762Y13785044D01*
X17350000Y13805682D01*
X17193238Y13785044D01*
X17047159Y13724536D01*
X16921718Y13628282D01*
X16825464Y13502841D01*
X16764956Y13356762D01*
X16744318Y13200000D01*
X2873244Y13200000D01*
X2888777Y13206434D01*
X2946756Y13230449D01*
X2946759Y13230451D01*
X2952754Y13232934D01*
X3074017Y13325983D01*
X3167066Y13447245D01*
X3169549Y13453239D01*
X3169551Y13453243D01*
X3219208Y13573129D01*
X3225558Y13588459D01*
X3230123Y13623129D01*
X3244662Y13733566D01*
X3245509Y13740000D01*
X3225558Y13891541D01*
X3208090Y13933714D01*
X3169551Y14026756D01*
X3169549Y14026759D01*
X3167066Y14032754D01*
X3074017Y14154017D01*
X2952754Y14247066D01*
X2946759Y14249549D01*
X2946756Y14249551D01*
X2874364Y14279536D01*
X2827838Y14319272D01*
X2813554Y14378767D01*
X2836969Y14435295D01*
X2889138Y14467265D01*
X2912249Y14470000D01*
X2944320Y14470000D01*
X2957005Y14474122D01*
X2960000Y14478243D01*
X2960000Y14485680D01*
X3360000Y14485680D01*
X3364122Y14472995D01*
X3368243Y14470000D01*
X3749495Y14470000D01*
X3755451Y14470359D01*
X3872273Y14484496D01*
X3883783Y14487323D01*
X4031108Y14542993D01*
X4041606Y14548482D01*
X4171401Y14637686D01*
X4180288Y14645522D01*
X4285058Y14763113D01*
X4291817Y14772837D01*
X4365512Y14912024D01*
X4369761Y14923093D01*
X4377723Y14954791D01*
X4376868Y14967329D01*
X4367586Y14970000D01*
X3375680Y14970000D01*
X3362995Y14965878D01*
X3360000Y14961757D01*
X3360000Y14485680D01*
X2960000Y14485680D01*
X2960000Y14954320D01*
X2955878Y14967005D01*
X2951757Y14970000D01*
X1953770Y14970000D01*
X1941656Y14966064D01*
X1941287Y14956683D01*
X47594Y14956683D01*
X46868Y14967329D01*
X37586Y14970000D01*
X-804320Y14970000D01*
X-817005Y14965878D01*
X-820000Y14961757D01*
X-820000Y14485680D01*
X-1220000Y14485680D01*
X-1220000Y14954320D01*
X-1224122Y14967005D01*
X-1228243Y14970000D01*
X-2076230Y14970000D01*
X-2088344Y14966064D01*
X-2088713Y14956683D01*
X-2399500Y14956683D01*
X-2399500Y15385209D01*
X-2087723Y15385209D01*
X-2086868Y15372671D01*
X-2077586Y15370000D01*
X-1235680Y15370000D01*
X-1222995Y15374122D01*
X-1220000Y15378243D01*
X-1220000Y15385680D01*
X-820000Y15385680D01*
X-815878Y15372995D01*
X-811757Y15370000D01*
X36230Y15370000D01*
X48344Y15373936D01*
X48713Y15383317D01*
X48259Y15385209D01*
X1942277Y15385209D01*
X1943132Y15372671D01*
X1952414Y15370000D01*
X2944320Y15370000D01*
X2957005Y15374122D01*
X2960000Y15378243D01*
X2960000Y15385680D01*
X3360000Y15385680D01*
X3364122Y15372995D01*
X3368243Y15370000D01*
X4366230Y15370000D01*
X4378344Y15373936D01*
X4378713Y15383317D01*
X4372310Y15409987D01*
X4368178Y15421096D01*
X4295947Y15561042D01*
X4289284Y15570846D01*
X4185752Y15689527D01*
X4176952Y15697451D01*
X4048094Y15788014D01*
X4037656Y15793610D01*
X3890922Y15850820D01*
X3879445Y15853767D01*
X3759352Y15869577D01*
X3752898Y15870000D01*
X3375680Y15870000D01*
X3362995Y15865878D01*
X3360000Y15861757D01*
X3360000Y15385680D01*
X2960000Y15385680D01*
X2960000Y15854320D01*
X2955878Y15867005D01*
X2951757Y15870000D01*
X2570505Y15870000D01*
X2564549Y15869641D01*
X2447727Y15855504D01*
X2436217Y15852677D01*
X2288892Y15797007D01*
X2278394Y15791518D01*
X2148599Y15702314D01*
X2139712Y15694478D01*
X2034942Y15576887D01*
X2028183Y15567163D01*
X1954488Y15427976D01*
X1950239Y15416907D01*
X1942277Y15385209D01*
X48259Y15385209D01*
X42310Y15409987D01*
X38178Y15421096D01*
X-34053Y15561042D01*
X-40716Y15570846D01*
X-144248Y15689527D01*
X-153048Y15697451D01*
X-281906Y15788014D01*
X-292344Y15793610D01*
X-439078Y15850820D01*
X-450555Y15853767D01*
X-570648Y15869577D01*
X-577102Y15870000D01*
X-804320Y15870000D01*
X-817005Y15865878D01*
X-820000Y15861757D01*
X-820000Y15385680D01*
X-1220000Y15385680D01*
X-1220000Y15854320D01*
X-1224122Y15867005D01*
X-1228243Y15870000D01*
X-1459495Y15870000D01*
X-1465451Y15869641D01*
X-1582273Y15855504D01*
X-1593783Y15852677D01*
X-1741108Y15797007D01*
X-1751606Y15791518D01*
X-1881401Y15702314D01*
X-1890288Y15694478D01*
X-1995058Y15576887D01*
X-2001817Y15567163D01*
X-2075512Y15427976D01*
X-2079761Y15416907D01*
X-2087723Y15385209D01*
X-2399500Y15385209D01*
X-2399500Y17095253D01*
X-35500Y17095253D01*
X-23867Y17036770D01*
X20448Y16970449D01*
X86769Y16926134D01*
X96332Y16924232D01*
X96334Y16924231D01*
X119005Y16919722D01*
X145252Y16914501D01*
X1884748Y16914501D01*
X1910995Y16919722D01*
X1933666Y16924231D01*
X1933668Y16924232D01*
X1943231Y16926134D01*
X2009552Y16970449D01*
X2053867Y17036770D01*
X2065500Y17095253D01*
X2065500Y18834749D01*
X2053867Y18893232D01*
X2009552Y18959553D01*
X1943231Y19003868D01*
X1933668Y19005770D01*
X1933666Y19005771D01*
X1910995Y19010280D01*
X1884748Y19015501D01*
X145252Y19015501D01*
X119005Y19010280D01*
X96334Y19005771D01*
X96332Y19005770D01*
X86769Y19003868D01*
X20448Y18959553D01*
X-23867Y18893232D01*
X-35500Y18834749D01*
X-35500Y17095253D01*
X-2399500Y17095253D01*
X-2399500Y18165473D01*
X-2396907Y18187984D01*
X-2396881Y18188094D01*
X-2394346Y18198951D01*
X-2396771Y18209835D01*
X-2396714Y18220982D01*
X-2396633Y18220982D01*
X-2397408Y18231069D01*
X-2384096Y18432958D01*
X-2381723Y18468941D01*
X-2380143Y18481187D01*
X-2330074Y18740402D01*
X-2326976Y18752370D01*
X-2244991Y19003318D01*
X-2240425Y19014809D01*
X-2240098Y19015501D01*
X-2127799Y19253581D01*
X-2121837Y19264410D01*
X-2035747Y19400000D01*
X-1980327Y19487285D01*
X-1973071Y19497275D01*
X-1804879Y19700781D01*
X-1796424Y19709799D01*
X-1604191Y19890742D01*
X-1594676Y19898638D01*
X-1529011Y19946534D01*
X-1381384Y20054213D01*
X-1370968Y20060856D01*
X-1139942Y20188636D01*
X-1128778Y20193929D01*
X-947879Y20266235D01*
X-883631Y20291915D01*
X-871887Y20295778D01*
X-853794Y20300500D01*
X-616437Y20362445D01*
X-604316Y20364811D01*
X-368321Y20395740D01*
X-358536Y20395603D01*
X-358550Y20395813D01*
X-347429Y20396549D01*
X-336419Y20394793D01*
X-325738Y20397985D01*
X-314612Y20398721D01*
X-314582Y20398273D01*
X-306190Y20399500D01*
X12185815Y20399500D01*
X12244006Y20380593D01*
G37*
G04 #@! TD.AperFunction*
G04 #@! TD*
M02*
