G04 #@! TF.GenerationSoftware,KiCad,Pcbnew,8.0.2*
G04 #@! TF.CreationDate,2024-05-24T20:41:35+02:00*
G04 #@! TF.ProjectId,ESP32-C3,45535033-322d-4433-932e-6b696361645f,rev?*
G04 #@! TF.SameCoordinates,Original*
G04 #@! TF.FileFunction,Legend,Top*
G04 #@! TF.FilePolarity,Positive*
%FSLAX46Y46*%
G04 Gerber Fmt 4.6, Leading zero omitted, Abs format (unit mm)*
G04 Created by KiCad (PCBNEW 8.0.2) date 2024-05-24 20:41:35*
%MOMM*%
%LPD*%
G01*
G04 APERTURE LIST*
%ADD10C,0.120000*%
G04 APERTURE END LIST*
D10*
G04 #@! TO.C,C3*
X54240000Y-7642164D02*
X54240000Y-7857836D01*
X54960000Y-7642164D02*
X54960000Y-7857836D01*
G04 #@! TO.C,R3*
X40920000Y-2546359D02*
X40920000Y-2853641D01*
X41680000Y-2546359D02*
X41680000Y-2853641D01*
G04 #@! TO.C,C12*
X50587164Y-8890000D02*
X50802836Y-8890000D01*
X50587164Y-9610000D02*
X50802836Y-9610000D01*
G04 #@! TO.C,C5*
X47642164Y-1390000D02*
X47857836Y-1390000D01*
X47642164Y-2110000D02*
X47857836Y-2110000D01*
G04 #@! TO.C,R18*
X44920000Y11236359D02*
X44920000Y11543641D01*
X45680000Y11236359D02*
X45680000Y11543641D01*
G04 #@! TO.C,D5*
X40415000Y14635000D02*
X40415000Y13165000D01*
X40415000Y13165000D02*
X42700000Y13165000D01*
X42700000Y14635000D02*
X40415000Y14635000D01*
G04 #@! TO.C,R16*
X45420000Y4796359D02*
X45420000Y5103641D01*
X46180000Y4796359D02*
X46180000Y5103641D01*
G04 #@! TO.C,U2*
X44690000Y6590000D02*
X44690000Y7065000D01*
X45165000Y9810000D02*
X44690000Y9810000D01*
X45165000Y6590000D02*
X44690000Y6590000D01*
X47435000Y9810000D02*
X47910000Y9810000D01*
X47435000Y6590000D02*
X47910000Y6590000D01*
X47910000Y9810000D02*
X47910000Y9335000D01*
X47910000Y6590000D02*
X47910000Y7065000D01*
G04 #@! TO.C,R10*
X38770000Y13746359D02*
X38770000Y14053641D01*
X39530000Y13746359D02*
X39530000Y14053641D01*
G04 #@! TO.C,C4*
X53990000Y-5392164D02*
X53990000Y-5607836D01*
X54710000Y-5392164D02*
X54710000Y-5607836D01*
G04 #@! TO.C,C16*
X49855000Y-10762164D02*
X49855000Y-10977836D01*
X50575000Y-10762164D02*
X50575000Y-10977836D01*
G04 #@! TO.C,C11*
X43740000Y-1457836D02*
X43740000Y-1242164D01*
X44460000Y-1457836D02*
X44460000Y-1242164D01*
G04 #@! TO.C,R5*
X46520000Y11573641D02*
X46520000Y11266359D01*
X47280000Y11573641D02*
X47280000Y11266359D01*
G04 #@! TO.C,C6*
X51240000Y-7642164D02*
X51240000Y-7857836D01*
X51960000Y-7642164D02*
X51960000Y-7857836D01*
G04 #@! TO.C,U1*
X32620000Y5210000D02*
X32620000Y-3790000D01*
G04 #@! TO.C,R9*
X43770000Y13746359D02*
X43770000Y14053641D01*
X44530000Y13746359D02*
X44530000Y14053641D01*
G04 #@! TO.C,R11*
X43170000Y10796359D02*
X43170000Y11103641D01*
X43930000Y10796359D02*
X43930000Y11103641D01*
G04 #@! TO.C,C1*
X53957836Y-2840000D02*
X53742164Y-2840000D01*
X53957836Y-3560000D02*
X53742164Y-3560000D01*
G04 #@! TO.C,C20*
X49622164Y8560000D02*
X49837836Y8560000D01*
X49622164Y7840000D02*
X49837836Y7840000D01*
G04 #@! TO.C,R1*
X51970000Y-2853641D02*
X51970000Y-2546359D01*
X52730000Y-2853641D02*
X52730000Y-2546359D01*
G04 #@! TO.C,R7*
X40020000Y-7553641D02*
X40020000Y-7246359D01*
X40780000Y-7553641D02*
X40780000Y-7246359D01*
G04 #@! TO.C,C15*
X51990000Y-9857836D02*
X51990000Y-9642164D01*
X52710000Y-9857836D02*
X52710000Y-9642164D01*
G04 #@! TO.C,L1*
X53253641Y-6870000D02*
X52946359Y-6870000D01*
X53253641Y-7630000D02*
X52946359Y-7630000D01*
G04 #@! TO.C,D4*
X35415000Y14635000D02*
X35415000Y13165000D01*
X35415000Y13165000D02*
X37700000Y13165000D01*
X37700000Y14635000D02*
X35415000Y14635000D01*
G04 #@! TO.C,R2*
X41170000Y2546359D02*
X41170000Y2853641D01*
X41930000Y2546359D02*
X41930000Y2853641D01*
G04 #@! TO.C,R15*
X50062742Y9972500D02*
X50537258Y9972500D01*
X50062742Y8927500D02*
X50537258Y8927500D01*
G04 #@! TO.C,R8*
X40020000Y-9746359D02*
X40020000Y-10053641D01*
X40780000Y-9746359D02*
X40780000Y-10053641D01*
G04 #@! TO.C,R17*
X44453641Y5780000D02*
X44146359Y5780000D01*
X44453641Y5020000D02*
X44146359Y5020000D01*
G04 #@! TO.C,SW2*
X53030000Y12470000D02*
X53430000Y12470000D01*
X53030000Y7730000D02*
X53030000Y12470000D01*
X53030000Y7730000D02*
X53430000Y7730000D01*
X56430000Y12470000D02*
X54370000Y12470000D01*
X56430000Y7730000D02*
X54370000Y7730000D01*
X57770000Y12470000D02*
X57370000Y12470000D01*
X57770000Y7730000D02*
X57370000Y7730000D01*
X57770000Y7730000D02*
X57770000Y12470000D01*
G04 #@! TO.C,R12*
X43243641Y9830000D02*
X42936359Y9830000D01*
X43243641Y9070000D02*
X42936359Y9070000D01*
G04 #@! TO.C,C21*
X43217836Y8560000D02*
X43002164Y8560000D01*
X43217836Y7840000D02*
X43002164Y7840000D01*
G04 #@! TO.C,C14*
X44740000Y-1457836D02*
X44740000Y-1242164D01*
X45460000Y-1457836D02*
X45460000Y-1242164D01*
G04 #@! TO.C,J2*
X33060000Y12160000D02*
X33060000Y6040000D01*
X33060000Y9600000D02*
X37420000Y9600000D01*
X33060000Y6040000D02*
X40880000Y6040000D01*
X35320000Y11400000D02*
X35320000Y10400000D01*
X35320000Y10900000D02*
X33060000Y10900000D01*
X35320000Y10400000D02*
X33060000Y10400000D01*
X35320000Y10400000D02*
X36920000Y10400000D01*
X35320000Y7800000D02*
X36920000Y7800000D01*
X35320000Y6800000D02*
X35320000Y7800000D01*
X36920000Y11400000D02*
X35320000Y11400000D01*
X36920000Y10400000D02*
X36920000Y11400000D01*
X36920000Y7800000D02*
X36920000Y6800000D01*
X36920000Y6800000D02*
X35320000Y6800000D01*
X37420000Y9600000D02*
X37420000Y8600000D01*
X37420000Y8600000D02*
X33060000Y8600000D01*
X39280000Y12160000D02*
X39280000Y11240000D01*
X39280000Y11240000D02*
X40880000Y11240000D01*
X39280000Y10960000D02*
X39280000Y11240000D01*
X39280000Y10960000D02*
X40495000Y10960000D01*
X39280000Y6960000D02*
X39280000Y7240000D01*
X39280000Y6040000D02*
X39280000Y6960000D01*
X40880000Y12160000D02*
X33060000Y12160000D01*
X40880000Y11240000D02*
X40880000Y12160000D01*
X40880000Y6960000D02*
X39280000Y6960000D01*
X40880000Y6040000D02*
X40880000Y6960000D01*
G04 #@! TO.C,R4*
X42936359Y7580000D02*
X43243641Y7580000D01*
X42936359Y6820000D02*
X43243641Y6820000D01*
G04 #@! TO.C,L2*
X53003641Y-5620000D02*
X52696359Y-5620000D01*
X53003641Y-6380000D02*
X52696359Y-6380000D01*
G04 #@! TO.C,C7*
X50990000Y-5392164D02*
X50990000Y-5607836D01*
X51710000Y-5392164D02*
X51710000Y-5607836D01*
G04 #@! TO.C,U3*
X44990000Y-2890000D02*
X44990000Y-3365000D01*
X44990000Y-8110000D02*
X44990000Y-7635000D01*
X45465000Y-2890000D02*
X44990000Y-2890000D01*
X45465000Y-8110000D02*
X44990000Y-8110000D01*
X49735000Y-2890000D02*
X50210000Y-2890000D01*
X49735000Y-8110000D02*
X50210000Y-8110000D01*
X50210000Y-2890000D02*
X50210000Y-3365000D01*
G04 #@! TO.C,C2*
X52742164Y-4640000D02*
X52957836Y-4640000D01*
X52742164Y-5360000D02*
X52957836Y-5360000D01*
G04 #@! TO.C,R6*
X50920000Y-2853641D02*
X50920000Y-2546359D01*
X51680000Y-2853641D02*
X51680000Y-2546359D01*
G04 #@! TO.C,J1*
X33785000Y-6260000D02*
X33785000Y-9140000D01*
X35755000Y-5090000D02*
X38255000Y-5090000D01*
X35755000Y-10310000D02*
X38255000Y-10310000D01*
X38255000Y-5090000D02*
X38255000Y-6140000D01*
X38255000Y-6140000D02*
X39245000Y-6140000D01*
X38255000Y-10310000D02*
X38255000Y-9260000D01*
G04 #@! TO.C,C19*
X48442164Y11310000D02*
X48657836Y11310000D01*
X48442164Y10590000D02*
X48657836Y10590000D01*
G04 #@! TO.C,Y1*
X49600000Y-8900000D02*
X45600000Y-8900000D01*
X49600000Y-12200000D02*
X49600000Y-8900000D01*
G04 #@! TO.C,C17*
X44590000Y-10742835D02*
X44590000Y-10527163D01*
X45310000Y-10742835D02*
X45310000Y-10527163D01*
G04 #@! TD*
M02*
