G04 #@! TF.GenerationSoftware,KiCad,Pcbnew,(6.0.11)*
G04 #@! TF.CreationDate,2023-02-01T15:04:08+01:00*
G04 #@! TF.ProjectId,ESP32-C3,45535033-322d-4433-932e-6b696361645f,rev?*
G04 #@! TF.SameCoordinates,Original*
G04 #@! TF.FileFunction,Paste,Top*
G04 #@! TF.FilePolarity,Positive*
%FSLAX46Y46*%
G04 Gerber Fmt 4.6, Leading zero omitted, Abs format (unit mm)*
G04 Created by KiCad (PCBNEW (6.0.11)) date 2023-02-01 15:04:08*
%MOMM*%
%LPD*%
G01*
G04 APERTURE LIST*
G04 Aperture macros list*
%AMRoundRect*
0 Rectangle with rounded corners*
0 $1 Rounding radius*
0 $2 $3 $4 $5 $6 $7 $8 $9 X,Y pos of 4 corners*
0 Add a 4 corners polygon primitive as box body*
4,1,4,$2,$3,$4,$5,$6,$7,$8,$9,$2,$3,0*
0 Add four circle primitives for the rounded corners*
1,1,$1+$1,$2,$3*
1,1,$1+$1,$4,$5*
1,1,$1+$1,$6,$7*
1,1,$1+$1,$8,$9*
0 Add four rect primitives between the rounded corners*
20,1,$1+$1,$2,$3,$4,$5,0*
20,1,$1+$1,$4,$5,$6,$7,0*
20,1,$1+$1,$6,$7,$8,$9,0*
20,1,$1+$1,$8,$9,$2,$3,0*%
G04 Aperture macros list end*
%ADD10C,0.100000*%
%ADD11RoundRect,0.140000X-0.140000X-0.170000X0.140000X-0.170000X0.140000X0.170000X-0.140000X0.170000X0*%
%ADD12RoundRect,0.140000X-0.170000X0.140000X-0.170000X-0.140000X0.170000X-0.140000X0.170000X0.140000X0*%
%ADD13RoundRect,0.135000X0.135000X0.185000X-0.135000X0.185000X-0.135000X-0.185000X0.135000X-0.185000X0*%
%ADD14RoundRect,0.150000X-0.150000X0.512500X-0.150000X-0.512500X0.150000X-0.512500X0.150000X0.512500X0*%
%ADD15RoundRect,0.250000X0.625000X-0.312500X0.625000X0.312500X-0.625000X0.312500X-0.625000X-0.312500X0*%
%ADD16RoundRect,0.218750X0.218750X0.256250X-0.218750X0.256250X-0.218750X-0.256250X0.218750X-0.256250X0*%
%ADD17R,1.140000X0.600000*%
%ADD18R,1.140000X0.300000*%
%ADD19RoundRect,0.150000X0.512500X0.150000X-0.512500X0.150000X-0.512500X-0.150000X0.512500X-0.150000X0*%
%ADD20R,1.000000X1.000000*%
%ADD21RoundRect,0.140000X0.140000X0.170000X-0.140000X0.170000X-0.140000X-0.170000X0.140000X-0.170000X0*%
%ADD22RoundRect,0.135000X0.185000X-0.135000X0.185000X0.135000X-0.185000X0.135000X-0.185000X-0.135000X0*%
%ADD23RoundRect,0.140000X0.170000X-0.140000X0.170000X0.140000X-0.170000X0.140000X-0.170000X-0.140000X0*%
%ADD24RoundRect,0.135000X-0.135000X-0.185000X0.135000X-0.185000X0.135000X0.185000X-0.135000X0.185000X0*%
%ADD25R,0.757199X0.254800*%
%ADD26R,0.254800X0.757199*%
%ADD27R,1.400000X1.200000*%
G04 APERTURE END LIST*
G04 #@! TO.C,U3*
G36*
X18579600Y8450000D02*
G01*
X16900000Y8450000D01*
X16900000Y10129600D01*
X18579600Y10129600D01*
X18579600Y8450000D01*
G37*
D10*
X18579600Y8450000D02*
X16900000Y8450000D01*
X16900000Y10129600D01*
X18579600Y10129600D01*
X18579600Y8450000D01*
G36*
X16700000Y8450000D02*
G01*
X15020400Y8450000D01*
X15020400Y10129600D01*
X16700000Y10129600D01*
X16700000Y8450000D01*
G37*
X16700000Y8450000D02*
X15020400Y8450000D01*
X15020400Y10129600D01*
X16700000Y10129600D01*
X16700000Y8450000D01*
G36*
X16700000Y6570400D02*
G01*
X15020400Y6570400D01*
X15020400Y8250000D01*
X16700000Y8250000D01*
X16700000Y6570400D01*
G37*
X16700000Y6570400D02*
X15020400Y6570400D01*
X15020400Y8250000D01*
X16700000Y8250000D01*
X16700000Y6570400D01*
G36*
X18579600Y6570400D02*
G01*
X16900000Y6570400D01*
X16900000Y8250000D01*
X18579600Y8250000D01*
X18579600Y6570400D01*
G37*
X18579600Y6570400D02*
X16900000Y6570400D01*
X16900000Y8250000D01*
X18579600Y8250000D01*
X18579600Y6570400D01*
G04 #@! TD*
D11*
G04 #@! TO.C,C10*
X15670000Y15150000D03*
X16630000Y15150000D03*
G04 #@! TD*
D12*
G04 #@! TO.C,C3*
X23800000Y6580000D03*
X23800000Y5620000D03*
G04 #@! TD*
D13*
G04 #@! TO.C,R3*
X4410000Y4850000D03*
X3390000Y4850000D03*
G04 #@! TD*
D11*
G04 #@! TO.C,C12*
X19415000Y4600000D03*
X20375000Y4600000D03*
G04 #@! TD*
G04 #@! TO.C,C5*
X16470000Y12100000D03*
X17430000Y12100000D03*
G04 #@! TD*
D14*
G04 #@! TO.C,U4*
X14350000Y15007500D03*
X13400000Y15007500D03*
X12450000Y15007500D03*
X12450000Y12732500D03*
X14350000Y12732500D03*
G04 #@! TD*
D12*
G04 #@! TO.C,C4*
X23550000Y8830000D03*
X23550000Y7870000D03*
G04 #@! TD*
G04 #@! TO.C,C16*
X19415000Y3460000D03*
X19415000Y2500000D03*
G04 #@! TD*
D15*
G04 #@! TO.C,AE1*
X24950000Y14087500D03*
X24950000Y17012500D03*
G04 #@! TD*
D16*
G04 #@! TO.C,D1*
X10437500Y12120000D03*
X8862500Y12120000D03*
G04 #@! TD*
D13*
G04 #@! TO.C,R4*
X9660000Y13600000D03*
X8640000Y13600000D03*
G04 #@! TD*
D12*
G04 #@! TO.C,C11*
X13050000Y8630000D03*
X13050000Y7670000D03*
G04 #@! TD*
G04 #@! TO.C,C6*
X20800000Y6580000D03*
X20800000Y5620000D03*
G04 #@! TD*
D17*
G04 #@! TO.C,U1*
X3730000Y14050000D03*
X3730000Y13250000D03*
D18*
X3730000Y12100000D03*
X3730000Y11100000D03*
X3730000Y10600000D03*
X3730000Y9600000D03*
D17*
X3730000Y8450000D03*
X3730000Y7650000D03*
X3730000Y7650000D03*
X3730000Y8450000D03*
D18*
X3730000Y9100000D03*
X3730000Y10100000D03*
X3730000Y11600000D03*
X3730000Y12600000D03*
D17*
X3730000Y13250000D03*
X3730000Y14050000D03*
G04 #@! TD*
D19*
G04 #@! TO.C,U2*
X9287500Y14920000D03*
X9287500Y15870000D03*
X9287500Y16820000D03*
X7012500Y16820000D03*
X7012500Y14920000D03*
G04 #@! TD*
D20*
G04 #@! TO.C,D3*
X10785000Y18600000D03*
X8285000Y18600000D03*
G04 #@! TD*
D21*
G04 #@! TO.C,C1*
X23530000Y10650000D03*
X22570000Y10650000D03*
G04 #@! TD*
D22*
G04 #@! TO.C,R1*
X21550000Y10190000D03*
X21550000Y11210000D03*
G04 #@! TD*
D13*
G04 #@! TO.C,R7*
X17760000Y16250000D03*
X16740000Y16250000D03*
G04 #@! TD*
D23*
G04 #@! TO.C,C15*
X21550000Y3620000D03*
X21550000Y4580000D03*
G04 #@! TD*
D13*
G04 #@! TO.C,L1*
X22810000Y6600000D03*
X21790000Y6600000D03*
G04 #@! TD*
D20*
G04 #@! TO.C,D2*
X14900000Y16872500D03*
X12400000Y16872500D03*
G04 #@! TD*
D24*
G04 #@! TO.C,R2*
X5340000Y11700000D03*
X6360000Y11700000D03*
G04 #@! TD*
D13*
G04 #@! TO.C,R8*
X17210000Y17250000D03*
X16190000Y17250000D03*
G04 #@! TD*
D23*
G04 #@! TO.C,C8*
X6950000Y18120000D03*
X6950000Y19080000D03*
G04 #@! TD*
D24*
G04 #@! TO.C,R5*
X6590000Y13600000D03*
X7610000Y13600000D03*
G04 #@! TD*
D21*
G04 #@! TO.C,C14*
X13480000Y11300000D03*
X12520000Y11300000D03*
G04 #@! TD*
D23*
G04 #@! TO.C,C13*
X11150000Y13640000D03*
X11150000Y14600000D03*
G04 #@! TD*
D13*
G04 #@! TO.C,L2*
X22560000Y7850000D03*
X21540000Y7850000D03*
G04 #@! TD*
D12*
G04 #@! TO.C,C7*
X20550000Y8830000D03*
X20550000Y7870000D03*
G04 #@! TD*
D25*
G04 #@! TO.C,U3*
X19248700Y6600001D03*
X19248700Y7100000D03*
X19248700Y7599999D03*
X19248700Y8100000D03*
X19248700Y8600000D03*
X19248700Y9100001D03*
X19248700Y9600000D03*
X19248700Y10099999D03*
D26*
X18549999Y10798700D03*
X18050000Y10798700D03*
X17550001Y10798700D03*
X17050000Y10798700D03*
X16550000Y10798700D03*
X16049999Y10798700D03*
X15550000Y10798700D03*
X15050001Y10798700D03*
D25*
X14351300Y10099999D03*
X14351300Y9600000D03*
X14351300Y9100001D03*
X14351300Y8600000D03*
X14351300Y8100000D03*
X14351300Y7599999D03*
X14351300Y7100000D03*
X14351300Y6600001D03*
D26*
X15050001Y5901300D03*
X15550000Y5901300D03*
X16049999Y5901300D03*
X16550000Y5901300D03*
X17050000Y5901300D03*
X17550001Y5901300D03*
X18050000Y5901300D03*
X18549999Y5901300D03*
G04 #@! TD*
D11*
G04 #@! TO.C,C2*
X21570000Y8850000D03*
X22530000Y8850000D03*
G04 #@! TD*
D22*
G04 #@! TO.C,R6*
X20400000Y10590000D03*
X20400000Y11610000D03*
G04 #@! TD*
D12*
G04 #@! TO.C,C9*
X10900000Y16850000D03*
X10900000Y15890000D03*
G04 #@! TD*
D27*
G04 #@! TO.C,Y1*
X17900000Y4150000D03*
X15700000Y4150000D03*
X15700000Y2450000D03*
X17900000Y2450000D03*
G04 #@! TD*
D23*
G04 #@! TO.C,C18*
X15750000Y13170000D03*
X15750000Y14130000D03*
G04 #@! TD*
G04 #@! TO.C,C17*
X14150000Y2735001D03*
X14150000Y3695001D03*
G04 #@! TD*
M02*
