M48
; DRILL file {KiCad 8.0.2} date 2024-05-24T20:41:35+0200
; FORMAT={-:-/ absolute / metric / decimal}
; #@! TF.CreationDate,2024-05-24T20:41:35+02:00
; #@! TF.GenerationSoftware,Kicad,Pcbnew,8.0.2
; #@! TF.FileFunction,MixedPlating,1,2
FMAT,2
METRIC
; #@! TA.AperFunction,Plated,PTH,ViaDrill
T1C0.300
; #@! TA.AperFunction,Plated,PTH,ComponentDrill
T2C0.300
; #@! TA.AperFunction,Plated,PTH,ComponentDrill
T3C0.600
; #@! TA.AperFunction,Plated,PTH,ComponentDrill
T4C0.750
; #@! TA.AperFunction,NonPlated,NPTH,ComponentDrill
T5C0.660
%
G90
G05
T1
X38.7Y-5.7
X40.8Y-11.5
X41.314Y4.8
X41.6Y-11.6
X41.8Y9.5
X41.9Y10.4
X42.2Y-10.9
X42.3Y5.45
X43.0Y4.3
X43.1Y5.4
X43.6Y12.2
X43.6Y6.4
X43.6Y1.65
X43.85Y3.5
X43.85Y2.6
X44.1Y-3.2
X45.0Y-9.3
X45.3Y2.05
X45.4Y-0.15
X45.6Y12.7
X45.8Y8.7
X45.8Y-2.05
X46.0Y6.0
X46.1Y10.6
X46.5Y12.7
X46.5Y3.4
X46.7Y-4.6
X46.7Y-6.3
X46.8Y7.7
X47.4Y-0.9
X48.2Y5.8
X48.4Y-4.6
X48.4Y-6.3
X48.8Y7.4
X48.9Y6.4
X49.0Y11.7
X49.1Y-2.1
X49.7Y7.4
X50.2Y-2.6
X50.65Y-0.95
X50.9Y-11.1
X51.4Y-10.1
X51.7Y-4.3
X52.1Y9.4
X53.1Y-2.2
X53.1Y-4.1
X53.2Y-10.2
X53.9Y11.8
X53.9Y8.3
X54.0Y-8.25
X54.0Y-11.65
X54.4Y-4.4
X54.5Y5.7
X54.5Y2.3
X54.5Y-1.1
X57.9Y14.7
X57.9Y11.3
X57.9Y5.7
X58.2Y7.9
T2
X55.5Y-9.35
T4
X39.42Y10.1
X39.42Y8.1
T5
X38.9Y3.6
X38.9Y-2.18
T3
X35.62Y5.03G85X34.82Y5.03
G05
X35.62Y-3.61G85X34.82Y-3.61
G05
X39.95Y5.03G85X38.85Y5.03
G05
X39.95Y-3.61G85X38.85Y-3.61
G05
M30
