G04 #@! TF.GenerationSoftware,KiCad,Pcbnew,8.0.2*
G04 #@! TF.CreationDate,2024-05-31T00:07:57+02:00*
G04 #@! TF.ProjectId,ESP32-C3,45535033-322d-4433-932e-6b696361645f,rev?*
G04 #@! TF.SameCoordinates,Original*
G04 #@! TF.FileFunction,Copper,L1,Top*
G04 #@! TF.FilePolarity,Positive*
%FSLAX46Y46*%
G04 Gerber Fmt 4.6, Leading zero omitted, Abs format (unit mm)*
G04 Created by KiCad (PCBNEW 8.0.2) date 2024-05-31 00:07:57*
%MOMM*%
%LPD*%
G01*
G04 APERTURE LIST*
G04 Aperture macros list*
%AMRoundRect*
0 Rectangle with rounded corners*
0 $1 Rounding radius*
0 $2 $3 $4 $5 $6 $7 $8 $9 X,Y pos of 4 corners*
0 Add a 4 corners polygon primitive as box body*
4,1,4,$2,$3,$4,$5,$6,$7,$8,$9,$2,$3,0*
0 Add four circle primitives for the rounded corners*
1,1,$1+$1,$2,$3*
1,1,$1+$1,$4,$5*
1,1,$1+$1,$6,$7*
1,1,$1+$1,$8,$9*
0 Add four rect primitives between the rounded corners*
20,1,$1+$1,$2,$3,$4,$5,0*
20,1,$1+$1,$4,$5,$6,$7,0*
20,1,$1+$1,$6,$7,$8,$9,0*
20,1,$1+$1,$8,$9,$2,$3,0*%
G04 Aperture macros list end*
G04 #@! TA.AperFunction,EtchedComponent*
%ADD10C,0.000000*%
G04 #@! TD*
G04 #@! TA.AperFunction,SMDPad,CuDef*
%ADD11RoundRect,0.140000X-0.170000X0.140000X-0.170000X-0.140000X0.170000X-0.140000X0.170000X0.140000X0*%
G04 #@! TD*
G04 #@! TA.AperFunction,SMDPad,CuDef*
%ADD12RoundRect,0.135000X-0.185000X0.135000X-0.185000X-0.135000X0.185000X-0.135000X0.185000X0.135000X0*%
G04 #@! TD*
G04 #@! TA.AperFunction,SMDPad,CuDef*
%ADD13RoundRect,0.140000X-0.140000X-0.170000X0.140000X-0.170000X0.140000X0.170000X-0.140000X0.170000X0*%
G04 #@! TD*
G04 #@! TA.AperFunction,SMDPad,CuDef*
%ADD14RoundRect,0.140000X0.140000X0.170000X-0.140000X0.170000X-0.140000X-0.170000X0.140000X-0.170000X0*%
G04 #@! TD*
G04 #@! TA.AperFunction,SMDPad,CuDef*
%ADD15RoundRect,0.135000X0.185000X-0.135000X0.185000X0.135000X-0.185000X0.135000X-0.185000X-0.135000X0*%
G04 #@! TD*
G04 #@! TA.AperFunction,SMDPad,CuDef*
%ADD16RoundRect,0.218750X-0.218750X-0.256250X0.218750X-0.256250X0.218750X0.256250X-0.218750X0.256250X0*%
G04 #@! TD*
G04 #@! TA.AperFunction,SMDPad,CuDef*
%ADD17RoundRect,0.062500X-0.375000X-0.062500X0.375000X-0.062500X0.375000X0.062500X-0.375000X0.062500X0*%
G04 #@! TD*
G04 #@! TA.AperFunction,SMDPad,CuDef*
%ADD18RoundRect,0.062500X-0.062500X-0.375000X0.062500X-0.375000X0.062500X0.375000X-0.062500X0.375000X0*%
G04 #@! TD*
G04 #@! TA.AperFunction,SMDPad,CuDef*
%ADD19R,1.600000X1.600000*%
G04 #@! TD*
G04 #@! TA.AperFunction,SMDPad,CuDef*
%ADD20RoundRect,0.140000X0.170000X-0.140000X0.170000X0.140000X-0.170000X0.140000X-0.170000X-0.140000X0*%
G04 #@! TD*
G04 #@! TA.AperFunction,SMDPad,CuDef*
%ADD21R,0.600000X0.700000*%
G04 #@! TD*
G04 #@! TA.AperFunction,SMDPad,CuDef*
%ADD22R,1.140000X0.600000*%
G04 #@! TD*
G04 #@! TA.AperFunction,SMDPad,CuDef*
%ADD23R,1.140000X0.300000*%
G04 #@! TD*
G04 #@! TA.AperFunction,ComponentPad*
%ADD24O,2.100000X1.000000*%
G04 #@! TD*
G04 #@! TA.AperFunction,ComponentPad*
%ADD25O,1.800000X1.000000*%
G04 #@! TD*
G04 #@! TA.AperFunction,SMDPad,CuDef*
%ADD26RoundRect,0.135000X0.135000X0.185000X-0.135000X0.185000X-0.135000X-0.185000X0.135000X-0.185000X0*%
G04 #@! TD*
G04 #@! TA.AperFunction,SMDPad,CuDef*
%ADD27RoundRect,0.135000X-0.135000X-0.185000X0.135000X-0.185000X0.135000X0.185000X-0.135000X0.185000X0*%
G04 #@! TD*
G04 #@! TA.AperFunction,SMDPad,CuDef*
%ADD28R,1.500000X1.500000*%
G04 #@! TD*
G04 #@! TA.AperFunction,SMDPad,CuDef*
%ADD29R,1.600000X1.400000*%
G04 #@! TD*
G04 #@! TA.AperFunction,SMDPad,CuDef*
%ADD30RoundRect,0.200000X-0.200000X-0.275000X0.200000X-0.275000X0.200000X0.275000X-0.200000X0.275000X0*%
G04 #@! TD*
G04 #@! TA.AperFunction,ConnectorPad*
%ADD31R,0.500000X0.500000*%
G04 #@! TD*
G04 #@! TA.AperFunction,ComponentPad*
%ADD32R,0.500000X0.900000*%
G04 #@! TD*
G04 #@! TA.AperFunction,ComponentPad*
%ADD33RoundRect,0.250000X-0.625000X0.350000X-0.625000X-0.350000X0.625000X-0.350000X0.625000X0.350000X0*%
G04 #@! TD*
G04 #@! TA.AperFunction,ComponentPad*
%ADD34O,1.750000X1.200000*%
G04 #@! TD*
G04 #@! TA.AperFunction,SMDPad,CuDef*
%ADD35RoundRect,0.062500X0.337500X0.062500X-0.337500X0.062500X-0.337500X-0.062500X0.337500X-0.062500X0*%
G04 #@! TD*
G04 #@! TA.AperFunction,SMDPad,CuDef*
%ADD36RoundRect,0.062500X0.062500X0.337500X-0.062500X0.337500X-0.062500X-0.337500X0.062500X-0.337500X0*%
G04 #@! TD*
G04 #@! TA.AperFunction,SMDPad,CuDef*
%ADD37R,3.700000X3.700000*%
G04 #@! TD*
G04 #@! TA.AperFunction,SMDPad,CuDef*
%ADD38RoundRect,0.150000X-0.625000X0.150000X-0.625000X-0.150000X0.625000X-0.150000X0.625000X0.150000X0*%
G04 #@! TD*
G04 #@! TA.AperFunction,SMDPad,CuDef*
%ADD39RoundRect,0.250000X-0.650000X0.350000X-0.650000X-0.350000X0.650000X-0.350000X0.650000X0.350000X0*%
G04 #@! TD*
G04 #@! TA.AperFunction,SMDPad,CuDef*
%ADD40R,1.400000X1.200000*%
G04 #@! TD*
G04 #@! TA.AperFunction,ViaPad*
%ADD41C,0.500000*%
G04 #@! TD*
G04 #@! TA.AperFunction,Conductor*
%ADD42C,0.350000*%
G04 #@! TD*
G04 #@! TA.AperFunction,Conductor*
%ADD43C,0.200000*%
G04 #@! TD*
G04 #@! TA.AperFunction,Conductor*
%ADD44C,0.150000*%
G04 #@! TD*
G04 #@! TA.AperFunction,Conductor*
%ADD45C,0.500000*%
G04 #@! TD*
G04 #@! TA.AperFunction,Conductor*
%ADD46C,0.250000*%
G04 #@! TD*
G04 APERTURE END LIST*
D10*
G04 #@! TA.AperFunction,EtchedComponent*
G04 #@! TO.C,AE1*
G36*
X60650000Y1900000D02*
G01*
X58010000Y1900000D01*
X58010000Y-100000D01*
X60650000Y-100000D01*
X60650000Y-2800000D01*
X58010000Y-2800000D01*
X58010000Y-4800000D01*
X60650000Y-4800000D01*
X60650000Y-9800000D01*
X55493215Y-9800000D01*
X55250000Y-9800000D01*
X55250000Y-9375156D01*
X55353957Y-9375156D01*
X55366065Y-9417819D01*
X55370419Y-9425731D01*
X55403203Y-9463674D01*
X55445605Y-9487742D01*
X55493215Y-9497583D01*
X55541622Y-9492847D01*
X55586416Y-9473185D01*
X55623186Y-9438245D01*
X55640092Y-9405353D01*
X55647982Y-9357267D01*
X55641408Y-9307682D01*
X55621313Y-9262372D01*
X55588643Y-9227112D01*
X55556417Y-9210218D01*
X55508158Y-9201778D01*
X55458632Y-9208309D01*
X55413447Y-9228868D01*
X55378213Y-9262511D01*
X55367600Y-9281122D01*
X55354700Y-9326637D01*
X55353957Y-9375156D01*
X55250000Y-9375156D01*
X55250000Y-8900000D01*
X60150000Y-8900000D01*
X60150000Y-7500000D01*
X55250000Y-7500000D01*
X55250000Y-7000000D01*
X60150000Y-7000000D01*
X60150000Y-5300000D01*
X57510000Y-5300000D01*
X57510000Y-2300000D01*
X60150000Y-2300000D01*
X60150000Y-600000D01*
X57510000Y-600000D01*
X57510000Y2400000D01*
X60150000Y2400000D01*
X60150000Y4100000D01*
X56210000Y4100000D01*
X56210000Y4600000D01*
X60650000Y4600000D01*
X60650000Y1900000D01*
G37*
G04 #@! TD.AperFunction*
G04 #@! TD*
D11*
G04 #@! TO.P,C3,1*
G04 #@! TO.N,Net-(AE1-A)*
X54600000Y-7270000D03*
G04 #@! TO.P,C3,2*
G04 #@! TO.N,GND*
X54600000Y-8230000D03*
G04 #@! TD*
D12*
G04 #@! TO.P,R3,1*
G04 #@! TO.N,Net-(U1-CC2)*
X41300000Y-2190000D03*
G04 #@! TO.P,R3,2*
G04 #@! TO.N,GND*
X41300000Y-3210000D03*
G04 #@! TD*
D13*
G04 #@! TO.P,C12,1*
G04 #@! TO.N,+3.3V*
X50215000Y-9250000D03*
G04 #@! TO.P,C12,2*
G04 #@! TO.N,GND*
X51175000Y-9250000D03*
G04 #@! TD*
D14*
G04 #@! TO.P,C5,1*
G04 #@! TO.N,GND*
X49180000Y-1300000D03*
G04 #@! TO.P,C5,2*
G04 #@! TO.N,+3.3V*
X48220000Y-1300000D03*
G04 #@! TD*
D15*
G04 #@! TO.P,R18,1*
G04 #@! TO.N,Net-(U2-ISET)*
X45300000Y10880000D03*
G04 #@! TO.P,R18,2*
G04 #@! TO.N,GND*
X45300000Y11900000D03*
G04 #@! TD*
D16*
G04 #@! TO.P,D5,1,K*
G04 #@! TO.N,NCHG*
X41112500Y13900000D03*
G04 #@! TO.P,D5,2,A*
G04 #@! TO.N,Net-(D5-A)*
X42687500Y13900000D03*
G04 #@! TD*
D15*
G04 #@! TO.P,R16,1*
G04 #@! TO.N,GND*
X45800000Y4440000D03*
G04 #@! TO.P,R16,2*
G04 #@! TO.N,EN1*
X45800000Y5460000D03*
G04 #@! TD*
D17*
G04 #@! TO.P,U2,1,TS*
G04 #@! TO.N,Net-(U2-TS)*
X44862500Y8950000D03*
G04 #@! TO.P,U2,2,BAT*
G04 #@! TO.N,+BATT*
X44862500Y8450000D03*
G04 #@! TO.P,U2,3,BAT*
X44862500Y7950000D03*
G04 #@! TO.P,U2,4,~{CE}*
G04 #@! TO.N,NCE*
X44862500Y7450000D03*
D18*
G04 #@! TO.P,U2,5,EN2*
G04 #@! TO.N,EN2*
X45550000Y6762500D03*
G04 #@! TO.P,U2,6,EN1*
G04 #@! TO.N,EN1*
X46050000Y6762500D03*
G04 #@! TO.P,U2,7,~{PGOOD}*
G04 #@! TO.N,NPGOOD*
X46550000Y6762500D03*
G04 #@! TO.P,U2,8,VSS*
G04 #@! TO.N,GND*
X47050000Y6762500D03*
D17*
G04 #@! TO.P,U2,9,~{CHG}*
G04 #@! TO.N,NCHG*
X47737500Y7450000D03*
G04 #@! TO.P,U2,10,OUT*
G04 #@! TO.N,+3.3V*
X47737500Y7950000D03*
G04 #@! TO.P,U2,11,OUT*
X47737500Y8450000D03*
G04 #@! TO.P,U2,12,ILIM*
G04 #@! TO.N,Net-(U2-ILIM)*
X47737500Y8950000D03*
D18*
G04 #@! TO.P,U2,13,IN*
G04 #@! TO.N,VCC*
X47050000Y9637500D03*
G04 #@! TO.P,U2,14,TMR*
G04 #@! TO.N,TMR*
X46550000Y9637500D03*
G04 #@! TO.P,U2,15,TD*
G04 #@! TO.N,TD*
X46050000Y9637500D03*
G04 #@! TO.P,U2,16,ISET*
G04 #@! TO.N,Net-(U2-ISET)*
X45550000Y9637500D03*
D19*
G04 #@! TO.P,U2,17,VSS*
G04 #@! TO.N,GND*
X46300000Y8200000D03*
G04 #@! TD*
D15*
G04 #@! TO.P,R10,1*
G04 #@! TO.N,Net-(D4-A)*
X39150000Y13390000D03*
G04 #@! TO.P,R10,2*
G04 #@! TO.N,+3.3V*
X39150000Y14410000D03*
G04 #@! TD*
D11*
G04 #@! TO.P,C4,1*
G04 #@! TO.N,GND*
X54350000Y-5020000D03*
G04 #@! TO.P,C4,2*
G04 #@! TO.N,+3.3V*
X54350000Y-5980000D03*
G04 #@! TD*
G04 #@! TO.P,C16,1*
G04 #@! TO.N,Net-(U3-XTAL_P)*
X50215000Y-10390000D03*
G04 #@! TO.P,C16,2*
G04 #@! TO.N,GND*
X50215000Y-11350000D03*
G04 #@! TD*
D20*
G04 #@! TO.P,C11,1*
G04 #@! TO.N,+3.3V*
X44100000Y-1830000D03*
G04 #@! TO.P,C11,2*
G04 #@! TO.N,GND*
X44100000Y-870000D03*
G04 #@! TD*
D12*
G04 #@! TO.P,R5,1*
G04 #@! TO.N,GND*
X46900000Y11930000D03*
G04 #@! TO.P,R5,2*
G04 #@! TO.N,TMR*
X46900000Y10910000D03*
G04 #@! TD*
D21*
G04 #@! TO.P,D1,1,RK*
G04 #@! TO.N,Net-(D1-RK)*
X50200000Y2200000D03*
G04 #@! TO.P,D1,2,A*
G04 #@! TO.N,+3.3V*
X48800000Y2200000D03*
G04 #@! TO.P,D1,3,BK*
G04 #@! TO.N,Net-(D1-BK)*
X50200000Y3200000D03*
G04 #@! TO.P,D1,4,GK*
G04 #@! TO.N,Net-(D1-GK)*
X48800000Y3200000D03*
G04 #@! TD*
D11*
G04 #@! TO.P,C6,1*
G04 #@! TO.N,Net-(U3-LNA_IN)*
X51600000Y-7270000D03*
G04 #@! TO.P,C6,2*
G04 #@! TO.N,GND*
X51600000Y-8230000D03*
G04 #@! TD*
D22*
G04 #@! TO.P,U1,A1,GND*
G04 #@! TO.N,GND*
X39970000Y3910000D03*
G04 #@! TO.P,U1,A4,VBUS*
G04 #@! TO.N,VCC*
X39970000Y3110000D03*
D23*
G04 #@! TO.P,U1,A5,CC1*
G04 #@! TO.N,Net-(U1-CC1)*
X39970000Y1960000D03*
G04 #@! TO.P,U1,A6,D+*
G04 #@! TO.N,USB_D+*
X39970000Y960000D03*
G04 #@! TO.P,U1,A7,D-*
G04 #@! TO.N,USB_D-*
X39970000Y460000D03*
G04 #@! TO.P,U1,A8,SBU1*
G04 #@! TO.N,unconnected-(U1-SBU1-PadA8)*
X39970000Y-540000D03*
D22*
G04 #@! TO.P,U1,A9,VBUS*
G04 #@! TO.N,VCC*
X39970000Y-1690000D03*
G04 #@! TO.P,U1,A12,GND*
G04 #@! TO.N,GND*
X39970000Y-2490000D03*
G04 #@! TO.P,U1,B1,GND*
X39970000Y-2490000D03*
G04 #@! TO.P,U1,B4,VBUS*
G04 #@! TO.N,VCC*
X39970000Y-1690000D03*
D23*
G04 #@! TO.P,U1,B5,CC2*
G04 #@! TO.N,Net-(U1-CC2)*
X39970000Y-1040000D03*
G04 #@! TO.P,U1,B6,D+*
G04 #@! TO.N,USB_D+*
X39970000Y-40000D03*
G04 #@! TO.P,U1,B7,D-*
G04 #@! TO.N,USB_D-*
X39970000Y1460000D03*
G04 #@! TO.P,U1,B8,SBU2*
G04 #@! TO.N,unconnected-(U1-SBU2-PadB8)*
X39970000Y2460000D03*
D22*
G04 #@! TO.P,U1,B9,VBUS*
G04 #@! TO.N,VCC*
X39970000Y3110000D03*
G04 #@! TO.P,U1,B12,GND*
G04 #@! TO.N,GND*
X39970000Y3910000D03*
D24*
G04 #@! TO.P,U1,S1,SHIELD*
X39400000Y5030000D03*
D25*
X35220000Y5030000D03*
D24*
X39400000Y-3610000D03*
D25*
X35220000Y-3610000D03*
G04 #@! TD*
D15*
G04 #@! TO.P,R9,1*
G04 #@! TO.N,Net-(D5-A)*
X44150000Y13390000D03*
G04 #@! TO.P,R9,2*
G04 #@! TO.N,+3.3V*
X44150000Y14410000D03*
G04 #@! TD*
D26*
G04 #@! TO.P,R11,1*
G04 #@! TO.N,Net-(U2-TS)*
X43610000Y9800000D03*
G04 #@! TO.P,R11,2*
G04 #@! TO.N,GND*
X42590000Y9800000D03*
G04 #@! TD*
D27*
G04 #@! TO.P,R21,1*
G04 #@! TO.N,Rot*
X49190000Y1000000D03*
G04 #@! TO.P,R21,2*
G04 #@! TO.N,Net-(D1-RK)*
X50210000Y1000000D03*
G04 #@! TD*
D28*
G04 #@! TO.P,SW1,1,1*
G04 #@! TO.N,GND*
X52400000Y14500000D03*
D29*
X58400000Y14500000D03*
G04 #@! TO.P,SW1,2,2*
G04 #@! TO.N,EXTI*
X52400000Y11500000D03*
X58400000Y11500000D03*
G04 #@! TD*
D15*
G04 #@! TO.P,R19,1*
G04 #@! TO.N,Blau*
X51400000Y2290000D03*
G04 #@! TO.P,R19,2*
G04 #@! TO.N,Net-(D1-BK)*
X51400000Y3310000D03*
G04 #@! TD*
D14*
G04 #@! TO.P,C1,1*
G04 #@! TO.N,GND*
X54330000Y-3200000D03*
G04 #@! TO.P,C1,2*
G04 #@! TO.N,EXTI*
X53370000Y-3200000D03*
G04 #@! TD*
D13*
G04 #@! TO.P,C20,1*
G04 #@! TO.N,+3.3V*
X48900000Y8200000D03*
G04 #@! TO.P,C20,2*
G04 #@! TO.N,GND*
X49860000Y8200000D03*
G04 #@! TD*
D26*
G04 #@! TO.P,R14,1*
G04 #@! TO.N,Gr\u00FCn*
X49910000Y4400000D03*
G04 #@! TO.P,R14,2*
G04 #@! TO.N,Net-(D1-GK)*
X48890000Y4400000D03*
G04 #@! TD*
D15*
G04 #@! TO.P,R1,1*
G04 #@! TO.N,EXTI*
X52350000Y-3210000D03*
G04 #@! TO.P,R1,2*
G04 #@! TO.N,+3.3V*
X52350000Y-2190000D03*
G04 #@! TD*
G04 #@! TO.P,R7,1*
G04 #@! TO.N,MCU_SCL*
X40400000Y-7910000D03*
G04 #@! TO.P,R7,2*
G04 #@! TO.N,+3.3V*
X40400000Y-6890000D03*
G04 #@! TD*
D20*
G04 #@! TO.P,C15,1*
G04 #@! TO.N,+3.3V*
X52350000Y-10230000D03*
G04 #@! TO.P,C15,2*
G04 #@! TO.N,GND*
X52350000Y-9270000D03*
G04 #@! TD*
D26*
G04 #@! TO.P,L1,1,1*
G04 #@! TO.N,Net-(AE1-A)*
X53610000Y-7250000D03*
G04 #@! TO.P,L1,2,2*
G04 #@! TO.N,Net-(U3-LNA_IN)*
X52590000Y-7250000D03*
G04 #@! TD*
D16*
G04 #@! TO.P,D4,1,K*
G04 #@! TO.N,NPGOOD*
X36112500Y13900000D03*
G04 #@! TO.P,D4,2,A*
G04 #@! TO.N,Net-(D4-A)*
X37687500Y13900000D03*
G04 #@! TD*
D15*
G04 #@! TO.P,R2,1*
G04 #@! TO.N,Net-(U1-CC1)*
X41550000Y2190000D03*
G04 #@! TO.P,R2,2*
G04 #@! TO.N,GND*
X41550000Y3210000D03*
G04 #@! TD*
D30*
G04 #@! TO.P,R15,1*
G04 #@! TO.N,Net-(U2-ILIM)*
X49125000Y9450000D03*
G04 #@! TO.P,R15,2*
G04 #@! TO.N,GND*
X50775000Y9450000D03*
G04 #@! TD*
D12*
G04 #@! TO.P,R8,1*
G04 #@! TO.N,MCU_SDA*
X40400000Y-9390000D03*
G04 #@! TO.P,R8,2*
G04 #@! TO.N,+3.3V*
X40400000Y-10410000D03*
G04 #@! TD*
D26*
G04 #@! TO.P,R17,1*
G04 #@! TO.N,EN2*
X44810000Y5400000D03*
G04 #@! TO.P,R17,2*
G04 #@! TO.N,+3.3V*
X43790000Y5400000D03*
G04 #@! TD*
D28*
G04 #@! TO.P,SW2,1,1*
G04 #@! TO.N,GND*
X58400000Y6200000D03*
D29*
X52400000Y6200000D03*
G04 #@! TO.P,SW2,2,2*
G04 #@! TO.N,Net-(U3-GPIO9)*
X58400000Y9200000D03*
X52400000Y9200000D03*
G04 #@! TD*
D31*
G04 #@! TO.P,AE1,1,A*
G04 #@! TO.N,Net-(AE1-A)*
X55500000Y-7250000D03*
D32*
G04 #@! TO.P,AE1,2,GND*
G04 #@! TO.N,GND*
X55500000Y-9350000D03*
G04 #@! TD*
D14*
G04 #@! TO.P,C21,1*
G04 #@! TO.N,+BATT*
X43590000Y8200000D03*
G04 #@! TO.P,C21,2*
G04 #@! TO.N,GND*
X42630000Y8200000D03*
G04 #@! TD*
D20*
G04 #@! TO.P,C14,1*
G04 #@! TO.N,+3.3V*
X45100000Y-1830000D03*
G04 #@! TO.P,C14,2*
G04 #@! TO.N,GND*
X45100000Y-870000D03*
G04 #@! TD*
D33*
G04 #@! TO.P,J2,1,Pin_1*
G04 #@! TO.N,+BATT*
X39420000Y10100000D03*
D34*
G04 #@! TO.P,J2,2,Pin_2*
G04 #@! TO.N,GND*
X39420000Y8100000D03*
G04 #@! TD*
D27*
G04 #@! TO.P,R4,1*
G04 #@! TO.N,GND*
X42580000Y7200000D03*
G04 #@! TO.P,R4,2*
G04 #@! TO.N,NCE*
X43600000Y7200000D03*
G04 #@! TD*
D26*
G04 #@! TO.P,L2,1,1*
G04 #@! TO.N,+3.3V*
X53360000Y-6000000D03*
G04 #@! TO.P,L2,2,2*
G04 #@! TO.N,Net-(C7-Pad2)*
X52340000Y-6000000D03*
G04 #@! TD*
D11*
G04 #@! TO.P,C7,1*
G04 #@! TO.N,GND*
X51350000Y-5020000D03*
G04 #@! TO.P,C7,2*
G04 #@! TO.N,Net-(C7-Pad2)*
X51350000Y-5980000D03*
G04 #@! TD*
D35*
G04 #@! TO.P,U3,1,LNA_IN*
G04 #@! TO.N,Net-(U3-LNA_IN)*
X50050000Y-7250000D03*
G04 #@! TO.P,U3,2,VDD3P3*
G04 #@! TO.N,Net-(C7-Pad2)*
X50050000Y-6750000D03*
G04 #@! TO.P,U3,3,VDD3P3*
X50050000Y-6250000D03*
G04 #@! TO.P,U3,4,XTAL_32K_P*
G04 #@! TO.N,unconnected-(U3-XTAL_32K_P-Pad4)*
X50050000Y-5750000D03*
G04 #@! TO.P,U3,5,XTAL_32K_N*
G04 #@! TO.N,unconnected-(U3-XTAL_32K_N-Pad5)*
X50050000Y-5250000D03*
G04 #@! TO.P,U3,6,GPIO2*
G04 #@! TO.N,EXTI*
X50050000Y-4750000D03*
G04 #@! TO.P,U3,7,CHIP_EN*
G04 #@! TO.N,CHIP_EN*
X50050000Y-4250000D03*
G04 #@! TO.P,U3,8,GPIO3*
G04 #@! TO.N,unconnected-(U3-GPIO3-Pad8)*
X50050000Y-3750000D03*
D36*
G04 #@! TO.P,U3,9,MTMS*
G04 #@! TO.N,MCU_SCL*
X49350000Y-3050000D03*
G04 #@! TO.P,U3,10,MTDI*
G04 #@! TO.N,MCU_SDA*
X48850000Y-3050000D03*
G04 #@! TO.P,U3,11,VDD3P3_RTC*
G04 #@! TO.N,+3.3V*
X48350000Y-3050000D03*
G04 #@! TO.P,U3,12,MTCK*
G04 #@! TO.N,unconnected-(U3-MTCK-Pad12)*
X47850000Y-3050000D03*
G04 #@! TO.P,U3,13,MTDO*
G04 #@! TO.N,NCE*
X47350000Y-3050000D03*
G04 #@! TO.P,U3,14,GPIO8*
G04 #@! TO.N,TD*
X46850000Y-3050000D03*
G04 #@! TO.P,U3,15,GPIO9*
G04 #@! TO.N,Net-(U3-GPIO9)*
X46350000Y-3050000D03*
G04 #@! TO.P,U3,16,GPIO10*
G04 #@! TO.N,TMR*
X45850000Y-3050000D03*
D35*
G04 #@! TO.P,U3,17,VDD3P3_CPU*
G04 #@! TO.N,+3.3V*
X45150000Y-3750000D03*
G04 #@! TO.P,U3,18,VDD_SPI*
G04 #@! TO.N,Rot*
X45150000Y-4250000D03*
G04 #@! TO.P,U3,19,SPIHD*
G04 #@! TO.N,NPGOOD*
X45150000Y-4750000D03*
G04 #@! TO.P,U3,20,SPIWP*
G04 #@! TO.N,NCHG*
X45150000Y-5250000D03*
G04 #@! TO.P,U3,21,SPICS0*
G04 #@! TO.N,EN2*
X45150000Y-5750000D03*
G04 #@! TO.P,U3,22,SPICLK*
G04 #@! TO.N,EN1*
X45150000Y-6250000D03*
G04 #@! TO.P,U3,23,SPID*
G04 #@! TO.N,Blau*
X45150000Y-6750000D03*
G04 #@! TO.P,U3,24,SPIQ*
G04 #@! TO.N,Gr\u00FCn*
X45150000Y-7250000D03*
D36*
G04 #@! TO.P,U3,25,GPIO18*
G04 #@! TO.N,USB_D-*
X45850000Y-7950000D03*
G04 #@! TO.P,U3,26,GPIO19*
G04 #@! TO.N,USB_D+*
X46350000Y-7950000D03*
G04 #@! TO.P,U3,27,U0RXD*
G04 #@! TO.N,unconnected-(U3-U0RXD-Pad27)*
X46850000Y-7950000D03*
G04 #@! TO.P,U3,28,U0TXD*
G04 #@! TO.N,unconnected-(U3-U0TXD-Pad28)*
X47350000Y-7950000D03*
G04 #@! TO.P,U3,29,XTAL_N*
G04 #@! TO.N,Net-(U3-XTAL_N)*
X47850000Y-7950000D03*
G04 #@! TO.P,U3,30,XTAL_P*
G04 #@! TO.N,Net-(U3-XTAL_P)*
X48350000Y-7950000D03*
G04 #@! TO.P,U3,31,VDDA*
G04 #@! TO.N,+3.3V*
X48850000Y-7950000D03*
G04 #@! TO.P,U3,32,VDDA*
X49350000Y-7950000D03*
D37*
G04 #@! TO.P,U3,33,GND*
G04 #@! TO.N,GND*
X47600000Y-5500000D03*
G04 #@! TD*
D13*
G04 #@! TO.P,C2,1*
G04 #@! TO.N,GND*
X52370000Y-5000000D03*
G04 #@! TO.P,C2,2*
G04 #@! TO.N,+3.3V*
X53330000Y-5000000D03*
G04 #@! TD*
D15*
G04 #@! TO.P,R6,1*
G04 #@! TO.N,CHIP_EN*
X51300000Y-3210000D03*
G04 #@! TO.P,R6,2*
G04 #@! TO.N,+3.3V*
X51300000Y-2190000D03*
G04 #@! TD*
D38*
G04 #@! TO.P,J1,1,Pin_1*
G04 #@! TO.N,GND*
X38470000Y-6700000D03*
G04 #@! TO.P,J1,2,Pin_2*
G04 #@! TO.N,MCU_SCL*
X38470000Y-7700000D03*
G04 #@! TO.P,J1,3,Pin_3*
G04 #@! TO.N,MCU_SDA*
X38470000Y-8700000D03*
D39*
G04 #@! TO.P,J1,MP,MP*
G04 #@! TO.N,+3.3V*
X34595000Y-5400000D03*
X34595000Y-10000000D03*
G04 #@! TD*
D13*
G04 #@! TO.P,C19,1*
G04 #@! TO.N,VCC*
X48070000Y10950000D03*
G04 #@! TO.P,C19,2*
G04 #@! TO.N,GND*
X49030000Y10950000D03*
G04 #@! TD*
D40*
G04 #@! TO.P,Y1,1,OSC1*
G04 #@! TO.N,Net-(U3-XTAL_P)*
X48700000Y-9700000D03*
G04 #@! TO.P,Y1,2,GND*
G04 #@! TO.N,GND*
X46500000Y-9700000D03*
G04 #@! TO.P,Y1,3,OSC2*
G04 #@! TO.N,Net-(U3-XTAL_N)*
X46500000Y-11400000D03*
G04 #@! TO.P,Y1,4,GND*
G04 #@! TO.N,GND*
X48700000Y-11400000D03*
G04 #@! TD*
D20*
G04 #@! TO.P,C17,1*
G04 #@! TO.N,Net-(U3-XTAL_N)*
X44950000Y-11114999D03*
G04 #@! TO.P,C17,2*
G04 #@! TO.N,GND*
X44950000Y-10154999D03*
G04 #@! TD*
D41*
G04 #@! TO.N,GND*
X33700000Y9100000D03*
X50900000Y8500000D03*
X42600000Y10600000D03*
X54000000Y-11650000D03*
X45800000Y8700000D03*
X51600000Y7300000D03*
X46700000Y-6300000D03*
X57900000Y12700000D03*
X54400000Y-4400000D03*
X38700000Y-5700000D03*
X33700000Y2300000D03*
X46700000Y-4600000D03*
X54500000Y2300000D03*
X60550000Y11000000D03*
X48400000Y-4600000D03*
X45400000Y-150000D03*
X49700000Y7400000D03*
X51100000Y14700000D03*
X33700000Y12500000D03*
X54000000Y-9900000D03*
X50850000Y-10950000D03*
X51700000Y-4300000D03*
X33700000Y5700000D03*
X54500000Y-1100000D03*
X57240000Y-11650000D03*
X60550000Y8350000D03*
X54500000Y5700000D03*
X48400000Y-6300000D03*
X60550000Y5700000D03*
X46500000Y12700000D03*
X33700000Y-1100000D03*
X45000000Y-9300000D03*
X49000000Y11700000D03*
X48900000Y-2000000D03*
X45600000Y12700000D03*
X46800000Y7700000D03*
X54500000Y14700000D03*
X51600000Y-10600000D03*
X54000000Y-8250000D03*
G04 #@! TO.N,NPGOOD*
X43600000Y1650000D03*
X41313629Y4800000D03*
G04 #@! TO.N,NCHG*
X43700000Y-3400000D03*
X50650000Y-950000D03*
G04 #@! TO.N,+3.3V*
X53100000Y-2200000D03*
X40800000Y-11500000D03*
X53100000Y-4100000D03*
X48900000Y6400000D03*
X45800000Y-2050000D03*
X43100000Y5400000D03*
X43000000Y4300000D03*
X53000000Y-10200000D03*
X48800000Y7400000D03*
G04 #@! TO.N,MCU_SCL*
X50300000Y-2900000D03*
X42200000Y-10900000D03*
G04 #@! TO.N,NCE*
X44900000Y6600000D03*
X47600000Y2500000D03*
G04 #@! TO.N,Net-(U3-GPIO9)*
X52085876Y-214124D03*
X46600000Y-300000D03*
X52900000Y7800000D03*
X53900000Y7800000D03*
G04 #@! TO.N,TMR*
X44700000Y3500000D03*
X41400000Y5800000D03*
G04 #@! TO.N,EN1*
X46500000Y3400000D03*
X46000000Y6000000D03*
G04 #@! TO.N,EN2*
X42300000Y5450000D03*
X43850000Y2600000D03*
G04 #@! TO.N,TD*
X46100000Y10600000D03*
X48200000Y5800000D03*
G04 #@! TO.N,MCU_SDA*
X41600000Y-11600000D03*
X50200000Y-2100000D03*
G04 #@! TO.N,Gr\u00FCn*
X43200000Y-7000000D03*
X51000000Y200000D03*
G04 #@! TO.N,Blau*
X49500000Y100000D03*
X43100000Y-6100000D03*
G04 #@! TO.N,Rot*
X44400000Y-4200000D03*
X48700000Y-100000D03*
G04 #@! TD*
D42*
G04 #@! TO.N,GND*
X49030000Y10950000D02*
X49030000Y11670000D01*
D43*
X49180000Y-1300000D02*
X49180000Y-1720000D01*
D42*
X54400000Y-4400000D02*
X54400000Y-3270000D01*
X54000000Y-8250000D02*
X54020000Y-8230000D01*
X50450000Y-11350000D02*
X50215000Y-11350000D01*
X45404999Y-9700000D02*
X44950000Y-10154999D01*
X42590000Y10590000D02*
X42600000Y10600000D01*
X45300000Y12400000D02*
X45600000Y12700000D01*
X45300000Y11900000D02*
X45300000Y12400000D01*
X42630000Y8200000D02*
X42630000Y7250000D01*
X50900000Y8500000D02*
X50900000Y9325000D01*
X38470000Y-5930000D02*
X38700000Y-5700000D01*
X54400000Y-4400000D02*
X54350000Y-4450000D01*
X46700000Y7600000D02*
X46800000Y7700000D01*
X46700000Y11930000D02*
X46700000Y12500000D01*
X42590000Y9800000D02*
X42590000Y10590000D01*
D43*
X49180000Y-1300000D02*
X49180000Y-1620000D01*
D42*
X42530000Y8100000D02*
X42630000Y8200000D01*
X54600000Y-8230000D02*
X51600000Y-8230000D01*
D44*
X44400000Y-870000D02*
X44680000Y-870000D01*
D42*
X50850000Y-10950000D02*
X50450000Y-11350000D01*
X47050000Y5319670D02*
X47050000Y6762500D01*
X49030000Y11670000D02*
X49000000Y11700000D01*
X46800000Y7700000D02*
X46700000Y7800000D01*
X54020000Y-8230000D02*
X54600000Y-8230000D01*
D43*
X41300000Y-3210000D02*
X40690000Y-3210000D01*
D42*
X51700000Y-4300000D02*
X51700000Y-4330000D01*
X52350000Y-9270000D02*
X51195000Y-9270000D01*
X45400000Y-9700000D02*
X45000000Y-9300000D01*
D44*
X41600000Y3160000D02*
X40850000Y3910000D01*
D42*
X39420000Y5050000D02*
X39400000Y5030000D01*
X51195000Y-9270000D02*
X51175000Y-9250000D01*
X50900000Y9325000D02*
X50775000Y9450000D01*
X42630000Y7250000D02*
X42580000Y7200000D01*
D44*
X45400000Y-870000D02*
X45400000Y-150000D01*
D42*
X45800000Y4440000D02*
X46170330Y4440000D01*
X47050000Y7199999D02*
X46700000Y7549999D01*
X49860000Y8200000D02*
X49860000Y7560000D01*
X51600000Y6800000D02*
X52400000Y6000000D01*
D44*
X40850000Y3910000D02*
X39970000Y3910000D01*
D42*
X51350000Y-4650000D02*
X51350000Y-5020000D01*
X46500000Y-9700000D02*
X45404999Y-9700000D01*
X46700000Y12500000D02*
X46500000Y12700000D01*
X39400000Y-3060000D02*
X39970000Y-2490000D01*
X54400000Y-3270000D02*
X54330000Y-3200000D01*
X52350000Y-9270000D02*
X52350000Y-8980000D01*
X39400000Y5030000D02*
X39400000Y4480000D01*
X46700000Y7800000D02*
X46700000Y7900000D01*
X38470000Y-6700000D02*
X38470000Y-5930000D01*
X52350000Y-8980000D02*
X51600000Y-8230000D01*
X47050000Y6762500D02*
X47050000Y7199999D01*
X39420000Y8100000D02*
X42530000Y8100000D01*
X49860000Y7560000D02*
X49700000Y7400000D01*
D43*
X49180000Y-1720000D02*
X48900000Y-2000000D01*
D42*
X51600000Y7300000D02*
X51600000Y6800000D01*
X46500000Y-9700000D02*
X45400000Y-9700000D01*
X51700000Y-4300000D02*
X51350000Y-4650000D01*
X54350000Y-4450000D02*
X54350000Y-5020000D01*
X46170330Y4440000D02*
X47050000Y5319670D01*
X48700000Y-11400000D02*
X50165000Y-11400000D01*
X39400000Y-3610000D02*
X39400000Y-3060000D01*
X46700000Y7549999D02*
X46700000Y7600000D01*
D44*
X44680000Y-870000D02*
X45400000Y-150000D01*
D42*
X50165000Y-11400000D02*
X50215000Y-11350000D01*
D43*
X40690000Y-3210000D02*
X39970000Y-2490000D01*
D42*
X51700000Y-4330000D02*
X52370000Y-5000000D01*
D44*
X41800000Y3160000D02*
X41600000Y3160000D01*
D42*
X39400000Y4480000D02*
X39970000Y3910000D01*
D43*
G04 #@! TO.N,EXTI*
X50810000Y-4750000D02*
X50810000Y-4482893D01*
X52350000Y-3210000D02*
X53360000Y-3210000D01*
X53307107Y-2700000D02*
X53600000Y-2407107D01*
X51492893Y-3800000D02*
X51760000Y-3800000D01*
X53400000Y-1792893D02*
X53400000Y10500000D01*
X53600000Y-1992893D02*
X53400000Y-1792893D01*
X53360000Y-3210000D02*
X53370000Y-3200000D01*
X53307107Y-3137107D02*
X53307107Y-2700000D01*
X57900000Y11500000D02*
X58400000Y11000000D01*
X53600000Y-2407107D02*
X53600000Y-1992893D01*
X50050000Y-4750000D02*
X50810000Y-4750000D01*
X53400000Y10500000D02*
X52400000Y11500000D01*
X50810000Y-4482893D02*
X51492893Y-3800000D01*
X51760000Y-3800000D02*
X52350000Y-3210000D01*
X53370000Y-3200000D02*
X53307107Y-3137107D01*
X52400000Y11500000D02*
X57900000Y11500000D01*
D45*
G04 #@! TO.N,Net-(AE1-A)*
X55500000Y-7250000D02*
X54620000Y-7250000D01*
D44*
X54580000Y-7250000D02*
X54600000Y-7270000D01*
D45*
X53610000Y-7250000D02*
X54580000Y-7250000D01*
D44*
X54620000Y-7250000D02*
X54600000Y-7270000D01*
G04 #@! TO.N,Net-(U3-LNA_IN)*
X52570000Y-7270000D02*
X52590000Y-7250000D01*
D45*
X51600000Y-7270000D02*
X52570000Y-7270000D01*
D44*
X51580000Y-7250000D02*
X51600000Y-7270000D01*
D46*
X50050000Y-7250000D02*
X51580000Y-7250000D01*
D43*
G04 #@! TO.N,Net-(C7-Pad2)*
X51080000Y-6250000D02*
X51350000Y-5980000D01*
X50050000Y-6750000D02*
X50050000Y-6250000D01*
X51350000Y-5980000D02*
X52320000Y-5980000D01*
X52320000Y-5980000D02*
X52340000Y-6000000D01*
X50050000Y-6250000D02*
X51080000Y-6250000D01*
D42*
G04 #@! TO.N,VCC*
X35683170Y14650000D02*
X36691830Y14650000D01*
X38500000Y-712269D02*
X38500000Y2132269D01*
X45250000Y13275000D02*
X46825000Y13275000D01*
X36900000Y14441830D02*
X36900000Y13200000D01*
X37100000Y5600000D02*
X35200000Y7500000D01*
X39477731Y3110000D02*
X39970000Y3110000D01*
X35200000Y7500000D02*
X35200000Y14166830D01*
X39970000Y-1690000D02*
X39477731Y-1690000D01*
X38500000Y2132269D02*
X39477731Y3110000D01*
X48070000Y12030000D02*
X48070000Y10950000D01*
X48070000Y10950000D02*
X47950000Y10950000D01*
X46825000Y13275000D02*
X48070000Y12030000D01*
X39477731Y-1690000D02*
X38500000Y-712269D01*
X47050000Y10050000D02*
X47050000Y9637500D01*
X44675000Y12700000D02*
X45250000Y13275000D01*
X47950000Y10950000D02*
X47050000Y10050000D01*
X36900000Y13200000D02*
X37400000Y12700000D01*
X38500000Y2132269D02*
X37100000Y3532269D01*
X35200000Y14166830D02*
X35683170Y14650000D01*
X37400000Y12700000D02*
X44675000Y12700000D01*
X36691830Y14650000D02*
X36900000Y14441830D01*
X37100000Y3532269D02*
X37100000Y5600000D01*
G04 #@! TO.N,+BATT*
X42935000Y8855000D02*
X43590000Y8200000D01*
D46*
X44100000Y8200000D02*
X44350000Y8450000D01*
D42*
X43590000Y8200000D02*
X44100000Y8200000D01*
D46*
X44350000Y7950000D02*
X44862500Y7950000D01*
X44100000Y8200000D02*
X44350000Y7950000D01*
D42*
X39420000Y10100000D02*
X40665000Y8855000D01*
X40665000Y8855000D02*
X42935000Y8855000D01*
D46*
X44350000Y8450000D02*
X44862500Y8450000D01*
D44*
G04 #@! TO.N,NPGOOD*
X43900000Y-4500000D02*
X43900000Y-3871752D01*
X44150000Y-4750000D02*
X43900000Y-4500000D01*
X43550000Y-2450000D02*
X43550000Y1600000D01*
X43550000Y1600000D02*
X43600000Y1650000D01*
D43*
X46550000Y5350000D02*
X46550000Y6762500D01*
X46110000Y4910000D02*
X46550000Y5350000D01*
X41313629Y5086371D02*
X41313629Y4800000D01*
X36112500Y13900000D02*
X36112500Y8687500D01*
X45000000Y4800000D02*
X45110000Y4910000D01*
X40300000Y6100000D02*
X41313629Y5086371D01*
D44*
X45150000Y-4750000D02*
X44150000Y-4750000D01*
D43*
X38700000Y6100000D02*
X40300000Y6100000D01*
X36112500Y8687500D02*
X38700000Y6100000D01*
D44*
X43900000Y-3871752D02*
X44175000Y-3596752D01*
X44175000Y-3075000D02*
X43550000Y-2450000D01*
X44175000Y-3596752D02*
X44175000Y-3075000D01*
D43*
X41313629Y4800000D02*
X45000000Y4800000D01*
X45110000Y4910000D02*
X46110000Y4910000D01*
G04 #@! TO.N,Net-(D4-A)*
X38197500Y13390000D02*
X37687500Y13900000D01*
X39150000Y13390000D02*
X38197500Y13390000D01*
G04 #@! TO.N,NCHG*
X50100000Y12300000D02*
X47520000Y14880000D01*
D44*
X50650000Y-950000D02*
X52200000Y600000D01*
X50400000Y5700000D02*
X50400000Y7600000D01*
X43803554Y-5250000D02*
X45150000Y-5250000D01*
X43475000Y-3625000D02*
X43475000Y-4921446D01*
D43*
X50100000Y6900000D02*
X48287500Y6900000D01*
X42092500Y14880000D02*
X41112500Y13900000D01*
X50400000Y7600000D02*
X50400000Y8700000D01*
D44*
X43475000Y-4921446D02*
X43803554Y-5250000D01*
D43*
X50400000Y7600000D02*
X50400000Y7200000D01*
D44*
X52200000Y600000D02*
X52200000Y3900000D01*
D43*
X50400000Y7200000D02*
X50100000Y6900000D01*
X50400000Y8700000D02*
X50100000Y9000000D01*
D44*
X52200000Y3900000D02*
X50400000Y5700000D01*
D43*
X50100000Y9000000D02*
X50100000Y12300000D01*
D44*
X43700000Y-3400000D02*
X43475000Y-3625000D01*
D43*
X47520000Y14880000D02*
X42092500Y14880000D01*
X48287500Y6900000D02*
X47737500Y7450000D01*
G04 #@! TO.N,+3.3V*
X53360000Y-6000000D02*
X54330000Y-6000000D01*
X45142498Y4300000D02*
X43000000Y4300000D01*
X54330000Y-6000000D02*
X54350000Y-5980000D01*
D44*
X44950000Y-3550000D02*
X45150000Y-3750000D01*
D43*
X47090000Y14410000D02*
X44150000Y14410000D01*
D46*
X48900000Y8200000D02*
X48650000Y8450000D01*
D43*
X34595000Y-5400000D02*
X35195000Y-4800000D01*
X49350000Y-8385000D02*
X50215000Y-9250000D01*
X41750000Y14035764D02*
X41750000Y13450000D01*
D46*
X48900000Y8200000D02*
X48800000Y8100000D01*
D43*
X44150000Y14410000D02*
X43985000Y14575000D01*
X53100000Y-4100000D02*
X53100000Y-4770000D01*
X34595000Y-10000000D02*
X39990000Y-10000000D01*
X48350000Y-1330000D02*
X48350000Y-3050000D01*
X43100000Y5400000D02*
X43790000Y5400000D01*
X50215000Y-9250000D02*
X50215000Y-9559999D01*
X41750000Y13450000D02*
X41500000Y13200000D01*
X48220000Y-1200000D02*
X48350000Y-1330000D01*
X53100000Y-2200000D02*
X53090000Y-2190000D01*
X51300000Y-2190000D02*
X50710000Y-1600000D01*
X48900000Y6400000D02*
X48092893Y6400000D01*
X53360000Y-6000000D02*
X53360000Y-5030000D01*
X45800000Y-2050000D02*
X45580000Y-1830000D01*
D46*
X48650000Y8450000D02*
X47737500Y8450000D01*
D43*
X50215000Y-9559999D02*
X50455001Y-9800000D01*
X50455001Y-9800000D02*
X51407107Y-9800000D01*
X53090000Y-2190000D02*
X52350000Y-2190000D01*
X49350000Y-7950000D02*
X48850000Y-7950000D01*
X49725000Y8859714D02*
X49725000Y11775000D01*
D46*
X48900000Y8200000D02*
X48650000Y7950000D01*
D43*
X40400000Y-6200000D02*
X40400000Y-6890000D01*
X41500000Y13200000D02*
X40137502Y13200000D01*
D46*
X48800000Y8100000D02*
X48800000Y7400000D01*
D43*
X34595000Y-5400000D02*
X34595000Y-10000000D01*
X42289236Y14575000D02*
X41750000Y14035764D01*
X48200000Y-1420000D02*
X48200000Y1600000D01*
X53360000Y-5030000D02*
X53330000Y-5000000D01*
X53090000Y-2190000D02*
X51300000Y-2190000D01*
X48900000Y5611092D02*
X48900000Y6400000D01*
X48920000Y-600000D02*
X48220000Y-1300000D01*
X52120000Y-10000000D02*
X52350000Y-10230000D01*
X48092893Y6400000D02*
X47550000Y5857107D01*
D46*
X48650000Y7950000D02*
X47737500Y7950000D01*
D43*
X47550000Y5250000D02*
X46150000Y3850000D01*
X49271226Y8200000D02*
X49380000Y8308774D01*
X49380000Y8514714D02*
X49725000Y8859714D01*
X49500000Y-600000D02*
X48920000Y-600000D01*
X49350000Y-7950000D02*
X49350000Y-8385000D01*
X39990000Y-10000000D02*
X40400000Y-10410000D01*
X49725000Y11775000D02*
X47090000Y14410000D01*
X52380000Y-10200000D02*
X52350000Y-10230000D01*
D44*
X44950000Y-1830000D02*
X44950000Y-3550000D01*
D43*
X50500000Y-1600000D02*
X49500000Y-600000D01*
X46150000Y3850000D02*
X45592498Y3850000D01*
X40400000Y-11100000D02*
X40400000Y-10410000D01*
X53000000Y-10200000D02*
X52380000Y-10200000D01*
X43985000Y14575000D02*
X42289236Y14575000D01*
X39000000Y-4800000D02*
X40400000Y-6200000D01*
X51407107Y-9800000D02*
X51607107Y-10000000D01*
X51607107Y-10000000D02*
X52120000Y-10000000D01*
X45592498Y3850000D02*
X45142498Y4300000D01*
X49380000Y8308774D02*
X49380000Y8514714D01*
X48200000Y4911092D02*
X48900000Y5611092D01*
X47550000Y5857107D02*
X47550000Y5250000D01*
X45580000Y-1830000D02*
X45400000Y-1830000D01*
D44*
X44950000Y-1830000D02*
X45400000Y-1830000D01*
D43*
X48900000Y8200000D02*
X49271226Y8200000D01*
X35195000Y-4800000D02*
X39000000Y-4800000D01*
X48200000Y1600000D02*
X48800000Y2200000D01*
X40137502Y13200000D02*
X39150000Y14187502D01*
X39150000Y14187502D02*
X39150000Y14410000D01*
X53100000Y-4770000D02*
X53330000Y-5000000D01*
X50710000Y-1600000D02*
X50500000Y-1600000D01*
X40800000Y-11500000D02*
X40400000Y-11100000D01*
D44*
X44400000Y-1830000D02*
X44950000Y-1830000D01*
D43*
X48200000Y1600000D02*
X48200000Y4911092D01*
G04 #@! TO.N,Net-(D5-A)*
X44150000Y13390000D02*
X43197500Y13390000D01*
X43197500Y13390000D02*
X42687500Y13900000D01*
G04 #@! TO.N,Net-(U1-CC1)*
X41320000Y1960000D02*
X39970000Y1960000D01*
X41550000Y2190000D02*
X41320000Y1960000D01*
G04 #@! TO.N,Net-(U1-CC2)*
X41300000Y-1600000D02*
X40740000Y-1040000D01*
X40740000Y-1040000D02*
X39970000Y-1040000D01*
X41300000Y-2190000D02*
X41300000Y-1600000D01*
G04 #@! TO.N,CHIP_EN*
X51200000Y-3499999D02*
X51200000Y-3260000D01*
X50449999Y-4250000D02*
X51200000Y-3499999D01*
X50050000Y-4250000D02*
X50449999Y-4250000D01*
G04 #@! TO.N,USB_D+*
X39970000Y960000D02*
X40825001Y960000D01*
X43425000Y-8725000D02*
X45974999Y-8725000D01*
X42050000Y-7350000D02*
X43425000Y-8725000D01*
X46350000Y-8349999D02*
X46350000Y-7950000D01*
X40590000Y-40000D02*
X40740000Y110000D01*
X40590000Y960000D02*
X39970000Y960000D01*
X40850001Y985000D02*
X40996800Y985000D01*
X42050000Y-68200D02*
X42050000Y-7350000D01*
X40825001Y960000D02*
X40850001Y985000D01*
X40740000Y810000D02*
X40590000Y960000D01*
X40996800Y985000D02*
X42050000Y-68200D01*
X45974999Y-8725000D02*
X46350000Y-8349999D01*
X39970000Y-40000D02*
X40590000Y-40000D01*
X40740000Y110000D02*
X40740000Y810000D01*
G04 #@! TO.N,USB_D-*
X39200000Y610000D02*
X39350000Y460000D01*
X39970000Y1460000D02*
X40825001Y1460000D01*
X42500000Y118200D02*
X42500000Y-7100000D01*
X39350000Y460000D02*
X39970000Y460000D01*
X40825001Y1460000D02*
X40850001Y1435000D01*
X39350000Y1460000D02*
X39200000Y1310000D01*
X39200000Y1310000D02*
X39200000Y610000D01*
X40850001Y1435000D02*
X41183200Y1435000D01*
X42500000Y-7100000D02*
X43675000Y-8275000D01*
X39970000Y1460000D02*
X39350000Y1460000D01*
X43675000Y-8275000D02*
X45525000Y-8275000D01*
X45525000Y-8275000D02*
X45850000Y-7950000D01*
X41183200Y1435000D02*
X42500000Y118200D01*
G04 #@! TO.N,Net-(U2-TS)*
X43610000Y9800000D02*
X44012500Y9800000D01*
X44012500Y9800000D02*
X44862500Y8950000D01*
G04 #@! TO.N,Net-(U2-ISET)*
X45400000Y10780000D02*
X45400000Y9787500D01*
X45400000Y9787500D02*
X45550000Y9637500D01*
X45300000Y10880000D02*
X45400000Y10780000D01*
G04 #@! TO.N,MCU_SCL*
X49500000Y-2900000D02*
X49350000Y-3050000D01*
X38470000Y-7700000D02*
X40190000Y-7700000D01*
X42200000Y-9710000D02*
X42200000Y-10900000D01*
X50300000Y-2900000D02*
X49500000Y-2900000D01*
X40190000Y-7700000D02*
X40400000Y-7910000D01*
X40400000Y-7910000D02*
X42200000Y-9710000D01*
G04 #@! TO.N,Net-(U2-ILIM)*
X48625000Y8950000D02*
X49125000Y9450000D01*
X47737500Y8950000D02*
X48625000Y8950000D01*
G04 #@! TO.N,NCE*
X47600000Y-500000D02*
X47350000Y-750000D01*
X44862500Y7450000D02*
X44862500Y6637500D01*
X47350000Y-750000D02*
X47350000Y-3050000D01*
X43850000Y7450000D02*
X44862500Y7450000D01*
X43600000Y7200000D02*
X43850000Y7450000D01*
X47600000Y2500000D02*
X47600000Y-500000D01*
X44862500Y6637500D02*
X44900000Y6600000D01*
D44*
G04 #@! TO.N,Net-(U3-GPIO9)*
X46565000Y-335000D02*
X46600000Y-300000D01*
X52900000Y7800000D02*
X52400000Y8300000D01*
X46350000Y-2750000D02*
X46565000Y-2535000D01*
X52450000Y4050000D02*
X52450000Y150000D01*
X52400000Y9000000D02*
X50700000Y7300000D01*
X52450000Y150000D02*
X52085876Y-214124D01*
X50700000Y5800000D02*
X52450000Y4050000D01*
X52400000Y8300000D02*
X52400000Y9000000D01*
X53900000Y7800000D02*
X55100000Y9000000D01*
X50700000Y7300000D02*
X50700000Y5800000D01*
X55100000Y9000000D02*
X58400000Y9000000D01*
X46350000Y-3050000D02*
X46350000Y-2750000D01*
X46565000Y-2535000D02*
X46565000Y-335000D01*
G04 #@! TO.N,TMR*
X46125000Y-496752D02*
X46275000Y-646752D01*
D43*
X46900000Y10500000D02*
X46900000Y10910000D01*
D44*
X46275000Y-2387392D02*
X45850000Y-2812392D01*
X46125000Y2075000D02*
X46125000Y-496752D01*
X40500000Y6700000D02*
X39100000Y6700000D01*
X46410000Y11400000D02*
X46900000Y10910000D01*
X45850000Y-2812392D02*
X45850000Y-3050000D01*
D43*
X46550000Y9637500D02*
X46550000Y10150000D01*
D44*
X46275000Y-646752D02*
X46275000Y-2387392D01*
X44700000Y3500000D02*
X46125000Y2075000D01*
D43*
X46550000Y10150000D02*
X46900000Y10500000D01*
D44*
X38400000Y11400000D02*
X46410000Y11400000D01*
X41400000Y5800000D02*
X40500000Y6700000D01*
X37900000Y10900000D02*
X38400000Y11400000D01*
X37900000Y7900000D02*
X37900000Y10900000D01*
X39100000Y6700000D02*
X37900000Y7900000D01*
D43*
G04 #@! TO.N,EN1*
X46050000Y6050000D02*
X46050000Y6762500D01*
X46000000Y6000000D02*
X46050000Y6050000D01*
X46500000Y3400000D02*
X46400000Y3500000D01*
X46000000Y6000000D02*
X46000000Y5660000D01*
X46000000Y5660000D02*
X45800000Y5460000D01*
X45500000Y3500000D02*
X45000000Y4000000D01*
X42700000Y1000000D02*
X42950000Y750000D01*
X42950000Y-5150000D02*
X44050000Y-6250000D01*
X44050000Y-6250000D02*
X45150000Y-6250000D01*
X46400000Y3500000D02*
X45500000Y3500000D01*
X45000000Y4000000D02*
X43450000Y4000000D01*
X42700000Y3250000D02*
X42700000Y1000000D01*
X43450000Y4000000D02*
X42700000Y3250000D01*
X42950000Y750000D02*
X42950000Y-5150000D01*
G04 #@! TO.N,Net-(D1-BK)*
X51400000Y3310000D02*
X50310000Y3310000D01*
X50310000Y3310000D02*
X50200000Y3200000D01*
D44*
G04 #@! TO.N,EN2*
X43225000Y975000D02*
X43050000Y1150000D01*
X42755000Y5905000D02*
X44615000Y5905000D01*
D43*
X44810000Y5400000D02*
X44810000Y5710000D01*
D44*
X43050000Y1800000D02*
X43850000Y2600000D01*
X43225000Y-5025000D02*
X43225000Y975000D01*
X44615000Y5905000D02*
X44810000Y5710000D01*
D43*
X44810000Y5710000D02*
X45550000Y6450000D01*
D44*
X43950000Y-5750000D02*
X43225000Y-5025000D01*
X42300000Y5450000D02*
X42755000Y5905000D01*
X43050000Y1150000D02*
X43050000Y1800000D01*
X45150000Y-5750000D02*
X43950000Y-5750000D01*
D43*
X45550000Y6450000D02*
X45550000Y6762500D01*
D44*
G04 #@! TO.N,TD*
X46815000Y-813248D02*
X46815000Y-3015000D01*
X47100000Y-528248D02*
X46815000Y-813248D01*
X46100000Y10600000D02*
X46100000Y9687500D01*
X47100000Y4200000D02*
X47100000Y-528248D01*
X46100000Y9687500D02*
X46050000Y9637500D01*
X48200000Y5800000D02*
X48200000Y5300000D01*
X48200000Y5300000D02*
X47100000Y4200000D01*
X46815000Y-3015000D02*
X46850000Y-3050000D01*
D43*
G04 #@! TO.N,MCU_SDA*
X49227036Y-2400000D02*
X48850000Y-2777036D01*
X48850000Y-2777036D02*
X48850000Y-3050000D01*
X38470000Y-8700000D02*
X39710000Y-8700000D01*
X41500000Y-11500000D02*
X41600000Y-11600000D01*
X40400000Y-9390000D02*
X41500000Y-10490000D01*
X49900000Y-2400000D02*
X49227036Y-2400000D01*
X39710000Y-8700000D02*
X40400000Y-9390000D01*
X50200000Y-2100000D02*
X49900000Y-2400000D01*
X41500000Y-10490000D02*
X41500000Y-11500000D01*
G04 #@! TO.N,Net-(D1-GK)*
X48800000Y3200000D02*
X48800000Y4310000D01*
X48800000Y4310000D02*
X48890000Y4400000D01*
G04 #@! TO.N,Net-(D1-RK)*
X50210000Y2190000D02*
X50200000Y2200000D01*
X50210000Y1000000D02*
X50210000Y2190000D01*
G04 #@! TO.N,Gr\u00FCn*
X43200000Y-7000000D02*
X43450000Y-7250000D01*
X51000000Y200000D02*
X51920000Y1120000D01*
X51920000Y3587502D02*
X51107502Y4400000D01*
X51107502Y4400000D02*
X49910000Y4400000D01*
X43450000Y-7250000D02*
X45150000Y-7250000D01*
X51920000Y1120000D02*
X51920000Y3587502D01*
G04 #@! TO.N,Blau*
X51400000Y1400000D02*
X51400000Y2290000D01*
X45150000Y-6750000D02*
X44975000Y-6575000D01*
X50680000Y672498D02*
X50680000Y680000D01*
X43575000Y-6575000D02*
X43100000Y-6100000D01*
X44975000Y-6575000D02*
X43575000Y-6575000D01*
X50680000Y680000D02*
X51400000Y1400000D01*
X50107502Y100000D02*
X50680000Y672498D01*
X49500000Y100000D02*
X50107502Y100000D01*
G04 #@! TO.N,Rot*
X48700000Y510000D02*
X49190000Y1000000D01*
X44450000Y-4250000D02*
X44400000Y-4200000D01*
X48700000Y-100000D02*
X48700000Y510000D01*
X45150000Y-4250000D02*
X44450000Y-4250000D01*
G04 #@! TO.N,Net-(U3-XTAL_P)*
X48700000Y-9700000D02*
X49525000Y-9700000D01*
X48350000Y-9350000D02*
X48700000Y-9700000D01*
X48350000Y-7950000D02*
X48350000Y-9350000D01*
X49525000Y-9700000D02*
X50215000Y-10390000D01*
G04 #@! TO.N,Net-(U3-XTAL_N)*
X47600000Y-10300000D02*
X47600000Y-8472964D01*
X44950000Y-11114999D02*
X46214999Y-11114999D01*
X46500000Y-11400000D02*
X47600000Y-10300000D01*
X47850000Y-8222964D02*
X47850000Y-7950000D01*
X46214999Y-11114999D02*
X46500000Y-11400000D01*
X47600000Y-8472964D02*
X47850000Y-8222964D01*
G04 #@! TD*
G04 #@! TA.AperFunction,Conductor*
G04 #@! TO.N,GND*
G36*
X41493039Y-2979685D02*
G01*
X41538794Y-3032489D01*
X41550000Y-3084000D01*
X41550000Y-3778817D01*
X41566782Y-3777244D01*
X41566784Y-3777243D01*
X41584542Y-3771030D01*
X41654321Y-3767466D01*
X41714949Y-3802193D01*
X41747178Y-3864186D01*
X41749500Y-3888070D01*
X41749500Y-7389562D01*
X41758052Y-7421476D01*
X41769979Y-7465990D01*
X41769980Y-7465991D01*
X41789319Y-7499487D01*
X41809540Y-7534511D01*
X43240489Y-8965460D01*
X43309012Y-9005022D01*
X43385438Y-9025500D01*
X43385440Y-9025500D01*
X45376000Y-9025500D01*
X45443039Y-9045185D01*
X45488794Y-9097989D01*
X45500000Y-9149500D01*
X45500000Y-9507045D01*
X45480315Y-9574084D01*
X45427511Y-9619839D01*
X45358353Y-9629783D01*
X45335045Y-9624087D01*
X45202722Y-9577785D01*
X45200000Y-9577529D01*
X45200000Y-10280999D01*
X45180315Y-10348038D01*
X45127511Y-10393793D01*
X45076000Y-10404999D01*
X44352332Y-10404999D01*
X44386596Y-10502921D01*
X44465357Y-10609638D01*
X44465868Y-10610015D01*
X44466293Y-10610575D01*
X44471929Y-10616211D01*
X44471158Y-10616981D01*
X44508121Y-10665661D01*
X44513583Y-10735316D01*
X44500156Y-10766289D01*
X44501361Y-10766851D01*
X44446027Y-10885513D01*
X44439500Y-10935096D01*
X44439500Y-11294893D01*
X44439501Y-11294899D01*
X44446028Y-11344486D01*
X44446029Y-11344488D01*
X44446029Y-11344489D01*
X44479142Y-11415499D01*
X44496776Y-11453315D01*
X44581684Y-11538223D01*
X44690513Y-11588971D01*
X44740099Y-11595499D01*
X45159900Y-11595498D01*
X45209487Y-11588971D01*
X45318316Y-11538223D01*
X45387819Y-11468720D01*
X45449142Y-11435235D01*
X45518834Y-11440219D01*
X45574767Y-11482091D01*
X45599184Y-11547555D01*
X45599500Y-11556401D01*
X45599500Y-12019752D01*
X45611131Y-12078229D01*
X45611132Y-12078230D01*
X45646883Y-12131735D01*
X45667761Y-12198413D01*
X45649276Y-12265793D01*
X45597298Y-12312483D01*
X45543781Y-12324626D01*
X36378122Y-12324626D01*
X36371632Y-12324456D01*
X36036472Y-12306889D01*
X36023563Y-12305532D01*
X35695294Y-12253537D01*
X35682600Y-12250839D01*
X35540904Y-12212871D01*
X35361551Y-12164812D01*
X35349208Y-12160801D01*
X35038918Y-12041691D01*
X35027061Y-12036412D01*
X34994364Y-12019752D01*
X34742699Y-11891521D01*
X34730916Y-11885517D01*
X34719676Y-11879027D01*
X34440936Y-11698011D01*
X34430435Y-11690382D01*
X34172131Y-11481211D01*
X34162486Y-11472526D01*
X33927473Y-11237513D01*
X33918788Y-11227868D01*
X33757120Y-11028225D01*
X33730450Y-10995291D01*
X33703559Y-10930805D01*
X33715801Y-10862016D01*
X33763290Y-10810765D01*
X33830948Y-10793325D01*
X33853278Y-10796112D01*
X33860294Y-10797643D01*
X33860301Y-10797646D01*
X33875517Y-10799073D01*
X33890730Y-10800500D01*
X33890734Y-10800500D01*
X35299270Y-10800500D01*
X35329699Y-10797646D01*
X35329701Y-10797646D01*
X35417706Y-10766851D01*
X35457882Y-10752793D01*
X35567150Y-10672150D01*
X35647793Y-10562882D01*
X35680133Y-10470460D01*
X35692646Y-10434701D01*
X35692646Y-10434699D01*
X35694689Y-10412921D01*
X35720547Y-10348013D01*
X35777393Y-10307388D01*
X35818147Y-10300500D01*
X39755500Y-10300500D01*
X39822539Y-10320185D01*
X39868294Y-10372989D01*
X39879500Y-10424500D01*
X39879500Y-10584316D01*
X39885931Y-10633171D01*
X39901162Y-10665833D01*
X39935935Y-10740404D01*
X40019596Y-10824065D01*
X40027904Y-10827939D01*
X40080343Y-10874110D01*
X40099500Y-10940321D01*
X40099500Y-11139562D01*
X40113152Y-11190513D01*
X40119979Y-11215990D01*
X40119980Y-11215991D01*
X40145122Y-11259539D01*
X40159540Y-11284511D01*
X40310618Y-11435589D01*
X40344103Y-11496912D01*
X40345675Y-11505623D01*
X40363302Y-11628225D01*
X40408972Y-11728226D01*
X40417118Y-11746063D01*
X40501951Y-11843967D01*
X40610931Y-11914004D01*
X40735225Y-11950499D01*
X40735227Y-11950500D01*
X40735228Y-11950500D01*
X40864773Y-11950500D01*
X40864773Y-11950499D01*
X40989069Y-11914004D01*
X41082973Y-11853655D01*
X41150011Y-11833971D01*
X41217050Y-11853655D01*
X41243722Y-11876767D01*
X41301951Y-11943967D01*
X41410931Y-12014004D01*
X41535225Y-12050499D01*
X41535227Y-12050500D01*
X41535228Y-12050500D01*
X41664773Y-12050500D01*
X41664773Y-12050499D01*
X41789069Y-12014004D01*
X41898049Y-11943967D01*
X41982882Y-11846063D01*
X42036697Y-11728226D01*
X42055133Y-11600000D01*
X42039626Y-11492146D01*
X42049570Y-11422989D01*
X42095325Y-11370185D01*
X42162364Y-11350500D01*
X42264773Y-11350500D01*
X42264773Y-11350499D01*
X42389069Y-11314004D01*
X42498049Y-11243967D01*
X42582882Y-11146063D01*
X42636697Y-11028226D01*
X42655133Y-10900000D01*
X42636697Y-10771774D01*
X42582882Y-10653937D01*
X42582880Y-10653935D01*
X42582879Y-10653932D01*
X42530786Y-10593812D01*
X42501762Y-10530256D01*
X42500500Y-10512611D01*
X42500500Y-9904999D01*
X44352332Y-9904999D01*
X44700000Y-9904999D01*
X44700000Y-9577530D01*
X44699999Y-9577529D01*
X44697274Y-9577785D01*
X44697272Y-9577786D01*
X44572080Y-9621593D01*
X44465358Y-9700357D01*
X44386596Y-9807076D01*
X44352332Y-9904999D01*
X42500500Y-9904999D01*
X42500500Y-9670439D01*
X42500500Y-9670438D01*
X42480021Y-9594011D01*
X42476019Y-9587079D01*
X42440464Y-9525495D01*
X42440458Y-9525487D01*
X40956819Y-8041848D01*
X40923334Y-7980525D01*
X40920500Y-7954167D01*
X40920500Y-7735683D01*
X40914068Y-7686828D01*
X40895956Y-7647987D01*
X40864065Y-7579596D01*
X40780404Y-7495935D01*
X40772733Y-7488264D01*
X40775561Y-7485435D01*
X40744843Y-7447023D01*
X40737635Y-7377526D01*
X40769143Y-7315165D01*
X40772903Y-7311906D01*
X40772733Y-7311736D01*
X40804327Y-7280142D01*
X40864065Y-7220404D01*
X40914068Y-7113173D01*
X40920500Y-7064316D01*
X40920500Y-6715684D01*
X40914068Y-6666827D01*
X40864065Y-6559596D01*
X40780404Y-6475935D01*
X40780401Y-6475932D01*
X40772089Y-6472056D01*
X40719652Y-6425881D01*
X40700500Y-6359677D01*
X40700500Y-6160439D01*
X40684305Y-6100000D01*
X40680021Y-6084011D01*
X40673173Y-6072149D01*
X40640464Y-6015495D01*
X40640458Y-6015487D01*
X39180166Y-4555195D01*
X39146681Y-4493872D01*
X39150000Y-4447461D01*
X39150000Y-3910000D01*
X39650000Y-3910000D01*
X39650000Y-4410000D01*
X40028794Y-4410000D01*
X40028797Y-4409999D01*
X40183343Y-4379258D01*
X40183351Y-4379256D01*
X40328939Y-4318952D01*
X40328948Y-4318947D01*
X40459969Y-4231401D01*
X40459973Y-4231398D01*
X40571398Y-4119973D01*
X40571401Y-4119969D01*
X40658947Y-3988948D01*
X40658952Y-3988939D01*
X40719256Y-3843351D01*
X40719257Y-3843347D01*
X40724582Y-3816576D01*
X40756965Y-3754664D01*
X40817679Y-3720088D01*
X40887449Y-3723825D01*
X40904139Y-3731131D01*
X40909439Y-3733932D01*
X41033219Y-3777244D01*
X41049999Y-3778817D01*
X41050000Y-3778816D01*
X41050000Y-3084000D01*
X41069685Y-3016961D01*
X41122489Y-2971206D01*
X41174000Y-2960000D01*
X41426000Y-2960000D01*
X41493039Y-2979685D01*
G37*
G04 #@! TD.AperFunction*
G04 #@! TA.AperFunction,Conductor*
G36*
X54649737Y-8019685D02*
G01*
X54695492Y-8072489D01*
X54706506Y-8117120D01*
X54733044Y-8594797D01*
X54749809Y-8896562D01*
X54750000Y-8903440D01*
X54750000Y-9700000D01*
X54750000Y-10450000D01*
X54750000Y-10550000D01*
X60439663Y-10550000D01*
X60506702Y-10569685D01*
X60552457Y-10622489D01*
X60562401Y-10691647D01*
X60543531Y-10741730D01*
X60391516Y-10974854D01*
X60383841Y-10985373D01*
X60175088Y-11241997D01*
X60166352Y-11251653D01*
X59931839Y-11484971D01*
X59922138Y-11493658D01*
X59664449Y-11701098D01*
X59653891Y-11708719D01*
X59375873Y-11887989D01*
X59364584Y-11894455D01*
X59253615Y-11950499D01*
X59069294Y-12043586D01*
X59057379Y-12048837D01*
X58748076Y-12166179D01*
X58735675Y-12170152D01*
X58415782Y-12254408D01*
X58403033Y-12257059D01*
X58076071Y-12307304D01*
X58063115Y-12308604D01*
X57728748Y-12324471D01*
X57722237Y-12324608D01*
X57675989Y-12324371D01*
X57673342Y-12324626D01*
X49774908Y-12324626D01*
X49707869Y-12304941D01*
X49662114Y-12252137D01*
X49652170Y-12182979D01*
X49661473Y-12150540D01*
X49697089Y-12069874D01*
X49699999Y-12044794D01*
X49699999Y-12010203D01*
X49719682Y-11943163D01*
X49772485Y-11897407D01*
X49841643Y-11887462D01*
X49864954Y-11893159D01*
X49962271Y-11927212D01*
X49962269Y-11927212D01*
X49965000Y-11927467D01*
X50465000Y-11927467D01*
X50467729Y-11927212D01*
X50592919Y-11883405D01*
X50699641Y-11804641D01*
X50778403Y-11697922D01*
X50812668Y-11600000D01*
X50465000Y-11600000D01*
X50465000Y-11927467D01*
X49965000Y-11927467D01*
X49965000Y-11600000D01*
X49743000Y-11600000D01*
X49729319Y-11613681D01*
X49667996Y-11647166D01*
X49641638Y-11650000D01*
X47700001Y-11650000D01*
X47700001Y-12044785D01*
X47700002Y-12044808D01*
X47702908Y-12069869D01*
X47702909Y-12069872D01*
X47738527Y-12150541D01*
X47747598Y-12219819D01*
X47717773Y-12283004D01*
X47658524Y-12320034D01*
X47625092Y-12324626D01*
X47456219Y-12324626D01*
X47389180Y-12304941D01*
X47343425Y-12252137D01*
X47333481Y-12182979D01*
X47353117Y-12131735D01*
X47372754Y-12102344D01*
X47388867Y-12078231D01*
X47388867Y-12078229D01*
X47388868Y-12078229D01*
X47400499Y-12019752D01*
X47400500Y-12019750D01*
X47400500Y-10975833D01*
X47420185Y-10908794D01*
X47436819Y-10888152D01*
X47488319Y-10836652D01*
X47549642Y-10803167D01*
X47619334Y-10808151D01*
X47675267Y-10850023D01*
X47699684Y-10915487D01*
X47700000Y-10924333D01*
X47700000Y-11150000D01*
X49562000Y-11150000D01*
X49575681Y-11136319D01*
X49637004Y-11102834D01*
X49663362Y-11100000D01*
X50812668Y-11100000D01*
X50778403Y-11002077D01*
X50699641Y-10895359D01*
X50699129Y-10894981D01*
X50698703Y-10894420D01*
X50693071Y-10888788D01*
X50693841Y-10888017D01*
X50656877Y-10839335D01*
X50651417Y-10769679D01*
X50664846Y-10738710D01*
X50663639Y-10738148D01*
X50671277Y-10721769D01*
X50718972Y-10619487D01*
X50725500Y-10569901D01*
X50725499Y-10224499D01*
X50745183Y-10157461D01*
X50797987Y-10111706D01*
X50849499Y-10100500D01*
X51231274Y-10100500D01*
X51298313Y-10120185D01*
X51318955Y-10136819D01*
X51422596Y-10240460D01*
X51491119Y-10280022D01*
X51567545Y-10300500D01*
X51716353Y-10300500D01*
X51783392Y-10320185D01*
X51829147Y-10372989D01*
X51839292Y-10408317D01*
X51846027Y-10459482D01*
X51846029Y-10459490D01*
X51869823Y-10510516D01*
X51896776Y-10568316D01*
X51981684Y-10653224D01*
X52090513Y-10703972D01*
X52140099Y-10710500D01*
X52559900Y-10710499D01*
X52609487Y-10703972D01*
X52718316Y-10653224D01*
X52718319Y-10653220D01*
X52727205Y-10647000D01*
X52728056Y-10648216D01*
X52778946Y-10620425D01*
X52840247Y-10622612D01*
X52897679Y-10639475D01*
X52927449Y-10648216D01*
X52935225Y-10650499D01*
X52935227Y-10650500D01*
X52935228Y-10650500D01*
X53064773Y-10650500D01*
X53064773Y-10650499D01*
X53189069Y-10614004D01*
X53298049Y-10543967D01*
X53382882Y-10446063D01*
X53436697Y-10328226D01*
X53455133Y-10200000D01*
X53436697Y-10071774D01*
X53382882Y-9953937D01*
X53298049Y-9856033D01*
X53189069Y-9785996D01*
X53189065Y-9785994D01*
X53189064Y-9785994D01*
X53064774Y-9749500D01*
X53064772Y-9749500D01*
X53042125Y-9749500D01*
X52975086Y-9729815D01*
X52929331Y-9677011D01*
X52919387Y-9607853D01*
X52925083Y-9584546D01*
X52947668Y-9520000D01*
X51768362Y-9520000D01*
X51701323Y-9500315D01*
X51700932Y-9500000D01*
X51458593Y-9500000D01*
X51450964Y-9499500D01*
X51446669Y-9499500D01*
X51049000Y-9499500D01*
X50981961Y-9479815D01*
X50936206Y-9427011D01*
X50925000Y-9375500D01*
X50925000Y-9124000D01*
X50944685Y-9056961D01*
X50997489Y-9011206D01*
X51049000Y-9000000D01*
X51726638Y-9000000D01*
X51793677Y-9019685D01*
X51794068Y-9020000D01*
X52100000Y-9020000D01*
X52600000Y-9020000D01*
X52947668Y-9020000D01*
X52913403Y-8922077D01*
X52834641Y-8815358D01*
X52727919Y-8736594D01*
X52602727Y-8692787D01*
X52602725Y-8692786D01*
X52600000Y-8692530D01*
X52600000Y-9020000D01*
X52100000Y-9020000D01*
X52100000Y-8704634D01*
X52119685Y-8637595D01*
X52124230Y-8631000D01*
X52163403Y-8577922D01*
X52197668Y-8480000D01*
X54002332Y-8480000D01*
X54036596Y-8577922D01*
X54115358Y-8684641D01*
X54222080Y-8763405D01*
X54347271Y-8807212D01*
X54347269Y-8807212D01*
X54350000Y-8807467D01*
X54350000Y-8480000D01*
X54002332Y-8480000D01*
X52197668Y-8480000D01*
X51002331Y-8480000D01*
X51006664Y-8492383D01*
X51010225Y-8562162D01*
X50975496Y-8622789D01*
X50930578Y-8650378D01*
X50827079Y-8686594D01*
X50720358Y-8765358D01*
X50719977Y-8765876D01*
X50719412Y-8766304D01*
X50713788Y-8771929D01*
X50713018Y-8771159D01*
X50664328Y-8808125D01*
X50594672Y-8813581D01*
X50563709Y-8800155D01*
X50563148Y-8801361D01*
X50553316Y-8796776D01*
X50444487Y-8746028D01*
X50444485Y-8746027D01*
X50444486Y-8746027D01*
X50394902Y-8739500D01*
X50394901Y-8739500D01*
X50180833Y-8739500D01*
X50113794Y-8719815D01*
X50093152Y-8703181D01*
X49711818Y-8321847D01*
X49678333Y-8260524D01*
X49675499Y-8234165D01*
X49675500Y-8123999D01*
X49695185Y-8056960D01*
X49747990Y-8011205D01*
X49799500Y-8000000D01*
X54582698Y-8000000D01*
X54649737Y-8019685D01*
G37*
G04 #@! TD.AperFunction*
G04 #@! TA.AperFunction,Conductor*
G36*
X51367776Y15603911D02*
G01*
X51413531Y15551107D01*
X51423475Y15481949D01*
X51403034Y15429515D01*
X51398211Y15422476D01*
X51352910Y15319878D01*
X51352910Y15319876D01*
X51350000Y15294795D01*
X51350000Y14750000D01*
X53449999Y14750000D01*
X53449999Y15294786D01*
X53449997Y15294809D01*
X53447091Y15319870D01*
X53447090Y15319874D01*
X53401788Y15422476D01*
X53396966Y15429515D01*
X53375317Y15495947D01*
X53393020Y15563536D01*
X53444454Y15610825D01*
X53499263Y15623596D01*
X57299969Y15623596D01*
X57367008Y15603911D01*
X57412763Y15551107D01*
X57422707Y15481949D01*
X57393682Y15418393D01*
X57387650Y15411915D01*
X57348214Y15372480D01*
X57348211Y15372475D01*
X57302910Y15269878D01*
X57302910Y15269876D01*
X57300000Y15244795D01*
X57300000Y14750000D01*
X59499999Y14750000D01*
X59499999Y14869092D01*
X59519684Y14936131D01*
X59572488Y14981886D01*
X59641646Y14991830D01*
X59702247Y14965286D01*
X59738087Y14936131D01*
X59928319Y14781384D01*
X59937968Y14772654D01*
X60171293Y14538132D01*
X60179965Y14528447D01*
X60203141Y14499657D01*
X60387405Y14270757D01*
X60395026Y14260199D01*
X60574303Y13982168D01*
X60580775Y13970869D01*
X60729897Y13675594D01*
X60735148Y13663681D01*
X60797921Y13498215D01*
X60801402Y13489041D01*
X60809464Y13445483D01*
X60837200Y5374426D01*
X60817746Y5307319D01*
X60765100Y5261383D01*
X60713201Y5250000D01*
X59571211Y5250000D01*
X59504172Y5269685D01*
X59458417Y5322489D01*
X59448038Y5388294D01*
X59449999Y5405194D01*
X59450000Y5405209D01*
X59450000Y5950000D01*
X57350001Y5950000D01*
X57350001Y5405215D01*
X57350002Y5405192D01*
X57351963Y5388285D01*
X57340133Y5319424D01*
X57292951Y5267891D01*
X57228789Y5250000D01*
X55200000Y5250000D01*
X55200000Y-4761309D01*
X55180315Y-4828348D01*
X55127511Y-4874103D01*
X55058353Y-4884047D01*
X54994797Y-4855022D01*
X54958959Y-4802264D01*
X54913405Y-4672080D01*
X54834641Y-4565358D01*
X54727919Y-4486594D01*
X54602727Y-4442787D01*
X54602725Y-4442786D01*
X54600000Y-4442530D01*
X54600000Y-5146000D01*
X54580315Y-5213039D01*
X54527511Y-5258794D01*
X54476000Y-5270000D01*
X54224000Y-5270000D01*
X54156961Y-5250315D01*
X54111206Y-5197511D01*
X54100000Y-5146000D01*
X54100000Y-4442531D01*
X54099999Y-4442530D01*
X54097274Y-4442786D01*
X54097272Y-4442787D01*
X53972080Y-4486594D01*
X53865357Y-4565360D01*
X53863804Y-4566913D01*
X53861686Y-4568068D01*
X53857882Y-4570877D01*
X53857497Y-4570356D01*
X53802479Y-4600394D01*
X53732787Y-4595405D01*
X53688447Y-4566907D01*
X53668316Y-4546776D01*
X53551362Y-4492239D01*
X53498923Y-4446066D01*
X53479771Y-4378873D01*
X53490972Y-4328347D01*
X53536697Y-4228226D01*
X53555133Y-4100000D01*
X53536697Y-3971774D01*
X53494563Y-3879516D01*
X53484620Y-3810359D01*
X53513645Y-3746803D01*
X53572423Y-3709028D01*
X53591166Y-3705067D01*
X53599487Y-3703972D01*
X53708316Y-3653224D01*
X53708316Y-3653223D01*
X53718148Y-3648639D01*
X53719278Y-3651063D01*
X53770277Y-3633858D01*
X53838046Y-3650861D01*
X53868535Y-3678323D01*
X53868788Y-3678071D01*
X53873621Y-3682904D01*
X53874981Y-3684129D01*
X53875359Y-3684641D01*
X53982077Y-3763403D01*
X54080000Y-3797668D01*
X54080000Y-3797667D01*
X54580000Y-3797667D01*
X54677922Y-3763403D01*
X54784641Y-3684641D01*
X54863405Y-3577919D01*
X54907212Y-3452727D01*
X54907213Y-3452725D01*
X54907469Y-3450000D01*
X54580000Y-3450000D01*
X54580000Y-3797667D01*
X54080000Y-3797667D01*
X54080000Y-2950000D01*
X54580000Y-2950000D01*
X54907467Y-2950000D01*
X54907212Y-2947270D01*
X54863405Y-2822080D01*
X54784641Y-2715358D01*
X54677920Y-2636594D01*
X54580000Y-2602330D01*
X54580000Y-2950000D01*
X54080000Y-2950000D01*
X54080000Y-2602330D01*
X54079999Y-2602329D01*
X54057356Y-2610253D01*
X53987577Y-2613814D01*
X53926950Y-2579085D01*
X53894723Y-2517091D01*
X53896628Y-2461116D01*
X53900500Y-2446669D01*
X53900500Y-1953331D01*
X53898532Y-1945988D01*
X53898530Y-1945980D01*
X53880023Y-1876906D01*
X53861619Y-1845031D01*
X53840460Y-1808382D01*
X53736819Y-1704741D01*
X53703334Y-1643418D01*
X53700500Y-1617060D01*
X53700500Y6994795D01*
X57350000Y6994795D01*
X57350000Y6450000D01*
X58150000Y6450000D01*
X58650000Y6450000D01*
X59449999Y6450000D01*
X59449999Y6994786D01*
X59449997Y6994809D01*
X59447091Y7019870D01*
X59447090Y7019874D01*
X59401788Y7122475D01*
X59401785Y7122480D01*
X59322479Y7201786D01*
X59322474Y7201789D01*
X59219876Y7247090D01*
X59194794Y7250000D01*
X58650000Y7250000D01*
X58650000Y6450000D01*
X58150000Y6450000D01*
X58150000Y7250000D01*
X57605214Y7250000D01*
X57605191Y7249998D01*
X57580130Y7247092D01*
X57580126Y7247091D01*
X57477525Y7201789D01*
X57477520Y7201786D01*
X57398214Y7122480D01*
X57398211Y7122475D01*
X57352910Y7019878D01*
X57352910Y7019876D01*
X57350000Y6994795D01*
X53700500Y6994795D01*
X53700500Y7225768D01*
X53720185Y7292807D01*
X53772989Y7338562D01*
X53826360Y7346237D01*
X53826360Y7349500D01*
X53964773Y7349500D01*
X53964773Y7349501D01*
X54089069Y7385996D01*
X54198049Y7456033D01*
X54282882Y7553937D01*
X54336697Y7671774D01*
X54355133Y7800000D01*
X54355133Y7800001D01*
X54355133Y7808869D01*
X54357604Y7808869D01*
X54365670Y7864996D01*
X54390784Y7901170D01*
X55177797Y8688181D01*
X55239120Y8721666D01*
X55265478Y8724500D01*
X57275500Y8724500D01*
X57342539Y8704815D01*
X57388294Y8652011D01*
X57399500Y8600500D01*
X57399500Y8480248D01*
X57411131Y8421771D01*
X57411132Y8421770D01*
X57455447Y8355448D01*
X57521769Y8311133D01*
X57521770Y8311132D01*
X57580247Y8299501D01*
X57580250Y8299500D01*
X57580252Y8299500D01*
X59219750Y8299500D01*
X59219751Y8299501D01*
X59234568Y8302448D01*
X59278229Y8311132D01*
X59278229Y8311133D01*
X59278231Y8311133D01*
X59344552Y8355448D01*
X59388867Y8421769D01*
X59388867Y8421771D01*
X59388868Y8421771D01*
X59400499Y8480248D01*
X59400500Y8480250D01*
X59400500Y9919751D01*
X59400499Y9919753D01*
X59388868Y9978230D01*
X59388867Y9978231D01*
X59344552Y10044553D01*
X59278230Y10088868D01*
X59278229Y10088869D01*
X59219752Y10100500D01*
X59219748Y10100500D01*
X57580252Y10100500D01*
X57580247Y10100500D01*
X57521770Y10088869D01*
X57521769Y10088868D01*
X57455447Y10044553D01*
X57411132Y9978231D01*
X57411131Y9978230D01*
X57399500Y9919753D01*
X57399500Y9399500D01*
X57379815Y9332461D01*
X57327011Y9286706D01*
X57275500Y9275500D01*
X55045198Y9275500D01*
X54973599Y9245842D01*
X54943939Y9233557D01*
X53997204Y8286819D01*
X53935881Y8253334D01*
X53909523Y8250500D01*
X53826360Y8250500D01*
X53826360Y8253761D01*
X53772963Y8261450D01*
X53720169Y8307217D01*
X53700500Y8374233D01*
X53700500Y10539563D01*
X53697811Y10549596D01*
X53680022Y10615988D01*
X53640460Y10684511D01*
X53436819Y10888152D01*
X53403334Y10949475D01*
X53400500Y10975833D01*
X53400500Y11075500D01*
X53420185Y11142539D01*
X53472989Y11188294D01*
X53524500Y11199500D01*
X57275500Y11199500D01*
X57342539Y11179815D01*
X57388294Y11127011D01*
X57399500Y11075500D01*
X57399500Y10780248D01*
X57411131Y10721771D01*
X57411132Y10721770D01*
X57455447Y10655448D01*
X57521769Y10611133D01*
X57521770Y10611132D01*
X57580247Y10599501D01*
X57580250Y10599500D01*
X57580252Y10599500D01*
X59219750Y10599500D01*
X59219751Y10599501D01*
X59234568Y10602448D01*
X59278229Y10611132D01*
X59278229Y10611133D01*
X59278231Y10611133D01*
X59344552Y10655448D01*
X59388867Y10721769D01*
X59388867Y10721771D01*
X59388868Y10721771D01*
X59400499Y10780248D01*
X59400500Y10780250D01*
X59400500Y12219751D01*
X59400499Y12219753D01*
X59388868Y12278230D01*
X59388867Y12278231D01*
X59344552Y12344553D01*
X59278230Y12388868D01*
X59278229Y12388869D01*
X59219752Y12400500D01*
X59219748Y12400500D01*
X57580252Y12400500D01*
X57580247Y12400500D01*
X57521770Y12388869D01*
X57521769Y12388868D01*
X57455447Y12344553D01*
X57411132Y12278231D01*
X57411131Y12278230D01*
X57399500Y12219753D01*
X57399500Y11924500D01*
X57379815Y11857461D01*
X57327011Y11811706D01*
X57275500Y11800500D01*
X53524500Y11800500D01*
X53457461Y11820185D01*
X53411706Y11872989D01*
X53400500Y11924500D01*
X53400500Y12219751D01*
X53400499Y12219753D01*
X53388868Y12278230D01*
X53388867Y12278231D01*
X53344552Y12344553D01*
X53278230Y12388868D01*
X53278229Y12388869D01*
X53219752Y12400500D01*
X53219748Y12400500D01*
X51580252Y12400500D01*
X51580247Y12400500D01*
X51521770Y12388869D01*
X51521769Y12388868D01*
X51455447Y12344553D01*
X51411132Y12278231D01*
X51411131Y12278230D01*
X51399500Y12219753D01*
X51399500Y10780248D01*
X51411131Y10721771D01*
X51411132Y10721770D01*
X51455447Y10655448D01*
X51521769Y10611133D01*
X51521770Y10611132D01*
X51580247Y10599501D01*
X51580250Y10599500D01*
X51580252Y10599500D01*
X52824167Y10599500D01*
X52891206Y10579815D01*
X52911848Y10563181D01*
X53063181Y10411848D01*
X53096666Y10350525D01*
X53099500Y10324167D01*
X53099500Y10224500D01*
X53079815Y10157461D01*
X53027011Y10111706D01*
X52975500Y10100500D01*
X51580247Y10100500D01*
X51521770Y10088869D01*
X51521770Y10088868D01*
X51488734Y10066794D01*
X51422057Y10045917D01*
X51354677Y10064402D01*
X51332338Y10082078D01*
X51217088Y10168353D01*
X51217086Y10168355D01*
X51082380Y10218597D01*
X51082373Y10218599D01*
X51025000Y10224768D01*
X51025000Y8675235D01*
X51082375Y8681402D01*
X51225399Y8734746D01*
X51225959Y8733243D01*
X51284341Y8745944D01*
X51349806Y8721530D01*
X51391680Y8665599D01*
X51399500Y8622260D01*
X51399500Y8480252D01*
X51399501Y8480248D01*
X51401690Y8469242D01*
X51395461Y8399651D01*
X51367753Y8357371D01*
X50912181Y7901798D01*
X50850858Y7868313D01*
X50781167Y7873297D01*
X50725233Y7915168D01*
X50700816Y7980633D01*
X50700500Y7989479D01*
X50700500Y8739561D01*
X50696814Y8753318D01*
X50680021Y8815989D01*
X50659411Y8851687D01*
X50640464Y8884505D01*
X50640458Y8884513D01*
X50561319Y8963652D01*
X50527834Y9024975D01*
X50525000Y9051333D01*
X50525000Y10224767D01*
X50519883Y10229364D01*
X50468997Y10238543D01*
X50417859Y10286153D01*
X50400500Y10349428D01*
X50400500Y12339561D01*
X50399163Y12344552D01*
X50380021Y12415989D01*
X50358113Y12453935D01*
X50340464Y12484505D01*
X50340458Y12484513D01*
X49119756Y13705215D01*
X51350001Y13705215D01*
X51350002Y13705192D01*
X51352908Y13680131D01*
X51352909Y13680127D01*
X51398211Y13577526D01*
X51398214Y13577521D01*
X51477520Y13498215D01*
X51477525Y13498212D01*
X51580123Y13452911D01*
X51605206Y13450001D01*
X52149999Y13450001D01*
X52650000Y13450001D01*
X53194786Y13450001D01*
X53194808Y13450003D01*
X53219869Y13452909D01*
X53219873Y13452910D01*
X53322474Y13498212D01*
X53322479Y13498215D01*
X53401785Y13577521D01*
X53401788Y13577526D01*
X53447089Y13680123D01*
X53447089Y13680125D01*
X53449999Y13705206D01*
X53450000Y13705209D01*
X53450000Y13755215D01*
X57300001Y13755215D01*
X57300002Y13755192D01*
X57302908Y13730131D01*
X57302909Y13730127D01*
X57348211Y13627526D01*
X57348214Y13627521D01*
X57427520Y13548215D01*
X57427525Y13548212D01*
X57530123Y13502911D01*
X57555206Y13500001D01*
X58149999Y13500001D01*
X58650000Y13500001D01*
X59244786Y13500001D01*
X59244808Y13500003D01*
X59269869Y13502909D01*
X59269873Y13502910D01*
X59372474Y13548212D01*
X59372479Y13548215D01*
X59451785Y13627521D01*
X59451788Y13627526D01*
X59497089Y13730123D01*
X59497089Y13730125D01*
X59499999Y13755206D01*
X59500000Y13755209D01*
X59500000Y14250000D01*
X58650000Y14250000D01*
X58650000Y13500001D01*
X58149999Y13500001D01*
X58150000Y13500002D01*
X58150000Y14250000D01*
X57300001Y14250000D01*
X57300001Y13755215D01*
X53450000Y13755215D01*
X53450000Y14250000D01*
X52650000Y14250000D01*
X52650000Y13450001D01*
X52149999Y13450001D01*
X52150000Y13450002D01*
X52150000Y14250000D01*
X51350001Y14250000D01*
X51350001Y13705215D01*
X49119756Y13705215D01*
X47704512Y15120459D01*
X47704504Y15120465D01*
X47635995Y15160018D01*
X47635990Y15160021D01*
X47610513Y15166848D01*
X47559562Y15180500D01*
X42052938Y15180500D01*
X42014724Y15170261D01*
X41976509Y15160021D01*
X41976504Y15160018D01*
X41907995Y15120465D01*
X41907987Y15120459D01*
X41399348Y14611819D01*
X41338025Y14578334D01*
X41311667Y14575500D01*
X40860749Y14575500D01*
X40762582Y14559953D01*
X40700744Y14528444D01*
X40644249Y14499658D01*
X40644248Y14499657D01*
X40644243Y14499654D01*
X40550346Y14405757D01*
X40550343Y14405752D01*
X40550342Y14405751D01*
X40546083Y14397392D01*
X40490047Y14287418D01*
X40474500Y14189252D01*
X40474500Y13624500D01*
X40454815Y13557461D01*
X40402011Y13511706D01*
X40350500Y13500500D01*
X40313335Y13500500D01*
X40246296Y13520185D01*
X40225654Y13536819D01*
X39696018Y14066455D01*
X39662533Y14127778D01*
X39664251Y14177234D01*
X39662830Y14177421D01*
X39670500Y14235684D01*
X39670500Y14584317D01*
X39664068Y14633172D01*
X39661099Y14639540D01*
X39614065Y14740404D01*
X39530404Y14824065D01*
X39423173Y14874068D01*
X39423171Y14874069D01*
X39423172Y14874069D01*
X39374317Y14880500D01*
X39374316Y14880500D01*
X38925684Y14880500D01*
X38925683Y14880500D01*
X38876828Y14874069D01*
X38769595Y14824065D01*
X38685935Y14740405D01*
X38635931Y14633172D01*
X38629500Y14584317D01*
X38629500Y14235684D01*
X38635931Y14186829D01*
X38685935Y14079596D01*
X38777267Y13988264D01*
X38774443Y13985441D01*
X38805183Y13946958D01*
X38812352Y13877458D01*
X38780808Y13815114D01*
X38777101Y13811902D01*
X38777267Y13811736D01*
X38692350Y13726819D01*
X38631027Y13693334D01*
X38604669Y13690500D01*
X38449500Y13690500D01*
X38382461Y13710185D01*
X38336706Y13762989D01*
X38325500Y13814500D01*
X38325500Y14189252D01*
X38309952Y14287418D01*
X38306592Y14294012D01*
X38249658Y14405751D01*
X38249654Y14405755D01*
X38249653Y14405757D01*
X38155756Y14499654D01*
X38155753Y14499656D01*
X38155751Y14499658D01*
X38037420Y14559951D01*
X38037419Y14559952D01*
X38037416Y14559953D01*
X38037417Y14559953D01*
X37939251Y14575500D01*
X37939246Y14575500D01*
X37435754Y14575500D01*
X37435749Y14575500D01*
X37355614Y14562808D01*
X37286320Y14571763D01*
X37232868Y14616759D01*
X37228836Y14623269D01*
X37219442Y14639540D01*
X37200475Y14672393D01*
X36922393Y14950474D01*
X36922392Y14950475D01*
X36836768Y14999910D01*
X36789016Y15012705D01*
X36789014Y15012706D01*
X36789012Y15012707D01*
X36741266Y15025500D01*
X36741265Y15025500D01*
X35732606Y15025500D01*
X35633734Y15025500D01*
X35538231Y14999911D01*
X35452608Y14950475D01*
X35452605Y14950473D01*
X34899527Y14397395D01*
X34850089Y14311768D01*
X34850089Y14311767D01*
X34845331Y14294010D01*
X34826974Y14225497D01*
X34826971Y14225485D01*
X34824500Y14216267D01*
X34824500Y14216265D01*
X34824500Y7549436D01*
X34824500Y7450564D01*
X34831533Y7424317D01*
X34850090Y7355061D01*
X34853301Y7349500D01*
X34899525Y7269438D01*
X34899526Y7269437D01*
X34899527Y7269436D01*
X36688181Y5480782D01*
X36721666Y5419459D01*
X36724500Y5393101D01*
X36724500Y3482834D01*
X36750090Y3387331D01*
X36750091Y3387328D01*
X36791279Y3315988D01*
X36799522Y3301712D01*
X36799528Y3301703D01*
X38088181Y2013051D01*
X38121666Y1951728D01*
X38124500Y1925370D01*
X38124500Y-761706D01*
X38133137Y-793941D01*
X38150089Y-857205D01*
X38150089Y-857206D01*
X38160057Y-874471D01*
X38199525Y-942831D01*
X38199526Y-942832D01*
X38199527Y-942833D01*
X38701026Y-1444332D01*
X38734511Y-1505655D01*
X38729527Y-1575347D01*
X38687655Y-1631280D01*
X38675345Y-1639400D01*
X38543568Y-1715481D01*
X38543562Y-1715486D01*
X38435486Y-1823562D01*
X38435482Y-1823568D01*
X38359061Y-1955932D01*
X38359060Y-1955935D01*
X38319500Y-2103576D01*
X38319500Y-2256424D01*
X38356355Y-2393967D01*
X38359060Y-2404064D01*
X38359061Y-2404067D01*
X38373927Y-2429815D01*
X38435484Y-2536435D01*
X38543565Y-2644516D01*
X38554230Y-2650673D01*
X38602446Y-2701238D01*
X38615671Y-2769845D01*
X38589704Y-2834710D01*
X38539685Y-2872622D01*
X38471061Y-2901047D01*
X38471051Y-2901052D01*
X38340030Y-2988598D01*
X38340026Y-2988601D01*
X38228601Y-3100026D01*
X38228598Y-3100030D01*
X38141052Y-3231051D01*
X38141047Y-3231061D01*
X38087639Y-3359999D01*
X38087639Y-3360000D01*
X38683012Y-3360000D01*
X38665795Y-3369940D01*
X38609940Y-3425795D01*
X38570444Y-3494204D01*
X38550000Y-3570504D01*
X38550000Y-3649496D01*
X38570444Y-3725796D01*
X38609940Y-3794205D01*
X38665795Y-3850060D01*
X38683012Y-3860000D01*
X38087639Y-3860000D01*
X38141047Y-3988938D01*
X38141052Y-3988948D01*
X38228598Y-4119969D01*
X38228601Y-4119973D01*
X38340029Y-4231401D01*
X38401386Y-4272398D01*
X38446191Y-4326010D01*
X38454898Y-4395335D01*
X38424744Y-4458362D01*
X38365301Y-4495082D01*
X38332495Y-4499500D01*
X36137505Y-4499500D01*
X36070466Y-4479815D01*
X36024711Y-4427011D01*
X36014767Y-4357853D01*
X36043792Y-4294297D01*
X36068614Y-4272398D01*
X36129970Y-4231401D01*
X36241398Y-4119973D01*
X36241401Y-4119969D01*
X36328947Y-3988948D01*
X36328952Y-3988938D01*
X36382361Y-3860000D01*
X35786988Y-3860000D01*
X35804205Y-3850060D01*
X35860060Y-3794205D01*
X35899556Y-3725796D01*
X35920000Y-3649496D01*
X35920000Y-3570504D01*
X35899556Y-3494204D01*
X35860060Y-3425795D01*
X35804205Y-3369940D01*
X35786988Y-3360000D01*
X36382361Y-3360000D01*
X36382360Y-3359999D01*
X36328952Y-3231061D01*
X36328947Y-3231051D01*
X36241401Y-3100030D01*
X36241398Y-3100026D01*
X36129973Y-2988601D01*
X36129969Y-2988598D01*
X35998948Y-2901052D01*
X35998939Y-2901047D01*
X35853351Y-2840743D01*
X35853343Y-2840741D01*
X35698797Y-2810000D01*
X35470000Y-2810000D01*
X35470000Y-3310000D01*
X34970000Y-3310000D01*
X34970000Y-2810000D01*
X34741202Y-2810000D01*
X34586656Y-2840741D01*
X34586648Y-2840743D01*
X34441060Y-2901047D01*
X34441051Y-2901052D01*
X34310030Y-2988598D01*
X34310026Y-2988601D01*
X34198601Y-3100026D01*
X34198598Y-3100030D01*
X34111052Y-3231051D01*
X34111047Y-3231061D01*
X34057639Y-3359999D01*
X34057639Y-3360000D01*
X34653012Y-3360000D01*
X34635795Y-3369940D01*
X34579940Y-3425795D01*
X34540444Y-3494204D01*
X34520000Y-3570504D01*
X34520000Y-3649496D01*
X34540444Y-3725796D01*
X34579940Y-3794205D01*
X34635795Y-3850060D01*
X34653012Y-3860000D01*
X34057639Y-3860000D01*
X34111047Y-3988938D01*
X34111052Y-3988948D01*
X34198598Y-4119969D01*
X34198601Y-4119973D01*
X34310026Y-4231398D01*
X34310030Y-4231401D01*
X34441051Y-4318947D01*
X34441060Y-4318952D01*
X34542426Y-4360939D01*
X34596829Y-4404780D01*
X34618894Y-4471074D01*
X34601615Y-4538773D01*
X34550478Y-4586384D01*
X34494973Y-4599500D01*
X33890730Y-4599500D01*
X33860300Y-4602353D01*
X33860298Y-4602353D01*
X33732119Y-4647206D01*
X33732117Y-4647207D01*
X33622850Y-4727850D01*
X33542207Y-4837117D01*
X33542206Y-4837119D01*
X33497353Y-4965298D01*
X33497353Y-4965300D01*
X33494500Y-4995730D01*
X33494500Y-5804269D01*
X33497353Y-5834699D01*
X33497353Y-5834701D01*
X33542206Y-5962880D01*
X33542207Y-5962882D01*
X33622850Y-6072150D01*
X33732118Y-6152793D01*
X33757287Y-6161600D01*
X33860299Y-6197646D01*
X33890730Y-6200500D01*
X33890734Y-6200500D01*
X34170500Y-6200500D01*
X34237539Y-6220185D01*
X34283294Y-6272989D01*
X34294500Y-6324500D01*
X34294500Y-9075500D01*
X34274815Y-9142539D01*
X34222011Y-9188294D01*
X34170500Y-9199500D01*
X33890730Y-9199500D01*
X33860300Y-9202353D01*
X33860298Y-9202353D01*
X33732119Y-9247206D01*
X33732117Y-9247207D01*
X33622850Y-9327850D01*
X33542207Y-9437117D01*
X33542206Y-9437119D01*
X33497353Y-9565298D01*
X33497353Y-9565300D01*
X33494500Y-9595730D01*
X33494500Y-10046830D01*
X33474815Y-10113869D01*
X33422011Y-10159624D01*
X33352853Y-10169568D01*
X33289297Y-10140543D01*
X33254736Y-10091268D01*
X33239198Y-10050791D01*
X33235187Y-10038448D01*
X33212542Y-9953937D01*
X33149156Y-9717385D01*
X33146464Y-9704717D01*
X33094465Y-9376419D01*
X33093111Y-9363543D01*
X33075544Y-9028368D01*
X33075374Y-9021878D01*
X33075374Y-8972763D01*
X33075358Y-8972608D01*
X33075345Y-8927177D01*
X33071148Y5280001D01*
X34057639Y5280001D01*
X34057639Y5280000D01*
X34653012Y5280000D01*
X34635795Y5270060D01*
X34579940Y5214205D01*
X34540444Y5145796D01*
X34520000Y5069496D01*
X34520000Y4990504D01*
X34540444Y4914204D01*
X34579940Y4845795D01*
X34635795Y4789940D01*
X34653012Y4780000D01*
X34057639Y4780000D01*
X34111047Y4651062D01*
X34111052Y4651052D01*
X34198598Y4520031D01*
X34198601Y4520027D01*
X34310026Y4408602D01*
X34310030Y4408599D01*
X34441051Y4321053D01*
X34441060Y4321048D01*
X34586648Y4260744D01*
X34586656Y4260742D01*
X34741202Y4230001D01*
X34741206Y4230000D01*
X34970000Y4230000D01*
X34970000Y4730000D01*
X35470000Y4730000D01*
X35470000Y4230000D01*
X35698794Y4230000D01*
X35698797Y4230001D01*
X35853343Y4260742D01*
X35853351Y4260744D01*
X35998939Y4321048D01*
X35998948Y4321053D01*
X36129969Y4408599D01*
X36129973Y4408602D01*
X36241398Y4520027D01*
X36241401Y4520031D01*
X36328947Y4651052D01*
X36328952Y4651062D01*
X36382361Y4780000D01*
X35786988Y4780000D01*
X35804205Y4789940D01*
X35860060Y4845795D01*
X35899556Y4914204D01*
X35920000Y4990504D01*
X35920000Y5069496D01*
X35899556Y5145796D01*
X35860060Y5214205D01*
X35804205Y5270060D01*
X35786988Y5280000D01*
X36382361Y5280000D01*
X36382360Y5280001D01*
X36328952Y5408939D01*
X36328947Y5408949D01*
X36241401Y5539970D01*
X36241398Y5539974D01*
X36129973Y5651399D01*
X36129969Y5651402D01*
X35998948Y5738948D01*
X35998939Y5738953D01*
X35853351Y5799257D01*
X35853343Y5799259D01*
X35698797Y5830000D01*
X35470000Y5830000D01*
X35470000Y5330000D01*
X34970000Y5330000D01*
X34970000Y5830000D01*
X34741202Y5830000D01*
X34586656Y5799259D01*
X34586648Y5799257D01*
X34441060Y5738953D01*
X34441051Y5738948D01*
X34310030Y5651402D01*
X34310026Y5651399D01*
X34198601Y5539974D01*
X34198598Y5539970D01*
X34111052Y5408949D01*
X34111047Y5408939D01*
X34057639Y5280001D01*
X33071148Y5280001D01*
X33069060Y12345995D01*
X33069229Y12352449D01*
X33086659Y12685019D01*
X33088013Y12697890D01*
X33139600Y13023590D01*
X33142293Y13036266D01*
X33227645Y13354798D01*
X33231649Y13367120D01*
X33349826Y13674981D01*
X33355096Y13686816D01*
X33504804Y13980637D01*
X33511279Y13991853D01*
X33690880Y14268415D01*
X33698492Y14278893D01*
X33906022Y14535174D01*
X33914690Y14544801D01*
X34147872Y14777985D01*
X34157497Y14786651D01*
X34413763Y14994176D01*
X34424248Y15001794D01*
X34700814Y15181401D01*
X34712033Y15187878D01*
X35005851Y15337589D01*
X35017686Y15342859D01*
X35325548Y15461041D01*
X35337858Y15465041D01*
X35656394Y15550398D01*
X35669051Y15553089D01*
X35994768Y15604682D01*
X36007642Y15606036D01*
X36339356Y15623427D01*
X36345848Y15623596D01*
X51300737Y15623596D01*
X51367776Y15603911D01*
G37*
G04 #@! TD.AperFunction*
G04 #@! TA.AperFunction,Conductor*
G36*
X38891206Y-5120185D02*
G01*
X38911848Y-5136819D01*
X40052163Y-6277134D01*
X40085648Y-6338457D01*
X40080664Y-6408149D01*
X40038792Y-6464082D01*
X40023124Y-6473463D01*
X40019597Y-6475933D01*
X39935935Y-6559595D01*
X39885931Y-6666828D01*
X39879500Y-6715683D01*
X39879500Y-7064316D01*
X39885931Y-7113171D01*
X39885932Y-7113173D01*
X39916349Y-7178403D01*
X39937190Y-7223095D01*
X39947682Y-7292173D01*
X39919162Y-7355957D01*
X39860686Y-7394196D01*
X39824808Y-7399500D01*
X39487997Y-7399500D01*
X39420958Y-7379815D01*
X39387075Y-7347546D01*
X39386072Y-7346141D01*
X39363142Y-7280142D01*
X39379534Y-7212222D01*
X39413362Y-7174324D01*
X39416791Y-7171792D01*
X39497346Y-7062645D01*
X39536762Y-6950000D01*
X37403238Y-6950000D01*
X37442653Y-7062645D01*
X37523208Y-7171792D01*
X37526642Y-7174327D01*
X37529479Y-7178064D01*
X37529778Y-7178363D01*
X37529737Y-7178403D01*
X37568891Y-7229976D01*
X37574347Y-7299632D01*
X37559341Y-7333810D01*
X37560315Y-7334286D01*
X37555802Y-7343516D01*
X37555802Y-7343517D01*
X37547500Y-7360500D01*
X37504426Y-7448608D01*
X37494500Y-7516739D01*
X37494500Y-7883260D01*
X37504426Y-7951391D01*
X37555803Y-8056485D01*
X37611637Y-8112319D01*
X37645122Y-8173642D01*
X37640138Y-8243334D01*
X37611637Y-8287681D01*
X37555803Y-8343514D01*
X37504426Y-8448608D01*
X37494500Y-8516739D01*
X37494500Y-8883260D01*
X37504426Y-8951391D01*
X37555803Y-9056485D01*
X37638514Y-9139196D01*
X37638515Y-9139196D01*
X37638517Y-9139198D01*
X37743607Y-9190573D01*
X37770361Y-9194471D01*
X37811739Y-9200500D01*
X37811740Y-9200500D01*
X39128261Y-9200500D01*
X39169639Y-9194471D01*
X39196393Y-9190573D01*
X39301483Y-9139198D01*
X39384198Y-9056483D01*
X39384200Y-9056477D01*
X39387077Y-9052450D01*
X39442051Y-9009326D01*
X39487997Y-9000500D01*
X39534167Y-9000500D01*
X39601206Y-9020185D01*
X39621848Y-9036819D01*
X39843181Y-9258152D01*
X39876666Y-9319475D01*
X39879500Y-9345833D01*
X39879500Y-9564316D01*
X39879501Y-9564323D01*
X39879702Y-9567390D01*
X39879500Y-9568292D01*
X39879500Y-9568375D01*
X39879482Y-9568375D01*
X39864444Y-9635573D01*
X39814745Y-9684684D01*
X39755967Y-9699500D01*
X35818147Y-9699500D01*
X35751108Y-9679815D01*
X35705353Y-9627011D01*
X35694689Y-9587079D01*
X35692646Y-9565300D01*
X35692646Y-9565298D01*
X35647793Y-9437119D01*
X35647792Y-9437117D01*
X35645615Y-9434167D01*
X35567150Y-9327850D01*
X35457882Y-9247207D01*
X35457880Y-9247206D01*
X35329700Y-9202353D01*
X35299270Y-9199500D01*
X35299266Y-9199500D01*
X35019500Y-9199500D01*
X34952461Y-9179815D01*
X34906706Y-9127011D01*
X34895500Y-9075500D01*
X34895500Y-6450000D01*
X37403238Y-6450000D01*
X38220000Y-6450000D01*
X38720000Y-6450000D01*
X39536761Y-6450000D01*
X39497346Y-6337354D01*
X39416792Y-6228207D01*
X39307645Y-6147653D01*
X39179602Y-6102850D01*
X39149207Y-6100000D01*
X38720000Y-6100000D01*
X38720000Y-6450000D01*
X38220000Y-6450000D01*
X38220000Y-6100000D01*
X37790803Y-6100000D01*
X37760393Y-6102851D01*
X37632354Y-6147653D01*
X37523207Y-6228207D01*
X37442653Y-6337354D01*
X37403238Y-6450000D01*
X34895500Y-6450000D01*
X34895500Y-6324500D01*
X34915185Y-6257461D01*
X34967989Y-6211706D01*
X35019500Y-6200500D01*
X35299270Y-6200500D01*
X35329699Y-6197646D01*
X35329701Y-6197646D01*
X35393790Y-6175219D01*
X35457882Y-6152793D01*
X35567150Y-6072150D01*
X35647793Y-5962882D01*
X35691351Y-5838401D01*
X35692646Y-5834701D01*
X35692646Y-5834699D01*
X35695500Y-5804269D01*
X35695500Y-5224500D01*
X35715185Y-5157461D01*
X35767989Y-5111706D01*
X35819500Y-5100500D01*
X38824167Y-5100500D01*
X38891206Y-5120185D01*
G37*
G04 #@! TD.AperFunction*
G04 #@! TA.AperFunction,Conductor*
G36*
X52657560Y-3689391D02*
G01*
X52709818Y-3735769D01*
X52728706Y-3803037D01*
X52717509Y-3853078D01*
X52663303Y-3971772D01*
X52663302Y-3971773D01*
X52644867Y-4100000D01*
X52663302Y-4228226D01*
X52663303Y-4228228D01*
X52670152Y-4243225D01*
X52680095Y-4312383D01*
X52651068Y-4375938D01*
X52629113Y-4395863D01*
X52620000Y-4402329D01*
X52620000Y-5126000D01*
X52600315Y-5193039D01*
X52547511Y-5238794D01*
X52496000Y-5250000D01*
X51989433Y-5250000D01*
X51957996Y-5267166D01*
X51931638Y-5270000D01*
X51224000Y-5270000D01*
X51156961Y-5250315D01*
X51111206Y-5197511D01*
X51100000Y-5146000D01*
X51100000Y-4894000D01*
X51119685Y-4826961D01*
X51172489Y-4781206D01*
X51224000Y-4770000D01*
X51760567Y-4770000D01*
X51792004Y-4752834D01*
X51818362Y-4750000D01*
X52120000Y-4750000D01*
X52120000Y-4402330D01*
X52119999Y-4402330D01*
X52022079Y-4436594D01*
X51914760Y-4515800D01*
X51849131Y-4539771D01*
X51780961Y-4524456D01*
X51767492Y-4515800D01*
X51727919Y-4486594D01*
X51602732Y-4442788D01*
X51602720Y-4442786D01*
X51573005Y-4439999D01*
X51571365Y-4439923D01*
X51571058Y-4439817D01*
X51570117Y-4439729D01*
X51570138Y-4439499D01*
X51505320Y-4417124D01*
X51462085Y-4362238D01*
X51455388Y-4292690D01*
X51487354Y-4230561D01*
X51489404Y-4228459D01*
X51581047Y-4136816D01*
X51642369Y-4103334D01*
X51668726Y-4100500D01*
X51799560Y-4100500D01*
X51799562Y-4100500D01*
X51875989Y-4080021D01*
X51944511Y-4040460D01*
X52000460Y-3984511D01*
X52268152Y-3716819D01*
X52329475Y-3683334D01*
X52355833Y-3680500D01*
X52574318Y-3680500D01*
X52580025Y-3679748D01*
X52588526Y-3678629D01*
X52657560Y-3689391D01*
G37*
G04 #@! TD.AperFunction*
G04 #@! TA.AperFunction,Conductor*
G36*
X40163039Y-2210185D02*
G01*
X40208794Y-2262989D01*
X40220000Y-2314500D01*
X40220000Y-2616000D01*
X40200315Y-2683039D01*
X40147511Y-2728794D01*
X40096000Y-2740000D01*
X39459762Y-2740000D01*
X39392723Y-2720315D01*
X39346968Y-2667511D01*
X39337024Y-2598353D01*
X39361387Y-2540513D01*
X39364515Y-2536436D01*
X39365362Y-2534969D01*
X39440940Y-2404065D01*
X39460274Y-2331905D01*
X39496639Y-2272246D01*
X39559486Y-2241717D01*
X39580049Y-2240000D01*
X39720000Y-2240000D01*
X39733181Y-2226819D01*
X39794504Y-2193334D01*
X39820862Y-2190500D01*
X40096000Y-2190500D01*
X40163039Y-2210185D01*
G37*
G04 #@! TD.AperFunction*
G04 #@! TA.AperFunction,Conductor*
G36*
X48823217Y-1860595D02*
G01*
X48823308Y-1860336D01*
X48957267Y-1907211D01*
X48957279Y-1907213D01*
X48986991Y-1909999D01*
X49011963Y-1909999D01*
X49079003Y-1929681D01*
X49124760Y-1982483D01*
X49134705Y-2051642D01*
X49105683Y-2115198D01*
X49073971Y-2141384D01*
X49058290Y-2150438D01*
X49042528Y-2159538D01*
X49042522Y-2159542D01*
X48862181Y-2339883D01*
X48800858Y-2373368D01*
X48731166Y-2368384D01*
X48675233Y-2326512D01*
X48650816Y-2261048D01*
X48650500Y-2252202D01*
X48650500Y-1973226D01*
X48670185Y-1906187D01*
X48722989Y-1860432D01*
X48792147Y-1850488D01*
X48823217Y-1860595D01*
G37*
G04 #@! TD.AperFunction*
G04 #@! TA.AperFunction,Conductor*
G36*
X52098023Y8205894D02*
G01*
X52153956Y8164022D01*
X52159621Y8154075D01*
X52159657Y8154098D01*
X52166444Y8143941D01*
X52409212Y7901172D01*
X52442697Y7839849D01*
X52443806Y7808867D01*
X52444867Y7808867D01*
X52444867Y7800001D01*
X52444867Y7800000D01*
X52447517Y7781565D01*
X52463302Y7671775D01*
X52504611Y7581323D01*
X52517118Y7553937D01*
X52541083Y7526280D01*
X52601951Y7456033D01*
X52657619Y7420257D01*
X52703373Y7367453D01*
X52713317Y7298295D01*
X52684292Y7234739D01*
X52678261Y7228261D01*
X52650000Y7200000D01*
X52650000Y5200001D01*
X52975500Y5200001D01*
X53042539Y5180316D01*
X53088294Y5127512D01*
X53099500Y5076001D01*
X53099500Y-1637802D01*
X53079815Y-1704841D01*
X53027011Y-1750596D01*
X53010435Y-1756779D01*
X52910931Y-1785995D01*
X52891217Y-1798665D01*
X52824177Y-1818348D01*
X52757138Y-1798662D01*
X52736498Y-1782029D01*
X52730404Y-1775935D01*
X52681700Y-1753224D01*
X52623173Y-1725932D01*
X52623171Y-1725931D01*
X52623172Y-1725931D01*
X52574317Y-1719500D01*
X52574316Y-1719500D01*
X52125684Y-1719500D01*
X52125683Y-1719500D01*
X52076828Y-1725931D01*
X51969595Y-1775935D01*
X51912681Y-1832850D01*
X51851358Y-1866335D01*
X51781666Y-1861351D01*
X51737319Y-1832850D01*
X51680404Y-1775935D01*
X51631700Y-1753224D01*
X51573173Y-1725932D01*
X51573171Y-1725931D01*
X51573172Y-1725931D01*
X51524317Y-1719500D01*
X51524316Y-1719500D01*
X51305833Y-1719500D01*
X51238794Y-1699815D01*
X51218152Y-1683181D01*
X50974387Y-1439416D01*
X50940902Y-1378093D01*
X50945886Y-1308401D01*
X50968355Y-1270533D01*
X51032879Y-1196067D01*
X51032879Y-1196065D01*
X51032882Y-1196063D01*
X51086697Y-1078226D01*
X51105133Y-950000D01*
X51105133Y-941128D01*
X51107606Y-941128D01*
X51115667Y-885010D01*
X51140784Y-848829D01*
X51528242Y-461371D01*
X51589563Y-427888D01*
X51659255Y-432872D01*
X51709634Y-467852D01*
X51782161Y-551552D01*
X51787827Y-558091D01*
X51896807Y-628128D01*
X52021101Y-664623D01*
X52021103Y-664624D01*
X52021104Y-664624D01*
X52150649Y-664624D01*
X52150649Y-664623D01*
X52274945Y-628128D01*
X52383925Y-558091D01*
X52468758Y-460187D01*
X52522573Y-342350D01*
X52541009Y-214124D01*
X52541009Y-214123D01*
X52541009Y-205255D01*
X52543481Y-205255D01*
X52551545Y-149132D01*
X52576660Y-112955D01*
X52683557Y-6059D01*
X52705861Y47789D01*
X52725500Y95200D01*
X52725500Y4104800D01*
X52715997Y4127743D01*
X52683560Y4206056D01*
X51901296Y4988320D01*
X51867811Y5049643D01*
X51872795Y5119335D01*
X51914667Y5175268D01*
X51980131Y5199685D01*
X51988977Y5200001D01*
X52150000Y5200001D01*
X52150000Y5950000D01*
X51300000Y5950000D01*
X51300000Y5888977D01*
X51280315Y5821938D01*
X51227510Y5776183D01*
X51158352Y5766240D01*
X51094796Y5795266D01*
X51088319Y5801297D01*
X51011819Y5877797D01*
X50978334Y5939120D01*
X50975500Y5965478D01*
X50975500Y6944795D01*
X51300000Y6944795D01*
X51300000Y6450000D01*
X52150000Y6450000D01*
X52150000Y7200000D01*
X51555214Y7200000D01*
X51555191Y7199998D01*
X51530130Y7197092D01*
X51530126Y7197091D01*
X51427525Y7151789D01*
X51427520Y7151786D01*
X51348214Y7072480D01*
X51348211Y7072475D01*
X51302910Y6969878D01*
X51302910Y6969876D01*
X51300000Y6944795D01*
X50975500Y6944795D01*
X50975500Y7134523D01*
X50995185Y7201562D01*
X51011819Y7222204D01*
X51531397Y7741782D01*
X51967009Y8177395D01*
X52028331Y8210878D01*
X52098023Y8205894D01*
G37*
G04 #@! TD.AperFunction*
G04 #@! TA.AperFunction,Conductor*
G36*
X44197486Y3679815D02*
G01*
X44243241Y3627011D01*
X44253185Y3557853D01*
X44244867Y3500000D01*
X44263302Y3371775D01*
X44300848Y3289562D01*
X44317118Y3253937D01*
X44401951Y3156033D01*
X44510931Y3085996D01*
X44635225Y3049501D01*
X44635227Y3049500D01*
X44635228Y3049500D01*
X44709523Y3049500D01*
X44776562Y3029815D01*
X44797204Y3013181D01*
X45813181Y1997204D01*
X45846666Y1935881D01*
X45849500Y1909523D01*
X45849500Y-397397D01*
X45829815Y-464436D01*
X45777011Y-510191D01*
X45707853Y-520135D01*
X45644297Y-491110D01*
X45625731Y-471032D01*
X45584641Y-415359D01*
X45477919Y-336594D01*
X45352727Y-292787D01*
X45352725Y-292786D01*
X45350000Y-292530D01*
X45350000Y-620000D01*
X45709999Y-620000D01*
X45736822Y-598831D01*
X45806364Y-592070D01*
X45868522Y-623979D01*
X45886208Y-644976D01*
X45891441Y-652808D01*
X45891442Y-652809D01*
X45891443Y-652810D01*
X45963182Y-724549D01*
X45996666Y-785870D01*
X45999500Y-812229D01*
X45999500Y-1475767D01*
X45979815Y-1542806D01*
X45927011Y-1588561D01*
X45873640Y-1596241D01*
X45873640Y-1599500D01*
X45814988Y-1599500D01*
X45752988Y-1582887D01*
X45695991Y-1549980D01*
X45695984Y-1549977D01*
X45637908Y-1534415D01*
X45578248Y-1498049D01*
X45547720Y-1435202D01*
X45556015Y-1365827D01*
X45582327Y-1326955D01*
X45584641Y-1324640D01*
X45663403Y-1217922D01*
X45697668Y-1120000D01*
X43974000Y-1120000D01*
X43906961Y-1100315D01*
X43861206Y-1047511D01*
X43850000Y-996000D01*
X43850000Y-292530D01*
X44350000Y-292530D01*
X44350000Y-620000D01*
X44850000Y-620000D01*
X44850000Y-292531D01*
X44849999Y-292530D01*
X44847274Y-292786D01*
X44847272Y-292787D01*
X44722078Y-336595D01*
X44722077Y-336595D01*
X44673633Y-372349D01*
X44608004Y-396320D01*
X44539834Y-381004D01*
X44526367Y-372349D01*
X44477921Y-336595D01*
X44352727Y-292787D01*
X44352725Y-292786D01*
X44350000Y-292530D01*
X43850000Y-292530D01*
X43850000Y-280789D01*
X43829700Y-247426D01*
X43825500Y-215426D01*
X43825500Y1191700D01*
X43845185Y1258739D01*
X43882461Y1296016D01*
X43898049Y1306033D01*
X43982882Y1403937D01*
X44036697Y1521774D01*
X44055133Y1650000D01*
X44036697Y1778226D01*
X43982882Y1896063D01*
X43982880Y1896065D01*
X43982879Y1896068D01*
X43920359Y1968220D01*
X43891334Y2031776D01*
X43901278Y2100934D01*
X43947033Y2153738D01*
X43979135Y2168399D01*
X44039069Y2185996D01*
X44148049Y2256033D01*
X44232882Y2353937D01*
X44286697Y2471774D01*
X44305133Y2600000D01*
X44286697Y2728226D01*
X44232882Y2846063D01*
X44148049Y2943967D01*
X44039069Y3014004D01*
X44039065Y3014006D01*
X44039064Y3014006D01*
X43914774Y3050500D01*
X43914772Y3050500D01*
X43785228Y3050500D01*
X43785226Y3050500D01*
X43660935Y3014006D01*
X43660932Y3014005D01*
X43660931Y3014004D01*
X43621691Y2988786D01*
X43551950Y2943967D01*
X43467118Y2846063D01*
X43467117Y2846062D01*
X43413302Y2728226D01*
X43394867Y2600000D01*
X43394867Y2591133D01*
X43392399Y2591133D01*
X43384318Y2534982D01*
X43359212Y2498829D01*
X43212180Y2351797D01*
X43150859Y2318312D01*
X43081167Y2323296D01*
X43025233Y2365167D01*
X43000816Y2430632D01*
X43000500Y2439478D01*
X43000500Y3074167D01*
X43020185Y3141206D01*
X43036819Y3161848D01*
X43538152Y3663181D01*
X43599475Y3696666D01*
X43625833Y3699500D01*
X44130447Y3699500D01*
X44197486Y3679815D01*
G37*
G04 #@! TD.AperFunction*
G04 #@! TA.AperFunction,Conductor*
G36*
X35780703Y8682409D02*
G01*
X35818477Y8623631D01*
X35819262Y8620834D01*
X35824711Y8600500D01*
X35832479Y8571510D01*
X35832480Y8571509D01*
X35864823Y8515489D01*
X35872040Y8502989D01*
X35872042Y8502987D01*
X38463140Y5911889D01*
X38496625Y5850566D01*
X38491641Y5780874D01*
X38449769Y5724941D01*
X38444350Y5721106D01*
X38340030Y5651402D01*
X38340026Y5651399D01*
X38228601Y5539974D01*
X38228598Y5539970D01*
X38141052Y5408949D01*
X38141047Y5408939D01*
X38087639Y5280001D01*
X38087639Y5280000D01*
X38683012Y5280000D01*
X38665795Y5270060D01*
X38609940Y5214205D01*
X38570444Y5145796D01*
X38550000Y5069496D01*
X38550000Y4990504D01*
X38570444Y4914204D01*
X38609940Y4845795D01*
X38665795Y4789940D01*
X38683012Y4780000D01*
X38087639Y4780000D01*
X38141047Y4651062D01*
X38141052Y4651052D01*
X38228598Y4520031D01*
X38228601Y4520027D01*
X38340026Y4408602D01*
X38340030Y4408599D01*
X38471051Y4321053D01*
X38471064Y4321046D01*
X38539684Y4292623D01*
X38594088Y4248783D01*
X38616153Y4182488D01*
X38598874Y4114789D01*
X38554234Y4070676D01*
X38543568Y4064518D01*
X38543562Y4064514D01*
X38435486Y3956438D01*
X38435482Y3956432D01*
X38359061Y3824068D01*
X38359060Y3824065D01*
X38319500Y3676424D01*
X38319500Y3523576D01*
X38356008Y3387328D01*
X38359060Y3375936D01*
X38359061Y3375933D01*
X38361462Y3371775D01*
X38435484Y3243565D01*
X38543565Y3135484D01*
X38675345Y3059401D01*
X38723561Y3008834D01*
X38736784Y2940227D01*
X38710816Y2875362D01*
X38701027Y2864333D01*
X38587679Y2750986D01*
X38526359Y2717502D01*
X38456667Y2722486D01*
X38412319Y2750987D01*
X37511819Y3651487D01*
X37478334Y3712810D01*
X37475500Y3739168D01*
X37475500Y5649436D01*
X37475220Y5650481D01*
X37474973Y5651402D01*
X37449911Y5744937D01*
X37420854Y5795266D01*
X37400477Y5830560D01*
X37400473Y5830565D01*
X35611819Y7619219D01*
X35578334Y7680542D01*
X35575500Y7706900D01*
X35575500Y8588696D01*
X35595185Y8655735D01*
X35647989Y8701490D01*
X35717147Y8711434D01*
X35780703Y8682409D01*
G37*
G04 #@! TD.AperFunction*
G04 #@! TA.AperFunction,Conductor*
G36*
X40163039Y4533315D02*
G01*
X40208794Y4480511D01*
X40220000Y4429000D01*
X40220000Y4160000D01*
X40839999Y4160000D01*
X40839999Y4254786D01*
X40839997Y4254809D01*
X40837091Y4279870D01*
X40837089Y4279876D01*
X40823954Y4309625D01*
X40814882Y4378903D01*
X40844706Y4442088D01*
X40903955Y4479119D01*
X40973819Y4478238D01*
X41007361Y4459649D01*
X41008119Y4460828D01*
X41015579Y4456034D01*
X41015580Y4456033D01*
X41124560Y4385996D01*
X41220409Y4357853D01*
X41248854Y4349501D01*
X41248856Y4349500D01*
X41248857Y4349500D01*
X41378402Y4349500D01*
X41378402Y4349501D01*
X41502698Y4385996D01*
X41611678Y4456033D01*
X41612003Y4456409D01*
X41612260Y4456704D01*
X41613008Y4457185D01*
X41618383Y4461842D01*
X41619052Y4461070D01*
X41671038Y4494477D01*
X41705972Y4499500D01*
X42430447Y4499500D01*
X42497486Y4479815D01*
X42543241Y4427011D01*
X42553185Y4357853D01*
X42544867Y4300000D01*
X42563302Y4171775D01*
X42612896Y4063181D01*
X42617118Y4053937D01*
X42701951Y3956033D01*
X42742416Y3930028D01*
X42788171Y3877224D01*
X42798115Y3808065D01*
X42769090Y3744510D01*
X42763059Y3738031D01*
X42700803Y3675776D01*
X42515489Y3490460D01*
X42459541Y3434513D01*
X42459535Y3434505D01*
X42419982Y3365996D01*
X42419979Y3365991D01*
X42413775Y3342834D01*
X42377409Y3283173D01*
X42314562Y3252645D01*
X42245187Y3260940D01*
X42191309Y3305426D01*
X42170035Y3371978D01*
X42170000Y3374928D01*
X42170000Y3397399D01*
X42167244Y3426781D01*
X42167242Y3426793D01*
X42123934Y3550558D01*
X42123933Y3550560D01*
X42046065Y3656066D01*
X41940559Y3733934D01*
X41940557Y3733935D01*
X41816786Y3777245D01*
X41800000Y3778819D01*
X41800000Y3084000D01*
X41780315Y3016961D01*
X41727511Y2971206D01*
X41676000Y2960000D01*
X41424000Y2960000D01*
X41356961Y2979685D01*
X41311206Y3032489D01*
X41300000Y3084000D01*
X41300000Y3778818D01*
X41299999Y3778819D01*
X41283214Y3777245D01*
X41283212Y3777245D01*
X41159442Y3733935D01*
X41159440Y3733934D01*
X41053932Y3656064D01*
X41050320Y3651169D01*
X40994671Y3608921D01*
X40925014Y3603467D01*
X40863466Y3636537D01*
X40862873Y3637127D01*
X40840000Y3660000D01*
X39580049Y3660000D01*
X39513010Y3679685D01*
X39467255Y3732489D01*
X39460276Y3751902D01*
X39440940Y3824065D01*
X39364516Y3956435D01*
X39364515Y3956437D01*
X39361387Y3960513D01*
X39336192Y4025682D01*
X39350230Y4094127D01*
X39399044Y4144117D01*
X39459762Y4160000D01*
X39720000Y4160000D01*
X39720000Y4429000D01*
X39739685Y4496039D01*
X39792489Y4541794D01*
X39844000Y4553000D01*
X40096000Y4553000D01*
X40163039Y4533315D01*
G37*
G04 #@! TD.AperFunction*
G04 #@! TA.AperFunction,Conductor*
G36*
X47680202Y7081881D02*
G01*
X47686680Y7075849D01*
X47929585Y6832944D01*
X47963070Y6771621D01*
X47958086Y6701929D01*
X47916214Y6645996D01*
X47911807Y6643088D01*
X47908379Y6640458D01*
X47686681Y6418759D01*
X47625358Y6385274D01*
X47555666Y6390258D01*
X47499733Y6432130D01*
X47475316Y6497594D01*
X47475000Y6506440D01*
X47475000Y6637500D01*
X47175000Y6637500D01*
X47175000Y6029095D01*
X47206990Y6001427D01*
X47244819Y5942683D01*
X47247774Y5904797D01*
X47249500Y5904797D01*
X47249500Y5425833D01*
X47229815Y5358794D01*
X47213185Y5338157D01*
X47133959Y5258930D01*
X47055123Y5180094D01*
X46993800Y5146610D01*
X46924108Y5151594D01*
X46868175Y5193466D01*
X46843758Y5258930D01*
X46847668Y5299872D01*
X46850500Y5310438D01*
X46850500Y5907963D01*
X46870185Y5975002D01*
X46893385Y6001752D01*
X46925000Y6029095D01*
X46925000Y6763500D01*
X46944685Y6830539D01*
X46997489Y6876294D01*
X47049000Y6887500D01*
X47474999Y6887500D01*
X47474999Y6988168D01*
X47494684Y7055207D01*
X47547488Y7100962D01*
X47616646Y7110906D01*
X47680202Y7081881D01*
G37*
G04 #@! TD.AperFunction*
G04 #@! TA.AperFunction,Conductor*
G36*
X42037913Y8459815D02*
G01*
X42049526Y8450000D01*
X42756000Y8450000D01*
X42823039Y8430315D01*
X42868794Y8377511D01*
X42880000Y8326000D01*
X42880000Y7648362D01*
X42860315Y7581323D01*
X42843681Y7560681D01*
X42830000Y7547000D01*
X42830000Y6594380D01*
X42920557Y6626066D01*
X43026064Y6703935D01*
X43057501Y6746530D01*
X43113149Y6788781D01*
X43182805Y6794240D01*
X43244354Y6761173D01*
X43244953Y6760578D01*
X43269596Y6735935D01*
X43376827Y6685932D01*
X43425683Y6679500D01*
X43425684Y6679500D01*
X43774317Y6679500D01*
X43790601Y6681644D01*
X43823173Y6685932D01*
X43930404Y6735935D01*
X44014065Y6819596D01*
X44064068Y6926827D01*
X44070500Y6975684D01*
X44070500Y7025500D01*
X44090185Y7092539D01*
X44142989Y7138294D01*
X44194500Y7149500D01*
X44336703Y7149500D01*
X44384158Y7140060D01*
X44384884Y7139759D01*
X44462191Y7124382D01*
X44524102Y7091998D01*
X44558676Y7031282D01*
X44562000Y7002765D01*
X44562000Y6944110D01*
X44542315Y6877071D01*
X44531716Y6862911D01*
X44517119Y6846065D01*
X44517116Y6846061D01*
X44463302Y6728226D01*
X44444867Y6600000D01*
X44463302Y6471775D01*
X44516170Y6356012D01*
X44526114Y6286853D01*
X44497089Y6223297D01*
X44438311Y6185523D01*
X44403376Y6180500D01*
X42700199Y6180500D01*
X42668136Y6167219D01*
X42636072Y6153937D01*
X42636070Y6153936D01*
X42598941Y6138558D01*
X42397203Y5936819D01*
X42335880Y5903334D01*
X42309522Y5900500D01*
X42235226Y5900500D01*
X42110935Y5864006D01*
X42110932Y5864005D01*
X42110931Y5864004D01*
X42058899Y5830565D01*
X42030663Y5812419D01*
X41963623Y5792735D01*
X41896584Y5812420D01*
X41850829Y5865224D01*
X41840886Y5899090D01*
X41840276Y5903334D01*
X41836697Y5928226D01*
X41782882Y6046063D01*
X41698049Y6143967D01*
X41589069Y6214004D01*
X41589065Y6214006D01*
X41589064Y6214006D01*
X41464774Y6250500D01*
X41464772Y6250500D01*
X41390478Y6250500D01*
X41323439Y6270185D01*
X41302797Y6286819D01*
X40656060Y6933556D01*
X40656057Y6933558D01*
X40645333Y6938000D01*
X40616363Y6950000D01*
X42011182Y6950000D01*
X42012755Y6933215D01*
X42012755Y6933213D01*
X42056065Y6809443D01*
X42056066Y6809441D01*
X42133934Y6703935D01*
X42239443Y6626066D01*
X42239442Y6626066D01*
X42329999Y6594380D01*
X42330000Y6594380D01*
X42330000Y6950000D01*
X42011182Y6950000D01*
X40616363Y6950000D01*
X40554802Y6975500D01*
X40554800Y6975500D01*
X39913999Y6975500D01*
X39846960Y6995185D01*
X39801205Y7047989D01*
X39791261Y7117147D01*
X39820286Y7180703D01*
X39879064Y7218477D01*
X39889808Y7221117D01*
X39957512Y7234585D01*
X39957520Y7234587D01*
X40121307Y7302429D01*
X40121316Y7302434D01*
X40268716Y7400924D01*
X40268720Y7400927D01*
X40317794Y7450001D01*
X42011181Y7450001D01*
X42011182Y7450000D01*
X42330000Y7450000D01*
X42330000Y7761638D01*
X42349685Y7828677D01*
X42366319Y7849319D01*
X42380000Y7863000D01*
X42380000Y7950000D01*
X42052532Y7950000D01*
X42052787Y7947271D01*
X42096594Y7822080D01*
X42096595Y7822078D01*
X42107421Y7807410D01*
X42131392Y7741782D01*
X42116077Y7673611D01*
X42107421Y7660142D01*
X42056066Y7590560D01*
X42056065Y7590558D01*
X42012755Y7466788D01*
X42012755Y7466786D01*
X42011181Y7450001D01*
X40317794Y7450001D01*
X40394073Y7526280D01*
X40394076Y7526284D01*
X40492566Y7673684D01*
X40492571Y7673694D01*
X40560412Y7837477D01*
X40560415Y7837484D01*
X40562904Y7850000D01*
X39700330Y7850000D01*
X39720075Y7869745D01*
X39769444Y7955255D01*
X39795000Y8050630D01*
X39795000Y8149370D01*
X39769444Y8244745D01*
X39720075Y8330255D01*
X39700330Y8350000D01*
X40562905Y8350000D01*
X40568953Y8357371D01*
X40572851Y8400904D01*
X40615715Y8456080D01*
X40681606Y8479322D01*
X40688239Y8479500D01*
X41970874Y8479500D01*
X42037913Y8459815D01*
G37*
G04 #@! TD.AperFunction*
G04 #@! TA.AperFunction,Conductor*
G36*
X50042539Y8430315D02*
G01*
X50088294Y8377511D01*
X50099500Y8326000D01*
X50099500Y7375833D01*
X50079815Y7308794D01*
X50063181Y7288152D01*
X50011848Y7236819D01*
X49950525Y7203334D01*
X49924167Y7200500D01*
X49369553Y7200500D01*
X49302514Y7220185D01*
X49256759Y7272989D01*
X49246815Y7342147D01*
X49247872Y7349501D01*
X49255133Y7400000D01*
X49236697Y7528226D01*
X49221031Y7562529D01*
X49211088Y7631684D01*
X49240112Y7695240D01*
X49298890Y7733015D01*
X49368759Y7733016D01*
X49407460Y7713808D01*
X49512077Y7636597D01*
X49610000Y7602332D01*
X49610000Y8072921D01*
X49626613Y8134922D01*
X49660022Y8192786D01*
X49680500Y8269212D01*
X49680500Y8326000D01*
X49700185Y8393039D01*
X49752989Y8438794D01*
X49804500Y8450000D01*
X49975500Y8450000D01*
X50042539Y8430315D01*
G37*
G04 #@! TD.AperFunction*
G04 #@! TA.AperFunction,Conductor*
G36*
X36618203Y12950314D02*
G01*
X36624680Y12944283D01*
X37169437Y12399525D01*
X37169438Y12399524D01*
X37169440Y12399523D01*
X37187897Y12388867D01*
X37255063Y12350089D01*
X37350564Y12324500D01*
X37350565Y12324500D01*
X37350566Y12324500D01*
X44580677Y12324500D01*
X44647716Y12304815D01*
X44693471Y12252011D01*
X44703415Y12182853D01*
X44697718Y12159545D01*
X44694378Y12150001D01*
X44694378Y12150000D01*
X45050000Y12150000D01*
X45550000Y12150000D01*
X45905622Y12150000D01*
X45905621Y12150001D01*
X45873934Y12240558D01*
X45873933Y12240560D01*
X45796065Y12346066D01*
X45690559Y12423934D01*
X45690557Y12423935D01*
X45566786Y12467245D01*
X45550000Y12468819D01*
X45550000Y12150000D01*
X45050000Y12150000D01*
X45050000Y12492602D01*
X45069685Y12559641D01*
X45086312Y12580277D01*
X45369220Y12863183D01*
X45430542Y12896666D01*
X45456900Y12899500D01*
X46618101Y12899500D01*
X46685140Y12879815D01*
X46705782Y12863181D01*
X46857282Y12711681D01*
X46890767Y12650358D01*
X46885783Y12580666D01*
X46843911Y12524733D01*
X46778447Y12500316D01*
X46769601Y12500000D01*
X46662602Y12500000D01*
X46633219Y12497245D01*
X46633207Y12497243D01*
X46509442Y12453935D01*
X46509440Y12453934D01*
X46403934Y12376066D01*
X46326066Y12270560D01*
X46326065Y12270558D01*
X46294378Y12180001D01*
X46294378Y12180000D01*
X47026000Y12180000D01*
X47093039Y12160315D01*
X47138794Y12107511D01*
X47150000Y12056000D01*
X47150000Y11804000D01*
X47130315Y11736961D01*
X47077511Y11691206D01*
X47026000Y11680000D01*
X46250365Y11680000D01*
X46227122Y11675500D01*
X38454800Y11675500D01*
X38345200Y11675500D01*
X38345198Y11675500D01*
X38345196Y11675499D01*
X38243944Y11633561D01*
X38243942Y11633559D01*
X37743942Y11133557D01*
X37666444Y11056060D01*
X37666443Y11056059D01*
X37666443Y11056058D01*
X37664767Y11052011D01*
X37624500Y10954801D01*
X37624500Y7899833D01*
X37604815Y7832794D01*
X37552011Y7787039D01*
X37482853Y7777095D01*
X37419297Y7806120D01*
X37412819Y7812152D01*
X36449319Y8775652D01*
X36415834Y8836975D01*
X36413000Y8863333D01*
X36413000Y12856601D01*
X36432685Y12923640D01*
X36485489Y12969395D01*
X36554647Y12979339D01*
X36618203Y12950314D01*
G37*
G04 #@! TD.AperFunction*
G04 #@! TA.AperFunction,Conductor*
G36*
X38380703Y9547628D02*
G01*
X38399270Y9527548D01*
X38472848Y9427852D01*
X38472849Y9427852D01*
X38472850Y9427850D01*
X38582118Y9347207D01*
X38614332Y9335935D01*
X38710299Y9302354D01*
X38740730Y9299500D01*
X38740734Y9299500D01*
X39638101Y9299500D01*
X39705140Y9279815D01*
X39725782Y9263181D01*
X39777282Y9211681D01*
X39810767Y9150358D01*
X39805783Y9080666D01*
X39763911Y9024733D01*
X39698447Y9000316D01*
X39689601Y9000000D01*
X39670000Y9000000D01*
X39670000Y8380330D01*
X39650255Y8400075D01*
X39564745Y8449444D01*
X39469370Y8475000D01*
X39370630Y8475000D01*
X39275255Y8449444D01*
X39189745Y8400075D01*
X39170000Y8380330D01*
X39170000Y9000000D01*
X39056353Y9000000D01*
X38882487Y8965416D01*
X38882479Y8965414D01*
X38718692Y8897572D01*
X38718683Y8897567D01*
X38571283Y8799077D01*
X38571279Y8799074D01*
X38445926Y8673721D01*
X38445923Y8673717D01*
X38402602Y8608882D01*
X38348990Y8564077D01*
X38279665Y8555370D01*
X38216637Y8585525D01*
X38179918Y8644968D01*
X38175500Y8677773D01*
X38175500Y9453915D01*
X38195185Y9520954D01*
X38247989Y9566709D01*
X38317147Y9576653D01*
X38380703Y9547628D01*
G37*
G04 #@! TD.AperFunction*
G04 #@! TA.AperFunction,Conductor*
G36*
X44722539Y11104815D02*
G01*
X44768294Y11052011D01*
X44779500Y11000500D01*
X44779500Y10705684D01*
X44785931Y10656829D01*
X44785932Y10656827D01*
X44835935Y10549596D01*
X44919596Y10465935D01*
X45026827Y10415932D01*
X45026829Y10415932D01*
X45027905Y10415430D01*
X45080344Y10369258D01*
X45099500Y10303048D01*
X45099500Y9747938D01*
X45113152Y9696987D01*
X45119979Y9671510D01*
X45119980Y9671509D01*
X45152323Y9615489D01*
X45159540Y9602989D01*
X45159542Y9602987D01*
X45188181Y9574348D01*
X45221666Y9513025D01*
X45224500Y9486667D01*
X45224500Y9399500D01*
X45204815Y9332461D01*
X45152011Y9286706D01*
X45100500Y9275500D01*
X45013333Y9275500D01*
X44946294Y9295185D01*
X44925652Y9311819D01*
X44197012Y10040459D01*
X44197011Y10040460D01*
X44175204Y10053050D01*
X44175204Y10053052D01*
X44175201Y10053052D01*
X44128494Y10080019D01*
X44128485Y10080023D01*
X44118497Y10082699D01*
X44058837Y10119064D01*
X44038211Y10150066D01*
X44024065Y10180404D01*
X43940404Y10264065D01*
X43833173Y10314068D01*
X43833171Y10314069D01*
X43833172Y10314069D01*
X43784317Y10320500D01*
X43784316Y10320500D01*
X43435684Y10320500D01*
X43435683Y10320500D01*
X43386828Y10314069D01*
X43279596Y10264066D01*
X43254952Y10239421D01*
X43193628Y10205937D01*
X43123937Y10210923D01*
X43068004Y10252795D01*
X43067502Y10253470D01*
X43036065Y10296066D01*
X42930559Y10373934D01*
X42930557Y10373935D01*
X42840000Y10405622D01*
X42840000Y9674000D01*
X42820315Y9606961D01*
X42767511Y9561206D01*
X42716000Y9550000D01*
X42021182Y9550000D01*
X42022755Y9533215D01*
X42022755Y9533213D01*
X42069135Y9400671D01*
X42067024Y9399933D01*
X42078404Y9343978D01*
X42053101Y9278850D01*
X41996605Y9237741D01*
X41954851Y9230500D01*
X40871900Y9230500D01*
X40804861Y9250185D01*
X40784219Y9266819D01*
X40659508Y9391530D01*
X40520026Y9531011D01*
X40486542Y9592333D01*
X40490667Y9659649D01*
X40492646Y9665301D01*
X40493229Y9671509D01*
X40495500Y9695731D01*
X40495500Y10050001D01*
X42021181Y10050001D01*
X42021182Y10050000D01*
X42340000Y10050000D01*
X42340000Y10405622D01*
X42339999Y10405622D01*
X42249442Y10373935D01*
X42249440Y10373934D01*
X42143934Y10296066D01*
X42066066Y10190560D01*
X42066065Y10190558D01*
X42022755Y10066788D01*
X42022755Y10066786D01*
X42021181Y10050001D01*
X40495500Y10050001D01*
X40495500Y10504270D01*
X40492646Y10534700D01*
X40492646Y10534702D01*
X40450394Y10655448D01*
X40447793Y10662882D01*
X40367150Y10772150D01*
X40257882Y10852793D01*
X40257880Y10852794D01*
X40170245Y10883459D01*
X40113469Y10924181D01*
X40087722Y10989134D01*
X40101179Y11057695D01*
X40149566Y11108098D01*
X40211200Y11124500D01*
X44655500Y11124500D01*
X44722539Y11104815D01*
G37*
G04 #@! TD.AperFunction*
G04 #@! TA.AperFunction,Conductor*
G36*
X46981206Y14089815D02*
G01*
X47001848Y14073181D01*
X49320858Y11754171D01*
X49354343Y11692848D01*
X49349359Y11623156D01*
X49307487Y11567223D01*
X49304932Y11565360D01*
X49280000Y11547670D01*
X49280000Y10824000D01*
X49260315Y10756961D01*
X49207511Y10711206D01*
X49156000Y10700000D01*
X48904000Y10700000D01*
X48836961Y10719685D01*
X48791206Y10772489D01*
X48780000Y10824000D01*
X48780000Y11547670D01*
X48779999Y11547670D01*
X48682077Y11513405D01*
X48682076Y11513405D01*
X48643133Y11484663D01*
X48577504Y11460692D01*
X48509334Y11476008D01*
X48460266Y11525748D01*
X48445500Y11584433D01*
X48445500Y12079433D01*
X48445500Y12079435D01*
X48419910Y12174938D01*
X48370547Y12260438D01*
X48370475Y12260563D01*
X47055563Y13575474D01*
X47055562Y13575475D01*
X46969938Y13624910D01*
X46922186Y13637705D01*
X46922184Y13637706D01*
X46922182Y13637707D01*
X46874436Y13650500D01*
X46874435Y13650500D01*
X45299436Y13650500D01*
X45200564Y13650500D01*
X45105063Y13624911D01*
X45105060Y13624910D01*
X45019440Y13575478D01*
X45019435Y13575474D01*
X44882181Y13438219D01*
X44820858Y13404734D01*
X44751166Y13409718D01*
X44695233Y13451590D01*
X44670816Y13517054D01*
X44670500Y13525900D01*
X44670500Y13564317D01*
X44667262Y13588915D01*
X44664068Y13613173D01*
X44614065Y13720404D01*
X44530404Y13804065D01*
X44522733Y13811736D01*
X44525561Y13814565D01*
X44494843Y13852977D01*
X44487635Y13922474D01*
X44519143Y13984835D01*
X44522903Y13988094D01*
X44522733Y13988264D01*
X44607650Y14073181D01*
X44668973Y14106666D01*
X44695331Y14109500D01*
X46914167Y14109500D01*
X46981206Y14089815D01*
G37*
G04 #@! TD.AperFunction*
G04 #@! TD*
M02*
