G04 #@! TF.GenerationSoftware,KiCad,Pcbnew,8.0.2*
G04 #@! TF.CreationDate,2024-05-29T23:16:06+02:00*
G04 #@! TF.ProjectId,ESP32-C3,45535033-322d-4433-932e-6b696361645f,rev?*
G04 #@! TF.SameCoordinates,Original*
G04 #@! TF.FileFunction,Legend,Bot*
G04 #@! TF.FilePolarity,Positive*
%FSLAX46Y46*%
G04 Gerber Fmt 4.6, Leading zero omitted, Abs format (unit mm)*
G04 Created by KiCad (PCBNEW 8.0.2) date 2024-05-29 23:16:06*
%MOMM*%
%LPD*%
G01*
G04 APERTURE LIST*
%ADD10C,0.300000*%
%ADD11C,0.200000*%
%ADD12C,0.120000*%
G04 APERTURE END LIST*
D10*
G36*
X54010529Y8808319D02*
G01*
X54049193Y8771329D01*
X54101807Y8669995D01*
X54166984Y8418804D01*
X54169373Y8098568D01*
X54108774Y7846665D01*
X54054637Y7734133D01*
X54017648Y7695470D01*
X53927435Y7648631D01*
X53854738Y7647414D01*
X53766164Y7690025D01*
X53727502Y7727013D01*
X53674887Y7828350D01*
X53609708Y8079542D01*
X53607319Y8399776D01*
X53667919Y8651680D01*
X53722055Y8764211D01*
X53759047Y8802876D01*
X53849258Y8849714D01*
X53921954Y8850931D01*
X54010529Y8808319D01*
G37*
G36*
X59010528Y8808319D02*
G01*
X59049192Y8771329D01*
X59101806Y8669995D01*
X59166983Y8418804D01*
X59169372Y8098568D01*
X59108773Y7846665D01*
X59054636Y7734133D01*
X59017647Y7695470D01*
X58927434Y7648631D01*
X58854737Y7647414D01*
X58766163Y7690025D01*
X58727501Y7727013D01*
X58674886Y7828350D01*
X58609707Y8079542D01*
X58607318Y8399776D01*
X58667918Y8651680D01*
X58722054Y8764211D01*
X58759046Y8802876D01*
X58849257Y8849714D01*
X58921953Y8850931D01*
X59010528Y8808319D01*
G37*
G36*
X50367669Y10723236D02*
G01*
X50406335Y10686245D01*
X50452830Y10596694D01*
X50455081Y10239061D01*
X50411778Y10149049D01*
X50374787Y10110384D01*
X50285060Y10063797D01*
X50070062Y10061830D01*
X50037470Y10077509D01*
X50035911Y10750283D01*
X50063061Y10764380D01*
X50278057Y10766347D01*
X50367669Y10723236D01*
G37*
G36*
X49062116Y10732781D02*
G01*
X49095639Y10668214D01*
X49095984Y10596252D01*
X48686448Y10676541D01*
X48712510Y10730717D01*
X48777346Y10764380D01*
X48992343Y10766347D01*
X49062116Y10732781D01*
G37*
G36*
X52704973Y10304209D02*
G01*
X52738886Y10238892D01*
X52740103Y10166195D01*
X52707036Y10097459D01*
X52642308Y10063852D01*
X52356012Y10061716D01*
X52323482Y10077366D01*
X52322569Y10335559D01*
X52634964Y10337889D01*
X52704973Y10304209D01*
G37*
G36*
X59110810Y12906777D02*
G01*
X58808848Y12905606D01*
X58959123Y13359136D01*
X59110810Y12906777D01*
G37*
G36*
X59775264Y7182505D02*
G01*
X47145989Y7182505D01*
X47145989Y8028436D01*
X50384087Y8028436D01*
X50384087Y7969908D01*
X50406485Y7915836D01*
X50447869Y7874452D01*
X50501941Y7852054D01*
X50531205Y7849172D01*
X50597310Y7849371D01*
X50598373Y7469908D01*
X50620771Y7415836D01*
X50662155Y7374452D01*
X50716227Y7352054D01*
X50774755Y7352054D01*
X50828827Y7374452D01*
X50870211Y7415836D01*
X50892609Y7469908D01*
X50895491Y7499172D01*
X50894507Y7850266D01*
X51455959Y7851955D01*
X51478536Y7850350D01*
X51483598Y7852038D01*
X51489040Y7852054D01*
X51511256Y7861257D01*
X51534061Y7868858D01*
X51538132Y7872390D01*
X51543112Y7874452D01*
X51560117Y7891458D01*
X51578275Y7907206D01*
X51580684Y7912025D01*
X51584496Y7915836D01*
X51593699Y7938054D01*
X51604449Y7959553D01*
X51604830Y7964928D01*
X51606894Y7969908D01*
X51606894Y7993957D01*
X51608598Y8017933D01*
X51606894Y8025427D01*
X51606894Y8028436D01*
X51605377Y8032098D01*
X51602078Y8046607D01*
X51377950Y8713458D01*
X51881204Y8713458D01*
X51883618Y8569242D01*
X51882382Y8551839D01*
X51884031Y8544585D01*
X51884086Y8541336D01*
X51885602Y8537675D01*
X51888902Y8523165D01*
X51955515Y8330606D01*
X51955515Y8327052D01*
X51962973Y8309046D01*
X51972319Y8282030D01*
X51975849Y8277960D01*
X51977912Y8272980D01*
X51996567Y8250249D01*
X52601523Y7648095D01*
X52001940Y7646290D01*
X51947868Y7623892D01*
X51906484Y7582508D01*
X51884086Y7528436D01*
X51884086Y7469908D01*
X51906484Y7415836D01*
X51947868Y7374452D01*
X52001940Y7352054D01*
X52031204Y7349172D01*
X52989040Y7352054D01*
X53020313Y7365008D01*
X53043111Y7374451D01*
X53084497Y7415837D01*
X53102605Y7459554D01*
X53106894Y7469908D01*
X53106894Y7528436D01*
X53100333Y7544273D01*
X53084497Y7582508D01*
X53065842Y7605238D01*
X52239509Y8427743D01*
X53309775Y8427743D01*
X53312371Y8079570D01*
X53309952Y8063309D01*
X53312628Y8045214D01*
X53312657Y8041336D01*
X53313503Y8039292D01*
X53314254Y8034219D01*
X53385512Y7759599D01*
X53386531Y7745267D01*
X53394919Y7723347D01*
X53395576Y7720815D01*
X53396220Y7719945D01*
X53397040Y7717804D01*
X53471051Y7575258D01*
X53477912Y7558695D01*
X53482646Y7552926D01*
X53484134Y7550061D01*
X53487128Y7547464D01*
X53496566Y7535964D01*
X53571719Y7464063D01*
X53582094Y7452101D01*
X53588317Y7448184D01*
X53590725Y7445880D01*
X53594384Y7444365D01*
X53606979Y7436436D01*
X53731504Y7376530D01*
X53733582Y7374452D01*
X53749704Y7367774D01*
X53777300Y7354498D01*
X53782675Y7354117D01*
X53787654Y7352054D01*
X53816918Y7349172D01*
X53938442Y7351207D01*
X53941013Y7350350D01*
X53957582Y7351528D01*
X53989039Y7352054D01*
X53994017Y7354117D01*
X53999393Y7354498D01*
X54026856Y7365008D01*
X54169396Y7439016D01*
X54185969Y7445880D01*
X54191739Y7450616D01*
X54194600Y7452101D01*
X54197194Y7455093D01*
X54208700Y7464535D01*
X54280595Y7539685D01*
X54292560Y7550061D01*
X54296478Y7556287D01*
X54298782Y7558694D01*
X54300297Y7562354D01*
X54308225Y7574947D01*
X54373367Y7710355D01*
X54381118Y7720815D01*
X54388961Y7742770D01*
X54390163Y7745267D01*
X54390239Y7746348D01*
X54391011Y7748506D01*
X54457879Y8026475D01*
X54464036Y8041336D01*
X54465824Y8059502D01*
X54466741Y8063309D01*
X54466415Y8065497D01*
X54466918Y8070600D01*
X54464321Y8418774D01*
X54466741Y8435034D01*
X54464064Y8453129D01*
X54464036Y8457007D01*
X54463188Y8459052D01*
X54462439Y8464123D01*
X54397742Y8713458D01*
X54738346Y8713458D01*
X54740760Y8569242D01*
X54739524Y8551839D01*
X54741173Y8544585D01*
X54741228Y8541336D01*
X54742744Y8537675D01*
X54746044Y8523165D01*
X54812657Y8330606D01*
X54812657Y8327052D01*
X54820115Y8309046D01*
X54829461Y8282030D01*
X54832991Y8277960D01*
X54835054Y8272980D01*
X54853709Y8250249D01*
X55458665Y7648095D01*
X54859082Y7646290D01*
X54805010Y7623892D01*
X54763626Y7582508D01*
X54741228Y7528436D01*
X54741228Y7469908D01*
X54763626Y7415836D01*
X54805010Y7374452D01*
X54859082Y7352054D01*
X54888346Y7349172D01*
X55846182Y7352054D01*
X55877455Y7365008D01*
X55900253Y7374451D01*
X55941639Y7415837D01*
X55959747Y7459554D01*
X55964036Y7469908D01*
X55964036Y7528436D01*
X55957475Y7544273D01*
X55941639Y7582508D01*
X55927396Y7599862D01*
X56169800Y7599862D01*
X56169800Y7541336D01*
X56172026Y7535963D01*
X56192197Y7487265D01*
X56192198Y7487264D01*
X56210853Y7464533D01*
X56305011Y7374452D01*
X56305012Y7374451D01*
X56327810Y7365008D01*
X56359083Y7352054D01*
X56359084Y7352054D01*
X56359085Y7352054D01*
X56417610Y7352054D01*
X56417611Y7352054D01*
X56448884Y7365008D01*
X56471682Y7374451D01*
X56494413Y7393106D01*
X56584496Y7487264D01*
X56606892Y7541337D01*
X56606892Y7567746D01*
X56606893Y7599862D01*
X56584496Y7653935D01*
X56565842Y7676665D01*
X56471683Y7766749D01*
X56471682Y7766750D01*
X56440008Y7779870D01*
X56417611Y7789147D01*
X56359083Y7789147D01*
X56336686Y7779870D01*
X56305012Y7766750D01*
X56282281Y7748095D01*
X56192197Y7653935D01*
X56172027Y7605238D01*
X56169800Y7599862D01*
X55927396Y7599862D01*
X55922984Y7605238D01*
X55383695Y8142029D01*
X56881203Y8142029D01*
X56883697Y7807597D01*
X56882381Y7803647D01*
X56883884Y7782490D01*
X56884085Y7755622D01*
X56886148Y7750642D01*
X56886530Y7745267D01*
X56897039Y7717804D01*
X56971048Y7575262D01*
X56977911Y7558694D01*
X56982646Y7552924D01*
X56984133Y7550061D01*
X56987126Y7547465D01*
X56996566Y7535963D01*
X57071721Y7464062D01*
X57082094Y7452101D01*
X57088317Y7448184D01*
X57090726Y7445879D01*
X57094387Y7444363D01*
X57106979Y7436436D01*
X57231504Y7376530D01*
X57233582Y7374452D01*
X57249704Y7367774D01*
X57277300Y7354498D01*
X57282675Y7354117D01*
X57287654Y7352054D01*
X57316918Y7349172D01*
X57651350Y7351667D01*
X57655299Y7350350D01*
X57676461Y7351854D01*
X57703325Y7352054D01*
X57708303Y7354117D01*
X57713679Y7354498D01*
X57741143Y7365008D01*
X57883686Y7439018D01*
X57900254Y7445880D01*
X57906022Y7450615D01*
X57908886Y7452101D01*
X57911482Y7455096D01*
X57922985Y7464535D01*
X58013067Y7558694D01*
X58035464Y7612767D01*
X58035463Y7671293D01*
X58013066Y7725365D01*
X57971680Y7766750D01*
X57917608Y7789147D01*
X57859082Y7789146D01*
X57805010Y7766749D01*
X57782279Y7748094D01*
X57731931Y7695468D01*
X57642309Y7648936D01*
X57356013Y7646800D01*
X57266164Y7690025D01*
X57227501Y7727014D01*
X57180966Y7816640D01*
X57178830Y8102934D01*
X57222055Y8192782D01*
X57259046Y8231447D01*
X57348670Y8277980D01*
X57634965Y8280116D01*
X57724814Y8236891D01*
X57770685Y8193005D01*
X57772537Y8189554D01*
X57784660Y8179635D01*
X57805010Y8160166D01*
X57811988Y8157276D01*
X57817834Y8152493D01*
X57838825Y8146160D01*
X57859082Y8137769D01*
X57866634Y8137769D01*
X57873866Y8135587D01*
X57895682Y8137769D01*
X57917608Y8137768D01*
X57924586Y8140659D01*
X57932103Y8141410D01*
X57951422Y8151775D01*
X57971680Y8160165D01*
X57977022Y8165508D01*
X57983678Y8169078D01*
X57997558Y8186044D01*
X58013066Y8201550D01*
X58015956Y8208530D01*
X58020739Y8214374D01*
X58027073Y8235369D01*
X58035463Y8255622D01*
X58035463Y8263172D01*
X58037646Y8270406D01*
X58037602Y8299812D01*
X58024310Y8427743D01*
X58309774Y8427743D01*
X58312370Y8079570D01*
X58309951Y8063309D01*
X58312627Y8045214D01*
X58312656Y8041336D01*
X58313502Y8039292D01*
X58314253Y8034219D01*
X58385511Y7759599D01*
X58386530Y7745267D01*
X58394918Y7723347D01*
X58395575Y7720815D01*
X58396219Y7719945D01*
X58397039Y7717804D01*
X58471050Y7575258D01*
X58477911Y7558695D01*
X58482645Y7552926D01*
X58484133Y7550061D01*
X58487127Y7547464D01*
X58496565Y7535964D01*
X58571718Y7464063D01*
X58582093Y7452101D01*
X58588316Y7448184D01*
X58590724Y7445880D01*
X58594383Y7444365D01*
X58606978Y7436436D01*
X58731503Y7376530D01*
X58733581Y7374452D01*
X58749703Y7367774D01*
X58777299Y7354498D01*
X58782674Y7354117D01*
X58787653Y7352054D01*
X58816917Y7349172D01*
X58938441Y7351207D01*
X58941012Y7350350D01*
X58957581Y7351528D01*
X58989038Y7352054D01*
X58994016Y7354117D01*
X58999392Y7354498D01*
X59026855Y7365008D01*
X59169395Y7439016D01*
X59185968Y7445880D01*
X59191738Y7450616D01*
X59194599Y7452101D01*
X59197193Y7455093D01*
X59208699Y7464535D01*
X59280594Y7539685D01*
X59292559Y7550061D01*
X59296477Y7556287D01*
X59298781Y7558694D01*
X59300296Y7562354D01*
X59308224Y7574947D01*
X59373366Y7710355D01*
X59381117Y7720815D01*
X59388960Y7742770D01*
X59390162Y7745267D01*
X59390238Y7746348D01*
X59391010Y7748506D01*
X59457878Y8026475D01*
X59464035Y8041336D01*
X59465823Y8059502D01*
X59466740Y8063309D01*
X59466414Y8065497D01*
X59466917Y8070600D01*
X59464320Y8418774D01*
X59466740Y8435034D01*
X59464063Y8453129D01*
X59464035Y8457007D01*
X59463187Y8459052D01*
X59462438Y8464123D01*
X59391180Y8738745D01*
X59390162Y8753077D01*
X59381773Y8775001D01*
X59381117Y8777529D01*
X59380472Y8778399D01*
X59379653Y8780541D01*
X59305642Y8923084D01*
X59298781Y8939651D01*
X59294044Y8945423D01*
X59292559Y8948283D01*
X59289566Y8950879D01*
X59280126Y8962381D01*
X59204976Y9034278D01*
X59194600Y9046242D01*
X59188374Y9050161D01*
X59185967Y9052464D01*
X59182307Y9053980D01*
X59169714Y9061907D01*
X59045186Y9121816D01*
X59043110Y9123892D01*
X59026992Y9130569D01*
X58999393Y9143846D01*
X58994015Y9144229D01*
X58989038Y9146290D01*
X58959774Y9149172D01*
X58838248Y9147138D01*
X58835678Y9147994D01*
X58819113Y9146817D01*
X58787653Y9146290D01*
X58782672Y9144227D01*
X58777298Y9143845D01*
X58749834Y9133336D01*
X58607291Y9059326D01*
X58590724Y9052464D01*
X58584952Y9047728D01*
X58582092Y9046242D01*
X58579496Y9043250D01*
X58567994Y9033809D01*
X58496097Y8958660D01*
X58484133Y8948283D01*
X58480214Y8942058D01*
X58477911Y8939650D01*
X58476395Y8935991D01*
X58468468Y8923397D01*
X58403325Y8787990D01*
X58395575Y8777529D01*
X58387731Y8755575D01*
X58386530Y8753077D01*
X58386453Y8751997D01*
X58385682Y8749838D01*
X58318812Y8471870D01*
X58312656Y8457007D01*
X58310867Y8438842D01*
X58309951Y8435034D01*
X58310276Y8432847D01*
X58309774Y8427743D01*
X58024310Y8427743D01*
X57964036Y9007876D01*
X57964036Y9028436D01*
X57961184Y9035320D01*
X57960394Y9042929D01*
X57950029Y9062251D01*
X57941638Y9082508D01*
X57936297Y9087849D01*
X57932727Y9094504D01*
X57915759Y9108387D01*
X57900254Y9123892D01*
X57893274Y9126784D01*
X57887430Y9131565D01*
X57866441Y9137899D01*
X57846182Y9146290D01*
X57834970Y9147395D01*
X57831398Y9148472D01*
X57827740Y9148107D01*
X57816918Y9149172D01*
X57073368Y9146290D01*
X57019296Y9123892D01*
X56977912Y9082508D01*
X56955514Y9028436D01*
X56955514Y8969908D01*
X56977912Y8915836D01*
X57019296Y8874452D01*
X57073368Y8852054D01*
X57102632Y8849172D01*
X57681462Y8851416D01*
X57710426Y8572649D01*
X57708303Y8572799D01*
X57703325Y8574861D01*
X57674061Y8577743D01*
X57339628Y8575249D01*
X57335680Y8576565D01*
X57314517Y8575062D01*
X57287654Y8574861D01*
X57282675Y8572799D01*
X57277300Y8572417D01*
X57249837Y8561907D01*
X57107299Y8487902D01*
X57090726Y8481036D01*
X57084953Y8476299D01*
X57082094Y8474814D01*
X57079499Y8471823D01*
X57067995Y8462381D01*
X56996097Y8387231D01*
X56984133Y8376854D01*
X56980214Y8370629D01*
X56977911Y8368221D01*
X56976395Y8364562D01*
X56968468Y8351968D01*
X56908561Y8227444D01*
X56906483Y8225365D01*
X56899801Y8209234D01*
X56886530Y8181648D01*
X56886148Y8176274D01*
X56884085Y8171293D01*
X56881203Y8142029D01*
X55383695Y8142029D01*
X55092267Y8432107D01*
X55038040Y8588863D01*
X55036587Y8675638D01*
X55079198Y8764211D01*
X55116188Y8802875D01*
X55205814Y8849409D01*
X55492108Y8851545D01*
X55581956Y8808321D01*
X55662153Y8731594D01*
X55716226Y8709198D01*
X55774752Y8709198D01*
X55828824Y8731594D01*
X55870210Y8772980D01*
X55892606Y8827052D01*
X55892606Y8885578D01*
X55870210Y8939651D01*
X55851555Y8962381D01*
X55776405Y9034278D01*
X55766029Y9046242D01*
X55759803Y9050161D01*
X55757396Y9052464D01*
X55753736Y9053980D01*
X55741143Y9061907D01*
X55616618Y9121814D01*
X55614540Y9123892D01*
X55598408Y9130574D01*
X55570823Y9143845D01*
X55565448Y9144227D01*
X55560468Y9146290D01*
X55531204Y9149172D01*
X55196771Y9146678D01*
X55192822Y9147994D01*
X55171664Y9146491D01*
X55144797Y9146290D01*
X55139816Y9144227D01*
X55134442Y9143845D01*
X55106978Y9133336D01*
X54964434Y9059326D01*
X54947869Y9052464D01*
X54942098Y9047729D01*
X54939236Y9046242D01*
X54936639Y9043249D01*
X54925139Y9033810D01*
X54853241Y8958661D01*
X54841276Y8948283D01*
X54837357Y8942058D01*
X54835055Y8939651D01*
X54833539Y8935993D01*
X54825611Y8923397D01*
X54765704Y8798873D01*
X54763626Y8796794D01*
X54756944Y8780663D01*
X54743673Y8753077D01*
X54743291Y8747703D01*
X54741228Y8742722D01*
X54738346Y8713458D01*
X54397742Y8713458D01*
X54391181Y8738745D01*
X54390163Y8753077D01*
X54381774Y8775001D01*
X54381118Y8777529D01*
X54380473Y8778399D01*
X54379654Y8780541D01*
X54305643Y8923084D01*
X54298782Y8939651D01*
X54294045Y8945423D01*
X54292560Y8948283D01*
X54289567Y8950879D01*
X54280127Y8962381D01*
X54204977Y9034278D01*
X54194601Y9046242D01*
X54188375Y9050161D01*
X54185968Y9052464D01*
X54182308Y9053980D01*
X54169715Y9061907D01*
X54045187Y9121816D01*
X54043111Y9123892D01*
X54026993Y9130569D01*
X53999394Y9143846D01*
X53994016Y9144229D01*
X53989039Y9146290D01*
X53959775Y9149172D01*
X53838249Y9147138D01*
X53835679Y9147994D01*
X53819114Y9146817D01*
X53787654Y9146290D01*
X53782673Y9144227D01*
X53777299Y9143845D01*
X53749835Y9133336D01*
X53607292Y9059326D01*
X53590725Y9052464D01*
X53584953Y9047728D01*
X53582093Y9046242D01*
X53579497Y9043250D01*
X53567995Y9033809D01*
X53496098Y8958660D01*
X53484134Y8948283D01*
X53480215Y8942058D01*
X53477912Y8939650D01*
X53476396Y8935991D01*
X53468469Y8923397D01*
X53403326Y8787990D01*
X53395576Y8777529D01*
X53387732Y8755575D01*
X53386531Y8753077D01*
X53386454Y8751997D01*
X53385683Y8749838D01*
X53318813Y8471870D01*
X53312657Y8457007D01*
X53310868Y8438842D01*
X53309952Y8435034D01*
X53310277Y8432847D01*
X53309775Y8427743D01*
X52239509Y8427743D01*
X52235125Y8432107D01*
X52180898Y8588863D01*
X52179445Y8675638D01*
X52222056Y8764211D01*
X52259046Y8802875D01*
X52348672Y8849409D01*
X52634966Y8851545D01*
X52724814Y8808321D01*
X52805011Y8731594D01*
X52859084Y8709198D01*
X52917610Y8709198D01*
X52971682Y8731594D01*
X53013068Y8772980D01*
X53035464Y8827052D01*
X53035464Y8885578D01*
X53013068Y8939651D01*
X52994413Y8962381D01*
X52919263Y9034278D01*
X52908887Y9046242D01*
X52902661Y9050161D01*
X52900254Y9052464D01*
X52896594Y9053980D01*
X52884001Y9061907D01*
X52759476Y9121814D01*
X52757398Y9123892D01*
X52741266Y9130574D01*
X52713681Y9143845D01*
X52708306Y9144227D01*
X52703326Y9146290D01*
X52674062Y9149172D01*
X52339629Y9146678D01*
X52335680Y9147994D01*
X52314522Y9146491D01*
X52287655Y9146290D01*
X52282674Y9144227D01*
X52277300Y9143845D01*
X52249836Y9133336D01*
X52107292Y9059326D01*
X52090727Y9052464D01*
X52084956Y9047729D01*
X52082094Y9046242D01*
X52079497Y9043249D01*
X52067997Y9033810D01*
X51996099Y8958661D01*
X51984134Y8948283D01*
X51980215Y8942058D01*
X51977913Y8939651D01*
X51976397Y8935993D01*
X51968469Y8923397D01*
X51908562Y8798873D01*
X51906484Y8796794D01*
X51899802Y8780663D01*
X51886531Y8753077D01*
X51886149Y8747703D01*
X51884086Y8742722D01*
X51881204Y8713458D01*
X51377950Y8713458D01*
X51232947Y9144885D01*
X51194600Y9189099D01*
X51142253Y9215273D01*
X51083872Y9219422D01*
X51028348Y9200914D01*
X50984134Y9162567D01*
X50957960Y9110220D01*
X50953811Y9051839D01*
X50960331Y9023166D01*
X51254287Y8148554D01*
X50893675Y8147469D01*
X50892609Y8528436D01*
X50870211Y8582508D01*
X50828827Y8623892D01*
X50774755Y8646290D01*
X50716227Y8646290D01*
X50662155Y8623892D01*
X50620771Y8582508D01*
X50598373Y8528436D01*
X50595491Y8499172D01*
X50596478Y8146575D01*
X50501941Y8146290D01*
X50447869Y8123892D01*
X50406485Y8082508D01*
X50384087Y8028436D01*
X47145989Y8028436D01*
X47145989Y10943352D01*
X47312656Y10943352D01*
X47312656Y10884824D01*
X47335054Y10830752D01*
X47376438Y10789368D01*
X47430510Y10766970D01*
X47459774Y10764088D01*
X47564810Y10765847D01*
X47653385Y10723235D01*
X47692049Y10686245D01*
X47739238Y10595359D01*
X47741228Y9884824D01*
X47763626Y9830752D01*
X47805010Y9789368D01*
X47859082Y9766970D01*
X47917610Y9766970D01*
X47971682Y9789368D01*
X48013066Y9830752D01*
X48035464Y9884824D01*
X48038346Y9914088D01*
X48036404Y10607324D01*
X48037168Y10609613D01*
X48036366Y10620885D01*
X48036145Y10699802D01*
X48381203Y10699802D01*
X48383407Y10568127D01*
X48381203Y10557102D01*
X48383813Y10543907D01*
X48384085Y10527681D01*
X48389709Y10514104D01*
X48392561Y10499687D01*
X48400799Y10487330D01*
X48406483Y10473609D01*
X48416875Y10463217D01*
X48425026Y10450991D01*
X48437364Y10442728D01*
X48447867Y10432225D01*
X48461443Y10426602D01*
X48473655Y10418423D01*
X48501786Y10409858D01*
X48501934Y10409829D01*
X48501939Y10409827D01*
X48501944Y10409827D01*
X49097439Y10293082D01*
X49098040Y10167844D01*
X49064179Y10097459D01*
X48999346Y10063797D01*
X48784347Y10061830D01*
X48642249Y10130190D01*
X48583869Y10134338D01*
X48528347Y10115830D01*
X48484132Y10077483D01*
X48457957Y10025134D01*
X48453809Y9966754D01*
X48472317Y9911232D01*
X48510664Y9867017D01*
X48535549Y9851352D01*
X48660074Y9791446D01*
X48662152Y9789368D01*
X48678274Y9782690D01*
X48705870Y9769414D01*
X48711245Y9769033D01*
X48716224Y9766970D01*
X48745488Y9764088D01*
X49008748Y9766497D01*
X49012441Y9765266D01*
X49032869Y9766718D01*
X49060467Y9766970D01*
X49065445Y9769033D01*
X49070821Y9769414D01*
X49098285Y9779924D01*
X49234174Y9850479D01*
X49248345Y9855202D01*
X49255911Y9861765D01*
X49266028Y9867017D01*
X49278349Y9881225D01*
X49292560Y9893549D01*
X49301880Y9908357D01*
X49304374Y9911232D01*
X49305143Y9913542D01*
X49308224Y9918435D01*
X49368130Y10042961D01*
X49370208Y10045038D01*
X49376886Y10061161D01*
X49390162Y10088756D01*
X49390543Y10094132D01*
X49392606Y10099110D01*
X49395488Y10128374D01*
X49394150Y10407237D01*
X49395489Y10413931D01*
X49394083Y10421034D01*
X49392857Y10676683D01*
X49394310Y10681040D01*
X49392729Y10703282D01*
X49392606Y10729066D01*
X49390543Y10734045D01*
X49390162Y10739420D01*
X49379652Y10766883D01*
X49309097Y10902773D01*
X49305326Y10914088D01*
X49738346Y10914088D01*
X49740509Y9980623D01*
X49739524Y9966754D01*
X49740548Y9963681D01*
X49741105Y9723309D01*
X49739524Y9718564D01*
X49741170Y9695393D01*
X49741228Y9670538D01*
X49743290Y9665560D01*
X49743672Y9660184D01*
X49754182Y9632720D01*
X49828190Y9490179D01*
X49835053Y9473610D01*
X49839788Y9467840D01*
X49841275Y9464977D01*
X49844268Y9462381D01*
X49853708Y9450879D01*
X49928863Y9378978D01*
X49939236Y9367017D01*
X49945459Y9363100D01*
X49947868Y9360795D01*
X49951529Y9359279D01*
X49964121Y9351352D01*
X50088646Y9291446D01*
X50090724Y9289368D01*
X50106846Y9282690D01*
X50134442Y9269414D01*
X50139817Y9269033D01*
X50144796Y9266970D01*
X50174060Y9264088D01*
X50366293Y9266363D01*
X50369584Y9265266D01*
X50388762Y9266629D01*
X50417610Y9266970D01*
X50422588Y9269033D01*
X50427964Y9269414D01*
X50455428Y9279924D01*
X50623171Y9367017D01*
X50661517Y9411232D01*
X50680025Y9466754D01*
X50675877Y9525134D01*
X50649703Y9577483D01*
X50605488Y9615830D01*
X50549965Y9634338D01*
X50491585Y9630190D01*
X50464122Y9619680D01*
X50356320Y9563710D01*
X50212548Y9562008D01*
X50123306Y9604941D01*
X50084641Y9641932D01*
X50038273Y9731238D01*
X50038196Y9764152D01*
X50294462Y9766497D01*
X50298155Y9765266D01*
X50318583Y9766718D01*
X50346181Y9766970D01*
X50351159Y9769033D01*
X50356535Y9769414D01*
X50383999Y9779924D01*
X50526540Y9853933D01*
X50543109Y9860795D01*
X50548879Y9865531D01*
X50551742Y9867017D01*
X50554338Y9870011D01*
X50565840Y9879450D01*
X50637741Y9954606D01*
X50649702Y9964978D01*
X50653619Y9971202D01*
X50655924Y9973610D01*
X50657440Y9977272D01*
X50665367Y9989863D01*
X50725273Y10114389D01*
X50727351Y10116466D01*
X50734029Y10132589D01*
X50747305Y10160184D01*
X50747686Y10165560D01*
X50749749Y10170538D01*
X50752631Y10199802D01*
X50750077Y10605485D01*
X50751453Y10609612D01*
X50749915Y10631258D01*
X50749749Y10657638D01*
X50747686Y10662617D01*
X50747305Y10667992D01*
X50736795Y10695455D01*
X50662786Y10837998D01*
X50655923Y10854567D01*
X50651187Y10860338D01*
X50649702Y10863198D01*
X50646710Y10865793D01*
X50637268Y10877298D01*
X50568224Y10943352D01*
X50884084Y10943352D01*
X50884084Y10884824D01*
X50906482Y10830752D01*
X50947866Y10789368D01*
X51001938Y10766970D01*
X51031202Y10764088D01*
X51136238Y10765847D01*
X51224813Y10723235D01*
X51263477Y10686245D01*
X51310666Y10595359D01*
X51312656Y9884824D01*
X51335054Y9830752D01*
X51376438Y9789368D01*
X51430510Y9766970D01*
X51489038Y9766970D01*
X51543110Y9789368D01*
X51584494Y9830752D01*
X51606892Y9884824D01*
X51609774Y9914088D01*
X51607832Y10607324D01*
X51608596Y10609613D01*
X51607794Y10620885D01*
X51607573Y10699802D01*
X52024060Y10699802D01*
X52026585Y9985716D01*
X52025238Y9966754D01*
X52026667Y9962466D01*
X52026942Y9884824D01*
X52049340Y9830752D01*
X52090724Y9789368D01*
X52144796Y9766970D01*
X52203324Y9766970D01*
X52245488Y9784436D01*
X52249703Y9782690D01*
X52277299Y9769414D01*
X52282674Y9769033D01*
X52287653Y9766970D01*
X52316917Y9764088D01*
X52651349Y9766583D01*
X52655298Y9765266D01*
X52676460Y9766770D01*
X52703324Y9766970D01*
X52708302Y9769033D01*
X52713678Y9769414D01*
X52741142Y9779924D01*
X52877031Y9850479D01*
X52891202Y9855202D01*
X52898768Y9861765D01*
X52908885Y9867017D01*
X52921206Y9881225D01*
X52935417Y9893549D01*
X52944737Y9908357D01*
X52947231Y9911232D01*
X52948000Y9913542D01*
X52951081Y9918435D01*
X53010987Y10042961D01*
X53013065Y10045038D01*
X53019743Y10061161D01*
X53033019Y10088756D01*
X53033400Y10094132D01*
X53035463Y10099110D01*
X53038345Y10128374D01*
X53036310Y10249899D01*
X53037167Y10252469D01*
X53035989Y10269039D01*
X53035463Y10300495D01*
X53033400Y10305474D01*
X53033019Y10310849D01*
X53022509Y10338312D01*
X52951954Y10474201D01*
X52947231Y10488372D01*
X52940668Y10495940D01*
X52935416Y10506055D01*
X52921209Y10518376D01*
X52908885Y10532587D01*
X52894074Y10541910D01*
X52891201Y10544402D01*
X52888893Y10545172D01*
X52883999Y10548252D01*
X52759473Y10608159D01*
X52757396Y10610236D01*
X52741273Y10616915D01*
X52713678Y10630190D01*
X52708302Y10630572D01*
X52703324Y10632634D01*
X52674060Y10635516D01*
X52356012Y10633144D01*
X52321458Y10649768D01*
X52321421Y10660154D01*
X52355367Y10730717D01*
X52420203Y10764380D01*
X52635200Y10766347D01*
X52777298Y10697986D01*
X52835678Y10693837D01*
X52853573Y10699802D01*
X53381203Y10699802D01*
X53384085Y9884824D01*
X53406483Y9830752D01*
X53447867Y9789368D01*
X53501939Y9766970D01*
X53560467Y9766970D01*
X53614539Y9789368D01*
X53655923Y9830752D01*
X53678321Y9884824D01*
X53681203Y9914088D01*
X53678564Y10660154D01*
X53712510Y10730717D01*
X53777515Y10764467D01*
X53921285Y10766169D01*
X54010526Y10723236D01*
X54025388Y10709018D01*
X54026942Y9884824D01*
X54049340Y9830752D01*
X54090724Y9789368D01*
X54144796Y9766970D01*
X54203324Y9766970D01*
X54257396Y9789368D01*
X54298780Y9830752D01*
X54321178Y9884824D01*
X54324060Y9914088D01*
X54321447Y11300494D01*
X54669799Y11300494D01*
X54669799Y11241968D01*
X54692196Y11187896D01*
X54733582Y11146510D01*
X54787654Y11124113D01*
X54846180Y11124113D01*
X54900252Y11146510D01*
X54922983Y11165165D01*
X54966977Y11211150D01*
X55120892Y11264394D01*
X55216124Y11265989D01*
X55376235Y11214620D01*
X55476947Y11116387D01*
X55530377Y11013482D01*
X55595595Y10762134D01*
X55597704Y10583921D01*
X55537344Y10333010D01*
X55483461Y10221006D01*
X55382501Y10117497D01*
X55227223Y10063783D01*
X55131996Y10062188D01*
X54971220Y10113770D01*
X54900253Y10181665D01*
X54846181Y10204063D01*
X54787655Y10204063D01*
X54733583Y10181666D01*
X54692197Y10140281D01*
X54669799Y10086209D01*
X54669799Y10027683D01*
X54692196Y9973611D01*
X54710850Y9950880D01*
X54768994Y9895252D01*
X54769846Y9893549D01*
X54779781Y9884932D01*
X54805009Y9860796D01*
X54809985Y9858735D01*
X54814060Y9855201D01*
X54840911Y9843213D01*
X55055540Y9774355D01*
X55073367Y9766970D01*
X55080855Y9766233D01*
X55083871Y9765265D01*
X55087825Y9765547D01*
X55102631Y9764088D01*
X55246838Y9766503D01*
X55264248Y9765265D01*
X55271507Y9766916D01*
X55274752Y9766970D01*
X55278409Y9768486D01*
X55292922Y9771785D01*
X55485485Y9838398D01*
X55489037Y9838398D01*
X55507033Y9845853D01*
X55534059Y9855201D01*
X55538130Y9858733D01*
X55543110Y9860795D01*
X55565840Y9879450D01*
X55706860Y10024031D01*
X55721130Y10036406D01*
X55725130Y10042762D01*
X55727352Y10045039D01*
X55728867Y10048699D01*
X55736795Y10061292D01*
X55801937Y10196700D01*
X55809688Y10207160D01*
X55817531Y10229115D01*
X55818733Y10231612D01*
X55818809Y10232693D01*
X55819581Y10234851D01*
X55886449Y10512820D01*
X55887261Y10514780D01*
X56241228Y10514780D01*
X56241228Y10456252D01*
X56263626Y10402180D01*
X56305010Y10360796D01*
X56359082Y10338398D01*
X56388346Y10335516D01*
X57560467Y10338398D01*
X57614539Y10360796D01*
X57655923Y10402180D01*
X57678321Y10456252D01*
X57678321Y10514780D01*
X57655923Y10568852D01*
X57614539Y10610236D01*
X57560467Y10632634D01*
X57531203Y10635516D01*
X56359082Y10632634D01*
X56305010Y10610236D01*
X56263626Y10568852D01*
X56241228Y10514780D01*
X55887261Y10514780D01*
X55892606Y10527681D01*
X55894394Y10545847D01*
X55895311Y10549654D01*
X55894985Y10551842D01*
X55895488Y10556945D01*
X55893046Y10763303D01*
X55895311Y10778522D01*
X55892653Y10796493D01*
X55892606Y10800495D01*
X55891758Y10802540D01*
X55891009Y10807611D01*
X55819751Y11082232D01*
X55818733Y11096564D01*
X55810344Y11118488D01*
X55809688Y11121016D01*
X55809043Y11121886D01*
X55808224Y11124028D01*
X55734215Y11266568D01*
X55727352Y11283138D01*
X55722615Y11288910D01*
X55721130Y11291770D01*
X55718137Y11294366D01*
X55708697Y11305868D01*
X55603495Y11408481D01*
X57952737Y11408481D01*
X57956711Y11379345D01*
X58315010Y9886643D01*
X58317793Y9865702D01*
X58321625Y9859082D01*
X58323435Y9851544D01*
X58336206Y9833897D01*
X58347116Y9815052D01*
X58353231Y9810371D01*
X58357748Y9804130D01*
X58376298Y9792715D01*
X58393591Y9779478D01*
X58401032Y9777494D01*
X58407592Y9773457D01*
X58429099Y9770009D01*
X58450143Y9764397D01*
X58457775Y9765412D01*
X58465381Y9764192D01*
X58486576Y9769239D01*
X58508160Y9772107D01*
X58514822Y9775965D01*
X58522318Y9777749D01*
X58539963Y9790520D01*
X58558810Y9801430D01*
X58563492Y9807547D01*
X58569731Y9812062D01*
X58581144Y9830609D01*
X58594384Y9847905D01*
X58598432Y9858701D01*
X58600405Y9861906D01*
X58600980Y9865496D01*
X58604709Y9875438D01*
X58745496Y10408810D01*
X58887266Y9882529D01*
X58890572Y9861906D01*
X58894572Y9855405D01*
X58896593Y9847905D01*
X58909829Y9830613D01*
X58921245Y9812062D01*
X58927485Y9807546D01*
X58932167Y9801430D01*
X58951011Y9790521D01*
X58968659Y9777749D01*
X58976153Y9775965D01*
X58982817Y9772107D01*
X59004406Y9769238D01*
X59025596Y9764193D01*
X59033198Y9765412D01*
X59040834Y9764397D01*
X59061881Y9770010D01*
X59083385Y9773457D01*
X59089944Y9777494D01*
X59097386Y9779478D01*
X59114678Y9792715D01*
X59133229Y9804130D01*
X59137745Y9810371D01*
X59143861Y9815052D01*
X59154770Y9833897D01*
X59167542Y9851544D01*
X59171300Y9862449D01*
X59173184Y9865702D01*
X59173662Y9869302D01*
X59177124Y9879345D01*
X59538241Y11408481D01*
X59528977Y11466270D01*
X59498304Y11516114D01*
X59450890Y11550427D01*
X59393953Y11563983D01*
X59336164Y11554719D01*
X59286320Y11524046D01*
X59252007Y11476632D01*
X59242425Y11448831D01*
X59023193Y10520503D01*
X58889978Y11015023D01*
X58887470Y11033902D01*
X58882650Y11042227D01*
X58880099Y11051699D01*
X58868064Y11067421D01*
X58858147Y11084552D01*
X58850431Y11090459D01*
X58844525Y11098174D01*
X58827393Y11108092D01*
X58811672Y11120126D01*
X58802281Y11122631D01*
X58793875Y11127497D01*
X58774253Y11130105D01*
X58755120Y11135207D01*
X58745489Y11133928D01*
X58735858Y11135207D01*
X58716724Y11130105D01*
X58697103Y11127497D01*
X58688696Y11122631D01*
X58679306Y11120126D01*
X58663584Y11108092D01*
X58646453Y11098174D01*
X58640546Y11090459D01*
X58632831Y11084552D01*
X58622913Y11067421D01*
X58610879Y11051699D01*
X58605487Y11037322D01*
X58603508Y11033902D01*
X58603125Y11031022D01*
X58600554Y11024165D01*
X58468062Y10522221D01*
X58238971Y11476632D01*
X58204658Y11524045D01*
X58154814Y11554719D01*
X58097025Y11563983D01*
X58040088Y11550427D01*
X57992675Y11516114D01*
X57962001Y11466270D01*
X57952737Y11408481D01*
X55603495Y11408481D01*
X55579780Y11431612D01*
X55578273Y11434626D01*
X55563983Y11447020D01*
X55543109Y11467380D01*
X55538129Y11469443D01*
X55534059Y11472973D01*
X55507208Y11484962D01*
X55292586Y11553819D01*
X55274752Y11561206D01*
X55267260Y11561944D01*
X55264249Y11562910D01*
X55260299Y11562630D01*
X55245488Y11564088D01*
X55101272Y11561674D01*
X55083870Y11562910D01*
X55076615Y11561261D01*
X55073367Y11561206D01*
X55069705Y11559690D01*
X55055196Y11556390D01*
X54862633Y11489776D01*
X54859082Y11489776D01*
X54841082Y11482322D01*
X54814060Y11472973D01*
X54809989Y11469444D01*
X54805009Y11467380D01*
X54782279Y11448725D01*
X54692196Y11354566D01*
X54669799Y11300494D01*
X54321447Y11300494D01*
X54321178Y11443352D01*
X54298780Y11497424D01*
X54257396Y11538808D01*
X54203324Y11561206D01*
X54144796Y11561206D01*
X54090724Y11538808D01*
X54049340Y11497424D01*
X54026942Y11443352D01*
X54024060Y11414088D01*
X54024752Y11046561D01*
X53999393Y11058761D01*
X53994018Y11059143D01*
X53989038Y11061206D01*
X53959774Y11064088D01*
X53767539Y11061814D01*
X53764249Y11062910D01*
X53745076Y11061548D01*
X53716224Y11061206D01*
X53711243Y11059143D01*
X53705869Y11058761D01*
X53678405Y11048252D01*
X53542514Y10977696D01*
X53528347Y10972973D01*
X53520781Y10966412D01*
X53510663Y10961158D01*
X53498339Y10946949D01*
X53484132Y10934627D01*
X53474812Y10919822D01*
X53472316Y10916943D01*
X53471545Y10914632D01*
X53468467Y10909741D01*
X53408560Y10785216D01*
X53406483Y10783138D01*
X53399804Y10767016D01*
X53386529Y10739420D01*
X53386147Y10734045D01*
X53384085Y10729066D01*
X53381203Y10699802D01*
X52853573Y10699802D01*
X52891200Y10712344D01*
X52935416Y10750691D01*
X52961590Y10803040D01*
X52965739Y10861420D01*
X52947231Y10916943D01*
X52908885Y10961158D01*
X52883999Y10976823D01*
X52759474Y11036730D01*
X52757396Y11038808D01*
X52741264Y11045490D01*
X52713679Y11058761D01*
X52708304Y11059143D01*
X52703324Y11061206D01*
X52674060Y11064088D01*
X52410798Y11061680D01*
X52407106Y11062910D01*
X52386682Y11061459D01*
X52359081Y11061206D01*
X52354100Y11059143D01*
X52348726Y11058761D01*
X52321262Y11048252D01*
X52185371Y10977696D01*
X52171204Y10972973D01*
X52163638Y10966412D01*
X52153520Y10961158D01*
X52141196Y10946949D01*
X52126989Y10934627D01*
X52117669Y10919822D01*
X52115173Y10916943D01*
X52114402Y10914632D01*
X52111324Y10909741D01*
X52051417Y10785216D01*
X52049340Y10783138D01*
X52042661Y10767016D01*
X52029386Y10739420D01*
X52029004Y10734045D01*
X52026942Y10729066D01*
X52024060Y10699802D01*
X51607573Y10699802D01*
X51606892Y10943352D01*
X51584494Y10997424D01*
X51543110Y11038808D01*
X51489038Y11061206D01*
X51430510Y11061206D01*
X51376438Y11038808D01*
X51337042Y10999413D01*
X51259471Y11036732D01*
X51257395Y11038808D01*
X51241277Y11045485D01*
X51213678Y11058762D01*
X51208300Y11059145D01*
X51203323Y11061206D01*
X51174059Y11064088D01*
X51001938Y11061206D01*
X50947866Y11038808D01*
X50906482Y10997424D01*
X50884084Y10943352D01*
X50568224Y10943352D01*
X50562121Y10949191D01*
X50551742Y10961158D01*
X50545513Y10965079D01*
X50543108Y10967380D01*
X50539451Y10968895D01*
X50526856Y10976823D01*
X50402331Y11036730D01*
X50400253Y11038808D01*
X50384121Y11045490D01*
X50356536Y11058761D01*
X50351161Y11059143D01*
X50346181Y11061206D01*
X50316917Y11064088D01*
X50053656Y11061680D01*
X50049964Y11062910D01*
X50029540Y11061459D01*
X50001939Y11061206D01*
X49996958Y11059143D01*
X49991584Y11058761D01*
X49964120Y11048252D01*
X49957358Y11044742D01*
X49917610Y11061206D01*
X49859082Y11061206D01*
X49805010Y11038808D01*
X49763626Y10997424D01*
X49741228Y10943352D01*
X49738346Y10914088D01*
X49305326Y10914088D01*
X49304374Y10916943D01*
X49297811Y10924511D01*
X49292559Y10934626D01*
X49278352Y10946947D01*
X49266028Y10961158D01*
X49251217Y10970481D01*
X49248344Y10972973D01*
X49246036Y10973743D01*
X49241142Y10976823D01*
X49116617Y11036730D01*
X49114539Y11038808D01*
X49098407Y11045490D01*
X49070822Y11058761D01*
X49065447Y11059143D01*
X49060467Y11061206D01*
X49031203Y11064088D01*
X48767941Y11061680D01*
X48764249Y11062910D01*
X48743825Y11061459D01*
X48716224Y11061206D01*
X48711243Y11059143D01*
X48705869Y11058761D01*
X48678405Y11048252D01*
X48542514Y10977696D01*
X48528347Y10972973D01*
X48520781Y10966412D01*
X48510663Y10961158D01*
X48498339Y10946949D01*
X48484132Y10934627D01*
X48474812Y10919822D01*
X48472316Y10916943D01*
X48471545Y10914632D01*
X48468467Y10909741D01*
X48408560Y10785216D01*
X48406483Y10783138D01*
X48399804Y10767016D01*
X48386529Y10739420D01*
X48386147Y10734045D01*
X48384085Y10729066D01*
X48381203Y10699802D01*
X48036145Y10699802D01*
X48035464Y10943352D01*
X48013066Y10997424D01*
X47971682Y11038808D01*
X47917610Y11061206D01*
X47859082Y11061206D01*
X47805010Y11038808D01*
X47765614Y10999413D01*
X47688043Y11036732D01*
X47685967Y11038808D01*
X47669849Y11045485D01*
X47642250Y11058762D01*
X47636872Y11059145D01*
X47631895Y11061206D01*
X47602631Y11064088D01*
X47430510Y11061206D01*
X47376438Y11038808D01*
X47335054Y10997424D01*
X47312656Y10943352D01*
X47145989Y10943352D01*
X47145989Y12429694D01*
X55598371Y12429694D01*
X55598371Y12371168D01*
X55600597Y12365795D01*
X55620768Y12317097D01*
X55620769Y12317096D01*
X55639424Y12294365D01*
X55733582Y12204284D01*
X55733583Y12204283D01*
X55765257Y12191164D01*
X55787654Y12181886D01*
X55787655Y12181886D01*
X55787656Y12181886D01*
X55846181Y12181886D01*
X55846182Y12181886D01*
X55868579Y12191164D01*
X55900253Y12204283D01*
X55922984Y12222938D01*
X56013067Y12317096D01*
X56035463Y12371169D01*
X56035463Y12397578D01*
X56035464Y12429694D01*
X56013067Y12483767D01*
X55994413Y12506497D01*
X55900254Y12596581D01*
X55900253Y12596582D01*
X55866755Y12610457D01*
X55846182Y12618979D01*
X55787654Y12618979D01*
X55767081Y12610457D01*
X55733583Y12596582D01*
X55710852Y12577927D01*
X55620768Y12483767D01*
X55602661Y12440050D01*
X55598371Y12429694D01*
X47145989Y12429694D01*
X47145989Y12757575D01*
X56309774Y12757575D01*
X56311808Y12636050D01*
X56310952Y12633479D01*
X56312129Y12616915D01*
X56312656Y12585454D01*
X56314719Y12580474D01*
X56315101Y12575099D01*
X56325610Y12547636D01*
X56399619Y12405094D01*
X56406482Y12388526D01*
X56411217Y12382756D01*
X56412704Y12379893D01*
X56415697Y12377297D01*
X56425137Y12365795D01*
X56500292Y12293894D01*
X56510665Y12281933D01*
X56516888Y12278016D01*
X56519297Y12275711D01*
X56522958Y12274195D01*
X56535550Y12266268D01*
X56660075Y12206362D01*
X56662153Y12204284D01*
X56678275Y12197606D01*
X56705871Y12184330D01*
X56711246Y12183949D01*
X56716225Y12181886D01*
X56745489Y12179004D01*
X57100681Y12181654D01*
X57121392Y12180181D01*
X57128788Y12181863D01*
X57131896Y12181886D01*
X57135553Y12183402D01*
X57150066Y12186701D01*
X57391202Y12270118D01*
X57435416Y12308465D01*
X57461590Y12360812D01*
X57465739Y12419192D01*
X57462238Y12429694D01*
X57741228Y12429694D01*
X57741228Y12371168D01*
X57743454Y12365795D01*
X57763625Y12317097D01*
X57763626Y12317096D01*
X57782281Y12294365D01*
X57876439Y12204284D01*
X57876440Y12204283D01*
X57908114Y12191164D01*
X57930511Y12181886D01*
X57930512Y12181886D01*
X57930513Y12181886D01*
X57989038Y12181886D01*
X57989039Y12181886D01*
X58011436Y12191164D01*
X58043110Y12204283D01*
X58065841Y12222938D01*
X58155924Y12317096D01*
X58168627Y12347765D01*
X58310952Y12347765D01*
X58315101Y12289384D01*
X58341275Y12237037D01*
X58385489Y12198690D01*
X58441013Y12180182D01*
X58499394Y12184331D01*
X58551741Y12210505D01*
X58590088Y12254719D01*
X58602076Y12281570D01*
X58710234Y12607993D01*
X59210349Y12609931D01*
X59329460Y12254719D01*
X59367807Y12210504D01*
X59420155Y12184331D01*
X59478535Y12180181D01*
X59534059Y12198690D01*
X59578273Y12237037D01*
X59604447Y12289384D01*
X59608597Y12347764D01*
X59602077Y12376438D01*
X59105182Y13858274D01*
X59104447Y13868624D01*
X59096143Y13885232D01*
X59090088Y13903289D01*
X59083065Y13911386D01*
X59078273Y13920971D01*
X59064064Y13933295D01*
X59051741Y13947503D01*
X59042155Y13952296D01*
X59034059Y13959318D01*
X59016215Y13965267D01*
X58999394Y13973677D01*
X58988705Y13974437D01*
X58978535Y13977827D01*
X58959769Y13976494D01*
X58941013Y13977826D01*
X58930845Y13974437D01*
X58920155Y13973677D01*
X58903331Y13965266D01*
X58885489Y13959318D01*
X58877394Y13952298D01*
X58867807Y13947504D01*
X58855481Y13933293D01*
X58841275Y13920971D01*
X58836482Y13911387D01*
X58829460Y13903289D01*
X58817472Y13876438D01*
X58460129Y12797982D01*
X58455514Y12786839D01*
X58455514Y12784052D01*
X58310952Y12347765D01*
X58168627Y12347765D01*
X58178320Y12371169D01*
X58178320Y12397578D01*
X58178321Y12429694D01*
X58155924Y12483767D01*
X58137270Y12506497D01*
X58043111Y12596581D01*
X58043110Y12596582D01*
X58009612Y12610457D01*
X57989039Y12618979D01*
X57930511Y12618979D01*
X57909938Y12610457D01*
X57876440Y12596582D01*
X57853709Y12577927D01*
X57763625Y12483767D01*
X57745518Y12440050D01*
X57741228Y12429694D01*
X57462238Y12429694D01*
X57447231Y12474717D01*
X57408884Y12518931D01*
X57356537Y12545105D01*
X57298157Y12549254D01*
X57269483Y12542735D01*
X57084870Y12478872D01*
X56784584Y12476632D01*
X56694735Y12519857D01*
X56656072Y12556846D01*
X56609232Y12647059D01*
X56608015Y12719755D01*
X56650626Y12808328D01*
X56687617Y12846993D01*
X56788952Y12899608D01*
X57056489Y12969027D01*
X57070822Y12970045D01*
X57092742Y12978434D01*
X57095274Y12979090D01*
X57096144Y12979735D01*
X57098285Y12980554D01*
X57240831Y13054566D01*
X57257394Y13061426D01*
X57263163Y13066161D01*
X57266028Y13067648D01*
X57268625Y13070643D01*
X57280125Y13080080D01*
X57352026Y13155234D01*
X57363988Y13165608D01*
X57367905Y13171832D01*
X57370209Y13174239D01*
X57371724Y13177899D01*
X57379653Y13190493D01*
X57439559Y13315019D01*
X57441637Y13317096D01*
X57448315Y13333219D01*
X57461591Y13360814D01*
X57461972Y13366190D01*
X57464035Y13371168D01*
X57466917Y13400432D01*
X57464882Y13521958D01*
X57465739Y13524528D01*
X57464561Y13541098D01*
X57464035Y13572554D01*
X57461972Y13577533D01*
X57461591Y13582908D01*
X57451081Y13610371D01*
X57377072Y13752914D01*
X57370209Y13769483D01*
X57365473Y13775254D01*
X57363988Y13778114D01*
X57360996Y13780709D01*
X57351554Y13792214D01*
X57276407Y13864107D01*
X57266028Y13876074D01*
X57259799Y13879995D01*
X57257394Y13882296D01*
X57253737Y13883811D01*
X57241142Y13891739D01*
X57116617Y13951646D01*
X57114539Y13953724D01*
X57098407Y13960406D01*
X57070822Y13973677D01*
X57065447Y13974059D01*
X57060467Y13976122D01*
X57031203Y13979004D01*
X56676000Y13976355D01*
X56655299Y13977826D01*
X56647907Y13976146D01*
X56644796Y13976122D01*
X56641134Y13974606D01*
X56626625Y13971306D01*
X56385489Y13887889D01*
X56341274Y13849541D01*
X56315101Y13797194D01*
X56310952Y13738814D01*
X56329460Y13683290D01*
X56367808Y13639075D01*
X56420155Y13612902D01*
X56478535Y13608753D01*
X56507208Y13615273D01*
X56691820Y13679137D01*
X56992107Y13681377D01*
X57081955Y13638152D01*
X57120621Y13601161D01*
X57167458Y13510951D01*
X57168675Y13438253D01*
X57126064Y13349679D01*
X57089076Y13311017D01*
X56987738Y13258401D01*
X56720202Y13188982D01*
X56705870Y13187963D01*
X56683946Y13179575D01*
X56681418Y13178918D01*
X56680548Y13178274D01*
X56678406Y13177454D01*
X56535863Y13103445D01*
X56519297Y13096582D01*
X56513526Y13091847D01*
X56510664Y13090360D01*
X56508067Y13087366D01*
X56496566Y13077927D01*
X56424668Y13002777D01*
X56412704Y12992400D01*
X56408785Y12986175D01*
X56406482Y12983767D01*
X56404966Y12980108D01*
X56397039Y12967514D01*
X56337132Y12842990D01*
X56335054Y12840911D01*
X56328372Y12824780D01*
X56315101Y12797194D01*
X56314719Y12791820D01*
X56312656Y12786839D01*
X56309774Y12757575D01*
X47145989Y12757575D01*
X47145989Y14145671D01*
X59775264Y14145671D01*
X59775264Y7182505D01*
G37*
X39111653Y12699172D02*
X39111653Y14842029D01*
X36954510Y8170600D02*
X38097368Y8170600D01*
D11*
X38230326Y13532781D02*
X38230326Y14532781D01*
X37754136Y14199448D02*
X37754136Y13532781D01*
X37754136Y14104210D02*
X37706517Y14151829D01*
X37706517Y14151829D02*
X37611279Y14199448D01*
X37611279Y14199448D02*
X37468422Y14199448D01*
X37468422Y14199448D02*
X37373184Y14151829D01*
X37373184Y14151829D02*
X37325565Y14056591D01*
X37325565Y14056591D02*
X37325565Y13532781D01*
X36849374Y14199448D02*
X36849374Y13199448D01*
X36849374Y14151829D02*
X36754136Y14199448D01*
X36754136Y14199448D02*
X36563660Y14199448D01*
X36563660Y14199448D02*
X36468422Y14151829D01*
X36468422Y14151829D02*
X36420803Y14104210D01*
X36420803Y14104210D02*
X36373184Y14008972D01*
X36373184Y14008972D02*
X36373184Y13723258D01*
X36373184Y13723258D02*
X36420803Y13628020D01*
X36420803Y13628020D02*
X36468422Y13580400D01*
X36468422Y13580400D02*
X36563660Y13532781D01*
X36563660Y13532781D02*
X36754136Y13532781D01*
X36754136Y13532781D02*
X36849374Y13580400D01*
X35516041Y14199448D02*
X35516041Y13532781D01*
X35944612Y14199448D02*
X35944612Y13675639D01*
X35944612Y13675639D02*
X35896993Y13580400D01*
X35896993Y13580400D02*
X35801755Y13532781D01*
X35801755Y13532781D02*
X35658898Y13532781D01*
X35658898Y13532781D02*
X35563660Y13580400D01*
X35563660Y13580400D02*
X35516041Y13628020D01*
X35182707Y14199448D02*
X34801755Y14199448D01*
X35039850Y14532781D02*
X35039850Y13675639D01*
X35039850Y13675639D02*
X34992231Y13580400D01*
X34992231Y13580400D02*
X34896993Y13532781D01*
X34896993Y13532781D02*
X34801755Y13532781D01*
D10*
G36*
X39082402Y1062745D02*
G01*
X38699243Y1060906D01*
X38609020Y1104311D01*
X38570355Y1141302D01*
X38523681Y1231198D01*
X38521979Y1374970D01*
X38564912Y1464212D01*
X38601901Y1502875D01*
X38691362Y1549324D01*
X39081481Y1551196D01*
X39082402Y1062745D01*
G37*
G36*
X43973559Y-117495D02*
G01*
X38057393Y-117495D01*
X38057393Y1413458D01*
X38224060Y1413458D01*
X38226334Y1221225D01*
X38225238Y1217934D01*
X38226600Y1198756D01*
X38226942Y1169908D01*
X38229004Y1164930D01*
X38229386Y1159554D01*
X38239896Y1132090D01*
X38313904Y989549D01*
X38320767Y972980D01*
X38325502Y967210D01*
X38326989Y964347D01*
X38329982Y961751D01*
X38339422Y950249D01*
X38414577Y878348D01*
X38424950Y866387D01*
X38431173Y862470D01*
X38433582Y860165D01*
X38437243Y858649D01*
X38449835Y850722D01*
X38574360Y790816D01*
X38576438Y788738D01*
X38592560Y782060D01*
X38620156Y768784D01*
X38625531Y768403D01*
X38630510Y766340D01*
X38659774Y763458D01*
X39082962Y765489D01*
X39084085Y169908D01*
X39106483Y115836D01*
X39147867Y74452D01*
X39201939Y52054D01*
X39260467Y52054D01*
X39314539Y74452D01*
X39355923Y115836D01*
X39378321Y169908D01*
X39381203Y199172D01*
X39378376Y1699172D01*
X39795489Y1699172D01*
X39798371Y169908D01*
X39820769Y115836D01*
X39862153Y74452D01*
X39916225Y52054D01*
X39974753Y52054D01*
X40028825Y74452D01*
X40070209Y115836D01*
X40092607Y169908D01*
X40095489Y199172D01*
X40093922Y1030157D01*
X40309759Y570506D01*
X40317229Y549965D01*
X40321694Y545089D01*
X40324549Y539010D01*
X40341354Y523620D01*
X40356756Y506802D01*
X40362799Y503982D01*
X40367712Y499483D01*
X40389132Y491694D01*
X40409794Y482052D01*
X40416451Y481760D01*
X40422714Y479482D01*
X40445493Y480483D01*
X40468264Y479482D01*
X40474523Y481759D01*
X40481185Y482051D01*
X40501852Y491696D01*
X40523267Y499483D01*
X40528180Y503983D01*
X40534222Y506802D01*
X40549617Y523615D01*
X40566430Y539010D01*
X40571398Y547399D01*
X40573749Y549965D01*
X40575068Y553595D01*
X40581416Y564310D01*
X40796752Y1028625D01*
X40798371Y169908D01*
X40820769Y115836D01*
X40862153Y74452D01*
X40916225Y52054D01*
X40974753Y52054D01*
X41028825Y74452D01*
X41070209Y115836D01*
X41092607Y169908D01*
X41095489Y199172D01*
X41092665Y1697280D01*
X41093750Y1721948D01*
X41092613Y1725074D01*
X41092607Y1728436D01*
X41441228Y1728436D01*
X41441228Y1669908D01*
X41463626Y1615836D01*
X41505010Y1574452D01*
X41559082Y1552054D01*
X41588346Y1549172D01*
X42152910Y1551361D01*
X42153696Y1134076D01*
X41773368Y1132004D01*
X41719296Y1109606D01*
X41677912Y1068222D01*
X41655514Y1014150D01*
X41655514Y955622D01*
X41677912Y901550D01*
X41719296Y860166D01*
X41773368Y837768D01*
X41802632Y834886D01*
X42154257Y836801D01*
X42155177Y348601D01*
X41559082Y346290D01*
X41505010Y323892D01*
X41463626Y282508D01*
X41441228Y228436D01*
X41441228Y169908D01*
X41463626Y115836D01*
X41505010Y74452D01*
X41559082Y52054D01*
X41588346Y49172D01*
X42331896Y52054D01*
X42385968Y74452D01*
X42427352Y115836D01*
X42449750Y169908D01*
X42452632Y199172D01*
X42449750Y1728436D01*
X42655514Y1728436D01*
X42655514Y1669908D01*
X42677912Y1615836D01*
X42719296Y1574452D01*
X42773368Y1552054D01*
X42802632Y1549172D01*
X43081483Y1550079D01*
X43084085Y169908D01*
X43106483Y115836D01*
X43147867Y74452D01*
X43201939Y52054D01*
X43260467Y52054D01*
X43314539Y74452D01*
X43355923Y115836D01*
X43378321Y169908D01*
X43381203Y199172D01*
X43378655Y1551045D01*
X43689038Y1552054D01*
X43743110Y1574452D01*
X43784494Y1615836D01*
X43806892Y1669908D01*
X43806892Y1728436D01*
X43784494Y1782508D01*
X43743110Y1823892D01*
X43689038Y1846290D01*
X43659774Y1849172D01*
X42773368Y1846290D01*
X42719296Y1823892D01*
X42677912Y1782508D01*
X42655514Y1728436D01*
X42449750Y1728436D01*
X42427352Y1782508D01*
X42385968Y1823892D01*
X42331896Y1846290D01*
X42302632Y1849172D01*
X41559082Y1846290D01*
X41505010Y1823892D01*
X41463626Y1782508D01*
X41441228Y1728436D01*
X41092607Y1728436D01*
X41082646Y1752482D01*
X41073749Y1776950D01*
X41071489Y1779418D01*
X41070209Y1782508D01*
X41051811Y1800906D01*
X41034222Y1820113D01*
X41031188Y1821529D01*
X41028825Y1823892D01*
X41004794Y1833846D01*
X40981185Y1844864D01*
X40977840Y1845011D01*
X40974753Y1846290D01*
X40948729Y1846290D01*
X40922714Y1847433D01*
X40919571Y1846290D01*
X40916225Y1846290D01*
X40892172Y1836327D01*
X40867712Y1827432D01*
X40865244Y1825173D01*
X40862153Y1823892D01*
X40843744Y1805484D01*
X40824549Y1787905D01*
X40822199Y1783939D01*
X40820769Y1782508D01*
X40819413Y1779236D01*
X40809562Y1762605D01*
X40446205Y979126D01*
X40079526Y1760016D01*
X40070209Y1782508D01*
X40067862Y1784855D01*
X40066430Y1787905D01*
X40047222Y1805495D01*
X40028825Y1823892D01*
X40025734Y1825173D01*
X40023267Y1827432D01*
X39998801Y1836329D01*
X39974753Y1846290D01*
X39971407Y1846290D01*
X39968264Y1847433D01*
X39942260Y1846290D01*
X39916225Y1846290D01*
X39913134Y1845010D01*
X39909794Y1844863D01*
X39886198Y1833853D01*
X39862153Y1823892D01*
X39859789Y1821529D01*
X39856756Y1820113D01*
X39839166Y1800906D01*
X39820769Y1782508D01*
X39819488Y1779418D01*
X39817229Y1776950D01*
X39808332Y1752485D01*
X39798371Y1728436D01*
X39797919Y1723848D01*
X39797228Y1721947D01*
X39797383Y1718409D01*
X39795489Y1699172D01*
X39378376Y1699172D01*
X39378321Y1728436D01*
X39355923Y1782508D01*
X39314539Y1823892D01*
X39260467Y1846290D01*
X39231203Y1849172D01*
X38682893Y1846542D01*
X38678535Y1847994D01*
X38656299Y1846414D01*
X38630510Y1846290D01*
X38625529Y1844227D01*
X38620155Y1843845D01*
X38592691Y1833336D01*
X38450147Y1759326D01*
X38433582Y1752464D01*
X38427811Y1747729D01*
X38424949Y1746242D01*
X38422352Y1743249D01*
X38410852Y1733810D01*
X38338954Y1658661D01*
X38326989Y1648283D01*
X38323070Y1642058D01*
X38320768Y1639651D01*
X38319252Y1635993D01*
X38311324Y1623397D01*
X38251417Y1498872D01*
X38249340Y1496794D01*
X38242661Y1480672D01*
X38229386Y1453076D01*
X38229004Y1447701D01*
X38226942Y1442722D01*
X38224060Y1413458D01*
X38057393Y1413458D01*
X38057393Y2015839D01*
X43973559Y2015839D01*
X43973559Y-117495D01*
G37*
X36954510Y10170600D02*
X38097368Y10170600D01*
X37525939Y9599172D02*
X37525939Y10742029D01*
D11*
X45358898Y13728020D02*
X45406517Y13680400D01*
X45406517Y13680400D02*
X45549374Y13632781D01*
X45549374Y13632781D02*
X45644612Y13632781D01*
X45644612Y13632781D02*
X45787469Y13680400D01*
X45787469Y13680400D02*
X45882707Y13775639D01*
X45882707Y13775639D02*
X45930326Y13870877D01*
X45930326Y13870877D02*
X45977945Y14061353D01*
X45977945Y14061353D02*
X45977945Y14204210D01*
X45977945Y14204210D02*
X45930326Y14394686D01*
X45930326Y14394686D02*
X45882707Y14489924D01*
X45882707Y14489924D02*
X45787469Y14585162D01*
X45787469Y14585162D02*
X45644612Y14632781D01*
X45644612Y14632781D02*
X45549374Y14632781D01*
X45549374Y14632781D02*
X45406517Y14585162D01*
X45406517Y14585162D02*
X45358898Y14537543D01*
X44930326Y13632781D02*
X44930326Y14632781D01*
X44501755Y13632781D02*
X44501755Y14156591D01*
X44501755Y14156591D02*
X44549374Y14251829D01*
X44549374Y14251829D02*
X44644612Y14299448D01*
X44644612Y14299448D02*
X44787469Y14299448D01*
X44787469Y14299448D02*
X44882707Y14251829D01*
X44882707Y14251829D02*
X44930326Y14204210D01*
X43596993Y13632781D02*
X43596993Y14156591D01*
X43596993Y14156591D02*
X43644612Y14251829D01*
X43644612Y14251829D02*
X43739850Y14299448D01*
X43739850Y14299448D02*
X43930326Y14299448D01*
X43930326Y14299448D02*
X44025564Y14251829D01*
X43596993Y13680400D02*
X43692231Y13632781D01*
X43692231Y13632781D02*
X43930326Y13632781D01*
X43930326Y13632781D02*
X44025564Y13680400D01*
X44025564Y13680400D02*
X44073183Y13775639D01*
X44073183Y13775639D02*
X44073183Y13870877D01*
X44073183Y13870877D02*
X44025564Y13966115D01*
X44025564Y13966115D02*
X43930326Y14013734D01*
X43930326Y14013734D02*
X43692231Y14013734D01*
X43692231Y14013734D02*
X43596993Y14061353D01*
X43120802Y13632781D02*
X43120802Y14299448D01*
X43120802Y14108972D02*
X43073183Y14204210D01*
X43073183Y14204210D02*
X43025564Y14251829D01*
X43025564Y14251829D02*
X42930326Y14299448D01*
X42930326Y14299448D02*
X42835088Y14299448D01*
X42073183Y14299448D02*
X42073183Y13489924D01*
X42073183Y13489924D02*
X42120802Y13394686D01*
X42120802Y13394686D02*
X42168421Y13347067D01*
X42168421Y13347067D02*
X42263659Y13299448D01*
X42263659Y13299448D02*
X42406516Y13299448D01*
X42406516Y13299448D02*
X42501754Y13347067D01*
X42073183Y13680400D02*
X42168421Y13632781D01*
X42168421Y13632781D02*
X42358897Y13632781D01*
X42358897Y13632781D02*
X42454135Y13680400D01*
X42454135Y13680400D02*
X42501754Y13728020D01*
X42501754Y13728020D02*
X42549373Y13823258D01*
X42549373Y13823258D02*
X42549373Y14108972D01*
X42549373Y14108972D02*
X42501754Y14204210D01*
X42501754Y14204210D02*
X42454135Y14251829D01*
X42454135Y14251829D02*
X42358897Y14299448D01*
X42358897Y14299448D02*
X42168421Y14299448D01*
X42168421Y14299448D02*
X42073183Y14251829D01*
X41596992Y13632781D02*
X41596992Y14299448D01*
X41596992Y14632781D02*
X41644611Y14585162D01*
X41644611Y14585162D02*
X41596992Y14537543D01*
X41596992Y14537543D02*
X41549373Y14585162D01*
X41549373Y14585162D02*
X41596992Y14632781D01*
X41596992Y14632781D02*
X41596992Y14537543D01*
X41120802Y14299448D02*
X41120802Y13632781D01*
X41120802Y14204210D02*
X41073183Y14251829D01*
X41073183Y14251829D02*
X40977945Y14299448D01*
X40977945Y14299448D02*
X40835088Y14299448D01*
X40835088Y14299448D02*
X40739850Y14251829D01*
X40739850Y14251829D02*
X40692231Y14156591D01*
X40692231Y14156591D02*
X40692231Y13632781D01*
X39787469Y14299448D02*
X39787469Y13489924D01*
X39787469Y13489924D02*
X39835088Y13394686D01*
X39835088Y13394686D02*
X39882707Y13347067D01*
X39882707Y13347067D02*
X39977945Y13299448D01*
X39977945Y13299448D02*
X40120802Y13299448D01*
X40120802Y13299448D02*
X40216040Y13347067D01*
X39787469Y13680400D02*
X39882707Y13632781D01*
X39882707Y13632781D02*
X40073183Y13632781D01*
X40073183Y13632781D02*
X40168421Y13680400D01*
X40168421Y13680400D02*
X40216040Y13728020D01*
X40216040Y13728020D02*
X40263659Y13823258D01*
X40263659Y13823258D02*
X40263659Y14108972D01*
X40263659Y14108972D02*
X40216040Y14204210D01*
X40216040Y14204210D02*
X40168421Y14251829D01*
X40168421Y14251829D02*
X40073183Y14299448D01*
X40073183Y14299448D02*
X39882707Y14299448D01*
X39882707Y14299448D02*
X39787469Y14251829D01*
D12*
G04 #@! TO.C,R13*
X44120000Y1153641D02*
X44120000Y846359D01*
X44880000Y1153641D02*
X44880000Y846359D01*
G04 #@! TD*
M02*
