G04 #@! TF.GenerationSoftware,KiCad,Pcbnew,(6.0.11)*
G04 #@! TF.CreationDate,2023-02-01T15:04:08+01:00*
G04 #@! TF.ProjectId,ESP32-C3,45535033-322d-4433-932e-6b696361645f,rev?*
G04 #@! TF.SameCoordinates,Original*
G04 #@! TF.FileFunction,Other,Comment*
%FSLAX46Y46*%
G04 Gerber Fmt 4.6, Leading zero omitted, Abs format (unit mm)*
G04 Created by KiCad (PCBNEW (6.0.11)) date 2023-02-01 15:04:08*
%MOMM*%
%LPD*%
G01*
G04 APERTURE LIST*
%ADD10C,0.150000*%
%ADD11C,0.002000*%
%ADD12C,0.100000*%
G04 APERTURE END LIST*
D10*
G04 #@! TO.C,U1*
X-4872381Y14278572D02*
X-3872381Y14278572D01*
X-3872381Y13897620D01*
X-3920000Y13802381D01*
X-3967620Y13754762D01*
X-4062858Y13707143D01*
X-4205715Y13707143D01*
X-4300953Y13754762D01*
X-4348572Y13802381D01*
X-4396191Y13897620D01*
X-4396191Y14278572D01*
X-4777143Y12707143D02*
X-4824762Y12754762D01*
X-4872381Y12897620D01*
X-4872381Y12992858D01*
X-4824762Y13135715D01*
X-4729524Y13230953D01*
X-4634286Y13278572D01*
X-4443810Y13326191D01*
X-4300953Y13326191D01*
X-4110477Y13278572D01*
X-4015239Y13230953D01*
X-3920000Y13135715D01*
X-3872381Y12992858D01*
X-3872381Y12897620D01*
X-3920000Y12754762D01*
X-3967620Y12707143D01*
X-4348572Y11945239D02*
X-4396191Y11802381D01*
X-4443810Y11754762D01*
X-4539048Y11707143D01*
X-4681905Y11707143D01*
X-4777143Y11754762D01*
X-4824762Y11802381D01*
X-4872381Y11897620D01*
X-4872381Y12278572D01*
X-3872381Y12278572D01*
X-3872381Y11945239D01*
X-3920000Y11850000D01*
X-3967620Y11802381D01*
X-4062858Y11754762D01*
X-4158096Y11754762D01*
X-4253334Y11802381D01*
X-4300953Y11850000D01*
X-4348572Y11945239D01*
X-4348572Y12278572D01*
X-4348572Y10516667D02*
X-4348572Y10183334D01*
X-4872381Y10040477D02*
X-4872381Y10516667D01*
X-3872381Y10516667D01*
X-3872381Y10040477D01*
X-4872381Y9183334D02*
X-3872381Y9183334D01*
X-4824762Y9183334D02*
X-4872381Y9278572D01*
X-4872381Y9469048D01*
X-4824762Y9564286D01*
X-4777143Y9611905D01*
X-4681905Y9659524D01*
X-4396191Y9659524D01*
X-4300953Y9611905D01*
X-4253334Y9564286D01*
X-4205715Y9469048D01*
X-4205715Y9278572D01*
X-4253334Y9183334D01*
X-4205715Y8278572D02*
X-5015239Y8278572D01*
X-5110477Y8326191D01*
X-5158096Y8373810D01*
X-5205715Y8469048D01*
X-5205715Y8611905D01*
X-5158096Y8707143D01*
X-4824762Y8278572D02*
X-4872381Y8373810D01*
X-4872381Y8564286D01*
X-4824762Y8659524D01*
X-4777143Y8707143D01*
X-4681905Y8754762D01*
X-4396191Y8754762D01*
X-4300953Y8707143D01*
X-4253334Y8659524D01*
X-4205715Y8564286D01*
X-4205715Y8373810D01*
X-4253334Y8278572D01*
X-4824762Y7421429D02*
X-4872381Y7516667D01*
X-4872381Y7707143D01*
X-4824762Y7802381D01*
X-4729524Y7850000D01*
X-4348572Y7850000D01*
X-4253334Y7802381D01*
X-4205715Y7707143D01*
X-4205715Y7516667D01*
X-4253334Y7421429D01*
X-4348572Y7373810D01*
X-4443810Y7373810D01*
X-4539048Y7850000D01*
G04 #@! TO.C,U3*
X16368128Y11346320D02*
X16463366Y11346320D01*
X16558604Y11298700D01*
X16606223Y11251081D01*
X16653842Y11155843D01*
X16701461Y10965367D01*
X16701461Y10727272D01*
X16653842Y10536796D01*
X16606223Y10441558D01*
X16558604Y10393939D01*
X16463366Y10346320D01*
X16368128Y10346320D01*
X16272890Y10393939D01*
X16225271Y10441558D01*
X16177652Y10536796D01*
X16130033Y10727272D01*
X16130033Y10965367D01*
X16177652Y11155843D01*
X16225271Y11251081D01*
X16272890Y11298700D01*
X16368128Y11346320D01*
X17130033Y10441558D02*
X17177652Y10393939D01*
X17130033Y10346320D01*
X17082414Y10393939D01*
X17130033Y10441558D01*
X17130033Y10346320D01*
X17796700Y11346320D02*
X17891938Y11346320D01*
X17987176Y11298700D01*
X18034795Y11251081D01*
X18082414Y11155843D01*
X18130033Y10965367D01*
X18130033Y10727272D01*
X18082414Y10536796D01*
X18034795Y10441558D01*
X17987176Y10393939D01*
X17891938Y10346320D01*
X17796700Y10346320D01*
X17701461Y10393939D01*
X17653842Y10441558D01*
X17606223Y10536796D01*
X17558604Y10727272D01*
X17558604Y10965367D01*
X17606223Y11155843D01*
X17653842Y11251081D01*
X17701461Y11298700D01*
X17796700Y11346320D01*
X19082414Y10346320D02*
X18510985Y10346320D01*
X18796700Y10346320D02*
X18796700Y11346320D01*
X18701461Y11203462D01*
X18606223Y11108224D01*
X18510985Y11060605D01*
X19510985Y10346320D02*
X19510985Y11012986D01*
X19510985Y11346320D02*
X19463366Y11298700D01*
X19510985Y11251081D01*
X19558604Y11298700D01*
X19510985Y11346320D01*
X19510985Y11251081D01*
X19987176Y11012986D02*
X19987176Y10346320D01*
X19987176Y10917748D02*
X20034795Y10965367D01*
X20130033Y11012986D01*
X20272890Y11012986D01*
X20368128Y10965367D01*
X20415747Y10870129D01*
X20415747Y10346320D01*
X21606223Y11393939D02*
X20749080Y10108224D01*
X22130033Y11346320D02*
X22225271Y11346320D01*
X22320509Y11298700D01*
X22368128Y11251081D01*
X22415747Y11155843D01*
X22463366Y10965367D01*
X22463366Y10727272D01*
X22415747Y10536796D01*
X22368128Y10441558D01*
X22320509Y10393939D01*
X22225271Y10346320D01*
X22130033Y10346320D01*
X22034795Y10393939D01*
X21987176Y10441558D01*
X21939557Y10536796D01*
X21891938Y10727272D01*
X21891938Y10965367D01*
X21939557Y11155843D01*
X21987176Y11251081D01*
X22034795Y11298700D01*
X22130033Y11346320D01*
X22891938Y10441558D02*
X22939557Y10393939D01*
X22891938Y10346320D01*
X22844319Y10393939D01*
X22891938Y10441558D01*
X22891938Y10346320D01*
X23320509Y11251081D02*
X23368128Y11298700D01*
X23463366Y11346320D01*
X23701461Y11346320D01*
X23796700Y11298700D01*
X23844319Y11251081D01*
X23891938Y11155843D01*
X23891938Y11060605D01*
X23844319Y10917748D01*
X23272890Y10346320D01*
X23891938Y10346320D01*
X24796700Y11346320D02*
X24320509Y11346320D01*
X24272890Y10870129D01*
X24320509Y10917748D01*
X24415747Y10965367D01*
X24653842Y10965367D01*
X24749080Y10917748D01*
X24796700Y10870129D01*
X24844319Y10774891D01*
X24844319Y10536796D01*
X24796700Y10441558D01*
X24749080Y10393939D01*
X24653842Y10346320D01*
X24415747Y10346320D01*
X24320509Y10393939D01*
X24272890Y10441558D01*
X25749080Y11346320D02*
X25272890Y11346320D01*
X25225271Y10870129D01*
X25272890Y10917748D01*
X25368128Y10965367D01*
X25606223Y10965367D01*
X25701461Y10917748D01*
X25749080Y10870129D01*
X25796700Y10774891D01*
X25796700Y10536796D01*
X25749080Y10441558D01*
X25701461Y10393939D01*
X25606223Y10346320D01*
X25368128Y10346320D01*
X25272890Y10393939D01*
X25225271Y10441558D01*
X26225271Y10346320D02*
X26225271Y11012986D01*
X26225271Y10917748D02*
X26272890Y10965367D01*
X26368128Y11012986D01*
X26510985Y11012986D01*
X26606223Y10965367D01*
X26653842Y10870129D01*
X26653842Y10346320D01*
X26653842Y10870129D02*
X26701461Y10965367D01*
X26796700Y11012986D01*
X26939557Y11012986D01*
X27034795Y10965367D01*
X27082414Y10870129D01*
X27082414Y10346320D01*
X27558604Y10346320D02*
X27558604Y11012986D01*
X27558604Y10917748D02*
X27606223Y10965367D01*
X27701461Y11012986D01*
X27844319Y11012986D01*
X27939557Y10965367D01*
X27987176Y10870129D01*
X27987176Y10346320D01*
X27987176Y10870129D02*
X28034795Y10965367D01*
X28130033Y11012986D01*
X28272890Y11012986D01*
X28368128Y10965367D01*
X28415747Y10870129D01*
X28415747Y10346320D01*
X13320128Y3400920D02*
X13415366Y3400920D01*
X13510604Y3353300D01*
X13558223Y3305681D01*
X13605842Y3210443D01*
X13653461Y3019967D01*
X13653461Y2781872D01*
X13605842Y2591396D01*
X13558223Y2496158D01*
X13510604Y2448539D01*
X13415366Y2400920D01*
X13320128Y2400920D01*
X13224890Y2448539D01*
X13177271Y2496158D01*
X13129652Y2591396D01*
X13082033Y2781872D01*
X13082033Y3019967D01*
X13129652Y3210443D01*
X13177271Y3305681D01*
X13224890Y3353300D01*
X13320128Y3400920D01*
X14082033Y2496158D02*
X14129652Y2448539D01*
X14082033Y2400920D01*
X14034414Y2448539D01*
X14082033Y2496158D01*
X14082033Y2400920D01*
X14748700Y3400920D02*
X14843938Y3400920D01*
X14939176Y3353300D01*
X14986795Y3305681D01*
X15034414Y3210443D01*
X15082033Y3019967D01*
X15082033Y2781872D01*
X15034414Y2591396D01*
X14986795Y2496158D01*
X14939176Y2448539D01*
X14843938Y2400920D01*
X14748700Y2400920D01*
X14653461Y2448539D01*
X14605842Y2496158D01*
X14558223Y2591396D01*
X14510604Y2781872D01*
X14510604Y3019967D01*
X14558223Y3210443D01*
X14605842Y3305681D01*
X14653461Y3353300D01*
X14748700Y3400920D01*
X15415366Y3400920D02*
X16034414Y3400920D01*
X15701080Y3019967D01*
X15843938Y3019967D01*
X15939176Y2972348D01*
X15986795Y2924729D01*
X16034414Y2829491D01*
X16034414Y2591396D01*
X15986795Y2496158D01*
X15939176Y2448539D01*
X15843938Y2400920D01*
X15558223Y2400920D01*
X15462985Y2448539D01*
X15415366Y2496158D01*
X16462985Y2400920D02*
X16462985Y3067586D01*
X16462985Y3400920D02*
X16415366Y3353300D01*
X16462985Y3305681D01*
X16510604Y3353300D01*
X16462985Y3400920D01*
X16462985Y3305681D01*
X16939176Y3067586D02*
X16939176Y2400920D01*
X16939176Y2972348D02*
X16986795Y3019967D01*
X17082033Y3067586D01*
X17224890Y3067586D01*
X17320128Y3019967D01*
X17367747Y2924729D01*
X17367747Y2400920D01*
X18558223Y3448539D02*
X17701080Y2162824D01*
X19082033Y3400920D02*
X19177271Y3400920D01*
X19272509Y3353300D01*
X19320128Y3305681D01*
X19367747Y3210443D01*
X19415366Y3019967D01*
X19415366Y2781872D01*
X19367747Y2591396D01*
X19320128Y2496158D01*
X19272509Y2448539D01*
X19177271Y2400920D01*
X19082033Y2400920D01*
X18986795Y2448539D01*
X18939176Y2496158D01*
X18891557Y2591396D01*
X18843938Y2781872D01*
X18843938Y3019967D01*
X18891557Y3210443D01*
X18939176Y3305681D01*
X18986795Y3353300D01*
X19082033Y3400920D01*
X19843938Y2496158D02*
X19891557Y2448539D01*
X19843938Y2400920D01*
X19796319Y2448539D01*
X19843938Y2496158D01*
X19843938Y2400920D01*
X20224890Y3400920D02*
X20891557Y3400920D01*
X20462985Y2400920D01*
X21748700Y3400920D02*
X21272509Y3400920D01*
X21224890Y2924729D01*
X21272509Y2972348D01*
X21367747Y3019967D01*
X21605842Y3019967D01*
X21701080Y2972348D01*
X21748700Y2924729D01*
X21796319Y2829491D01*
X21796319Y2591396D01*
X21748700Y2496158D01*
X21701080Y2448539D01*
X21605842Y2400920D01*
X21367747Y2400920D01*
X21272509Y2448539D01*
X21224890Y2496158D01*
X22129652Y3400920D02*
X22796319Y3400920D01*
X22367747Y2400920D01*
X23177271Y2400920D02*
X23177271Y3067586D01*
X23177271Y2972348D02*
X23224890Y3019967D01*
X23320128Y3067586D01*
X23462985Y3067586D01*
X23558223Y3019967D01*
X23605842Y2924729D01*
X23605842Y2400920D01*
X23605842Y2924729D02*
X23653461Y3019967D01*
X23748700Y3067586D01*
X23891557Y3067586D01*
X23986795Y3019967D01*
X24034414Y2924729D01*
X24034414Y2400920D01*
X24510604Y2400920D02*
X24510604Y3067586D01*
X24510604Y2972348D02*
X24558223Y3019967D01*
X24653461Y3067586D01*
X24796319Y3067586D01*
X24891557Y3019967D01*
X24939176Y2924729D01*
X24939176Y2400920D01*
X24939176Y2924729D02*
X24986795Y3019967D01*
X25082033Y3067586D01*
X25224890Y3067586D01*
X25320128Y3019967D01*
X25367747Y2924729D01*
X25367747Y2400920D01*
D11*
X14154166Y8304643D02*
X14148119Y8298596D01*
X14129976Y8292548D01*
X14117880Y8292548D01*
X14099738Y8298596D01*
X14087642Y8310691D01*
X14081595Y8322786D01*
X14075547Y8346977D01*
X14075547Y8365120D01*
X14081595Y8389310D01*
X14087642Y8401405D01*
X14099738Y8413500D01*
X14117880Y8419548D01*
X14129976Y8419548D01*
X14148119Y8413500D01*
X14154166Y8407453D01*
X14226738Y8292548D02*
X14214642Y8298596D01*
X14208595Y8304643D01*
X14202547Y8316739D01*
X14202547Y8353024D01*
X14208595Y8365120D01*
X14214642Y8371167D01*
X14226738Y8377215D01*
X14244880Y8377215D01*
X14256976Y8371167D01*
X14263023Y8365120D01*
X14269071Y8353024D01*
X14269071Y8316739D01*
X14263023Y8304643D01*
X14256976Y8298596D01*
X14244880Y8292548D01*
X14226738Y8292548D01*
X14323500Y8377215D02*
X14323500Y8250215D01*
X14323500Y8371167D02*
X14335595Y8377215D01*
X14359785Y8377215D01*
X14371880Y8371167D01*
X14377928Y8365120D01*
X14383976Y8353024D01*
X14383976Y8316739D01*
X14377928Y8304643D01*
X14371880Y8298596D01*
X14359785Y8292548D01*
X14335595Y8292548D01*
X14323500Y8298596D01*
X14426309Y8377215D02*
X14456547Y8292548D01*
X14486785Y8377215D02*
X14456547Y8292548D01*
X14444452Y8262310D01*
X14438404Y8256262D01*
X14426309Y8250215D01*
X14535166Y8292548D02*
X14535166Y8377215D01*
X14535166Y8353024D02*
X14541214Y8365120D01*
X14547261Y8371167D01*
X14559357Y8377215D01*
X14571452Y8377215D01*
X14613785Y8292548D02*
X14613785Y8377215D01*
X14613785Y8419548D02*
X14607738Y8413500D01*
X14613785Y8407453D01*
X14619833Y8413500D01*
X14613785Y8419548D01*
X14613785Y8407453D01*
X14728690Y8377215D02*
X14728690Y8274405D01*
X14722642Y8262310D01*
X14716595Y8256262D01*
X14704500Y8250215D01*
X14686357Y8250215D01*
X14674261Y8256262D01*
X14728690Y8298596D02*
X14716595Y8292548D01*
X14692404Y8292548D01*
X14680309Y8298596D01*
X14674261Y8304643D01*
X14668214Y8316739D01*
X14668214Y8353024D01*
X14674261Y8365120D01*
X14680309Y8371167D01*
X14692404Y8377215D01*
X14716595Y8377215D01*
X14728690Y8371167D01*
X14789166Y8292548D02*
X14789166Y8419548D01*
X14843595Y8292548D02*
X14843595Y8359072D01*
X14837547Y8371167D01*
X14825452Y8377215D01*
X14807309Y8377215D01*
X14795214Y8371167D01*
X14789166Y8365120D01*
X14885928Y8377215D02*
X14934309Y8377215D01*
X14904071Y8419548D02*
X14904071Y8310691D01*
X14910119Y8298596D01*
X14922214Y8292548D01*
X14934309Y8292548D01*
X15067357Y8407453D02*
X15073404Y8413500D01*
X15085500Y8419548D01*
X15115738Y8419548D01*
X15127833Y8413500D01*
X15133880Y8407453D01*
X15139928Y8395358D01*
X15139928Y8383262D01*
X15133880Y8365120D01*
X15061309Y8292548D01*
X15139928Y8292548D01*
X15218547Y8419548D02*
X15230642Y8419548D01*
X15242738Y8413500D01*
X15248785Y8407453D01*
X15254833Y8395358D01*
X15260880Y8371167D01*
X15260880Y8340929D01*
X15254833Y8316739D01*
X15248785Y8304643D01*
X15242738Y8298596D01*
X15230642Y8292548D01*
X15218547Y8292548D01*
X15206452Y8298596D01*
X15200404Y8304643D01*
X15194357Y8316739D01*
X15188309Y8340929D01*
X15188309Y8371167D01*
X15194357Y8395358D01*
X15200404Y8407453D01*
X15206452Y8413500D01*
X15218547Y8419548D01*
X15309261Y8407453D02*
X15315309Y8413500D01*
X15327404Y8419548D01*
X15357642Y8419548D01*
X15369738Y8413500D01*
X15375785Y8407453D01*
X15381833Y8395358D01*
X15381833Y8383262D01*
X15375785Y8365120D01*
X15303214Y8292548D01*
X15381833Y8292548D01*
X15502785Y8292548D02*
X15430214Y8292548D01*
X15466500Y8292548D02*
X15466500Y8419548D01*
X15454404Y8401405D01*
X15442309Y8389310D01*
X15430214Y8383262D01*
X15647928Y8328834D02*
X15708404Y8328834D01*
X15635833Y8292548D02*
X15678166Y8419548D01*
X15720500Y8292548D01*
X15817261Y8298596D02*
X15805166Y8292548D01*
X15780976Y8292548D01*
X15768880Y8298596D01*
X15762833Y8304643D01*
X15756785Y8316739D01*
X15756785Y8353024D01*
X15762833Y8365120D01*
X15768880Y8371167D01*
X15780976Y8377215D01*
X15805166Y8377215D01*
X15817261Y8371167D01*
X15926119Y8298596D02*
X15914023Y8292548D01*
X15889833Y8292548D01*
X15877738Y8298596D01*
X15871690Y8304643D01*
X15865642Y8316739D01*
X15865642Y8353024D01*
X15871690Y8365120D01*
X15877738Y8371167D01*
X15889833Y8377215D01*
X15914023Y8377215D01*
X15926119Y8371167D01*
X16028928Y8298596D02*
X16016833Y8292548D01*
X15992642Y8292548D01*
X15980547Y8298596D01*
X15974500Y8310691D01*
X15974500Y8359072D01*
X15980547Y8371167D01*
X15992642Y8377215D01*
X16016833Y8377215D01*
X16028928Y8371167D01*
X16034976Y8359072D01*
X16034976Y8346977D01*
X15974500Y8334881D01*
X16107547Y8292548D02*
X16095452Y8298596D01*
X16089404Y8310691D01*
X16089404Y8419548D01*
X16204309Y8298596D02*
X16192214Y8292548D01*
X16168023Y8292548D01*
X16155928Y8298596D01*
X16149880Y8310691D01*
X16149880Y8359072D01*
X16155928Y8371167D01*
X16168023Y8377215D01*
X16192214Y8377215D01*
X16204309Y8371167D01*
X16210357Y8359072D01*
X16210357Y8346977D01*
X16149880Y8334881D01*
X16264785Y8292548D02*
X16264785Y8377215D01*
X16264785Y8353024D02*
X16270833Y8365120D01*
X16276880Y8371167D01*
X16288976Y8377215D01*
X16301071Y8377215D01*
X16397833Y8292548D02*
X16397833Y8359072D01*
X16391785Y8371167D01*
X16379690Y8377215D01*
X16355500Y8377215D01*
X16343404Y8371167D01*
X16397833Y8298596D02*
X16385738Y8292548D01*
X16355500Y8292548D01*
X16343404Y8298596D01*
X16337357Y8310691D01*
X16337357Y8322786D01*
X16343404Y8334881D01*
X16355500Y8340929D01*
X16385738Y8340929D01*
X16397833Y8346977D01*
X16440166Y8377215D02*
X16488547Y8377215D01*
X16458309Y8419548D02*
X16458309Y8310691D01*
X16464357Y8298596D01*
X16476452Y8292548D01*
X16488547Y8292548D01*
X16579261Y8298596D02*
X16567166Y8292548D01*
X16542976Y8292548D01*
X16530880Y8298596D01*
X16524833Y8310691D01*
X16524833Y8359072D01*
X16530880Y8371167D01*
X16542976Y8377215D01*
X16567166Y8377215D01*
X16579261Y8371167D01*
X16585309Y8359072D01*
X16585309Y8346977D01*
X16524833Y8334881D01*
X16694166Y8292548D02*
X16694166Y8419548D01*
X16694166Y8298596D02*
X16682071Y8292548D01*
X16657880Y8292548D01*
X16645785Y8298596D01*
X16639738Y8304643D01*
X16633690Y8316739D01*
X16633690Y8353024D01*
X16639738Y8365120D01*
X16645785Y8371167D01*
X16657880Y8377215D01*
X16682071Y8377215D01*
X16694166Y8371167D01*
X16851404Y8292548D02*
X16851404Y8419548D01*
X16881642Y8419548D01*
X16899785Y8413500D01*
X16911880Y8401405D01*
X16917928Y8389310D01*
X16923976Y8365120D01*
X16923976Y8346977D01*
X16917928Y8322786D01*
X16911880Y8310691D01*
X16899785Y8298596D01*
X16881642Y8292548D01*
X16851404Y8292548D01*
X17026785Y8298596D02*
X17014690Y8292548D01*
X16990500Y8292548D01*
X16978404Y8298596D01*
X16972357Y8310691D01*
X16972357Y8359072D01*
X16978404Y8371167D01*
X16990500Y8377215D01*
X17014690Y8377215D01*
X17026785Y8371167D01*
X17032833Y8359072D01*
X17032833Y8346977D01*
X16972357Y8334881D01*
X17081214Y8298596D02*
X17093309Y8292548D01*
X17117500Y8292548D01*
X17129595Y8298596D01*
X17135642Y8310691D01*
X17135642Y8316739D01*
X17129595Y8328834D01*
X17117500Y8334881D01*
X17099357Y8334881D01*
X17087261Y8340929D01*
X17081214Y8353024D01*
X17081214Y8359072D01*
X17087261Y8371167D01*
X17099357Y8377215D01*
X17117500Y8377215D01*
X17129595Y8371167D01*
X17190071Y8292548D02*
X17190071Y8377215D01*
X17190071Y8419548D02*
X17184023Y8413500D01*
X17190071Y8407453D01*
X17196119Y8413500D01*
X17190071Y8419548D01*
X17190071Y8407453D01*
X17304976Y8377215D02*
X17304976Y8274405D01*
X17298928Y8262310D01*
X17292880Y8256262D01*
X17280785Y8250215D01*
X17262642Y8250215D01*
X17250547Y8256262D01*
X17304976Y8298596D02*
X17292880Y8292548D01*
X17268690Y8292548D01*
X17256595Y8298596D01*
X17250547Y8304643D01*
X17244500Y8316739D01*
X17244500Y8353024D01*
X17250547Y8365120D01*
X17256595Y8371167D01*
X17268690Y8377215D01*
X17292880Y8377215D01*
X17304976Y8371167D01*
X17365452Y8377215D02*
X17365452Y8292548D01*
X17365452Y8365120D02*
X17371500Y8371167D01*
X17383595Y8377215D01*
X17401738Y8377215D01*
X17413833Y8371167D01*
X17419880Y8359072D01*
X17419880Y8292548D01*
X17474309Y8298596D02*
X17486404Y8292548D01*
X17510595Y8292548D01*
X17522690Y8298596D01*
X17528738Y8310691D01*
X17528738Y8316739D01*
X17522690Y8328834D01*
X17510595Y8334881D01*
X17492452Y8334881D01*
X17480357Y8340929D01*
X17474309Y8353024D01*
X17474309Y8359072D01*
X17480357Y8371167D01*
X17492452Y8377215D01*
X17510595Y8377215D01*
X17522690Y8371167D01*
X17583166Y8304643D02*
X17589214Y8298596D01*
X17583166Y8292548D01*
X17577119Y8298596D01*
X17583166Y8304643D01*
X17583166Y8292548D01*
X17734357Y8328834D02*
X17794833Y8328834D01*
X17722261Y8292548D02*
X17764595Y8419548D01*
X17806928Y8292548D01*
X17867404Y8292548D02*
X17855309Y8298596D01*
X17849261Y8310691D01*
X17849261Y8419548D01*
X17933928Y8292548D02*
X17921833Y8298596D01*
X17915785Y8310691D01*
X17915785Y8419548D01*
X18079071Y8292548D02*
X18079071Y8377215D01*
X18079071Y8353024D02*
X18085119Y8365120D01*
X18091166Y8371167D01*
X18103261Y8377215D01*
X18115357Y8377215D01*
X18157690Y8292548D02*
X18157690Y8377215D01*
X18157690Y8419548D02*
X18151642Y8413500D01*
X18157690Y8407453D01*
X18163738Y8413500D01*
X18157690Y8419548D01*
X18157690Y8407453D01*
X18272595Y8377215D02*
X18272595Y8274405D01*
X18266547Y8262310D01*
X18260500Y8256262D01*
X18248404Y8250215D01*
X18230261Y8250215D01*
X18218166Y8256262D01*
X18272595Y8298596D02*
X18260500Y8292548D01*
X18236309Y8292548D01*
X18224214Y8298596D01*
X18218166Y8304643D01*
X18212119Y8316739D01*
X18212119Y8353024D01*
X18218166Y8365120D01*
X18224214Y8371167D01*
X18236309Y8377215D01*
X18260500Y8377215D01*
X18272595Y8371167D01*
X18333071Y8292548D02*
X18333071Y8419548D01*
X18387500Y8292548D02*
X18387500Y8359072D01*
X18381452Y8371167D01*
X18369357Y8377215D01*
X18351214Y8377215D01*
X18339119Y8371167D01*
X18333071Y8365120D01*
X18429833Y8377215D02*
X18478214Y8377215D01*
X18447976Y8419548D02*
X18447976Y8310691D01*
X18454023Y8298596D01*
X18466119Y8292548D01*
X18478214Y8292548D01*
X18514500Y8298596D02*
X18526595Y8292548D01*
X18550785Y8292548D01*
X18562880Y8298596D01*
X18568928Y8310691D01*
X18568928Y8316739D01*
X18562880Y8328834D01*
X18550785Y8334881D01*
X18532642Y8334881D01*
X18520547Y8340929D01*
X18514500Y8353024D01*
X18514500Y8359072D01*
X18520547Y8371167D01*
X18532642Y8377215D01*
X18550785Y8377215D01*
X18562880Y8371167D01*
X18720119Y8292548D02*
X18720119Y8377215D01*
X18720119Y8353024D02*
X18726166Y8365120D01*
X18732214Y8371167D01*
X18744309Y8377215D01*
X18756404Y8377215D01*
X18847119Y8298596D02*
X18835023Y8292548D01*
X18810833Y8292548D01*
X18798738Y8298596D01*
X18792690Y8310691D01*
X18792690Y8359072D01*
X18798738Y8371167D01*
X18810833Y8377215D01*
X18835023Y8377215D01*
X18847119Y8371167D01*
X18853166Y8359072D01*
X18853166Y8346977D01*
X18792690Y8334881D01*
X18901547Y8298596D02*
X18913642Y8292548D01*
X18937833Y8292548D01*
X18949928Y8298596D01*
X18955976Y8310691D01*
X18955976Y8316739D01*
X18949928Y8328834D01*
X18937833Y8334881D01*
X18919690Y8334881D01*
X18907595Y8340929D01*
X18901547Y8353024D01*
X18901547Y8359072D01*
X18907595Y8371167D01*
X18919690Y8377215D01*
X18937833Y8377215D01*
X18949928Y8371167D01*
X19058785Y8298596D02*
X19046690Y8292548D01*
X19022500Y8292548D01*
X19010404Y8298596D01*
X19004357Y8310691D01*
X19004357Y8359072D01*
X19010404Y8371167D01*
X19022500Y8377215D01*
X19046690Y8377215D01*
X19058785Y8371167D01*
X19064833Y8359072D01*
X19064833Y8346977D01*
X19004357Y8334881D01*
X19119261Y8292548D02*
X19119261Y8377215D01*
X19119261Y8353024D02*
X19125309Y8365120D01*
X19131357Y8371167D01*
X19143452Y8377215D01*
X19155547Y8377215D01*
X19185785Y8377215D02*
X19216023Y8292548D01*
X19246261Y8377215D01*
X19343023Y8298596D02*
X19330928Y8292548D01*
X19306738Y8292548D01*
X19294642Y8298596D01*
X19288595Y8310691D01*
X19288595Y8359072D01*
X19294642Y8371167D01*
X19306738Y8377215D01*
X19330928Y8377215D01*
X19343023Y8371167D01*
X19349071Y8359072D01*
X19349071Y8346977D01*
X19288595Y8334881D01*
X19457928Y8292548D02*
X19457928Y8419548D01*
X19457928Y8298596D02*
X19445833Y8292548D01*
X19421642Y8292548D01*
X19409547Y8298596D01*
X19403500Y8304643D01*
X19397452Y8316739D01*
X19397452Y8353024D01*
X19403500Y8365120D01*
X19409547Y8371167D01*
X19421642Y8377215D01*
X19445833Y8377215D01*
X19457928Y8371167D01*
X19518404Y8304643D02*
X19524452Y8298596D01*
X19518404Y8292548D01*
X19512357Y8298596D01*
X19518404Y8304643D01*
X19518404Y8292548D01*
D10*
X10395238Y13825220D02*
X10490476Y13825220D01*
X10585714Y13777600D01*
X10633333Y13729981D01*
X10680952Y13634743D01*
X10728571Y13444267D01*
X10728571Y13206172D01*
X10680952Y13015696D01*
X10633333Y12920458D01*
X10585714Y12872839D01*
X10490476Y12825220D01*
X10395238Y12825220D01*
X10300000Y12872839D01*
X10252380Y12920458D01*
X10204761Y13015696D01*
X10157142Y13206172D01*
X10157142Y13444267D01*
X10204761Y13634743D01*
X10252380Y13729981D01*
X10300000Y13777600D01*
X10395238Y13825220D01*
X11157142Y12920458D02*
X11204761Y12872839D01*
X11157142Y12825220D01*
X11109523Y12872839D01*
X11157142Y12920458D01*
X11157142Y12825220D01*
X12157142Y12825220D02*
X11585714Y12825220D01*
X11871428Y12825220D02*
X11871428Y13825220D01*
X11776190Y13682362D01*
X11680952Y13587124D01*
X11585714Y13539505D01*
X13014285Y13491886D02*
X13014285Y12825220D01*
X12776190Y13872839D02*
X12538095Y13158553D01*
X13157142Y13158553D01*
X13680952Y13396648D02*
X13585714Y13444267D01*
X13538095Y13491886D01*
X13490476Y13587124D01*
X13490476Y13634743D01*
X13538095Y13729981D01*
X13585714Y13777600D01*
X13680952Y13825220D01*
X13871428Y13825220D01*
X13966666Y13777600D01*
X14014285Y13729981D01*
X14061904Y13634743D01*
X14061904Y13587124D01*
X14014285Y13491886D01*
X13966666Y13444267D01*
X13871428Y13396648D01*
X13680952Y13396648D01*
X13585714Y13349029D01*
X13538095Y13301410D01*
X13490476Y13206172D01*
X13490476Y13015696D01*
X13538095Y12920458D01*
X13585714Y12872839D01*
X13680952Y12825220D01*
X13871428Y12825220D01*
X13966666Y12872839D01*
X14014285Y12920458D01*
X14061904Y13015696D01*
X14061904Y13206172D01*
X14014285Y13301410D01*
X13966666Y13349029D01*
X13871428Y13396648D01*
X14490476Y12825220D02*
X14490476Y13491886D01*
X14490476Y13825220D02*
X14442857Y13777600D01*
X14490476Y13729981D01*
X14538095Y13777600D01*
X14490476Y13825220D01*
X14490476Y13729981D01*
X14966666Y13491886D02*
X14966666Y12825220D01*
X14966666Y13396648D02*
X15014285Y13444267D01*
X15109523Y13491886D01*
X15252380Y13491886D01*
X15347619Y13444267D01*
X15395238Y13349029D01*
X15395238Y12825220D01*
X16585714Y13872839D02*
X15728571Y12587124D01*
X16823809Y13825220D02*
X17442857Y13825220D01*
X17109523Y13444267D01*
X17252380Y13444267D01*
X17347619Y13396648D01*
X17395238Y13349029D01*
X17442857Y13253791D01*
X17442857Y13015696D01*
X17395238Y12920458D01*
X17347619Y12872839D01*
X17252380Y12825220D01*
X16966666Y12825220D01*
X16871428Y12872839D01*
X16823809Y12920458D01*
X17871428Y12920458D02*
X17919047Y12872839D01*
X17871428Y12825220D01*
X17823809Y12872839D01*
X17871428Y12920458D01*
X17871428Y12825220D01*
X18252380Y13825220D02*
X18919047Y13825220D01*
X18490476Y12825220D01*
X19776190Y13825220D02*
X19300000Y13825220D01*
X19252380Y13349029D01*
X19300000Y13396648D01*
X19395238Y13444267D01*
X19633333Y13444267D01*
X19728571Y13396648D01*
X19776190Y13349029D01*
X19823809Y13253791D01*
X19823809Y13015696D01*
X19776190Y12920458D01*
X19728571Y12872839D01*
X19633333Y12825220D01*
X19395238Y12825220D01*
X19300000Y12872839D01*
X19252380Y12920458D01*
X20300000Y12825220D02*
X20490476Y12825220D01*
X20585714Y12872839D01*
X20633333Y12920458D01*
X20728571Y13063315D01*
X20776190Y13253791D01*
X20776190Y13634743D01*
X20728571Y13729981D01*
X20680952Y13777600D01*
X20585714Y13825220D01*
X20395238Y13825220D01*
X20300000Y13777600D01*
X20252380Y13729981D01*
X20204761Y13634743D01*
X20204761Y13396648D01*
X20252380Y13301410D01*
X20300000Y13253791D01*
X20395238Y13206172D01*
X20585714Y13206172D01*
X20680952Y13253791D01*
X20728571Y13301410D01*
X20776190Y13396648D01*
X21204761Y12825220D02*
X21204761Y13491886D01*
X21204761Y13396648D02*
X21252380Y13444267D01*
X21347619Y13491886D01*
X21490476Y13491886D01*
X21585714Y13444267D01*
X21633333Y13349029D01*
X21633333Y12825220D01*
X21633333Y13349029D02*
X21680952Y13444267D01*
X21776190Y13491886D01*
X21919047Y13491886D01*
X22014285Y13444267D01*
X22061904Y13349029D01*
X22061904Y12825220D01*
X22538095Y12825220D02*
X22538095Y13491886D01*
X22538095Y13396648D02*
X22585714Y13444267D01*
X22680952Y13491886D01*
X22823809Y13491886D01*
X22919047Y13444267D01*
X22966666Y13349029D01*
X22966666Y12825220D01*
X22966666Y13349029D02*
X23014285Y13444267D01*
X23109523Y13491886D01*
X23252380Y13491886D01*
X23347619Y13444267D01*
X23395238Y13349029D01*
X23395238Y12825220D01*
X10395238Y16934319D02*
X10490476Y16934319D01*
X10585714Y16886699D01*
X10633333Y16839080D01*
X10680952Y16743842D01*
X10728571Y16553366D01*
X10728571Y16315271D01*
X10680952Y16124795D01*
X10633333Y16029557D01*
X10585714Y15981938D01*
X10490476Y15934319D01*
X10395238Y15934319D01*
X10300000Y15981938D01*
X10252380Y16029557D01*
X10204761Y16124795D01*
X10157142Y16315271D01*
X10157142Y16553366D01*
X10204761Y16743842D01*
X10252380Y16839080D01*
X10300000Y16886699D01*
X10395238Y16934319D01*
X11157142Y16029557D02*
X11204761Y15981938D01*
X11157142Y15934319D01*
X11109523Y15981938D01*
X11157142Y16029557D01*
X11157142Y15934319D01*
X12157142Y15934319D02*
X11585714Y15934319D01*
X11871428Y15934319D02*
X11871428Y16934319D01*
X11776190Y16791461D01*
X11680952Y16696223D01*
X11585714Y16648604D01*
X12633333Y15934319D02*
X12823809Y15934319D01*
X12919047Y15981938D01*
X12966666Y16029557D01*
X13061904Y16172414D01*
X13109523Y16362890D01*
X13109523Y16743842D01*
X13061904Y16839080D01*
X13014285Y16886699D01*
X12919047Y16934319D01*
X12728571Y16934319D01*
X12633333Y16886699D01*
X12585714Y16839080D01*
X12538095Y16743842D01*
X12538095Y16505747D01*
X12585714Y16410509D01*
X12633333Y16362890D01*
X12728571Y16315271D01*
X12919047Y16315271D01*
X13014285Y16362890D01*
X13061904Y16410509D01*
X13109523Y16505747D01*
X13442857Y16934319D02*
X14061904Y16934319D01*
X13728571Y16553366D01*
X13871428Y16553366D01*
X13966666Y16505747D01*
X14014285Y16458128D01*
X14061904Y16362890D01*
X14061904Y16124795D01*
X14014285Y16029557D01*
X13966666Y15981938D01*
X13871428Y15934319D01*
X13585714Y15934319D01*
X13490476Y15981938D01*
X13442857Y16029557D01*
X14490476Y15934319D02*
X14490476Y16600985D01*
X14490476Y16934319D02*
X14442857Y16886699D01*
X14490476Y16839080D01*
X14538095Y16886699D01*
X14490476Y16934319D01*
X14490476Y16839080D01*
X14966666Y16600985D02*
X14966666Y15934319D01*
X14966666Y16505747D02*
X15014285Y16553366D01*
X15109523Y16600985D01*
X15252380Y16600985D01*
X15347619Y16553366D01*
X15395238Y16458128D01*
X15395238Y15934319D01*
X16585714Y16981938D02*
X15728571Y15696223D01*
X17347619Y16600985D02*
X17347619Y15934319D01*
X17109523Y16981938D02*
X16871428Y16267652D01*
X17490476Y16267652D01*
X17871428Y16029557D02*
X17919047Y15981938D01*
X17871428Y15934319D01*
X17823809Y15981938D01*
X17871428Y16029557D01*
X17871428Y15934319D01*
X18490476Y16505747D02*
X18395238Y16553366D01*
X18347619Y16600985D01*
X18300000Y16696223D01*
X18300000Y16743842D01*
X18347619Y16839080D01*
X18395238Y16886699D01*
X18490476Y16934319D01*
X18680952Y16934319D01*
X18776190Y16886699D01*
X18823809Y16839080D01*
X18871428Y16743842D01*
X18871428Y16696223D01*
X18823809Y16600985D01*
X18776190Y16553366D01*
X18680952Y16505747D01*
X18490476Y16505747D01*
X18395238Y16458128D01*
X18347619Y16410509D01*
X18300000Y16315271D01*
X18300000Y16124795D01*
X18347619Y16029557D01*
X18395238Y15981938D01*
X18490476Y15934319D01*
X18680952Y15934319D01*
X18776190Y15981938D01*
X18823809Y16029557D01*
X18871428Y16124795D01*
X18871428Y16315271D01*
X18823809Y16410509D01*
X18776190Y16458128D01*
X18680952Y16505747D01*
X19347619Y15934319D02*
X19538095Y15934319D01*
X19633333Y15981938D01*
X19680952Y16029557D01*
X19776190Y16172414D01*
X19823809Y16362890D01*
X19823809Y16743842D01*
X19776190Y16839080D01*
X19728571Y16886699D01*
X19633333Y16934319D01*
X19442857Y16934319D01*
X19347619Y16886699D01*
X19300000Y16839080D01*
X19252380Y16743842D01*
X19252380Y16505747D01*
X19300000Y16410509D01*
X19347619Y16362890D01*
X19442857Y16315271D01*
X19633333Y16315271D01*
X19728571Y16362890D01*
X19776190Y16410509D01*
X19823809Y16505747D01*
X20157142Y16934319D02*
X20823809Y16934319D01*
X20395238Y15934319D01*
X21204761Y15934319D02*
X21204761Y16600985D01*
X21204761Y16505747D02*
X21252380Y16553366D01*
X21347619Y16600985D01*
X21490476Y16600985D01*
X21585714Y16553366D01*
X21633333Y16458128D01*
X21633333Y15934319D01*
X21633333Y16458128D02*
X21680952Y16553366D01*
X21776190Y16600985D01*
X21919047Y16600985D01*
X22014285Y16553366D01*
X22061904Y16458128D01*
X22061904Y15934319D01*
X22538095Y15934319D02*
X22538095Y16600985D01*
X22538095Y16505747D02*
X22585714Y16553366D01*
X22680952Y16600985D01*
X22823809Y16600985D01*
X22919047Y16553366D01*
X22966666Y16458128D01*
X22966666Y15934319D01*
X22966666Y16458128D02*
X23014285Y16553366D01*
X23109523Y16600985D01*
X23252380Y16600985D01*
X23347619Y16553366D01*
X23395238Y16458128D01*
X23395238Y15934319D01*
X5467638Y8262620D02*
X5562876Y8262620D01*
X5658114Y8215000D01*
X5705733Y8167381D01*
X5753352Y8072143D01*
X5800971Y7881667D01*
X5800971Y7643572D01*
X5753352Y7453096D01*
X5705733Y7357858D01*
X5658114Y7310239D01*
X5562876Y7262620D01*
X5467638Y7262620D01*
X5372400Y7310239D01*
X5324780Y7357858D01*
X5277161Y7453096D01*
X5229542Y7643572D01*
X5229542Y7881667D01*
X5277161Y8072143D01*
X5324780Y8167381D01*
X5372400Y8215000D01*
X5467638Y8262620D01*
X6229542Y7357858D02*
X6277161Y7310239D01*
X6229542Y7262620D01*
X6181923Y7310239D01*
X6229542Y7357858D01*
X6229542Y7262620D01*
X7229542Y7262620D02*
X6658114Y7262620D01*
X6943828Y7262620D02*
X6943828Y8262620D01*
X6848590Y8119762D01*
X6753352Y8024524D01*
X6658114Y7976905D01*
X8086685Y7929286D02*
X8086685Y7262620D01*
X7848590Y8310239D02*
X7610495Y7595953D01*
X8229542Y7595953D01*
X8753352Y7834048D02*
X8658114Y7881667D01*
X8610495Y7929286D01*
X8562876Y8024524D01*
X8562876Y8072143D01*
X8610495Y8167381D01*
X8658114Y8215000D01*
X8753352Y8262620D01*
X8943828Y8262620D01*
X9039066Y8215000D01*
X9086685Y8167381D01*
X9134304Y8072143D01*
X9134304Y8024524D01*
X9086685Y7929286D01*
X9039066Y7881667D01*
X8943828Y7834048D01*
X8753352Y7834048D01*
X8658114Y7786429D01*
X8610495Y7738810D01*
X8562876Y7643572D01*
X8562876Y7453096D01*
X8610495Y7357858D01*
X8658114Y7310239D01*
X8753352Y7262620D01*
X8943828Y7262620D01*
X9039066Y7310239D01*
X9086685Y7357858D01*
X9134304Y7453096D01*
X9134304Y7643572D01*
X9086685Y7738810D01*
X9039066Y7786429D01*
X8943828Y7834048D01*
X9562876Y7262620D02*
X9562876Y7929286D01*
X9562876Y8262620D02*
X9515257Y8215000D01*
X9562876Y8167381D01*
X9610495Y8215000D01*
X9562876Y8262620D01*
X9562876Y8167381D01*
X10039066Y7929286D02*
X10039066Y7262620D01*
X10039066Y7834048D02*
X10086685Y7881667D01*
X10181923Y7929286D01*
X10324780Y7929286D01*
X10420019Y7881667D01*
X10467638Y7786429D01*
X10467638Y7262620D01*
X11658114Y8310239D02*
X10800971Y7024524D01*
X11896209Y8262620D02*
X12515257Y8262620D01*
X12181923Y7881667D01*
X12324780Y7881667D01*
X12420019Y7834048D01*
X12467638Y7786429D01*
X12515257Y7691191D01*
X12515257Y7453096D01*
X12467638Y7357858D01*
X12420019Y7310239D01*
X12324780Y7262620D01*
X12039066Y7262620D01*
X11943828Y7310239D01*
X11896209Y7357858D01*
X12943828Y7357858D02*
X12991447Y7310239D01*
X12943828Y7262620D01*
X12896209Y7310239D01*
X12943828Y7357858D01*
X12943828Y7262620D01*
X13324780Y8262620D02*
X13991447Y8262620D01*
X13562876Y7262620D01*
X14848590Y8262620D02*
X14372400Y8262620D01*
X14324780Y7786429D01*
X14372400Y7834048D01*
X14467638Y7881667D01*
X14705733Y7881667D01*
X14800971Y7834048D01*
X14848590Y7786429D01*
X14896209Y7691191D01*
X14896209Y7453096D01*
X14848590Y7357858D01*
X14800971Y7310239D01*
X14705733Y7262620D01*
X14467638Y7262620D01*
X14372400Y7310239D01*
X14324780Y7357858D01*
X15372400Y7262620D02*
X15562876Y7262620D01*
X15658114Y7310239D01*
X15705733Y7357858D01*
X15800971Y7500715D01*
X15848590Y7691191D01*
X15848590Y8072143D01*
X15800971Y8167381D01*
X15753352Y8215000D01*
X15658114Y8262620D01*
X15467638Y8262620D01*
X15372400Y8215000D01*
X15324780Y8167381D01*
X15277161Y8072143D01*
X15277161Y7834048D01*
X15324780Y7738810D01*
X15372400Y7691191D01*
X15467638Y7643572D01*
X15658114Y7643572D01*
X15753352Y7691191D01*
X15800971Y7738810D01*
X15848590Y7834048D01*
X16277161Y7262620D02*
X16277161Y7929286D01*
X16277161Y7834048D02*
X16324780Y7881667D01*
X16420019Y7929286D01*
X16562876Y7929286D01*
X16658114Y7881667D01*
X16705733Y7786429D01*
X16705733Y7262620D01*
X16705733Y7786429D02*
X16753352Y7881667D01*
X16848590Y7929286D01*
X16991447Y7929286D01*
X17086685Y7881667D01*
X17134304Y7786429D01*
X17134304Y7262620D01*
X17610495Y7262620D02*
X17610495Y7929286D01*
X17610495Y7834048D02*
X17658114Y7881667D01*
X17753352Y7929286D01*
X17896209Y7929286D01*
X17991447Y7881667D01*
X18039066Y7786429D01*
X18039066Y7262620D01*
X18039066Y7786429D02*
X18086685Y7881667D01*
X18181923Y7929286D01*
X18324780Y7929286D01*
X18420019Y7881667D01*
X18467638Y7786429D01*
X18467638Y7262620D01*
X16279109Y7397620D02*
X16374347Y7397620D01*
X16469585Y7350000D01*
X16517204Y7302381D01*
X16564823Y7207143D01*
X16612442Y7016667D01*
X16612442Y6778572D01*
X16564823Y6588096D01*
X16517204Y6492858D01*
X16469585Y6445239D01*
X16374347Y6397620D01*
X16279109Y6397620D01*
X16183871Y6445239D01*
X16136252Y6492858D01*
X16088633Y6588096D01*
X16041014Y6778572D01*
X16041014Y7016667D01*
X16088633Y7207143D01*
X16136252Y7302381D01*
X16183871Y7350000D01*
X16279109Y7397620D01*
X17041014Y6492858D02*
X17088633Y6445239D01*
X17041014Y6397620D01*
X16993395Y6445239D01*
X17041014Y6492858D01*
X17041014Y6397620D01*
X17707680Y7397620D02*
X17802919Y7397620D01*
X17898157Y7350000D01*
X17945776Y7302381D01*
X17993395Y7207143D01*
X18041014Y7016667D01*
X18041014Y6778572D01*
X17993395Y6588096D01*
X17945776Y6492858D01*
X17898157Y6445239D01*
X17802919Y6397620D01*
X17707680Y6397620D01*
X17612442Y6445239D01*
X17564823Y6492858D01*
X17517204Y6588096D01*
X17469585Y6778572D01*
X17469585Y7016667D01*
X17517204Y7207143D01*
X17564823Y7302381D01*
X17612442Y7350000D01*
X17707680Y7397620D01*
X18421966Y7302381D02*
X18469585Y7350000D01*
X18564823Y7397620D01*
X18802919Y7397620D01*
X18898157Y7350000D01*
X18945776Y7302381D01*
X18993395Y7207143D01*
X18993395Y7111905D01*
X18945776Y6969048D01*
X18374347Y6397620D01*
X18993395Y6397620D01*
X19421966Y6397620D02*
X19421966Y7064286D01*
X19421966Y7397620D02*
X19374347Y7350000D01*
X19421966Y7302381D01*
X19469585Y7350000D01*
X19421966Y7397620D01*
X19421966Y7302381D01*
X19898157Y7064286D02*
X19898157Y6397620D01*
X19898157Y6969048D02*
X19945776Y7016667D01*
X20041014Y7064286D01*
X20183871Y7064286D01*
X20279109Y7016667D01*
X20326728Y6921429D01*
X20326728Y6397620D01*
X21517204Y7445239D02*
X20660061Y6159524D01*
X22041014Y7397620D02*
X22136252Y7397620D01*
X22231490Y7350000D01*
X22279109Y7302381D01*
X22326728Y7207143D01*
X22374347Y7016667D01*
X22374347Y6778572D01*
X22326728Y6588096D01*
X22279109Y6492858D01*
X22231490Y6445239D01*
X22136252Y6397620D01*
X22041014Y6397620D01*
X21945776Y6445239D01*
X21898157Y6492858D01*
X21850538Y6588096D01*
X21802919Y6778572D01*
X21802919Y7016667D01*
X21850538Y7207143D01*
X21898157Y7302381D01*
X21945776Y7350000D01*
X22041014Y7397620D01*
X22802919Y6492858D02*
X22850538Y6445239D01*
X22802919Y6397620D01*
X22755300Y6445239D01*
X22802919Y6492858D01*
X22802919Y6397620D01*
X23755300Y7397620D02*
X23279109Y7397620D01*
X23231490Y6921429D01*
X23279109Y6969048D01*
X23374347Y7016667D01*
X23612442Y7016667D01*
X23707680Y6969048D01*
X23755300Y6921429D01*
X23802919Y6826191D01*
X23802919Y6588096D01*
X23755300Y6492858D01*
X23707680Y6445239D01*
X23612442Y6397620D01*
X23374347Y6397620D01*
X23279109Y6445239D01*
X23231490Y6492858D01*
X24231490Y6397620D02*
X24231490Y7064286D01*
X24231490Y6969048D02*
X24279109Y7016667D01*
X24374347Y7064286D01*
X24517204Y7064286D01*
X24612442Y7016667D01*
X24660061Y6921429D01*
X24660061Y6397620D01*
X24660061Y6921429D02*
X24707680Y7016667D01*
X24802919Y7064286D01*
X24945776Y7064286D01*
X25041014Y7016667D01*
X25088633Y6921429D01*
X25088633Y6397620D01*
X25564823Y6397620D02*
X25564823Y7064286D01*
X25564823Y6969048D02*
X25612442Y7016667D01*
X25707680Y7064286D01*
X25850538Y7064286D01*
X25945776Y7016667D01*
X25993395Y6921429D01*
X25993395Y6397620D01*
X25993395Y6921429D02*
X26041014Y7016667D01*
X26136252Y7064286D01*
X26279109Y7064286D01*
X26374347Y7016667D01*
X26421966Y6921429D01*
X26421966Y6397620D01*
X2358539Y9532620D02*
X2453777Y9532620D01*
X2549015Y9485000D01*
X2596634Y9437381D01*
X2644253Y9342143D01*
X2691872Y9151667D01*
X2691872Y8913572D01*
X2644253Y8723096D01*
X2596634Y8627858D01*
X2549015Y8580239D01*
X2453777Y8532620D01*
X2358539Y8532620D01*
X2263301Y8580239D01*
X2215681Y8627858D01*
X2168062Y8723096D01*
X2120443Y8913572D01*
X2120443Y9151667D01*
X2168062Y9342143D01*
X2215681Y9437381D01*
X2263301Y9485000D01*
X2358539Y9532620D01*
X3120443Y8627858D02*
X3168062Y8580239D01*
X3120443Y8532620D01*
X3072824Y8580239D01*
X3120443Y8627858D01*
X3120443Y8532620D01*
X4120443Y8532620D02*
X3549015Y8532620D01*
X3834729Y8532620D02*
X3834729Y9532620D01*
X3739491Y9389762D01*
X3644253Y9294524D01*
X3549015Y9246905D01*
X4596634Y8532620D02*
X4787110Y8532620D01*
X4882348Y8580239D01*
X4929967Y8627858D01*
X5025205Y8770715D01*
X5072824Y8961191D01*
X5072824Y9342143D01*
X5025205Y9437381D01*
X4977586Y9485000D01*
X4882348Y9532620D01*
X4691872Y9532620D01*
X4596634Y9485000D01*
X4549015Y9437381D01*
X4501396Y9342143D01*
X4501396Y9104048D01*
X4549015Y9008810D01*
X4596634Y8961191D01*
X4691872Y8913572D01*
X4882348Y8913572D01*
X4977586Y8961191D01*
X5025205Y9008810D01*
X5072824Y9104048D01*
X5406158Y9532620D02*
X6025205Y9532620D01*
X5691872Y9151667D01*
X5834729Y9151667D01*
X5929967Y9104048D01*
X5977586Y9056429D01*
X6025205Y8961191D01*
X6025205Y8723096D01*
X5977586Y8627858D01*
X5929967Y8580239D01*
X5834729Y8532620D01*
X5549015Y8532620D01*
X5453777Y8580239D01*
X5406158Y8627858D01*
X6453777Y8532620D02*
X6453777Y9199286D01*
X6453777Y9532620D02*
X6406158Y9485000D01*
X6453777Y9437381D01*
X6501396Y9485000D01*
X6453777Y9532620D01*
X6453777Y9437381D01*
X6929967Y9199286D02*
X6929967Y8532620D01*
X6929967Y9104048D02*
X6977586Y9151667D01*
X7072824Y9199286D01*
X7215681Y9199286D01*
X7310920Y9151667D01*
X7358539Y9056429D01*
X7358539Y8532620D01*
X8549015Y9580239D02*
X7691872Y8294524D01*
X9310920Y9199286D02*
X9310920Y8532620D01*
X9072824Y9580239D02*
X8834729Y8865953D01*
X9453777Y8865953D01*
X9834729Y8627858D02*
X9882348Y8580239D01*
X9834729Y8532620D01*
X9787110Y8580239D01*
X9834729Y8627858D01*
X9834729Y8532620D01*
X10453777Y9104048D02*
X10358539Y9151667D01*
X10310920Y9199286D01*
X10263301Y9294524D01*
X10263301Y9342143D01*
X10310920Y9437381D01*
X10358539Y9485000D01*
X10453777Y9532620D01*
X10644253Y9532620D01*
X10739491Y9485000D01*
X10787110Y9437381D01*
X10834729Y9342143D01*
X10834729Y9294524D01*
X10787110Y9199286D01*
X10739491Y9151667D01*
X10644253Y9104048D01*
X10453777Y9104048D01*
X10358539Y9056429D01*
X10310920Y9008810D01*
X10263301Y8913572D01*
X10263301Y8723096D01*
X10310920Y8627858D01*
X10358539Y8580239D01*
X10453777Y8532620D01*
X10644253Y8532620D01*
X10739491Y8580239D01*
X10787110Y8627858D01*
X10834729Y8723096D01*
X10834729Y8913572D01*
X10787110Y9008810D01*
X10739491Y9056429D01*
X10644253Y9104048D01*
X11310920Y8532620D02*
X11501396Y8532620D01*
X11596634Y8580239D01*
X11644253Y8627858D01*
X11739491Y8770715D01*
X11787110Y8961191D01*
X11787110Y9342143D01*
X11739491Y9437381D01*
X11691872Y9485000D01*
X11596634Y9532620D01*
X11406158Y9532620D01*
X11310920Y9485000D01*
X11263301Y9437381D01*
X11215681Y9342143D01*
X11215681Y9104048D01*
X11263301Y9008810D01*
X11310920Y8961191D01*
X11406158Y8913572D01*
X11596634Y8913572D01*
X11691872Y8961191D01*
X11739491Y9008810D01*
X11787110Y9104048D01*
X12120443Y9532620D02*
X12787110Y9532620D01*
X12358539Y8532620D01*
X13168062Y8532620D02*
X13168062Y9199286D01*
X13168062Y9104048D02*
X13215681Y9151667D01*
X13310920Y9199286D01*
X13453777Y9199286D01*
X13549015Y9151667D01*
X13596634Y9056429D01*
X13596634Y8532620D01*
X13596634Y9056429D02*
X13644253Y9151667D01*
X13739491Y9199286D01*
X13882348Y9199286D01*
X13977586Y9151667D01*
X14025205Y9056429D01*
X14025205Y8532620D01*
X14501396Y8532620D02*
X14501396Y9199286D01*
X14501396Y9104048D02*
X14549015Y9151667D01*
X14644253Y9199286D01*
X14787110Y9199286D01*
X14882348Y9151667D01*
X14929967Y9056429D01*
X14929967Y8532620D01*
X14929967Y9056429D02*
X14977586Y9151667D01*
X15072824Y9199286D01*
X15215681Y9199286D01*
X15310920Y9151667D01*
X15358539Y9056429D01*
X15358539Y8532620D01*
D12*
X11582700Y7100000D02*
X11709700Y7354000D01*
X19327300Y5822700D02*
X19327300Y14583300D01*
X11582700Y6600000D02*
X11455700Y6346000D01*
X14272700Y5822700D02*
X14272700Y14583300D01*
X14526700Y14075300D02*
X14526700Y14329300D01*
X19327300Y1227701D02*
X19073300Y1100701D01*
X9677701Y10877300D02*
X9550701Y10623300D01*
X15050000Y10877300D02*
X9296701Y10877300D01*
X11709700Y6346000D02*
X11455700Y6346000D01*
X14526700Y1100701D02*
X14526700Y1354701D01*
X22652300Y5822700D02*
X22779300Y6076700D01*
X14272700Y14202300D02*
X14526700Y14075300D01*
X11709700Y7354000D02*
X11455700Y7354000D01*
X19327300Y14202300D02*
X19073300Y14075300D01*
X11582700Y7100000D02*
X11582700Y8370000D01*
X19073300Y1100701D02*
X19073300Y1354701D01*
X14983900Y3005700D02*
X14983900Y3259700D01*
X14351300Y6600000D02*
X11201700Y6600000D01*
X14729900Y6600000D02*
X14729900Y2751700D01*
X22652300Y10877300D02*
X22779300Y10623300D01*
X14272700Y3132700D02*
X14018700Y3259700D01*
X11582700Y6600000D02*
X11709700Y6346000D01*
X14272700Y5822700D02*
X23033300Y5822700D01*
X9677701Y5822700D02*
X9550701Y6076700D01*
X19327300Y1227701D02*
X14272700Y1227701D01*
X14272700Y14202300D02*
X14526700Y14329300D01*
X9804701Y6076700D02*
X9550701Y6076700D01*
X9677701Y5822700D02*
X9677701Y10877300D01*
X14272700Y10877300D02*
X23033300Y10877300D01*
X9804701Y10623300D02*
X9550701Y10623300D01*
X19327300Y14202300D02*
X19073300Y14329300D01*
X9677701Y10877300D02*
X9804701Y10623300D01*
X22652300Y10877300D02*
X22525300Y10623300D01*
X19073300Y14075300D02*
X19073300Y14329300D01*
X14272700Y6600000D02*
X14272700Y846701D01*
X14272700Y3132700D02*
X13002700Y3132700D01*
X11582700Y7100000D02*
X11455700Y7354000D01*
X22779300Y6076700D02*
X22525300Y6076700D01*
X14729900Y3132700D02*
X14983900Y3005700D01*
X14351300Y7100000D02*
X11201700Y7100000D01*
X19327300Y14202300D02*
X14272700Y14202300D01*
X11582700Y6600000D02*
X11582700Y5330000D01*
X22652300Y5822700D02*
X22652300Y10877300D01*
X14729900Y3132700D02*
X15999900Y3132700D01*
X14272700Y6600000D02*
X14272700Y2751700D01*
X14272700Y1227701D02*
X14526700Y1100701D01*
X19327300Y6600000D02*
X19327300Y846701D01*
X19327300Y1227701D02*
X19073300Y1354701D01*
X14272700Y3132700D02*
X14018700Y3005700D01*
X14729900Y3132700D02*
X14983900Y3259700D01*
X15050000Y5822700D02*
X9296701Y5822700D01*
X22779300Y10623300D02*
X22525300Y10623300D01*
X14272700Y1227701D02*
X14526700Y1354701D01*
X22652300Y5822700D02*
X22525300Y6076700D01*
X14018700Y3005700D02*
X14018700Y3259700D01*
X9677701Y5822700D02*
X9804701Y6076700D01*
G04 #@! TD*
M02*
