M48
; DRILL file {KiCad (6.0.11)} date Wed Feb  1 15:04:08 2023
; FORMAT={-:-/ absolute / metric / decimal}
; #@! TF.CreationDate,2023-02-01T15:04:08+01:00
; #@! TF.GenerationSoftware,Kicad,Pcbnew,(6.0.11)
; #@! TF.FileFunction,MixedPlating,1,2
FMAT,2
METRIC
; #@! TA.AperFunction,Plated,PTH,ViaDrill
T1C0.400
; #@! TA.AperFunction,Plated,PTH,ComponentDrill
T2C0.600
; #@! TA.AperFunction,Plated,PTH,ComponentDrill
T3C1.000
; #@! TA.AperFunction,Plated,PTH,ComponentDrill
T4C1.100
; #@! TA.AperFunction,NonPlated,NPTH,ComponentDrill
T5C0.660
%
G90
G05
T1
X5.9Y19.05
X6.9Y15.85
X7.6Y12.474
X7.9Y15.9
X11.1Y5.9
X12.35Y5.75
X12.7Y2.95
X13.05Y6.6
X13.133Y1.633
X13.185Y3.8
X13.4Y13.65
X13.4Y12.5
X15.567Y12.054
X15.9Y9.35
X15.9Y7.5
X16.7Y14.15
X17.35Y13.2
X17.45Y7.5
X17.5Y9.35
X19.2Y13.15
X20.5Y2.5
X20.6Y9.7
X21.75Y5.55
X22.45Y9.75
X22.75Y5.55
X23.5Y9.7
T3
X0.9Y3.6
X1.015Y17.965
X13.2Y19.2
X15.74Y19.2
X18.28Y19.2
X20.82Y19.2
T4
X6.6Y9.75
X6.6Y3.25
X11.1Y9.75
X11.1Y3.25
T5
X2.66Y13.74
X2.66Y7.96
T2
X-0.62Y15.17G85X-1.42Y15.17
G05
X-0.62Y6.53G85X-1.42Y6.53
G05
X3.71Y15.17G85X2.61Y15.17
G05
X3.71Y6.53G85X2.61Y6.53
G05
T0
M30
