G04 #@! TF.GenerationSoftware,KiCad,Pcbnew,8.0.2*
G04 #@! TF.CreationDate,2024-06-02T17:04:24+02:00*
G04 #@! TF.ProjectId,ESP32-C3,45535033-322d-4433-932e-6b696361645f,rev?*
G04 #@! TF.SameCoordinates,Original*
G04 #@! TF.FileFunction,Legend,Top*
G04 #@! TF.FilePolarity,Positive*
%FSLAX46Y46*%
G04 Gerber Fmt 4.6, Leading zero omitted, Abs format (unit mm)*
G04 Created by KiCad (PCBNEW 8.0.2) date 2024-06-02 17:04:24*
%MOMM*%
%LPD*%
G01*
G04 APERTURE LIST*
%ADD10C,0.150000*%
%ADD11C,0.300000*%
%ADD12C,0.200000*%
%ADD13C,0.250000*%
%ADD14C,0.120000*%
G04 APERTURE END LIST*
D10*
X41600000Y12600000D02*
X33100000Y12600000D01*
X41600000Y12600000D02*
X50200000Y12600000D01*
X50200000Y12600000D02*
X50200000Y15600000D01*
X41600000Y15600000D02*
X41600000Y12600000D01*
D11*
X40754510Y10070600D02*
X41897368Y10070600D01*
X41325939Y9499172D02*
X41325939Y10642029D01*
X40754510Y8170600D02*
X41897368Y8170600D01*
D12*
X59803006Y7656591D02*
X59945863Y7608972D01*
X59945863Y7608972D02*
X59993482Y7561353D01*
X59993482Y7561353D02*
X60041101Y7466115D01*
X60041101Y7466115D02*
X60041101Y7323258D01*
X60041101Y7323258D02*
X59993482Y7228020D01*
X59993482Y7228020D02*
X59945863Y7180400D01*
X59945863Y7180400D02*
X59850625Y7132781D01*
X59850625Y7132781D02*
X59469673Y7132781D01*
X59469673Y7132781D02*
X59469673Y8132781D01*
X59469673Y8132781D02*
X59803006Y8132781D01*
X59803006Y8132781D02*
X59898244Y8085162D01*
X59898244Y8085162D02*
X59945863Y8037543D01*
X59945863Y8037543D02*
X59993482Y7942305D01*
X59993482Y7942305D02*
X59993482Y7847067D01*
X59993482Y7847067D02*
X59945863Y7751829D01*
X59945863Y7751829D02*
X59898244Y7704210D01*
X59898244Y7704210D02*
X59803006Y7656591D01*
X59803006Y7656591D02*
X59469673Y7656591D01*
X34069673Y13432781D02*
X34069673Y14432781D01*
X34069673Y14432781D02*
X34450625Y14432781D01*
X34450625Y14432781D02*
X34545863Y14385162D01*
X34545863Y14385162D02*
X34593482Y14337543D01*
X34593482Y14337543D02*
X34641101Y14242305D01*
X34641101Y14242305D02*
X34641101Y14099448D01*
X34641101Y14099448D02*
X34593482Y14004210D01*
X34593482Y14004210D02*
X34545863Y13956591D01*
X34545863Y13956591D02*
X34450625Y13908972D01*
X34450625Y13908972D02*
X34069673Y13908972D01*
X35212530Y13432781D02*
X35117292Y13480400D01*
X35117292Y13480400D02*
X35069673Y13528020D01*
X35069673Y13528020D02*
X35022054Y13623258D01*
X35022054Y13623258D02*
X35022054Y13908972D01*
X35022054Y13908972D02*
X35069673Y14004210D01*
X35069673Y14004210D02*
X35117292Y14051829D01*
X35117292Y14051829D02*
X35212530Y14099448D01*
X35212530Y14099448D02*
X35355387Y14099448D01*
X35355387Y14099448D02*
X35450625Y14051829D01*
X35450625Y14051829D02*
X35498244Y14004210D01*
X35498244Y14004210D02*
X35545863Y13908972D01*
X35545863Y13908972D02*
X35545863Y13623258D01*
X35545863Y13623258D02*
X35498244Y13528020D01*
X35498244Y13528020D02*
X35450625Y13480400D01*
X35450625Y13480400D02*
X35355387Y13432781D01*
X35355387Y13432781D02*
X35212530Y13432781D01*
X35879197Y14099448D02*
X36069673Y13432781D01*
X36069673Y13432781D02*
X36260149Y13908972D01*
X36260149Y13908972D02*
X36450625Y13432781D01*
X36450625Y13432781D02*
X36641101Y14099448D01*
X37022054Y13528020D02*
X37069673Y13480400D01*
X37069673Y13480400D02*
X37022054Y13432781D01*
X37022054Y13432781D02*
X36974435Y13480400D01*
X36974435Y13480400D02*
X37022054Y13528020D01*
X37022054Y13528020D02*
X37022054Y13432781D01*
X47141101Y13628020D02*
X47093482Y13580400D01*
X47093482Y13580400D02*
X46950625Y13532781D01*
X46950625Y13532781D02*
X46855387Y13532781D01*
X46855387Y13532781D02*
X46712530Y13580400D01*
X46712530Y13580400D02*
X46617292Y13675639D01*
X46617292Y13675639D02*
X46569673Y13770877D01*
X46569673Y13770877D02*
X46522054Y13961353D01*
X46522054Y13961353D02*
X46522054Y14104210D01*
X46522054Y14104210D02*
X46569673Y14294686D01*
X46569673Y14294686D02*
X46617292Y14389924D01*
X46617292Y14389924D02*
X46712530Y14485162D01*
X46712530Y14485162D02*
X46855387Y14532781D01*
X46855387Y14532781D02*
X46950625Y14532781D01*
X46950625Y14532781D02*
X47093482Y14485162D01*
X47093482Y14485162D02*
X47141101Y14437543D01*
X47569673Y13532781D02*
X47569673Y14532781D01*
X47998244Y13532781D02*
X47998244Y14056591D01*
X47998244Y14056591D02*
X47950625Y14151829D01*
X47950625Y14151829D02*
X47855387Y14199448D01*
X47855387Y14199448D02*
X47712530Y14199448D01*
X47712530Y14199448D02*
X47617292Y14151829D01*
X47617292Y14151829D02*
X47569673Y14104210D01*
X48903006Y13532781D02*
X48903006Y14056591D01*
X48903006Y14056591D02*
X48855387Y14151829D01*
X48855387Y14151829D02*
X48760149Y14199448D01*
X48760149Y14199448D02*
X48569673Y14199448D01*
X48569673Y14199448D02*
X48474435Y14151829D01*
X48903006Y13580400D02*
X48807768Y13532781D01*
X48807768Y13532781D02*
X48569673Y13532781D01*
X48569673Y13532781D02*
X48474435Y13580400D01*
X48474435Y13580400D02*
X48426816Y13675639D01*
X48426816Y13675639D02*
X48426816Y13770877D01*
X48426816Y13770877D02*
X48474435Y13866115D01*
X48474435Y13866115D02*
X48569673Y13913734D01*
X48569673Y13913734D02*
X48807768Y13913734D01*
X48807768Y13913734D02*
X48903006Y13961353D01*
X49379197Y13532781D02*
X49379197Y14199448D01*
X49379197Y14008972D02*
X49426816Y14104210D01*
X49426816Y14104210D02*
X49474435Y14151829D01*
X49474435Y14151829D02*
X49569673Y14199448D01*
X49569673Y14199448D02*
X49664911Y14199448D01*
X49998245Y13628020D02*
X50045864Y13580400D01*
X50045864Y13580400D02*
X49998245Y13532781D01*
X49998245Y13532781D02*
X49950626Y13580400D01*
X49950626Y13580400D02*
X49998245Y13628020D01*
X49998245Y13628020D02*
X49998245Y13532781D01*
X59569673Y12432781D02*
X59569673Y13432781D01*
X59569673Y13432781D02*
X59807768Y13432781D01*
X59807768Y13432781D02*
X59950625Y13385162D01*
X59950625Y13385162D02*
X60045863Y13289924D01*
X60045863Y13289924D02*
X60093482Y13194686D01*
X60093482Y13194686D02*
X60141101Y13004210D01*
X60141101Y13004210D02*
X60141101Y12861353D01*
X60141101Y12861353D02*
X60093482Y12670877D01*
X60093482Y12670877D02*
X60045863Y12575639D01*
X60045863Y12575639D02*
X59950625Y12480400D01*
X59950625Y12480400D02*
X59807768Y12432781D01*
X59807768Y12432781D02*
X59569673Y12432781D01*
D13*
X41926377Y-5592350D02*
X41831139Y-5544731D01*
X41831139Y-5544731D02*
X41688282Y-5544731D01*
X41688282Y-5544731D02*
X41545425Y-5592350D01*
X41545425Y-5592350D02*
X41450187Y-5687588D01*
X41450187Y-5687588D02*
X41402568Y-5782826D01*
X41402568Y-5782826D02*
X41354949Y-5973302D01*
X41354949Y-5973302D02*
X41354949Y-6116159D01*
X41354949Y-6116159D02*
X41402568Y-6306635D01*
X41402568Y-6306635D02*
X41450187Y-6401873D01*
X41450187Y-6401873D02*
X41545425Y-6497112D01*
X41545425Y-6497112D02*
X41688282Y-6544731D01*
X41688282Y-6544731D02*
X41783520Y-6544731D01*
X41783520Y-6544731D02*
X41926377Y-6497112D01*
X41926377Y-6497112D02*
X41973996Y-6449492D01*
X41973996Y-6449492D02*
X41973996Y-6116159D01*
X41973996Y-6116159D02*
X41783520Y-6116159D01*
X42402568Y-6544731D02*
X42402568Y-5544731D01*
X42402568Y-5544731D02*
X42973996Y-6544731D01*
X42973996Y-6544731D02*
X42973996Y-5544731D01*
X43450187Y-6544731D02*
X43450187Y-5544731D01*
X43450187Y-5544731D02*
X43688282Y-5544731D01*
X43688282Y-5544731D02*
X43831139Y-5592350D01*
X43831139Y-5592350D02*
X43926377Y-5687588D01*
X43926377Y-5687588D02*
X43973996Y-5782826D01*
X43973996Y-5782826D02*
X44021615Y-5973302D01*
X44021615Y-5973302D02*
X44021615Y-6116159D01*
X44021615Y-6116159D02*
X43973996Y-6306635D01*
X43973996Y-6306635D02*
X43926377Y-6401873D01*
X43926377Y-6401873D02*
X43831139Y-6497112D01*
X43831139Y-6497112D02*
X43688282Y-6544731D01*
X43688282Y-6544731D02*
X43450187Y-6544731D01*
X41354949Y-8107056D02*
X41497806Y-8154675D01*
X41497806Y-8154675D02*
X41735901Y-8154675D01*
X41735901Y-8154675D02*
X41831139Y-8107056D01*
X41831139Y-8107056D02*
X41878758Y-8059436D01*
X41878758Y-8059436D02*
X41926377Y-7964198D01*
X41926377Y-7964198D02*
X41926377Y-7868960D01*
X41926377Y-7868960D02*
X41878758Y-7773722D01*
X41878758Y-7773722D02*
X41831139Y-7726103D01*
X41831139Y-7726103D02*
X41735901Y-7678484D01*
X41735901Y-7678484D02*
X41545425Y-7630865D01*
X41545425Y-7630865D02*
X41450187Y-7583246D01*
X41450187Y-7583246D02*
X41402568Y-7535627D01*
X41402568Y-7535627D02*
X41354949Y-7440389D01*
X41354949Y-7440389D02*
X41354949Y-7345151D01*
X41354949Y-7345151D02*
X41402568Y-7249913D01*
X41402568Y-7249913D02*
X41450187Y-7202294D01*
X41450187Y-7202294D02*
X41545425Y-7154675D01*
X41545425Y-7154675D02*
X41783520Y-7154675D01*
X41783520Y-7154675D02*
X41926377Y-7202294D01*
X42926377Y-8059436D02*
X42878758Y-8107056D01*
X42878758Y-8107056D02*
X42735901Y-8154675D01*
X42735901Y-8154675D02*
X42640663Y-8154675D01*
X42640663Y-8154675D02*
X42497806Y-8107056D01*
X42497806Y-8107056D02*
X42402568Y-8011817D01*
X42402568Y-8011817D02*
X42354949Y-7916579D01*
X42354949Y-7916579D02*
X42307330Y-7726103D01*
X42307330Y-7726103D02*
X42307330Y-7583246D01*
X42307330Y-7583246D02*
X42354949Y-7392770D01*
X42354949Y-7392770D02*
X42402568Y-7297532D01*
X42402568Y-7297532D02*
X42497806Y-7202294D01*
X42497806Y-7202294D02*
X42640663Y-7154675D01*
X42640663Y-7154675D02*
X42735901Y-7154675D01*
X42735901Y-7154675D02*
X42878758Y-7202294D01*
X42878758Y-7202294D02*
X42926377Y-7249913D01*
X43831139Y-8154675D02*
X43354949Y-8154675D01*
X43354949Y-8154675D02*
X43354949Y-7154675D01*
X41354949Y-9717000D02*
X41497806Y-9764619D01*
X41497806Y-9764619D02*
X41735901Y-9764619D01*
X41735901Y-9764619D02*
X41831139Y-9717000D01*
X41831139Y-9717000D02*
X41878758Y-9669380D01*
X41878758Y-9669380D02*
X41926377Y-9574142D01*
X41926377Y-9574142D02*
X41926377Y-9478904D01*
X41926377Y-9478904D02*
X41878758Y-9383666D01*
X41878758Y-9383666D02*
X41831139Y-9336047D01*
X41831139Y-9336047D02*
X41735901Y-9288428D01*
X41735901Y-9288428D02*
X41545425Y-9240809D01*
X41545425Y-9240809D02*
X41450187Y-9193190D01*
X41450187Y-9193190D02*
X41402568Y-9145571D01*
X41402568Y-9145571D02*
X41354949Y-9050333D01*
X41354949Y-9050333D02*
X41354949Y-8955095D01*
X41354949Y-8955095D02*
X41402568Y-8859857D01*
X41402568Y-8859857D02*
X41450187Y-8812238D01*
X41450187Y-8812238D02*
X41545425Y-8764619D01*
X41545425Y-8764619D02*
X41783520Y-8764619D01*
X41783520Y-8764619D02*
X41926377Y-8812238D01*
X42354949Y-9764619D02*
X42354949Y-8764619D01*
X42354949Y-8764619D02*
X42593044Y-8764619D01*
X42593044Y-8764619D02*
X42735901Y-8812238D01*
X42735901Y-8812238D02*
X42831139Y-8907476D01*
X42831139Y-8907476D02*
X42878758Y-9002714D01*
X42878758Y-9002714D02*
X42926377Y-9193190D01*
X42926377Y-9193190D02*
X42926377Y-9336047D01*
X42926377Y-9336047D02*
X42878758Y-9526523D01*
X42878758Y-9526523D02*
X42831139Y-9621761D01*
X42831139Y-9621761D02*
X42735901Y-9717000D01*
X42735901Y-9717000D02*
X42593044Y-9764619D01*
X42593044Y-9764619D02*
X42354949Y-9764619D01*
X43307330Y-9478904D02*
X43783520Y-9478904D01*
X43212092Y-9764619D02*
X43545425Y-8764619D01*
X43545425Y-8764619D02*
X43878758Y-9764619D01*
D14*
G04 #@! TO.C,C3*
X54240000Y-7642164D02*
X54240000Y-7857836D01*
X54960000Y-7642164D02*
X54960000Y-7857836D01*
G04 #@! TO.C,R3*
X40920000Y-2546359D02*
X40920000Y-2853641D01*
X41680000Y-2546359D02*
X41680000Y-2853641D01*
G04 #@! TO.C,C12*
X50587164Y-8890000D02*
X50802836Y-8890000D01*
X50587164Y-9610000D02*
X50802836Y-9610000D01*
G04 #@! TO.C,C5*
X48807836Y-940000D02*
X48592164Y-940000D01*
X48807836Y-1660000D02*
X48592164Y-1660000D01*
G04 #@! TO.C,R18*
X44920000Y11236359D02*
X44920000Y11543641D01*
X45680000Y11236359D02*
X45680000Y11543641D01*
G04 #@! TO.C,D5*
X42265000Y14635000D02*
X42265000Y13165000D01*
X42265000Y13165000D02*
X44550000Y13165000D01*
X44550000Y14635000D02*
X42265000Y14635000D01*
G04 #@! TO.C,R16*
X45420000Y4796359D02*
X45420000Y5103641D01*
X46180000Y4796359D02*
X46180000Y5103641D01*
G04 #@! TO.C,U2*
X44690000Y6590000D02*
X44690000Y7065000D01*
X45165000Y9810000D02*
X44690000Y9810000D01*
X45165000Y6590000D02*
X44690000Y6590000D01*
X47435000Y9810000D02*
X47910000Y9810000D01*
X47435000Y6590000D02*
X47910000Y6590000D01*
X47910000Y9810000D02*
X47910000Y9335000D01*
X47910000Y6590000D02*
X47910000Y7065000D01*
G04 #@! TO.C,R10*
X40432500Y13746359D02*
X40432500Y14053641D01*
X41192500Y13746359D02*
X41192500Y14053641D01*
G04 #@! TO.C,C4*
X53990000Y-5392164D02*
X53990000Y-5607836D01*
X54710000Y-5392164D02*
X54710000Y-5607836D01*
G04 #@! TO.C,C16*
X49855000Y-10762164D02*
X49855000Y-10977836D01*
X50575000Y-10762164D02*
X50575000Y-10977836D01*
G04 #@! TO.C,C11*
X43740000Y-1457836D02*
X43740000Y-1242164D01*
X44460000Y-1457836D02*
X44460000Y-1242164D01*
G04 #@! TO.C,R5*
X46520000Y11573641D02*
X46520000Y11266359D01*
X47280000Y11573641D02*
X47280000Y11266359D01*
G04 #@! TO.C,D1*
X48200000Y3600000D02*
X48200000Y1750000D01*
X50600000Y2700000D02*
X50800000Y2800000D01*
X50800000Y3600000D02*
X50800000Y1700000D01*
X50800000Y2600000D02*
X50600000Y2700000D01*
X50800000Y1700000D02*
X50025000Y1700000D01*
G04 #@! TO.C,C6*
X51240000Y-7642164D02*
X51240000Y-7857836D01*
X51960000Y-7642164D02*
X51960000Y-7857836D01*
G04 #@! TO.C,U1*
X32620000Y5210000D02*
X32620000Y-3790000D01*
G04 #@! TO.C,R9*
X45420000Y13746359D02*
X45420000Y14053641D01*
X46180000Y13746359D02*
X46180000Y14053641D01*
G04 #@! TO.C,R11*
X43253641Y10180000D02*
X42946359Y10180000D01*
X43253641Y9420000D02*
X42946359Y9420000D01*
G04 #@! TO.C,R21*
X49546359Y1380000D02*
X49853641Y1380000D01*
X49546359Y620000D02*
X49853641Y620000D01*
G04 #@! TO.C,SW1*
X53030000Y15500000D02*
X53030000Y15400000D01*
X53030000Y15500000D02*
X57770000Y15500000D01*
X53030000Y12600000D02*
X53030000Y13400000D01*
X53030000Y10500000D02*
X53030000Y10600000D01*
X53030000Y10500000D02*
X57770000Y10500000D01*
X57770000Y15500000D02*
X57770000Y15400000D01*
X57770000Y12600000D02*
X57770000Y13400000D01*
X57770000Y10500000D02*
X57770000Y10600000D01*
G04 #@! TO.C,R19*
X51020000Y2646359D02*
X51020000Y2953641D01*
X51780000Y2646359D02*
X51780000Y2953641D01*
G04 #@! TO.C,C1*
X53957836Y-2840000D02*
X53742164Y-2840000D01*
X53957836Y-3560000D02*
X53742164Y-3560000D01*
G04 #@! TO.C,C20*
X49272164Y8560000D02*
X49487836Y8560000D01*
X49272164Y7840000D02*
X49487836Y7840000D01*
G04 #@! TO.C,R14*
X49553641Y4780000D02*
X49246359Y4780000D01*
X49553641Y4020000D02*
X49246359Y4020000D01*
G04 #@! TO.C,R1*
X51970000Y-2853641D02*
X51970000Y-2546359D01*
X52730000Y-2853641D02*
X52730000Y-2546359D01*
G04 #@! TO.C,R7*
X40020000Y-7553641D02*
X40020000Y-7246359D01*
X40780000Y-7553641D02*
X40780000Y-7246359D01*
G04 #@! TO.C,C15*
X51990000Y-9857836D02*
X51990000Y-9642164D01*
X52710000Y-9857836D02*
X52710000Y-9642164D01*
G04 #@! TO.C,L1*
X53253641Y-6870000D02*
X52946359Y-6870000D01*
X53253641Y-7630000D02*
X52946359Y-7630000D01*
G04 #@! TO.C,D4*
X37227500Y14635000D02*
X37227500Y13165000D01*
X37227500Y13165000D02*
X39512500Y13165000D01*
X39512500Y14635000D02*
X37227500Y14635000D01*
G04 #@! TO.C,R2*
X41170000Y2546359D02*
X41170000Y2853641D01*
X41930000Y2546359D02*
X41930000Y2853641D01*
G04 #@! TO.C,R15*
X49712742Y9972500D02*
X50187258Y9972500D01*
X49712742Y8927500D02*
X50187258Y8927500D01*
G04 #@! TO.C,R8*
X40020000Y-9746359D02*
X40020000Y-10053641D01*
X40780000Y-9746359D02*
X40780000Y-10053641D01*
G04 #@! TO.C,R17*
X44453641Y5780000D02*
X44146359Y5780000D01*
X44453641Y5020000D02*
X44146359Y5020000D01*
G04 #@! TO.C,SW2*
X53030000Y10200000D02*
X53030000Y10100000D01*
X53030000Y8200000D02*
X53030000Y7200000D01*
X53030000Y5200000D02*
X53030000Y5300000D01*
X57770000Y10200000D02*
X53030000Y10200000D01*
X57770000Y10200000D02*
X57770000Y10100000D01*
X57770000Y8200000D02*
X57770000Y7200000D01*
X57770000Y5200000D02*
X53030000Y5200000D01*
X57770000Y5200000D02*
X57770000Y5300000D01*
G04 #@! TO.C,C21*
X43217836Y8560000D02*
X43002164Y8560000D01*
X43217836Y7840000D02*
X43002164Y7840000D01*
G04 #@! TO.C,C14*
X44740000Y-1457836D02*
X44740000Y-1242164D01*
X45460000Y-1457836D02*
X45460000Y-1242164D01*
G04 #@! TO.C,J2*
X33060000Y12160000D02*
X33060000Y6040000D01*
X33060000Y9600000D02*
X37420000Y9600000D01*
X33060000Y6040000D02*
X40880000Y6040000D01*
X35320000Y11400000D02*
X35320000Y10400000D01*
X35320000Y10900000D02*
X33060000Y10900000D01*
X35320000Y10400000D02*
X33060000Y10400000D01*
X35320000Y10400000D02*
X36920000Y10400000D01*
X35320000Y7800000D02*
X36920000Y7800000D01*
X35320000Y6800000D02*
X35320000Y7800000D01*
X36920000Y11400000D02*
X35320000Y11400000D01*
X36920000Y10400000D02*
X36920000Y11400000D01*
X36920000Y7800000D02*
X36920000Y6800000D01*
X36920000Y6800000D02*
X35320000Y6800000D01*
X37420000Y9600000D02*
X37420000Y8600000D01*
X37420000Y8600000D02*
X33060000Y8600000D01*
X39280000Y12160000D02*
X39280000Y11240000D01*
X39280000Y11240000D02*
X40880000Y11240000D01*
X39280000Y10960000D02*
X39280000Y11240000D01*
X39280000Y10960000D02*
X40495000Y10960000D01*
X39280000Y6960000D02*
X39280000Y7240000D01*
X39280000Y6040000D02*
X39280000Y6960000D01*
X40880000Y12160000D02*
X33060000Y12160000D01*
X40880000Y11240000D02*
X40880000Y12160000D01*
X40880000Y6960000D02*
X39280000Y6960000D01*
X40880000Y6040000D02*
X40880000Y6960000D01*
G04 #@! TO.C,R4*
X42936359Y7580000D02*
X43243641Y7580000D01*
X42936359Y6820000D02*
X43243641Y6820000D01*
G04 #@! TO.C,L2*
X53003641Y-5620000D02*
X52696359Y-5620000D01*
X53003641Y-6380000D02*
X52696359Y-6380000D01*
G04 #@! TO.C,C7*
X50990000Y-5392164D02*
X50990000Y-5607836D01*
X51710000Y-5392164D02*
X51710000Y-5607836D01*
G04 #@! TO.C,U3*
X44990000Y-2890000D02*
X44990000Y-3365000D01*
X44990000Y-8110000D02*
X44990000Y-7635000D01*
X45465000Y-2890000D02*
X44990000Y-2890000D01*
X45465000Y-8110000D02*
X44990000Y-8110000D01*
X49735000Y-2890000D02*
X50210000Y-2890000D01*
X49735000Y-8110000D02*
X50210000Y-8110000D01*
X50210000Y-2890000D02*
X50210000Y-3365000D01*
G04 #@! TO.C,C2*
X52742164Y-4640000D02*
X52957836Y-4640000D01*
X52742164Y-5360000D02*
X52957836Y-5360000D01*
G04 #@! TO.C,R6*
X50920000Y-2853641D02*
X50920000Y-2546359D01*
X51680000Y-2853641D02*
X51680000Y-2546359D01*
G04 #@! TO.C,J1*
X33785000Y-6260000D02*
X33785000Y-9140000D01*
X35755000Y-5090000D02*
X38255000Y-5090000D01*
X35755000Y-10310000D02*
X38255000Y-10310000D01*
X38255000Y-5090000D02*
X38255000Y-6140000D01*
X38255000Y-6140000D02*
X39245000Y-6140000D01*
X38255000Y-10310000D02*
X38255000Y-9260000D01*
G04 #@! TO.C,C19*
X48442164Y11310000D02*
X48657836Y11310000D01*
X48442164Y10590000D02*
X48657836Y10590000D01*
G04 #@! TO.C,Y1*
X49600000Y-8900000D02*
X45600000Y-8900000D01*
X49600000Y-12200000D02*
X49600000Y-8900000D01*
G04 #@! TO.C,C17*
X44590000Y-10742835D02*
X44590000Y-10527163D01*
X45310000Y-10742835D02*
X45310000Y-10527163D01*
G04 #@! TD*
M02*
