M48
; DRILL file {KiCad 8.0.3} date 2024-06-06T22:58:07+0200
; FORMAT={-:-/ absolute / metric / decimal}
; #@! TF.CreationDate,2024-06-06T22:58:07+02:00
; #@! TF.GenerationSoftware,Kicad,Pcbnew,8.0.3
; #@! TF.FileFunction,MixedPlating,1,2
FMAT,2
METRIC
; #@! TA.AperFunction,Plated,PTH,ViaDrill
T1C0.300
; #@! TA.AperFunction,Plated,PTH,ComponentDrill
T2C0.300
; #@! TA.AperFunction,Plated,PTH,ComponentDrill
T3C0.600
; #@! TA.AperFunction,Plated,PTH,ComponentDrill
T4C0.750
; #@! TA.AperFunction,NonPlated,NPTH,ComponentDrill
T5C0.660
%
G90
G05
T1
X33.7Y12.5
X33.7Y9.1
X33.7Y5.7
X33.7Y2.3
X33.7Y-1.1
X35.8Y15.3
X38.7Y-5.7
X39.2Y15.3
X40.4Y-11.4
X41.3Y-11.2
X41.314Y4.8
X41.4Y5.8
X42.1Y10.6
X42.2Y-11.0
X42.3Y5.45
X43.0Y4.3
X43.1Y5.4
X43.1Y-6.1
X43.2Y-7.0
X43.6Y1.65
X43.8Y-3.4
X43.85Y2.6
X43.95Y-9.25
X43.95Y-10.05
X43.95Y-10.85
X44.3Y10.7
X44.3Y3.3
X44.4Y-4.2
X44.9Y6.6
X45.1Y10.7
X45.4Y-0.15
X45.8Y8.7
X45.8Y-2.05
X46.0Y6.0
X46.5Y3.4
X46.6Y14.1
X46.6Y13.2
X46.6Y-0.3
X46.7Y-4.6
X46.7Y-6.3
X46.8Y7.7
X47.6Y2.5
X48.2Y5.8
X48.4Y-4.6
X48.4Y-6.3
X48.7Y-0.1
X48.9Y6.4
X49.0Y-1.9
X49.5Y0.1
X49.7Y7.4
X49.8Y11.9
X50.1Y15.3
X50.2Y-2.1
X50.3Y-2.9
X50.65Y-0.95
X50.7Y11.9
X50.7Y8.5
X50.85Y-10.95
X51.0Y0.2
X51.1Y14.7
X51.6Y7.3
X51.6Y-10.6
X51.7Y-4.3
X52.086Y-0.214
X52.9Y7.8
X53.0Y-10.2
X53.1Y-2.2
X53.1Y-4.1
X53.5Y-8.25
X54.0Y-9.9
X54.0Y-11.65
X54.3Y7.8
X54.4Y-4.4
X54.5Y14.7
X54.5Y5.7
X54.5Y2.3
X54.5Y-1.1
X56.2Y15.3
X57.24Y-11.65
X57.9Y12.7
X60.55Y13.4
X60.55Y11.0
X60.55Y8.35
X60.55Y5.7
T2
X55.5Y-9.7
T4
X39.42Y10.1
X39.42Y8.1
T5
X38.9Y3.6
X38.9Y-2.18
T3
X35.62Y5.03G85X34.82Y5.03
G05
X35.62Y-3.61G85X34.82Y-3.61
G05
X39.95Y5.03G85X38.85Y5.03
G05
X39.95Y-3.61G85X38.85Y-3.61
G05
M30
