G04 #@! TF.GenerationSoftware,KiCad,Pcbnew,8.0.3*
G04 #@! TF.CreationDate,2024-07-03T22:21:13+02:00*
G04 #@! TF.ProjectId,ESP32-C3-V2,45535033-322d-4433-932d-56322e6b6963,rev?*
G04 #@! TF.SameCoordinates,Original*
G04 #@! TF.FileFunction,Soldermask,Top*
G04 #@! TF.FilePolarity,Negative*
%FSLAX46Y46*%
G04 Gerber Fmt 4.6, Leading zero omitted, Abs format (unit mm)*
G04 Created by KiCad (PCBNEW 8.0.3) date 2024-07-03 22:21:13*
%MOMM*%
%LPD*%
G01*
G04 APERTURE LIST*
G04 Aperture macros list*
%AMRoundRect*
0 Rectangle with rounded corners*
0 $1 Rounding radius*
0 $2 $3 $4 $5 $6 $7 $8 $9 X,Y pos of 4 corners*
0 Add a 4 corners polygon primitive as box body*
4,1,4,$2,$3,$4,$5,$6,$7,$8,$9,$2,$3,0*
0 Add four circle primitives for the rounded corners*
1,1,$1+$1,$2,$3*
1,1,$1+$1,$4,$5*
1,1,$1+$1,$6,$7*
1,1,$1+$1,$8,$9*
0 Add four rect primitives between the rounded corners*
20,1,$1+$1,$2,$3,$4,$5,0*
20,1,$1+$1,$4,$5,$6,$7,0*
20,1,$1+$1,$6,$7,$8,$9,0*
20,1,$1+$1,$8,$9,$2,$3,0*%
G04 Aperture macros list end*
%ADD10RoundRect,0.140000X-0.170000X0.140000X-0.170000X-0.140000X0.170000X-0.140000X0.170000X0.140000X0*%
%ADD11RoundRect,0.135000X-0.185000X0.135000X-0.185000X-0.135000X0.185000X-0.135000X0.185000X0.135000X0*%
%ADD12RoundRect,0.135000X-0.135000X-0.185000X0.135000X-0.185000X0.135000X0.185000X-0.135000X0.185000X0*%
%ADD13RoundRect,0.150000X0.150000X0.700000X-0.150000X0.700000X-0.150000X-0.700000X0.150000X-0.700000X0*%
%ADD14RoundRect,0.250000X0.250000X1.100000X-0.250000X1.100000X-0.250000X-1.100000X0.250000X-1.100000X0*%
%ADD15RoundRect,0.140000X-0.140000X-0.170000X0.140000X-0.170000X0.140000X0.170000X-0.140000X0.170000X0*%
%ADD16RoundRect,0.140000X0.170000X-0.140000X0.170000X0.140000X-0.170000X0.140000X-0.170000X-0.140000X0*%
%ADD17RoundRect,0.135000X0.135000X0.185000X-0.135000X0.185000X-0.135000X-0.185000X0.135000X-0.185000X0*%
%ADD18R,0.700000X0.600000*%
%ADD19RoundRect,0.218750X0.256250X-0.218750X0.256250X0.218750X-0.256250X0.218750X-0.256250X-0.218750X0*%
%ADD20C,0.660000*%
%ADD21R,1.140000X0.600000*%
%ADD22R,1.140000X0.300000*%
%ADD23O,2.100000X1.000000*%
%ADD24O,1.800000X1.000000*%
%ADD25RoundRect,0.250000X0.350000X0.625000X-0.350000X0.625000X-0.350000X-0.625000X0.350000X-0.625000X0*%
%ADD26O,1.200000X1.750000*%
%ADD27RoundRect,0.140000X0.140000X0.170000X-0.140000X0.170000X-0.140000X-0.170000X0.140000X-0.170000X0*%
%ADD28RoundRect,0.250000X0.250000X0.250000X-0.250000X0.250000X-0.250000X-0.250000X0.250000X-0.250000X0*%
%ADD29RoundRect,0.135000X0.185000X-0.135000X0.185000X0.135000X-0.185000X0.135000X-0.185000X-0.135000X0*%
%ADD30RoundRect,0.218750X0.218750X0.256250X-0.218750X0.256250X-0.218750X-0.256250X0.218750X-0.256250X0*%
%ADD31RoundRect,0.100000X-0.100000X0.125000X-0.100000X-0.125000X0.100000X-0.125000X0.100000X0.125000X0*%
%ADD32R,1.500000X1.500000*%
%ADD33R,1.400000X1.600000*%
%ADD34RoundRect,0.150000X-0.150000X0.512500X-0.150000X-0.512500X0.150000X-0.512500X0.150000X0.512500X0*%
%ADD35RoundRect,0.062500X0.337500X0.062500X-0.337500X0.062500X-0.337500X-0.062500X0.337500X-0.062500X0*%
%ADD36RoundRect,0.062500X0.062500X0.337500X-0.062500X0.337500X-0.062500X-0.337500X0.062500X-0.337500X0*%
%ADD37R,3.700000X3.700000*%
%ADD38RoundRect,0.150000X-0.512500X-0.150000X0.512500X-0.150000X0.512500X0.150000X-0.512500X0.150000X0*%
%ADD39R,1.400000X1.200000*%
%ADD40RoundRect,0.150000X0.150000X-0.675000X0.150000X0.675000X-0.150000X0.675000X-0.150000X-0.675000X0*%
%ADD41RoundRect,0.150000X0.512500X0.150000X-0.512500X0.150000X-0.512500X-0.150000X0.512500X-0.150000X0*%
G04 APERTURE END LIST*
D10*
G04 #@! TO.C,C3*
X54200000Y-7220000D03*
X54200000Y-8180000D03*
G04 #@! TD*
D11*
G04 #@! TO.C,R3*
X40400000Y-10890000D03*
X40400000Y-11910000D03*
G04 #@! TD*
D10*
G04 #@! TO.C,C5*
X48400000Y-920000D03*
X48400000Y-1880000D03*
G04 #@! TD*
D12*
G04 #@! TO.C,R14*
X37590000Y-1820000D03*
X38610000Y-1820000D03*
G04 #@! TD*
D11*
G04 #@! TO.C,R9*
X59400000Y9110000D03*
X59400000Y8090000D03*
G04 #@! TD*
G04 #@! TO.C,R5*
X42000000Y-2690000D03*
X42000000Y-3710000D03*
G04 #@! TD*
D13*
G04 #@! TO.C,J3*
X55900000Y6800000D03*
X54650000Y6800000D03*
X53400000Y6800000D03*
X52150000Y6800000D03*
D14*
X57750000Y10000000D03*
X50300000Y10000000D03*
G04 #@! TD*
D15*
G04 #@! TO.C,C1*
X50820000Y-9200000D03*
X51780000Y-9200000D03*
G04 #@! TD*
D16*
G04 #@! TO.C,C12*
X37600000Y-800000D03*
X37600000Y160000D03*
G04 #@! TD*
D10*
G04 #@! TO.C,C16*
X50900000Y-10190000D03*
X50900000Y-11150000D03*
G04 #@! TD*
D17*
G04 #@! TO.C,R12*
X44010000Y-5490000D03*
X42990000Y-5490000D03*
G04 #@! TD*
D16*
G04 #@! TO.C,C11*
X44000000Y-3680000D03*
X44000000Y-2720000D03*
G04 #@! TD*
G04 #@! TO.C,C13*
X43000000Y-3680000D03*
X43000000Y-2720000D03*
G04 #@! TD*
D18*
G04 #@! TO.C,D1*
X41900000Y-5790000D03*
X40900000Y-5790000D03*
X40900000Y-7190000D03*
X41900000Y-7190000D03*
G04 #@! TD*
D19*
G04 #@! TO.C,D2*
X34600000Y9112500D03*
X34600000Y10687500D03*
G04 #@! TD*
D10*
G04 #@! TO.C,C6*
X51300000Y-7270000D03*
X51300000Y-8230000D03*
G04 #@! TD*
D20*
G04 #@! TO.C,U1*
X38000000Y-4520000D03*
X38000000Y-10300000D03*
D21*
X39070000Y-4210000D03*
X39070000Y-5010000D03*
D22*
X39070000Y-6160000D03*
X39070000Y-7160000D03*
X39070000Y-7660000D03*
X39070000Y-8660000D03*
D21*
X39070000Y-9810000D03*
X39070000Y-10610000D03*
X39070000Y-10610000D03*
X39070000Y-9810000D03*
D22*
X39070000Y-9160000D03*
X39070000Y-8160000D03*
X39070000Y-6660000D03*
X39070000Y-5660000D03*
D21*
X39070000Y-5010000D03*
X39070000Y-4210000D03*
D23*
X38500000Y-3090000D03*
D24*
X34320000Y-3090000D03*
D23*
X38500000Y-11730000D03*
D24*
X34320000Y-11730000D03*
G04 #@! TD*
D12*
G04 #@! TO.C,R4*
X45490000Y4350000D03*
X46510000Y4350000D03*
G04 #@! TD*
D25*
G04 #@! TO.C,J2*
X46900000Y8650000D03*
D26*
X44900000Y8650000D03*
G04 #@! TD*
D17*
G04 #@! TO.C,R8*
X44000000Y-7500000D03*
X42980000Y-7500000D03*
G04 #@! TD*
D11*
G04 #@! TO.C,R1*
X53000000Y-2790000D03*
X53000000Y-3810000D03*
G04 #@! TD*
D27*
G04 #@! TO.C,C15*
X41980000Y10325000D03*
X41020000Y10325000D03*
G04 #@! TD*
G04 #@! TO.C,C8*
X43680000Y-1700000D03*
X42720000Y-1700000D03*
G04 #@! TD*
D17*
G04 #@! TO.C,R16*
X41810000Y-1700000D03*
X40790000Y-1700000D03*
G04 #@! TD*
D12*
G04 #@! TO.C,R13*
X35590000Y-1820000D03*
X36610000Y-1820000D03*
G04 #@! TD*
D11*
G04 #@! TO.C,R19*
X52000000Y-2790000D03*
X52000000Y-3810000D03*
G04 #@! TD*
D17*
G04 #@! TO.C,L1*
X53310000Y-7250000D03*
X52290000Y-7250000D03*
G04 #@! TD*
D28*
G04 #@! TO.C,D4*
X37850000Y2000000D03*
X35350000Y2000000D03*
G04 #@! TD*
D11*
G04 #@! TO.C,R15*
X34700000Y190000D03*
X34700000Y-830000D03*
G04 #@! TD*
D29*
G04 #@! TO.C,R2*
X40400000Y-4510000D03*
X40400000Y-3490000D03*
G04 #@! TD*
D30*
G04 #@! TO.C,D3*
X39787500Y10600000D03*
X38212500Y10600000D03*
G04 #@! TD*
D29*
G04 #@! TO.C,R11*
X36500000Y9890000D03*
X36500000Y10910000D03*
G04 #@! TD*
G04 #@! TO.C,R10*
X59400000Y6090000D03*
X59400000Y7110000D03*
G04 #@! TD*
D17*
G04 #@! TO.C,R17*
X37800000Y7005000D03*
X36780000Y7005000D03*
G04 #@! TD*
D31*
G04 #@! TO.C,Q1*
X36500000Y255000D03*
X35700000Y255000D03*
X36100000Y-895000D03*
G04 #@! TD*
D10*
G04 #@! TO.C,C18*
X37790000Y8985000D03*
X37790000Y8025000D03*
G04 #@! TD*
D32*
G04 #@! TO.C,SW2*
X53100000Y4700000D03*
D33*
X53100000Y-1300000D03*
X49800000Y4700000D03*
X49800000Y-1300000D03*
G04 #@! TD*
D16*
G04 #@! TO.C,C14*
X54000000Y-3780000D03*
X54000000Y-2820000D03*
G04 #@! TD*
D11*
G04 #@! TO.C,R6*
X46600000Y-890000D03*
X46600000Y-1910000D03*
G04 #@! TD*
D10*
G04 #@! TO.C,C9*
X44900000Y3380000D03*
X44900000Y2420000D03*
G04 #@! TD*
D17*
G04 #@! TO.C,R7*
X44010000Y-6490000D03*
X42990000Y-6490000D03*
G04 #@! TD*
D29*
G04 #@! TO.C,R18*
X38000000Y3840000D03*
X38000000Y4860000D03*
G04 #@! TD*
D34*
G04 #@! TO.C,U5*
X48050000Y2887500D03*
X47100000Y2887500D03*
X46150000Y2887500D03*
X46150000Y612500D03*
X48050000Y612500D03*
G04 #@! TD*
D10*
G04 #@! TO.C,C7*
X51250000Y-5220000D03*
X51250000Y-6180000D03*
G04 #@! TD*
D35*
G04 #@! TO.C,U3*
X50050000Y-7250000D03*
X50050000Y-6750000D03*
X50050000Y-6250000D03*
X50050000Y-5750000D03*
X50050000Y-5250000D03*
X50050000Y-4750000D03*
X50050000Y-4250000D03*
X50050000Y-3750000D03*
D36*
X49350000Y-3050000D03*
X48850000Y-3050000D03*
X48350000Y-3050000D03*
X47850000Y-3050000D03*
X47350000Y-3050000D03*
X46850000Y-3050000D03*
X46350000Y-3050000D03*
X45850000Y-3050000D03*
D35*
X45150000Y-3750000D03*
X45150000Y-4250000D03*
X45150000Y-4750000D03*
X45150000Y-5250000D03*
X45150000Y-5750000D03*
X45150000Y-6250000D03*
X45150000Y-6750000D03*
X45150000Y-7250000D03*
D36*
X45850000Y-7950000D03*
X46350000Y-7950000D03*
X46850000Y-7950000D03*
X47350000Y-7950000D03*
X47850000Y-7950000D03*
X48350000Y-7950000D03*
X48850000Y-7950000D03*
X49350000Y-7950000D03*
D37*
X47600000Y-5500000D03*
G04 #@! TD*
D10*
G04 #@! TO.C,C2*
X52200000Y-5220000D03*
X52200000Y-6180000D03*
G04 #@! TD*
D38*
G04 #@! TO.C,U6*
X39262500Y9050000D03*
X39262500Y8100000D03*
X39262500Y7150000D03*
X41537500Y7150000D03*
X41537500Y9050000D03*
G04 #@! TD*
D15*
G04 #@! TO.C,C4*
X47400000Y4350000D03*
X48360000Y4350000D03*
G04 #@! TD*
D39*
G04 #@! TO.C,Y1*
X49400000Y-9550000D03*
X47200000Y-9550000D03*
X47200000Y-11250000D03*
X49400000Y-11250000D03*
G04 #@! TD*
D40*
G04 #@! TO.C,U4*
X39695000Y-25000D03*
X40965000Y-25000D03*
X42235000Y-25000D03*
X43505000Y-25000D03*
X43505000Y5225000D03*
X42235000Y5225000D03*
X40965000Y5225000D03*
X39695000Y5225000D03*
G04 #@! TD*
D41*
G04 #@! TO.C,U2*
X36537500Y3800000D03*
X36537500Y4750000D03*
X36537500Y5700000D03*
X34262500Y5700000D03*
X34262500Y3800000D03*
G04 #@! TD*
D16*
G04 #@! TO.C,C17*
X45700000Y-11080000D03*
X45700000Y-10120000D03*
G04 #@! TD*
M02*
