G04 #@! TF.GenerationSoftware,KiCad,Pcbnew,8.0.3*
G04 #@! TF.CreationDate,2024-06-26T13:16:16+02:00*
G04 #@! TF.ProjectId,ESP32-C3-V2,45535033-322d-4433-932d-56322e6b6963,rev?*
G04 #@! TF.SameCoordinates,Original*
G04 #@! TF.FileFunction,Legend,Bot*
G04 #@! TF.FilePolarity,Positive*
%FSLAX46Y46*%
G04 Gerber Fmt 4.6, Leading zero omitted, Abs format (unit mm)*
G04 Created by KiCad (PCBNEW 8.0.3) date 2024-06-26 13:16:16*
%MOMM*%
%LPD*%
G01*
G04 APERTURE LIST*
%ADD10C,0.200000*%
%ADD11C,0.300000*%
G04 APERTURE END LIST*
D10*
X52980400Y8522055D02*
X52932780Y8664912D01*
X52932780Y8664912D02*
X52932780Y8903007D01*
X52932780Y8903007D02*
X52980400Y8998245D01*
X52980400Y8998245D02*
X53028019Y9045864D01*
X53028019Y9045864D02*
X53123257Y9093483D01*
X53123257Y9093483D02*
X53218495Y9093483D01*
X53218495Y9093483D02*
X53313733Y9045864D01*
X53313733Y9045864D02*
X53361352Y8998245D01*
X53361352Y8998245D02*
X53408971Y8903007D01*
X53408971Y8903007D02*
X53456590Y8712531D01*
X53456590Y8712531D02*
X53504209Y8617293D01*
X53504209Y8617293D02*
X53551828Y8569674D01*
X53551828Y8569674D02*
X53647066Y8522055D01*
X53647066Y8522055D02*
X53742304Y8522055D01*
X53742304Y8522055D02*
X53837542Y8569674D01*
X53837542Y8569674D02*
X53885161Y8617293D01*
X53885161Y8617293D02*
X53932780Y8712531D01*
X53932780Y8712531D02*
X53932780Y8950626D01*
X53932780Y8950626D02*
X53885161Y9093483D01*
X53028019Y10093483D02*
X52980400Y10045864D01*
X52980400Y10045864D02*
X52932780Y9903007D01*
X52932780Y9903007D02*
X52932780Y9807769D01*
X52932780Y9807769D02*
X52980400Y9664912D01*
X52980400Y9664912D02*
X53075638Y9569674D01*
X53075638Y9569674D02*
X53170876Y9522055D01*
X53170876Y9522055D02*
X53361352Y9474436D01*
X53361352Y9474436D02*
X53504209Y9474436D01*
X53504209Y9474436D02*
X53694685Y9522055D01*
X53694685Y9522055D02*
X53789923Y9569674D01*
X53789923Y9569674D02*
X53885161Y9664912D01*
X53885161Y9664912D02*
X53932780Y9807769D01*
X53932780Y9807769D02*
X53932780Y9903007D01*
X53932780Y9903007D02*
X53885161Y10045864D01*
X53885161Y10045864D02*
X53837542Y10093483D01*
X52932780Y10998245D02*
X52932780Y10522055D01*
X52932780Y10522055D02*
X53932780Y10522055D01*
D11*
G36*
X47187267Y9240726D02*
G01*
X46553933Y9240726D01*
X46553933Y10697368D01*
X46720600Y10697368D01*
X46723482Y9525247D01*
X46745880Y9471175D01*
X46787264Y9429791D01*
X46841336Y9407393D01*
X46899864Y9407393D01*
X46953936Y9429791D01*
X46995320Y9471175D01*
X47017718Y9525247D01*
X47020600Y9554511D01*
X47017718Y10726632D01*
X46995320Y10780704D01*
X46953936Y10822088D01*
X46899864Y10844486D01*
X46841336Y10844486D01*
X46787264Y10822088D01*
X46745880Y10780704D01*
X46723482Y10726632D01*
X46720600Y10697368D01*
X46553933Y10697368D01*
X46553933Y11011153D01*
X47187267Y11011153D01*
X47187267Y9240726D01*
G37*
D10*
G36*
X40976138Y7213868D02*
G01*
X41001915Y7189206D01*
X41032881Y7129567D01*
X41034128Y6869489D01*
X40708495Y6868875D01*
X40707269Y7124314D01*
X40736205Y7184461D01*
X40760867Y7210238D01*
X40820798Y7241355D01*
X40916645Y7242489D01*
X40976138Y7213868D01*
G37*
G36*
X40642805Y8118630D02*
G01*
X40668582Y8093968D01*
X40699699Y8034037D01*
X40700833Y7938190D01*
X40672211Y7878695D01*
X40647553Y7852922D01*
X40587849Y7821923D01*
X40349429Y7820422D01*
X40289420Y7849291D01*
X40263644Y7873951D01*
X40232527Y7933883D01*
X40231393Y8029730D01*
X40260014Y8089222D01*
X40284677Y8115000D01*
X40344377Y8145997D01*
X40582798Y8147498D01*
X40642805Y8118630D01*
G37*
G36*
X40677199Y10029754D02*
G01*
X40699641Y9986530D01*
X40700952Y9843200D01*
X40678575Y9796685D01*
X40635529Y9774335D01*
X40587556Y9774105D01*
X40641082Y10047129D01*
X40677199Y10029754D01*
G37*
G36*
X41343891Y6558563D02*
G01*
X39921669Y6558563D01*
X39921669Y6789183D01*
X40034701Y6789183D01*
X40034701Y6750165D01*
X40049633Y6714117D01*
X40077223Y6686527D01*
X40113271Y6671595D01*
X40132780Y6669674D01*
X41152289Y6671595D01*
X41188337Y6686527D01*
X41215927Y6714117D01*
X41230859Y6750165D01*
X41232780Y6769674D01*
X41231026Y7135214D01*
X41231995Y7138119D01*
X41230941Y7152944D01*
X41230859Y7170135D01*
X41229483Y7173456D01*
X41229229Y7177039D01*
X41222223Y7195348D01*
X41172880Y7290382D01*
X41168308Y7301422D01*
X41165152Y7305268D01*
X41164161Y7307176D01*
X41162163Y7308909D01*
X41155871Y7316575D01*
X41105770Y7364507D01*
X41098853Y7372483D01*
X41094703Y7375096D01*
X41093099Y7376630D01*
X41090659Y7377641D01*
X41082263Y7382926D01*
X40999245Y7422865D01*
X40997861Y7424249D01*
X40987111Y7428702D01*
X40968717Y7437551D01*
X40965133Y7437806D01*
X40961813Y7439181D01*
X40942304Y7441102D01*
X40814147Y7439586D01*
X40811954Y7440317D01*
X40799171Y7439409D01*
X40779938Y7439181D01*
X40776617Y7437806D01*
X40773034Y7437551D01*
X40754725Y7430545D01*
X40659691Y7381203D01*
X40648651Y7376630D01*
X40644805Y7373475D01*
X40642897Y7372483D01*
X40641164Y7370486D01*
X40633498Y7364193D01*
X40585566Y7314093D01*
X40577590Y7307175D01*
X40574977Y7303026D01*
X40573443Y7301421D01*
X40572432Y7298982D01*
X40567147Y7290585D01*
X40527208Y7207568D01*
X40525824Y7206183D01*
X40521371Y7195434D01*
X40512522Y7177039D01*
X40512267Y7173456D01*
X40510892Y7170135D01*
X40508971Y7150626D01*
X40510324Y6868502D01*
X40113271Y6867753D01*
X40077223Y6852821D01*
X40049633Y6825231D01*
X40034701Y6789183D01*
X39921669Y6789183D01*
X39921669Y8055388D01*
X40032780Y8055388D01*
X40034296Y7927231D01*
X40033565Y7925037D01*
X40034473Y7912255D01*
X40034701Y7893022D01*
X40036076Y7889703D01*
X40036331Y7886117D01*
X40043338Y7867809D01*
X40092678Y7772780D01*
X40097253Y7761736D01*
X40100409Y7757890D01*
X40101401Y7755980D01*
X40103397Y7754249D01*
X40109689Y7746582D01*
X40159791Y7698649D01*
X40166707Y7690674D01*
X40170856Y7688063D01*
X40172461Y7686527D01*
X40174901Y7685517D01*
X40183298Y7680231D01*
X40266315Y7640293D01*
X40267700Y7638908D01*
X40278449Y7634456D01*
X40296844Y7625606D01*
X40300427Y7625352D01*
X40303748Y7623976D01*
X40323257Y7622055D01*
X40593712Y7623758D01*
X40596464Y7622840D01*
X40610890Y7623866D01*
X40628480Y7623976D01*
X40631800Y7625352D01*
X40635384Y7625606D01*
X40653692Y7632612D01*
X40748721Y7681953D01*
X40759766Y7686527D01*
X40763612Y7689684D01*
X40765520Y7690674D01*
X40767249Y7692669D01*
X40774920Y7698963D01*
X40822853Y7749066D01*
X40830828Y7755981D01*
X40833439Y7760131D01*
X40834975Y7761735D01*
X40835985Y7764176D01*
X40841271Y7772572D01*
X40881209Y7855590D01*
X40882594Y7856974D01*
X40887046Y7867724D01*
X40895896Y7886118D01*
X40896150Y7889702D01*
X40897526Y7893022D01*
X40899447Y7912531D01*
X40897930Y8040688D01*
X40898662Y8042881D01*
X40897753Y8055664D01*
X40897526Y8074897D01*
X40896150Y8078218D01*
X40895896Y8081801D01*
X40888890Y8100110D01*
X40839547Y8195144D01*
X40834975Y8206184D01*
X40831819Y8210030D01*
X40830828Y8211938D01*
X40828830Y8213671D01*
X40822538Y8221337D01*
X40772437Y8269269D01*
X40765520Y8277245D01*
X40761370Y8279858D01*
X40759766Y8281392D01*
X40757326Y8282403D01*
X40748930Y8287688D01*
X40665912Y8327627D01*
X40664528Y8329011D01*
X40653778Y8333464D01*
X40635384Y8342313D01*
X40631800Y8342568D01*
X40628480Y8343943D01*
X40608971Y8345864D01*
X40338515Y8344162D01*
X40335764Y8345079D01*
X40321337Y8344054D01*
X40303748Y8343943D01*
X40300427Y8342568D01*
X40296844Y8342313D01*
X40278535Y8335307D01*
X40183501Y8285965D01*
X40172461Y8281392D01*
X40168615Y8278237D01*
X40166707Y8277245D01*
X40164974Y8275248D01*
X40157308Y8268955D01*
X40109380Y8218860D01*
X40101401Y8211939D01*
X40098787Y8207788D01*
X40097253Y8206183D01*
X40096242Y8203744D01*
X40090958Y8195348D01*
X40051018Y8112331D01*
X40049633Y8110945D01*
X40045181Y8100199D01*
X40036331Y8081802D01*
X40036076Y8078217D01*
X40034701Y8074897D01*
X40032780Y8055388D01*
X39921669Y8055388D01*
X39921669Y9142440D01*
X40033115Y9142440D01*
X40034869Y9136301D01*
X40034947Y9129923D01*
X40040179Y9117713D01*
X40043834Y9104923D01*
X40047804Y9099922D01*
X40050317Y9094059D01*
X40059828Y9084777D01*
X40068095Y9074364D01*
X40073672Y9071266D01*
X40078241Y9066807D01*
X40095641Y9057778D01*
X40342203Y8960185D01*
X40108102Y8865563D01*
X40102203Y8864885D01*
X40090927Y8858621D01*
X40078241Y8853493D01*
X40073672Y8849035D01*
X40068095Y8845936D01*
X40059828Y8835524D01*
X40050317Y8826241D01*
X40047804Y8820379D01*
X40043834Y8815377D01*
X40040179Y8802588D01*
X40034947Y8790377D01*
X40034869Y8784000D01*
X40033115Y8777860D01*
X40034632Y8764654D01*
X40034470Y8751362D01*
X40036840Y8745436D01*
X40037569Y8739097D01*
X40044022Y8727480D01*
X40048961Y8715135D01*
X40053419Y8710567D01*
X40056518Y8704989D01*
X40066930Y8696723D01*
X40076213Y8687211D01*
X40082075Y8684699D01*
X40087077Y8680728D01*
X40105308Y8673522D01*
X40791261Y8479533D01*
X40830024Y8483988D01*
X40864132Y8502936D01*
X40888393Y8533495D01*
X40899112Y8571012D01*
X40894657Y8609775D01*
X40875709Y8643883D01*
X40845150Y8668144D01*
X40826919Y8675350D01*
X40438225Y8785274D01*
X40628812Y8862307D01*
X40629674Y8862317D01*
X40643533Y8868257D01*
X40663510Y8876331D01*
X40664399Y8877200D01*
X40665538Y8877687D01*
X40678318Y8890784D01*
X40691434Y8903583D01*
X40691922Y8904724D01*
X40692789Y8905611D01*
X40699591Y8922617D01*
X40706804Y8939446D01*
X40706819Y8940686D01*
X40707280Y8941838D01*
X40707056Y8960150D01*
X40707280Y8978462D01*
X40706819Y8979615D01*
X40706804Y8980854D01*
X40699591Y8997684D01*
X40692789Y9014689D01*
X40691922Y9015577D01*
X40691434Y9016717D01*
X40678318Y9029517D01*
X40665538Y9042613D01*
X40664399Y9043101D01*
X40663510Y9043969D01*
X40646110Y9052998D01*
X40439069Y9134949D01*
X40845150Y9252156D01*
X40875709Y9276417D01*
X40894657Y9310525D01*
X40899112Y9349288D01*
X40888393Y9386805D01*
X40864132Y9417364D01*
X40830024Y9436312D01*
X40791261Y9440767D01*
X40771975Y9437254D01*
X40118123Y9248533D01*
X40112077Y9248459D01*
X40100133Y9243341D01*
X40087077Y9239572D01*
X40082075Y9235602D01*
X40076213Y9233089D01*
X40066930Y9223578D01*
X40056518Y9215311D01*
X40053419Y9209734D01*
X40048961Y9205165D01*
X40044022Y9192821D01*
X40037569Y9181203D01*
X40036840Y9174865D01*
X40034470Y9168938D01*
X40034632Y9155647D01*
X40033115Y9142440D01*
X39921669Y9142440D01*
X39921669Y10007769D01*
X40032780Y10007769D01*
X40034385Y9832261D01*
X40033565Y9829799D01*
X40034532Y9816183D01*
X40034701Y9797784D01*
X40036076Y9794465D01*
X40036331Y9790879D01*
X40043338Y9772571D01*
X40090375Y9681977D01*
X40093524Y9672532D01*
X40097898Y9667489D01*
X40101401Y9660742D01*
X40110873Y9652528D01*
X40119088Y9643055D01*
X40128960Y9636841D01*
X40130878Y9635178D01*
X40132417Y9634665D01*
X40135679Y9632612D01*
X40218696Y9592674D01*
X40220081Y9591289D01*
X40230830Y9586837D01*
X40249225Y9577987D01*
X40252808Y9577733D01*
X40256129Y9576357D01*
X40275638Y9574436D01*
X40461549Y9575328D01*
X40466009Y9574436D01*
X40470740Y9575372D01*
X40641177Y9576190D01*
X40644083Y9575221D01*
X40658907Y9576275D01*
X40676099Y9576357D01*
X40679419Y9577733D01*
X40683003Y9577987D01*
X40701311Y9584993D01*
X40791905Y9632031D01*
X40801351Y9635179D01*
X40806395Y9639554D01*
X40813139Y9643055D01*
X40821352Y9652526D01*
X40830828Y9660743D01*
X40837042Y9670617D01*
X40838704Y9672532D01*
X40839216Y9674071D01*
X40841271Y9677334D01*
X40881209Y9760352D01*
X40882594Y9761736D01*
X40887046Y9772486D01*
X40895896Y9790880D01*
X40896150Y9794464D01*
X40897526Y9797784D01*
X40899447Y9817293D01*
X40897841Y9992801D01*
X40898662Y9995262D01*
X40897694Y10008878D01*
X40897526Y10027278D01*
X40896150Y10030599D01*
X40895896Y10034182D01*
X40888890Y10052491D01*
X40841850Y10143089D01*
X40838704Y10152530D01*
X40834331Y10157573D01*
X40830828Y10164319D01*
X40821352Y10172537D01*
X40813139Y10182007D01*
X40803267Y10188221D01*
X40801351Y10189883D01*
X40799812Y10190397D01*
X40796549Y10192450D01*
X40713531Y10232389D01*
X40712147Y10233773D01*
X40701397Y10238226D01*
X40683003Y10247075D01*
X40679419Y10247330D01*
X40676099Y10248705D01*
X40656590Y10250626D01*
X40568805Y10249157D01*
X40561457Y10250626D01*
X40552661Y10248887D01*
X40541843Y10248705D01*
X40532790Y10244956D01*
X40523180Y10243054D01*
X40514942Y10237563D01*
X40505795Y10233773D01*
X40498866Y10226845D01*
X40490715Y10221410D01*
X40485206Y10213185D01*
X40478205Y10206183D01*
X40474455Y10197132D01*
X40469004Y10188991D01*
X40463294Y10170237D01*
X40463274Y10170140D01*
X40463273Y10170135D01*
X40463273Y10170130D01*
X40385443Y9773136D01*
X40301950Y9772735D01*
X40255027Y9795309D01*
X40232585Y9838532D01*
X40231274Y9981864D01*
X40276849Y10076594D01*
X40279615Y10115514D01*
X40267277Y10152530D01*
X40241712Y10182007D01*
X40206814Y10199456D01*
X40167894Y10202222D01*
X40130878Y10189884D01*
X40101401Y10164320D01*
X40090958Y10147729D01*
X40051018Y10064712D01*
X40049633Y10063326D01*
X40045181Y10052580D01*
X40036331Y10034183D01*
X40036076Y10030598D01*
X40034701Y10027278D01*
X40032780Y10007769D01*
X39921669Y10007769D01*
X39921669Y10598707D01*
X40034701Y10598707D01*
X40034701Y10559689D01*
X40049633Y10523641D01*
X40077223Y10496051D01*
X40113271Y10481119D01*
X40132780Y10479198D01*
X40594937Y10480492D01*
X40596464Y10479983D01*
X40603980Y10480518D01*
X40818956Y10481119D01*
X40855004Y10496051D01*
X40882594Y10523641D01*
X40897526Y10559689D01*
X40897526Y10598707D01*
X40882594Y10634755D01*
X40856330Y10661019D01*
X40881209Y10712733D01*
X40882594Y10714117D01*
X40887046Y10724867D01*
X40895896Y10743261D01*
X40896150Y10746845D01*
X40897526Y10750165D01*
X40899447Y10769674D01*
X40897526Y10884421D01*
X40882594Y10920469D01*
X40855004Y10948059D01*
X40818956Y10962991D01*
X40779938Y10962991D01*
X40743890Y10948059D01*
X40716300Y10920469D01*
X40701368Y10884421D01*
X40699447Y10864912D01*
X40700619Y10794888D01*
X40672211Y10735838D01*
X40647553Y10710065D01*
X40586959Y10678604D01*
X40113271Y10677277D01*
X40077223Y10662345D01*
X40049633Y10634755D01*
X40034701Y10598707D01*
X39921669Y10598707D01*
X39921669Y11074102D01*
X41343891Y11074102D01*
X41343891Y6558563D01*
G37*
X56532780Y8426817D02*
X55532780Y8760150D01*
X55532780Y8760150D02*
X56532780Y9093483D01*
X55628019Y9998245D02*
X55580400Y9950626D01*
X55580400Y9950626D02*
X55532780Y9807769D01*
X55532780Y9807769D02*
X55532780Y9712531D01*
X55532780Y9712531D02*
X55580400Y9569674D01*
X55580400Y9569674D02*
X55675638Y9474436D01*
X55675638Y9474436D02*
X55770876Y9426817D01*
X55770876Y9426817D02*
X55961352Y9379198D01*
X55961352Y9379198D02*
X56104209Y9379198D01*
X56104209Y9379198D02*
X56294685Y9426817D01*
X56294685Y9426817D02*
X56389923Y9474436D01*
X56389923Y9474436D02*
X56485161Y9569674D01*
X56485161Y9569674D02*
X56532780Y9712531D01*
X56532780Y9712531D02*
X56532780Y9807769D01*
X56532780Y9807769D02*
X56485161Y9950626D01*
X56485161Y9950626D02*
X56437542Y9998245D01*
X55628019Y10998245D02*
X55580400Y10950626D01*
X55580400Y10950626D02*
X55532780Y10807769D01*
X55532780Y10807769D02*
X55532780Y10712531D01*
X55532780Y10712531D02*
X55580400Y10569674D01*
X55580400Y10569674D02*
X55675638Y10474436D01*
X55675638Y10474436D02*
X55770876Y10426817D01*
X55770876Y10426817D02*
X55961352Y10379198D01*
X55961352Y10379198D02*
X56104209Y10379198D01*
X56104209Y10379198D02*
X56294685Y10426817D01*
X56294685Y10426817D02*
X56389923Y10474436D01*
X56389923Y10474436D02*
X56485161Y10569674D01*
X56485161Y10569674D02*
X56532780Y10712531D01*
X56532780Y10712531D02*
X56532780Y10807769D01*
X56532780Y10807769D02*
X56485161Y10950626D01*
X56485161Y10950626D02*
X56437542Y10998245D01*
X54280400Y8522055D02*
X54232780Y8664912D01*
X54232780Y8664912D02*
X54232780Y8903007D01*
X54232780Y8903007D02*
X54280400Y8998245D01*
X54280400Y8998245D02*
X54328019Y9045864D01*
X54328019Y9045864D02*
X54423257Y9093483D01*
X54423257Y9093483D02*
X54518495Y9093483D01*
X54518495Y9093483D02*
X54613733Y9045864D01*
X54613733Y9045864D02*
X54661352Y8998245D01*
X54661352Y8998245D02*
X54708971Y8903007D01*
X54708971Y8903007D02*
X54756590Y8712531D01*
X54756590Y8712531D02*
X54804209Y8617293D01*
X54804209Y8617293D02*
X54851828Y8569674D01*
X54851828Y8569674D02*
X54947066Y8522055D01*
X54947066Y8522055D02*
X55042304Y8522055D01*
X55042304Y8522055D02*
X55137542Y8569674D01*
X55137542Y8569674D02*
X55185161Y8617293D01*
X55185161Y8617293D02*
X55232780Y8712531D01*
X55232780Y8712531D02*
X55232780Y8950626D01*
X55232780Y8950626D02*
X55185161Y9093483D01*
X54232780Y9522055D02*
X55232780Y9522055D01*
X55232780Y9522055D02*
X55232780Y9760150D01*
X55232780Y9760150D02*
X55185161Y9903007D01*
X55185161Y9903007D02*
X55089923Y9998245D01*
X55089923Y9998245D02*
X54994685Y10045864D01*
X54994685Y10045864D02*
X54804209Y10093483D01*
X54804209Y10093483D02*
X54661352Y10093483D01*
X54661352Y10093483D02*
X54470876Y10045864D01*
X54470876Y10045864D02*
X54375638Y9998245D01*
X54375638Y9998245D02*
X54280400Y9903007D01*
X54280400Y9903007D02*
X54232780Y9760150D01*
X54232780Y9760150D02*
X54232780Y9522055D01*
X54518495Y10474436D02*
X54518495Y10950626D01*
X54232780Y10379198D02*
X55232780Y10712531D01*
X55232780Y10712531D02*
X54232780Y11045864D01*
G36*
X60029477Y-9139416D02*
G01*
X59727906Y-9240539D01*
X59727126Y-9039233D01*
X60029477Y-9139416D01*
G37*
G36*
X58015314Y-4923310D02*
G01*
X57992861Y-4969982D01*
X57949315Y-4992591D01*
X57900851Y-4993403D01*
X57855027Y-4971358D01*
X57832622Y-4928205D01*
X57831198Y-4737341D01*
X57841631Y-4715656D01*
X58013761Y-4715047D01*
X58015314Y-4923310D01*
G37*
G36*
X58299641Y-3208708D02*
G01*
X58300952Y-3352038D01*
X58272211Y-3411781D01*
X58247553Y-3437554D01*
X58187849Y-3468553D01*
X57949429Y-3470054D01*
X57889420Y-3441185D01*
X57863644Y-3416525D01*
X57832585Y-3356706D01*
X57831274Y-3213374D01*
X57841727Y-3191647D01*
X58290243Y-3190608D01*
X58299641Y-3208708D01*
G37*
G36*
X58277199Y-2308341D02*
G01*
X58299641Y-2351565D01*
X58300952Y-2494895D01*
X58278575Y-2541410D01*
X58235529Y-2563760D01*
X58187556Y-2563990D01*
X58241082Y-2290966D01*
X58277199Y-2308341D01*
G37*
G36*
X58501117Y769008D02*
G01*
X58576138Y732917D01*
X58601915Y708255D01*
X58633140Y648116D01*
X58633952Y599651D01*
X58605544Y540601D01*
X58580886Y514828D01*
X58513326Y479750D01*
X58345867Y436298D01*
X58132376Y434706D01*
X57964443Y475105D01*
X57889420Y511197D01*
X57863644Y535857D01*
X57832419Y595997D01*
X57831607Y644462D01*
X57860014Y703509D01*
X57884677Y729287D01*
X57952232Y764363D01*
X58119693Y807815D01*
X58333183Y809407D01*
X58501117Y769008D01*
G37*
G36*
X60553835Y-9683509D02*
G01*
X57188336Y-9683509D01*
X57188336Y-8810256D01*
X57632849Y-8810256D01*
X57636214Y-8824390D01*
X57638126Y-8838774D01*
X57640696Y-8843214D01*
X57641887Y-8848213D01*
X57650402Y-8859979D01*
X57657675Y-8872542D01*
X57661752Y-8875662D01*
X57664762Y-8879822D01*
X57677124Y-8887429D01*
X57688658Y-8896258D01*
X57695858Y-8898957D01*
X57697992Y-8900271D01*
X57700382Y-8900654D01*
X57707014Y-8903141D01*
X58062591Y-8996997D01*
X57711734Y-9091511D01*
X57697992Y-9093715D01*
X57693660Y-9096380D01*
X57688658Y-9097728D01*
X57677124Y-9106556D01*
X57664762Y-9114164D01*
X57661752Y-9118323D01*
X57657675Y-9121444D01*
X57650402Y-9134006D01*
X57641887Y-9145773D01*
X57640696Y-9150771D01*
X57638126Y-9155212D01*
X57636214Y-9169595D01*
X57632849Y-9183730D01*
X57633662Y-9188801D01*
X57632986Y-9193890D01*
X57636727Y-9207922D01*
X57639026Y-9222257D01*
X57641715Y-9226627D01*
X57643039Y-9231591D01*
X57651867Y-9243124D01*
X57659475Y-9255487D01*
X57663634Y-9258496D01*
X57666755Y-9262574D01*
X57679317Y-9269846D01*
X57691084Y-9278362D01*
X57698355Y-9280868D01*
X57700523Y-9282123D01*
X57702920Y-9282441D01*
X57709618Y-9284750D01*
X58729041Y-9525495D01*
X58767568Y-9519318D01*
X58800798Y-9498869D01*
X58823673Y-9467260D01*
X58832711Y-9429303D01*
X58826534Y-9390776D01*
X58806085Y-9357546D01*
X58774476Y-9334671D01*
X58755942Y-9328283D01*
X58137059Y-9182128D01*
X58466738Y-9093320D01*
X58479324Y-9091648D01*
X58484873Y-9088434D01*
X58491188Y-9086734D01*
X58501670Y-9078709D01*
X58513091Y-9072098D01*
X58517027Y-9066954D01*
X58522171Y-9063018D01*
X58528782Y-9051598D01*
X58536807Y-9041115D01*
X58538476Y-9034854D01*
X58541721Y-9029250D01*
X58543459Y-9016167D01*
X58546860Y-9003414D01*
X58546006Y-8996993D01*
X58546860Y-8990572D01*
X58543459Y-8977818D01*
X58541721Y-8964736D01*
X58538476Y-8959131D01*
X58536807Y-8952871D01*
X58528782Y-8942387D01*
X58522171Y-8930968D01*
X58517027Y-8927031D01*
X58513091Y-8921888D01*
X58501670Y-8915276D01*
X58491188Y-8907252D01*
X58481606Y-8903659D01*
X58479324Y-8902338D01*
X58477400Y-8902082D01*
X58472833Y-8900370D01*
X58138203Y-8812042D01*
X58213326Y-8794010D01*
X59243509Y-8794010D01*
X59246275Y-8832930D01*
X59263725Y-8867829D01*
X59293201Y-8893394D01*
X59311101Y-8901385D01*
X59528717Y-8973491D01*
X59530009Y-9306899D01*
X59293201Y-9386306D01*
X59263725Y-9411871D01*
X59246275Y-9446770D01*
X59243509Y-9485690D01*
X59255847Y-9522706D01*
X59281412Y-9552182D01*
X59316311Y-9569632D01*
X59355231Y-9572398D01*
X59374347Y-9568051D01*
X60362239Y-9236789D01*
X60369136Y-9236299D01*
X60380201Y-9230766D01*
X60392247Y-9226727D01*
X60397648Y-9222042D01*
X60404035Y-9218849D01*
X60412247Y-9209380D01*
X60421723Y-9201162D01*
X60424918Y-9194770D01*
X60429600Y-9189373D01*
X60433566Y-9177475D01*
X60439172Y-9166263D01*
X60439678Y-9159138D01*
X60441939Y-9152357D01*
X60441049Y-9139850D01*
X60441939Y-9127343D01*
X60439678Y-9120561D01*
X60439172Y-9113437D01*
X60433566Y-9102224D01*
X60429600Y-9090327D01*
X60424918Y-9084929D01*
X60421723Y-9078538D01*
X60412247Y-9070319D01*
X60404035Y-9060851D01*
X60397648Y-9057657D01*
X60392247Y-9052973D01*
X60374346Y-9044982D01*
X59655388Y-8806758D01*
X59647948Y-8803676D01*
X59646087Y-8803676D01*
X59355231Y-8707302D01*
X59316311Y-8710068D01*
X59281412Y-8727518D01*
X59255847Y-8756994D01*
X59243509Y-8794010D01*
X58213326Y-8794010D01*
X58774476Y-8659315D01*
X58806085Y-8636440D01*
X58826534Y-8603210D01*
X58832711Y-8564683D01*
X58823673Y-8526726D01*
X58800798Y-8495117D01*
X58767568Y-8474668D01*
X58729041Y-8468491D01*
X58709618Y-8471141D01*
X57714479Y-8710008D01*
X57700523Y-8711863D01*
X57696110Y-8714417D01*
X57691084Y-8715624D01*
X57679317Y-8724139D01*
X57666755Y-8731412D01*
X57663634Y-8735489D01*
X57659475Y-8738499D01*
X57651867Y-8750861D01*
X57643039Y-8762395D01*
X57641715Y-8767358D01*
X57639026Y-8771729D01*
X57636727Y-8786063D01*
X57632986Y-8800096D01*
X57633662Y-8805184D01*
X57632849Y-8810256D01*
X57188336Y-8810256D01*
X57188336Y-8453674D01*
X59244645Y-8453674D01*
X59244645Y-8492692D01*
X59246129Y-8496275D01*
X59259576Y-8528740D01*
X59259577Y-8528741D01*
X59272014Y-8543894D01*
X59334787Y-8603950D01*
X59360277Y-8614507D01*
X59370835Y-8618881D01*
X59370836Y-8618881D01*
X59409853Y-8618881D01*
X59430970Y-8610133D01*
X59445902Y-8603949D01*
X59445906Y-8603944D01*
X59461055Y-8591513D01*
X59521110Y-8528741D01*
X59532479Y-8501293D01*
X59536042Y-8492692D01*
X59536042Y-8453674D01*
X59521110Y-8417626D01*
X59521110Y-8417625D01*
X59508673Y-8402472D01*
X59445924Y-8342439D01*
X59445902Y-8342417D01*
X59430970Y-8336232D01*
X59409853Y-8327485D01*
X59370835Y-8327485D01*
X59360277Y-8331858D01*
X59334787Y-8342416D01*
X59319634Y-8354853D01*
X59259577Y-8417625D01*
X59259576Y-8417626D01*
X59249018Y-8443116D01*
X59244645Y-8453674D01*
X57188336Y-8453674D01*
X57188336Y-7425565D01*
X58013733Y-7425565D01*
X58015654Y-8206978D01*
X58030586Y-8243026D01*
X58058176Y-8270616D01*
X58094224Y-8285548D01*
X58133242Y-8285548D01*
X58169290Y-8270616D01*
X58196880Y-8243026D01*
X58211812Y-8206978D01*
X58213733Y-8187469D01*
X58212445Y-7663660D01*
X59242724Y-7663660D01*
X59244489Y-7900461D01*
X59243509Y-7914263D01*
X59244629Y-7919190D01*
X59244645Y-7921264D01*
X59245656Y-7923705D01*
X59247856Y-7933378D01*
X59303468Y-8094136D01*
X59329033Y-8123612D01*
X59363932Y-8141061D01*
X59402852Y-8143827D01*
X59439868Y-8131488D01*
X59469344Y-8105923D01*
X59486793Y-8071024D01*
X59489559Y-8032104D01*
X59485212Y-8012989D01*
X59442635Y-7889913D01*
X59441142Y-7689722D01*
X59469958Y-7629826D01*
X59494621Y-7604048D01*
X59554760Y-7572823D01*
X59603225Y-7572011D01*
X59662273Y-7600418D01*
X59688050Y-7625080D01*
X59723126Y-7692635D01*
X59769405Y-7870993D01*
X59770085Y-7880549D01*
X59775676Y-7895161D01*
X59776115Y-7896850D01*
X59776545Y-7897430D01*
X59777091Y-7898857D01*
X59826431Y-7993886D01*
X59831006Y-8004931D01*
X59834162Y-8008777D01*
X59835153Y-8010685D01*
X59837147Y-8012414D01*
X59843442Y-8020085D01*
X59893544Y-8068018D01*
X59900460Y-8075993D01*
X59904609Y-8078604D01*
X59906214Y-8080140D01*
X59908654Y-8081150D01*
X59917051Y-8086436D01*
X60000068Y-8126374D01*
X60001453Y-8127759D01*
X60012202Y-8132211D01*
X60030597Y-8141061D01*
X60034180Y-8141315D01*
X60037501Y-8142691D01*
X60057010Y-8144612D01*
X60138027Y-8143255D01*
X60139741Y-8143827D01*
X60150785Y-8143042D01*
X60171757Y-8142691D01*
X60175077Y-8141315D01*
X60178661Y-8141061D01*
X60196969Y-8134055D01*
X60291998Y-8084714D01*
X60303043Y-8080140D01*
X60306889Y-8076983D01*
X60308797Y-8075993D01*
X60310526Y-8073998D01*
X60318197Y-8067704D01*
X60366130Y-8017601D01*
X60374105Y-8010686D01*
X60376716Y-8006536D01*
X60378252Y-8004932D01*
X60379262Y-8002491D01*
X60384548Y-7994095D01*
X60424486Y-7911077D01*
X60425871Y-7909693D01*
X60430323Y-7898943D01*
X60439173Y-7880549D01*
X60439427Y-7876965D01*
X60440803Y-7873645D01*
X60442724Y-7854136D01*
X60440958Y-7617334D01*
X60441939Y-7603533D01*
X60440818Y-7598605D01*
X60440803Y-7596532D01*
X60439791Y-7594090D01*
X60437592Y-7584418D01*
X60381982Y-7423661D01*
X60356417Y-7394185D01*
X60321518Y-7376735D01*
X60282598Y-7373969D01*
X60245582Y-7386307D01*
X60216106Y-7411872D01*
X60198656Y-7446771D01*
X60195890Y-7485691D01*
X60200237Y-7504807D01*
X60242812Y-7627883D01*
X60244305Y-7828072D01*
X60215488Y-7887972D01*
X60190830Y-7913745D01*
X60130687Y-7944972D01*
X60082223Y-7945784D01*
X60023173Y-7917376D01*
X59997400Y-7892718D01*
X59962322Y-7825158D01*
X59916043Y-7646802D01*
X59915364Y-7637247D01*
X59909771Y-7622631D01*
X59909334Y-7620946D01*
X59908904Y-7620366D01*
X59908358Y-7618938D01*
X59859015Y-7523904D01*
X59854443Y-7512864D01*
X59851287Y-7509018D01*
X59850296Y-7507110D01*
X59848298Y-7505377D01*
X59842006Y-7497711D01*
X59791905Y-7449779D01*
X59784988Y-7441803D01*
X59780838Y-7439190D01*
X59779234Y-7437656D01*
X59776794Y-7436645D01*
X59768398Y-7431360D01*
X59685380Y-7391421D01*
X59683996Y-7390037D01*
X59673246Y-7385584D01*
X59654852Y-7376735D01*
X59651268Y-7376480D01*
X59647948Y-7375105D01*
X59628439Y-7373184D01*
X59547421Y-7374540D01*
X59545708Y-7373969D01*
X59534663Y-7374753D01*
X59513692Y-7375105D01*
X59510371Y-7376480D01*
X59506788Y-7376735D01*
X59488479Y-7383741D01*
X59393445Y-7433083D01*
X59382405Y-7437656D01*
X59378559Y-7440811D01*
X59376651Y-7441803D01*
X59374918Y-7443800D01*
X59367252Y-7450093D01*
X59319324Y-7500188D01*
X59311345Y-7507109D01*
X59308731Y-7511260D01*
X59307197Y-7512865D01*
X59306186Y-7515304D01*
X59300902Y-7523700D01*
X59260962Y-7606717D01*
X59259577Y-7608103D01*
X59255125Y-7618849D01*
X59246275Y-7637246D01*
X59246020Y-7640831D01*
X59244645Y-7644151D01*
X59242724Y-7663660D01*
X58212445Y-7663660D01*
X58211812Y-7406056D01*
X58196880Y-7370008D01*
X58169290Y-7342418D01*
X58133242Y-7327486D01*
X58094224Y-7327486D01*
X58058176Y-7342418D01*
X58030586Y-7370008D01*
X58015654Y-7406056D01*
X58013733Y-7425565D01*
X57188336Y-7425565D01*
X57188336Y-6568422D01*
X57632780Y-6568422D01*
X57634389Y-6664565D01*
X57633565Y-6676168D01*
X57634664Y-6681003D01*
X57634701Y-6683169D01*
X57635712Y-6685610D01*
X57637912Y-6695283D01*
X57682321Y-6823656D01*
X57682321Y-6826026D01*
X57687293Y-6838029D01*
X57693524Y-6856041D01*
X57695878Y-6858755D01*
X57697253Y-6862074D01*
X57709689Y-6877228D01*
X57806073Y-6971239D01*
X57814326Y-6980755D01*
X57818564Y-6983422D01*
X57820081Y-6984902D01*
X57822518Y-6985911D01*
X57830917Y-6991198D01*
X57921188Y-7034626D01*
X57928162Y-7039793D01*
X57942796Y-7045021D01*
X57944463Y-7045823D01*
X57945183Y-7045874D01*
X57946622Y-7046388D01*
X58131934Y-7090967D01*
X58141843Y-7095072D01*
X58153952Y-7096264D01*
X58156491Y-7096875D01*
X58157949Y-7096657D01*
X58161352Y-7096993D01*
X58298925Y-7095365D01*
X58309070Y-7096875D01*
X58321048Y-7095103D01*
X58323718Y-7095072D01*
X58325081Y-7094507D01*
X58328463Y-7094007D01*
X58511542Y-7046502D01*
X58521098Y-7045823D01*
X58535710Y-7040231D01*
X58537399Y-7039793D01*
X58537979Y-7039362D01*
X58539406Y-7038817D01*
X58565819Y-7025103D01*
X59244645Y-7025103D01*
X59244645Y-7064121D01*
X59246129Y-7067704D01*
X59259576Y-7100169D01*
X59259577Y-7100170D01*
X59272014Y-7115323D01*
X59334787Y-7175379D01*
X59360277Y-7185936D01*
X59370835Y-7190310D01*
X59370836Y-7190310D01*
X59409853Y-7190310D01*
X59430970Y-7181562D01*
X59445902Y-7175378D01*
X59445906Y-7175373D01*
X59461055Y-7162942D01*
X59521110Y-7100170D01*
X59525483Y-7089611D01*
X59536042Y-7064121D01*
X59536042Y-7025103D01*
X59521110Y-6989055D01*
X59521110Y-6989054D01*
X59508673Y-6973901D01*
X59445924Y-6913868D01*
X59445902Y-6913846D01*
X59428345Y-6906574D01*
X59409853Y-6898914D01*
X59370835Y-6898914D01*
X59361053Y-6902966D01*
X59334787Y-6913845D01*
X59319634Y-6926282D01*
X59259577Y-6989054D01*
X59259576Y-6989055D01*
X59254275Y-7001854D01*
X59244645Y-7025103D01*
X58565819Y-7025103D01*
X58634435Y-6989476D01*
X58645480Y-6984902D01*
X58649326Y-6981745D01*
X58651234Y-6980755D01*
X58652963Y-6978760D01*
X58660634Y-6972466D01*
X58744462Y-6886521D01*
X58746473Y-6885516D01*
X58754738Y-6875986D01*
X58768308Y-6862074D01*
X58769682Y-6858755D01*
X58772038Y-6856040D01*
X58780029Y-6838140D01*
X58825935Y-6695055D01*
X58830859Y-6683169D01*
X58831350Y-6678176D01*
X58831995Y-6676168D01*
X58831807Y-6673533D01*
X58832780Y-6663660D01*
X58831170Y-6567516D01*
X58831995Y-6555914D01*
X58830895Y-6551078D01*
X58830859Y-6548913D01*
X58829847Y-6546471D01*
X58827648Y-6536799D01*
X58783239Y-6408421D01*
X58783239Y-6406056D01*
X58778273Y-6394066D01*
X58772038Y-6376042D01*
X58769682Y-6373326D01*
X58768308Y-6370007D01*
X58755871Y-6354854D01*
X58693099Y-6294799D01*
X58657051Y-6279867D01*
X58618033Y-6279867D01*
X58581985Y-6294799D01*
X58554395Y-6322389D01*
X58539463Y-6358437D01*
X58539463Y-6397455D01*
X58554395Y-6433503D01*
X58566831Y-6448657D01*
X58597487Y-6477986D01*
X58632983Y-6580598D01*
X58634046Y-6644085D01*
X58599801Y-6750824D01*
X58534314Y-6817964D01*
X58465707Y-6853585D01*
X58298142Y-6897064D01*
X58179334Y-6898470D01*
X58012062Y-6858230D01*
X57937392Y-6822308D01*
X57868386Y-6755000D01*
X57832576Y-6651484D01*
X57831513Y-6587997D01*
X57865901Y-6480816D01*
X57911166Y-6433504D01*
X57926097Y-6397455D01*
X57926097Y-6358437D01*
X57911166Y-6322389D01*
X57883576Y-6294799D01*
X57847528Y-6279868D01*
X57808510Y-6279868D01*
X57772461Y-6294799D01*
X57757308Y-6307236D01*
X57720224Y-6345997D01*
X57719089Y-6346565D01*
X57713342Y-6353190D01*
X57697253Y-6370008D01*
X57695878Y-6373326D01*
X57693524Y-6376041D01*
X57685532Y-6393941D01*
X57639625Y-6537025D01*
X57634701Y-6548913D01*
X57634209Y-6553905D01*
X57633565Y-6555914D01*
X57633752Y-6558548D01*
X57632780Y-6568422D01*
X57188336Y-6568422D01*
X57188336Y-5501294D01*
X57634701Y-5501294D01*
X57634701Y-5540312D01*
X57649633Y-5576360D01*
X57677223Y-5603950D01*
X57713271Y-5618882D01*
X57732780Y-5620803D01*
X58230157Y-5619044D01*
X58277199Y-5641675D01*
X58299699Y-5685011D01*
X58300833Y-5780858D01*
X58272211Y-5840353D01*
X58262734Y-5850259D01*
X57713271Y-5851295D01*
X57677223Y-5866227D01*
X57649633Y-5893817D01*
X57634701Y-5929865D01*
X57634701Y-5968883D01*
X57649633Y-6004931D01*
X57677223Y-6032521D01*
X57713271Y-6047453D01*
X57732780Y-6049374D01*
X58752289Y-6047453D01*
X58788337Y-6032521D01*
X58815927Y-6004931D01*
X58830859Y-5968883D01*
X58830859Y-5929865D01*
X58815927Y-5893817D01*
X58788337Y-5866227D01*
X58752289Y-5851295D01*
X58732780Y-5849374D01*
X58487762Y-5849835D01*
X58495896Y-5832930D01*
X58496150Y-5829346D01*
X58497526Y-5826026D01*
X58499447Y-5806517D01*
X58497930Y-5678360D01*
X58498662Y-5676167D01*
X58497753Y-5663384D01*
X58497526Y-5644151D01*
X58496150Y-5640830D01*
X58495896Y-5637247D01*
X58488890Y-5618938D01*
X58441850Y-5528340D01*
X58438704Y-5518899D01*
X58434331Y-5513856D01*
X58430828Y-5507110D01*
X58421352Y-5498892D01*
X58413139Y-5489422D01*
X58403267Y-5483208D01*
X58401351Y-5481546D01*
X58399812Y-5481032D01*
X58396549Y-5478979D01*
X58313531Y-5439040D01*
X58312147Y-5437656D01*
X58301397Y-5433203D01*
X58283003Y-5424354D01*
X58279419Y-5424099D01*
X58276099Y-5422724D01*
X58256590Y-5420803D01*
X57713271Y-5422724D01*
X57677223Y-5437656D01*
X57649633Y-5465246D01*
X57634701Y-5501294D01*
X57188336Y-5501294D01*
X57188336Y-4711279D01*
X57632780Y-4711279D01*
X57634442Y-4934234D01*
X57633565Y-4936868D01*
X57634567Y-4950973D01*
X57634701Y-4968883D01*
X57636076Y-4972202D01*
X57636331Y-4975788D01*
X57643338Y-4994096D01*
X57690375Y-5084690D01*
X57693524Y-5094135D01*
X57697898Y-5099178D01*
X57701401Y-5105925D01*
X57710873Y-5114139D01*
X57719088Y-5123612D01*
X57728960Y-5129826D01*
X57730878Y-5131489D01*
X57732417Y-5132002D01*
X57735679Y-5134055D01*
X57818696Y-5173993D01*
X57820081Y-5175378D01*
X57830830Y-5179830D01*
X57849225Y-5188680D01*
X57852808Y-5188934D01*
X57856129Y-5190310D01*
X57875638Y-5192231D01*
X57956655Y-5190874D01*
X57958369Y-5191446D01*
X57969413Y-5190661D01*
X57990385Y-5190310D01*
X57993705Y-5188934D01*
X57997289Y-5188680D01*
X58015597Y-5181674D01*
X58106191Y-5134636D01*
X58115637Y-5131488D01*
X58120681Y-5127113D01*
X58127425Y-5123612D01*
X58135638Y-5114141D01*
X58145114Y-5105924D01*
X58151328Y-5096050D01*
X58152990Y-5094135D01*
X58153502Y-5092596D01*
X58155557Y-5089333D01*
X58195495Y-5006315D01*
X58196880Y-5004931D01*
X58201332Y-4994181D01*
X58210182Y-4975787D01*
X58210436Y-4972203D01*
X58211812Y-4968883D01*
X58213733Y-4949374D01*
X58212151Y-4737342D01*
X58223233Y-4714306D01*
X58230157Y-4714282D01*
X58277199Y-4736913D01*
X58299641Y-4780137D01*
X58300952Y-4923467D01*
X58255379Y-5018199D01*
X58252613Y-5057119D01*
X58264952Y-5094135D01*
X58290516Y-5123612D01*
X58325415Y-5141061D01*
X58364335Y-5143827D01*
X58401351Y-5131488D01*
X58430828Y-5105924D01*
X58441271Y-5089333D01*
X58481209Y-5006315D01*
X58482594Y-5004931D01*
X58487046Y-4994181D01*
X58495896Y-4975787D01*
X58496150Y-4972203D01*
X58497526Y-4968883D01*
X58499447Y-4949374D01*
X58497841Y-4773866D01*
X58498662Y-4771405D01*
X58497694Y-4757789D01*
X58497526Y-4739389D01*
X58496150Y-4736068D01*
X58495896Y-4732485D01*
X58488890Y-4714176D01*
X58441850Y-4623578D01*
X58438704Y-4614137D01*
X58434331Y-4609094D01*
X58430828Y-4602348D01*
X58421352Y-4594130D01*
X58413139Y-4584660D01*
X58403267Y-4578446D01*
X58401351Y-4576784D01*
X58399812Y-4576270D01*
X58396549Y-4574217D01*
X58313531Y-4534278D01*
X58312147Y-4532894D01*
X58301397Y-4528441D01*
X58283003Y-4519592D01*
X58279419Y-4519337D01*
X58276099Y-4517962D01*
X58256590Y-4516041D01*
X57780532Y-4517724D01*
X57767894Y-4516826D01*
X57765034Y-4517778D01*
X57713271Y-4517962D01*
X57677223Y-4532894D01*
X57649633Y-4560484D01*
X57634701Y-4596532D01*
X57634701Y-4635550D01*
X57646344Y-4663660D01*
X57645181Y-4666468D01*
X57636331Y-4684865D01*
X57636076Y-4688450D01*
X57634701Y-4691770D01*
X57632780Y-4711279D01*
X57188336Y-4711279D01*
X57188336Y-4120341D01*
X57634701Y-4120341D01*
X57634701Y-4159359D01*
X57649633Y-4195407D01*
X57677223Y-4222997D01*
X57713271Y-4237929D01*
X57732780Y-4239850D01*
X58194937Y-4238556D01*
X58196464Y-4239065D01*
X58203980Y-4238530D01*
X58418956Y-4237929D01*
X58455004Y-4222997D01*
X58482594Y-4195407D01*
X58497526Y-4159359D01*
X58497526Y-4120341D01*
X58482594Y-4084293D01*
X58456330Y-4058029D01*
X58481209Y-4006315D01*
X58482594Y-4004931D01*
X58487046Y-3994181D01*
X58495896Y-3975787D01*
X58496150Y-3972203D01*
X58497526Y-3968883D01*
X58499447Y-3949374D01*
X58497526Y-3834627D01*
X58482594Y-3798579D01*
X58455004Y-3770989D01*
X58418956Y-3756057D01*
X58379938Y-3756057D01*
X58343890Y-3770989D01*
X58316300Y-3798579D01*
X58301368Y-3834627D01*
X58299447Y-3854136D01*
X58300619Y-3924160D01*
X58272211Y-3983210D01*
X58247553Y-4008983D01*
X58186959Y-4040444D01*
X57713271Y-4041771D01*
X57677223Y-4056703D01*
X57649633Y-4084293D01*
X57634701Y-4120341D01*
X57188336Y-4120341D01*
X57188336Y-3282707D01*
X57299447Y-3282707D01*
X57300963Y-3410863D01*
X57300232Y-3413057D01*
X57301140Y-3425839D01*
X57301368Y-3445073D01*
X57302743Y-3448393D01*
X57302998Y-3451977D01*
X57310004Y-3470285D01*
X57368066Y-3582113D01*
X57397543Y-3607678D01*
X57434559Y-3620016D01*
X57473479Y-3617251D01*
X57508377Y-3599802D01*
X57533942Y-3570325D01*
X57546281Y-3533309D01*
X57543515Y-3494389D01*
X57536509Y-3476080D01*
X57499194Y-3404211D01*
X57498060Y-3308365D01*
X57526681Y-3248872D01*
X57551343Y-3223095D01*
X57610881Y-3192182D01*
X57632822Y-3192131D01*
X57634385Y-3362977D01*
X57633565Y-3365439D01*
X57634532Y-3379055D01*
X57634701Y-3397454D01*
X57636076Y-3400773D01*
X57636331Y-3404359D01*
X57643338Y-3422667D01*
X57692678Y-3517696D01*
X57697253Y-3528740D01*
X57700409Y-3532586D01*
X57701401Y-3534496D01*
X57703397Y-3536227D01*
X57709689Y-3543894D01*
X57759791Y-3591827D01*
X57766707Y-3599802D01*
X57770856Y-3602413D01*
X57772461Y-3603949D01*
X57774901Y-3604959D01*
X57783298Y-3610245D01*
X57866315Y-3650183D01*
X57867700Y-3651568D01*
X57878449Y-3656020D01*
X57896844Y-3664870D01*
X57900427Y-3665124D01*
X57903748Y-3666500D01*
X57923257Y-3668421D01*
X58193712Y-3666718D01*
X58196464Y-3667636D01*
X58210890Y-3666610D01*
X58228480Y-3666500D01*
X58231800Y-3665124D01*
X58235384Y-3664870D01*
X58253692Y-3657864D01*
X58348721Y-3608523D01*
X58359766Y-3603949D01*
X58363612Y-3600792D01*
X58365520Y-3599802D01*
X58367249Y-3597807D01*
X58374920Y-3591513D01*
X58422853Y-3541410D01*
X58430828Y-3534495D01*
X58433439Y-3530345D01*
X58434975Y-3528741D01*
X58435985Y-3526300D01*
X58441271Y-3517904D01*
X58481209Y-3434886D01*
X58482594Y-3433502D01*
X58487046Y-3422752D01*
X58495896Y-3404358D01*
X58496150Y-3400774D01*
X58497526Y-3397454D01*
X58499447Y-3377945D01*
X58497841Y-3202437D01*
X58498662Y-3199976D01*
X58497694Y-3186360D01*
X58497526Y-3167960D01*
X58496150Y-3164639D01*
X58495896Y-3161056D01*
X58488890Y-3142747D01*
X58486549Y-3138239D01*
X58497526Y-3111740D01*
X58497526Y-3072722D01*
X58482594Y-3036674D01*
X58455004Y-3009084D01*
X58418956Y-2994152D01*
X58399447Y-2992231D01*
X57777138Y-2993672D01*
X57767894Y-2993016D01*
X57765844Y-2993699D01*
X57605593Y-2994070D01*
X57602430Y-2993016D01*
X57586985Y-2994113D01*
X57570414Y-2994152D01*
X57567093Y-2995527D01*
X57563510Y-2995782D01*
X57545201Y-3002788D01*
X57450167Y-3052130D01*
X57439127Y-3056703D01*
X57435281Y-3059858D01*
X57433373Y-3060850D01*
X57431640Y-3062847D01*
X57423974Y-3069140D01*
X57376042Y-3119240D01*
X57368066Y-3126158D01*
X57365453Y-3130307D01*
X57363919Y-3131912D01*
X57362908Y-3134351D01*
X57357623Y-3142748D01*
X57317684Y-3225765D01*
X57316300Y-3227150D01*
X57311847Y-3237899D01*
X57302998Y-3256294D01*
X57302743Y-3259877D01*
X57301368Y-3263198D01*
X57299447Y-3282707D01*
X57188336Y-3282707D01*
X57188336Y-2330326D01*
X57632780Y-2330326D01*
X57634385Y-2505834D01*
X57633565Y-2508296D01*
X57634532Y-2521912D01*
X57634701Y-2540311D01*
X57636076Y-2543630D01*
X57636331Y-2547216D01*
X57643338Y-2565524D01*
X57690375Y-2656118D01*
X57693524Y-2665563D01*
X57697898Y-2670606D01*
X57701401Y-2677353D01*
X57710873Y-2685567D01*
X57719088Y-2695040D01*
X57728960Y-2701254D01*
X57730878Y-2702917D01*
X57732417Y-2703430D01*
X57735679Y-2705483D01*
X57818696Y-2745421D01*
X57820081Y-2746806D01*
X57830830Y-2751258D01*
X57849225Y-2760108D01*
X57852808Y-2760362D01*
X57856129Y-2761738D01*
X57875638Y-2763659D01*
X58061549Y-2762767D01*
X58066009Y-2763659D01*
X58070740Y-2762723D01*
X58241177Y-2761905D01*
X58244083Y-2762874D01*
X58258907Y-2761820D01*
X58276099Y-2761738D01*
X58279419Y-2760362D01*
X58283003Y-2760108D01*
X58301311Y-2753102D01*
X58391905Y-2706064D01*
X58401351Y-2702916D01*
X58406395Y-2698541D01*
X58413139Y-2695040D01*
X58421352Y-2685569D01*
X58430828Y-2677352D01*
X58437042Y-2667478D01*
X58438704Y-2665563D01*
X58439216Y-2664024D01*
X58441271Y-2660761D01*
X58481209Y-2577743D01*
X58482594Y-2576359D01*
X58487046Y-2565609D01*
X58495896Y-2547215D01*
X58496150Y-2543631D01*
X58497526Y-2540311D01*
X58499447Y-2520802D01*
X58497841Y-2345294D01*
X58498662Y-2342833D01*
X58497694Y-2329217D01*
X58497526Y-2310817D01*
X58496150Y-2307496D01*
X58495896Y-2303913D01*
X58488890Y-2285604D01*
X58441850Y-2195006D01*
X58438704Y-2185565D01*
X58434331Y-2180522D01*
X58430828Y-2173776D01*
X58421352Y-2165558D01*
X58413139Y-2156088D01*
X58403267Y-2149874D01*
X58401351Y-2148212D01*
X58399812Y-2147698D01*
X58396549Y-2145645D01*
X58313531Y-2105706D01*
X58312147Y-2104322D01*
X58301397Y-2099869D01*
X58283003Y-2091020D01*
X58279419Y-2090765D01*
X58276099Y-2089390D01*
X58256590Y-2087469D01*
X58168805Y-2088938D01*
X58161457Y-2087469D01*
X58152661Y-2089208D01*
X58141843Y-2089390D01*
X58132790Y-2093139D01*
X58123180Y-2095041D01*
X58114942Y-2100532D01*
X58105795Y-2104322D01*
X58098866Y-2111250D01*
X58090715Y-2116685D01*
X58085206Y-2124910D01*
X58078205Y-2131912D01*
X58074455Y-2140963D01*
X58069004Y-2149104D01*
X58063294Y-2167858D01*
X58063274Y-2167955D01*
X58063273Y-2167960D01*
X58063273Y-2167965D01*
X57985443Y-2564959D01*
X57901950Y-2565360D01*
X57855027Y-2542786D01*
X57832585Y-2499563D01*
X57831274Y-2356231D01*
X57876849Y-2261501D01*
X57879615Y-2222581D01*
X57867277Y-2185565D01*
X57841712Y-2156088D01*
X57806814Y-2138639D01*
X57767894Y-2135873D01*
X57730878Y-2148211D01*
X57701401Y-2173775D01*
X57690958Y-2190366D01*
X57651018Y-2273383D01*
X57649633Y-2274769D01*
X57645181Y-2285515D01*
X57636331Y-2303912D01*
X57636076Y-2307497D01*
X57634701Y-2310817D01*
X57632780Y-2330326D01*
X57188336Y-2330326D01*
X57188336Y-1739388D01*
X57634701Y-1739388D01*
X57634701Y-1778406D01*
X57649633Y-1814454D01*
X57677223Y-1842044D01*
X57713271Y-1856976D01*
X57732780Y-1858897D01*
X58194937Y-1857603D01*
X58196464Y-1858112D01*
X58203980Y-1857577D01*
X58418956Y-1856976D01*
X58455004Y-1842044D01*
X58482594Y-1814454D01*
X58497526Y-1778406D01*
X58497526Y-1739388D01*
X58482594Y-1703340D01*
X58456330Y-1677076D01*
X58481209Y-1625362D01*
X58482594Y-1623978D01*
X58487046Y-1613228D01*
X58495896Y-1594834D01*
X58496150Y-1591250D01*
X58497526Y-1587930D01*
X58499447Y-1568421D01*
X58497526Y-1453674D01*
X58482594Y-1417626D01*
X58455004Y-1390036D01*
X58418956Y-1375104D01*
X58379938Y-1375104D01*
X58343890Y-1390036D01*
X58316300Y-1417626D01*
X58301368Y-1453674D01*
X58299447Y-1473183D01*
X58300619Y-1543207D01*
X58272211Y-1602257D01*
X58247553Y-1628030D01*
X58186959Y-1659491D01*
X57713271Y-1660818D01*
X57677223Y-1675750D01*
X57649633Y-1703340D01*
X57634701Y-1739388D01*
X57188336Y-1739388D01*
X57188336Y669675D01*
X57632780Y669675D01*
X57634136Y588658D01*
X57633565Y586943D01*
X57634349Y575899D01*
X57634701Y554928D01*
X57636076Y551609D01*
X57636331Y548023D01*
X57643338Y529715D01*
X57692678Y434686D01*
X57697253Y423642D01*
X57700409Y419796D01*
X57701401Y417886D01*
X57703397Y416155D01*
X57709689Y408488D01*
X57759791Y360555D01*
X57766707Y352580D01*
X57770856Y349969D01*
X57772461Y348433D01*
X57774901Y347423D01*
X57783298Y342137D01*
X57873569Y298709D01*
X57880543Y293542D01*
X57895177Y288314D01*
X57896844Y287512D01*
X57897564Y287461D01*
X57899003Y286947D01*
X58084315Y242368D01*
X58094224Y238263D01*
X58106333Y237071D01*
X58108872Y236460D01*
X58110330Y236678D01*
X58113733Y236342D01*
X58345850Y238073D01*
X58356689Y236460D01*
X58368750Y238244D01*
X58371337Y238263D01*
X58372700Y238828D01*
X58376082Y239328D01*
X58559161Y286833D01*
X58568717Y287512D01*
X58583329Y293104D01*
X58585018Y293542D01*
X58585598Y293973D01*
X58587025Y294518D01*
X58682054Y343859D01*
X58693099Y348433D01*
X58696945Y351590D01*
X58698853Y352580D01*
X58700582Y354575D01*
X58708253Y360869D01*
X58756186Y410972D01*
X58764161Y417887D01*
X58766772Y422037D01*
X58768308Y423641D01*
X58769318Y426082D01*
X58774604Y434478D01*
X58814542Y517496D01*
X58815927Y518880D01*
X58820379Y529630D01*
X58829229Y548024D01*
X58829483Y551608D01*
X58830859Y554928D01*
X58832780Y574437D01*
X58831423Y655455D01*
X58831995Y657168D01*
X58831210Y668213D01*
X58830859Y689184D01*
X58829483Y692505D01*
X58829229Y696088D01*
X58822223Y714397D01*
X58772880Y809431D01*
X58768308Y820471D01*
X58765152Y824317D01*
X58764161Y826225D01*
X58762163Y827958D01*
X58755871Y835624D01*
X58705770Y883556D01*
X58698853Y891532D01*
X58694703Y894145D01*
X58693099Y895679D01*
X58690659Y896690D01*
X58682263Y901975D01*
X58591991Y945404D01*
X58585018Y950570D01*
X58570385Y955798D01*
X58568717Y956600D01*
X58567994Y956652D01*
X58566557Y957165D01*
X58381246Y1001745D01*
X58371337Y1005849D01*
X58359227Y1007042D01*
X58356689Y1007652D01*
X58355230Y1007435D01*
X58351828Y1007770D01*
X58119710Y1006040D01*
X58108872Y1007652D01*
X58096810Y1005869D01*
X58094224Y1005849D01*
X58092860Y1005285D01*
X58089479Y1004784D01*
X57906399Y957280D01*
X57896844Y956600D01*
X57882228Y951008D01*
X57880543Y950570D01*
X57879963Y950141D01*
X57878535Y949594D01*
X57783501Y900252D01*
X57772461Y895679D01*
X57768615Y892524D01*
X57766707Y891532D01*
X57764974Y889535D01*
X57757308Y883242D01*
X57709380Y833147D01*
X57701401Y826226D01*
X57698787Y822075D01*
X57697253Y820470D01*
X57696242Y818031D01*
X57690958Y809635D01*
X57651018Y726618D01*
X57649633Y725232D01*
X57645181Y714486D01*
X57636331Y696089D01*
X57636076Y692504D01*
X57634701Y689184D01*
X57632780Y669675D01*
X57188336Y669675D01*
X57188336Y1497511D01*
X57634471Y1497511D01*
X57634946Y1458495D01*
X57650316Y1422632D01*
X57678241Y1395381D01*
X57714468Y1380890D01*
X57753484Y1381365D01*
X57772172Y1387284D01*
X58633199Y1758066D01*
X58634701Y1221595D01*
X58649633Y1185547D01*
X58677223Y1157957D01*
X58713271Y1143025D01*
X58752289Y1143025D01*
X58788337Y1157957D01*
X58815927Y1185547D01*
X58830859Y1221595D01*
X58832780Y1241104D01*
X58830965Y1889150D01*
X58831089Y1889458D01*
X58830927Y1902661D01*
X58830859Y1927279D01*
X58830620Y1927855D01*
X58830613Y1928473D01*
X58823182Y1945811D01*
X58815927Y1963327D01*
X58815487Y1963767D01*
X58815243Y1964337D01*
X58801716Y1977538D01*
X58788337Y1990917D01*
X58787762Y1991155D01*
X58787319Y1991588D01*
X58769799Y1998596D01*
X58752289Y2005849D01*
X58751666Y2005849D01*
X58751091Y2006079D01*
X58732200Y2005849D01*
X58713271Y2005849D01*
X58712697Y2005612D01*
X58712076Y2005604D01*
X58693388Y1999684D01*
X57676213Y1561663D01*
X57648962Y1533738D01*
X57634471Y1497511D01*
X57188336Y1497511D01*
X57188336Y2308232D01*
X57634701Y2308232D01*
X57634701Y2269214D01*
X57636185Y2265631D01*
X57649632Y2233166D01*
X57649633Y2233165D01*
X57662070Y2218012D01*
X57724843Y2157956D01*
X57750333Y2147399D01*
X57760891Y2143025D01*
X57760892Y2143025D01*
X57799909Y2143025D01*
X57821026Y2151773D01*
X57835958Y2157957D01*
X57835962Y2157962D01*
X57851111Y2170393D01*
X57911166Y2233165D01*
X57922535Y2260613D01*
X57926098Y2269214D01*
X57926098Y2308232D01*
X57911166Y2344280D01*
X57911166Y2344281D01*
X57898729Y2359434D01*
X57835980Y2419467D01*
X57835958Y2419489D01*
X57821026Y2425674D01*
X57799909Y2434421D01*
X57760891Y2434421D01*
X57750333Y2430048D01*
X57724843Y2419490D01*
X57709690Y2407053D01*
X57649633Y2344281D01*
X57649632Y2344280D01*
X57639074Y2318790D01*
X57634701Y2308232D01*
X57188336Y2308232D01*
X57188336Y3288722D01*
X57632780Y3288722D01*
X57634701Y2650166D01*
X57649633Y2614118D01*
X57677223Y2586528D01*
X57713271Y2571596D01*
X57752289Y2571596D01*
X57788337Y2586528D01*
X57803491Y2598964D01*
X58354736Y3152775D01*
X58459242Y3188926D01*
X58517090Y3189895D01*
X58576138Y3161488D01*
X58601915Y3136826D01*
X58632937Y3077078D01*
X58634361Y2886215D01*
X58605544Y2826315D01*
X58554395Y2772851D01*
X58539463Y2736803D01*
X58539463Y2697785D01*
X58554395Y2661737D01*
X58581985Y2634147D01*
X58618033Y2619215D01*
X58657051Y2619215D01*
X58693099Y2634147D01*
X58708253Y2646583D01*
X58756186Y2696686D01*
X58764161Y2703601D01*
X58766772Y2707751D01*
X58768308Y2709355D01*
X58769318Y2711796D01*
X58774604Y2720192D01*
X58802136Y2777421D01*
X59243509Y2777421D01*
X59244397Y2764914D01*
X59243509Y2752407D01*
X59245768Y2745629D01*
X59246275Y2738501D01*
X59251881Y2727289D01*
X59255847Y2715391D01*
X59260530Y2709992D01*
X59263725Y2703602D01*
X59273196Y2695387D01*
X59281412Y2685915D01*
X59287801Y2682721D01*
X59293201Y2678037D01*
X59311101Y2670046D01*
X60330216Y2332366D01*
X60369136Y2335132D01*
X60404035Y2352582D01*
X60429600Y2382058D01*
X60441939Y2419074D01*
X60439172Y2457994D01*
X60421723Y2492893D01*
X60392247Y2518458D01*
X60374346Y2526449D01*
X59655969Y2764481D01*
X60392247Y3011370D01*
X60421723Y3036935D01*
X60439172Y3071834D01*
X60441939Y3110754D01*
X60429600Y3147770D01*
X60404035Y3177246D01*
X60369136Y3194696D01*
X60330216Y3197462D01*
X60311101Y3193115D01*
X59323208Y2861854D01*
X59316311Y2861363D01*
X59305243Y2855830D01*
X59293201Y2851791D01*
X59287801Y2847108D01*
X59281412Y2843913D01*
X59273196Y2834442D01*
X59263725Y2826226D01*
X59260530Y2819837D01*
X59255847Y2814437D01*
X59251881Y2802540D01*
X59246275Y2791327D01*
X59245768Y2784200D01*
X59243509Y2777421D01*
X58802136Y2777421D01*
X58814542Y2803210D01*
X58815927Y2804594D01*
X58820379Y2815344D01*
X58829229Y2833738D01*
X58829483Y2837322D01*
X58830859Y2840642D01*
X58832780Y2860151D01*
X58831117Y3083107D01*
X58831995Y3085739D01*
X58830992Y3099845D01*
X58830859Y3117755D01*
X58829483Y3121076D01*
X58829229Y3124659D01*
X58822223Y3142968D01*
X58772880Y3238002D01*
X58768308Y3249042D01*
X58765152Y3252888D01*
X58764161Y3254796D01*
X58762163Y3256529D01*
X58755871Y3264195D01*
X58705770Y3312127D01*
X58698853Y3320103D01*
X58694703Y3322716D01*
X58693099Y3324250D01*
X58690659Y3325261D01*
X58682263Y3330546D01*
X58599245Y3370485D01*
X58597861Y3371869D01*
X58587111Y3376322D01*
X58568717Y3385171D01*
X58565133Y3385426D01*
X58561813Y3386801D01*
X58542304Y3388722D01*
X58446160Y3387113D01*
X58434558Y3387937D01*
X58429722Y3386838D01*
X58427557Y3386801D01*
X58425115Y3385790D01*
X58415443Y3383590D01*
X58287069Y3339182D01*
X58284700Y3339182D01*
X58272703Y3334213D01*
X58254686Y3327980D01*
X58251970Y3325625D01*
X58248652Y3324250D01*
X58233498Y3311814D01*
X57832061Y2908510D01*
X57830859Y3308231D01*
X57815927Y3344279D01*
X57788337Y3371869D01*
X57752289Y3386801D01*
X57713271Y3386801D01*
X57677223Y3371869D01*
X57649633Y3344279D01*
X57634701Y3308231D01*
X57632780Y3288722D01*
X57188336Y3288722D01*
X57188336Y4165374D01*
X57634701Y4165374D01*
X57634701Y4126356D01*
X57649633Y4090308D01*
X57677223Y4062718D01*
X57713271Y4047786D01*
X57732780Y4045865D01*
X57966842Y4046521D01*
X57967968Y3672219D01*
X57966899Y3657168D01*
X57968024Y3653793D01*
X57968035Y3650166D01*
X57974167Y3635362D01*
X57979237Y3620152D01*
X57981592Y3617437D01*
X57982967Y3614118D01*
X57994297Y3602788D01*
X58004802Y3590676D01*
X58008016Y3589069D01*
X58010557Y3586528D01*
X58025365Y3580394D01*
X58039701Y3573226D01*
X58043284Y3572972D01*
X58046605Y3571596D01*
X58062637Y3571596D01*
X58078621Y3570460D01*
X58083617Y3571596D01*
X58085623Y3571596D01*
X58088065Y3572608D01*
X58097737Y3574807D01*
X58829923Y3820893D01*
X58859399Y3846458D01*
X58876848Y3881357D01*
X58879615Y3920277D01*
X58867910Y3955390D01*
X59242724Y3955390D01*
X59244645Y3316834D01*
X59259577Y3280786D01*
X59287167Y3253196D01*
X59323215Y3238264D01*
X59362233Y3238264D01*
X59398281Y3253196D01*
X59413435Y3265632D01*
X59964680Y3819443D01*
X60069186Y3855594D01*
X60127034Y3856563D01*
X60186082Y3828156D01*
X60211859Y3803494D01*
X60242881Y3743746D01*
X60244305Y3552883D01*
X60215488Y3492983D01*
X60164339Y3439519D01*
X60149407Y3403471D01*
X60149407Y3364453D01*
X60164339Y3328405D01*
X60191929Y3300815D01*
X60227977Y3285883D01*
X60266995Y3285883D01*
X60303043Y3300815D01*
X60318197Y3313251D01*
X60366130Y3363354D01*
X60374105Y3370269D01*
X60376716Y3374419D01*
X60378252Y3376023D01*
X60379262Y3378464D01*
X60384548Y3386860D01*
X60424486Y3469878D01*
X60425871Y3471262D01*
X60430323Y3482012D01*
X60439173Y3500406D01*
X60439427Y3503990D01*
X60440803Y3507310D01*
X60442724Y3526819D01*
X60441061Y3749775D01*
X60441939Y3752407D01*
X60440936Y3766513D01*
X60440803Y3784423D01*
X60439427Y3787744D01*
X60439173Y3791327D01*
X60432167Y3809636D01*
X60382824Y3904670D01*
X60378252Y3915710D01*
X60375096Y3919556D01*
X60374105Y3921464D01*
X60372107Y3923197D01*
X60365815Y3930863D01*
X60315714Y3978795D01*
X60308797Y3986771D01*
X60304647Y3989384D01*
X60303043Y3990918D01*
X60300603Y3991929D01*
X60292207Y3997214D01*
X60209189Y4037153D01*
X60207805Y4038537D01*
X60197055Y4042990D01*
X60178661Y4051839D01*
X60175077Y4052094D01*
X60171757Y4053469D01*
X60152248Y4055390D01*
X60056104Y4053781D01*
X60044502Y4054605D01*
X60039666Y4053506D01*
X60037501Y4053469D01*
X60035059Y4052458D01*
X60025387Y4050258D01*
X59897013Y4005850D01*
X59894644Y4005850D01*
X59882647Y4000881D01*
X59864630Y3994648D01*
X59861914Y3992293D01*
X59858596Y3990918D01*
X59843442Y3978482D01*
X59442005Y3575178D01*
X59440803Y3974899D01*
X59425871Y4010947D01*
X59398281Y4038537D01*
X59362233Y4053469D01*
X59323215Y4053469D01*
X59287167Y4038537D01*
X59259577Y4010947D01*
X59244645Y3974899D01*
X59242724Y3955390D01*
X58867910Y3955390D01*
X58867276Y3957293D01*
X58841711Y3986769D01*
X58806812Y4004219D01*
X58767892Y4006985D01*
X58748777Y4002638D01*
X58165701Y3806668D01*
X58164978Y4047075D01*
X58418956Y4047786D01*
X58455004Y4062718D01*
X58482594Y4090308D01*
X58497526Y4126356D01*
X58497526Y4165374D01*
X58482594Y4201422D01*
X58455004Y4229012D01*
X58418956Y4243944D01*
X58399447Y4245865D01*
X58164382Y4245207D01*
X58164193Y4308231D01*
X58149261Y4344279D01*
X58121671Y4371869D01*
X58085623Y4386801D01*
X58046605Y4386801D01*
X58010557Y4371869D01*
X57982967Y4344279D01*
X57968035Y4308231D01*
X57966114Y4288722D01*
X57966246Y4244653D01*
X57713271Y4243944D01*
X57677223Y4229012D01*
X57649633Y4201422D01*
X57634701Y4165374D01*
X57188336Y4165374D01*
X57188336Y4497912D01*
X60553835Y4497912D01*
X60553835Y-9683509D01*
G37*
G36*
X35615314Y8895738D02*
G01*
X35592861Y8849066D01*
X35549315Y8826457D01*
X35500851Y8825645D01*
X35455027Y8847690D01*
X35432622Y8890843D01*
X35431198Y9081707D01*
X35441631Y9103392D01*
X35613761Y9104001D01*
X35615314Y8895738D01*
G37*
G36*
X35899641Y10610340D02*
G01*
X35900952Y10467010D01*
X35872211Y10407267D01*
X35847553Y10381494D01*
X35787849Y10350495D01*
X35549429Y10348994D01*
X35489420Y10377863D01*
X35463644Y10402523D01*
X35432585Y10462342D01*
X35431274Y10605674D01*
X35441727Y10627401D01*
X35890243Y10628440D01*
X35899641Y10610340D01*
G37*
G36*
X36543891Y6610944D02*
G01*
X34788336Y6610944D01*
X34788336Y7250626D01*
X35232780Y7250626D01*
X35234389Y7154483D01*
X35233565Y7142880D01*
X35234664Y7138045D01*
X35234701Y7135879D01*
X35235712Y7133438D01*
X35237912Y7123765D01*
X35282321Y6995392D01*
X35282321Y6993022D01*
X35287293Y6981019D01*
X35293524Y6963007D01*
X35295878Y6960293D01*
X35297253Y6956974D01*
X35309689Y6941820D01*
X35406073Y6847809D01*
X35414326Y6838293D01*
X35418564Y6835626D01*
X35420081Y6834146D01*
X35422518Y6833137D01*
X35430917Y6827850D01*
X35521188Y6784422D01*
X35528162Y6779255D01*
X35542796Y6774027D01*
X35544463Y6773225D01*
X35545183Y6773174D01*
X35546622Y6772660D01*
X35731934Y6728081D01*
X35741843Y6723976D01*
X35753952Y6722784D01*
X35756491Y6722173D01*
X35757949Y6722391D01*
X35761352Y6722055D01*
X35898925Y6723683D01*
X35909070Y6722173D01*
X35921048Y6723945D01*
X35923718Y6723976D01*
X35925081Y6724541D01*
X35928463Y6725041D01*
X36111542Y6772546D01*
X36121098Y6773225D01*
X36135710Y6778817D01*
X36137399Y6779255D01*
X36137979Y6779686D01*
X36139406Y6780231D01*
X36234435Y6829572D01*
X36245480Y6834146D01*
X36249326Y6837303D01*
X36251234Y6838293D01*
X36252963Y6840288D01*
X36260634Y6846582D01*
X36344462Y6932527D01*
X36346473Y6933532D01*
X36354738Y6943062D01*
X36368308Y6956974D01*
X36369682Y6960293D01*
X36372038Y6963008D01*
X36380029Y6980908D01*
X36425935Y7123993D01*
X36430859Y7135879D01*
X36431350Y7140872D01*
X36431995Y7142880D01*
X36431807Y7145515D01*
X36432780Y7155388D01*
X36431170Y7251532D01*
X36431995Y7263134D01*
X36430895Y7267970D01*
X36430859Y7270135D01*
X36429847Y7272577D01*
X36427648Y7282249D01*
X36383239Y7410627D01*
X36383239Y7412992D01*
X36378273Y7424982D01*
X36372038Y7443006D01*
X36369682Y7445722D01*
X36368308Y7449041D01*
X36355871Y7464194D01*
X36293099Y7524249D01*
X36257051Y7539181D01*
X36218033Y7539181D01*
X36181985Y7524249D01*
X36154395Y7496659D01*
X36139463Y7460611D01*
X36139463Y7421593D01*
X36154395Y7385545D01*
X36166831Y7370391D01*
X36197487Y7341062D01*
X36232983Y7238450D01*
X36234046Y7174963D01*
X36199801Y7068224D01*
X36134314Y7001084D01*
X36065707Y6965463D01*
X35898142Y6921984D01*
X35779334Y6920578D01*
X35612062Y6960818D01*
X35537392Y6996740D01*
X35468386Y7064048D01*
X35432576Y7167564D01*
X35431513Y7231051D01*
X35465901Y7338232D01*
X35511166Y7385544D01*
X35526097Y7421593D01*
X35526097Y7460611D01*
X35511166Y7496659D01*
X35483576Y7524249D01*
X35447528Y7539180D01*
X35408510Y7539180D01*
X35372461Y7524249D01*
X35357308Y7511812D01*
X35320224Y7473051D01*
X35319089Y7472483D01*
X35313342Y7465858D01*
X35297253Y7449040D01*
X35295878Y7445722D01*
X35293524Y7443007D01*
X35285532Y7425107D01*
X35239625Y7282023D01*
X35234701Y7270135D01*
X35234209Y7265143D01*
X35233565Y7263134D01*
X35233752Y7260500D01*
X35232780Y7250626D01*
X34788336Y7250626D01*
X34788336Y8317754D01*
X35234701Y8317754D01*
X35234701Y8278736D01*
X35249633Y8242688D01*
X35277223Y8215098D01*
X35313271Y8200166D01*
X35332780Y8198245D01*
X35830157Y8200004D01*
X35877199Y8177373D01*
X35899699Y8134037D01*
X35900833Y8038190D01*
X35872211Y7978695D01*
X35862734Y7968789D01*
X35313271Y7967753D01*
X35277223Y7952821D01*
X35249633Y7925231D01*
X35234701Y7889183D01*
X35234701Y7850165D01*
X35249633Y7814117D01*
X35277223Y7786527D01*
X35313271Y7771595D01*
X35332780Y7769674D01*
X36352289Y7771595D01*
X36388337Y7786527D01*
X36415927Y7814117D01*
X36430859Y7850165D01*
X36430859Y7889183D01*
X36415927Y7925231D01*
X36388337Y7952821D01*
X36352289Y7967753D01*
X36332780Y7969674D01*
X36087762Y7969213D01*
X36095896Y7986118D01*
X36096150Y7989702D01*
X36097526Y7993022D01*
X36099447Y8012531D01*
X36097930Y8140688D01*
X36098662Y8142881D01*
X36097753Y8155664D01*
X36097526Y8174897D01*
X36096150Y8178218D01*
X36095896Y8181801D01*
X36088890Y8200110D01*
X36041850Y8290708D01*
X36038704Y8300149D01*
X36034331Y8305192D01*
X36030828Y8311938D01*
X36021352Y8320156D01*
X36013139Y8329626D01*
X36003267Y8335840D01*
X36001351Y8337502D01*
X35999812Y8338016D01*
X35996549Y8340069D01*
X35913531Y8380008D01*
X35912147Y8381392D01*
X35901397Y8385845D01*
X35883003Y8394694D01*
X35879419Y8394949D01*
X35876099Y8396324D01*
X35856590Y8398245D01*
X35313271Y8396324D01*
X35277223Y8381392D01*
X35249633Y8353802D01*
X35234701Y8317754D01*
X34788336Y8317754D01*
X34788336Y9107769D01*
X35232780Y9107769D01*
X35234442Y8884814D01*
X35233565Y8882180D01*
X35234567Y8868075D01*
X35234701Y8850165D01*
X35236076Y8846846D01*
X35236331Y8843260D01*
X35243338Y8824952D01*
X35290375Y8734358D01*
X35293524Y8724913D01*
X35297898Y8719870D01*
X35301401Y8713123D01*
X35310873Y8704909D01*
X35319088Y8695436D01*
X35328960Y8689222D01*
X35330878Y8687559D01*
X35332417Y8687046D01*
X35335679Y8684993D01*
X35418696Y8645055D01*
X35420081Y8643670D01*
X35430830Y8639218D01*
X35449225Y8630368D01*
X35452808Y8630114D01*
X35456129Y8628738D01*
X35475638Y8626817D01*
X35556655Y8628174D01*
X35558369Y8627602D01*
X35569413Y8628387D01*
X35590385Y8628738D01*
X35593705Y8630114D01*
X35597289Y8630368D01*
X35615597Y8637374D01*
X35706191Y8684412D01*
X35715637Y8687560D01*
X35720681Y8691935D01*
X35727425Y8695436D01*
X35735638Y8704907D01*
X35745114Y8713124D01*
X35751328Y8722998D01*
X35752990Y8724913D01*
X35753502Y8726452D01*
X35755557Y8729715D01*
X35795495Y8812733D01*
X35796880Y8814117D01*
X35801332Y8824867D01*
X35810182Y8843261D01*
X35810436Y8846845D01*
X35811812Y8850165D01*
X35813733Y8869674D01*
X35812151Y9081706D01*
X35823233Y9104742D01*
X35830157Y9104766D01*
X35877199Y9082135D01*
X35899641Y9038911D01*
X35900952Y8895581D01*
X35855379Y8800849D01*
X35852613Y8761929D01*
X35864952Y8724913D01*
X35890516Y8695436D01*
X35925415Y8677987D01*
X35964335Y8675221D01*
X36001351Y8687560D01*
X36030828Y8713124D01*
X36041271Y8729715D01*
X36081209Y8812733D01*
X36082594Y8814117D01*
X36087046Y8824867D01*
X36095896Y8843261D01*
X36096150Y8846845D01*
X36097526Y8850165D01*
X36099447Y8869674D01*
X36097841Y9045182D01*
X36098662Y9047643D01*
X36097694Y9061259D01*
X36097526Y9079659D01*
X36096150Y9082980D01*
X36095896Y9086563D01*
X36088890Y9104872D01*
X36041850Y9195470D01*
X36038704Y9204911D01*
X36034331Y9209954D01*
X36030828Y9216700D01*
X36021352Y9224918D01*
X36013139Y9234388D01*
X36003267Y9240602D01*
X36001351Y9242264D01*
X35999812Y9242778D01*
X35996549Y9244831D01*
X35913531Y9284770D01*
X35912147Y9286154D01*
X35901397Y9290607D01*
X35883003Y9299456D01*
X35879419Y9299711D01*
X35876099Y9301086D01*
X35856590Y9303007D01*
X35380532Y9301324D01*
X35367894Y9302222D01*
X35365034Y9301270D01*
X35313271Y9301086D01*
X35277223Y9286154D01*
X35249633Y9258564D01*
X35234701Y9222516D01*
X35234701Y9183498D01*
X35246344Y9155388D01*
X35245181Y9152580D01*
X35236331Y9134183D01*
X35236076Y9130598D01*
X35234701Y9127278D01*
X35232780Y9107769D01*
X34788336Y9107769D01*
X34788336Y9698707D01*
X35234701Y9698707D01*
X35234701Y9659689D01*
X35249633Y9623641D01*
X35277223Y9596051D01*
X35313271Y9581119D01*
X35332780Y9579198D01*
X35794937Y9580492D01*
X35796464Y9579983D01*
X35803980Y9580518D01*
X36018956Y9581119D01*
X36055004Y9596051D01*
X36082594Y9623641D01*
X36097526Y9659689D01*
X36097526Y9698707D01*
X36082594Y9734755D01*
X36056330Y9761019D01*
X36081209Y9812733D01*
X36082594Y9814117D01*
X36087046Y9824867D01*
X36095896Y9843261D01*
X36096150Y9846845D01*
X36097526Y9850165D01*
X36099447Y9869674D01*
X36097526Y9984421D01*
X36082594Y10020469D01*
X36055004Y10048059D01*
X36018956Y10062991D01*
X35979938Y10062991D01*
X35943890Y10048059D01*
X35916300Y10020469D01*
X35901368Y9984421D01*
X35899447Y9964912D01*
X35900619Y9894888D01*
X35872211Y9835838D01*
X35847553Y9810065D01*
X35786959Y9778604D01*
X35313271Y9777277D01*
X35277223Y9762345D01*
X35249633Y9734755D01*
X35234701Y9698707D01*
X34788336Y9698707D01*
X34788336Y10536341D01*
X34899447Y10536341D01*
X34900963Y10408185D01*
X34900232Y10405991D01*
X34901140Y10393209D01*
X34901368Y10373975D01*
X34902743Y10370655D01*
X34902998Y10367071D01*
X34910004Y10348763D01*
X34968066Y10236935D01*
X34997543Y10211370D01*
X35034559Y10199032D01*
X35073479Y10201797D01*
X35108377Y10219246D01*
X35133942Y10248723D01*
X35146281Y10285739D01*
X35143515Y10324659D01*
X35136509Y10342968D01*
X35099194Y10414837D01*
X35098060Y10510683D01*
X35126681Y10570176D01*
X35151343Y10595953D01*
X35210881Y10626866D01*
X35232822Y10626917D01*
X35234385Y10456071D01*
X35233565Y10453609D01*
X35234532Y10439993D01*
X35234701Y10421594D01*
X35236076Y10418275D01*
X35236331Y10414689D01*
X35243338Y10396381D01*
X35292678Y10301352D01*
X35297253Y10290308D01*
X35300409Y10286462D01*
X35301401Y10284552D01*
X35303397Y10282821D01*
X35309689Y10275154D01*
X35359791Y10227221D01*
X35366707Y10219246D01*
X35370856Y10216635D01*
X35372461Y10215099D01*
X35374901Y10214089D01*
X35383298Y10208803D01*
X35466315Y10168865D01*
X35467700Y10167480D01*
X35478449Y10163028D01*
X35496844Y10154178D01*
X35500427Y10153924D01*
X35503748Y10152548D01*
X35523257Y10150627D01*
X35793712Y10152330D01*
X35796464Y10151412D01*
X35810890Y10152438D01*
X35828480Y10152548D01*
X35831800Y10153924D01*
X35835384Y10154178D01*
X35853692Y10161184D01*
X35948721Y10210525D01*
X35959766Y10215099D01*
X35963612Y10218256D01*
X35965520Y10219246D01*
X35967249Y10221241D01*
X35974920Y10227535D01*
X36022853Y10277638D01*
X36030828Y10284553D01*
X36033439Y10288703D01*
X36034975Y10290307D01*
X36035985Y10292748D01*
X36041271Y10301144D01*
X36081209Y10384162D01*
X36082594Y10385546D01*
X36087046Y10396296D01*
X36095896Y10414690D01*
X36096150Y10418274D01*
X36097526Y10421594D01*
X36099447Y10441103D01*
X36097841Y10616611D01*
X36098662Y10619072D01*
X36097694Y10632688D01*
X36097526Y10651088D01*
X36096150Y10654409D01*
X36095896Y10657992D01*
X36088890Y10676301D01*
X36086549Y10680809D01*
X36097526Y10707308D01*
X36097526Y10746326D01*
X36082594Y10782374D01*
X36055004Y10809964D01*
X36018956Y10824896D01*
X35999447Y10826817D01*
X35377138Y10825376D01*
X35367894Y10826032D01*
X35365844Y10825349D01*
X35205593Y10824978D01*
X35202430Y10826032D01*
X35186985Y10824935D01*
X35170414Y10824896D01*
X35167093Y10823521D01*
X35163510Y10823266D01*
X35145201Y10816260D01*
X35050167Y10766918D01*
X35039127Y10762345D01*
X35035281Y10759190D01*
X35033373Y10758198D01*
X35031640Y10756201D01*
X35023974Y10749908D01*
X34976042Y10699808D01*
X34968066Y10692890D01*
X34965453Y10688741D01*
X34963919Y10687136D01*
X34962908Y10684697D01*
X34957623Y10676300D01*
X34917684Y10593283D01*
X34916300Y10591898D01*
X34911847Y10581149D01*
X34902998Y10562754D01*
X34902743Y10559171D01*
X34901368Y10555850D01*
X34899447Y10536341D01*
X34788336Y10536341D01*
X34788336Y10937928D01*
X36543891Y10937928D01*
X36543891Y6610944D01*
G37*
D11*
G36*
X45759274Y9185387D02*
G01*
X43988847Y9185387D01*
X43988847Y10099864D01*
X44155514Y10099864D01*
X44155514Y10041336D01*
X44177912Y9987264D01*
X44219296Y9945880D01*
X44273368Y9923482D01*
X44302632Y9920600D01*
X44725831Y9921641D01*
X44726942Y9469908D01*
X44749340Y9415836D01*
X44790724Y9374452D01*
X44844796Y9352054D01*
X44903324Y9352054D01*
X44957396Y9374452D01*
X44998780Y9415836D01*
X45021178Y9469908D01*
X45024060Y9499172D01*
X45023019Y9922372D01*
X45474753Y9923482D01*
X45528825Y9945880D01*
X45570209Y9987264D01*
X45592607Y10041336D01*
X45592607Y10099864D01*
X45570209Y10153936D01*
X45528825Y10195320D01*
X45474753Y10217718D01*
X45445489Y10220600D01*
X45022288Y10219560D01*
X45021178Y10671293D01*
X44998780Y10725365D01*
X44957396Y10766749D01*
X44903324Y10789147D01*
X44844796Y10789147D01*
X44790724Y10766749D01*
X44749340Y10725365D01*
X44726942Y10671293D01*
X44724060Y10642029D01*
X44725100Y10218829D01*
X44273368Y10217718D01*
X44219296Y10195320D01*
X44177912Y10153936D01*
X44155514Y10099864D01*
X43988847Y10099864D01*
X43988847Y10955814D01*
X45759274Y10955814D01*
X45759274Y9185387D01*
G37*
D10*
X52485161Y9093483D02*
X52532780Y8998245D01*
X52532780Y8998245D02*
X52532780Y8855388D01*
X52532780Y8855388D02*
X52485161Y8712531D01*
X52485161Y8712531D02*
X52389923Y8617293D01*
X52389923Y8617293D02*
X52294685Y8569674D01*
X52294685Y8569674D02*
X52104209Y8522055D01*
X52104209Y8522055D02*
X51961352Y8522055D01*
X51961352Y8522055D02*
X51770876Y8569674D01*
X51770876Y8569674D02*
X51675638Y8617293D01*
X51675638Y8617293D02*
X51580400Y8712531D01*
X51580400Y8712531D02*
X51532780Y8855388D01*
X51532780Y8855388D02*
X51532780Y8950626D01*
X51532780Y8950626D02*
X51580400Y9093483D01*
X51580400Y9093483D02*
X51628019Y9141102D01*
X51628019Y9141102D02*
X51961352Y9141102D01*
X51961352Y9141102D02*
X51961352Y8950626D01*
X51532780Y9569674D02*
X52532780Y9569674D01*
X52532780Y9569674D02*
X51532780Y10141102D01*
X51532780Y10141102D02*
X52532780Y10141102D01*
X51532780Y10617293D02*
X52532780Y10617293D01*
X52532780Y10617293D02*
X52532780Y10855388D01*
X52532780Y10855388D02*
X52485161Y10998245D01*
X52485161Y10998245D02*
X52389923Y11093483D01*
X52389923Y11093483D02*
X52294685Y11141102D01*
X52294685Y11141102D02*
X52104209Y11188721D01*
X52104209Y11188721D02*
X51961352Y11188721D01*
X51961352Y11188721D02*
X51770876Y11141102D01*
X51770876Y11141102D02*
X51675638Y11093483D01*
X51675638Y11093483D02*
X51580400Y10998245D01*
X51580400Y10998245D02*
X51532780Y10855388D01*
X51532780Y10855388D02*
X51532780Y10617293D01*
M02*
