G04 #@! TF.GenerationSoftware,KiCad,Pcbnew,8.0.3*
G04 #@! TF.CreationDate,2024-07-03T22:21:13+02:00*
G04 #@! TF.ProjectId,ESP32-C3-V2,45535033-322d-4433-932d-56322e6b6963,rev?*
G04 #@! TF.SameCoordinates,Original*
G04 #@! TF.FileFunction,Copper,L1,Top*
G04 #@! TF.FilePolarity,Positive*
%FSLAX46Y46*%
G04 Gerber Fmt 4.6, Leading zero omitted, Abs format (unit mm)*
G04 Created by KiCad (PCBNEW 8.0.3) date 2024-07-03 22:21:13*
%MOMM*%
%LPD*%
G01*
G04 APERTURE LIST*
G04 Aperture macros list*
%AMRoundRect*
0 Rectangle with rounded corners*
0 $1 Rounding radius*
0 $2 $3 $4 $5 $6 $7 $8 $9 X,Y pos of 4 corners*
0 Add a 4 corners polygon primitive as box body*
4,1,4,$2,$3,$4,$5,$6,$7,$8,$9,$2,$3,0*
0 Add four circle primitives for the rounded corners*
1,1,$1+$1,$2,$3*
1,1,$1+$1,$4,$5*
1,1,$1+$1,$6,$7*
1,1,$1+$1,$8,$9*
0 Add four rect primitives between the rounded corners*
20,1,$1+$1,$2,$3,$4,$5,0*
20,1,$1+$1,$4,$5,$6,$7,0*
20,1,$1+$1,$6,$7,$8,$9,0*
20,1,$1+$1,$8,$9,$2,$3,0*%
G04 Aperture macros list end*
G04 #@! TA.AperFunction,EtchedComponent*
%ADD10C,0.000000*%
G04 #@! TD*
G04 #@! TA.AperFunction,SMDPad,CuDef*
%ADD11RoundRect,0.140000X-0.170000X0.140000X-0.170000X-0.140000X0.170000X-0.140000X0.170000X0.140000X0*%
G04 #@! TD*
G04 #@! TA.AperFunction,SMDPad,CuDef*
%ADD12RoundRect,0.135000X-0.185000X0.135000X-0.185000X-0.135000X0.185000X-0.135000X0.185000X0.135000X0*%
G04 #@! TD*
G04 #@! TA.AperFunction,SMDPad,CuDef*
%ADD13RoundRect,0.135000X-0.135000X-0.185000X0.135000X-0.185000X0.135000X0.185000X-0.135000X0.185000X0*%
G04 #@! TD*
G04 #@! TA.AperFunction,SMDPad,CuDef*
%ADD14RoundRect,0.150000X0.150000X0.700000X-0.150000X0.700000X-0.150000X-0.700000X0.150000X-0.700000X0*%
G04 #@! TD*
G04 #@! TA.AperFunction,SMDPad,CuDef*
%ADD15RoundRect,0.250000X0.250000X1.100000X-0.250000X1.100000X-0.250000X-1.100000X0.250000X-1.100000X0*%
G04 #@! TD*
G04 #@! TA.AperFunction,SMDPad,CuDef*
%ADD16RoundRect,0.140000X-0.140000X-0.170000X0.140000X-0.170000X0.140000X0.170000X-0.140000X0.170000X0*%
G04 #@! TD*
G04 #@! TA.AperFunction,SMDPad,CuDef*
%ADD17RoundRect,0.140000X0.170000X-0.140000X0.170000X0.140000X-0.170000X0.140000X-0.170000X-0.140000X0*%
G04 #@! TD*
G04 #@! TA.AperFunction,SMDPad,CuDef*
%ADD18RoundRect,0.135000X0.135000X0.185000X-0.135000X0.185000X-0.135000X-0.185000X0.135000X-0.185000X0*%
G04 #@! TD*
G04 #@! TA.AperFunction,SMDPad,CuDef*
%ADD19R,0.700000X0.600000*%
G04 #@! TD*
G04 #@! TA.AperFunction,SMDPad,CuDef*
%ADD20RoundRect,0.218750X0.256250X-0.218750X0.256250X0.218750X-0.256250X0.218750X-0.256250X-0.218750X0*%
G04 #@! TD*
G04 #@! TA.AperFunction,SMDPad,CuDef*
%ADD21R,1.140000X0.600000*%
G04 #@! TD*
G04 #@! TA.AperFunction,SMDPad,CuDef*
%ADD22R,1.140000X0.300000*%
G04 #@! TD*
G04 #@! TA.AperFunction,ComponentPad*
%ADD23O,2.100000X1.000000*%
G04 #@! TD*
G04 #@! TA.AperFunction,ComponentPad*
%ADD24O,1.800000X1.000000*%
G04 #@! TD*
G04 #@! TA.AperFunction,ComponentPad*
%ADD25RoundRect,0.250000X0.350000X0.625000X-0.350000X0.625000X-0.350000X-0.625000X0.350000X-0.625000X0*%
G04 #@! TD*
G04 #@! TA.AperFunction,ComponentPad*
%ADD26O,1.200000X1.750000*%
G04 #@! TD*
G04 #@! TA.AperFunction,SMDPad,CuDef*
%ADD27RoundRect,0.140000X0.140000X0.170000X-0.140000X0.170000X-0.140000X-0.170000X0.140000X-0.170000X0*%
G04 #@! TD*
G04 #@! TA.AperFunction,SMDPad,CuDef*
%ADD28RoundRect,0.250000X0.250000X0.250000X-0.250000X0.250000X-0.250000X-0.250000X0.250000X-0.250000X0*%
G04 #@! TD*
G04 #@! TA.AperFunction,SMDPad,CuDef*
%ADD29RoundRect,0.135000X0.185000X-0.135000X0.185000X0.135000X-0.185000X0.135000X-0.185000X-0.135000X0*%
G04 #@! TD*
G04 #@! TA.AperFunction,SMDPad,CuDef*
%ADD30RoundRect,0.218750X0.218750X0.256250X-0.218750X0.256250X-0.218750X-0.256250X0.218750X-0.256250X0*%
G04 #@! TD*
G04 #@! TA.AperFunction,SMDPad,CuDef*
%ADD31RoundRect,0.100000X-0.100000X0.125000X-0.100000X-0.125000X0.100000X-0.125000X0.100000X0.125000X0*%
G04 #@! TD*
G04 #@! TA.AperFunction,SMDPad,CuDef*
%ADD32R,1.500000X1.500000*%
G04 #@! TD*
G04 #@! TA.AperFunction,SMDPad,CuDef*
%ADD33R,1.400000X1.600000*%
G04 #@! TD*
G04 #@! TA.AperFunction,ConnectorPad*
%ADD34R,0.500000X0.500000*%
G04 #@! TD*
G04 #@! TA.AperFunction,ComponentPad*
%ADD35R,0.500000X0.900000*%
G04 #@! TD*
G04 #@! TA.AperFunction,SMDPad,CuDef*
%ADD36RoundRect,0.150000X-0.150000X0.512500X-0.150000X-0.512500X0.150000X-0.512500X0.150000X0.512500X0*%
G04 #@! TD*
G04 #@! TA.AperFunction,SMDPad,CuDef*
%ADD37RoundRect,0.062500X0.337500X0.062500X-0.337500X0.062500X-0.337500X-0.062500X0.337500X-0.062500X0*%
G04 #@! TD*
G04 #@! TA.AperFunction,SMDPad,CuDef*
%ADD38RoundRect,0.062500X0.062500X0.337500X-0.062500X0.337500X-0.062500X-0.337500X0.062500X-0.337500X0*%
G04 #@! TD*
G04 #@! TA.AperFunction,SMDPad,CuDef*
%ADD39R,3.700000X3.700000*%
G04 #@! TD*
G04 #@! TA.AperFunction,SMDPad,CuDef*
%ADD40RoundRect,0.150000X-0.512500X-0.150000X0.512500X-0.150000X0.512500X0.150000X-0.512500X0.150000X0*%
G04 #@! TD*
G04 #@! TA.AperFunction,SMDPad,CuDef*
%ADD41R,1.400000X1.200000*%
G04 #@! TD*
G04 #@! TA.AperFunction,SMDPad,CuDef*
%ADD42RoundRect,0.150000X0.150000X-0.675000X0.150000X0.675000X-0.150000X0.675000X-0.150000X-0.675000X0*%
G04 #@! TD*
G04 #@! TA.AperFunction,SMDPad,CuDef*
%ADD43RoundRect,0.150000X0.512500X0.150000X-0.512500X0.150000X-0.512500X-0.150000X0.512500X-0.150000X0*%
G04 #@! TD*
G04 #@! TA.AperFunction,ViaPad*
%ADD44C,0.300000*%
G04 #@! TD*
G04 #@! TA.AperFunction,Conductor*
%ADD45C,0.250000*%
G04 #@! TD*
G04 #@! TA.AperFunction,Conductor*
%ADD46C,0.200000*%
G04 #@! TD*
G04 #@! TA.AperFunction,Conductor*
%ADD47C,0.350000*%
G04 #@! TD*
G04 #@! TA.AperFunction,Conductor*
%ADD48C,0.342400*%
G04 #@! TD*
G04 #@! TA.AperFunction,Conductor*
%ADD49C,0.550000*%
G04 #@! TD*
G04 #@! TA.AperFunction,Conductor*
%ADD50C,0.267200*%
G04 #@! TD*
G04 APERTURE END LIST*
D10*
G04 #@! TA.AperFunction,EtchedComponent*
G04 #@! TO.C,AE1*
G36*
X60325000Y1950000D02*
G01*
X57685000Y1950000D01*
X57685000Y-50000D01*
X60325000Y-50000D01*
X60325000Y-2750000D01*
X57685000Y-2750000D01*
X57685000Y-4750000D01*
X60325000Y-4750000D01*
X60325000Y-9750000D01*
X55168215Y-9750000D01*
X54925000Y-9750000D01*
X54925000Y-9325156D01*
X55028957Y-9325156D01*
X55041065Y-9367819D01*
X55045419Y-9375731D01*
X55078203Y-9413674D01*
X55120605Y-9437742D01*
X55168215Y-9447583D01*
X55216622Y-9442847D01*
X55261416Y-9423185D01*
X55298186Y-9388245D01*
X55315092Y-9355353D01*
X55322982Y-9307267D01*
X55316408Y-9257682D01*
X55296313Y-9212372D01*
X55263643Y-9177112D01*
X55231417Y-9160218D01*
X55183158Y-9151778D01*
X55133632Y-9158309D01*
X55088447Y-9178868D01*
X55053213Y-9212511D01*
X55042600Y-9231122D01*
X55029700Y-9276637D01*
X55028957Y-9325156D01*
X54925000Y-9325156D01*
X54925000Y-8850000D01*
X59825000Y-8850000D01*
X59825000Y-7450000D01*
X54925000Y-7450000D01*
X54925000Y-6950000D01*
X59825000Y-6950000D01*
X59825000Y-5250000D01*
X57185000Y-5250000D01*
X57185000Y-2250000D01*
X59825000Y-2250000D01*
X59825000Y-550000D01*
X57185000Y-550000D01*
X57185000Y2450000D01*
X59825000Y2450000D01*
X59825000Y4150000D01*
X55885000Y4150000D01*
X55885000Y4650000D01*
X60325000Y4650000D01*
X60325000Y1950000D01*
G37*
G04 #@! TD.AperFunction*
G04 #@! TD*
D11*
G04 #@! TO.P,C3,1*
G04 #@! TO.N,Net-(AE1-A)*
X54200000Y-7220000D03*
G04 #@! TO.P,C3,2*
G04 #@! TO.N,GND*
X54200000Y-8180000D03*
G04 #@! TD*
D12*
G04 #@! TO.P,R3,1*
G04 #@! TO.N,Net-(U1-CC2)*
X40400000Y-10890000D03*
G04 #@! TO.P,R3,2*
G04 #@! TO.N,GND*
X40400000Y-11910000D03*
G04 #@! TD*
D11*
G04 #@! TO.P,C5,1*
G04 #@! TO.N,GND*
X48400000Y-920000D03*
G04 #@! TO.P,C5,2*
G04 #@! TO.N,+3.3V*
X48400000Y-1880000D03*
G04 #@! TD*
D13*
G04 #@! TO.P,R14,1*
G04 #@! TO.N,Net-(R13-Pad2)*
X37590000Y-1820000D03*
G04 #@! TO.P,R14,2*
G04 #@! TO.N,GND*
X38610000Y-1820000D03*
G04 #@! TD*
D12*
G04 #@! TO.P,R9,1*
G04 #@! TO.N,+3.3V*
X59400000Y9110000D03*
G04 #@! TO.P,R9,2*
G04 #@! TO.N,MCU_SDA*
X59400000Y8090000D03*
G04 #@! TD*
G04 #@! TO.P,R5,1*
G04 #@! TO.N,Net-(R13-Pad2)*
X42000000Y-2690000D03*
G04 #@! TO.P,R5,2*
G04 #@! TO.N,ADC*
X42000000Y-3710000D03*
G04 #@! TD*
D14*
G04 #@! TO.P,J3,1,Pin_1*
G04 #@! TO.N,VCC_Sensor*
X55900000Y6800000D03*
G04 #@! TO.P,J3,2,Pin_2*
G04 #@! TO.N,MCU_SDA*
X54650000Y6800000D03*
G04 #@! TO.P,J3,3,Pin_3*
G04 #@! TO.N,MCU_SCL*
X53400000Y6800000D03*
G04 #@! TO.P,J3,4,Pin_4*
G04 #@! TO.N,GND*
X52150000Y6800000D03*
D15*
G04 #@! TO.P,J3,MP,MP*
X57750000Y10000000D03*
X50300000Y10000000D03*
G04 #@! TD*
D16*
G04 #@! TO.P,C1,1*
G04 #@! TO.N,+3.3V*
X50820000Y-9200000D03*
G04 #@! TO.P,C1,2*
G04 #@! TO.N,GND*
X51780000Y-9200000D03*
G04 #@! TD*
D17*
G04 #@! TO.P,C12,1*
G04 #@! TO.N,EN_ADC*
X37600000Y-800000D03*
G04 #@! TO.P,C12,2*
G04 #@! TO.N,Net-(Q1-G)*
X37600000Y160000D03*
G04 #@! TD*
D11*
G04 #@! TO.P,C16,1*
G04 #@! TO.N,Net-(U3-XTAL_P)*
X50900000Y-10190000D03*
G04 #@! TO.P,C16,2*
G04 #@! TO.N,GND*
X50900000Y-11150000D03*
G04 #@! TD*
D18*
G04 #@! TO.P,R12,1*
G04 #@! TO.N,Rot*
X44010000Y-5490000D03*
G04 #@! TO.P,R12,2*
G04 #@! TO.N,Net-(D1-RK)*
X42990000Y-5490000D03*
G04 #@! TD*
D17*
G04 #@! TO.P,C11,1*
G04 #@! TO.N,+3.3V*
X44000000Y-3680000D03*
G04 #@! TO.P,C11,2*
G04 #@! TO.N,GND*
X44000000Y-2720000D03*
G04 #@! TD*
G04 #@! TO.P,C13,1*
G04 #@! TO.N,ADC*
X43000000Y-3680000D03*
G04 #@! TO.P,C13,2*
G04 #@! TO.N,GND*
X43000000Y-2720000D03*
G04 #@! TD*
D19*
G04 #@! TO.P,D1,1,RK*
G04 #@! TO.N,Net-(D1-RK)*
X41900000Y-5790000D03*
G04 #@! TO.P,D1,2,A*
G04 #@! TO.N,+3.3V*
X40900000Y-5790000D03*
G04 #@! TO.P,D1,3,BK*
G04 #@! TO.N,Net-(D1-BK)*
X40900000Y-7190000D03*
G04 #@! TO.P,D1,4,GK*
G04 #@! TO.N,Net-(D1-GK)*
X41900000Y-7190000D03*
G04 #@! TD*
D20*
G04 #@! TO.P,D2,1,K*
G04 #@! TO.N,Net-(D2-K)*
X34600000Y9112500D03*
G04 #@! TO.P,D2,2,A*
G04 #@! TO.N,Net-(D2-A)*
X34600000Y10687500D03*
G04 #@! TD*
D11*
G04 #@! TO.P,C6,1*
G04 #@! TO.N,Net-(U3-LNA_IN)*
X51300000Y-7270000D03*
G04 #@! TO.P,C6,2*
G04 #@! TO.N,GND*
X51300000Y-8230000D03*
G04 #@! TD*
D21*
G04 #@! TO.P,U1,A1,GND*
G04 #@! TO.N,GND*
X39070000Y-4210000D03*
G04 #@! TO.P,U1,A4,VBUS*
G04 #@! TO.N,VCC*
X39070000Y-5010000D03*
D22*
G04 #@! TO.P,U1,A5,CC1*
G04 #@! TO.N,Net-(U1-CC1)*
X39070000Y-6160000D03*
G04 #@! TO.P,U1,A6,D+*
G04 #@! TO.N,USB_D+*
X39070000Y-7160000D03*
G04 #@! TO.P,U1,A7,D-*
G04 #@! TO.N,USB_D-*
X39070000Y-7660000D03*
G04 #@! TO.P,U1,A8,SBU1*
G04 #@! TO.N,unconnected-(U1-SBU1-PadA8)*
X39070000Y-8660000D03*
D21*
G04 #@! TO.P,U1,A9,VBUS*
G04 #@! TO.N,VCC*
X39070000Y-9810000D03*
G04 #@! TO.P,U1,A12,GND*
G04 #@! TO.N,GND*
X39070000Y-10610000D03*
G04 #@! TO.P,U1,B1,GND*
X39070000Y-10610000D03*
G04 #@! TO.P,U1,B4,VBUS*
G04 #@! TO.N,VCC*
X39070000Y-9810000D03*
D22*
G04 #@! TO.P,U1,B5,CC2*
G04 #@! TO.N,Net-(U1-CC2)*
X39070000Y-9160000D03*
G04 #@! TO.P,U1,B6,D+*
G04 #@! TO.N,USB_D+*
X39070000Y-8160000D03*
G04 #@! TO.P,U1,B7,D-*
G04 #@! TO.N,USB_D-*
X39070000Y-6660000D03*
G04 #@! TO.P,U1,B8,SBU2*
G04 #@! TO.N,unconnected-(U1-SBU2-PadB8)*
X39070000Y-5660000D03*
D21*
G04 #@! TO.P,U1,B9,VBUS*
G04 #@! TO.N,VCC*
X39070000Y-5010000D03*
G04 #@! TO.P,U1,B12,GND*
G04 #@! TO.N,GND*
X39070000Y-4210000D03*
D23*
G04 #@! TO.P,U1,S1,SHIELD*
X38500000Y-3090000D03*
D24*
X34320000Y-3090000D03*
D23*
X38500000Y-11730000D03*
D24*
X34320000Y-11730000D03*
G04 #@! TD*
D13*
G04 #@! TO.P,R4,1*
G04 #@! TO.N,+BATT*
X45490000Y4350000D03*
G04 #@! TO.P,R4,2*
G04 #@! TO.N,Net-(U5-Vin)*
X46510000Y4350000D03*
G04 #@! TD*
D25*
G04 #@! TO.P,J2,1,Pin_1*
G04 #@! TO.N,Earth*
X46900000Y8650000D03*
D26*
G04 #@! TO.P,J2,2,Pin_2*
G04 #@! TO.N,+BATT*
X44900000Y8650000D03*
G04 #@! TD*
D18*
G04 #@! TO.P,R8,1*
G04 #@! TO.N,Gr\u00FCn*
X44000000Y-7500000D03*
G04 #@! TO.P,R8,2*
G04 #@! TO.N,Net-(D1-GK)*
X42980000Y-7500000D03*
G04 #@! TD*
D12*
G04 #@! TO.P,R1,1*
G04 #@! TO.N,+3.3V*
X53000000Y-2790000D03*
G04 #@! TO.P,R1,2*
G04 #@! TO.N,EXTI*
X53000000Y-3810000D03*
G04 #@! TD*
D27*
G04 #@! TO.P,C15,1*
G04 #@! TO.N,+BATT*
X41980000Y10325000D03*
G04 #@! TO.P,C15,2*
G04 #@! TO.N,GND*
X41020000Y10325000D03*
G04 #@! TD*
G04 #@! TO.P,C8,1*
G04 #@! TO.N,VCC*
X43680000Y-1700000D03*
G04 #@! TO.P,C8,2*
G04 #@! TO.N,GND*
X42720000Y-1700000D03*
G04 #@! TD*
D18*
G04 #@! TO.P,R16,1*
G04 #@! TO.N,GND*
X41810000Y-1700000D03*
G04 #@! TO.P,R16,2*
G04 #@! TO.N,Net-(U4-PROG)*
X40790000Y-1700000D03*
G04 #@! TD*
D13*
G04 #@! TO.P,R13,1*
G04 #@! TO.N,Net-(Q1-D)*
X35590000Y-1820000D03*
G04 #@! TO.P,R13,2*
G04 #@! TO.N,Net-(R13-Pad2)*
X36610000Y-1820000D03*
G04 #@! TD*
D12*
G04 #@! TO.P,R19,1*
G04 #@! TO.N,+3.3V*
X52000000Y-2790000D03*
G04 #@! TO.P,R19,2*
G04 #@! TO.N,CHIP_EN*
X52000000Y-3810000D03*
G04 #@! TD*
D18*
G04 #@! TO.P,L1,1,1*
G04 #@! TO.N,Net-(AE1-A)*
X53310000Y-7250000D03*
G04 #@! TO.P,L1,2,2*
G04 #@! TO.N,Net-(U3-LNA_IN)*
X52290000Y-7250000D03*
G04 #@! TD*
D28*
G04 #@! TO.P,D4,1,K*
G04 #@! TO.N,OUT*
X37850000Y2000000D03*
G04 #@! TO.P,D4,2,A*
G04 #@! TO.N,VCC*
X35350000Y2000000D03*
G04 #@! TD*
D12*
G04 #@! TO.P,R15,1*
G04 #@! TO.N,+BATT*
X34700000Y190000D03*
G04 #@! TO.P,R15,2*
G04 #@! TO.N,Net-(Q1-G)*
X34700000Y-830000D03*
G04 #@! TD*
D29*
G04 #@! TO.P,R2,1*
G04 #@! TO.N,Net-(U1-CC1)*
X40400000Y-4510000D03*
G04 #@! TO.P,R2,2*
G04 #@! TO.N,GND*
X40400000Y-3490000D03*
G04 #@! TD*
D30*
G04 #@! TO.P,D3,1,K*
G04 #@! TO.N,Net-(D3-K)*
X39787500Y10600000D03*
G04 #@! TO.P,D3,2,A*
G04 #@! TO.N,Net-(D2-A)*
X38212500Y10600000D03*
G04 #@! TD*
D29*
G04 #@! TO.P,R11,1*
G04 #@! TO.N,VCC*
X36500000Y9890000D03*
G04 #@! TO.P,R11,2*
G04 #@! TO.N,Net-(D2-A)*
X36500000Y10910000D03*
G04 #@! TD*
G04 #@! TO.P,R10,1*
G04 #@! TO.N,+3.3V*
X59400000Y6090000D03*
G04 #@! TO.P,R10,2*
G04 #@! TO.N,MCU_SCL*
X59400000Y7110000D03*
G04 #@! TD*
D18*
G04 #@! TO.P,R17,1*
G04 #@! TO.N,Net-(U6-SET)*
X37800000Y7005000D03*
G04 #@! TO.P,R17,2*
G04 #@! TO.N,GND*
X36780000Y7005000D03*
G04 #@! TD*
D31*
G04 #@! TO.P,Q1,1,G*
G04 #@! TO.N,Net-(Q1-G)*
X36500000Y255000D03*
G04 #@! TO.P,Q1,2,S*
G04 #@! TO.N,+BATT*
X35700000Y255000D03*
G04 #@! TO.P,Q1,3,D*
G04 #@! TO.N,Net-(Q1-D)*
X36100000Y-895000D03*
G04 #@! TD*
D11*
G04 #@! TO.P,C18,1*
G04 #@! TO.N,OUT*
X37790000Y8985000D03*
G04 #@! TO.P,C18,2*
G04 #@! TO.N,GND*
X37790000Y8025000D03*
G04 #@! TD*
D32*
G04 #@! TO.P,SW2,1,1*
G04 #@! TO.N,GND*
X53100000Y4700000D03*
D33*
X53100000Y-1300000D03*
G04 #@! TO.P,SW2,2,2*
G04 #@! TO.N,Net-(U3-GPIO9)*
X49800000Y4700000D03*
X49800000Y-1300000D03*
G04 #@! TD*
D17*
G04 #@! TO.P,C14,1*
G04 #@! TO.N,CHIP_EN*
X54000000Y-3780000D03*
G04 #@! TO.P,C14,2*
G04 #@! TO.N,GND*
X54000000Y-2820000D03*
G04 #@! TD*
D34*
G04 #@! TO.P,AE1,1,A*
G04 #@! TO.N,Net-(AE1-A)*
X55175000Y-7200000D03*
D35*
G04 #@! TO.P,AE1,2,GND*
G04 #@! TO.N,GND*
X55175000Y-9300000D03*
G04 #@! TD*
D12*
G04 #@! TO.P,R6,1*
G04 #@! TO.N,+3.3V*
X46600000Y-890000D03*
G04 #@! TO.P,R6,2*
G04 #@! TO.N,GPIO8*
X46600000Y-1910000D03*
G04 #@! TD*
D11*
G04 #@! TO.P,C9,1*
G04 #@! TO.N,+BATT*
X44900000Y3380000D03*
G04 #@! TO.P,C9,2*
G04 #@! TO.N,GND*
X44900000Y2420000D03*
G04 #@! TD*
D18*
G04 #@! TO.P,R7,1*
G04 #@! TO.N,Blau*
X44010000Y-6490000D03*
G04 #@! TO.P,R7,2*
G04 #@! TO.N,Net-(D1-BK)*
X42990000Y-6490000D03*
G04 #@! TD*
D29*
G04 #@! TO.P,R18,1*
G04 #@! TO.N,OUT*
X38000000Y3840000D03*
G04 #@! TO.P,R18,2*
G04 #@! TO.N,Net-(U2-EN)*
X38000000Y4860000D03*
G04 #@! TD*
D36*
G04 #@! TO.P,U5,1,VT*
G04 #@! TO.N,unconnected-(U5-VT-Pad1)*
X48050000Y2887500D03*
G04 #@! TO.P,U5,2,GND*
G04 #@! TO.N,Earth*
X47100000Y2887500D03*
G04 #@! TO.P,U5,3,Vin*
G04 #@! TO.N,Net-(U5-Vin)*
X46150000Y2887500D03*
G04 #@! TO.P,U5,4,VM*
G04 #@! TO.N,GND*
X46150000Y612500D03*
G04 #@! TO.P,U5,5,VM*
X48050000Y612500D03*
G04 #@! TD*
D11*
G04 #@! TO.P,C7,1*
G04 #@! TO.N,GND*
X51250000Y-5220000D03*
G04 #@! TO.P,C7,2*
G04 #@! TO.N,+3.3V*
X51250000Y-6180000D03*
G04 #@! TD*
D37*
G04 #@! TO.P,U3,1,LNA_IN*
G04 #@! TO.N,Net-(U3-LNA_IN)*
X50050000Y-7250000D03*
G04 #@! TO.P,U3,2,VDD3P3*
G04 #@! TO.N,+3.3V*
X50050000Y-6750000D03*
G04 #@! TO.P,U3,3,VDD3P3*
X50050000Y-6250000D03*
G04 #@! TO.P,U3,4,XTAL_32K_P*
G04 #@! TO.N,unconnected-(U3-XTAL_32K_P-Pad4)*
X50050000Y-5750000D03*
G04 #@! TO.P,U3,5,XTAL_32K_N*
G04 #@! TO.N,unconnected-(U3-XTAL_32K_N-Pad5)*
X50050000Y-5250000D03*
G04 #@! TO.P,U3,6,GPIO2*
G04 #@! TO.N,EXTI*
X50050000Y-4750000D03*
G04 #@! TO.P,U3,7,CHIP_EN*
G04 #@! TO.N,CHIP_EN*
X50050000Y-4250000D03*
G04 #@! TO.P,U3,8,GPIO3*
G04 #@! TO.N,VCC_Sensor*
X50050000Y-3750000D03*
D38*
G04 #@! TO.P,U3,9,MTMS*
G04 #@! TO.N,MCU_SCL*
X49350000Y-3050000D03*
G04 #@! TO.P,U3,10,MTDI*
G04 #@! TO.N,MCU_SDA*
X48850000Y-3050000D03*
G04 #@! TO.P,U3,11,VDD3P3_RTC*
G04 #@! TO.N,+3.3V*
X48350000Y-3050000D03*
G04 #@! TO.P,U3,12,MTCK*
G04 #@! TO.N,EN_ADC*
X47850000Y-3050000D03*
G04 #@! TO.P,U3,13,MTDO*
G04 #@! TO.N,unconnected-(U3-MTDO-Pad13)*
X47350000Y-3050000D03*
G04 #@! TO.P,U3,14,GPIO8*
G04 #@! TO.N,GPIO8*
X46850000Y-3050000D03*
G04 #@! TO.P,U3,15,GPIO9*
G04 #@! TO.N,Net-(U3-GPIO9)*
X46350000Y-3050000D03*
G04 #@! TO.P,U3,16,GPIO10*
G04 #@! TO.N,unconnected-(U3-GPIO10-Pad16)*
X45850000Y-3050000D03*
D37*
G04 #@! TO.P,U3,17,VDD3P3_CPU*
G04 #@! TO.N,+3.3V*
X45150000Y-3750000D03*
G04 #@! TO.P,U3,18,VDD_SPI*
G04 #@! TO.N,ADC*
X45150000Y-4250000D03*
G04 #@! TO.P,U3,19,SPIHD*
G04 #@! TO.N,unconnected-(U3-SPIHD-Pad19)*
X45150000Y-4750000D03*
G04 #@! TO.P,U3,20,SPIWP*
G04 #@! TO.N,unconnected-(U3-SPIWP-Pad20)*
X45150000Y-5250000D03*
G04 #@! TO.P,U3,21,SPICS0*
G04 #@! TO.N,unconnected-(U3-SPICS0-Pad21)*
X45150000Y-5750000D03*
G04 #@! TO.P,U3,22,SPICLK*
G04 #@! TO.N,Rot*
X45150000Y-6250000D03*
G04 #@! TO.P,U3,23,SPID*
G04 #@! TO.N,Blau*
X45150000Y-6750000D03*
G04 #@! TO.P,U3,24,SPIQ*
G04 #@! TO.N,Gr\u00FCn*
X45150000Y-7250000D03*
D38*
G04 #@! TO.P,U3,25,GPIO18*
G04 #@! TO.N,USB_D-*
X45850000Y-7950000D03*
G04 #@! TO.P,U3,26,GPIO19*
G04 #@! TO.N,USB_D+*
X46350000Y-7950000D03*
G04 #@! TO.P,U3,27,U0RXD*
G04 #@! TO.N,unconnected-(U3-U0RXD-Pad27)*
X46850000Y-7950000D03*
G04 #@! TO.P,U3,28,U0TXD*
G04 #@! TO.N,unconnected-(U3-U0TXD-Pad28)*
X47350000Y-7950000D03*
G04 #@! TO.P,U3,29,XTAL_N*
G04 #@! TO.N,Net-(U3-XTAL_N)*
X47850000Y-7950000D03*
G04 #@! TO.P,U3,30,XTAL_P*
G04 #@! TO.N,Net-(U3-XTAL_P)*
X48350000Y-7950000D03*
G04 #@! TO.P,U3,31,VDDA*
G04 #@! TO.N,+3.3V*
X48850000Y-7950000D03*
G04 #@! TO.P,U3,32,VDDA*
X49350000Y-7950000D03*
D39*
G04 #@! TO.P,U3,33,GND*
G04 #@! TO.N,GND*
X47600000Y-5500000D03*
G04 #@! TD*
D11*
G04 #@! TO.P,C2,1*
G04 #@! TO.N,GND*
X52200000Y-5220000D03*
G04 #@! TO.P,C2,2*
G04 #@! TO.N,+3.3V*
X52200000Y-6180000D03*
G04 #@! TD*
D40*
G04 #@! TO.P,U6,1,VOUT*
G04 #@! TO.N,OUT*
X39262500Y9050000D03*
G04 #@! TO.P,U6,2,GND*
G04 #@! TO.N,GND*
X39262500Y8100000D03*
G04 #@! TO.P,U6,3,SET*
G04 #@! TO.N,Net-(U6-SET)*
X39262500Y7150000D03*
G04 #@! TO.P,U6,4,EN*
G04 #@! TO.N,+BATT*
X41537500Y7150000D03*
G04 #@! TO.P,U6,5,VIN*
X41537500Y9050000D03*
G04 #@! TD*
D16*
G04 #@! TO.P,C4,1*
G04 #@! TO.N,Net-(U5-Vin)*
X47400000Y4350000D03*
G04 #@! TO.P,C4,2*
G04 #@! TO.N,Earth*
X48360000Y4350000D03*
G04 #@! TD*
D41*
G04 #@! TO.P,Y1,1,OSC1*
G04 #@! TO.N,Net-(U3-XTAL_P)*
X49400000Y-9550000D03*
G04 #@! TO.P,Y1,2,GND*
G04 #@! TO.N,GND*
X47200000Y-9550000D03*
G04 #@! TO.P,Y1,3,OSC2*
G04 #@! TO.N,Net-(U3-XTAL_N)*
X47200000Y-11250000D03*
G04 #@! TO.P,Y1,4,GND*
G04 #@! TO.N,GND*
X49400000Y-11250000D03*
G04 #@! TD*
D42*
G04 #@! TO.P,U4,1,NC*
G04 #@! TO.N,unconnected-(U4-NC-Pad1)*
X39695000Y-25000D03*
G04 #@! TO.P,U4,2,PROG*
G04 #@! TO.N,Net-(U4-PROG)*
X40965000Y-25000D03*
G04 #@! TO.P,U4,3,GND*
G04 #@! TO.N,GND*
X42235000Y-25000D03*
G04 #@! TO.P,U4,4,VCC*
G04 #@! TO.N,VCC*
X43505000Y-25000D03*
G04 #@! TO.P,U4,5,BAT*
G04 #@! TO.N,+BATT*
X43505000Y5225000D03*
G04 #@! TO.P,U4,6,CHRGT*
G04 #@! TO.N,Net-(D3-K)*
X42235000Y5225000D03*
G04 #@! TO.P,U4,7,CHRG*
G04 #@! TO.N,Net-(D2-K)*
X40965000Y5225000D03*
G04 #@! TO.P,U4,8,NTC*
G04 #@! TO.N,unconnected-(U4-NTC-Pad8)*
X39695000Y5225000D03*
G04 #@! TD*
D43*
G04 #@! TO.P,U2,1,Vin*
G04 #@! TO.N,OUT*
X36537500Y3800000D03*
G04 #@! TO.P,U2,2,GND*
G04 #@! TO.N,GND*
X36537500Y4750000D03*
G04 #@! TO.P,U2,3,EN*
G04 #@! TO.N,Net-(U2-EN)*
X36537500Y5700000D03*
G04 #@! TO.P,U2,4,NC*
G04 #@! TO.N,unconnected-(U2-NC-Pad4)*
X34262500Y5700000D03*
G04 #@! TO.P,U2,5,Vout*
G04 #@! TO.N,+3.3V*
X34262500Y3800000D03*
G04 #@! TD*
D17*
G04 #@! TO.P,C17,1*
G04 #@! TO.N,Net-(U3-XTAL_N)*
X45700000Y-11080000D03*
G04 #@! TO.P,C17,2*
G04 #@! TO.N,GND*
X45700000Y-10120000D03*
G04 #@! TD*
D44*
G04 #@! TO.N,GND*
X51400000Y10300000D03*
X47400000Y1100000D03*
X33600000Y-7100000D03*
X47700000Y-6900000D03*
X42700000Y1100000D03*
X46300000Y-6000000D03*
X46300000Y-4200000D03*
X56800000Y-10900000D03*
X33600000Y-9100000D03*
X33600000Y-4200000D03*
X45300000Y-12000000D03*
X47400000Y-100000D03*
X47700000Y-5100000D03*
X48700000Y500000D03*
X48700000Y-100000D03*
X43300000Y-12000000D03*
X59800000Y-10900000D03*
X48600000Y11100000D03*
X47400000Y500000D03*
X33500000Y6800000D03*
X53800000Y-10900000D03*
X48700000Y1100000D03*
X33600000Y-8100000D03*
X44300000Y-12000000D03*
X45600000Y500000D03*
X42300000Y-12000000D03*
X53500000Y-8200000D03*
X46800000Y1100000D03*
X48900000Y-6000000D03*
X48900000Y-6900000D03*
X48900000Y-4200000D03*
X52000000Y-1600000D03*
X52400000Y8000000D03*
X46200000Y-9500000D03*
X45600000Y11100000D03*
X58800000Y10100000D03*
X44900000Y1700000D03*
X35500000Y5300000D03*
X46300000Y-5100000D03*
X54800000Y-10900000D03*
X41800000Y1100000D03*
X35500000Y4500000D03*
X58800000Y-10900000D03*
X35500000Y3700000D03*
X46800000Y-100000D03*
X57800000Y-10900000D03*
X33500000Y-1200000D03*
X50500000Y-7800000D03*
X33500000Y-2200000D03*
X33500000Y8800000D03*
X45600000Y1100000D03*
X40200000Y8100000D03*
X44600000Y11100000D03*
X47900000Y-500000D03*
X41600000Y11100000D03*
X41300000Y-12000000D03*
X42600000Y11100000D03*
X47700000Y-4200000D03*
X46600000Y11100000D03*
X35500000Y6100000D03*
X33500000Y1800000D03*
X50600000Y-11800000D03*
X53800000Y-9900000D03*
X45600000Y-100000D03*
X33600000Y-5100000D03*
X53900000Y-4900000D03*
X53100000Y3700000D03*
X33600000Y-10100000D03*
X40600000Y11100000D03*
X55800000Y-10900000D03*
X46300000Y-6900000D03*
X36500000Y7600000D03*
X48900000Y-5100000D03*
X52900000Y-5200000D03*
X33500000Y800000D03*
X44600000Y-2700000D03*
X33500000Y-200000D03*
X35500000Y2900000D03*
X53800000Y-8900000D03*
X47600000Y11100000D03*
X33500000Y7800000D03*
X45100000Y-10100000D03*
X48400000Y-11600000D03*
X33600000Y-6100000D03*
X53700000Y1400000D03*
X53700000Y400000D03*
X60200000Y5800000D03*
X51900000Y-9700000D03*
X43600000Y11100000D03*
X37100000Y8000000D03*
X40900000Y-4000000D03*
X53900000Y-5900000D03*
X46800000Y500000D03*
X47700000Y-6000000D03*
G04 #@! TO.N,VCC*
X38900000Y5700000D03*
X37300000Y9900000D03*
G04 #@! TO.N,+BATT*
X41000000Y1300000D03*
G04 #@! TO.N,+3.3V*
X33600000Y3000000D03*
X40500000Y-6400000D03*
X44600000Y-3400000D03*
X34800000Y3000000D03*
X33600000Y5000000D03*
X47400000Y-900000D03*
X33600000Y4400000D03*
X60200000Y6500000D03*
X34200000Y3000000D03*
X46100000Y-600000D03*
X34200000Y5000000D03*
X34200000Y4400000D03*
X59700000Y9700000D03*
X52000000Y-2300000D03*
X34800000Y4400000D03*
X52900000Y-5900000D03*
X34800000Y5000000D03*
X50100000Y-8400000D03*
G04 #@! TO.N,MCU_SCL*
X53400000Y8000000D03*
X56800000Y7500000D03*
G04 #@! TO.N,Net-(U3-GPIO9)*
X49800000Y-200000D03*
X45799999Y-2100000D03*
G04 #@! TO.N,EN_ADC*
X38500000Y-600000D03*
X39900000Y2500000D03*
G04 #@! TO.N,OUT*
X38000000Y5700000D03*
X38300000Y9600000D03*
G04 #@! TD*
D45*
G04 #@! TO.N,GND*
X39187500Y8025000D02*
X39262500Y8100000D01*
X58800000Y10100000D02*
X58075000Y10100000D01*
D46*
X54180000Y-8200000D02*
X54200000Y-8180000D01*
X39070000Y-3660000D02*
X38500000Y-3090000D01*
D45*
X51400000Y10300000D02*
X50825000Y10300000D01*
X53100000Y3700000D02*
X53100000Y4700000D01*
D46*
X51330000Y-8200000D02*
X51300000Y-8230000D01*
X40900000Y-4000000D02*
X40400000Y-3500000D01*
D45*
X50825000Y10300000D02*
X50575000Y10050000D01*
X45100000Y-10100000D02*
X45680000Y-10100000D01*
D46*
X41020000Y10680000D02*
X40600000Y11100000D01*
X41020000Y10325000D02*
X41020000Y10680000D01*
D45*
X38610000Y-1820000D02*
X38610000Y-2980000D01*
D46*
X44580000Y-2720000D02*
X44000000Y-2720000D01*
D45*
X40200000Y8100000D02*
X39262500Y8100000D01*
D46*
X47900000Y-500000D02*
X47980000Y-500000D01*
X52900000Y-5200000D02*
X52220000Y-5200000D01*
X40400000Y-11910000D02*
X38680000Y-11910000D01*
X48400000Y-11600000D02*
X48685000Y-11600000D01*
D47*
X42235000Y-1215000D02*
X42720000Y-1700000D01*
D45*
X58075000Y10100000D02*
X58025000Y10050000D01*
X52150000Y7750000D02*
X52150000Y6800000D01*
D47*
X42235000Y-25000D02*
X42235000Y-1275000D01*
D46*
X53500000Y-8200000D02*
X54180000Y-8200000D01*
D47*
X44900000Y1700000D02*
X44900000Y2420000D01*
D45*
X37100000Y8000000D02*
X37765000Y8000000D01*
X50870000Y-7800000D02*
X51300000Y-8230000D01*
D46*
X51900000Y-9700000D02*
X51900000Y-9320000D01*
D45*
X37765000Y8000000D02*
X37790000Y8025000D01*
D46*
X54000000Y-2820000D02*
X54000000Y-2200000D01*
D45*
X41800000Y1100000D02*
X42000000Y1100000D01*
X52400000Y8000000D02*
X52150000Y7750000D01*
X42400000Y1100000D02*
X42235000Y935000D01*
D46*
X52220000Y-5200000D02*
X52200000Y-5220000D01*
D45*
X50500000Y-7800000D02*
X50870000Y-7800000D01*
X45680000Y-10100000D02*
X45700000Y-10120000D01*
D46*
X51900000Y-9320000D02*
X51780000Y-9200000D01*
D47*
X43000000Y-2720000D02*
X44000000Y-2720000D01*
D45*
X42000000Y1100000D02*
X42235000Y865000D01*
D46*
X44600000Y-2700000D02*
X44580000Y-2720000D01*
X39070000Y-11160000D02*
X38500000Y-11730000D01*
D45*
X37790000Y8025000D02*
X39187500Y8025000D01*
D47*
X42235000Y-1275000D02*
X41810000Y-1700000D01*
D46*
X40400000Y-3500000D02*
X40400000Y-3490000D01*
X50600000Y-11150000D02*
X50600000Y-11800000D01*
D47*
X42720000Y-2440000D02*
X43000000Y-2720000D01*
D46*
X51250000Y-5220000D02*
X52200000Y-5220000D01*
X52800000Y-1600000D02*
X53100000Y-1300000D01*
X48685000Y-11600000D02*
X49085000Y-11200000D01*
X54000000Y-2200000D02*
X53100000Y-1300000D01*
X39070000Y-10610000D02*
X39070000Y-11160000D01*
D47*
X42720000Y-1700000D02*
X42720000Y-2440000D01*
D45*
X42235000Y935000D02*
X42235000Y865000D01*
D46*
X39070000Y-4210000D02*
X39070000Y-3660000D01*
D45*
X36780000Y7320000D02*
X36500000Y7600000D01*
D46*
X38680000Y-11910000D02*
X38500000Y-11730000D01*
X47980000Y-500000D02*
X48400000Y-920000D01*
D45*
X38610000Y-2980000D02*
X38500000Y-3090000D01*
X42700000Y1100000D02*
X42400000Y1100000D01*
X36780000Y7005000D02*
X36780000Y7320000D01*
X42235000Y865000D02*
X42235000Y-25000D01*
D46*
X52000000Y-1600000D02*
X52800000Y-1600000D01*
D47*
X42235000Y-25000D02*
X42235000Y-1215000D01*
D46*
X46200000Y-9500000D02*
X46885000Y-9500000D01*
G04 #@! TO.N,EXTI*
X50100000Y-4700000D02*
X52110000Y-4700000D01*
X50050000Y-4750000D02*
X50100000Y-4700000D01*
X52110000Y-4700000D02*
X53000000Y-3810000D01*
D48*
G04 #@! TO.N,Net-(AE1-A)*
X54200000Y-7220000D02*
X55155000Y-7220000D01*
X54170000Y-7250000D02*
X54200000Y-7220000D01*
X55155000Y-7220000D02*
X55175000Y-7200000D01*
X53310000Y-7250000D02*
X54170000Y-7250000D01*
G04 #@! TO.N,Net-(U3-LNA_IN)*
X50050000Y-7250000D02*
X51280000Y-7250000D01*
X51300000Y-7270000D02*
X52270000Y-7270000D01*
X51280000Y-7250000D02*
X51300000Y-7270000D01*
X52270000Y-7270000D02*
X52290000Y-7250000D01*
D49*
G04 #@! TO.N,Net-(U5-Vin)*
X46150000Y3990000D02*
X46150000Y2887500D01*
X47400000Y4350000D02*
X46510000Y4350000D01*
X46510000Y4350000D02*
X46150000Y3990000D01*
D50*
G04 #@! TO.N,VCC*
X39200000Y1900000D02*
X42583914Y1900000D01*
D46*
X37300000Y9900000D02*
X36510000Y9900000D01*
D50*
X35350000Y2000000D02*
X36250000Y1100000D01*
D45*
X37100000Y-8300000D02*
X37100000Y-6700000D01*
D46*
X39200000Y1900000D02*
X39168000Y1932000D01*
D45*
X38590000Y-5010000D02*
X39070000Y-5010000D01*
D50*
X34000000Y-1200000D02*
X34000000Y1000000D01*
D46*
X39168000Y5432000D02*
X38900000Y5700000D01*
D50*
X37100000Y-4300000D02*
X34000000Y-1200000D01*
X42583914Y1900000D02*
X43505000Y978914D01*
D46*
X39168000Y1932000D02*
X39168000Y5432000D01*
D47*
X43700000Y-1680000D02*
X43680000Y-1700000D01*
D50*
X37100000Y-6700000D02*
X37100000Y-4300000D01*
D47*
X43700000Y-220000D02*
X43700000Y-1680000D01*
D50*
X36250000Y1100000D02*
X38400000Y1100000D01*
D46*
X36510000Y9900000D02*
X36500000Y9890000D01*
D50*
X35000000Y2000000D02*
X35350000Y2000000D01*
D47*
X43505000Y-25000D02*
X43700000Y-220000D01*
D50*
X38400000Y1100000D02*
X39200000Y1900000D01*
X34000000Y1000000D02*
X35000000Y2000000D01*
D45*
X37100000Y-6700000D02*
X37100000Y-6500000D01*
D50*
X43505000Y978914D02*
X43505000Y-25000D01*
D45*
X38610000Y-9810000D02*
X37100000Y-8300000D01*
X37100000Y-6500000D02*
X38590000Y-5010000D01*
X39070000Y-9810000D02*
X38610000Y-9810000D01*
D47*
G04 #@! TO.N,+BATT*
X44900000Y8650000D02*
X44900000Y6800000D01*
X44900000Y6620000D02*
X43505000Y5225000D01*
X43225000Y10325000D02*
X44900000Y8650000D01*
X44900000Y6800000D02*
X45490000Y6210000D01*
X41537500Y9050000D02*
X41537500Y9882500D01*
X45490000Y6210000D02*
X45490000Y4350000D01*
D46*
X36152000Y707000D02*
X39064684Y707000D01*
D47*
X41537500Y9882500D02*
X41980000Y10325000D01*
X44900000Y3760000D02*
X45490000Y4350000D01*
X44500000Y9050000D02*
X44900000Y8650000D01*
D46*
X35635000Y190000D02*
X35700000Y255000D01*
D47*
X44900000Y3380000D02*
X44900000Y3760000D01*
D46*
X39064684Y707000D02*
X39657684Y1300000D01*
D47*
X41537500Y9050000D02*
X44500000Y9050000D01*
X44900000Y6800000D02*
X44900000Y6620000D01*
D46*
X39657684Y1300000D02*
X41000000Y1300000D01*
X35700000Y255000D02*
X36152000Y707000D01*
D47*
X41537500Y7150000D02*
X41537500Y9050000D01*
D46*
X34700000Y190000D02*
X35635000Y190000D01*
D47*
X41980000Y10325000D02*
X43225000Y10325000D01*
D50*
G04 #@! TO.N,Net-(D2-A)*
X36500000Y10910000D02*
X37902500Y10910000D01*
X34600000Y10687500D02*
X36277500Y10687500D01*
X37902500Y10910000D02*
X38212500Y10600000D01*
X36277500Y10687500D02*
X36500000Y10910000D01*
D46*
G04 #@! TO.N,+3.3V*
X45080000Y-3680000D02*
X45150000Y-3750000D01*
D45*
X46100000Y-600000D02*
X46310000Y-600000D01*
D46*
X47400000Y-900000D02*
X47547102Y-900000D01*
X44600000Y-3400000D02*
X44280000Y-3400000D01*
D45*
X59790000Y6090000D02*
X60200000Y6500000D01*
D46*
X50605000Y-9100000D02*
X50605000Y-8905000D01*
X48350000Y-3050000D02*
X48350000Y-1930000D01*
X50605000Y-8905000D02*
X50100000Y-8400000D01*
X52900000Y-5900000D02*
X52480000Y-5900000D01*
X52000000Y-2300000D02*
X52000000Y-2790000D01*
X44280000Y-3400000D02*
X44000000Y-3680000D01*
X48350000Y-1930000D02*
X48400000Y-1880000D01*
X40500000Y-6400000D02*
X40500000Y-6190000D01*
X47547102Y-900000D02*
X48400000Y-1752898D01*
X48400000Y-1752898D02*
X48400000Y-1880000D01*
X44000000Y-3680000D02*
X45080000Y-3680000D01*
X51130000Y-6300000D02*
X50100000Y-6300000D01*
D45*
X59400000Y6090000D02*
X59790000Y6090000D01*
D46*
X52000000Y-2790000D02*
X53000000Y-2790000D01*
X50050000Y-6250000D02*
X50050000Y-6750000D01*
X40500000Y-6190000D02*
X40900000Y-5790000D01*
X52480000Y-5900000D02*
X52200000Y-6180000D01*
X50100000Y-8400000D02*
X49650000Y-7950000D01*
X49350000Y-7950000D02*
X48850000Y-7950000D01*
D45*
X59400000Y9110000D02*
X59400000Y9400000D01*
X46310000Y-600000D02*
X46600000Y-890000D01*
D46*
X52200000Y-6180000D02*
X51250000Y-6180000D01*
X51250000Y-6180000D02*
X51130000Y-6300000D01*
X50100000Y-6300000D02*
X50050000Y-6250000D01*
D45*
X59400000Y9400000D02*
X59700000Y9700000D01*
D46*
X49650000Y-7950000D02*
X49350000Y-7950000D01*
X41000000Y-5890000D02*
X40900000Y-5790000D01*
D50*
G04 #@! TO.N,Net-(D2-K)*
X40965000Y5435000D02*
X40000000Y6400000D01*
X40000000Y6400000D02*
X36501796Y6400000D01*
X34600000Y8301796D02*
X34600000Y9112500D01*
X36501796Y6400000D02*
X34600000Y8301796D01*
X40965000Y5225000D02*
X40965000Y5435000D01*
D46*
G04 #@! TO.N,Net-(U1-CC1)*
X40100000Y-5900000D02*
X40100000Y-4810000D01*
X39070000Y-6160000D02*
X39840000Y-6160000D01*
X40100000Y-4810000D02*
X40400000Y-4510000D01*
X39840000Y-6160000D02*
X40100000Y-5900000D01*
G04 #@! TO.N,Net-(U1-CC2)*
X39744000Y-9160000D02*
X39070000Y-9160000D01*
X40400000Y-10890000D02*
X40400000Y-9816000D01*
X40400000Y-9816000D02*
X39744000Y-9160000D01*
G04 #@! TO.N,CHIP_EN*
X53533000Y-3313000D02*
X54000000Y-3780000D01*
X51950000Y-4250000D02*
X52000000Y-4200000D01*
X50050000Y-4250000D02*
X51950000Y-4250000D01*
X52000000Y-4200000D02*
X52000000Y-3810000D01*
X52000000Y-3810000D02*
X52497000Y-3313000D01*
X52497000Y-3313000D02*
X53533000Y-3313000D01*
D50*
G04 #@! TO.N,USB_D+*
X39504800Y-8145200D02*
X39712576Y-8145200D01*
X39490000Y-8160000D02*
X39504800Y-8145200D01*
X40502576Y-8935200D02*
X45864800Y-8935200D01*
X38239400Y-8070600D02*
X38328800Y-8160000D01*
X39070000Y-8160000D02*
X39490000Y-8160000D01*
X39070000Y-7160000D02*
X38328800Y-7160000D01*
X38328800Y-7160000D02*
X38239400Y-7249400D01*
X46350000Y-8450000D02*
X46350000Y-7950000D01*
X38328800Y-8160000D02*
X39070000Y-8160000D01*
X38239400Y-7249400D02*
X38239400Y-8070600D01*
X45864800Y-8935200D02*
X46350000Y-8450000D01*
X39712576Y-8145200D02*
X40502576Y-8935200D01*
G04 #@! TO.N,USB_D-*
X39504800Y-7674800D02*
X39907424Y-7674800D01*
X41913298Y-7839083D02*
X42033298Y-7839083D01*
X42633298Y-8464800D02*
X42900000Y-8464800D01*
X42900000Y-8464800D02*
X45635200Y-8464800D01*
X40182727Y-7950103D02*
X39907424Y-7674800D01*
X39070000Y-6660000D02*
X39811200Y-6660000D01*
X39900600Y-6749400D02*
X39900600Y-7667976D01*
X39900600Y-7667976D02*
X39907424Y-7674800D01*
X39490000Y-7660000D02*
X39504800Y-7674800D01*
X45850000Y-8250000D02*
X45850000Y-7950000D01*
X42513298Y-8464800D02*
X42633298Y-8464800D01*
X45635200Y-8464800D02*
X45850000Y-8250000D01*
X42273298Y-8079083D02*
X42273298Y-8224800D01*
X41433298Y-8464800D02*
X40697424Y-8464800D01*
X41673298Y-8224800D02*
X41673298Y-8079083D01*
X39070000Y-7660000D02*
X39490000Y-7660000D01*
X40697424Y-8464800D02*
X40182727Y-7950103D01*
X39811200Y-6660000D02*
X39900600Y-6749400D01*
X42273298Y-8224800D02*
G75*
G03*
X42513298Y-8464802I240002J0D01*
G01*
X41673298Y-8079083D02*
G75*
G02*
X41913298Y-7839098I240002J-17D01*
G01*
X42033298Y-7839083D02*
G75*
G02*
X42273317Y-8079083I2J-240017D01*
G01*
X41433298Y-8464800D02*
G75*
G03*
X41673300Y-8224800I2J240000D01*
G01*
D47*
G04 #@! TO.N,Net-(U4-PROG)*
X40965000Y-1525000D02*
X40790000Y-1700000D01*
X40965000Y-25000D02*
X40965000Y-1525000D01*
D50*
G04 #@! TO.N,Net-(D3-K)*
X40700000Y8640168D02*
X40200000Y9140168D01*
X40200000Y10187500D02*
X39787500Y10600000D01*
X40600000Y7816086D02*
X40700000Y7916086D01*
X42235000Y5225000D02*
X42235000Y6049999D01*
X41884999Y6400000D02*
X41040168Y6400000D01*
X40700000Y7916086D02*
X40700000Y8640168D01*
X40600000Y6840168D02*
X40600000Y7816086D01*
X40200000Y9140168D02*
X40200000Y10187500D01*
X42235000Y6049999D02*
X41884999Y6400000D01*
X41040168Y6400000D02*
X40600000Y6840168D01*
D46*
G04 #@! TO.N,MCU_SCL*
X53400000Y8000000D02*
X53400000Y6800000D01*
X49746000Y-2654000D02*
X50754448Y-2654000D01*
X57190000Y7110000D02*
X56800000Y7500000D01*
X50754448Y-2654000D02*
X51073000Y-2335448D01*
X51127000Y-723000D02*
X51127000Y773000D01*
X51073000Y-777000D02*
X51127000Y-723000D01*
X54077000Y3723000D02*
X54077000Y6123000D01*
X51073000Y-2335448D02*
X51073000Y-777000D01*
X49350000Y-3050000D02*
X49746000Y-2654000D01*
X59400000Y7110000D02*
X57190000Y7110000D01*
X54077000Y6123000D02*
X53400000Y6800000D01*
X51127000Y773000D02*
X54077000Y3723000D01*
G04 #@! TO.N,GPIO8*
X46850000Y-2160000D02*
X46600000Y-1910000D01*
X46850000Y-3050000D02*
X46850000Y-2160000D01*
G04 #@! TO.N,Net-(U3-GPIO9)*
X49800000Y-200000D02*
X49800000Y-1300000D01*
X45799999Y-2100000D02*
X46350000Y-2650001D01*
X46350000Y-2650001D02*
X46350000Y-3050000D01*
X49800000Y4700000D02*
X49800000Y-200000D01*
G04 #@! TO.N,Net-(D1-BK)*
X40910000Y-7190000D02*
X41610000Y-6490000D01*
X41610000Y-6490000D02*
X42990000Y-6490000D01*
X40900000Y-7190000D02*
X40910000Y-7190000D01*
G04 #@! TO.N,MCU_SDA*
X54000000Y8600000D02*
X54650000Y7950000D01*
X50800000Y-587552D02*
X50800000Y7100000D01*
X50746000Y-641552D02*
X50800000Y-587552D01*
X59400000Y8090000D02*
X54890000Y8090000D01*
X49173001Y-2327000D02*
X50619000Y-2327000D01*
X48850000Y-3050000D02*
X48850000Y-2650001D01*
X54650000Y7850000D02*
X54650000Y6800000D01*
X50800000Y7100000D02*
X52300000Y8600000D01*
X54650000Y7950000D02*
X54650000Y6800000D01*
X50619000Y-2327000D02*
X50746000Y-2200000D01*
X54890000Y8090000D02*
X54650000Y7850000D01*
X48850000Y-2650001D02*
X49173001Y-2327000D01*
X52300000Y8600000D02*
X54000000Y8600000D01*
X50746000Y-2200000D02*
X50746000Y-641552D01*
G04 #@! TO.N,Net-(D1-GK)*
X41900000Y-7190000D02*
X42670000Y-7190000D01*
X42670000Y-7190000D02*
X42980000Y-7500000D01*
G04 #@! TO.N,Net-(D1-RK)*
X42690000Y-5790000D02*
X42990000Y-5490000D01*
X41900000Y-5790000D02*
X42690000Y-5790000D01*
G04 #@! TO.N,Gr\u00FCn*
X44000000Y-7500000D02*
X44900000Y-7500000D01*
X44900000Y-7500000D02*
X45150000Y-7250000D01*
G04 #@! TO.N,Blau*
X44010000Y-6490000D02*
X44270000Y-6750000D01*
X44270000Y-6750000D02*
X45150000Y-6750000D01*
G04 #@! TO.N,Rot*
X44770000Y-6250000D02*
X45150000Y-6250000D01*
X44010000Y-5490000D02*
X44770000Y-6250000D01*
G04 #@! TO.N,Net-(U3-XTAL_P)*
X48677000Y-8577000D02*
X49400000Y-9300000D01*
X48350000Y-7950000D02*
X48350000Y-8261146D01*
X48665854Y-8577000D02*
X48677000Y-8577000D01*
X48350000Y-8261146D02*
X48665854Y-8577000D01*
X49400000Y-9300000D02*
X49400000Y-9550000D01*
X49400000Y-9550000D02*
X50260000Y-9550000D01*
X50260000Y-9550000D02*
X50900000Y-10190000D01*
G04 #@! TO.N,Net-(U3-XTAL_N)*
X48127000Y-10250000D02*
X48000000Y-10377000D01*
X48000000Y-10377000D02*
X48000000Y-10450000D01*
X47850000Y-7950000D02*
X47850000Y-8550000D01*
X47030000Y-11080000D02*
X47200000Y-11250000D01*
X48127000Y-8827000D02*
X48127000Y-10250000D01*
X47850000Y-8550000D02*
X48127000Y-8827000D01*
X48000000Y-10450000D02*
X47200000Y-11250000D01*
X45700000Y-11080000D02*
X47030000Y-11080000D01*
D50*
G04 #@! TO.N,Net-(U2-EN)*
X37160000Y5700000D02*
X38000000Y4860000D01*
X36537500Y5700000D02*
X37160000Y5700000D01*
D46*
G04 #@! TO.N,VCC_Sensor*
X50419000Y-2981000D02*
X50889896Y-2981000D01*
X50050000Y-3350000D02*
X50419000Y-2981000D01*
X50050000Y-3750000D02*
X50050000Y-3350000D01*
X51400000Y-2470896D02*
X51400000Y-912448D01*
X55900000Y6662684D02*
X55900000Y6800000D01*
X54404000Y3587552D02*
X54404000Y5604000D01*
X51400000Y-912448D02*
X51454000Y-858448D01*
X54841316Y5604000D02*
X55900000Y6662684D01*
X51454000Y637552D02*
X54404000Y3587552D01*
X54404000Y5604000D02*
X54841316Y5604000D01*
X51454000Y-858448D02*
X51454000Y637552D01*
X50889896Y-2981000D02*
X51400000Y-2470896D01*
G04 #@! TO.N,Net-(Q1-G)*
X37505000Y255000D02*
X37600000Y160000D01*
X35415000Y-830000D02*
X36500000Y255000D01*
X36500000Y255000D02*
X37505000Y255000D01*
X34700000Y-830000D02*
X35415000Y-830000D01*
G04 #@! TO.N,EN_ADC*
X46242316Y-1400000D02*
X44032000Y810316D01*
X47850000Y-3050000D02*
X47850000Y-2324312D01*
X42493880Y2500000D02*
X39900000Y2500000D01*
X44032000Y961880D02*
X42493880Y2500000D01*
X44032000Y810316D02*
X44032000Y961880D01*
X38500000Y-600000D02*
X37800000Y-600000D01*
X46925688Y-1400000D02*
X46242316Y-1400000D01*
X47850000Y-2324312D02*
X46925688Y-1400000D01*
X37800000Y-600000D02*
X37600000Y-800000D01*
G04 #@! TO.N,Net-(Q1-D)*
X36100000Y-895000D02*
X36100000Y-1310000D01*
X36100000Y-1310000D02*
X35590000Y-1820000D01*
G04 #@! TO.N,ADC*
X42030000Y-3680000D02*
X42000000Y-3710000D01*
X43000000Y-3680000D02*
X43520000Y-4200000D01*
X45100000Y-4200000D02*
X45150000Y-4250000D01*
X43000000Y-3680000D02*
X42030000Y-3680000D01*
X43520000Y-4200000D02*
X45100000Y-4200000D01*
D50*
G04 #@! TO.N,OUT*
X38580600Y4420600D02*
X38580600Y5162604D01*
X37960000Y3800000D02*
X38000000Y3840000D01*
D46*
X39197500Y8985000D02*
X39262500Y9050000D01*
D50*
X38580600Y5162604D02*
X38043204Y5700000D01*
X36537500Y3800000D02*
X37960000Y3800000D01*
X38000000Y2150000D02*
X37850000Y2000000D01*
X38000000Y3840000D02*
X38000000Y2150000D01*
X38300000Y9600000D02*
X38300000Y9495000D01*
X38300000Y9495000D02*
X37790000Y8985000D01*
D46*
X37790000Y8985000D02*
X39197500Y8985000D01*
D50*
X38043204Y5700000D02*
X38000000Y5700000D01*
X38000000Y3840000D02*
X38580600Y4420600D01*
D46*
G04 #@! TO.N,Net-(R13-Pad2)*
X37590000Y-1820000D02*
X38137000Y-1273000D01*
X39527312Y-1273000D02*
X40944312Y-2690000D01*
X38137000Y-1273000D02*
X39527312Y-1273000D01*
X36610000Y-1820000D02*
X37590000Y-1820000D01*
X40944312Y-2690000D02*
X42000000Y-2690000D01*
G04 #@! TO.N,Net-(U6-SET)*
X37800000Y7005000D02*
X39117500Y7005000D01*
X39117500Y7005000D02*
X39262500Y7150000D01*
G04 #@! TD*
G04 #@! TA.AperFunction,Conductor*
G04 #@! TO.N,GND*
G36*
X48743039Y1280315D02*
G01*
X48788794Y1227511D01*
X48800000Y1176000D01*
X48800000Y-176000D01*
X48780315Y-243039D01*
X48727511Y-288794D01*
X48676000Y-300000D01*
X46313029Y-300000D01*
X46256735Y-286485D01*
X46209661Y-262499D01*
X46209658Y-262498D01*
X46100002Y-245131D01*
X46099998Y-245131D01*
X45990341Y-262498D01*
X45990338Y-262499D01*
X45943265Y-286485D01*
X45886971Y-300000D01*
X45524000Y-300000D01*
X45456961Y-280315D01*
X45411206Y-227511D01*
X45400000Y-176000D01*
X45400000Y1176000D01*
X45419685Y1243039D01*
X45472489Y1288794D01*
X45524000Y1300000D01*
X48676000Y1300000D01*
X48743039Y1280315D01*
G37*
G04 #@! TD.AperFunction*
G04 #@! TD*
G04 #@! TA.AperFunction,Conductor*
G04 #@! TO.N,Earth*
G36*
X47747547Y9680315D02*
G01*
X47793302Y9627511D01*
X47804423Y9580589D01*
X47899999Y7000000D01*
X47900000Y7000000D01*
X48776000Y7000000D01*
X48843039Y6980315D01*
X48888794Y6927511D01*
X48900000Y6876000D01*
X48900000Y1924000D01*
X48880315Y1856961D01*
X48827511Y1811206D01*
X48776000Y1800000D01*
X46824000Y1800000D01*
X46756961Y1819685D01*
X46711206Y1872489D01*
X46700000Y1924000D01*
X46700000Y3441434D01*
X47622500Y3441434D01*
X47622500Y2333567D01*
X47625192Y2310366D01*
X47625192Y2310364D01*
X47667095Y2215462D01*
X47667097Y2215458D01*
X47740458Y2142097D01*
X47835366Y2100192D01*
X47858568Y2097500D01*
X47858569Y2097500D01*
X48241431Y2097500D01*
X48241432Y2097500D01*
X48264634Y2100192D01*
X48359542Y2142097D01*
X48432903Y2215458D01*
X48474808Y2310366D01*
X48477500Y2333568D01*
X48477500Y3441432D01*
X48474808Y3464634D01*
X48432903Y3559542D01*
X48359542Y3632903D01*
X48359539Y3632905D01*
X48359538Y3632905D01*
X48264635Y3674808D01*
X48241433Y3677500D01*
X48241432Y3677500D01*
X47876862Y3677500D01*
X47841791Y3687798D01*
X47807637Y3662565D01*
X47740461Y3632905D01*
X47740456Y3632902D01*
X47667098Y3559544D01*
X47667095Y3559539D01*
X47625192Y3464637D01*
X47625192Y3464635D01*
X47622500Y3441434D01*
X46700000Y3441434D01*
X46700000Y3776000D01*
X46719685Y3843039D01*
X46772489Y3888794D01*
X46824000Y3900000D01*
X47757552Y3900000D01*
X47790364Y3890365D01*
X47800000Y3900000D01*
X47800000Y4103736D01*
X47802382Y4127924D01*
X47807500Y4153652D01*
X47807500Y4546348D01*
X47802383Y4572075D01*
X47800000Y4596266D01*
X47800000Y5500000D01*
X46321083Y5500000D01*
X46254044Y5519685D01*
X46208289Y5572489D01*
X46197118Y5621048D01*
X46103023Y9573048D01*
X46121106Y9640537D01*
X46172806Y9687536D01*
X46226988Y9700000D01*
X47680508Y9700000D01*
X47747547Y9680315D01*
G37*
G04 #@! TD.AperFunction*
G04 #@! TD*
G04 #@! TA.AperFunction,Conductor*
G04 #@! TO.N,GND*
G36*
X35680186Y6280315D02*
G01*
X35725941Y6227511D01*
X35729681Y6218376D01*
X35782475Y6073192D01*
X35786886Y6003462D01*
X35779376Y5980730D01*
X35750192Y5914634D01*
X35747500Y5891434D01*
X35747500Y5508567D01*
X35750192Y5485366D01*
X35750192Y5485364D01*
X35792095Y5390462D01*
X35792097Y5390458D01*
X35865458Y5317097D01*
X35960366Y5275192D01*
X35983568Y5272500D01*
X35983569Y5272500D01*
X35986783Y5272500D01*
X36053822Y5252815D01*
X36098947Y5200738D01*
X36100000Y5200000D01*
X37176000Y5200000D01*
X37243039Y5180315D01*
X37288794Y5127511D01*
X37300000Y5076000D01*
X37300000Y4424000D01*
X37280315Y4356961D01*
X37227511Y4311206D01*
X37176000Y4300000D01*
X36100000Y4300000D01*
X36084042Y4286757D01*
X36073670Y4266385D01*
X36013339Y4231145D01*
X35987123Y4227944D01*
X35987127Y4227913D01*
X35987124Y4227913D01*
X35987136Y4227706D01*
X35983566Y4227500D01*
X35960365Y4224808D01*
X35960363Y4224808D01*
X35865461Y4182905D01*
X35865456Y4182902D01*
X35792098Y4109544D01*
X35792095Y4109539D01*
X35750192Y4014637D01*
X35750192Y4014635D01*
X35747500Y3991434D01*
X35747500Y3608567D01*
X35750192Y3585366D01*
X35750192Y3585364D01*
X35792095Y3490462D01*
X35792098Y3490457D01*
X35873583Y3408972D01*
X35871413Y3406803D01*
X35904086Y3366777D01*
X35911992Y3297356D01*
X35911702Y3295751D01*
X35818965Y2801148D01*
X35787263Y2738885D01*
X35726932Y2703645D01*
X35697089Y2700000D01*
X35337966Y2700000D01*
X35270927Y2719685D01*
X35225172Y2772489D01*
X35215228Y2841647D01*
X35218990Y2858938D01*
X35227133Y2886670D01*
X35232411Y2923384D01*
X35232500Y2924000D01*
X35232500Y5076000D01*
X35229472Y5104166D01*
X35218266Y5155677D01*
X35218265Y5155679D01*
X35218265Y5155680D01*
X35213116Y5165967D01*
X35200000Y5221470D01*
X35200000Y6176000D01*
X35219685Y6243039D01*
X35272489Y6288794D01*
X35324000Y6300000D01*
X35613147Y6300000D01*
X35680186Y6280315D01*
G37*
G04 #@! TD.AperFunction*
G04 #@! TD*
G04 #@! TA.AperFunction,Conductor*
G04 #@! TO.N,+3.3V*
G36*
X35043039Y5180315D02*
G01*
X35088794Y5127511D01*
X35100000Y5076000D01*
X35100000Y2924000D01*
X35080315Y2856961D01*
X35027511Y2811206D01*
X34976000Y2800000D01*
X33443523Y2800000D01*
X33376484Y2819685D01*
X33330729Y2872489D01*
X33319523Y2923702D01*
X33314356Y5075702D01*
X33333880Y5142789D01*
X33386574Y5188670D01*
X33438356Y5200000D01*
X34976000Y5200000D01*
X35043039Y5180315D01*
G37*
G04 #@! TD.AperFunction*
G04 #@! TD*
M02*
