G04 #@! TF.GenerationSoftware,KiCad,Pcbnew,8.0.3*
G04 #@! TF.CreationDate,2024-06-26T13:16:16+02:00*
G04 #@! TF.ProjectId,ESP32-C3-V2,45535033-322d-4433-932d-56322e6b6963,rev?*
G04 #@! TF.SameCoordinates,Original*
G04 #@! TF.FileFunction,Legend,Top*
G04 #@! TF.FilePolarity,Positive*
%FSLAX46Y46*%
G04 Gerber Fmt 4.6, Leading zero omitted, Abs format (unit mm)*
G04 Created by KiCad (PCBNEW 8.0.3) date 2024-06-26 13:16:16*
%MOMM*%
%LPD*%
G01*
G04 APERTURE LIST*
%ADD10C,0.300000*%
%ADD11C,0.200000*%
%ADD12C,0.150000*%
%ADD13C,0.120000*%
G04 APERTURE END LIST*
D10*
X47645489Y5370600D02*
X46502632Y5370600D01*
X45445489Y5370600D02*
X44302632Y5370600D01*
X44874060Y4799172D02*
X44874060Y5942029D01*
D11*
G36*
X37177068Y7090661D02*
G01*
X37178108Y6641814D01*
X37160337Y6632587D01*
X37017008Y6631276D01*
X36957265Y6660017D01*
X36931491Y6684676D01*
X36900493Y6744380D01*
X36898992Y6982800D01*
X36927860Y7042807D01*
X36952522Y7068584D01*
X37012341Y7099643D01*
X37155671Y7100954D01*
X37177068Y7090661D01*
G37*
G36*
X35645261Y6814519D02*
G01*
X35653859Y6815131D01*
X35654472Y6641904D01*
X35636598Y6632624D01*
X35445736Y6631200D01*
X35399064Y6653654D01*
X35376455Y6697199D01*
X35375643Y6745664D01*
X35397688Y6791487D01*
X35440841Y6813892D01*
X35642628Y6815397D01*
X35645261Y6814519D01*
G37*
G36*
X37487927Y5988337D02*
G01*
X33160943Y5988337D01*
X33160943Y7104210D01*
X33272054Y7104210D01*
X33273681Y6966637D01*
X33272172Y6956492D01*
X33273943Y6944514D01*
X33273975Y6941844D01*
X33274539Y6940481D01*
X33275040Y6937099D01*
X33322544Y6754020D01*
X33323224Y6744464D01*
X33328815Y6729852D01*
X33329254Y6728163D01*
X33329684Y6727583D01*
X33330230Y6726156D01*
X33379566Y6631134D01*
X33384144Y6620082D01*
X33387302Y6616234D01*
X33388292Y6614328D01*
X33390286Y6612599D01*
X33396581Y6604929D01*
X33482526Y6521098D01*
X33483531Y6519088D01*
X33493055Y6510828D01*
X33506972Y6497253D01*
X33510291Y6495878D01*
X33513007Y6493523D01*
X33530907Y6485532D01*
X33673991Y6439626D01*
X33685878Y6434702D01*
X33690870Y6434211D01*
X33692879Y6433566D01*
X33695513Y6433754D01*
X33705387Y6432781D01*
X33801529Y6434391D01*
X33813132Y6433566D01*
X33817968Y6434666D01*
X33820134Y6434702D01*
X33822576Y6435714D01*
X33832248Y6437913D01*
X33960625Y6482322D01*
X33962992Y6482322D01*
X33974984Y6487290D01*
X33993005Y6493523D01*
X33995720Y6495878D01*
X33999040Y6497253D01*
X34014193Y6509690D01*
X34074249Y6572463D01*
X34089180Y6608512D01*
X34089179Y6647530D01*
X34074248Y6683578D01*
X34046657Y6711168D01*
X34010609Y6726099D01*
X33971591Y6726098D01*
X33935543Y6711167D01*
X33920389Y6698730D01*
X33891059Y6668073D01*
X33788448Y6632578D01*
X33724961Y6631515D01*
X33618221Y6665760D01*
X33551082Y6731248D01*
X33515461Y6799855D01*
X33471982Y6967420D01*
X33470576Y7086227D01*
X33510816Y7253500D01*
X33546738Y7328170D01*
X33614045Y7397176D01*
X33717563Y7432985D01*
X33781049Y7434048D01*
X33888230Y7399661D01*
X33935543Y7354396D01*
X33971592Y7339465D01*
X34010610Y7339465D01*
X34046658Y7354396D01*
X34074248Y7381986D01*
X34089179Y7418034D01*
X34089179Y7457052D01*
X34074248Y7493101D01*
X34061811Y7508254D01*
X34036174Y7532781D01*
X34319673Y7532781D01*
X34321594Y6513272D01*
X34336526Y6477224D01*
X34364116Y6449634D01*
X34400164Y6434702D01*
X34439182Y6434702D01*
X34475230Y6449634D01*
X34502820Y6477224D01*
X34517752Y6513272D01*
X34519673Y6532781D01*
X34518673Y7063069D01*
X34523950Y7068584D01*
X34583881Y7099701D01*
X34679728Y7100835D01*
X34725996Y7078576D01*
X34748318Y7035584D01*
X34750165Y6513272D01*
X34765097Y6477224D01*
X34792687Y6449634D01*
X34828735Y6434702D01*
X34867753Y6434702D01*
X34903801Y6449634D01*
X34931391Y6477224D01*
X34946323Y6513272D01*
X34948244Y6532781D01*
X34947402Y6770877D01*
X35176816Y6770877D01*
X35178172Y6689861D01*
X35177601Y6688147D01*
X35178385Y6677103D01*
X35178737Y6656130D01*
X35180112Y6652810D01*
X35180367Y6649227D01*
X35187373Y6630918D01*
X35234410Y6540323D01*
X35237559Y6530877D01*
X35241933Y6525833D01*
X35245435Y6519089D01*
X35254906Y6510875D01*
X35263123Y6501400D01*
X35272993Y6495188D01*
X35274911Y6493524D01*
X35276451Y6493011D01*
X35279714Y6490957D01*
X35362731Y6451019D01*
X35364116Y6449634D01*
X35374865Y6445182D01*
X35393260Y6436332D01*
X35396843Y6436078D01*
X35400164Y6434702D01*
X35419673Y6432781D01*
X35642628Y6434444D01*
X35645261Y6433566D01*
X35659366Y6434569D01*
X35677277Y6434702D01*
X35680597Y6436078D01*
X35684181Y6436332D01*
X35702489Y6443338D01*
X35706997Y6445679D01*
X35733497Y6434702D01*
X35772515Y6434702D01*
X35808563Y6449634D01*
X35836153Y6477224D01*
X35851085Y6513272D01*
X35853006Y6532781D01*
X35851542Y6946813D01*
X35852220Y6948846D01*
X35851499Y6958995D01*
X35851208Y7041048D01*
X35852221Y7044084D01*
X35851144Y7059230D01*
X35851085Y7076100D01*
X35849709Y7079421D01*
X35849455Y7083004D01*
X35842449Y7101313D01*
X35795409Y7191911D01*
X35792897Y7199448D01*
X36129197Y7199448D01*
X36131118Y6513272D01*
X36146050Y6477224D01*
X36173640Y6449634D01*
X36209688Y6434702D01*
X36248706Y6434702D01*
X36284754Y6449634D01*
X36312344Y6477224D01*
X36327276Y6513272D01*
X36329197Y6532781D01*
X36327934Y6983572D01*
X36340154Y7008972D01*
X36700626Y7008972D01*
X36702328Y6738517D01*
X36701411Y6735765D01*
X36702436Y6721339D01*
X36702547Y6703749D01*
X36703922Y6700429D01*
X36704177Y6696845D01*
X36711183Y6678537D01*
X36760520Y6583513D01*
X36765097Y6572463D01*
X36768255Y6568615D01*
X36769245Y6566709D01*
X36771239Y6564980D01*
X36777534Y6557310D01*
X36827634Y6509377D01*
X36834552Y6501400D01*
X36838701Y6498789D01*
X36840306Y6497253D01*
X36842746Y6496243D01*
X36851143Y6490957D01*
X36934160Y6451019D01*
X36935545Y6449634D01*
X36946294Y6445182D01*
X36964689Y6436332D01*
X36968272Y6436078D01*
X36971593Y6434702D01*
X36991102Y6432781D01*
X37166609Y6434387D01*
X37169071Y6433566D01*
X37178589Y6434243D01*
X37178630Y6416472D01*
X37149580Y6356088D01*
X37124922Y6330315D01*
X37064987Y6299196D01*
X36969141Y6298062D01*
X36874658Y6343516D01*
X36835738Y6346282D01*
X36798722Y6333943D01*
X36769245Y6308379D01*
X36751796Y6273480D01*
X36749030Y6234560D01*
X36761369Y6197544D01*
X36786933Y6168067D01*
X36803524Y6157624D01*
X36886541Y6117686D01*
X36887926Y6116301D01*
X36898675Y6111849D01*
X36917070Y6102999D01*
X36920653Y6102745D01*
X36923974Y6101369D01*
X36943483Y6099448D01*
X37071639Y6100965D01*
X37073833Y6100233D01*
X37086615Y6101142D01*
X37105849Y6101369D01*
X37109169Y6102745D01*
X37112753Y6102999D01*
X37131061Y6110005D01*
X37226090Y6159346D01*
X37237135Y6163920D01*
X37240981Y6167077D01*
X37242889Y6168067D01*
X37244618Y6170062D01*
X37252289Y6176356D01*
X37300222Y6226459D01*
X37308197Y6233374D01*
X37310808Y6237524D01*
X37312344Y6239128D01*
X37313354Y6241569D01*
X37318640Y6249965D01*
X37358578Y6332983D01*
X37359963Y6334367D01*
X37364415Y6345117D01*
X37373265Y6363511D01*
X37373519Y6367095D01*
X37374895Y6370415D01*
X37376816Y6389924D01*
X37375053Y7150590D01*
X37376030Y7164336D01*
X37375014Y7167383D01*
X37374895Y7218957D01*
X37359963Y7255005D01*
X37332373Y7282595D01*
X37296325Y7297527D01*
X37257307Y7297527D01*
X37229197Y7285884D01*
X37226385Y7287048D01*
X37207991Y7295897D01*
X37204407Y7296152D01*
X37201087Y7297527D01*
X37181578Y7299448D01*
X37006070Y7297843D01*
X37003609Y7298663D01*
X36989993Y7297696D01*
X36971593Y7297527D01*
X36968272Y7296152D01*
X36964689Y7295897D01*
X36946380Y7288891D01*
X36851346Y7239549D01*
X36840306Y7234976D01*
X36836460Y7231821D01*
X36834552Y7230829D01*
X36832819Y7228832D01*
X36825153Y7222539D01*
X36777221Y7172439D01*
X36769245Y7165521D01*
X36766632Y7161372D01*
X36765098Y7159767D01*
X36764087Y7157328D01*
X36758802Y7148931D01*
X36718863Y7065914D01*
X36717479Y7064529D01*
X36713026Y7053780D01*
X36704177Y7035385D01*
X36703922Y7031802D01*
X36702547Y7028481D01*
X36700626Y7008972D01*
X36340154Y7008972D01*
X36356431Y7042807D01*
X36381093Y7068584D01*
X36441232Y7099809D01*
X36534420Y7101369D01*
X36570468Y7116301D01*
X36598058Y7143891D01*
X36612990Y7179939D01*
X36612990Y7218957D01*
X36598058Y7255005D01*
X36570468Y7282595D01*
X36534420Y7297527D01*
X36514911Y7299448D01*
X36433893Y7298092D01*
X36432180Y7298663D01*
X36421135Y7297879D01*
X36400164Y7297527D01*
X36396843Y7296152D01*
X36393260Y7295897D01*
X36374951Y7288891D01*
X36311435Y7255914D01*
X36284754Y7282595D01*
X36248706Y7297527D01*
X36209688Y7297527D01*
X36173640Y7282595D01*
X36146050Y7255005D01*
X36131118Y7218957D01*
X36129197Y7199448D01*
X35792897Y7199448D01*
X35792263Y7201352D01*
X35787890Y7206395D01*
X35784387Y7213141D01*
X35774911Y7221359D01*
X35766698Y7230829D01*
X35756826Y7237043D01*
X35754910Y7238705D01*
X35753371Y7239219D01*
X35750108Y7241272D01*
X35667090Y7281211D01*
X35665706Y7282595D01*
X35654956Y7287048D01*
X35636562Y7295897D01*
X35632978Y7296152D01*
X35629658Y7297527D01*
X35610149Y7299448D01*
X35434641Y7297843D01*
X35432180Y7298663D01*
X35418564Y7297696D01*
X35400164Y7297527D01*
X35396843Y7296152D01*
X35393260Y7295897D01*
X35374951Y7288891D01*
X35263123Y7230829D01*
X35237559Y7201352D01*
X35225220Y7164336D01*
X35227986Y7125416D01*
X35245435Y7090517D01*
X35274912Y7064953D01*
X35311928Y7052614D01*
X35350848Y7055380D01*
X35369156Y7062386D01*
X35440912Y7099643D01*
X35584242Y7100954D01*
X35630758Y7078576D01*
X35653080Y7035584D01*
X35653127Y7022159D01*
X35636598Y7013577D01*
X35434812Y7012072D01*
X35432180Y7012949D01*
X35418074Y7011947D01*
X35400164Y7011813D01*
X35396843Y7010438D01*
X35393260Y7010183D01*
X35374951Y7003177D01*
X35284353Y6956138D01*
X35274912Y6952991D01*
X35269869Y6948619D01*
X35263123Y6945115D01*
X35254905Y6935640D01*
X35245435Y6927426D01*
X35239221Y6917555D01*
X35237559Y6915638D01*
X35237045Y6914100D01*
X35234992Y6910836D01*
X35195053Y6827819D01*
X35193669Y6826434D01*
X35189216Y6815685D01*
X35180367Y6797290D01*
X35180112Y6793707D01*
X35178737Y6790386D01*
X35176816Y6770877D01*
X34947402Y6770877D01*
X34946446Y7041048D01*
X34947459Y7044084D01*
X34946382Y7059230D01*
X34946323Y7076100D01*
X34944947Y7079421D01*
X34944693Y7083004D01*
X34937687Y7101313D01*
X34890647Y7191911D01*
X34887501Y7201352D01*
X34883128Y7206395D01*
X34879625Y7213141D01*
X34870149Y7221359D01*
X34861936Y7230829D01*
X34852064Y7237043D01*
X34850148Y7238705D01*
X34848609Y7239219D01*
X34845346Y7241272D01*
X34762328Y7281211D01*
X34760944Y7282595D01*
X34750194Y7287048D01*
X34731800Y7295897D01*
X34728216Y7296152D01*
X34724896Y7297527D01*
X34705387Y7299448D01*
X34577230Y7297932D01*
X34575037Y7298663D01*
X34562254Y7297755D01*
X34543021Y7297527D01*
X34539700Y7296152D01*
X34536117Y7295897D01*
X34518247Y7289060D01*
X34517752Y7552290D01*
X34502820Y7588338D01*
X34475230Y7615928D01*
X34439182Y7630860D01*
X34400164Y7630860D01*
X34364116Y7615928D01*
X34336526Y7588338D01*
X34321594Y7552290D01*
X34319673Y7532781D01*
X34036174Y7532781D01*
X34023048Y7545339D01*
X34022481Y7546474D01*
X34015855Y7552221D01*
X33999039Y7568309D01*
X33995720Y7569684D01*
X33993005Y7572039D01*
X33975104Y7580030D01*
X33832024Y7625935D01*
X33820134Y7630860D01*
X33815140Y7631352D01*
X33813132Y7631996D01*
X33810498Y7631809D01*
X33800625Y7632781D01*
X33704481Y7631172D01*
X33692879Y7631996D01*
X33688043Y7630897D01*
X33685878Y7630860D01*
X33683436Y7629849D01*
X33673764Y7627649D01*
X33545390Y7583241D01*
X33543021Y7583241D01*
X33531024Y7578272D01*
X33513007Y7572039D01*
X33510291Y7569684D01*
X33506973Y7568309D01*
X33491819Y7555873D01*
X33397802Y7459484D01*
X33388292Y7451235D01*
X33385625Y7446999D01*
X33384145Y7445481D01*
X33383134Y7443042D01*
X33377849Y7434645D01*
X33334420Y7344374D01*
X33329254Y7337400D01*
X33324026Y7322768D01*
X33323224Y7321099D01*
X33323172Y7320377D01*
X33322659Y7318939D01*
X33278079Y7133629D01*
X33273975Y7123719D01*
X33272782Y7111610D01*
X33272172Y7109071D01*
X33272389Y7107613D01*
X33272054Y7104210D01*
X33160943Y7104210D01*
X33160943Y7743892D01*
X37487927Y7743892D01*
X37487927Y5988337D01*
G37*
G36*
X39789221Y7072214D02*
G01*
X39814998Y7047552D01*
X39845995Y6987852D01*
X39847496Y6749431D01*
X39818628Y6689424D01*
X39793966Y6663646D01*
X39734034Y6632529D01*
X39638188Y6631395D01*
X39578693Y6660017D01*
X39552919Y6684676D01*
X39521921Y6744380D01*
X39520420Y6982800D01*
X39549288Y7042807D01*
X39573950Y7068584D01*
X39633881Y7099701D01*
X39729728Y7100835D01*
X39789221Y7072214D01*
G37*
G36*
X41728377Y7078576D02*
G01*
X41747202Y7042318D01*
X41472944Y6986380D01*
X41472733Y7030279D01*
X41495307Y7077201D01*
X41538531Y7099643D01*
X41681861Y7100954D01*
X41728377Y7078576D01*
G37*
G36*
X38884459Y7405547D02*
G01*
X38910236Y7380885D01*
X38941353Y7320954D01*
X38942487Y7225107D01*
X38913865Y7165612D01*
X38889207Y7139839D01*
X38829564Y7108871D01*
X38568589Y7107620D01*
X38567976Y7433253D01*
X38824312Y7434483D01*
X38884459Y7405547D01*
G37*
G36*
X42774101Y6321670D02*
G01*
X38258562Y6321670D01*
X38258562Y7532781D01*
X38369673Y7532781D01*
X38371594Y6513272D01*
X38386526Y6477224D01*
X38414116Y6449634D01*
X38450164Y6434702D01*
X38489182Y6434702D01*
X38525230Y6449634D01*
X38552820Y6477224D01*
X38567752Y6513272D01*
X38569673Y6532781D01*
X38568963Y6909449D01*
X38835212Y6910726D01*
X38838118Y6909757D01*
X38852942Y6910811D01*
X38870134Y6910893D01*
X38873454Y6912269D01*
X38877038Y6912523D01*
X38895346Y6919529D01*
X38990375Y6968870D01*
X39001420Y6973444D01*
X39005266Y6976601D01*
X39007174Y6977591D01*
X39008903Y6979586D01*
X39016574Y6985880D01*
X39038666Y7008972D01*
X39322054Y7008972D01*
X39323756Y6738517D01*
X39322839Y6735765D01*
X39323864Y6721339D01*
X39323975Y6703749D01*
X39325350Y6700429D01*
X39325605Y6696845D01*
X39332611Y6678537D01*
X39381948Y6583513D01*
X39386525Y6572463D01*
X39389683Y6568615D01*
X39390673Y6566709D01*
X39392667Y6564980D01*
X39398962Y6557310D01*
X39449062Y6509377D01*
X39455980Y6501400D01*
X39460129Y6498789D01*
X39461734Y6497253D01*
X39464174Y6496243D01*
X39472571Y6490957D01*
X39555588Y6451019D01*
X39556973Y6449634D01*
X39567722Y6445182D01*
X39586117Y6436332D01*
X39589700Y6436078D01*
X39593021Y6434702D01*
X39612530Y6432781D01*
X39740686Y6434298D01*
X39742880Y6433566D01*
X39755662Y6434475D01*
X39774896Y6434702D01*
X39778216Y6436078D01*
X39781800Y6436332D01*
X39800108Y6443338D01*
X39895136Y6492678D01*
X39906183Y6497253D01*
X39910029Y6500411D01*
X39911936Y6501400D01*
X39913666Y6503395D01*
X39921336Y6509690D01*
X39969269Y6559793D01*
X39977244Y6566708D01*
X39979855Y6570858D01*
X39981392Y6572463D01*
X39982403Y6574905D01*
X39987687Y6583299D01*
X40027625Y6666317D01*
X40029010Y6667701D01*
X40033462Y6678451D01*
X40042312Y6696845D01*
X40042566Y6700429D01*
X40043942Y6703749D01*
X40045863Y6723258D01*
X40044160Y6993714D01*
X40045078Y6996465D01*
X40044052Y7010892D01*
X40043942Y7028481D01*
X40042566Y7031802D01*
X40042312Y7035385D01*
X40035306Y7053694D01*
X39985963Y7148728D01*
X39981391Y7159768D01*
X39978235Y7163614D01*
X39977244Y7165522D01*
X39975246Y7167255D01*
X39968954Y7174921D01*
X39951874Y7191262D01*
X40179532Y7191262D01*
X40183045Y7171976D01*
X40371766Y6518125D01*
X40371840Y6512078D01*
X40376958Y6500135D01*
X40380727Y6487078D01*
X40384697Y6482077D01*
X40387210Y6476214D01*
X40396721Y6466932D01*
X40404988Y6456519D01*
X40410565Y6453421D01*
X40415134Y6448962D01*
X40427483Y6444023D01*
X40439096Y6437571D01*
X40445431Y6436843D01*
X40451361Y6434471D01*
X40464654Y6434634D01*
X40477859Y6433116D01*
X40483998Y6434871D01*
X40490376Y6434948D01*
X40502586Y6440181D01*
X40515376Y6443835D01*
X40520377Y6447806D01*
X40526240Y6450318D01*
X40535522Y6459830D01*
X40545935Y6468096D01*
X40549033Y6473674D01*
X40553492Y6478242D01*
X40562521Y6495642D01*
X40660114Y6742205D01*
X40754736Y6508104D01*
X40755414Y6502204D01*
X40761678Y6490929D01*
X40766806Y6478242D01*
X40771264Y6473674D01*
X40774363Y6468096D01*
X40784775Y6459830D01*
X40794058Y6450318D01*
X40799921Y6447806D01*
X40804922Y6443835D01*
X40817709Y6440182D01*
X40829921Y6434948D01*
X40836299Y6434871D01*
X40842439Y6433116D01*
X40855650Y6434635D01*
X40868937Y6434472D01*
X40874860Y6436842D01*
X40881202Y6437570D01*
X40892825Y6444028D01*
X40905164Y6448963D01*
X40909730Y6453420D01*
X40915310Y6456519D01*
X40923577Y6466933D01*
X40933088Y6476214D01*
X40935600Y6482077D01*
X40939571Y6487078D01*
X40946777Y6505309D01*
X41102681Y7056591D01*
X41274435Y7056591D01*
X41275327Y6870522D01*
X41274435Y6866010D01*
X41275371Y6861327D01*
X41276188Y6691053D01*
X41275220Y6688147D01*
X41276273Y6673323D01*
X41276356Y6656130D01*
X41277731Y6652810D01*
X41277986Y6649227D01*
X41284992Y6630918D01*
X41332029Y6540323D01*
X41335178Y6530877D01*
X41339552Y6525833D01*
X41343054Y6519089D01*
X41352525Y6510875D01*
X41360742Y6501400D01*
X41370612Y6495188D01*
X41372530Y6493524D01*
X41374070Y6493011D01*
X41377333Y6490957D01*
X41460350Y6451019D01*
X41461735Y6449634D01*
X41472484Y6445182D01*
X41490879Y6436332D01*
X41494462Y6436078D01*
X41497783Y6434702D01*
X41517292Y6432781D01*
X41692799Y6434387D01*
X41695261Y6433566D01*
X41708876Y6434534D01*
X41727277Y6434702D01*
X41730597Y6436078D01*
X41734181Y6436332D01*
X41752489Y6443338D01*
X41864317Y6501400D01*
X41889882Y6530877D01*
X41902220Y6567893D01*
X41899455Y6606813D01*
X41882006Y6641711D01*
X41852529Y6667276D01*
X41815513Y6679615D01*
X41776593Y6676849D01*
X41758284Y6669843D01*
X41686527Y6632587D01*
X41543198Y6631276D01*
X41496683Y6653654D01*
X41474333Y6696698D01*
X41473913Y6784347D01*
X41860891Y6863274D01*
X41870134Y6863274D01*
X41879099Y6866988D01*
X41888990Y6869005D01*
X41897130Y6874457D01*
X41906182Y6878206D01*
X41913183Y6885208D01*
X41921409Y6890716D01*
X41926843Y6898868D01*
X41933772Y6905796D01*
X41937561Y6914944D01*
X41943053Y6923181D01*
X41944954Y6932792D01*
X41948704Y6941844D01*
X41950625Y6961353D01*
X41950623Y6961450D01*
X41950625Y6961458D01*
X41950623Y6961468D01*
X41949268Y7042371D01*
X41949840Y7044084D01*
X41949055Y7055129D01*
X41948704Y7076100D01*
X41947328Y7079421D01*
X41947074Y7083004D01*
X41940068Y7101313D01*
X41893028Y7191911D01*
X41890516Y7199448D01*
X42179197Y7199448D01*
X42181118Y6513272D01*
X42196050Y6477224D01*
X42223640Y6449634D01*
X42259688Y6434702D01*
X42298706Y6434702D01*
X42334754Y6449634D01*
X42362344Y6477224D01*
X42377276Y6513272D01*
X42379197Y6532781D01*
X42377934Y6983572D01*
X42406431Y7042807D01*
X42431093Y7068584D01*
X42491232Y7099809D01*
X42584420Y7101369D01*
X42620468Y7116301D01*
X42648058Y7143891D01*
X42662990Y7179939D01*
X42662990Y7218957D01*
X42648058Y7255005D01*
X42620468Y7282595D01*
X42584420Y7297527D01*
X42564911Y7299448D01*
X42483893Y7298092D01*
X42482180Y7298663D01*
X42471135Y7297879D01*
X42450164Y7297527D01*
X42446843Y7296152D01*
X42443260Y7295897D01*
X42424951Y7288891D01*
X42361435Y7255914D01*
X42334754Y7282595D01*
X42298706Y7297527D01*
X42259688Y7297527D01*
X42223640Y7282595D01*
X42196050Y7255005D01*
X42181118Y7218957D01*
X42179197Y7199448D01*
X41890516Y7199448D01*
X41889882Y7201352D01*
X41885509Y7206395D01*
X41882006Y7213141D01*
X41872530Y7221359D01*
X41864317Y7230829D01*
X41854445Y7237043D01*
X41852529Y7238705D01*
X41850990Y7239219D01*
X41847727Y7241272D01*
X41764709Y7281211D01*
X41763325Y7282595D01*
X41752575Y7287048D01*
X41734181Y7295897D01*
X41730597Y7296152D01*
X41727277Y7297527D01*
X41707768Y7299448D01*
X41532260Y7297843D01*
X41529799Y7298663D01*
X41516183Y7297696D01*
X41497783Y7297527D01*
X41494462Y7296152D01*
X41490879Y7295897D01*
X41472570Y7288891D01*
X41381972Y7241852D01*
X41372531Y7238705D01*
X41367488Y7234333D01*
X41360742Y7230829D01*
X41352524Y7221354D01*
X41343054Y7213140D01*
X41336840Y7203269D01*
X41335178Y7201352D01*
X41334664Y7199814D01*
X41332611Y7196550D01*
X41292672Y7113533D01*
X41291288Y7112148D01*
X41286835Y7101399D01*
X41277986Y7083004D01*
X41277731Y7079421D01*
X41276356Y7076100D01*
X41274435Y7056591D01*
X41102681Y7056591D01*
X41140766Y7191262D01*
X41136311Y7230025D01*
X41117363Y7264133D01*
X41086804Y7288394D01*
X41049287Y7299113D01*
X41010524Y7294658D01*
X40976416Y7275710D01*
X40952155Y7245151D01*
X40944949Y7226920D01*
X40835025Y6838227D01*
X40757992Y7028814D01*
X40757982Y7029675D01*
X40752042Y7043535D01*
X40743968Y7063511D01*
X40743099Y7064401D01*
X40742612Y7065539D01*
X40729515Y7078320D01*
X40716716Y7091435D01*
X40715575Y7091924D01*
X40714688Y7092790D01*
X40697674Y7099596D01*
X40680852Y7106805D01*
X40679613Y7106821D01*
X40678461Y7107281D01*
X40660170Y7107058D01*
X40641837Y7107282D01*
X40640682Y7106821D01*
X40639445Y7106805D01*
X40622650Y7099608D01*
X40605610Y7092791D01*
X40604720Y7091923D01*
X40603582Y7091435D01*
X40590791Y7078330D01*
X40577686Y7065539D01*
X40577198Y7064401D01*
X40576330Y7063511D01*
X40567301Y7046111D01*
X40485350Y6839071D01*
X40368143Y7245151D01*
X40343882Y7275710D01*
X40309774Y7294659D01*
X40271011Y7299113D01*
X40233494Y7288394D01*
X40202935Y7264133D01*
X40183986Y7230025D01*
X40179532Y7191262D01*
X39951874Y7191262D01*
X39918853Y7222853D01*
X39911936Y7230829D01*
X39907786Y7233442D01*
X39906182Y7234976D01*
X39903742Y7235987D01*
X39895346Y7241272D01*
X39812328Y7281211D01*
X39810944Y7282595D01*
X39800194Y7287048D01*
X39781800Y7295897D01*
X39778216Y7296152D01*
X39774896Y7297527D01*
X39755387Y7299448D01*
X39627230Y7297932D01*
X39625037Y7298663D01*
X39612254Y7297755D01*
X39593021Y7297527D01*
X39589700Y7296152D01*
X39586117Y7295897D01*
X39567808Y7288891D01*
X39472774Y7239549D01*
X39461734Y7234976D01*
X39457888Y7231821D01*
X39455980Y7230829D01*
X39454247Y7228832D01*
X39446581Y7222539D01*
X39398649Y7172439D01*
X39390673Y7165521D01*
X39388060Y7161372D01*
X39386526Y7159767D01*
X39385515Y7157328D01*
X39380230Y7148931D01*
X39340291Y7065914D01*
X39338907Y7064529D01*
X39334455Y7053781D01*
X39325605Y7035385D01*
X39325350Y7031802D01*
X39323975Y7028481D01*
X39322054Y7008972D01*
X39038666Y7008972D01*
X39064507Y7035983D01*
X39072482Y7042898D01*
X39075093Y7047048D01*
X39076629Y7048652D01*
X39077639Y7051093D01*
X39082925Y7059489D01*
X39122863Y7142507D01*
X39124248Y7143891D01*
X39128700Y7154641D01*
X39137550Y7173035D01*
X39137804Y7176619D01*
X39139180Y7179939D01*
X39141101Y7199448D01*
X39139584Y7327605D01*
X39140316Y7329798D01*
X39139407Y7342581D01*
X39139180Y7361814D01*
X39137804Y7365135D01*
X39137550Y7368718D01*
X39130544Y7387027D01*
X39081201Y7482061D01*
X39076629Y7493101D01*
X39073473Y7496947D01*
X39072482Y7498855D01*
X39070484Y7500588D01*
X39064192Y7508254D01*
X39014091Y7556186D01*
X39007174Y7564162D01*
X39003024Y7566775D01*
X39001420Y7568309D01*
X38998980Y7569320D01*
X38990584Y7574605D01*
X38907566Y7614544D01*
X38906182Y7615928D01*
X38895432Y7620381D01*
X38877038Y7629230D01*
X38873454Y7629485D01*
X38870134Y7630860D01*
X38850625Y7632781D01*
X38450164Y7630860D01*
X38414116Y7615928D01*
X38386526Y7588338D01*
X38371594Y7552290D01*
X38369673Y7532781D01*
X38258562Y7532781D01*
X38258562Y7743892D01*
X42774101Y7743892D01*
X42774101Y6321670D01*
G37*
D12*
X42267260Y-15223398D02*
X42315036Y-15175936D01*
X42315036Y-15175936D02*
X42410431Y-15128631D01*
X42410431Y-15128631D02*
X42648525Y-15129415D01*
X42648525Y-15129415D02*
X42743605Y-15177348D01*
X42743605Y-15177348D02*
X42791067Y-15225124D01*
X42791067Y-15225124D02*
X42838372Y-15320518D01*
X42838372Y-15320518D02*
X42838058Y-15415756D01*
X42838058Y-15415756D02*
X42789969Y-15558455D01*
X42789969Y-15558455D02*
X42216660Y-16127998D01*
X42216660Y-16127998D02*
X42835705Y-16130038D01*
X43172331Y-15131141D02*
X43838994Y-15133338D01*
X43838994Y-15133338D02*
X43407130Y-16131920D01*
X44216963Y-16039350D02*
X44264425Y-16087126D01*
X44264425Y-16087126D02*
X44216650Y-16134588D01*
X44216650Y-16134588D02*
X44169188Y-16086812D01*
X44169188Y-16086812D02*
X44216963Y-16039350D01*
X44216963Y-16039350D02*
X44216650Y-16134588D01*
X45124701Y-15137575D02*
X44934226Y-15136947D01*
X44934226Y-15136947D02*
X44838832Y-15184252D01*
X44838832Y-15184252D02*
X44791056Y-15231714D01*
X44791056Y-15231714D02*
X44695348Y-15374256D01*
X44695348Y-15374256D02*
X44647101Y-15564575D01*
X44647101Y-15564575D02*
X44645846Y-15945525D01*
X44645846Y-15945525D02*
X44693151Y-16040920D01*
X44693151Y-16040920D02*
X44740613Y-16088695D01*
X44740613Y-16088695D02*
X44835693Y-16136628D01*
X44835693Y-16136628D02*
X45026168Y-16137255D01*
X45026168Y-16137255D02*
X45121563Y-16089951D01*
X45121563Y-16089951D02*
X45169339Y-16042489D01*
X45169339Y-16042489D02*
X45217271Y-15947408D01*
X45217271Y-15947408D02*
X45218056Y-15709314D01*
X45218056Y-15709314D02*
X45170751Y-15613920D01*
X45170751Y-15613920D02*
X45123289Y-15566144D01*
X45123289Y-15566144D02*
X45028208Y-15518211D01*
X45028208Y-15518211D02*
X44837733Y-15517584D01*
X44837733Y-15517584D02*
X44742339Y-15564889D01*
X44742339Y-15564889D02*
X44694563Y-15612350D01*
X44694563Y-15612350D02*
X44646630Y-15707431D01*
X45789952Y-15568341D02*
X45694871Y-15520408D01*
X45694871Y-15520408D02*
X45647410Y-15472632D01*
X45647410Y-15472632D02*
X45600105Y-15377238D01*
X45600105Y-15377238D02*
X45600261Y-15329619D01*
X45600261Y-15329619D02*
X45648194Y-15234538D01*
X45648194Y-15234538D02*
X45695970Y-15187076D01*
X45695970Y-15187076D02*
X45791364Y-15139772D01*
X45791364Y-15139772D02*
X45981839Y-15140399D01*
X45981839Y-15140399D02*
X46076920Y-15188332D01*
X46076920Y-15188332D02*
X46124382Y-15236107D01*
X46124382Y-15236107D02*
X46171687Y-15331502D01*
X46171687Y-15331502D02*
X46171530Y-15379121D01*
X46171530Y-15379121D02*
X46123597Y-15474201D01*
X46123597Y-15474201D02*
X46075822Y-15521663D01*
X46075822Y-15521663D02*
X45980427Y-15568968D01*
X45980427Y-15568968D02*
X45789952Y-15568341D01*
X45789952Y-15568341D02*
X45694558Y-15615646D01*
X45694558Y-15615646D02*
X45646782Y-15663107D01*
X45646782Y-15663107D02*
X45598849Y-15758188D01*
X45598849Y-15758188D02*
X45598222Y-15948663D01*
X45598222Y-15948663D02*
X45645527Y-16044058D01*
X45645527Y-16044058D02*
X45692988Y-16091833D01*
X45692988Y-16091833D02*
X45788069Y-16139766D01*
X45788069Y-16139766D02*
X45978544Y-16140394D01*
X45978544Y-16140394D02*
X46073939Y-16093089D01*
X46073939Y-16093089D02*
X46121714Y-16045627D01*
X46121714Y-16045627D02*
X46169647Y-15950546D01*
X46169647Y-15950546D02*
X46170275Y-15760071D01*
X46170275Y-15760071D02*
X46122970Y-15664677D01*
X46122970Y-15664677D02*
X46075508Y-15616901D01*
X46075508Y-15616901D02*
X45980427Y-15568968D01*
X46645207Y-16142591D02*
X46835683Y-16143218D01*
X46835683Y-16143218D02*
X46931077Y-16095913D01*
X46931077Y-16095913D02*
X46978853Y-16048451D01*
X46978853Y-16048451D02*
X47074561Y-15905909D01*
X47074561Y-15905909D02*
X47122807Y-15715591D01*
X47122807Y-15715591D02*
X47124063Y-15334640D01*
X47124063Y-15334640D02*
X47076758Y-15239246D01*
X47076758Y-15239246D02*
X47029296Y-15191470D01*
X47029296Y-15191470D02*
X46934215Y-15143537D01*
X46934215Y-15143537D02*
X46743740Y-15142910D01*
X46743740Y-15142910D02*
X46648346Y-15190215D01*
X46648346Y-15190215D02*
X46600570Y-15237677D01*
X46600570Y-15237677D02*
X46552637Y-15332757D01*
X46552637Y-15332757D02*
X46551853Y-15570851D01*
X46551853Y-15570851D02*
X46599158Y-15666246D01*
X46599158Y-15666246D02*
X46646620Y-15714021D01*
X46646620Y-15714021D02*
X46741700Y-15761954D01*
X46741700Y-15761954D02*
X46932175Y-15762582D01*
X46932175Y-15762582D02*
X47027570Y-15715277D01*
X47027570Y-15715277D02*
X47075346Y-15667815D01*
X47075346Y-15667815D02*
X47123278Y-15572734D01*
X47458022Y-15145263D02*
X48124685Y-15147460D01*
X48124685Y-15147460D02*
X47692821Y-16146043D01*
X49264241Y-16151221D02*
X49266438Y-15484558D01*
X49266124Y-15579795D02*
X49313900Y-15532333D01*
X49313900Y-15532333D02*
X49409294Y-15485028D01*
X49409294Y-15485028D02*
X49552151Y-15485499D01*
X49552151Y-15485499D02*
X49647231Y-15533432D01*
X49647231Y-15533432D02*
X49694536Y-15628826D01*
X49694536Y-15628826D02*
X49692810Y-16152633D01*
X49694536Y-15628826D02*
X49742469Y-15533746D01*
X49742469Y-15533746D02*
X49837863Y-15486441D01*
X49837863Y-15486441D02*
X49980720Y-15486911D01*
X49980720Y-15486911D02*
X50075800Y-15534844D01*
X50075800Y-15534844D02*
X50123105Y-15630238D01*
X50123105Y-15630238D02*
X50121379Y-16154045D01*
X50597567Y-16155614D02*
X50599764Y-15488951D01*
X50599450Y-15584189D02*
X50647226Y-15536727D01*
X50647226Y-15536727D02*
X50742620Y-15489422D01*
X50742620Y-15489422D02*
X50885476Y-15489893D01*
X50885476Y-15489893D02*
X50980557Y-15537825D01*
X50980557Y-15537825D02*
X51027862Y-15633220D01*
X51027862Y-15633220D02*
X51026136Y-16157026D01*
X51027862Y-15633220D02*
X51075795Y-15538139D01*
X51075795Y-15538139D02*
X51171189Y-15490834D01*
X51171189Y-15490834D02*
X51314045Y-15491305D01*
X51314045Y-15491305D02*
X51409126Y-15539238D01*
X51409126Y-15539238D02*
X51456431Y-15634632D01*
X51456431Y-15634632D02*
X51454705Y-16158439D01*
X33052024Y-12008573D02*
X33034327Y-17379349D01*
X60741527Y-12099814D02*
X60723830Y-17470590D01*
X33036259Y-16792932D02*
X60725762Y-16884173D01*
X33036259Y-16792932D02*
X60725762Y-16884173D01*
X33036259Y-16792932D02*
X34164689Y-16210226D01*
X33036259Y-16792932D02*
X34160824Y-17383062D01*
X60725762Y-16884173D02*
X59597332Y-17466879D01*
X60725762Y-16884173D02*
X59601197Y-16294043D01*
X62427843Y-5059219D02*
X62380332Y-5011493D01*
X62380332Y-5011493D02*
X62332927Y-4916148D01*
X62332927Y-4916148D02*
X62333464Y-4678053D01*
X62333464Y-4678053D02*
X62381298Y-4582923D01*
X62381298Y-4582923D02*
X62429024Y-4535411D01*
X62429024Y-4535411D02*
X62524369Y-4488007D01*
X62524369Y-4488007D02*
X62619607Y-4488221D01*
X62619607Y-4488221D02*
X62762357Y-4536162D01*
X62762357Y-4536162D02*
X63332495Y-5108878D01*
X63332495Y-5108878D02*
X63333891Y-4489832D01*
X62669159Y-3631188D02*
X63335823Y-3632691D01*
X62287670Y-3868424D02*
X63001417Y-4108129D01*
X63001417Y-4108129D02*
X63002813Y-3489083D01*
X63241767Y-3108668D02*
X63289493Y-3061157D01*
X63289493Y-3061157D02*
X63337004Y-3108883D01*
X63337004Y-3108883D02*
X63289278Y-3156394D01*
X63289278Y-3156394D02*
X63241767Y-3108668D01*
X63241767Y-3108668D02*
X63337004Y-3108883D01*
X62337866Y-2725677D02*
X62339261Y-2106631D01*
X62339261Y-2106631D02*
X62719461Y-2440823D01*
X62719461Y-2440823D02*
X62719783Y-2297966D01*
X62719783Y-2297966D02*
X62767617Y-2202835D01*
X62767617Y-2202835D02*
X62815343Y-2155324D01*
X62815343Y-2155324D02*
X62910689Y-2107920D01*
X62910689Y-2107920D02*
X63148783Y-2108456D01*
X63148783Y-2108456D02*
X63243914Y-2156290D01*
X63243914Y-2156290D02*
X63291425Y-2204016D01*
X63291425Y-2204016D02*
X63338829Y-2299362D01*
X63338829Y-2299362D02*
X63338185Y-2585075D01*
X63338185Y-2585075D02*
X63290352Y-2680206D01*
X63290352Y-2680206D02*
X63242625Y-2727717D01*
X62340657Y-1487585D02*
X62340872Y-1392347D01*
X62340872Y-1392347D02*
X62388705Y-1297217D01*
X62388705Y-1297217D02*
X62436432Y-1249705D01*
X62436432Y-1249705D02*
X62531777Y-1202301D01*
X62531777Y-1202301D02*
X62722360Y-1155112D01*
X62722360Y-1155112D02*
X62960455Y-1155648D01*
X62960455Y-1155648D02*
X63150823Y-1203697D01*
X63150823Y-1203697D02*
X63245953Y-1251530D01*
X63245953Y-1251530D02*
X63293465Y-1299257D01*
X63293465Y-1299257D02*
X63340869Y-1394602D01*
X63340869Y-1394602D02*
X63340655Y-1489840D01*
X63340655Y-1489840D02*
X63292821Y-1584970D01*
X63292821Y-1584970D02*
X63245095Y-1632482D01*
X63245095Y-1632482D02*
X63149749Y-1679886D01*
X63149749Y-1679886D02*
X62959166Y-1727076D01*
X62959166Y-1727076D02*
X62721072Y-1726539D01*
X62721072Y-1726539D02*
X62530703Y-1678490D01*
X62530703Y-1678490D02*
X62435573Y-1630657D01*
X62435573Y-1630657D02*
X62388061Y-1582931D01*
X62388061Y-1582931D02*
X62340657Y-1487585D01*
X62342804Y-535207D02*
X62343019Y-439969D01*
X62343019Y-439969D02*
X62390853Y-344838D01*
X62390853Y-344838D02*
X62438579Y-297327D01*
X62438579Y-297327D02*
X62533924Y-249923D01*
X62533924Y-249923D02*
X62724507Y-202733D01*
X62724507Y-202733D02*
X62962602Y-203270D01*
X62962602Y-203270D02*
X63152970Y-251318D01*
X63152970Y-251318D02*
X63248101Y-299152D01*
X63248101Y-299152D02*
X63295612Y-346878D01*
X63295612Y-346878D02*
X63343016Y-442223D01*
X63343016Y-442223D02*
X63342802Y-537461D01*
X63342802Y-537461D02*
X63294968Y-632592D01*
X63294968Y-632592D02*
X63247242Y-680103D01*
X63247242Y-680103D02*
X63151897Y-727507D01*
X63151897Y-727507D02*
X62961313Y-774697D01*
X62961313Y-774697D02*
X62723219Y-774160D01*
X62723219Y-774160D02*
X62532850Y-726112D01*
X62532850Y-726112D02*
X62437720Y-678278D01*
X62437720Y-678278D02*
X62390208Y-630552D01*
X62390208Y-630552D02*
X62342804Y-535207D01*
X62773414Y368587D02*
X62725581Y273456D01*
X62725581Y273456D02*
X62677854Y225945D01*
X62677854Y225945D02*
X62582509Y178540D01*
X62582509Y178540D02*
X62534890Y178648D01*
X62534890Y178648D02*
X62439760Y226481D01*
X62439760Y226481D02*
X62392248Y274208D01*
X62392248Y274208D02*
X62344844Y369553D01*
X62344844Y369553D02*
X62345273Y560029D01*
X62345273Y560029D02*
X62393107Y655159D01*
X62393107Y655159D02*
X62440833Y702671D01*
X62440833Y702671D02*
X62536179Y750075D01*
X62536179Y750075D02*
X62583797Y749968D01*
X62583797Y749968D02*
X62678928Y702134D01*
X62678928Y702134D02*
X62726440Y654408D01*
X62726440Y654408D02*
X62773844Y559062D01*
X62773844Y559062D02*
X62773414Y368587D01*
X62773414Y368587D02*
X62820819Y273242D01*
X62820819Y273242D02*
X62868330Y225515D01*
X62868330Y225515D02*
X62963461Y177682D01*
X62963461Y177682D02*
X63153936Y177252D01*
X63153936Y177252D02*
X63249282Y224656D01*
X63249282Y224656D02*
X63297008Y272168D01*
X63297008Y272168D02*
X63344841Y367298D01*
X63344841Y367298D02*
X63345271Y557774D01*
X63345271Y557774D02*
X63297867Y653119D01*
X63297867Y653119D02*
X63250355Y700846D01*
X63250355Y700846D02*
X63155225Y748679D01*
X63155225Y748679D02*
X62964749Y749109D01*
X62964749Y749109D02*
X62869404Y701704D01*
X62869404Y701704D02*
X62821677Y654193D01*
X62821677Y654193D02*
X62773844Y559062D01*
X63348384Y1938723D02*
X62681719Y1940226D01*
X62776957Y1940012D02*
X62729446Y1987738D01*
X62729446Y1987738D02*
X62682041Y2083083D01*
X62682041Y2083083D02*
X62682363Y2225940D01*
X62682363Y2225940D02*
X62730197Y2321070D01*
X62730197Y2321070D02*
X62825542Y2368475D01*
X62825542Y2368475D02*
X63349350Y2367294D01*
X62825542Y2368475D02*
X62730412Y2416308D01*
X62730412Y2416308D02*
X62683008Y2511653D01*
X62683008Y2511653D02*
X62683330Y2654510D01*
X62683330Y2654510D02*
X62731163Y2749641D01*
X62731163Y2749641D02*
X62826508Y2797045D01*
X62826508Y2797045D02*
X63350317Y2795864D01*
X63351390Y3272053D02*
X62684725Y3273556D01*
X62779963Y3273341D02*
X62732452Y3321067D01*
X62732452Y3321067D02*
X62685047Y3416413D01*
X62685047Y3416413D02*
X62685369Y3559269D01*
X62685369Y3559269D02*
X62733203Y3654400D01*
X62733203Y3654400D02*
X62828548Y3701804D01*
X62828548Y3701804D02*
X63352356Y3700623D01*
X62828548Y3701804D02*
X62733418Y3749638D01*
X62733418Y3749638D02*
X62686014Y3844983D01*
X62686014Y3844983D02*
X62686336Y3987840D01*
X62686336Y3987840D02*
X62734169Y4082970D01*
X62734169Y4082970D02*
X62829514Y4130375D01*
X62829514Y4130375D02*
X63353323Y4129194D01*
X60354785Y11714942D02*
X64652008Y11705254D01*
X60299999Y-12585793D02*
X64597222Y-12595481D01*
X64065589Y11706576D02*
X64010803Y-12594159D01*
X64065589Y11706576D02*
X64010803Y-12594159D01*
X64065589Y11706576D02*
X64649469Y10578753D01*
X64065589Y11706576D02*
X63476630Y10581397D01*
X64010803Y-12594159D02*
X63426923Y-11466336D01*
X64010803Y-12594159D02*
X64599762Y-11468980D01*
D13*
G04 #@! TO.C,C3*
X53840000Y-7592164D02*
X53840000Y-7807836D01*
X54560000Y-7592164D02*
X54560000Y-7807836D01*
G04 #@! TO.C,R20*
X44020000Y2093641D02*
X44020000Y1786359D01*
X44780000Y2093641D02*
X44780000Y1786359D01*
G04 #@! TO.C,R3*
X40020000Y-11246359D02*
X40020000Y-11553641D01*
X40780000Y-11246359D02*
X40780000Y-11553641D01*
G04 #@! TO.C,C5*
X48040000Y-1292164D02*
X48040000Y-1507836D01*
X48760000Y-1292164D02*
X48760000Y-1507836D01*
G04 #@! TO.C,R14*
X37946359Y-1120000D02*
X38253641Y-1120000D01*
X37946359Y-1880000D02*
X38253641Y-1880000D01*
G04 #@! TO.C,R9*
X59020000Y8753641D02*
X59020000Y8446359D01*
X59780000Y8753641D02*
X59780000Y8446359D01*
G04 #@! TO.C,R5*
X41346359Y-2120000D02*
X41653641Y-2120000D01*
X41346359Y-2880000D02*
X41653641Y-2880000D01*
G04 #@! TO.C,J3*
X49790000Y8390000D02*
X49790000Y6940000D01*
X49790000Y6940000D02*
X51590000Y6940000D01*
X56460000Y6940000D02*
X56460000Y5950000D01*
X56990000Y11210000D02*
X51060000Y11210000D01*
X58260000Y8390000D02*
X58260000Y6940000D01*
X58260000Y6940000D02*
X56460000Y6940000D01*
G04 #@! TO.C,C1*
X51192164Y-8840000D02*
X51407836Y-8840000D01*
X51192164Y-9560000D02*
X51407836Y-9560000D01*
G04 #@! TO.C,C12*
X37240000Y-107836D02*
X37240000Y107836D01*
X37960000Y-107836D02*
X37960000Y107836D01*
G04 #@! TO.C,C16*
X50540000Y-10562164D02*
X50540000Y-10777836D01*
X51260000Y-10562164D02*
X51260000Y-10777836D01*
G04 #@! TO.C,R12*
X43653641Y-5110000D02*
X43346359Y-5110000D01*
X43653641Y-5870000D02*
X43346359Y-5870000D01*
G04 #@! TO.C,C11*
X43640000Y-3307836D02*
X43640000Y-3092164D01*
X44360000Y-3307836D02*
X44360000Y-3092164D01*
G04 #@! TO.C,C13*
X42640000Y-3307836D02*
X42640000Y-3092164D01*
X43360000Y-3307836D02*
X43360000Y-3092164D01*
G04 #@! TO.C,D1*
X40500000Y-5190000D02*
X42400000Y-5190000D01*
X40500000Y-7790000D02*
X42350000Y-7790000D01*
X41400000Y-5390000D02*
X41300000Y-5190000D01*
X41500000Y-5190000D02*
X41400000Y-5390000D01*
X42400000Y-5190000D02*
X42400000Y-5965000D01*
G04 #@! TO.C,D2*
X34165000Y10000000D02*
X34165000Y7715000D01*
X34165000Y7715000D02*
X35635000Y7715000D01*
X35635000Y7715000D02*
X35635000Y10000000D01*
G04 #@! TO.C,C6*
X50940000Y-7642164D02*
X50940000Y-7857836D01*
X51660000Y-7642164D02*
X51660000Y-7857836D01*
G04 #@! TO.C,U1*
X31720000Y-2910000D02*
X31720000Y-11910000D01*
G04 #@! TO.C,R4*
X45846359Y4730000D02*
X46153641Y4730000D01*
X45846359Y3970000D02*
X46153641Y3970000D01*
G04 #@! TO.C,J2*
X42840000Y10960000D02*
X42840000Y6240000D01*
X42840000Y8850000D02*
X43450000Y8850000D01*
X42840000Y7550000D02*
X43450000Y7550000D01*
X42840000Y6240000D02*
X48960000Y6240000D01*
X43450000Y10350000D02*
X43450000Y6850000D01*
X43450000Y6850000D02*
X45400000Y6850000D01*
X45400000Y6850000D02*
X45400000Y6240000D01*
X45800000Y9850000D02*
X45800000Y10350000D01*
X45900000Y10350000D02*
X45900000Y9850000D01*
X46000000Y10350000D02*
X46000000Y9850000D01*
X46000000Y9850000D02*
X45800000Y9850000D01*
X46400000Y6850000D02*
X48350000Y6850000D01*
X46400000Y6240000D02*
X46400000Y6850000D01*
X47200000Y6240000D02*
X47200000Y6040000D01*
X47200000Y6140000D02*
X47500000Y6140000D01*
X47200000Y6040000D02*
X47500000Y6040000D01*
X47500000Y6040000D02*
X47500000Y6240000D01*
X48010000Y5940000D02*
X49260000Y5940000D01*
X48350000Y10350000D02*
X43450000Y10350000D01*
X48350000Y6850000D02*
X48350000Y10350000D01*
X48960000Y10960000D02*
X42840000Y10960000D01*
X48960000Y8850000D02*
X48350000Y8850000D01*
X48960000Y7550000D02*
X48350000Y7550000D01*
X48960000Y6240000D02*
X48960000Y10960000D01*
X49260000Y5940000D02*
X49260000Y7190000D01*
G04 #@! TO.C,R8*
X43643641Y-7120000D02*
X43336359Y-7120000D01*
X43643641Y-7880000D02*
X43336359Y-7880000D01*
G04 #@! TO.C,R1*
X52620000Y-3146359D02*
X52620000Y-3453641D01*
X53380000Y-3146359D02*
X53380000Y-3453641D01*
G04 #@! TO.C,C8*
X40607836Y1110000D02*
X40392164Y1110000D01*
X40607836Y390000D02*
X40392164Y390000D01*
G04 #@! TO.C,R16*
X42746359Y1130000D02*
X43053641Y1130000D01*
X42746359Y370000D02*
X43053641Y370000D01*
G04 #@! TO.C,R13*
X35946359Y-1120000D02*
X36253641Y-1120000D01*
X35946359Y-1880000D02*
X36253641Y-1880000D01*
G04 #@! TO.C,R19*
X51620000Y-3146359D02*
X51620000Y-3453641D01*
X52380000Y-3146359D02*
X52380000Y-3453641D01*
G04 #@! TO.C,L1*
X52953641Y-6870000D02*
X52646359Y-6870000D01*
X52953641Y-7630000D02*
X52646359Y-7630000D01*
G04 #@! TO.C,R21*
X35920000Y9853641D02*
X35920000Y9546359D01*
X36680000Y9853641D02*
X36680000Y9546359D01*
G04 #@! TO.C,R15*
X34320000Y153641D02*
X34320000Y-153641D01*
X35080000Y153641D02*
X35080000Y-153641D01*
G04 #@! TO.C,R2*
X40020000Y-4153641D02*
X40020000Y-3846359D01*
X40780000Y-4153641D02*
X40780000Y-3846359D01*
G04 #@! TO.C,D3*
X40965000Y10100000D02*
X40965000Y7815000D01*
X40965000Y7815000D02*
X42435000Y7815000D01*
X42435000Y7815000D02*
X42435000Y10100000D01*
G04 #@! TO.C,R11*
X38277500Y1587258D02*
X38277500Y1112742D01*
X39322500Y1587258D02*
X39322500Y1112742D01*
G04 #@! TO.C,C10*
X38640000Y3742164D02*
X38640000Y3957836D01*
X39360000Y3742164D02*
X39360000Y3957836D01*
G04 #@! TO.C,R10*
X59020000Y6446359D02*
X59020000Y6753641D01*
X59780000Y6446359D02*
X59780000Y6753641D01*
G04 #@! TO.C,R17*
X40020000Y9953641D02*
X40020000Y9646359D01*
X40780000Y9953641D02*
X40780000Y9646359D01*
G04 #@! TO.C,Q1*
X35240000Y-300000D02*
X35240000Y300000D01*
X36960000Y-500000D02*
X36960000Y700000D01*
D12*
X36575000Y1150000D02*
G75*
G02*
X36425000Y1150000I-75000J0D01*
G01*
X36425000Y1150000D02*
G75*
G02*
X36575000Y1150000I75000J0D01*
G01*
D13*
G04 #@! TO.C,SW2*
X49000000Y4070000D02*
X49000000Y-670000D01*
X51000000Y4070000D02*
X52200000Y4070000D01*
X51000000Y-670000D02*
X52200000Y-670000D01*
X54200000Y4070000D02*
X54000000Y4070000D01*
X54200000Y4070000D02*
X54200000Y-670000D01*
X54200000Y-700000D02*
X54000000Y-700000D01*
G04 #@! TO.C,C14*
X53640000Y-3407836D02*
X53640000Y-3192164D01*
X54360000Y-3407836D02*
X54360000Y-3192164D01*
G04 #@! TO.C,R6*
X46220000Y-1246359D02*
X46220000Y-1553641D01*
X46980000Y-1246359D02*
X46980000Y-1553641D01*
G04 #@! TO.C,C9*
X44040000Y3742164D02*
X44040000Y3957836D01*
X44760000Y3742164D02*
X44760000Y3957836D01*
G04 #@! TO.C,R7*
X43653641Y-6110000D02*
X43346359Y-6110000D01*
X43653641Y-6870000D02*
X43346359Y-6870000D01*
G04 #@! TO.C,R18*
X37620000Y3696359D02*
X37620000Y4003641D01*
X38380000Y3696359D02*
X38380000Y4003641D01*
G04 #@! TO.C,U5*
X45540000Y1750000D02*
X45540000Y2550000D01*
X45540000Y1750000D02*
X45540000Y950000D01*
X48660000Y1750000D02*
X48660000Y2550000D01*
X48660000Y1750000D02*
X48660000Y950000D01*
X48940000Y2810000D02*
X48610000Y3050000D01*
X48940000Y3290000D01*
X48940000Y2810000D01*
G36*
X48940000Y2810000D02*
G01*
X48610000Y3050000D01*
X48940000Y3290000D01*
X48940000Y2810000D01*
G37*
G04 #@! TO.C,C7*
X50890000Y-5592164D02*
X50890000Y-5807836D01*
X51610000Y-5592164D02*
X51610000Y-5807836D01*
G04 #@! TO.C,U3*
X44990000Y-2890000D02*
X44990000Y-3365000D01*
X44990000Y-8110000D02*
X44990000Y-7635000D01*
X45465000Y-2890000D02*
X44990000Y-2890000D01*
X45465000Y-8110000D02*
X44990000Y-8110000D01*
X49735000Y-2890000D02*
X50210000Y-2890000D01*
X49735000Y-8110000D02*
X50210000Y-8110000D01*
X50210000Y-2890000D02*
X50210000Y-3365000D01*
G04 #@! TO.C,C2*
X51840000Y-5592164D02*
X51840000Y-5807836D01*
X52560000Y-5592164D02*
X52560000Y-5807836D01*
G04 #@! TO.C,C4*
X47772164Y4710000D02*
X47987836Y4710000D01*
X47772164Y3990000D02*
X47987836Y3990000D01*
G04 #@! TO.C,Y1*
X50300000Y-8750000D02*
X46300000Y-8750000D01*
X50300000Y-12050000D02*
X50300000Y-8750000D01*
G04 #@! TO.C,U4*
X40090000Y5010000D02*
X40090000Y4535000D01*
X40090000Y1790000D02*
X40090000Y2265000D01*
X40565000Y5010000D02*
X40090000Y5010000D01*
X40565000Y1790000D02*
X40090000Y1790000D01*
X42835000Y5010000D02*
X43310000Y5010000D01*
X42835000Y1790000D02*
X43010000Y1790000D01*
X43310000Y5010000D02*
X43310000Y4535000D01*
X43310000Y2265000D02*
X43310000Y2030000D01*
X43550000Y1460000D02*
X43070000Y1460000D01*
X43310000Y1790000D01*
X43550000Y1460000D01*
G36*
X43550000Y1460000D02*
G01*
X43070000Y1460000D01*
X43310000Y1790000D01*
X43550000Y1460000D01*
G37*
G04 #@! TO.C,U2*
X35400000Y5810000D02*
X34600000Y5810000D01*
X35400000Y5810000D02*
X36200000Y5810000D01*
X35400000Y2690000D02*
X34600000Y2690000D01*
X35400000Y2690000D02*
X36200000Y2690000D01*
X36940000Y2410000D02*
X36460000Y2410000D01*
X36700000Y2740000D01*
X36940000Y2410000D01*
G36*
X36940000Y2410000D02*
G01*
X36460000Y2410000D01*
X36700000Y2740000D01*
X36940000Y2410000D01*
G37*
G04 #@! TO.C,C17*
X45340000Y-10707836D02*
X45340000Y-10492164D01*
X46060000Y-10707836D02*
X46060000Y-10492164D01*
G04 #@! TD*
M02*
