G04 #@! TF.GenerationSoftware,KiCad,Pcbnew,8.0.3*
G04 #@! TF.CreationDate,2024-07-04T09:42:52+02:00*
G04 #@! TF.ProjectId,ESP32-C3-V2,45535033-322d-4433-932d-56322e6b6963,rev?*
G04 #@! TF.SameCoordinates,Original*
G04 #@! TF.FileFunction,Copper,L3,Inr*
G04 #@! TF.FilePolarity,Positive*
%FSLAX46Y46*%
G04 Gerber Fmt 4.6, Leading zero omitted, Abs format (unit mm)*
G04 Created by KiCad (PCBNEW 8.0.3) date 2024-07-04 09:42:52*
%MOMM*%
%LPD*%
G01*
G04 APERTURE LIST*
G04 Aperture macros list*
%AMRoundRect*
0 Rectangle with rounded corners*
0 $1 Rounding radius*
0 $2 $3 $4 $5 $6 $7 $8 $9 X,Y pos of 4 corners*
0 Add a 4 corners polygon primitive as box body*
4,1,4,$2,$3,$4,$5,$6,$7,$8,$9,$2,$3,0*
0 Add four circle primitives for the rounded corners*
1,1,$1+$1,$2,$3*
1,1,$1+$1,$4,$5*
1,1,$1+$1,$6,$7*
1,1,$1+$1,$8,$9*
0 Add four rect primitives between the rounded corners*
20,1,$1+$1,$2,$3,$4,$5,0*
20,1,$1+$1,$4,$5,$6,$7,0*
20,1,$1+$1,$6,$7,$8,$9,0*
20,1,$1+$1,$8,$9,$2,$3,0*%
G04 Aperture macros list end*
G04 #@! TA.AperFunction,ComponentPad*
%ADD10O,2.100000X1.000000*%
G04 #@! TD*
G04 #@! TA.AperFunction,ComponentPad*
%ADD11O,1.800000X1.000000*%
G04 #@! TD*
G04 #@! TA.AperFunction,ComponentPad*
%ADD12RoundRect,0.250000X0.350000X0.625000X-0.350000X0.625000X-0.350000X-0.625000X0.350000X-0.625000X0*%
G04 #@! TD*
G04 #@! TA.AperFunction,ComponentPad*
%ADD13O,1.200000X1.750000*%
G04 #@! TD*
G04 #@! TA.AperFunction,ComponentPad*
%ADD14R,0.500000X0.900000*%
G04 #@! TD*
G04 #@! TA.AperFunction,ViaPad*
%ADD15C,0.300000*%
G04 #@! TD*
G04 APERTURE END LIST*
D10*
G04 #@! TO.N,GND*
G04 #@! TO.C,U1*
X38500000Y-3090000D03*
D11*
X34320000Y-3090000D03*
D10*
X38500000Y-11730000D03*
D11*
X34320000Y-11730000D03*
G04 #@! TD*
D12*
G04 #@! TO.N,Earth*
G04 #@! TO.C,J2*
X46900000Y8650000D03*
D13*
G04 #@! TO.N,+BATT*
X44900000Y8650000D03*
G04 #@! TD*
D14*
G04 #@! TO.N,GND*
G04 #@! TO.C,AE1*
X55175000Y-9300000D03*
G04 #@! TD*
D15*
G04 #@! TO.N,GND*
X51400000Y10300000D03*
X47400000Y1100000D03*
X33600000Y-7100000D03*
X47700000Y-6900000D03*
X42700000Y1100000D03*
X46300000Y-6000000D03*
X46300000Y-4200000D03*
X56800000Y-10900000D03*
X33600000Y-9100000D03*
X33600000Y-4200000D03*
X45300000Y-12000000D03*
X47400000Y-100000D03*
X47700000Y-5100000D03*
X48700000Y500000D03*
X48700000Y-100000D03*
X43300000Y-12000000D03*
X46100000Y5200000D03*
X59800000Y-10900000D03*
X48600000Y11100000D03*
X47400000Y500000D03*
X53800000Y-10900000D03*
X48700000Y1100000D03*
X33600000Y-8100000D03*
X44300000Y-12000000D03*
X45600000Y500000D03*
X42300000Y-12000000D03*
X53500000Y-8200000D03*
X46800000Y1100000D03*
X48900000Y-6000000D03*
X48900000Y-6900000D03*
X48900000Y-4200000D03*
X52000000Y-1600000D03*
X52400000Y8000000D03*
X46200000Y-9500000D03*
X45600000Y11100000D03*
X58800000Y10100000D03*
X41300000Y-2300000D03*
X35500000Y5300000D03*
X46300000Y-5100000D03*
X54800000Y-10900000D03*
X41800000Y1100000D03*
X35500000Y4500000D03*
X58800000Y-10900000D03*
X35500000Y3700000D03*
X46800000Y-100000D03*
X57800000Y-10900000D03*
X33500000Y-1200000D03*
X50500000Y-7800000D03*
X33500000Y-2200000D03*
X46000000Y6600000D03*
X33500000Y8800000D03*
X45600000Y1100000D03*
X40200000Y8100000D03*
X44600000Y11100000D03*
X47900000Y-500000D03*
X41600000Y11100000D03*
X41300000Y-12000000D03*
X42600000Y11100000D03*
X47700000Y-4200000D03*
X46600000Y11100000D03*
X35500000Y6100000D03*
X50600000Y-11800000D03*
X53800000Y-9900000D03*
X45600000Y-100000D03*
X33600000Y-5100000D03*
X53900000Y-4900000D03*
X53100000Y3700000D03*
X33600000Y-10100000D03*
X40600000Y11100000D03*
X55800000Y-10900000D03*
X46300000Y-6900000D03*
X36500000Y7600000D03*
X48900000Y-5100000D03*
X52900000Y-5200000D03*
X33500000Y800000D03*
X44600000Y-2700000D03*
X33500000Y-200000D03*
X35500000Y2900000D03*
X53800000Y-8900000D03*
X47600000Y11100000D03*
X33500000Y7800000D03*
X45100000Y-10100000D03*
X48400000Y-11600000D03*
X33600000Y-6100000D03*
X53700000Y1400000D03*
X53700000Y400000D03*
X60200000Y5800000D03*
X51900000Y-9700000D03*
X43600000Y11100000D03*
X37100000Y8000000D03*
X40900000Y-4000000D03*
X53900000Y-5900000D03*
X46800000Y500000D03*
X47700000Y-6000000D03*
G04 #@! TO.N,VCC*
X38900000Y5700000D03*
X37300000Y9900000D03*
G04 #@! TO.N,+BATT*
X41000000Y1300000D03*
G04 #@! TO.N,+3.3V*
X33600000Y3000000D03*
X40500000Y-6400000D03*
X44600000Y-3400000D03*
X34800000Y3000000D03*
X33600000Y5000000D03*
X47400000Y-900000D03*
X33600000Y4400000D03*
X60200000Y6500000D03*
X34200000Y3000000D03*
X46100000Y-600000D03*
X34200000Y5000000D03*
X34200000Y4400000D03*
X59700000Y9700000D03*
X52000000Y-2300000D03*
X34800000Y4400000D03*
X52900000Y-5900000D03*
X34800000Y5000000D03*
X50100000Y-8400000D03*
G04 #@! TO.N,MCU_SCL*
X53400000Y8000000D03*
X56800000Y7500000D03*
G04 #@! TO.N,Net-(U3-GPIO9)*
X49800000Y-200000D03*
X45799999Y-2100000D03*
G04 #@! TO.N,EN_ADC*
X38500000Y-600000D03*
X39900000Y2500000D03*
G04 #@! TO.N,OUT*
X38000000Y5700000D03*
X38300000Y9600000D03*
G04 #@! TD*
G04 #@! TA.AperFunction,Conductor*
G04 #@! TO.N,+3.3V*
G36*
X40170290Y11425714D02*
G01*
X40237318Y11406000D01*
X40283051Y11353177D01*
X40292964Y11284014D01*
X40280720Y11245422D01*
X40262499Y11209660D01*
X40245131Y11100003D01*
X40245131Y11099998D01*
X40262498Y10990342D01*
X40312904Y10891415D01*
X40312909Y10891408D01*
X40391407Y10812910D01*
X40391410Y10812908D01*
X40391413Y10812905D01*
X40427337Y10794601D01*
X40490341Y10762499D01*
X40599998Y10745131D01*
X40600000Y10745131D01*
X40600002Y10745131D01*
X40709658Y10762499D01*
X40709659Y10762500D01*
X40709661Y10762500D01*
X40808587Y10812905D01*
X40887095Y10891413D01*
X40937500Y10990339D01*
X40937500Y10990341D01*
X40937501Y10990342D01*
X40954869Y11099998D01*
X40954869Y11100003D01*
X40937501Y11209659D01*
X40919469Y11245049D01*
X40906573Y11313718D01*
X40932850Y11378459D01*
X40989957Y11418715D01*
X41030002Y11425343D01*
X41170069Y11425282D01*
X41237099Y11405568D01*
X41282831Y11352744D01*
X41292744Y11283582D01*
X41280500Y11244990D01*
X41262499Y11209659D01*
X41245131Y11100003D01*
X41245131Y11099998D01*
X41262498Y10990342D01*
X41312904Y10891415D01*
X41312909Y10891408D01*
X41391407Y10812910D01*
X41391410Y10812908D01*
X41391413Y10812905D01*
X41427337Y10794601D01*
X41490341Y10762499D01*
X41599998Y10745131D01*
X41600000Y10745131D01*
X41600002Y10745131D01*
X41709658Y10762499D01*
X41709659Y10762500D01*
X41709661Y10762500D01*
X41808587Y10812905D01*
X41887095Y10891413D01*
X41937500Y10990339D01*
X41937500Y10990341D01*
X41937501Y10990342D01*
X41954869Y11099998D01*
X41954869Y11100003D01*
X41937501Y11209659D01*
X41919689Y11244617D01*
X41906793Y11313286D01*
X41933070Y11378026D01*
X41990176Y11418283D01*
X42030222Y11424911D01*
X42169849Y11424850D01*
X42236879Y11405136D01*
X42282611Y11352312D01*
X42292524Y11283149D01*
X42280280Y11244558D01*
X42262498Y11209659D01*
X42245131Y11100003D01*
X42245131Y11099998D01*
X42262498Y10990342D01*
X42312904Y10891415D01*
X42312909Y10891408D01*
X42391407Y10812910D01*
X42391410Y10812908D01*
X42391413Y10812905D01*
X42427337Y10794601D01*
X42490341Y10762499D01*
X42599998Y10745131D01*
X42600000Y10745131D01*
X42600002Y10745131D01*
X42709658Y10762499D01*
X42709659Y10762500D01*
X42709661Y10762500D01*
X42808587Y10812905D01*
X42887095Y10891413D01*
X42937500Y10990339D01*
X42937500Y10990341D01*
X42937501Y10990342D01*
X42954869Y11099998D01*
X42954869Y11100003D01*
X42937501Y11209659D01*
X42919909Y11244185D01*
X42907013Y11312854D01*
X42933290Y11377594D01*
X42990396Y11417851D01*
X43030443Y11424479D01*
X43169630Y11424419D01*
X43236659Y11404706D01*
X43282392Y11351882D01*
X43292305Y11282719D01*
X43280060Y11244125D01*
X43262498Y11209659D01*
X43245131Y11100003D01*
X43245131Y11099998D01*
X43262498Y10990342D01*
X43312904Y10891415D01*
X43312909Y10891408D01*
X43391407Y10812910D01*
X43391410Y10812908D01*
X43391413Y10812905D01*
X43427337Y10794601D01*
X43490341Y10762499D01*
X43599998Y10745131D01*
X43600000Y10745131D01*
X43600002Y10745131D01*
X43709658Y10762499D01*
X43709659Y10762500D01*
X43709661Y10762500D01*
X43808587Y10812905D01*
X43887095Y10891413D01*
X43937500Y10990339D01*
X43937500Y10990341D01*
X43937501Y10990342D01*
X43954869Y11099998D01*
X43954869Y11100003D01*
X43937501Y11209657D01*
X43937500Y11209659D01*
X43937500Y11209661D01*
X43920128Y11243755D01*
X43907233Y11312422D01*
X43933509Y11377162D01*
X43990616Y11417419D01*
X44030664Y11424047D01*
X44169410Y11423987D01*
X44236439Y11404273D01*
X44282171Y11351450D01*
X44292084Y11282287D01*
X44279840Y11243695D01*
X44262499Y11209660D01*
X44245131Y11100003D01*
X44245131Y11099998D01*
X44262498Y10990342D01*
X44312904Y10891415D01*
X44312909Y10891408D01*
X44391407Y10812910D01*
X44391410Y10812908D01*
X44391413Y10812905D01*
X44427337Y10794601D01*
X44490341Y10762499D01*
X44599998Y10745131D01*
X44600000Y10745131D01*
X44600002Y10745131D01*
X44709658Y10762499D01*
X44709659Y10762500D01*
X44709661Y10762500D01*
X44808587Y10812905D01*
X44887095Y10891413D01*
X44937500Y10990339D01*
X44937500Y10990341D01*
X44937501Y10990342D01*
X44954869Y11099998D01*
X44954869Y11100003D01*
X44937501Y11209657D01*
X44937500Y11209659D01*
X44937500Y11209661D01*
X44920348Y11243324D01*
X44907453Y11311989D01*
X44933729Y11376730D01*
X44990836Y11416987D01*
X45030882Y11423615D01*
X45169189Y11423555D01*
X45236219Y11403841D01*
X45281951Y11351018D01*
X45291864Y11281855D01*
X45279620Y11243263D01*
X45262499Y11209660D01*
X45245131Y11100003D01*
X45245131Y11099998D01*
X45262498Y10990342D01*
X45312904Y10891415D01*
X45312909Y10891408D01*
X45391407Y10812910D01*
X45391410Y10812908D01*
X45391413Y10812905D01*
X45427337Y10794601D01*
X45490341Y10762499D01*
X45599998Y10745131D01*
X45600000Y10745131D01*
X45600002Y10745131D01*
X45709658Y10762499D01*
X45709659Y10762500D01*
X45709661Y10762500D01*
X45808587Y10812905D01*
X45887095Y10891413D01*
X45937500Y10990339D01*
X45937500Y10990341D01*
X45937501Y10990342D01*
X45954869Y11099998D01*
X45954869Y11100003D01*
X45937501Y11209657D01*
X45937500Y11209659D01*
X45937500Y11209661D01*
X45920568Y11242892D01*
X45907673Y11311557D01*
X45933949Y11376298D01*
X45991055Y11416555D01*
X46031102Y11423183D01*
X46168969Y11423123D01*
X46235999Y11403409D01*
X46281731Y11350585D01*
X46291644Y11281423D01*
X46279400Y11242831D01*
X46262499Y11209659D01*
X46245131Y11100003D01*
X46245131Y11099998D01*
X46262498Y10990342D01*
X46312904Y10891415D01*
X46312909Y10891408D01*
X46391407Y10812910D01*
X46391410Y10812908D01*
X46391413Y10812905D01*
X46427337Y10794601D01*
X46490341Y10762499D01*
X46599998Y10745131D01*
X46600000Y10745131D01*
X46600002Y10745131D01*
X46709658Y10762499D01*
X46709659Y10762500D01*
X46709661Y10762500D01*
X46808587Y10812905D01*
X46887095Y10891413D01*
X46937500Y10990339D01*
X46937500Y10990341D01*
X46937501Y10990342D01*
X46954869Y11099998D01*
X46954869Y11100003D01*
X46937501Y11209657D01*
X46937500Y11209659D01*
X46937500Y11209661D01*
X46920788Y11242460D01*
X46907893Y11311125D01*
X46934169Y11375865D01*
X46991275Y11416123D01*
X47031324Y11422751D01*
X47168750Y11422692D01*
X47235779Y11402979D01*
X47281511Y11350155D01*
X47291425Y11280992D01*
X47279181Y11242399D01*
X47262498Y11209658D01*
X47245131Y11100003D01*
X47245131Y11099998D01*
X47262498Y10990342D01*
X47312904Y10891415D01*
X47312909Y10891408D01*
X47391407Y10812910D01*
X47391410Y10812908D01*
X47391413Y10812905D01*
X47427337Y10794601D01*
X47490341Y10762499D01*
X47599998Y10745131D01*
X47600000Y10745131D01*
X47600002Y10745131D01*
X47709658Y10762499D01*
X47709659Y10762500D01*
X47709661Y10762500D01*
X47808587Y10812905D01*
X47887095Y10891413D01*
X47937500Y10990339D01*
X47937500Y10990341D01*
X47937501Y10990342D01*
X47954869Y11099998D01*
X47954869Y11100003D01*
X47937501Y11209658D01*
X47937500Y11209660D01*
X47937500Y11209661D01*
X47921009Y11242026D01*
X47908113Y11310692D01*
X47934389Y11375433D01*
X47991495Y11415691D01*
X48031546Y11422319D01*
X48168528Y11422260D01*
X48235559Y11402547D01*
X48281292Y11349723D01*
X48291205Y11280560D01*
X48278960Y11241966D01*
X48262498Y11209659D01*
X48245131Y11100003D01*
X48245131Y11099998D01*
X48262498Y10990342D01*
X48312904Y10891415D01*
X48312909Y10891408D01*
X48391407Y10812910D01*
X48391410Y10812908D01*
X48391413Y10812905D01*
X48427337Y10794601D01*
X48490341Y10762499D01*
X48599998Y10745131D01*
X48600000Y10745131D01*
X48600002Y10745131D01*
X48709658Y10762499D01*
X48709659Y10762500D01*
X48709661Y10762500D01*
X48808587Y10812905D01*
X48887095Y10891413D01*
X48937500Y10990339D01*
X48937500Y10990341D01*
X48937501Y10990342D01*
X48954869Y11099998D01*
X48954869Y11100003D01*
X48937501Y11209657D01*
X48937500Y11209659D01*
X48937500Y11209661D01*
X48921228Y11241596D01*
X48908333Y11310262D01*
X48934609Y11375003D01*
X48991716Y11415260D01*
X49031762Y11421888D01*
X59811965Y11417232D01*
X59837122Y11414642D01*
X59955798Y11389998D01*
X59981419Y11381689D01*
X60008042Y11369722D01*
X60089963Y11332900D01*
X60113187Y11319254D01*
X60208645Y11248166D01*
X60228366Y11229833D01*
X60261533Y11191481D01*
X60306215Y11139814D01*
X60321515Y11117650D01*
X60336640Y11089656D01*
X60378086Y11012943D01*
X60388240Y10987994D01*
X60420863Y10873546D01*
X60425390Y10846989D01*
X60432782Y10723931D01*
X60433005Y10716536D01*
X60433007Y10710316D01*
X60432859Y10704229D01*
X60431047Y10667133D01*
X60432102Y10657430D01*
X60431164Y10657329D01*
X60433037Y10643320D01*
X60434935Y6262899D01*
X60415279Y6195851D01*
X60362495Y6150073D01*
X60293341Y6140100D01*
X60291538Y6140372D01*
X60200004Y6154869D01*
X60199998Y6154869D01*
X60090341Y6137502D01*
X59991414Y6087096D01*
X59991407Y6087091D01*
X59912909Y6008593D01*
X59912904Y6008586D01*
X59862498Y5909659D01*
X59845131Y5800003D01*
X59845131Y5799998D01*
X59862498Y5690342D01*
X59912904Y5591415D01*
X59912909Y5591408D01*
X59991407Y5512910D01*
X59991413Y5512905D01*
X60026238Y5495161D01*
X60077033Y5447189D01*
X60093829Y5379368D01*
X60071292Y5313233D01*
X60016578Y5269781D01*
X59969018Y5260680D01*
X54700000Y5300000D01*
X54700000Y-6476000D01*
X54680315Y-6543039D01*
X54627511Y-6588794D01*
X54606672Y-6593327D01*
X54600000Y-6600000D01*
X54600000Y-7050000D01*
X54600000Y-7100000D01*
X54600000Y-7900000D01*
X54600000Y-8800000D01*
X54673500Y-8800000D01*
X54740539Y-8819685D01*
X54786294Y-8872489D01*
X54797500Y-8924000D01*
X54797500Y-9145109D01*
X54793275Y-9177201D01*
X54774500Y-9247271D01*
X54774500Y-9247273D01*
X54774500Y-9352727D01*
X54790626Y-9412909D01*
X54793275Y-9422796D01*
X54797500Y-9454889D01*
X54797500Y-9701138D01*
X54777815Y-9768177D01*
X54761181Y-9788819D01*
X54750000Y-9800000D01*
X54750000Y-10456114D01*
X54730315Y-10523153D01*
X54682296Y-10566598D01*
X54676238Y-10569685D01*
X54591411Y-10612906D01*
X54591407Y-10612909D01*
X54512909Y-10691407D01*
X54512904Y-10691414D01*
X54462498Y-10790341D01*
X54445131Y-10899997D01*
X54445131Y-10900002D01*
X54462498Y-11009658D01*
X54512904Y-11108585D01*
X54512909Y-11108592D01*
X54591407Y-11187090D01*
X54591410Y-11187092D01*
X54591413Y-11187095D01*
X54690339Y-11237500D01*
X54690341Y-11237501D01*
X54799998Y-11254869D01*
X54800000Y-11254869D01*
X54800002Y-11254869D01*
X54909658Y-11237501D01*
X54909659Y-11237500D01*
X54909661Y-11237500D01*
X55008587Y-11187095D01*
X55087095Y-11108587D01*
X55137500Y-11009661D01*
X55137500Y-11009659D01*
X55137501Y-11009658D01*
X55154869Y-10900002D01*
X55154869Y-10899997D01*
X55137501Y-10790343D01*
X55137500Y-10790341D01*
X55137500Y-10790339D01*
X55106904Y-10730291D01*
X55094009Y-10661626D01*
X55120285Y-10596885D01*
X55177392Y-10556628D01*
X55217390Y-10550000D01*
X55382610Y-10550000D01*
X55449649Y-10569685D01*
X55495404Y-10622489D01*
X55505348Y-10691647D01*
X55493097Y-10730288D01*
X55475657Y-10764517D01*
X55462498Y-10790343D01*
X55445131Y-10899997D01*
X55445131Y-10900002D01*
X55462498Y-11009658D01*
X55512904Y-11108585D01*
X55512909Y-11108592D01*
X55591407Y-11187090D01*
X55591410Y-11187092D01*
X55591413Y-11187095D01*
X55690339Y-11237500D01*
X55690341Y-11237501D01*
X55799998Y-11254869D01*
X55800000Y-11254869D01*
X55800002Y-11254869D01*
X55909658Y-11237501D01*
X55909659Y-11237500D01*
X55909661Y-11237500D01*
X56008587Y-11187095D01*
X56087095Y-11108587D01*
X56137500Y-11009661D01*
X56137500Y-11009659D01*
X56137501Y-11009658D01*
X56154869Y-10900002D01*
X56154869Y-10899997D01*
X56137501Y-10790343D01*
X56137500Y-10790341D01*
X56137500Y-10790339D01*
X56106904Y-10730291D01*
X56094009Y-10661626D01*
X56120285Y-10596885D01*
X56177392Y-10556628D01*
X56217390Y-10550000D01*
X56382610Y-10550000D01*
X56449649Y-10569685D01*
X56495404Y-10622489D01*
X56505348Y-10691647D01*
X56493097Y-10730288D01*
X56475657Y-10764517D01*
X56462498Y-10790343D01*
X56445131Y-10899997D01*
X56445131Y-10900002D01*
X56462498Y-11009658D01*
X56512904Y-11108585D01*
X56512909Y-11108592D01*
X56591407Y-11187090D01*
X56591410Y-11187092D01*
X56591413Y-11187095D01*
X56690339Y-11237500D01*
X56690341Y-11237501D01*
X56799998Y-11254869D01*
X56800000Y-11254869D01*
X56800002Y-11254869D01*
X56909658Y-11237501D01*
X56909659Y-11237500D01*
X56909661Y-11237500D01*
X57008587Y-11187095D01*
X57087095Y-11108587D01*
X57137500Y-11009661D01*
X57137500Y-11009659D01*
X57137501Y-11009658D01*
X57154869Y-10900002D01*
X57154869Y-10899997D01*
X57137501Y-10790343D01*
X57137500Y-10790341D01*
X57137500Y-10790339D01*
X57106904Y-10730291D01*
X57094009Y-10661626D01*
X57120285Y-10596885D01*
X57177392Y-10556628D01*
X57217390Y-10550000D01*
X57382610Y-10550000D01*
X57449649Y-10569685D01*
X57495404Y-10622489D01*
X57505348Y-10691647D01*
X57493097Y-10730288D01*
X57475657Y-10764517D01*
X57462498Y-10790343D01*
X57445131Y-10899997D01*
X57445131Y-10900002D01*
X57462498Y-11009658D01*
X57512904Y-11108585D01*
X57512909Y-11108592D01*
X57591407Y-11187090D01*
X57591410Y-11187092D01*
X57591413Y-11187095D01*
X57690339Y-11237500D01*
X57690341Y-11237501D01*
X57799998Y-11254869D01*
X57800000Y-11254869D01*
X57800002Y-11254869D01*
X57909658Y-11237501D01*
X57909659Y-11237500D01*
X57909661Y-11237500D01*
X58008587Y-11187095D01*
X58087095Y-11108587D01*
X58137500Y-11009661D01*
X58137500Y-11009659D01*
X58137501Y-11009658D01*
X58154869Y-10900002D01*
X58154869Y-10899997D01*
X58137501Y-10790343D01*
X58137500Y-10790341D01*
X58137500Y-10790339D01*
X58106904Y-10730291D01*
X58094009Y-10661626D01*
X58120285Y-10596885D01*
X58177392Y-10556628D01*
X58217390Y-10550000D01*
X58382610Y-10550000D01*
X58449649Y-10569685D01*
X58495404Y-10622489D01*
X58505348Y-10691647D01*
X58493097Y-10730288D01*
X58475657Y-10764517D01*
X58462498Y-10790343D01*
X58445131Y-10899997D01*
X58445131Y-10900002D01*
X58462498Y-11009658D01*
X58512904Y-11108585D01*
X58512909Y-11108592D01*
X58591407Y-11187090D01*
X58591410Y-11187092D01*
X58591413Y-11187095D01*
X58690339Y-11237500D01*
X58690341Y-11237501D01*
X58799998Y-11254869D01*
X58800000Y-11254869D01*
X58800002Y-11254869D01*
X58909658Y-11237501D01*
X58909659Y-11237500D01*
X58909661Y-11237500D01*
X59008587Y-11187095D01*
X59087095Y-11108587D01*
X59137500Y-11009661D01*
X59137500Y-11009659D01*
X59137501Y-11009658D01*
X59154869Y-10900002D01*
X59154869Y-10899997D01*
X59137501Y-10790343D01*
X59137500Y-10790341D01*
X59137500Y-10790339D01*
X59106904Y-10730291D01*
X59094009Y-10661626D01*
X59120285Y-10596885D01*
X59177392Y-10556628D01*
X59217390Y-10550000D01*
X59382610Y-10550000D01*
X59449649Y-10569685D01*
X59495404Y-10622489D01*
X59505348Y-10691647D01*
X59493097Y-10730288D01*
X59475657Y-10764517D01*
X59462498Y-10790343D01*
X59445131Y-10899997D01*
X59445131Y-10900002D01*
X59462498Y-11009658D01*
X59512904Y-11108585D01*
X59512909Y-11108592D01*
X59591407Y-11187090D01*
X59591410Y-11187092D01*
X59591413Y-11187095D01*
X59690339Y-11237500D01*
X59690341Y-11237501D01*
X59799998Y-11254869D01*
X59800000Y-11254869D01*
X59800002Y-11254869D01*
X59909658Y-11237501D01*
X59909659Y-11237500D01*
X59909661Y-11237500D01*
X60008587Y-11187095D01*
X60087095Y-11108587D01*
X60137500Y-11009661D01*
X60137500Y-11009659D01*
X60137501Y-11009658D01*
X60154869Y-10900002D01*
X60154869Y-10899997D01*
X60137501Y-10790343D01*
X60137500Y-10790341D01*
X60137500Y-10790339D01*
X60106904Y-10730291D01*
X60094009Y-10661626D01*
X60120285Y-10596885D01*
X60177392Y-10556628D01*
X60217390Y-10550000D01*
X60318274Y-10550000D01*
X60385313Y-10569685D01*
X60431068Y-10622489D01*
X60442273Y-10673944D01*
X60442373Y-10902596D01*
X60442668Y-11587137D01*
X60441711Y-11602565D01*
X60425794Y-11729950D01*
X60419756Y-11755633D01*
X60378944Y-11871939D01*
X60367612Y-11895761D01*
X60303126Y-12000793D01*
X60287008Y-12021680D01*
X60201758Y-12110696D01*
X60181589Y-12127700D01*
X60079436Y-12196669D01*
X60056124Y-12209021D01*
X59941699Y-12254816D01*
X59916302Y-12261958D01*
X59795135Y-12282450D01*
X59774564Y-12284186D01*
X50903390Y-12291760D01*
X50836334Y-12272133D01*
X50790534Y-12219368D01*
X50780531Y-12150218D01*
X50809502Y-12086637D01*
X50815589Y-12080092D01*
X50887095Y-12008587D01*
X50937500Y-11909661D01*
X50937500Y-11909659D01*
X50937501Y-11909658D01*
X50954869Y-11800002D01*
X50954869Y-11799997D01*
X50937501Y-11690341D01*
X50923314Y-11662498D01*
X50887095Y-11591413D01*
X50887092Y-11591410D01*
X50887090Y-11591407D01*
X50808592Y-11512909D01*
X50808588Y-11512906D01*
X50808587Y-11512905D01*
X50783662Y-11500205D01*
X50709658Y-11462498D01*
X50600002Y-11445131D01*
X50599998Y-11445131D01*
X50490341Y-11462498D01*
X50391414Y-11512904D01*
X50391407Y-11512909D01*
X50312909Y-11591407D01*
X50312904Y-11591414D01*
X50262498Y-11690341D01*
X50245131Y-11799997D01*
X50245131Y-11800002D01*
X50262498Y-11909658D01*
X50312904Y-12008585D01*
X50312909Y-12008592D01*
X50384914Y-12080597D01*
X50418399Y-12141920D01*
X50413415Y-12211612D01*
X50371543Y-12267545D01*
X50306079Y-12291962D01*
X50297339Y-12292278D01*
X45744926Y-12296164D01*
X45677870Y-12276537D01*
X45632070Y-12223772D01*
X45622067Y-12154622D01*
X45634334Y-12115873D01*
X45637500Y-12109661D01*
X45653509Y-12008587D01*
X45654869Y-12000002D01*
X45654869Y-11999997D01*
X45637501Y-11890341D01*
X45595848Y-11808592D01*
X45587095Y-11791413D01*
X45587092Y-11791410D01*
X45587090Y-11791407D01*
X45508592Y-11712909D01*
X45508588Y-11712906D01*
X45508587Y-11712905D01*
X45488511Y-11702676D01*
X45409658Y-11662498D01*
X45300002Y-11645131D01*
X45299998Y-11645131D01*
X45190341Y-11662498D01*
X45091414Y-11712904D01*
X45091407Y-11712909D01*
X45012909Y-11791407D01*
X45012904Y-11791414D01*
X44962498Y-11890341D01*
X44945131Y-11999997D01*
X44945131Y-12000002D01*
X44962498Y-12109657D01*
X44966052Y-12116632D01*
X44978946Y-12185302D01*
X44952667Y-12250041D01*
X44895559Y-12290296D01*
X44855671Y-12296923D01*
X44744491Y-12297018D01*
X44677435Y-12277391D01*
X44631635Y-12224626D01*
X44621632Y-12155476D01*
X44633900Y-12116724D01*
X44637500Y-12109661D01*
X44637501Y-12109654D01*
X44654869Y-12000002D01*
X44654869Y-11999997D01*
X44637501Y-11890341D01*
X44595848Y-11808592D01*
X44587095Y-11791413D01*
X44587092Y-11791410D01*
X44587090Y-11791407D01*
X44508592Y-11712909D01*
X44508588Y-11712906D01*
X44508587Y-11712905D01*
X44488511Y-11702676D01*
X44409658Y-11662498D01*
X44300002Y-11645131D01*
X44299998Y-11645131D01*
X44190341Y-11662498D01*
X44091414Y-11712904D01*
X44091407Y-11712909D01*
X44012909Y-11791407D01*
X44012904Y-11791414D01*
X43962498Y-11890341D01*
X43945131Y-11999997D01*
X43945131Y-12000002D01*
X43962498Y-12109657D01*
X43962499Y-12109660D01*
X43962500Y-12109661D01*
X43966486Y-12117484D01*
X43979381Y-12186152D01*
X43953103Y-12250892D01*
X43895996Y-12291148D01*
X43856106Y-12297776D01*
X43744056Y-12297872D01*
X43677000Y-12278245D01*
X43631200Y-12225480D01*
X43621197Y-12156330D01*
X43633464Y-12117581D01*
X43637500Y-12109661D01*
X43641147Y-12086637D01*
X43654869Y-12000002D01*
X43654869Y-11999997D01*
X43637501Y-11890341D01*
X43595848Y-11808592D01*
X43587095Y-11791413D01*
X43587092Y-11791410D01*
X43587090Y-11791407D01*
X43508592Y-11712909D01*
X43508588Y-11712906D01*
X43508587Y-11712905D01*
X43488511Y-11702676D01*
X43409658Y-11662498D01*
X43300002Y-11645131D01*
X43299998Y-11645131D01*
X43190341Y-11662498D01*
X43091414Y-11712904D01*
X43091407Y-11712909D01*
X43012909Y-11791407D01*
X43012904Y-11791414D01*
X42962498Y-11890341D01*
X42945131Y-11999997D01*
X42945131Y-12000002D01*
X42962498Y-12109657D01*
X42962499Y-12109660D01*
X42962500Y-12109661D01*
X42966531Y-12117573D01*
X42966921Y-12118337D01*
X42979816Y-12187007D01*
X42953538Y-12251747D01*
X42896431Y-12292003D01*
X42856540Y-12298630D01*
X42743620Y-12298726D01*
X42676564Y-12279098D01*
X42630764Y-12226333D01*
X42620762Y-12157183D01*
X42633030Y-12118433D01*
X42637500Y-12109661D01*
X42637689Y-12108472D01*
X42654869Y-12000002D01*
X42654869Y-11999997D01*
X42637501Y-11890341D01*
X42595848Y-11808592D01*
X42587095Y-11791413D01*
X42587092Y-11791410D01*
X42587090Y-11791407D01*
X42508592Y-11712909D01*
X42508588Y-11712906D01*
X42508587Y-11712905D01*
X42488511Y-11702676D01*
X42409658Y-11662498D01*
X42300002Y-11645131D01*
X42299998Y-11645131D01*
X42190341Y-11662498D01*
X42091414Y-11712904D01*
X42091407Y-11712909D01*
X42012909Y-11791407D01*
X42012904Y-11791414D01*
X41962498Y-11890341D01*
X41945131Y-11999997D01*
X41945131Y-12000002D01*
X41962498Y-12109658D01*
X41962500Y-12109661D01*
X41966485Y-12117483D01*
X41967355Y-12119189D01*
X41980251Y-12187858D01*
X41953974Y-12252598D01*
X41896868Y-12292855D01*
X41856976Y-12299483D01*
X41743186Y-12299580D01*
X41676129Y-12279953D01*
X41630330Y-12227188D01*
X41620327Y-12158038D01*
X41632593Y-12119290D01*
X41637500Y-12109661D01*
X41641147Y-12086637D01*
X41654869Y-12000002D01*
X41654869Y-11999997D01*
X41637501Y-11890341D01*
X41595848Y-11808592D01*
X41587095Y-11791413D01*
X41587092Y-11791410D01*
X41587090Y-11791407D01*
X41508592Y-11712909D01*
X41508588Y-11712906D01*
X41508587Y-11712905D01*
X41488511Y-11702676D01*
X41409658Y-11662498D01*
X41300002Y-11645131D01*
X41299998Y-11645131D01*
X41190341Y-11662498D01*
X41091414Y-11712904D01*
X41091407Y-11712909D01*
X41012909Y-11791407D01*
X41012904Y-11791414D01*
X40962498Y-11890341D01*
X40945131Y-11999997D01*
X40945131Y-12000002D01*
X40962499Y-12109659D01*
X40962498Y-12109659D01*
X40967790Y-12120044D01*
X40980685Y-12188714D01*
X40954406Y-12253454D01*
X40897299Y-12293709D01*
X40857410Y-12300336D01*
X39655009Y-12301363D01*
X39587953Y-12281736D01*
X39542153Y-12228971D01*
X39532150Y-12159821D01*
X39551801Y-12108472D01*
X39606079Y-12027239D01*
X39606079Y-12027238D01*
X39606083Y-12027233D01*
X39653385Y-11913035D01*
X39661560Y-11871939D01*
X39677500Y-11791805D01*
X39677500Y-11668194D01*
X39663934Y-11599997D01*
X48045131Y-11599997D01*
X48045131Y-11600002D01*
X48062498Y-11709658D01*
X48112904Y-11808585D01*
X48112909Y-11808592D01*
X48191407Y-11887090D01*
X48191410Y-11887092D01*
X48191413Y-11887095D01*
X48290339Y-11937500D01*
X48290341Y-11937501D01*
X48399998Y-11954869D01*
X48400000Y-11954869D01*
X48400002Y-11954869D01*
X48509658Y-11937501D01*
X48509659Y-11937500D01*
X48509661Y-11937500D01*
X48608587Y-11887095D01*
X48687095Y-11808587D01*
X48737500Y-11709661D01*
X48737500Y-11709659D01*
X48737501Y-11709658D01*
X48754869Y-11600002D01*
X48754869Y-11599997D01*
X48737501Y-11490341D01*
X48723314Y-11462498D01*
X48687095Y-11391413D01*
X48687092Y-11391410D01*
X48687090Y-11391407D01*
X48608592Y-11312909D01*
X48608588Y-11312906D01*
X48608587Y-11312905D01*
X48604743Y-11310946D01*
X48509658Y-11262498D01*
X48400002Y-11245131D01*
X48399998Y-11245131D01*
X48290341Y-11262498D01*
X48191414Y-11312904D01*
X48191407Y-11312909D01*
X48112909Y-11391407D01*
X48112904Y-11391414D01*
X48062498Y-11490341D01*
X48045131Y-11599997D01*
X39663934Y-11599997D01*
X39653386Y-11546970D01*
X39653385Y-11546969D01*
X39653385Y-11546965D01*
X39615952Y-11456593D01*
X39606086Y-11432773D01*
X39606079Y-11432760D01*
X39537411Y-11329992D01*
X39537408Y-11329988D01*
X39450011Y-11242591D01*
X39450007Y-11242588D01*
X39347239Y-11173920D01*
X39347226Y-11173913D01*
X39233039Y-11126616D01*
X39233029Y-11126613D01*
X39111805Y-11102500D01*
X39111803Y-11102500D01*
X38189782Y-11102500D01*
X38122743Y-11082815D01*
X38076988Y-11030011D01*
X38067044Y-10960853D01*
X38094836Y-10899997D01*
X53445131Y-10899997D01*
X53445131Y-10900002D01*
X53462498Y-11009658D01*
X53512904Y-11108585D01*
X53512909Y-11108592D01*
X53591407Y-11187090D01*
X53591410Y-11187092D01*
X53591413Y-11187095D01*
X53690339Y-11237500D01*
X53690341Y-11237501D01*
X53799998Y-11254869D01*
X53800000Y-11254869D01*
X53800002Y-11254869D01*
X53909658Y-11237501D01*
X53909659Y-11237500D01*
X53909661Y-11237500D01*
X54008587Y-11187095D01*
X54087095Y-11108587D01*
X54137500Y-11009661D01*
X54137500Y-11009659D01*
X54137501Y-11009658D01*
X54154869Y-10900002D01*
X54154869Y-10899997D01*
X54137501Y-10790341D01*
X54124343Y-10764517D01*
X54087095Y-10691413D01*
X54087092Y-10691410D01*
X54087090Y-10691407D01*
X54008592Y-10612909D01*
X54008588Y-10612906D01*
X54008587Y-10612905D01*
X53977146Y-10596885D01*
X53909658Y-10562498D01*
X53800002Y-10545131D01*
X53799998Y-10545131D01*
X53690341Y-10562498D01*
X53591414Y-10612904D01*
X53591407Y-10612909D01*
X53512909Y-10691407D01*
X53512904Y-10691414D01*
X53462498Y-10790341D01*
X53445131Y-10899997D01*
X38094836Y-10899997D01*
X38096069Y-10897297D01*
X38154847Y-10859523D01*
X38157668Y-10858730D01*
X38224065Y-10840940D01*
X38356435Y-10764516D01*
X38464516Y-10656435D01*
X38540940Y-10524065D01*
X38580500Y-10376424D01*
X38580500Y-10223576D01*
X38547387Y-10099997D01*
X44745131Y-10099997D01*
X44745131Y-10100002D01*
X44762498Y-10209658D01*
X44812904Y-10308585D01*
X44812909Y-10308592D01*
X44891407Y-10387090D01*
X44891410Y-10387092D01*
X44891413Y-10387095D01*
X44990339Y-10437500D01*
X44990341Y-10437501D01*
X45099998Y-10454869D01*
X45100000Y-10454869D01*
X45100002Y-10454869D01*
X45209658Y-10437501D01*
X45209659Y-10437500D01*
X45209661Y-10437500D01*
X45308587Y-10387095D01*
X45387095Y-10308587D01*
X45437500Y-10209661D01*
X45437500Y-10209659D01*
X45437501Y-10209658D01*
X45454869Y-10100002D01*
X45454869Y-10099997D01*
X45437501Y-9990341D01*
X45413669Y-9943568D01*
X45387095Y-9891413D01*
X45387092Y-9891410D01*
X45387090Y-9891407D01*
X45308592Y-9812909D01*
X45308588Y-9812906D01*
X45308587Y-9812905D01*
X45302214Y-9809658D01*
X45209658Y-9762498D01*
X45100002Y-9745131D01*
X45099998Y-9745131D01*
X44990341Y-9762498D01*
X44891414Y-9812904D01*
X44891407Y-9812909D01*
X44812909Y-9891407D01*
X44812904Y-9891414D01*
X44762498Y-9990341D01*
X44745131Y-10099997D01*
X38547387Y-10099997D01*
X38540940Y-10075935D01*
X38464516Y-9943565D01*
X38356435Y-9835484D01*
X38224065Y-9759060D01*
X38076424Y-9719500D01*
X37923576Y-9719500D01*
X37775935Y-9759060D01*
X37775932Y-9759061D01*
X37643568Y-9835482D01*
X37643562Y-9835486D01*
X37535486Y-9943562D01*
X37535482Y-9943568D01*
X37459061Y-10075932D01*
X37459060Y-10075935D01*
X37419500Y-10223576D01*
X37419500Y-10376424D01*
X37459060Y-10524065D01*
X37535484Y-10656435D01*
X37643565Y-10764516D01*
X37775935Y-10840940D01*
X37870332Y-10866233D01*
X37929991Y-10902596D01*
X37960521Y-10965443D01*
X37952227Y-11034819D01*
X37907742Y-11088697D01*
X37862431Y-11107624D01*
X37766969Y-11126613D01*
X37766960Y-11126616D01*
X37652773Y-11173913D01*
X37652760Y-11173920D01*
X37549992Y-11242588D01*
X37549988Y-11242591D01*
X37462591Y-11329988D01*
X37462588Y-11329992D01*
X37393920Y-11432760D01*
X37393913Y-11432773D01*
X37346616Y-11546960D01*
X37346613Y-11546970D01*
X37322500Y-11668194D01*
X37322500Y-11668197D01*
X37322500Y-11791803D01*
X37322500Y-11791805D01*
X37322499Y-11791805D01*
X37346613Y-11913029D01*
X37346616Y-11913039D01*
X37393913Y-12027226D01*
X37393923Y-12027244D01*
X37449515Y-12110444D01*
X37470393Y-12177121D01*
X37451908Y-12244501D01*
X37399929Y-12291191D01*
X37346519Y-12303334D01*
X35322537Y-12305062D01*
X35255481Y-12285435D01*
X35209681Y-12232670D01*
X35199678Y-12163520D01*
X35219329Y-12112171D01*
X35221006Y-12109661D01*
X35276083Y-12027233D01*
X35323385Y-11913035D01*
X35331560Y-11871939D01*
X35347500Y-11791805D01*
X35347500Y-11668194D01*
X35323386Y-11546970D01*
X35323385Y-11546969D01*
X35323385Y-11546965D01*
X35285952Y-11456593D01*
X35276086Y-11432773D01*
X35276079Y-11432760D01*
X35207411Y-11329992D01*
X35207408Y-11329988D01*
X35120011Y-11242591D01*
X35120007Y-11242588D01*
X35017239Y-11173920D01*
X35017226Y-11173913D01*
X34903039Y-11126616D01*
X34903029Y-11126613D01*
X34781805Y-11102500D01*
X34781803Y-11102500D01*
X33858197Y-11102500D01*
X33858195Y-11102500D01*
X33736970Y-11126613D01*
X33736960Y-11126616D01*
X33622773Y-11173913D01*
X33622762Y-11173919D01*
X33546134Y-11225120D01*
X33479456Y-11245997D01*
X33412076Y-11227512D01*
X33365386Y-11175532D01*
X33353244Y-11122318D01*
X33351897Y-10561053D01*
X33371421Y-10493969D01*
X33424115Y-10448088D01*
X33493249Y-10437978D01*
X33495280Y-10438282D01*
X33542479Y-10445758D01*
X33599999Y-10454869D01*
X33600000Y-10454869D01*
X33600002Y-10454869D01*
X33709658Y-10437501D01*
X33709659Y-10437500D01*
X33709661Y-10437500D01*
X33808587Y-10387095D01*
X33887095Y-10308587D01*
X33937500Y-10209661D01*
X33937500Y-10209659D01*
X33937501Y-10209658D01*
X33954869Y-10100002D01*
X33954869Y-10099997D01*
X33937501Y-9990341D01*
X33913669Y-9943568D01*
X33887095Y-9891413D01*
X33887092Y-9891410D01*
X33887090Y-9891407D01*
X33808592Y-9812909D01*
X33808588Y-9812906D01*
X33808587Y-9812905D01*
X33802214Y-9809658D01*
X33709658Y-9762498D01*
X33600002Y-9745131D01*
X33599997Y-9745131D01*
X33493082Y-9762064D01*
X33423789Y-9753109D01*
X33370337Y-9708113D01*
X33349698Y-9641361D01*
X33349685Y-9640000D01*
X33349495Y-9560673D01*
X33367154Y-9499997D01*
X45845131Y-9499997D01*
X45845131Y-9500002D01*
X45862498Y-9609658D01*
X45877901Y-9639888D01*
X45912663Y-9708113D01*
X45912904Y-9708585D01*
X45912909Y-9708592D01*
X45991407Y-9787090D01*
X45991410Y-9787092D01*
X45991413Y-9787095D01*
X46086382Y-9835484D01*
X46090341Y-9837501D01*
X46199998Y-9854869D01*
X46200000Y-9854869D01*
X46200002Y-9854869D01*
X46309658Y-9837501D01*
X46309659Y-9837500D01*
X46309661Y-9837500D01*
X46408587Y-9787095D01*
X46487095Y-9708587D01*
X46491472Y-9699997D01*
X51545131Y-9699997D01*
X51545131Y-9700002D01*
X51562498Y-9809658D01*
X51612904Y-9908585D01*
X51612909Y-9908592D01*
X51691407Y-9987090D01*
X51691410Y-9987092D01*
X51691413Y-9987095D01*
X51735696Y-10009658D01*
X51790341Y-10037501D01*
X51899998Y-10054869D01*
X51900000Y-10054869D01*
X51900002Y-10054869D01*
X52009658Y-10037501D01*
X52009659Y-10037500D01*
X52009661Y-10037500D01*
X52108587Y-9987095D01*
X52187095Y-9908587D01*
X52191472Y-9899997D01*
X53445131Y-9899997D01*
X53445131Y-9900002D01*
X53462498Y-10009658D01*
X53512904Y-10108585D01*
X53512909Y-10108592D01*
X53591407Y-10187090D01*
X53591410Y-10187092D01*
X53591413Y-10187095D01*
X53690339Y-10237500D01*
X53690341Y-10237501D01*
X53799998Y-10254869D01*
X53800000Y-10254869D01*
X53800002Y-10254869D01*
X53909658Y-10237501D01*
X53909659Y-10237500D01*
X53909661Y-10237500D01*
X54008587Y-10187095D01*
X54087095Y-10108587D01*
X54137500Y-10009661D01*
X54137500Y-10009659D01*
X54137501Y-10009658D01*
X54154869Y-9900002D01*
X54154869Y-9899997D01*
X54137501Y-9790341D01*
X54137500Y-9790339D01*
X54087095Y-9691413D01*
X54087092Y-9691410D01*
X54087090Y-9691407D01*
X54008592Y-9612909D01*
X54008588Y-9612906D01*
X54008587Y-9612905D01*
X54002214Y-9609658D01*
X53909658Y-9562498D01*
X53800002Y-9545131D01*
X53799998Y-9545131D01*
X53690341Y-9562498D01*
X53591414Y-9612904D01*
X53591407Y-9612909D01*
X53512909Y-9691407D01*
X53512904Y-9691414D01*
X53462498Y-9790341D01*
X53445131Y-9899997D01*
X52191472Y-9899997D01*
X52237500Y-9809661D01*
X52237500Y-9809659D01*
X52237501Y-9809658D01*
X52254869Y-9700002D01*
X52254869Y-9699997D01*
X52237501Y-9590341D01*
X52223314Y-9562498D01*
X52187095Y-9491413D01*
X52187092Y-9491410D01*
X52187090Y-9491407D01*
X52108592Y-9412909D01*
X52108588Y-9412906D01*
X52108587Y-9412905D01*
X52104743Y-9410946D01*
X52009658Y-9362498D01*
X51900002Y-9345131D01*
X51899998Y-9345131D01*
X51790341Y-9362498D01*
X51691414Y-9412904D01*
X51691407Y-9412909D01*
X51612909Y-9491407D01*
X51612904Y-9491414D01*
X51562498Y-9590341D01*
X51545131Y-9699997D01*
X46491472Y-9699997D01*
X46537500Y-9609661D01*
X46537500Y-9609659D01*
X46537501Y-9609658D01*
X46554869Y-9500002D01*
X46554869Y-9499997D01*
X46537501Y-9390341D01*
X46518335Y-9352726D01*
X46487095Y-9291413D01*
X46487092Y-9291410D01*
X46487090Y-9291407D01*
X46408592Y-9212909D01*
X46408588Y-9212906D01*
X46408587Y-9212905D01*
X46338514Y-9177201D01*
X46309658Y-9162498D01*
X46200002Y-9145131D01*
X46199998Y-9145131D01*
X46090341Y-9162498D01*
X45991414Y-9212904D01*
X45991407Y-9212909D01*
X45912909Y-9291407D01*
X45912904Y-9291414D01*
X45862498Y-9390341D01*
X45845131Y-9499997D01*
X33367154Y-9499997D01*
X33369019Y-9493589D01*
X33421713Y-9447708D01*
X33490848Y-9437598D01*
X33492893Y-9437905D01*
X33599998Y-9454869D01*
X33600000Y-9454869D01*
X33600002Y-9454869D01*
X33709658Y-9437501D01*
X33709659Y-9437500D01*
X33709661Y-9437500D01*
X33808587Y-9387095D01*
X33887095Y-9308587D01*
X33937500Y-9209661D01*
X33937500Y-9209659D01*
X33937501Y-9209658D01*
X33954869Y-9100002D01*
X33954869Y-9099997D01*
X33937501Y-8990341D01*
X33937500Y-8990339D01*
X33887095Y-8891413D01*
X33887092Y-8891410D01*
X33887090Y-8891407D01*
X33808592Y-8812909D01*
X33808588Y-8812906D01*
X33808587Y-8812905D01*
X33783754Y-8800252D01*
X33709658Y-8762498D01*
X33600002Y-8745131D01*
X33599997Y-8745131D01*
X33490682Y-8762444D01*
X33421389Y-8753489D01*
X33367937Y-8708493D01*
X33347298Y-8641741D01*
X33347285Y-8640376D01*
X33347093Y-8560292D01*
X33366617Y-8493208D01*
X33419311Y-8447327D01*
X33488445Y-8437217D01*
X33490464Y-8437519D01*
X33552383Y-8447327D01*
X33599999Y-8454869D01*
X33600000Y-8454869D01*
X33600002Y-8454869D01*
X33709658Y-8437501D01*
X33709659Y-8437500D01*
X33709661Y-8437500D01*
X33808587Y-8387095D01*
X33887095Y-8308587D01*
X33937500Y-8209661D01*
X33937500Y-8209659D01*
X33937501Y-8209658D01*
X33939031Y-8199997D01*
X53145131Y-8199997D01*
X53145131Y-8200002D01*
X53162498Y-8309658D01*
X53212904Y-8408585D01*
X53212909Y-8408592D01*
X53291407Y-8487090D01*
X53291410Y-8487092D01*
X53291413Y-8487095D01*
X53390339Y-8537500D01*
X53390340Y-8537500D01*
X53390342Y-8537501D01*
X53390341Y-8537501D01*
X53407748Y-8540258D01*
X53470883Y-8570187D01*
X53507815Y-8629498D01*
X53506817Y-8699361D01*
X53498836Y-8719025D01*
X53462498Y-8790341D01*
X53445131Y-8899997D01*
X53445131Y-8900002D01*
X53462498Y-9009658D01*
X53512904Y-9108585D01*
X53512909Y-9108592D01*
X53591407Y-9187090D01*
X53591410Y-9187092D01*
X53591413Y-9187095D01*
X53690339Y-9237500D01*
X53690341Y-9237501D01*
X53799998Y-9254869D01*
X53800000Y-9254869D01*
X53800002Y-9254869D01*
X53909658Y-9237501D01*
X53909659Y-9237500D01*
X53909661Y-9237500D01*
X54008587Y-9187095D01*
X54087095Y-9108587D01*
X54137500Y-9009661D01*
X54137500Y-9009659D01*
X54137501Y-9009658D01*
X54154869Y-8900002D01*
X54154869Y-8899997D01*
X54137501Y-8790341D01*
X54118724Y-8753489D01*
X54087095Y-8691413D01*
X54087092Y-8691410D01*
X54087090Y-8691407D01*
X54008592Y-8612909D01*
X54008588Y-8612906D01*
X54008587Y-8612905D01*
X53909661Y-8562500D01*
X53909659Y-8562499D01*
X53909658Y-8562499D01*
X53892247Y-8559741D01*
X53829113Y-8529810D01*
X53792183Y-8470497D01*
X53793183Y-8400635D01*
X53801158Y-8380986D01*
X53837500Y-8309661D01*
X53837670Y-8308592D01*
X53854869Y-8200002D01*
X53854869Y-8199997D01*
X53837501Y-8090341D01*
X53795848Y-8008592D01*
X53787095Y-7991413D01*
X53787092Y-7991410D01*
X53787090Y-7991407D01*
X53708592Y-7912909D01*
X53708588Y-7912906D01*
X53708587Y-7912905D01*
X53702214Y-7909658D01*
X53609658Y-7862498D01*
X53500002Y-7845131D01*
X53499998Y-7845131D01*
X53390341Y-7862498D01*
X53291414Y-7912904D01*
X53291407Y-7912909D01*
X53212909Y-7991407D01*
X53212904Y-7991414D01*
X53162498Y-8090341D01*
X53145131Y-8199997D01*
X33939031Y-8199997D01*
X33954869Y-8100002D01*
X33954869Y-8099997D01*
X33937501Y-7990341D01*
X33937500Y-7990339D01*
X33887095Y-7891413D01*
X33887092Y-7891410D01*
X33887090Y-7891407D01*
X33808592Y-7812909D01*
X33808588Y-7812906D01*
X33808587Y-7812905D01*
X33783263Y-7800002D01*
X33783253Y-7799997D01*
X50145131Y-7799997D01*
X50145131Y-7800002D01*
X50162498Y-7909658D01*
X50212904Y-8008585D01*
X50212909Y-8008592D01*
X50291407Y-8087090D01*
X50291410Y-8087092D01*
X50291413Y-8087095D01*
X50316741Y-8100000D01*
X50390341Y-8137501D01*
X50499998Y-8154869D01*
X50500000Y-8154869D01*
X50500002Y-8154869D01*
X50609658Y-8137501D01*
X50609659Y-8137500D01*
X50609661Y-8137500D01*
X50708587Y-8087095D01*
X50787095Y-8008587D01*
X50837500Y-7909661D01*
X50837500Y-7909659D01*
X50837501Y-7909658D01*
X50854869Y-7800002D01*
X50854869Y-7799997D01*
X50837501Y-7690341D01*
X50812182Y-7640649D01*
X50787095Y-7591413D01*
X50787092Y-7591410D01*
X50787090Y-7591407D01*
X50708592Y-7512909D01*
X50708588Y-7512906D01*
X50708587Y-7512905D01*
X50704743Y-7510946D01*
X50609658Y-7462498D01*
X50500002Y-7445131D01*
X50499998Y-7445131D01*
X50390341Y-7462498D01*
X50291414Y-7512904D01*
X50291407Y-7512909D01*
X50212909Y-7591407D01*
X50212904Y-7591414D01*
X50162498Y-7690341D01*
X50145131Y-7799997D01*
X33783253Y-7799997D01*
X33709658Y-7762498D01*
X33600002Y-7745131D01*
X33599997Y-7745131D01*
X33488283Y-7762824D01*
X33418990Y-7753869D01*
X33365538Y-7708873D01*
X33344899Y-7642121D01*
X33344886Y-7640649D01*
X33344692Y-7559915D01*
X33364216Y-7492828D01*
X33416910Y-7446947D01*
X33486044Y-7436837D01*
X33488090Y-7437144D01*
X33599998Y-7454869D01*
X33600000Y-7454869D01*
X33600002Y-7454869D01*
X33709658Y-7437501D01*
X33709659Y-7437500D01*
X33709661Y-7437500D01*
X33808587Y-7387095D01*
X33887095Y-7308587D01*
X33937500Y-7209661D01*
X33937500Y-7209659D01*
X33937501Y-7209658D01*
X33954869Y-7100002D01*
X33954869Y-7099997D01*
X33937501Y-6990341D01*
X33891470Y-6900000D01*
X33887095Y-6891413D01*
X33887092Y-6891410D01*
X33887090Y-6891407D01*
X33808592Y-6812909D01*
X33808588Y-6812906D01*
X33808587Y-6812905D01*
X33804743Y-6810946D01*
X33709658Y-6762498D01*
X33600002Y-6745131D01*
X33599996Y-6745131D01*
X33485883Y-6763204D01*
X33416590Y-6754249D01*
X33363138Y-6709252D01*
X33342499Y-6642501D01*
X33342486Y-6641029D01*
X33342290Y-6559533D01*
X33361814Y-6492449D01*
X33414507Y-6446567D01*
X33483642Y-6436457D01*
X33485688Y-6436764D01*
X33599998Y-6454869D01*
X33600000Y-6454869D01*
X33600002Y-6454869D01*
X33709658Y-6437501D01*
X33709659Y-6437500D01*
X33709661Y-6437500D01*
X33808587Y-6387095D01*
X33887095Y-6308587D01*
X33937500Y-6209661D01*
X33937500Y-6209659D01*
X33937501Y-6209658D01*
X33954869Y-6100002D01*
X33954869Y-6099997D01*
X33937501Y-5990341D01*
X33891470Y-5900000D01*
X33887095Y-5891413D01*
X33887092Y-5891410D01*
X33887090Y-5891407D01*
X33808592Y-5812909D01*
X33808588Y-5812906D01*
X33808587Y-5812905D01*
X33804743Y-5810946D01*
X33709658Y-5762498D01*
X33600002Y-5745131D01*
X33599998Y-5745131D01*
X33483484Y-5763585D01*
X33414190Y-5754630D01*
X33360738Y-5709634D01*
X33340099Y-5642883D01*
X33340086Y-5641410D01*
X33340038Y-5621445D01*
X33339888Y-5559152D01*
X33359411Y-5492068D01*
X33412105Y-5446186D01*
X33481240Y-5436076D01*
X33483286Y-5436383D01*
X33599998Y-5454869D01*
X33600000Y-5454869D01*
X33600002Y-5454869D01*
X33709658Y-5437501D01*
X33709659Y-5437500D01*
X33709661Y-5437500D01*
X33808587Y-5387095D01*
X33887095Y-5308587D01*
X33937500Y-5209661D01*
X33937500Y-5209659D01*
X33937501Y-5209658D01*
X33954869Y-5100002D01*
X33954869Y-5099997D01*
X33937501Y-4990341D01*
X33934533Y-4984516D01*
X33887095Y-4891413D01*
X33887092Y-4891410D01*
X33887090Y-4891407D01*
X33808592Y-4812909D01*
X33808588Y-4812906D01*
X33808587Y-4812905D01*
X33709661Y-4762500D01*
X33709659Y-4762499D01*
X33705705Y-4760485D01*
X33654909Y-4712511D01*
X33638113Y-4644690D01*
X33660650Y-4578555D01*
X33705705Y-4539515D01*
X33709659Y-4537500D01*
X33709661Y-4537500D01*
X33808587Y-4487095D01*
X33887095Y-4408587D01*
X33937500Y-4309661D01*
X33937500Y-4309659D01*
X33937501Y-4309658D01*
X33954869Y-4200002D01*
X33954869Y-4199997D01*
X33937501Y-4090341D01*
X33937500Y-4090339D01*
X33887095Y-3991413D01*
X33887092Y-3991410D01*
X33887090Y-3991407D01*
X33824864Y-3929181D01*
X33791379Y-3867858D01*
X33796363Y-3798166D01*
X33838235Y-3742233D01*
X33903699Y-3717816D01*
X33912545Y-3717500D01*
X34781805Y-3717500D01*
X34863361Y-3701276D01*
X34903035Y-3693385D01*
X35017233Y-3646083D01*
X35120008Y-3577411D01*
X35207411Y-3490008D01*
X35276083Y-3387233D01*
X35323385Y-3273035D01*
X35347500Y-3151805D01*
X37322499Y-3151805D01*
X37346613Y-3273029D01*
X37346616Y-3273039D01*
X37393913Y-3387226D01*
X37393920Y-3387239D01*
X37462588Y-3490007D01*
X37462591Y-3490011D01*
X37549988Y-3577408D01*
X37549992Y-3577411D01*
X37652760Y-3646079D01*
X37652773Y-3646086D01*
X37692401Y-3662500D01*
X37766965Y-3693385D01*
X37766969Y-3693385D01*
X37766970Y-3693386D01*
X37862430Y-3712375D01*
X37924341Y-3744760D01*
X37958915Y-3805476D01*
X37955175Y-3875246D01*
X37914308Y-3931917D01*
X37870333Y-3953766D01*
X37775935Y-3979060D01*
X37775933Y-3979061D01*
X37775932Y-3979061D01*
X37643568Y-4055482D01*
X37643562Y-4055486D01*
X37535486Y-4163562D01*
X37535482Y-4163568D01*
X37459061Y-4295932D01*
X37459060Y-4295935D01*
X37419500Y-4443576D01*
X37419500Y-4596424D01*
X37459060Y-4744065D01*
X37535484Y-4876435D01*
X37643565Y-4984516D01*
X37775935Y-5060940D01*
X37923576Y-5100500D01*
X37923578Y-5100500D01*
X38076422Y-5100500D01*
X38076424Y-5100500D01*
X38224065Y-5060940D01*
X38356435Y-4984516D01*
X38464516Y-4876435D01*
X38540940Y-4744065D01*
X38580500Y-4596424D01*
X38580500Y-4443576D01*
X38540940Y-4295935D01*
X38464516Y-4163565D01*
X38356435Y-4055484D01*
X38260329Y-3999997D01*
X40545131Y-3999997D01*
X40545131Y-4000002D01*
X40562498Y-4109658D01*
X40612904Y-4208585D01*
X40612909Y-4208592D01*
X40691407Y-4287090D01*
X40691410Y-4287092D01*
X40691413Y-4287095D01*
X40708763Y-4295935D01*
X40790341Y-4337501D01*
X40899998Y-4354869D01*
X40900000Y-4354869D01*
X40900002Y-4354869D01*
X41009658Y-4337501D01*
X41009659Y-4337500D01*
X41009661Y-4337500D01*
X41108587Y-4287095D01*
X41187095Y-4208587D01*
X41191472Y-4199997D01*
X45945131Y-4199997D01*
X45945131Y-4200002D01*
X45962498Y-4309658D01*
X46012904Y-4408585D01*
X46012909Y-4408592D01*
X46091407Y-4487090D01*
X46091411Y-4487093D01*
X46091413Y-4487095D01*
X46190339Y-4537500D01*
X46190340Y-4537500D01*
X46194295Y-4539515D01*
X46245091Y-4587489D01*
X46261886Y-4655310D01*
X46239349Y-4721445D01*
X46194295Y-4760485D01*
X46190340Y-4762499D01*
X46190339Y-4762500D01*
X46135702Y-4790339D01*
X46091411Y-4812906D01*
X46091407Y-4812909D01*
X46012909Y-4891407D01*
X46012904Y-4891414D01*
X45962498Y-4990341D01*
X45945131Y-5099997D01*
X45945131Y-5100002D01*
X45962498Y-5209658D01*
X46012904Y-5308585D01*
X46012909Y-5308592D01*
X46091407Y-5387090D01*
X46091411Y-5387093D01*
X46091413Y-5387095D01*
X46190339Y-5437500D01*
X46190340Y-5437500D01*
X46194295Y-5439515D01*
X46245091Y-5487489D01*
X46261886Y-5555310D01*
X46239349Y-5621445D01*
X46194295Y-5660485D01*
X46190340Y-5662499D01*
X46190339Y-5662500D01*
X46133594Y-5691413D01*
X46091411Y-5712906D01*
X46091407Y-5712909D01*
X46012909Y-5791407D01*
X46012904Y-5791414D01*
X45962498Y-5890341D01*
X45945131Y-5999997D01*
X45945131Y-6000002D01*
X45962498Y-6109658D01*
X46012904Y-6208585D01*
X46012909Y-6208592D01*
X46091407Y-6287090D01*
X46091411Y-6287093D01*
X46091413Y-6287095D01*
X46190339Y-6337500D01*
X46190340Y-6337500D01*
X46194295Y-6339515D01*
X46245091Y-6387489D01*
X46261886Y-6455310D01*
X46239349Y-6521445D01*
X46194295Y-6560485D01*
X46190340Y-6562499D01*
X46190339Y-6562500D01*
X46116741Y-6600000D01*
X46091411Y-6612906D01*
X46091407Y-6612909D01*
X46012909Y-6691407D01*
X46012904Y-6691414D01*
X45962498Y-6790341D01*
X45945131Y-6899997D01*
X45945131Y-6900002D01*
X45962498Y-7009658D01*
X46012904Y-7108585D01*
X46012909Y-7108592D01*
X46091407Y-7187090D01*
X46091410Y-7187092D01*
X46091413Y-7187095D01*
X46135696Y-7209658D01*
X46190341Y-7237501D01*
X46299998Y-7254869D01*
X46300000Y-7254869D01*
X46300002Y-7254869D01*
X46409658Y-7237501D01*
X46409659Y-7237500D01*
X46409661Y-7237500D01*
X46508587Y-7187095D01*
X46587095Y-7108587D01*
X46637500Y-7009661D01*
X46637500Y-7009659D01*
X46637501Y-7009658D01*
X46654869Y-6900002D01*
X46654869Y-6899997D01*
X46637501Y-6790341D01*
X46619111Y-6754249D01*
X46587095Y-6691413D01*
X46587092Y-6691410D01*
X46587090Y-6691407D01*
X46508592Y-6612909D01*
X46508588Y-6612906D01*
X46508587Y-6612905D01*
X46409661Y-6562500D01*
X46409659Y-6562499D01*
X46405705Y-6560485D01*
X46354909Y-6512511D01*
X46338113Y-6444690D01*
X46360650Y-6378555D01*
X46405705Y-6339515D01*
X46409659Y-6337500D01*
X46409661Y-6337500D01*
X46508587Y-6287095D01*
X46587095Y-6208587D01*
X46637500Y-6109661D01*
X46637500Y-6109659D01*
X46637501Y-6109658D01*
X46654869Y-6000002D01*
X46654869Y-5999997D01*
X46637501Y-5890341D01*
X46623925Y-5863697D01*
X46587095Y-5791413D01*
X46587092Y-5791410D01*
X46587090Y-5791407D01*
X46508592Y-5712909D01*
X46508588Y-5712906D01*
X46508587Y-5712905D01*
X46409661Y-5662500D01*
X46409659Y-5662499D01*
X46405705Y-5660485D01*
X46354909Y-5612511D01*
X46338113Y-5544690D01*
X46360650Y-5478555D01*
X46405705Y-5439515D01*
X46409659Y-5437500D01*
X46409661Y-5437500D01*
X46508587Y-5387095D01*
X46587095Y-5308587D01*
X46637500Y-5209661D01*
X46637500Y-5209659D01*
X46637501Y-5209658D01*
X46654869Y-5100002D01*
X46654869Y-5099997D01*
X46637501Y-4990341D01*
X46634533Y-4984516D01*
X46587095Y-4891413D01*
X46587092Y-4891410D01*
X46587090Y-4891407D01*
X46508592Y-4812909D01*
X46508588Y-4812906D01*
X46508587Y-4812905D01*
X46409661Y-4762500D01*
X46409659Y-4762499D01*
X46405705Y-4760485D01*
X46354909Y-4712511D01*
X46338113Y-4644690D01*
X46360650Y-4578555D01*
X46405705Y-4539515D01*
X46409659Y-4537500D01*
X46409661Y-4537500D01*
X46508587Y-4487095D01*
X46587095Y-4408587D01*
X46637500Y-4309661D01*
X46637500Y-4309659D01*
X46637501Y-4309658D01*
X46654869Y-4200002D01*
X46654869Y-4199997D01*
X47345131Y-4199997D01*
X47345131Y-4200002D01*
X47362498Y-4309658D01*
X47412904Y-4408585D01*
X47412909Y-4408592D01*
X47491407Y-4487090D01*
X47491411Y-4487093D01*
X47491413Y-4487095D01*
X47590339Y-4537500D01*
X47590340Y-4537500D01*
X47594295Y-4539515D01*
X47645091Y-4587489D01*
X47661886Y-4655310D01*
X47639349Y-4721445D01*
X47594295Y-4760485D01*
X47590340Y-4762499D01*
X47590339Y-4762500D01*
X47535702Y-4790339D01*
X47491411Y-4812906D01*
X47491407Y-4812909D01*
X47412909Y-4891407D01*
X47412904Y-4891414D01*
X47362498Y-4990341D01*
X47345131Y-5099997D01*
X47345131Y-5100002D01*
X47362498Y-5209658D01*
X47412904Y-5308585D01*
X47412909Y-5308592D01*
X47491407Y-5387090D01*
X47491411Y-5387093D01*
X47491413Y-5387095D01*
X47590339Y-5437500D01*
X47590340Y-5437500D01*
X47594295Y-5439515D01*
X47645091Y-5487489D01*
X47661886Y-5555310D01*
X47639349Y-5621445D01*
X47594295Y-5660485D01*
X47590340Y-5662499D01*
X47590339Y-5662500D01*
X47533594Y-5691413D01*
X47491411Y-5712906D01*
X47491407Y-5712909D01*
X47412909Y-5791407D01*
X47412904Y-5791414D01*
X47362498Y-5890341D01*
X47345131Y-5999997D01*
X47345131Y-6000002D01*
X47362498Y-6109658D01*
X47412904Y-6208585D01*
X47412909Y-6208592D01*
X47491407Y-6287090D01*
X47491411Y-6287093D01*
X47491413Y-6287095D01*
X47590339Y-6337500D01*
X47590340Y-6337500D01*
X47594295Y-6339515D01*
X47645091Y-6387489D01*
X47661886Y-6455310D01*
X47639349Y-6521445D01*
X47594295Y-6560485D01*
X47590340Y-6562499D01*
X47590339Y-6562500D01*
X47516741Y-6600000D01*
X47491411Y-6612906D01*
X47491407Y-6612909D01*
X47412909Y-6691407D01*
X47412904Y-6691414D01*
X47362498Y-6790341D01*
X47345131Y-6899997D01*
X47345131Y-6900002D01*
X47362498Y-7009658D01*
X47412904Y-7108585D01*
X47412909Y-7108592D01*
X47491407Y-7187090D01*
X47491410Y-7187092D01*
X47491413Y-7187095D01*
X47535696Y-7209658D01*
X47590341Y-7237501D01*
X47699998Y-7254869D01*
X47700000Y-7254869D01*
X47700002Y-7254869D01*
X47809658Y-7237501D01*
X47809659Y-7237500D01*
X47809661Y-7237500D01*
X47908587Y-7187095D01*
X47987095Y-7108587D01*
X48037500Y-7009661D01*
X48037500Y-7009659D01*
X48037501Y-7009658D01*
X48054869Y-6900002D01*
X48054869Y-6899997D01*
X48037501Y-6790341D01*
X48019111Y-6754249D01*
X47987095Y-6691413D01*
X47987092Y-6691410D01*
X47987090Y-6691407D01*
X47908592Y-6612909D01*
X47908588Y-6612906D01*
X47908587Y-6612905D01*
X47809661Y-6562500D01*
X47809659Y-6562499D01*
X47805705Y-6560485D01*
X47754909Y-6512511D01*
X47738113Y-6444690D01*
X47760650Y-6378555D01*
X47805705Y-6339515D01*
X47809659Y-6337500D01*
X47809661Y-6337500D01*
X47908587Y-6287095D01*
X47987095Y-6208587D01*
X48037500Y-6109661D01*
X48037500Y-6109659D01*
X48037501Y-6109658D01*
X48054869Y-6000002D01*
X48054869Y-5999997D01*
X48037501Y-5890341D01*
X48023925Y-5863697D01*
X47987095Y-5791413D01*
X47987092Y-5791410D01*
X47987090Y-5791407D01*
X47908592Y-5712909D01*
X47908588Y-5712906D01*
X47908587Y-5712905D01*
X47809661Y-5662500D01*
X47809659Y-5662499D01*
X47805705Y-5660485D01*
X47754909Y-5612511D01*
X47738113Y-5544690D01*
X47760650Y-5478555D01*
X47805705Y-5439515D01*
X47809659Y-5437500D01*
X47809661Y-5437500D01*
X47908587Y-5387095D01*
X47987095Y-5308587D01*
X48037500Y-5209661D01*
X48037500Y-5209659D01*
X48037501Y-5209658D01*
X48054869Y-5100002D01*
X48054869Y-5099997D01*
X48037501Y-4990341D01*
X48034533Y-4984516D01*
X47987095Y-4891413D01*
X47987092Y-4891410D01*
X47987090Y-4891407D01*
X47908592Y-4812909D01*
X47908588Y-4812906D01*
X47908587Y-4812905D01*
X47809661Y-4762500D01*
X47809659Y-4762499D01*
X47805705Y-4760485D01*
X47754909Y-4712511D01*
X47738113Y-4644690D01*
X47760650Y-4578555D01*
X47805705Y-4539515D01*
X47809659Y-4537500D01*
X47809661Y-4537500D01*
X47908587Y-4487095D01*
X47987095Y-4408587D01*
X48037500Y-4309661D01*
X48037500Y-4309659D01*
X48037501Y-4309658D01*
X48054869Y-4200002D01*
X48054869Y-4199997D01*
X48545131Y-4199997D01*
X48545131Y-4200002D01*
X48562498Y-4309658D01*
X48612904Y-4408585D01*
X48612909Y-4408592D01*
X48691407Y-4487090D01*
X48691411Y-4487093D01*
X48691413Y-4487095D01*
X48790339Y-4537500D01*
X48790340Y-4537500D01*
X48794295Y-4539515D01*
X48845091Y-4587489D01*
X48861886Y-4655310D01*
X48839349Y-4721445D01*
X48794295Y-4760485D01*
X48790340Y-4762499D01*
X48790339Y-4762500D01*
X48735702Y-4790339D01*
X48691411Y-4812906D01*
X48691407Y-4812909D01*
X48612909Y-4891407D01*
X48612904Y-4891414D01*
X48562498Y-4990341D01*
X48545131Y-5099997D01*
X48545131Y-5100002D01*
X48562498Y-5209658D01*
X48612904Y-5308585D01*
X48612909Y-5308592D01*
X48691407Y-5387090D01*
X48691411Y-5387093D01*
X48691413Y-5387095D01*
X48790339Y-5437500D01*
X48790340Y-5437500D01*
X48794295Y-5439515D01*
X48845091Y-5487489D01*
X48861886Y-5555310D01*
X48839349Y-5621445D01*
X48794295Y-5660485D01*
X48790340Y-5662499D01*
X48790339Y-5662500D01*
X48733594Y-5691413D01*
X48691411Y-5712906D01*
X48691407Y-5712909D01*
X48612909Y-5791407D01*
X48612904Y-5791414D01*
X48562498Y-5890341D01*
X48545131Y-5999997D01*
X48545131Y-6000002D01*
X48562498Y-6109658D01*
X48612904Y-6208585D01*
X48612909Y-6208592D01*
X48691407Y-6287090D01*
X48691411Y-6287093D01*
X48691413Y-6287095D01*
X48790339Y-6337500D01*
X48790340Y-6337500D01*
X48794295Y-6339515D01*
X48845091Y-6387489D01*
X48861886Y-6455310D01*
X48839349Y-6521445D01*
X48794295Y-6560485D01*
X48790340Y-6562499D01*
X48790339Y-6562500D01*
X48716741Y-6600000D01*
X48691411Y-6612906D01*
X48691407Y-6612909D01*
X48612909Y-6691407D01*
X48612904Y-6691414D01*
X48562498Y-6790341D01*
X48545131Y-6899997D01*
X48545131Y-6900002D01*
X48562498Y-7009658D01*
X48612904Y-7108585D01*
X48612909Y-7108592D01*
X48691407Y-7187090D01*
X48691410Y-7187092D01*
X48691413Y-7187095D01*
X48735696Y-7209658D01*
X48790341Y-7237501D01*
X48899998Y-7254869D01*
X48900000Y-7254869D01*
X48900002Y-7254869D01*
X49009658Y-7237501D01*
X49009659Y-7237500D01*
X49009661Y-7237500D01*
X49108587Y-7187095D01*
X49187095Y-7108587D01*
X49237500Y-7009661D01*
X49237500Y-7009659D01*
X49237501Y-7009658D01*
X49254869Y-6900002D01*
X49254869Y-6899997D01*
X49237501Y-6790341D01*
X49219111Y-6754249D01*
X49187095Y-6691413D01*
X49187092Y-6691410D01*
X49187090Y-6691407D01*
X49108592Y-6612909D01*
X49108588Y-6612906D01*
X49108587Y-6612905D01*
X49009661Y-6562500D01*
X49009659Y-6562499D01*
X49005705Y-6560485D01*
X48954909Y-6512511D01*
X48938113Y-6444690D01*
X48960650Y-6378555D01*
X49005705Y-6339515D01*
X49009659Y-6337500D01*
X49009661Y-6337500D01*
X49108587Y-6287095D01*
X49187095Y-6208587D01*
X49237500Y-6109661D01*
X49237500Y-6109659D01*
X49237501Y-6109658D01*
X49254869Y-6000002D01*
X49254869Y-5999997D01*
X49239030Y-5899997D01*
X53545131Y-5899997D01*
X53545131Y-5900002D01*
X53562498Y-6009658D01*
X53612904Y-6108585D01*
X53612909Y-6108592D01*
X53691407Y-6187090D01*
X53691410Y-6187092D01*
X53691413Y-6187095D01*
X53733590Y-6208585D01*
X53790341Y-6237501D01*
X53899998Y-6254869D01*
X53900000Y-6254869D01*
X53900002Y-6254869D01*
X54009658Y-6237501D01*
X54009659Y-6237500D01*
X54009661Y-6237500D01*
X54108587Y-6187095D01*
X54187095Y-6108587D01*
X54237500Y-6009661D01*
X54237500Y-6009659D01*
X54237501Y-6009658D01*
X54254869Y-5900002D01*
X54254869Y-5899997D01*
X54237501Y-5790341D01*
X54219305Y-5754630D01*
X54187095Y-5691413D01*
X54187092Y-5691410D01*
X54187090Y-5691407D01*
X54108592Y-5612909D01*
X54108588Y-5612906D01*
X54108587Y-5612905D01*
X54104743Y-5610946D01*
X54009658Y-5562498D01*
X53900002Y-5545131D01*
X53899998Y-5545131D01*
X53790341Y-5562498D01*
X53691414Y-5612904D01*
X53691407Y-5612909D01*
X53612909Y-5691407D01*
X53612904Y-5691414D01*
X53562498Y-5790341D01*
X53545131Y-5899997D01*
X49239030Y-5899997D01*
X49237501Y-5890341D01*
X49223925Y-5863697D01*
X49187095Y-5791413D01*
X49187092Y-5791410D01*
X49187090Y-5791407D01*
X49108592Y-5712909D01*
X49108588Y-5712906D01*
X49108587Y-5712905D01*
X49009661Y-5662500D01*
X49009659Y-5662499D01*
X49005705Y-5660485D01*
X48954909Y-5612511D01*
X48938113Y-5544690D01*
X48960650Y-5478555D01*
X49005705Y-5439515D01*
X49009659Y-5437500D01*
X49009661Y-5437500D01*
X49108587Y-5387095D01*
X49187095Y-5308587D01*
X49237500Y-5209661D01*
X49237500Y-5209659D01*
X49237501Y-5209658D01*
X49239031Y-5199997D01*
X52545131Y-5199997D01*
X52545131Y-5200002D01*
X52562498Y-5309658D01*
X52612904Y-5408585D01*
X52612909Y-5408592D01*
X52691407Y-5487090D01*
X52691410Y-5487092D01*
X52691413Y-5487095D01*
X52790339Y-5537500D01*
X52790341Y-5537501D01*
X52899998Y-5554869D01*
X52900000Y-5554869D01*
X52900002Y-5554869D01*
X53009658Y-5537501D01*
X53009659Y-5537500D01*
X53009661Y-5537500D01*
X53108587Y-5487095D01*
X53187095Y-5408587D01*
X53237500Y-5309661D01*
X53237500Y-5309659D01*
X53237501Y-5309658D01*
X53254869Y-5200002D01*
X53254869Y-5199997D01*
X53237501Y-5090341D01*
X53237500Y-5090339D01*
X53187095Y-4991413D01*
X53187092Y-4991410D01*
X53187090Y-4991407D01*
X53108592Y-4912909D01*
X53108588Y-4912906D01*
X53108587Y-4912905D01*
X53083263Y-4900002D01*
X53083253Y-4899997D01*
X53545131Y-4899997D01*
X53545131Y-4900002D01*
X53562498Y-5009658D01*
X53612904Y-5108585D01*
X53612909Y-5108592D01*
X53691407Y-5187090D01*
X53691410Y-5187092D01*
X53691413Y-5187095D01*
X53716741Y-5200000D01*
X53790341Y-5237501D01*
X53899998Y-5254869D01*
X53900000Y-5254869D01*
X53900002Y-5254869D01*
X54009658Y-5237501D01*
X54009659Y-5237500D01*
X54009661Y-5237500D01*
X54108587Y-5187095D01*
X54187095Y-5108587D01*
X54237500Y-5009661D01*
X54237500Y-5009659D01*
X54237501Y-5009658D01*
X54254869Y-4900002D01*
X54254869Y-4899997D01*
X54237501Y-4790341D01*
X54222289Y-4760485D01*
X54187095Y-4691413D01*
X54187092Y-4691410D01*
X54187090Y-4691407D01*
X54108592Y-4612909D01*
X54108588Y-4612906D01*
X54108587Y-4612905D01*
X54058705Y-4587489D01*
X54009658Y-4562498D01*
X53900002Y-4545131D01*
X53899998Y-4545131D01*
X53790341Y-4562498D01*
X53691414Y-4612904D01*
X53691407Y-4612909D01*
X53612909Y-4691407D01*
X53612904Y-4691414D01*
X53562498Y-4790341D01*
X53545131Y-4899997D01*
X53083253Y-4899997D01*
X53009658Y-4862498D01*
X52900002Y-4845131D01*
X52899998Y-4845131D01*
X52790341Y-4862498D01*
X52691414Y-4912904D01*
X52691407Y-4912909D01*
X52612909Y-4991407D01*
X52612904Y-4991414D01*
X52562498Y-5090341D01*
X52545131Y-5199997D01*
X49239031Y-5199997D01*
X49254869Y-5100002D01*
X49254869Y-5099997D01*
X49237501Y-4990341D01*
X49234533Y-4984516D01*
X49187095Y-4891413D01*
X49187092Y-4891410D01*
X49187090Y-4891407D01*
X49108592Y-4812909D01*
X49108588Y-4812906D01*
X49108587Y-4812905D01*
X49009661Y-4762500D01*
X49009659Y-4762499D01*
X49005705Y-4760485D01*
X48954909Y-4712511D01*
X48938113Y-4644690D01*
X48960650Y-4578555D01*
X49005705Y-4539515D01*
X49009659Y-4537500D01*
X49009661Y-4537500D01*
X49108587Y-4487095D01*
X49187095Y-4408587D01*
X49237500Y-4309661D01*
X49237500Y-4309659D01*
X49237501Y-4309658D01*
X49254869Y-4200002D01*
X49254869Y-4199997D01*
X49237501Y-4090341D01*
X49237500Y-4090339D01*
X49187095Y-3991413D01*
X49187092Y-3991410D01*
X49187090Y-3991407D01*
X49108592Y-3912909D01*
X49108588Y-3912906D01*
X49108587Y-3912905D01*
X49104743Y-3910946D01*
X49009658Y-3862498D01*
X48900002Y-3845131D01*
X48899998Y-3845131D01*
X48790341Y-3862498D01*
X48691414Y-3912904D01*
X48691407Y-3912909D01*
X48612909Y-3991407D01*
X48612904Y-3991414D01*
X48562498Y-4090341D01*
X48545131Y-4199997D01*
X48054869Y-4199997D01*
X48037501Y-4090341D01*
X48037500Y-4090339D01*
X47987095Y-3991413D01*
X47987092Y-3991410D01*
X47987090Y-3991407D01*
X47908592Y-3912909D01*
X47908588Y-3912906D01*
X47908587Y-3912905D01*
X47904743Y-3910946D01*
X47809658Y-3862498D01*
X47700002Y-3845131D01*
X47699998Y-3845131D01*
X47590341Y-3862498D01*
X47491414Y-3912904D01*
X47491407Y-3912909D01*
X47412909Y-3991407D01*
X47412904Y-3991414D01*
X47362498Y-4090341D01*
X47345131Y-4199997D01*
X46654869Y-4199997D01*
X46637501Y-4090341D01*
X46637500Y-4090339D01*
X46587095Y-3991413D01*
X46587092Y-3991410D01*
X46587090Y-3991407D01*
X46508592Y-3912909D01*
X46508588Y-3912906D01*
X46508587Y-3912905D01*
X46504743Y-3910946D01*
X46409658Y-3862498D01*
X46300002Y-3845131D01*
X46299998Y-3845131D01*
X46190341Y-3862498D01*
X46091414Y-3912904D01*
X46091407Y-3912909D01*
X46012909Y-3991407D01*
X46012904Y-3991414D01*
X45962498Y-4090341D01*
X45945131Y-4199997D01*
X41191472Y-4199997D01*
X41237500Y-4109661D01*
X41237500Y-4109659D01*
X41237501Y-4109658D01*
X41254869Y-4000002D01*
X41254869Y-3999997D01*
X41237501Y-3890341D01*
X41223093Y-3862063D01*
X41187095Y-3791413D01*
X41187092Y-3791410D01*
X41187090Y-3791407D01*
X41108592Y-3712909D01*
X41108588Y-3712906D01*
X41108587Y-3712905D01*
X41070273Y-3693383D01*
X41009658Y-3662498D01*
X40900002Y-3645131D01*
X40899998Y-3645131D01*
X40790341Y-3662498D01*
X40691414Y-3712904D01*
X40691407Y-3712909D01*
X40612909Y-3791407D01*
X40612904Y-3791414D01*
X40562498Y-3890341D01*
X40545131Y-3999997D01*
X38260329Y-3999997D01*
X38224065Y-3979060D01*
X38157688Y-3961274D01*
X38098028Y-3924910D01*
X38067499Y-3862063D01*
X38075794Y-3792687D01*
X38120279Y-3738810D01*
X38186831Y-3717535D01*
X38189782Y-3717500D01*
X39111805Y-3717500D01*
X39193361Y-3701276D01*
X39233035Y-3693385D01*
X39347233Y-3646083D01*
X39450008Y-3577411D01*
X39537411Y-3490008D01*
X39606083Y-3387233D01*
X39653385Y-3273035D01*
X39677500Y-3151803D01*
X39677500Y-3028197D01*
X39677500Y-3028194D01*
X39653386Y-2906970D01*
X39653385Y-2906969D01*
X39653385Y-2906965D01*
X39613081Y-2809661D01*
X39606086Y-2792773D01*
X39606079Y-2792760D01*
X39544096Y-2699997D01*
X44245131Y-2699997D01*
X44245131Y-2700002D01*
X44262498Y-2809658D01*
X44312904Y-2908585D01*
X44312909Y-2908592D01*
X44391407Y-2987090D01*
X44391410Y-2987092D01*
X44391413Y-2987095D01*
X44472075Y-3028194D01*
X44490341Y-3037501D01*
X44599998Y-3054869D01*
X44600000Y-3054869D01*
X44600002Y-3054869D01*
X44709658Y-3037501D01*
X44709659Y-3037500D01*
X44709661Y-3037500D01*
X44808587Y-2987095D01*
X44887095Y-2908587D01*
X44937500Y-2809661D01*
X44937500Y-2809659D01*
X44937501Y-2809658D01*
X44954869Y-2700002D01*
X44954869Y-2699997D01*
X44937501Y-2590341D01*
X44908753Y-2533920D01*
X44887095Y-2491413D01*
X44887092Y-2491410D01*
X44887090Y-2491407D01*
X44808592Y-2412909D01*
X44808588Y-2412906D01*
X44808587Y-2412905D01*
X44757922Y-2387090D01*
X44709658Y-2362498D01*
X44600002Y-2345131D01*
X44599998Y-2345131D01*
X44490341Y-2362498D01*
X44391414Y-2412904D01*
X44391407Y-2412909D01*
X44312909Y-2491407D01*
X44312904Y-2491414D01*
X44262498Y-2590341D01*
X44245131Y-2699997D01*
X39544096Y-2699997D01*
X39537411Y-2689992D01*
X39537408Y-2689988D01*
X39450011Y-2602591D01*
X39450007Y-2602588D01*
X39347239Y-2533920D01*
X39347226Y-2533913D01*
X39233039Y-2486616D01*
X39233029Y-2486613D01*
X39111805Y-2462500D01*
X39111803Y-2462500D01*
X37888197Y-2462500D01*
X37888195Y-2462500D01*
X37766970Y-2486613D01*
X37766960Y-2486616D01*
X37652773Y-2533913D01*
X37652760Y-2533920D01*
X37549992Y-2602588D01*
X37549988Y-2602591D01*
X37462591Y-2689988D01*
X37462588Y-2689992D01*
X37393920Y-2792760D01*
X37393913Y-2792773D01*
X37346616Y-2906960D01*
X37346613Y-2906970D01*
X37322500Y-3028194D01*
X37322500Y-3028197D01*
X37322500Y-3151803D01*
X37322500Y-3151805D01*
X37322499Y-3151805D01*
X35347500Y-3151805D01*
X35347500Y-3151803D01*
X35347500Y-3028197D01*
X35347500Y-3028194D01*
X35323386Y-2906970D01*
X35323385Y-2906969D01*
X35323385Y-2906965D01*
X35283081Y-2809661D01*
X35276086Y-2792773D01*
X35276079Y-2792760D01*
X35207411Y-2689992D01*
X35207408Y-2689988D01*
X35120011Y-2602591D01*
X35120007Y-2602588D01*
X35017239Y-2533920D01*
X35017226Y-2533913D01*
X34903039Y-2486616D01*
X34903029Y-2486613D01*
X34781805Y-2462500D01*
X34781803Y-2462500D01*
X33958478Y-2462500D01*
X33891439Y-2442815D01*
X33845684Y-2390011D01*
X33835740Y-2320853D01*
X33836005Y-2319102D01*
X33839031Y-2299997D01*
X40945131Y-2299997D01*
X40945131Y-2300002D01*
X40962498Y-2409658D01*
X41012904Y-2508585D01*
X41012909Y-2508592D01*
X41091407Y-2587090D01*
X41091410Y-2587092D01*
X41091413Y-2587095D01*
X41190339Y-2637500D01*
X41190341Y-2637501D01*
X41299998Y-2654869D01*
X41300000Y-2654869D01*
X41300002Y-2654869D01*
X41409658Y-2637501D01*
X41409659Y-2637500D01*
X41409661Y-2637500D01*
X41508587Y-2587095D01*
X41587095Y-2508587D01*
X41637500Y-2409661D01*
X41637500Y-2409659D01*
X41637501Y-2409658D01*
X41654869Y-2300002D01*
X41654869Y-2299997D01*
X41637501Y-2190341D01*
X41591470Y-2100000D01*
X41591468Y-2099997D01*
X45445130Y-2099997D01*
X45445130Y-2100002D01*
X45462497Y-2209658D01*
X45512903Y-2308585D01*
X45512908Y-2308592D01*
X45591406Y-2387090D01*
X45591409Y-2387092D01*
X45591412Y-2387095D01*
X45690338Y-2437500D01*
X45690340Y-2437501D01*
X45799997Y-2454869D01*
X45799999Y-2454869D01*
X45800001Y-2454869D01*
X45909657Y-2437501D01*
X45909658Y-2437500D01*
X45909660Y-2437500D01*
X46008586Y-2387095D01*
X46087094Y-2308587D01*
X46137499Y-2209661D01*
X46137499Y-2209659D01*
X46137500Y-2209658D01*
X46154868Y-2100002D01*
X46154868Y-2099997D01*
X46137500Y-1990341D01*
X46119426Y-1954869D01*
X46087094Y-1891413D01*
X46087091Y-1891410D01*
X46087089Y-1891407D01*
X46008591Y-1812909D01*
X46008587Y-1812906D01*
X46008586Y-1812905D01*
X46000111Y-1808587D01*
X45909657Y-1762498D01*
X45800001Y-1745131D01*
X45799997Y-1745131D01*
X45690340Y-1762498D01*
X45591413Y-1812904D01*
X45591406Y-1812909D01*
X45512908Y-1891407D01*
X45512903Y-1891414D01*
X45462497Y-1990341D01*
X45445130Y-2099997D01*
X41591468Y-2099997D01*
X41587095Y-2091413D01*
X41587092Y-2091410D01*
X41587090Y-2091407D01*
X41508592Y-2012909D01*
X41508588Y-2012906D01*
X41508587Y-2012905D01*
X41504743Y-2010946D01*
X41409658Y-1962498D01*
X41300002Y-1945131D01*
X41299998Y-1945131D01*
X41190341Y-1962498D01*
X41091414Y-2012904D01*
X41091407Y-2012909D01*
X41012909Y-2091407D01*
X41012904Y-2091414D01*
X40962498Y-2190341D01*
X40945131Y-2299997D01*
X33839031Y-2299997D01*
X33854869Y-2200001D01*
X33854869Y-2199997D01*
X33837501Y-2090341D01*
X33837500Y-2090339D01*
X33787095Y-1991413D01*
X33787092Y-1991410D01*
X33787090Y-1991407D01*
X33708592Y-1912909D01*
X33708588Y-1912906D01*
X33708587Y-1912905D01*
X33668913Y-1892690D01*
X33609658Y-1862498D01*
X33500002Y-1845131D01*
X33499998Y-1845131D01*
X33474086Y-1849235D01*
X33404792Y-1840280D01*
X33351340Y-1795284D01*
X33330701Y-1728533D01*
X33330688Y-1727061D01*
X33330559Y-1673516D01*
X33350082Y-1606429D01*
X33357469Y-1599997D01*
X51645131Y-1599997D01*
X51645131Y-1600002D01*
X51662498Y-1709658D01*
X51712904Y-1808585D01*
X51712909Y-1808592D01*
X51791407Y-1887090D01*
X51791410Y-1887092D01*
X51791413Y-1887095D01*
X51890339Y-1937500D01*
X51890341Y-1937501D01*
X51999998Y-1954869D01*
X52000000Y-1954869D01*
X52000002Y-1954869D01*
X52109658Y-1937501D01*
X52109659Y-1937500D01*
X52109661Y-1937500D01*
X52208587Y-1887095D01*
X52287095Y-1808587D01*
X52337500Y-1709661D01*
X52337500Y-1709659D01*
X52337501Y-1709658D01*
X52354869Y-1600002D01*
X52354869Y-1599997D01*
X52337501Y-1490341D01*
X52295848Y-1408592D01*
X52287095Y-1391413D01*
X52287092Y-1391410D01*
X52287090Y-1391407D01*
X52208592Y-1312909D01*
X52208588Y-1312906D01*
X52208587Y-1312905D01*
X52202214Y-1309658D01*
X52109658Y-1262498D01*
X52000002Y-1245131D01*
X51999998Y-1245131D01*
X51890341Y-1262498D01*
X51791414Y-1312904D01*
X51791407Y-1312909D01*
X51712909Y-1391407D01*
X51712904Y-1391414D01*
X51662498Y-1490341D01*
X51645131Y-1599997D01*
X33357469Y-1599997D01*
X33402776Y-1560547D01*
X33471910Y-1550437D01*
X33473910Y-1550736D01*
X33500000Y-1554869D01*
X33500000Y-1554868D01*
X33500001Y-1554869D01*
X33500002Y-1554869D01*
X33609658Y-1537501D01*
X33609659Y-1537500D01*
X33609661Y-1537500D01*
X33708587Y-1487095D01*
X33787095Y-1408587D01*
X33837500Y-1309661D01*
X33837500Y-1309659D01*
X33837501Y-1309658D01*
X33854869Y-1200002D01*
X33854869Y-1199997D01*
X33837501Y-1090341D01*
X33837500Y-1090339D01*
X33787095Y-991413D01*
X33787092Y-991410D01*
X33787090Y-991407D01*
X33708592Y-912909D01*
X33708588Y-912906D01*
X33708587Y-912905D01*
X33657922Y-887090D01*
X33609658Y-862498D01*
X33500002Y-845131D01*
X33499997Y-845131D01*
X33471685Y-849615D01*
X33402392Y-840660D01*
X33348940Y-795664D01*
X33328301Y-728912D01*
X33328288Y-727439D01*
X33328245Y-709661D01*
X33328158Y-673133D01*
X33347682Y-606047D01*
X33354631Y-599997D01*
X38145131Y-599997D01*
X38145131Y-600002D01*
X38162498Y-709658D01*
X38212904Y-808585D01*
X38212909Y-808592D01*
X38291407Y-887090D01*
X38291410Y-887092D01*
X38291413Y-887095D01*
X38390339Y-937500D01*
X38390341Y-937501D01*
X38499998Y-954869D01*
X38500000Y-954869D01*
X38500002Y-954869D01*
X38609658Y-937501D01*
X38609659Y-937500D01*
X38609661Y-937500D01*
X38708587Y-887095D01*
X38787095Y-808587D01*
X38837500Y-709661D01*
X38837500Y-709659D01*
X38837501Y-709658D01*
X38854869Y-600002D01*
X38854869Y-599997D01*
X38837501Y-490341D01*
X38795848Y-408592D01*
X38787095Y-391413D01*
X38787092Y-391410D01*
X38787090Y-391407D01*
X38708592Y-312909D01*
X38708588Y-312906D01*
X38708587Y-312905D01*
X38700112Y-308587D01*
X38609658Y-262498D01*
X38500002Y-245131D01*
X38499998Y-245131D01*
X38390341Y-262498D01*
X38291414Y-312904D01*
X38291407Y-312909D01*
X38212909Y-391407D01*
X38212904Y-391414D01*
X38162498Y-490341D01*
X38145131Y-599997D01*
X33354631Y-599997D01*
X33400377Y-560166D01*
X33469511Y-550057D01*
X33471557Y-550364D01*
X33499999Y-554869D01*
X33500000Y-554869D01*
X33500002Y-554869D01*
X33609658Y-537501D01*
X33609659Y-537500D01*
X33609661Y-537500D01*
X33708587Y-487095D01*
X33787095Y-408587D01*
X33837500Y-309661D01*
X33837500Y-309659D01*
X33837501Y-309658D01*
X33854869Y-200002D01*
X33854869Y-199997D01*
X33837501Y-90341D01*
X33837500Y-90339D01*
X33787095Y8587D01*
X33787092Y8590D01*
X33787090Y8593D01*
X33708592Y87091D01*
X33708588Y87094D01*
X33708587Y87095D01*
X33704743Y89054D01*
X33609658Y137502D01*
X33500002Y154869D01*
X33499996Y154869D01*
X33469285Y150005D01*
X33399992Y158960D01*
X33346540Y203957D01*
X33325901Y270708D01*
X33325888Y272181D01*
X33325844Y290339D01*
X33325756Y327248D01*
X33345280Y394333D01*
X33397974Y440215D01*
X33467109Y450324D01*
X33469075Y450030D01*
X33500000Y445131D01*
X33500000Y445132D01*
X33500001Y445131D01*
X33500002Y445131D01*
X33609658Y462499D01*
X33609659Y462500D01*
X33609661Y462500D01*
X33708587Y512905D01*
X33787095Y591413D01*
X33837500Y690339D01*
X33837500Y690341D01*
X33837501Y690342D01*
X33854869Y799998D01*
X33854869Y800003D01*
X33837501Y909659D01*
X33810577Y962500D01*
X33787095Y1008587D01*
X33787092Y1008590D01*
X33787090Y1008593D01*
X33708592Y1087091D01*
X33708588Y1087094D01*
X33708587Y1087095D01*
X33700112Y1091413D01*
X33609658Y1137502D01*
X33500002Y1154869D01*
X33500000Y1154869D01*
X33466885Y1149624D01*
X33397591Y1158580D01*
X33344140Y1203577D01*
X33323501Y1270329D01*
X33323488Y1271800D01*
X33323420Y1300003D01*
X40645131Y1300003D01*
X40645131Y1299998D01*
X40662498Y1190342D01*
X40712904Y1091415D01*
X40712909Y1091408D01*
X40791407Y1012910D01*
X40791410Y1012908D01*
X40791413Y1012905D01*
X40835694Y990343D01*
X40890341Y962499D01*
X40999998Y945131D01*
X41000000Y945131D01*
X41000002Y945131D01*
X41109658Y962499D01*
X41109659Y962500D01*
X41109661Y962500D01*
X41208587Y1012905D01*
X41252612Y1056930D01*
X41313935Y1090416D01*
X41383626Y1085432D01*
X41439560Y1043561D01*
X41458292Y999239D01*
X41459482Y999625D01*
X41462498Y990343D01*
X41462499Y990340D01*
X41462500Y990339D01*
X41500000Y916741D01*
X41512904Y891415D01*
X41512909Y891408D01*
X41591407Y812910D01*
X41591410Y812908D01*
X41591413Y812905D01*
X41668483Y773636D01*
X41690341Y762499D01*
X41799998Y745131D01*
X41800000Y745131D01*
X41800002Y745131D01*
X41909658Y762499D01*
X41909659Y762500D01*
X41909661Y762500D01*
X42008587Y812905D01*
X42087095Y891413D01*
X42137500Y990339D01*
X42137500Y990341D01*
X42139515Y994295D01*
X42187489Y1045091D01*
X42255310Y1061887D01*
X42321445Y1039350D01*
X42360485Y994295D01*
X42362499Y990341D01*
X42362500Y990339D01*
X42400000Y916741D01*
X42412904Y891415D01*
X42412909Y891408D01*
X42491407Y812910D01*
X42491410Y812908D01*
X42491413Y812905D01*
X42568483Y773636D01*
X42590341Y762499D01*
X42699998Y745131D01*
X42700000Y745131D01*
X42700002Y745131D01*
X42809658Y762499D01*
X42809659Y762500D01*
X42809661Y762500D01*
X42908587Y812905D01*
X42987095Y891413D01*
X43037500Y990339D01*
X43037500Y990341D01*
X43037501Y990342D01*
X43054869Y1099998D01*
X43054869Y1100003D01*
X45245131Y1100003D01*
X45245131Y1099998D01*
X45262498Y990342D01*
X45312904Y891415D01*
X45312909Y891408D01*
X45316636Y887681D01*
X45350121Y826358D01*
X45345137Y756666D01*
X45316636Y712319D01*
X45312909Y708593D01*
X45312904Y708586D01*
X45262498Y609659D01*
X45245131Y500003D01*
X45245131Y499998D01*
X45262498Y390342D01*
X45312904Y291415D01*
X45312909Y291408D01*
X45316636Y287681D01*
X45350121Y226358D01*
X45345137Y156666D01*
X45316636Y112319D01*
X45312909Y108593D01*
X45312904Y108586D01*
X45262498Y9659D01*
X45245131Y-99997D01*
X45245131Y-100002D01*
X45262498Y-209658D01*
X45312904Y-308585D01*
X45312909Y-308592D01*
X45391407Y-387090D01*
X45391410Y-387092D01*
X45391413Y-387095D01*
X45399890Y-391414D01*
X45490341Y-437501D01*
X45599998Y-454869D01*
X45600000Y-454869D01*
X45600002Y-454869D01*
X45709658Y-437501D01*
X45709659Y-437500D01*
X45709661Y-437500D01*
X45808587Y-387095D01*
X45887095Y-308587D01*
X45937500Y-209661D01*
X45937500Y-209659D01*
X45937501Y-209658D01*
X45954869Y-100002D01*
X45954869Y-99997D01*
X45937501Y9659D01*
X45910577Y62500D01*
X45887095Y108587D01*
X45883367Y112315D01*
X45849879Y173636D01*
X45854860Y243328D01*
X45883367Y287685D01*
X45887095Y291413D01*
X45937500Y390339D01*
X45937500Y390341D01*
X45937501Y390342D01*
X45954869Y499998D01*
X45954869Y500003D01*
X45937501Y609659D01*
X45937500Y609661D01*
X45887095Y708587D01*
X45883367Y712315D01*
X45849879Y773636D01*
X45854860Y843328D01*
X45883367Y887685D01*
X45887095Y891413D01*
X45937500Y990339D01*
X45937500Y990341D01*
X45937501Y990342D01*
X45954869Y1099998D01*
X45954869Y1100003D01*
X46445131Y1100003D01*
X46445131Y1099998D01*
X46462498Y990342D01*
X46512904Y891415D01*
X46512909Y891408D01*
X46516636Y887681D01*
X46550121Y826358D01*
X46545137Y756666D01*
X46516636Y712319D01*
X46512909Y708593D01*
X46512904Y708586D01*
X46462498Y609659D01*
X46445131Y500003D01*
X46445131Y499998D01*
X46462498Y390342D01*
X46512904Y291415D01*
X46512909Y291408D01*
X46516636Y287681D01*
X46550121Y226358D01*
X46545137Y156666D01*
X46516636Y112319D01*
X46512909Y108593D01*
X46512904Y108586D01*
X46462498Y9659D01*
X46445131Y-99997D01*
X46445131Y-100002D01*
X46462498Y-209658D01*
X46512904Y-308585D01*
X46512909Y-308592D01*
X46591407Y-387090D01*
X46591410Y-387092D01*
X46591413Y-387095D01*
X46599890Y-391414D01*
X46690341Y-437501D01*
X46799998Y-454869D01*
X46800000Y-454869D01*
X46800002Y-454869D01*
X46909658Y-437501D01*
X46909659Y-437500D01*
X46909661Y-437500D01*
X47008587Y-387095D01*
X47012315Y-383367D01*
X47073636Y-349879D01*
X47143328Y-354860D01*
X47187685Y-383367D01*
X47191413Y-387095D01*
X47199890Y-391414D01*
X47290341Y-437501D01*
X47361714Y-448805D01*
X47400000Y-454869D01*
X47412131Y-452947D01*
X47481421Y-461900D01*
X47534875Y-506894D01*
X47554003Y-556021D01*
X47562498Y-609658D01*
X47612904Y-708585D01*
X47612909Y-708592D01*
X47691407Y-787090D01*
X47691410Y-787092D01*
X47691413Y-787095D01*
X47733590Y-808585D01*
X47790341Y-837501D01*
X47899998Y-854869D01*
X47900000Y-854869D01*
X47900002Y-854869D01*
X48009658Y-837501D01*
X48009659Y-837500D01*
X48009661Y-837500D01*
X48108587Y-787095D01*
X48187095Y-708587D01*
X48237500Y-609661D01*
X48237500Y-609659D01*
X48237501Y-609658D01*
X48254869Y-500002D01*
X48254869Y-500000D01*
X48248834Y-461900D01*
X48248806Y-461722D01*
X48257760Y-392430D01*
X48302755Y-338977D01*
X48369507Y-318337D01*
X48436821Y-337061D01*
X48458960Y-354643D01*
X48491407Y-387090D01*
X48491410Y-387092D01*
X48491413Y-387095D01*
X48499890Y-391414D01*
X48590341Y-437501D01*
X48699998Y-454869D01*
X48700000Y-454869D01*
X48700002Y-454869D01*
X48809658Y-437501D01*
X48809659Y-437500D01*
X48809661Y-437500D01*
X48908587Y-387095D01*
X48987095Y-308587D01*
X49037500Y-209661D01*
X49037500Y-209659D01*
X49037501Y-209658D01*
X49039031Y-199997D01*
X49445131Y-199997D01*
X49445131Y-200002D01*
X49462498Y-309658D01*
X49512904Y-408585D01*
X49512909Y-408592D01*
X49591407Y-487090D01*
X49591410Y-487092D01*
X49591413Y-487095D01*
X49690339Y-537500D01*
X49690341Y-537501D01*
X49799998Y-554869D01*
X49800000Y-554869D01*
X49800002Y-554869D01*
X49909658Y-537501D01*
X49909659Y-537500D01*
X49909661Y-537500D01*
X50008587Y-487095D01*
X50087095Y-408587D01*
X50137500Y-309661D01*
X50137500Y-309659D01*
X50137501Y-309658D01*
X50154869Y-200002D01*
X50154869Y-199997D01*
X50137501Y-90341D01*
X50137500Y-90339D01*
X50087095Y8587D01*
X50087092Y8590D01*
X50087090Y8593D01*
X50008592Y87091D01*
X50008588Y87094D01*
X50008587Y87095D01*
X50004743Y89054D01*
X49909658Y137502D01*
X49800002Y154869D01*
X49799998Y154869D01*
X49690341Y137502D01*
X49591414Y87096D01*
X49591407Y87091D01*
X49512909Y8593D01*
X49512904Y8586D01*
X49462498Y-90341D01*
X49445131Y-199997D01*
X49039031Y-199997D01*
X49054869Y-100002D01*
X49054869Y-99997D01*
X49037501Y9659D01*
X49010577Y62500D01*
X48987095Y108587D01*
X48983367Y112315D01*
X48949879Y173636D01*
X48954860Y243328D01*
X48983367Y287685D01*
X48987095Y291413D01*
X49037500Y390339D01*
X49037500Y390341D01*
X49037501Y390342D01*
X49039031Y400003D01*
X53345131Y400003D01*
X53345131Y399998D01*
X53362498Y290342D01*
X53412904Y191415D01*
X53412909Y191408D01*
X53491407Y112910D01*
X53491410Y112908D01*
X53491413Y112905D01*
X53549595Y83260D01*
X53590341Y62499D01*
X53699998Y45131D01*
X53700000Y45131D01*
X53700002Y45131D01*
X53809658Y62499D01*
X53809659Y62500D01*
X53809661Y62500D01*
X53908587Y112905D01*
X53987095Y191413D01*
X54037500Y290339D01*
X54037500Y290341D01*
X54037501Y290342D01*
X54054869Y399998D01*
X54054869Y400003D01*
X54037501Y509659D01*
X53995848Y591408D01*
X53987095Y608587D01*
X53987092Y608590D01*
X53987090Y608593D01*
X53908592Y687091D01*
X53908588Y687094D01*
X53908587Y687095D01*
X53902214Y690342D01*
X53809658Y737502D01*
X53700002Y754869D01*
X53699998Y754869D01*
X53590341Y737502D01*
X53491414Y687096D01*
X53491407Y687091D01*
X53412909Y608593D01*
X53412904Y608586D01*
X53362498Y509659D01*
X53345131Y400003D01*
X49039031Y400003D01*
X49054869Y499998D01*
X49054869Y500003D01*
X49037501Y609659D01*
X49037500Y609661D01*
X48987095Y708587D01*
X48983367Y712315D01*
X48949879Y773636D01*
X48954860Y843328D01*
X48983367Y887685D01*
X48987095Y891413D01*
X49037500Y990339D01*
X49037500Y990341D01*
X49037501Y990342D01*
X49054869Y1099998D01*
X49054869Y1100003D01*
X49037501Y1209659D01*
X49006588Y1270329D01*
X48987095Y1308587D01*
X48987092Y1308590D01*
X48987090Y1308593D01*
X48908592Y1387091D01*
X48908588Y1387094D01*
X48908587Y1387095D01*
X48883263Y1399998D01*
X48883253Y1400003D01*
X53345131Y1400003D01*
X53345131Y1399998D01*
X53362498Y1290342D01*
X53412904Y1191415D01*
X53412909Y1191408D01*
X53491407Y1112910D01*
X53491410Y1112908D01*
X53491413Y1112905D01*
X53590339Y1062500D01*
X53590341Y1062499D01*
X53699998Y1045131D01*
X53700000Y1045131D01*
X53700002Y1045131D01*
X53809658Y1062499D01*
X53809659Y1062500D01*
X53809661Y1062500D01*
X53908587Y1112905D01*
X53987095Y1191413D01*
X54037500Y1290339D01*
X54037500Y1290341D01*
X54037501Y1290342D01*
X54054869Y1399998D01*
X54054869Y1400003D01*
X54037501Y1509659D01*
X54037500Y1509661D01*
X53987095Y1608587D01*
X53987092Y1608590D01*
X53987090Y1608593D01*
X53908592Y1687091D01*
X53908588Y1687094D01*
X53908587Y1687095D01*
X53904743Y1689054D01*
X53809658Y1737502D01*
X53700002Y1754869D01*
X53699998Y1754869D01*
X53590341Y1737502D01*
X53491414Y1687096D01*
X53491407Y1687091D01*
X53412909Y1608593D01*
X53412904Y1608586D01*
X53362498Y1509659D01*
X53345131Y1400003D01*
X48883253Y1400003D01*
X48809658Y1437502D01*
X48700002Y1454869D01*
X48699998Y1454869D01*
X48590341Y1437502D01*
X48491414Y1387096D01*
X48491407Y1387091D01*
X48412909Y1308593D01*
X48412904Y1308586D01*
X48362498Y1209659D01*
X48345131Y1100003D01*
X48345131Y1099998D01*
X48362498Y990342D01*
X48412904Y891415D01*
X48412909Y891408D01*
X48416636Y887681D01*
X48450121Y826358D01*
X48445137Y756666D01*
X48416636Y712319D01*
X48412909Y708593D01*
X48412904Y708586D01*
X48362498Y609659D01*
X48345131Y500003D01*
X48345131Y499998D01*
X48362498Y390342D01*
X48412904Y291415D01*
X48412909Y291408D01*
X48416636Y287681D01*
X48450121Y226358D01*
X48445137Y156666D01*
X48416636Y112319D01*
X48412909Y108593D01*
X48412904Y108586D01*
X48362498Y9659D01*
X48345131Y-99997D01*
X48345131Y-100002D01*
X48351193Y-138277D01*
X48342238Y-207571D01*
X48297242Y-261023D01*
X48230490Y-281662D01*
X48163177Y-262937D01*
X48141039Y-245356D01*
X48108592Y-212909D01*
X48108588Y-212906D01*
X48108587Y-212905D01*
X48083263Y-200002D01*
X48009658Y-162498D01*
X47900002Y-145131D01*
X47900001Y-145131D01*
X47900000Y-145131D01*
X47887865Y-147053D01*
X47818572Y-138097D01*
X47765120Y-93100D01*
X47745996Y-43977D01*
X47737501Y9659D01*
X47710577Y62500D01*
X47687095Y108587D01*
X47683367Y112315D01*
X47649879Y173636D01*
X47654860Y243328D01*
X47683367Y287685D01*
X47687095Y291413D01*
X47737500Y390339D01*
X47737500Y390341D01*
X47737501Y390342D01*
X47754869Y499998D01*
X47754869Y500003D01*
X47737501Y609659D01*
X47737500Y609661D01*
X47687095Y708587D01*
X47683367Y712315D01*
X47649879Y773636D01*
X47654860Y843328D01*
X47683367Y887685D01*
X47687095Y891413D01*
X47737500Y990339D01*
X47737500Y990341D01*
X47737501Y990342D01*
X47754869Y1099998D01*
X47754869Y1100003D01*
X47737501Y1209659D01*
X47706588Y1270329D01*
X47687095Y1308587D01*
X47687092Y1308590D01*
X47687090Y1308593D01*
X47608592Y1387091D01*
X47608588Y1387094D01*
X47608587Y1387095D01*
X47583263Y1399998D01*
X47509658Y1437502D01*
X47400002Y1454869D01*
X47399998Y1454869D01*
X47290341Y1437502D01*
X47191414Y1387096D01*
X47191407Y1387091D01*
X47187681Y1383364D01*
X47126358Y1349879D01*
X47056666Y1354863D01*
X47012319Y1383364D01*
X47008592Y1387091D01*
X47008588Y1387094D01*
X47008587Y1387095D01*
X46983263Y1399998D01*
X46909658Y1437502D01*
X46800002Y1454869D01*
X46799998Y1454869D01*
X46690341Y1437502D01*
X46591414Y1387096D01*
X46591407Y1387091D01*
X46512909Y1308593D01*
X46512904Y1308586D01*
X46462498Y1209659D01*
X46445131Y1100003D01*
X45954869Y1100003D01*
X45937501Y1209659D01*
X45906588Y1270329D01*
X45887095Y1308587D01*
X45887092Y1308590D01*
X45887090Y1308593D01*
X45808592Y1387091D01*
X45808588Y1387094D01*
X45808587Y1387095D01*
X45783263Y1399998D01*
X45709658Y1437502D01*
X45600002Y1454869D01*
X45599998Y1454869D01*
X45490341Y1437502D01*
X45391414Y1387096D01*
X45391407Y1387091D01*
X45312909Y1308593D01*
X45312904Y1308586D01*
X45262498Y1209659D01*
X45245131Y1100003D01*
X43054869Y1100003D01*
X43037501Y1209659D01*
X43006588Y1270329D01*
X42987095Y1308587D01*
X42987092Y1308590D01*
X42987090Y1308593D01*
X42908592Y1387091D01*
X42908588Y1387094D01*
X42908587Y1387095D01*
X42883263Y1399998D01*
X42809658Y1437502D01*
X42700002Y1454869D01*
X42699998Y1454869D01*
X42590341Y1437502D01*
X42491414Y1387096D01*
X42491407Y1387091D01*
X42412909Y1308593D01*
X42412906Y1308589D01*
X42412905Y1308587D01*
X42362500Y1209661D01*
X42362499Y1209660D01*
X42360485Y1205705D01*
X42312511Y1154909D01*
X42244690Y1138114D01*
X42178555Y1160651D01*
X42139515Y1205705D01*
X42137500Y1209660D01*
X42137500Y1209661D01*
X42087095Y1308587D01*
X42087093Y1308589D01*
X42087090Y1308593D01*
X42008592Y1387091D01*
X42008588Y1387094D01*
X42008587Y1387095D01*
X41983263Y1399998D01*
X41909658Y1437502D01*
X41800002Y1454869D01*
X41799998Y1454869D01*
X41690341Y1437502D01*
X41591414Y1387096D01*
X41591407Y1387091D01*
X41547385Y1343069D01*
X41486062Y1309585D01*
X41416370Y1314570D01*
X41360437Y1356442D01*
X41341709Y1400763D01*
X41340518Y1400375D01*
X41337501Y1409658D01*
X41337500Y1409660D01*
X41337500Y1409661D01*
X41287095Y1508587D01*
X41287092Y1508590D01*
X41287090Y1508593D01*
X41208592Y1587091D01*
X41208588Y1587094D01*
X41208587Y1587095D01*
X41204743Y1589054D01*
X41109658Y1637502D01*
X41000002Y1654869D01*
X40999998Y1654869D01*
X40890341Y1637502D01*
X40791414Y1587096D01*
X40791407Y1587091D01*
X40712909Y1508593D01*
X40712904Y1508586D01*
X40662498Y1409659D01*
X40645131Y1300003D01*
X33323420Y1300003D01*
X33320539Y2500003D01*
X39545131Y2500003D01*
X39545131Y2499998D01*
X39562498Y2390342D01*
X39612904Y2291415D01*
X39612909Y2291408D01*
X39691407Y2212910D01*
X39691410Y2212908D01*
X39691413Y2212905D01*
X39790339Y2162500D01*
X39790341Y2162499D01*
X39899998Y2145131D01*
X39900000Y2145131D01*
X39900002Y2145131D01*
X40009658Y2162499D01*
X40009659Y2162500D01*
X40009661Y2162500D01*
X40108587Y2212905D01*
X40187095Y2291413D01*
X40237500Y2390339D01*
X40237500Y2390341D01*
X40237501Y2390342D01*
X40254869Y2499998D01*
X40254869Y2500003D01*
X40237501Y2609659D01*
X40195848Y2691408D01*
X40187095Y2708587D01*
X40187092Y2708590D01*
X40187090Y2708593D01*
X40108592Y2787091D01*
X40108588Y2787094D01*
X40108587Y2787095D01*
X40102214Y2790342D01*
X40009658Y2837502D01*
X39900002Y2854869D01*
X39899998Y2854869D01*
X39790341Y2837502D01*
X39691414Y2787096D01*
X39691407Y2787091D01*
X39612909Y2708593D01*
X39612904Y2708586D01*
X39562498Y2609659D01*
X39545131Y2500003D01*
X33320539Y2500003D01*
X33311896Y6100003D01*
X35145131Y6100003D01*
X35145131Y6099998D01*
X35162498Y5990342D01*
X35212904Y5891415D01*
X35212909Y5891408D01*
X35291407Y5812910D01*
X35291411Y5812907D01*
X35291413Y5812905D01*
X35291415Y5812904D01*
X35296166Y5810483D01*
X35346960Y5762508D01*
X35363754Y5694686D01*
X35341215Y5628552D01*
X35296166Y5589517D01*
X35291415Y5587097D01*
X35291407Y5587091D01*
X35212909Y5508593D01*
X35212904Y5508586D01*
X35162498Y5409659D01*
X35145131Y5300003D01*
X35145131Y5299998D01*
X35162498Y5190342D01*
X35212904Y5091415D01*
X35212909Y5091408D01*
X35291407Y5012910D01*
X35291411Y5012907D01*
X35291413Y5012905D01*
X35291415Y5012904D01*
X35296166Y5010483D01*
X35346960Y4962508D01*
X35363754Y4894686D01*
X35341215Y4828552D01*
X35296166Y4789517D01*
X35291415Y4787097D01*
X35291407Y4787091D01*
X35212909Y4708593D01*
X35212904Y4708586D01*
X35162498Y4609659D01*
X35145131Y4500003D01*
X35145131Y4499998D01*
X35162498Y4390342D01*
X35212904Y4291415D01*
X35212909Y4291408D01*
X35291407Y4212910D01*
X35291411Y4212907D01*
X35291413Y4212905D01*
X35291415Y4212904D01*
X35296166Y4210483D01*
X35346960Y4162508D01*
X35363754Y4094686D01*
X35341215Y4028552D01*
X35296166Y3989517D01*
X35291415Y3987097D01*
X35291407Y3987091D01*
X35212909Y3908593D01*
X35212904Y3908586D01*
X35162498Y3809659D01*
X35145131Y3700003D01*
X35145131Y3699998D01*
X35162498Y3590342D01*
X35212904Y3491415D01*
X35212909Y3491408D01*
X35291407Y3412910D01*
X35291411Y3412907D01*
X35291413Y3412905D01*
X35291415Y3412904D01*
X35296166Y3410483D01*
X35346960Y3362508D01*
X35363754Y3294686D01*
X35341215Y3228552D01*
X35296166Y3189517D01*
X35291415Y3187097D01*
X35291407Y3187091D01*
X35212909Y3108593D01*
X35212904Y3108586D01*
X35162498Y3009659D01*
X35145131Y2900003D01*
X35145131Y2899998D01*
X35162498Y2790342D01*
X35212904Y2691415D01*
X35212909Y2691408D01*
X35291407Y2612910D01*
X35291410Y2612908D01*
X35291413Y2612905D01*
X35390339Y2562500D01*
X35390341Y2562499D01*
X35499998Y2545131D01*
X35500000Y2545131D01*
X35500002Y2545131D01*
X35609658Y2562499D01*
X35609659Y2562500D01*
X35609661Y2562500D01*
X35708587Y2612905D01*
X35787095Y2691413D01*
X35837500Y2790339D01*
X35837500Y2790341D01*
X35837501Y2790342D01*
X35854869Y2899998D01*
X35854869Y2900003D01*
X35837501Y3009659D01*
X35837500Y3009661D01*
X35787095Y3108587D01*
X35787092Y3108590D01*
X35787090Y3108593D01*
X35708592Y3187091D01*
X35708588Y3187094D01*
X35708587Y3187095D01*
X35703836Y3189516D01*
X35653040Y3237489D01*
X35636245Y3305310D01*
X35658782Y3371445D01*
X35703837Y3410485D01*
X35708587Y3412905D01*
X35787095Y3491413D01*
X35837500Y3590339D01*
X35837500Y3590341D01*
X35837501Y3590342D01*
X35854869Y3699998D01*
X35854869Y3700003D01*
X52745131Y3700003D01*
X52745131Y3699998D01*
X52762498Y3590342D01*
X52812904Y3491415D01*
X52812909Y3491408D01*
X52891407Y3412910D01*
X52891410Y3412908D01*
X52891413Y3412905D01*
X52990323Y3362508D01*
X52990341Y3362499D01*
X53099998Y3345131D01*
X53100000Y3345131D01*
X53100002Y3345131D01*
X53209658Y3362499D01*
X53209659Y3362500D01*
X53209661Y3362500D01*
X53308587Y3412905D01*
X53387095Y3491413D01*
X53437500Y3590339D01*
X53437500Y3590341D01*
X53437501Y3590342D01*
X53454869Y3699998D01*
X53454869Y3700003D01*
X53437501Y3809659D01*
X53437500Y3809661D01*
X53387095Y3908587D01*
X53387092Y3908590D01*
X53387090Y3908593D01*
X53308592Y3987091D01*
X53308588Y3987094D01*
X53308587Y3987095D01*
X53227223Y4028552D01*
X53209658Y4037502D01*
X53100002Y4054869D01*
X53099998Y4054869D01*
X52990341Y4037502D01*
X52891414Y3987096D01*
X52891407Y3987091D01*
X52812909Y3908593D01*
X52812904Y3908586D01*
X52762498Y3809659D01*
X52745131Y3700003D01*
X35854869Y3700003D01*
X35837501Y3809659D01*
X35837500Y3809661D01*
X35787095Y3908587D01*
X35787092Y3908590D01*
X35787090Y3908593D01*
X35708592Y3987091D01*
X35708588Y3987094D01*
X35708587Y3987095D01*
X35703836Y3989516D01*
X35653040Y4037489D01*
X35636245Y4105310D01*
X35658782Y4171445D01*
X35703837Y4210485D01*
X35708587Y4212905D01*
X35787095Y4291413D01*
X35837500Y4390339D01*
X35837500Y4390341D01*
X35837501Y4390342D01*
X35854869Y4499998D01*
X35854869Y4500003D01*
X35837501Y4609659D01*
X35837500Y4609661D01*
X35787095Y4708587D01*
X35787092Y4708590D01*
X35787090Y4708593D01*
X35708592Y4787091D01*
X35708588Y4787094D01*
X35708587Y4787095D01*
X35703836Y4789516D01*
X35653040Y4837489D01*
X35636245Y4905310D01*
X35658782Y4971445D01*
X35703837Y5010485D01*
X35708587Y5012905D01*
X35787095Y5091413D01*
X35837500Y5190339D01*
X35837500Y5190341D01*
X35837501Y5190342D01*
X35839031Y5200003D01*
X45745131Y5200003D01*
X45745131Y5199998D01*
X45762498Y5090342D01*
X45812904Y4991415D01*
X45812909Y4991408D01*
X45891407Y4912910D01*
X45891410Y4912908D01*
X45891413Y4912905D01*
X45990339Y4862500D01*
X45990341Y4862499D01*
X46099998Y4845131D01*
X46100000Y4845131D01*
X46100002Y4845131D01*
X46209658Y4862499D01*
X46209659Y4862500D01*
X46209661Y4862500D01*
X46308587Y4912905D01*
X46387095Y4991413D01*
X46437500Y5090339D01*
X46437500Y5090341D01*
X46437501Y5090342D01*
X46454869Y5199998D01*
X46454869Y5200003D01*
X46437501Y5309659D01*
X46410577Y5362500D01*
X46387095Y5408587D01*
X46387092Y5408590D01*
X46387090Y5408593D01*
X46308592Y5487091D01*
X46308588Y5487094D01*
X46308587Y5487095D01*
X46300112Y5491413D01*
X46209658Y5537502D01*
X46100002Y5554869D01*
X46099998Y5554869D01*
X45990341Y5537502D01*
X45891414Y5487096D01*
X45891407Y5487091D01*
X45812909Y5408593D01*
X45812904Y5408586D01*
X45762498Y5309659D01*
X45745131Y5200003D01*
X35839031Y5200003D01*
X35854869Y5299998D01*
X35854869Y5300003D01*
X35837501Y5409659D01*
X35819427Y5445131D01*
X35787095Y5508587D01*
X35787092Y5508590D01*
X35787090Y5508593D01*
X35708592Y5587091D01*
X35708588Y5587094D01*
X35708587Y5587095D01*
X35703836Y5589516D01*
X35653040Y5637489D01*
X35637559Y5700003D01*
X37645131Y5700003D01*
X37645131Y5699998D01*
X37662498Y5590342D01*
X37712904Y5491415D01*
X37712909Y5491408D01*
X37791407Y5412910D01*
X37791410Y5412908D01*
X37791413Y5412905D01*
X37890339Y5362500D01*
X37890341Y5362499D01*
X37999998Y5345131D01*
X38000000Y5345131D01*
X38000002Y5345131D01*
X38109658Y5362499D01*
X38109659Y5362500D01*
X38109661Y5362500D01*
X38208587Y5412905D01*
X38287095Y5491413D01*
X38337500Y5590339D01*
X38337500Y5590341D01*
X38339515Y5594295D01*
X38387489Y5645091D01*
X38455310Y5661887D01*
X38521445Y5639350D01*
X38560485Y5594295D01*
X38562499Y5590341D01*
X38562500Y5590339D01*
X38604155Y5508586D01*
X38612904Y5491415D01*
X38612909Y5491408D01*
X38691407Y5412910D01*
X38691410Y5412908D01*
X38691413Y5412905D01*
X38790339Y5362500D01*
X38790341Y5362499D01*
X38899998Y5345131D01*
X38900000Y5345131D01*
X38900002Y5345131D01*
X39009658Y5362499D01*
X39009659Y5362500D01*
X39009661Y5362500D01*
X39108587Y5412905D01*
X39187095Y5491413D01*
X39237500Y5590339D01*
X39237500Y5590341D01*
X39237501Y5590342D01*
X39254869Y5699998D01*
X39254869Y5700003D01*
X39237501Y5809659D01*
X39195848Y5891408D01*
X39187095Y5908587D01*
X39187092Y5908590D01*
X39187090Y5908593D01*
X39108592Y5987091D01*
X39108588Y5987094D01*
X39108587Y5987095D01*
X39102214Y5990342D01*
X39009658Y6037502D01*
X38900002Y6054869D01*
X38899998Y6054869D01*
X38790341Y6037502D01*
X38691414Y5987096D01*
X38691407Y5987091D01*
X38612909Y5908593D01*
X38612906Y5908589D01*
X38612905Y5908587D01*
X38562500Y5809661D01*
X38562499Y5809660D01*
X38560485Y5805705D01*
X38512511Y5754909D01*
X38444690Y5738114D01*
X38378555Y5760651D01*
X38339515Y5805705D01*
X38337500Y5809660D01*
X38337500Y5809661D01*
X38287095Y5908587D01*
X38287093Y5908589D01*
X38287090Y5908593D01*
X38208592Y5987091D01*
X38208588Y5987094D01*
X38208587Y5987095D01*
X38202214Y5990342D01*
X38109658Y6037502D01*
X38000002Y6054869D01*
X37999998Y6054869D01*
X37890341Y6037502D01*
X37791414Y5987096D01*
X37791407Y5987091D01*
X37712909Y5908593D01*
X37712904Y5908586D01*
X37662498Y5809659D01*
X37645131Y5700003D01*
X35637559Y5700003D01*
X35636245Y5705310D01*
X35658782Y5771445D01*
X35703837Y5810485D01*
X35708587Y5812905D01*
X35787095Y5891413D01*
X35837500Y5990339D01*
X35837500Y5990341D01*
X35837501Y5990342D01*
X35854869Y6099998D01*
X35854869Y6100003D01*
X35837501Y6209659D01*
X35810374Y6262899D01*
X35787095Y6308587D01*
X35787092Y6308590D01*
X35787090Y6308593D01*
X35708592Y6387091D01*
X35708588Y6387094D01*
X35708587Y6387095D01*
X35700112Y6391413D01*
X35609658Y6437502D01*
X35500002Y6454869D01*
X35499998Y6454869D01*
X35390341Y6437502D01*
X35291414Y6387096D01*
X35291407Y6387091D01*
X35212909Y6308593D01*
X35212904Y6308586D01*
X35162498Y6209659D01*
X35145131Y6100003D01*
X33311896Y6100003D01*
X33310696Y6600003D01*
X45645131Y6600003D01*
X45645131Y6599998D01*
X45662498Y6490342D01*
X45712904Y6391415D01*
X45712909Y6391408D01*
X45791407Y6312910D01*
X45791410Y6312908D01*
X45791413Y6312905D01*
X45799890Y6308586D01*
X45890341Y6262499D01*
X45999998Y6245131D01*
X46000000Y6245131D01*
X46000002Y6245131D01*
X46109658Y6262499D01*
X46109659Y6262500D01*
X46109661Y6262500D01*
X46208587Y6312905D01*
X46287095Y6391413D01*
X46337500Y6490339D01*
X46337500Y6490341D01*
X46337501Y6490342D01*
X46354869Y6599998D01*
X46354869Y6600003D01*
X46337501Y6709659D01*
X46337500Y6709661D01*
X46287095Y6808587D01*
X46287092Y6808590D01*
X46287090Y6808593D01*
X46208592Y6887091D01*
X46208588Y6887094D01*
X46208587Y6887095D01*
X46204743Y6889054D01*
X46109658Y6937502D01*
X46000002Y6954869D01*
X45999998Y6954869D01*
X45890341Y6937502D01*
X45791414Y6887096D01*
X45791407Y6887091D01*
X45712909Y6808593D01*
X45712904Y6808586D01*
X45662498Y6709659D01*
X45645131Y6600003D01*
X33310696Y6600003D01*
X33308943Y7329911D01*
X33328467Y7396996D01*
X33381161Y7442877D01*
X33450295Y7452987D01*
X33452260Y7452693D01*
X33500000Y7445131D01*
X33500000Y7445132D01*
X33500001Y7445131D01*
X33500002Y7445131D01*
X33609658Y7462499D01*
X33609659Y7462500D01*
X33609661Y7462500D01*
X33708587Y7512905D01*
X33787095Y7591413D01*
X33791472Y7600003D01*
X36145131Y7600003D01*
X36145131Y7599998D01*
X36162498Y7490342D01*
X36212904Y7391415D01*
X36212909Y7391408D01*
X36291407Y7312910D01*
X36291410Y7312908D01*
X36291413Y7312905D01*
X36333590Y7291415D01*
X36390341Y7262499D01*
X36499998Y7245131D01*
X36500000Y7245131D01*
X36500002Y7245131D01*
X36609658Y7262499D01*
X36609659Y7262500D01*
X36609661Y7262500D01*
X36708587Y7312905D01*
X36787095Y7391413D01*
X36837500Y7490339D01*
X36839031Y7500000D01*
X36839031Y7500003D01*
X56445131Y7500003D01*
X56445131Y7499998D01*
X56462498Y7390342D01*
X56512904Y7291415D01*
X56512909Y7291408D01*
X56591407Y7212910D01*
X56591410Y7212908D01*
X56591413Y7212905D01*
X56690339Y7162500D01*
X56690341Y7162499D01*
X56799998Y7145131D01*
X56800000Y7145131D01*
X56800002Y7145131D01*
X56909658Y7162499D01*
X56909659Y7162500D01*
X56909661Y7162500D01*
X57008587Y7212905D01*
X57087095Y7291413D01*
X57137500Y7390339D01*
X57137500Y7390341D01*
X57137501Y7390342D01*
X57154869Y7499998D01*
X57154869Y7500003D01*
X57137501Y7609659D01*
X57137500Y7609661D01*
X57087095Y7708587D01*
X57087092Y7708590D01*
X57087090Y7708593D01*
X57008592Y7787091D01*
X57008588Y7787094D01*
X57008587Y7787095D01*
X57000112Y7791413D01*
X56909658Y7837502D01*
X56800002Y7854869D01*
X56799998Y7854869D01*
X56690341Y7837502D01*
X56591414Y7787096D01*
X56591407Y7787091D01*
X56512909Y7708593D01*
X56512904Y7708586D01*
X56462498Y7609659D01*
X56445131Y7500003D01*
X36839031Y7500003D01*
X36848443Y7559428D01*
X36878372Y7622563D01*
X36937683Y7659495D01*
X36990315Y7662504D01*
X36990338Y7662501D01*
X36990339Y7662500D01*
X37051346Y7652838D01*
X37099999Y7645131D01*
X37100000Y7645131D01*
X37100002Y7645131D01*
X37209658Y7662499D01*
X37209659Y7662500D01*
X37209661Y7662500D01*
X37308587Y7712905D01*
X37387095Y7791413D01*
X37437500Y7890339D01*
X37437500Y7890341D01*
X37437501Y7890342D01*
X37454869Y7999998D01*
X37454869Y8000003D01*
X37439030Y8100003D01*
X39845131Y8100003D01*
X39845131Y8099998D01*
X39862498Y7990342D01*
X39912904Y7891415D01*
X39912909Y7891408D01*
X39991407Y7812910D01*
X39991410Y7812908D01*
X39991413Y7812905D01*
X40090339Y7762500D01*
X40090341Y7762499D01*
X40199998Y7745131D01*
X40200000Y7745131D01*
X40200002Y7745131D01*
X40309658Y7762499D01*
X40309659Y7762500D01*
X40309661Y7762500D01*
X40408587Y7812905D01*
X40487095Y7891413D01*
X40537500Y7990339D01*
X40537500Y7990341D01*
X40537501Y7990342D01*
X40554869Y8099998D01*
X40554869Y8100003D01*
X40537501Y8209659D01*
X40537500Y8209661D01*
X40487095Y8308587D01*
X40487092Y8308590D01*
X40487090Y8308593D01*
X40408592Y8387091D01*
X40408588Y8387094D01*
X40408587Y8387095D01*
X40388409Y8397376D01*
X40309658Y8437502D01*
X40200002Y8454869D01*
X40199998Y8454869D01*
X40090341Y8437502D01*
X39991414Y8387096D01*
X39991407Y8387091D01*
X39912909Y8308593D01*
X39912904Y8308586D01*
X39862498Y8209659D01*
X39845131Y8100003D01*
X37439030Y8100003D01*
X37437501Y8109659D01*
X37418493Y8146964D01*
X37387095Y8208587D01*
X37387092Y8208590D01*
X37387090Y8208593D01*
X37308592Y8287091D01*
X37308588Y8287094D01*
X37308587Y8287095D01*
X37290800Y8296158D01*
X37209658Y8337502D01*
X37100002Y8354869D01*
X37099998Y8354869D01*
X36990341Y8337502D01*
X36891414Y8287096D01*
X36891407Y8287091D01*
X36812909Y8208593D01*
X36812904Y8208586D01*
X36762499Y8109659D01*
X36751556Y8040571D01*
X36721626Y7977437D01*
X36662314Y7940506D01*
X36609685Y7937497D01*
X36500002Y7954869D01*
X36499998Y7954869D01*
X36390341Y7937502D01*
X36291414Y7887096D01*
X36291407Y7887091D01*
X36212909Y7808593D01*
X36212904Y7808586D01*
X36162498Y7709659D01*
X36145131Y7600003D01*
X33791472Y7600003D01*
X33837500Y7690339D01*
X33837500Y7690341D01*
X33837501Y7690342D01*
X33854869Y7799998D01*
X33854869Y7800003D01*
X33837501Y7909659D01*
X33821784Y7940506D01*
X33787095Y8008587D01*
X33787092Y8008590D01*
X33787090Y8008593D01*
X33708592Y8087091D01*
X33708588Y8087094D01*
X33708587Y8087095D01*
X33683263Y8099998D01*
X33609658Y8137502D01*
X33500002Y8154869D01*
X33499997Y8154869D01*
X33450085Y8146964D01*
X33380792Y8155919D01*
X33327340Y8200915D01*
X33306701Y8267667D01*
X33306688Y8269139D01*
X33306541Y8330289D01*
X33326065Y8397376D01*
X33378759Y8443257D01*
X33447893Y8453367D01*
X33449929Y8453062D01*
X33468147Y8450177D01*
X33499999Y8445131D01*
X33500000Y8445131D01*
X33500002Y8445131D01*
X33609658Y8462499D01*
X33609659Y8462500D01*
X33609661Y8462500D01*
X33708587Y8512905D01*
X33787095Y8591413D01*
X33837500Y8690339D01*
X33837500Y8690341D01*
X33837501Y8690342D01*
X33854869Y8799998D01*
X33854869Y8800003D01*
X33837501Y8909659D01*
X33837500Y8909661D01*
X33789510Y9003847D01*
X44099500Y9003847D01*
X44099500Y8296154D01*
X44130261Y8141511D01*
X44130264Y8141499D01*
X44190602Y7995828D01*
X44190609Y7995815D01*
X44278210Y7864712D01*
X44278213Y7864708D01*
X44389707Y7753214D01*
X44389711Y7753211D01*
X44520814Y7665610D01*
X44520827Y7665603D01*
X44625596Y7622207D01*
X44666503Y7605263D01*
X44806810Y7577354D01*
X44821153Y7574501D01*
X44821156Y7574500D01*
X44821158Y7574500D01*
X44978844Y7574500D01*
X44978845Y7574501D01*
X45133497Y7605263D01*
X45271678Y7662499D01*
X45279172Y7665603D01*
X45279172Y7665604D01*
X45279179Y7665606D01*
X45410289Y7753211D01*
X45521789Y7864711D01*
X45609394Y7995821D01*
X45669737Y8141503D01*
X45700500Y8296158D01*
X45700500Y9003842D01*
X45700500Y9003845D01*
X45700499Y9003847D01*
X45699555Y9008593D01*
X45669737Y9158497D01*
X45669735Y9158502D01*
X45609397Y9304173D01*
X45609390Y9304186D01*
X45592629Y9329270D01*
X46099500Y9329270D01*
X46099500Y7970731D01*
X46102353Y7940301D01*
X46102353Y7940299D01*
X46147206Y7812120D01*
X46147207Y7812118D01*
X46227850Y7702850D01*
X46337118Y7622207D01*
X46372973Y7609661D01*
X46465299Y7577354D01*
X46495730Y7574500D01*
X46495734Y7574500D01*
X47304270Y7574500D01*
X47334699Y7577354D01*
X47334701Y7577354D01*
X47399426Y7600003D01*
X47462882Y7622207D01*
X47572150Y7702850D01*
X47652793Y7812118D01*
X47679027Y7887091D01*
X47697646Y7940299D01*
X47697646Y7940301D01*
X47700500Y7970731D01*
X47700500Y8000003D01*
X52045131Y8000003D01*
X52045131Y7999998D01*
X52062498Y7890342D01*
X52112904Y7791415D01*
X52112909Y7791408D01*
X52191407Y7712910D01*
X52191410Y7712908D01*
X52191413Y7712905D01*
X52235696Y7690342D01*
X52290341Y7662499D01*
X52399998Y7645131D01*
X52400000Y7645131D01*
X52400002Y7645131D01*
X52509658Y7662499D01*
X52509659Y7662500D01*
X52509661Y7662500D01*
X52608587Y7712905D01*
X52687095Y7791413D01*
X52737500Y7890339D01*
X52737500Y7890341D01*
X52737501Y7890342D01*
X52754869Y7999998D01*
X52754869Y8000003D01*
X53045131Y8000003D01*
X53045131Y7999998D01*
X53062498Y7890342D01*
X53112904Y7791415D01*
X53112909Y7791408D01*
X53191407Y7712910D01*
X53191410Y7712908D01*
X53191413Y7712905D01*
X53235696Y7690342D01*
X53290341Y7662499D01*
X53399998Y7645131D01*
X53400000Y7645131D01*
X53400002Y7645131D01*
X53509658Y7662499D01*
X53509659Y7662500D01*
X53509661Y7662500D01*
X53608587Y7712905D01*
X53687095Y7791413D01*
X53737500Y7890339D01*
X53737500Y7890341D01*
X53737501Y7890342D01*
X53754869Y7999998D01*
X53754869Y8000003D01*
X53737501Y8109659D01*
X53718493Y8146964D01*
X53687095Y8208587D01*
X53687092Y8208590D01*
X53687090Y8208593D01*
X53608592Y8287091D01*
X53608588Y8287094D01*
X53608587Y8287095D01*
X53590800Y8296158D01*
X53509658Y8337502D01*
X53400002Y8354869D01*
X53399998Y8354869D01*
X53290341Y8337502D01*
X53191414Y8287096D01*
X53191407Y8287091D01*
X53112909Y8208593D01*
X53112904Y8208586D01*
X53062498Y8109659D01*
X53045131Y8000003D01*
X52754869Y8000003D01*
X52737501Y8109659D01*
X52718493Y8146964D01*
X52687095Y8208587D01*
X52687092Y8208590D01*
X52687090Y8208593D01*
X52608592Y8287091D01*
X52608588Y8287094D01*
X52608587Y8287095D01*
X52590800Y8296158D01*
X52509658Y8337502D01*
X52400002Y8354869D01*
X52399998Y8354869D01*
X52290341Y8337502D01*
X52191414Y8287096D01*
X52191407Y8287091D01*
X52112909Y8208593D01*
X52112904Y8208586D01*
X52062498Y8109659D01*
X52045131Y8000003D01*
X47700500Y8000003D01*
X47700500Y9329270D01*
X47697646Y9359700D01*
X47697646Y9359702D01*
X47652793Y9487881D01*
X47652792Y9487883D01*
X47572150Y9597150D01*
X47462882Y9677793D01*
X47462880Y9677794D01*
X47334700Y9722647D01*
X47304270Y9725500D01*
X47304266Y9725500D01*
X46495734Y9725500D01*
X46495730Y9725500D01*
X46465300Y9722647D01*
X46465298Y9722647D01*
X46337119Y9677794D01*
X46337117Y9677793D01*
X46227850Y9597150D01*
X46147207Y9487883D01*
X46147206Y9487881D01*
X46102353Y9359702D01*
X46102353Y9359700D01*
X46099500Y9329270D01*
X45592629Y9329270D01*
X45521789Y9435289D01*
X45521786Y9435293D01*
X45410292Y9546787D01*
X45410288Y9546790D01*
X45279185Y9634391D01*
X45279172Y9634398D01*
X45133501Y9694736D01*
X45133489Y9694739D01*
X44978845Y9725500D01*
X44978842Y9725500D01*
X44821158Y9725500D01*
X44821155Y9725500D01*
X44666510Y9694739D01*
X44666498Y9694736D01*
X44520827Y9634398D01*
X44520814Y9634391D01*
X44389711Y9546790D01*
X44389707Y9546787D01*
X44278213Y9435293D01*
X44278210Y9435289D01*
X44190609Y9304186D01*
X44190602Y9304173D01*
X44130264Y9158502D01*
X44130261Y9158490D01*
X44099500Y9003847D01*
X33789510Y9003847D01*
X33787095Y9008587D01*
X33787092Y9008590D01*
X33787090Y9008593D01*
X33708592Y9087091D01*
X33708588Y9087094D01*
X33708587Y9087095D01*
X33695290Y9093870D01*
X33609658Y9137502D01*
X33500002Y9154869D01*
X33499997Y9154869D01*
X33447685Y9146584D01*
X33378392Y9155539D01*
X33324940Y9200535D01*
X33304301Y9267287D01*
X33304288Y9268759D01*
X33303273Y9691408D01*
X33302772Y9900003D01*
X36945131Y9900003D01*
X36945131Y9899998D01*
X36962498Y9790342D01*
X37012904Y9691415D01*
X37012909Y9691408D01*
X37091407Y9612910D01*
X37091410Y9612908D01*
X37091413Y9612905D01*
X37190339Y9562500D01*
X37190341Y9562499D01*
X37299998Y9545131D01*
X37300000Y9545131D01*
X37300002Y9545131D01*
X37409658Y9562499D01*
X37409659Y9562500D01*
X37409661Y9562500D01*
X37483265Y9600003D01*
X37945131Y9600003D01*
X37945131Y9599998D01*
X37962498Y9490342D01*
X38012904Y9391415D01*
X38012909Y9391408D01*
X38091407Y9312910D01*
X38091410Y9312908D01*
X38091413Y9312905D01*
X38108551Y9304173D01*
X38190341Y9262499D01*
X38299998Y9245131D01*
X38300000Y9245131D01*
X38300002Y9245131D01*
X38409658Y9262499D01*
X38409659Y9262500D01*
X38409661Y9262500D01*
X38508587Y9312905D01*
X38587095Y9391413D01*
X38637500Y9490339D01*
X38637500Y9490341D01*
X38637501Y9490342D01*
X38654869Y9599998D01*
X38654869Y9600003D01*
X38637501Y9709659D01*
X38610577Y9762500D01*
X38587095Y9808587D01*
X38587092Y9808590D01*
X38587090Y9808593D01*
X38508592Y9887091D01*
X38508588Y9887094D01*
X38508587Y9887095D01*
X38500112Y9891413D01*
X38409658Y9937502D01*
X38300002Y9954869D01*
X38299998Y9954869D01*
X38190341Y9937502D01*
X38091414Y9887096D01*
X38091407Y9887091D01*
X38012909Y9808593D01*
X38012904Y9808586D01*
X37962498Y9709659D01*
X37945131Y9600003D01*
X37483265Y9600003D01*
X37508587Y9612905D01*
X37587095Y9691413D01*
X37637500Y9790339D01*
X37637500Y9790341D01*
X37637501Y9790342D01*
X37654869Y9899998D01*
X37654869Y9900003D01*
X37637501Y10009659D01*
X37595848Y10091408D01*
X37587095Y10108587D01*
X37587092Y10108590D01*
X37587090Y10108593D01*
X37508592Y10187091D01*
X37508588Y10187094D01*
X37508587Y10187095D01*
X37502214Y10190342D01*
X37409658Y10237502D01*
X37300002Y10254869D01*
X37299998Y10254869D01*
X37190341Y10237502D01*
X37091414Y10187096D01*
X37091407Y10187091D01*
X37012909Y10108593D01*
X37012904Y10108586D01*
X36962498Y10009659D01*
X36945131Y9900003D01*
X33302772Y9900003D01*
X33301812Y10300003D01*
X51045131Y10300003D01*
X51045131Y10299998D01*
X51062498Y10190342D01*
X51112904Y10091415D01*
X51112909Y10091408D01*
X51191407Y10012910D01*
X51191410Y10012908D01*
X51191413Y10012905D01*
X51235696Y9990342D01*
X51290341Y9962499D01*
X51399998Y9945131D01*
X51400000Y9945131D01*
X51400002Y9945131D01*
X51509658Y9962499D01*
X51509659Y9962500D01*
X51509661Y9962500D01*
X51608587Y10012905D01*
X51687095Y10091413D01*
X51691472Y10100003D01*
X58445131Y10100003D01*
X58445131Y10099998D01*
X58462498Y9990342D01*
X58512904Y9891415D01*
X58512909Y9891408D01*
X58591407Y9812910D01*
X58591410Y9812908D01*
X58591413Y9812905D01*
X58599890Y9808586D01*
X58690341Y9762499D01*
X58799998Y9745131D01*
X58800000Y9745131D01*
X58800002Y9745131D01*
X58909658Y9762499D01*
X58909659Y9762500D01*
X58909661Y9762500D01*
X59008587Y9812905D01*
X59087095Y9891413D01*
X59137500Y9990339D01*
X59137500Y9990341D01*
X59137501Y9990342D01*
X59154869Y10099998D01*
X59154869Y10100003D01*
X59137501Y10209659D01*
X59123314Y10237502D01*
X59087095Y10308587D01*
X59087092Y10308590D01*
X59087090Y10308593D01*
X59008592Y10387091D01*
X59008588Y10387094D01*
X59008587Y10387095D01*
X59004743Y10389054D01*
X58909658Y10437502D01*
X58800002Y10454869D01*
X58799998Y10454869D01*
X58690341Y10437502D01*
X58591414Y10387096D01*
X58591407Y10387091D01*
X58512909Y10308593D01*
X58512904Y10308586D01*
X58462498Y10209659D01*
X58445131Y10100003D01*
X51691472Y10100003D01*
X51737500Y10190339D01*
X51737500Y10190341D01*
X51737501Y10190342D01*
X51754869Y10299998D01*
X51754869Y10300003D01*
X51737501Y10409659D01*
X51723314Y10437502D01*
X51687095Y10508587D01*
X51687092Y10508590D01*
X51687090Y10508593D01*
X51608592Y10587091D01*
X51608588Y10587094D01*
X51608587Y10587095D01*
X51604743Y10589054D01*
X51509658Y10637502D01*
X51400002Y10654869D01*
X51399998Y10654869D01*
X51290341Y10637502D01*
X51191414Y10587096D01*
X51191407Y10587091D01*
X51112909Y10508593D01*
X51112904Y10508586D01*
X51062498Y10409659D01*
X51045131Y10300003D01*
X33301812Y10300003D01*
X33300625Y10794602D01*
X33304148Y10824248D01*
X33311237Y10853348D01*
X33331195Y10935276D01*
X33339569Y10958923D01*
X33391223Y11068176D01*
X33404178Y11089643D01*
X33476781Y11186274D01*
X33493793Y11204692D01*
X33584350Y11284718D01*
X33604729Y11299341D01*
X33709548Y11359501D01*
X33732454Y11369721D01*
X33847230Y11407544D01*
X33871727Y11412944D01*
X33997439Y11427545D01*
X34011794Y11428373D01*
X40170290Y11425714D01*
G37*
G04 #@! TD.AperFunction*
G04 #@! TD*
M02*
