G04 #@! TF.GenerationSoftware,KiCad,Pcbnew,8.0.3*
G04 #@! TF.CreationDate,2024-06-26T13:16:16+02:00*
G04 #@! TF.ProjectId,ESP32-C3-V2,45535033-322d-4433-932d-56322e6b6963,rev?*
G04 #@! TF.SameCoordinates,Original*
G04 #@! TF.FileFunction,Copper,L2,Inr*
G04 #@! TF.FilePolarity,Positive*
%FSLAX46Y46*%
G04 Gerber Fmt 4.6, Leading zero omitted, Abs format (unit mm)*
G04 Created by KiCad (PCBNEW 8.0.3) date 2024-06-26 13:16:16*
%MOMM*%
%LPD*%
G01*
G04 APERTURE LIST*
G04 Aperture macros list*
%AMRoundRect*
0 Rectangle with rounded corners*
0 $1 Rounding radius*
0 $2 $3 $4 $5 $6 $7 $8 $9 X,Y pos of 4 corners*
0 Add a 4 corners polygon primitive as box body*
4,1,4,$2,$3,$4,$5,$6,$7,$8,$9,$2,$3,0*
0 Add four circle primitives for the rounded corners*
1,1,$1+$1,$2,$3*
1,1,$1+$1,$4,$5*
1,1,$1+$1,$6,$7*
1,1,$1+$1,$8,$9*
0 Add four rect primitives between the rounded corners*
20,1,$1+$1,$2,$3,$4,$5,0*
20,1,$1+$1,$4,$5,$6,$7,0*
20,1,$1+$1,$6,$7,$8,$9,0*
20,1,$1+$1,$8,$9,$2,$3,0*%
G04 Aperture macros list end*
G04 #@! TA.AperFunction,ComponentPad*
%ADD10O,2.100000X1.000000*%
G04 #@! TD*
G04 #@! TA.AperFunction,ComponentPad*
%ADD11O,1.800000X1.000000*%
G04 #@! TD*
G04 #@! TA.AperFunction,ComponentPad*
%ADD12RoundRect,0.250000X0.350000X0.625000X-0.350000X0.625000X-0.350000X-0.625000X0.350000X-0.625000X0*%
G04 #@! TD*
G04 #@! TA.AperFunction,ComponentPad*
%ADD13O,1.200000X1.750000*%
G04 #@! TD*
G04 #@! TA.AperFunction,ComponentPad*
%ADD14R,0.500000X0.900000*%
G04 #@! TD*
G04 #@! TA.AperFunction,ViaPad*
%ADD15C,0.300000*%
G04 #@! TD*
G04 APERTURE END LIST*
D10*
G04 #@! TO.N,GND*
G04 #@! TO.C,U1*
X38500000Y-3090000D03*
D11*
X34320000Y-3090000D03*
D10*
X38500000Y-11730000D03*
D11*
X34320000Y-11730000D03*
G04 #@! TD*
D12*
G04 #@! TO.N,Earth*
G04 #@! TO.C,J2*
X46900000Y8050000D03*
D13*
G04 #@! TO.N,+BATT*
X44900000Y8050000D03*
G04 #@! TD*
D14*
G04 #@! TO.N,GND*
G04 #@! TO.C,AE1*
X55175000Y-9300000D03*
G04 #@! TD*
D15*
G04 #@! TO.N,GND*
X41300000Y3800000D03*
X44400000Y5000000D03*
X51400000Y10300000D03*
X47400000Y1100000D03*
X33600000Y-7100000D03*
X47700000Y-6900000D03*
X40100000Y100000D03*
X46300000Y-6000000D03*
X42100000Y3100000D03*
X46300000Y-4200000D03*
X56800000Y-10900000D03*
X33600000Y-9100000D03*
X33600000Y-4200000D03*
X45300000Y-12000000D03*
X47400000Y-100000D03*
X47700000Y-5100000D03*
X48700000Y500000D03*
X48700000Y-100000D03*
X43300000Y-12000000D03*
X59800000Y-10900000D03*
X48600000Y11100000D03*
X47400000Y500000D03*
X33500000Y6800000D03*
X53800000Y-10900000D03*
X48700000Y1100000D03*
X43800000Y300000D03*
X33600000Y-8100000D03*
X44300000Y-12000000D03*
X42100000Y3800000D03*
X45600000Y500000D03*
X42300000Y-12000000D03*
X53500000Y-8200000D03*
X39000000Y-1900000D03*
X46800000Y1100000D03*
X48900000Y-6000000D03*
X48900000Y-6900000D03*
X48900000Y-4200000D03*
X52000000Y-1600000D03*
X52400000Y8000000D03*
X46200000Y-9500000D03*
X40300000Y5200000D03*
X35600000Y11100000D03*
X45600000Y11100000D03*
X58800000Y10100000D03*
X33500000Y10800000D03*
X35500000Y4800000D03*
X46300000Y-5100000D03*
X38800000Y-200000D03*
X54800000Y-10900000D03*
X35500000Y4000000D03*
X58800000Y-10900000D03*
X34600000Y11100000D03*
X35500000Y3200000D03*
X46800000Y-100000D03*
X57800000Y-10900000D03*
X33500000Y-1200000D03*
X50500000Y-7800000D03*
X36600000Y11100000D03*
X33500000Y-2200000D03*
X33500000Y8800000D03*
X45600000Y1100000D03*
X44600000Y11100000D03*
X41300000Y3100000D03*
X47900000Y-500000D03*
X41600000Y11100000D03*
X41300000Y-12000000D03*
X42600000Y11100000D03*
X47700000Y-4200000D03*
X46600000Y11100000D03*
X38600000Y11100000D03*
X35500000Y5600000D03*
X33500000Y1800000D03*
X50600000Y-11800000D03*
X53800000Y-9900000D03*
X45600000Y-100000D03*
X33600000Y-5100000D03*
X53900000Y-4900000D03*
X33500000Y9800000D03*
X53100000Y3700000D03*
X33600000Y-10100000D03*
X40600000Y11100000D03*
X55800000Y-10900000D03*
X46300000Y-6900000D03*
X40300000Y5800000D03*
X38500000Y4900000D03*
X48900000Y-5100000D03*
X52900000Y-5200000D03*
X33500000Y800000D03*
X44600000Y-2700000D03*
X33500000Y-200000D03*
X35500000Y2400000D03*
X53800000Y-8900000D03*
X47600000Y11100000D03*
X33500000Y7800000D03*
X45100000Y-10100000D03*
X48400000Y-11600000D03*
X43000000Y-2100000D03*
X44200000Y900000D03*
X33600000Y-6100000D03*
X53700000Y1400000D03*
X53700000Y400000D03*
X60200000Y5800000D03*
X37600000Y11100000D03*
X51900000Y-9700000D03*
X43600000Y11100000D03*
X40900000Y-4000000D03*
X53900000Y-5900000D03*
X46800000Y500000D03*
X47700000Y-6000000D03*
X40900000Y5800000D03*
X39600000Y11100000D03*
G04 #@! TO.N,+BATT*
X45400000Y3300000D03*
X36000000Y1000000D03*
G04 #@! TO.N,+3.3V*
X33600000Y2500000D03*
X40500000Y-6400000D03*
X44600000Y-3400000D03*
X34800000Y2500000D03*
X33600000Y4500000D03*
X47400000Y-900000D03*
X33600000Y3900000D03*
X60200000Y6500000D03*
X34200000Y2500000D03*
X46100000Y-600000D03*
X34200000Y4500000D03*
X34200000Y3900000D03*
X59700000Y9700000D03*
X52000000Y-2300000D03*
X34800000Y3900000D03*
X52900000Y-5900000D03*
X34800000Y4500000D03*
X50100000Y-8400000D03*
G04 #@! TO.N,MCU_SCL*
X53400000Y8000000D03*
X56800000Y7500000D03*
G04 #@! TO.N,NCE*
X47400000Y-2000000D03*
X43500000Y4800000D03*
G04 #@! TO.N,Net-(U3-GPIO9)*
X49800000Y-200000D03*
X45400000Y-1500000D03*
G04 #@! TO.N,EN1*
X41950000Y6000000D03*
X42000000Y-3400000D03*
G04 #@! TO.N,EN2*
X42400000Y-200000D03*
X42600000Y5700000D03*
G04 #@! TO.N,EN_ADC*
X42400000Y-900000D03*
X41000000Y-900000D03*
G04 #@! TO.N,OUT*
X39600000Y3400000D03*
X39600000Y5400000D03*
G04 #@! TD*
G04 #@! TA.AperFunction,Conductor*
G04 #@! TO.N,GND*
G36*
X59811965Y11417232D02*
G01*
X59837122Y11414642D01*
X59955798Y11389998D01*
X59981419Y11381689D01*
X60008042Y11369722D01*
X60089963Y11332900D01*
X60113187Y11319254D01*
X60208645Y11248166D01*
X60228366Y11229833D01*
X60261533Y11191481D01*
X60306215Y11139814D01*
X60321515Y11117650D01*
X60336640Y11089656D01*
X60378086Y11012943D01*
X60388240Y10987994D01*
X60420863Y10873546D01*
X60425390Y10846989D01*
X60432782Y10723931D01*
X60433005Y10716536D01*
X60433007Y10710316D01*
X60432859Y10704229D01*
X60431047Y10667133D01*
X60432102Y10657430D01*
X60431164Y10657329D01*
X60433037Y10643320D01*
X60434631Y6962947D01*
X60414975Y6895899D01*
X60362191Y6850121D01*
X60293037Y6840148D01*
X60291234Y6840420D01*
X60200003Y6854869D01*
X60199998Y6854869D01*
X60090341Y6837502D01*
X59991414Y6787096D01*
X59991407Y6787091D01*
X59912909Y6708593D01*
X59912904Y6708586D01*
X59862498Y6609659D01*
X59845131Y6500003D01*
X59845131Y6499998D01*
X59862498Y6390342D01*
X59912904Y6291415D01*
X59912909Y6291408D01*
X59991407Y6212910D01*
X59991410Y6212908D01*
X59991413Y6212905D01*
X59999890Y6208586D01*
X60090341Y6162499D01*
X60199998Y6145131D01*
X60200000Y6145131D01*
X60200001Y6145131D01*
X60225046Y6149099D01*
X60291634Y6159645D01*
X60360927Y6150691D01*
X60414379Y6105695D01*
X60435019Y6038944D01*
X60435032Y6037226D01*
X60435316Y5382183D01*
X60415660Y5315135D01*
X60362876Y5269357D01*
X60310391Y5258132D01*
X54700000Y5300000D01*
X54700000Y-6476000D01*
X54680315Y-6543039D01*
X54627511Y-6588794D01*
X54606672Y-6593327D01*
X54600000Y-6600000D01*
X54600000Y-7050000D01*
X54600000Y-7100000D01*
X54600000Y-7900000D01*
X54600000Y-8800000D01*
X55326000Y-8800000D01*
X55393039Y-8819685D01*
X55438794Y-8872489D01*
X55450000Y-8924000D01*
X55450000Y-9676000D01*
X55430315Y-9743039D01*
X55377511Y-9788794D01*
X55326000Y-9800000D01*
X54750000Y-9800000D01*
X54750000Y-10550000D01*
X60318274Y-10550000D01*
X60385313Y-10569685D01*
X60431068Y-10622489D01*
X60442273Y-10673944D01*
X60442346Y-10840940D01*
X60442668Y-11587137D01*
X60441711Y-11602565D01*
X60425794Y-11729950D01*
X60419756Y-11755633D01*
X60378944Y-11871939D01*
X60367612Y-11895761D01*
X60303126Y-12000793D01*
X60287008Y-12021680D01*
X60201758Y-12110696D01*
X60181589Y-12127700D01*
X60079436Y-12196669D01*
X60056124Y-12209021D01*
X59941699Y-12254816D01*
X59916302Y-12261958D01*
X59795135Y-12282450D01*
X59774564Y-12284186D01*
X39862592Y-12301185D01*
X39795536Y-12281558D01*
X39749736Y-12228793D01*
X39739733Y-12159643D01*
X39756911Y-12114762D01*
X39756078Y-12114317D01*
X39758952Y-12108938D01*
X39812361Y-11980000D01*
X39216988Y-11980000D01*
X39234205Y-11970060D01*
X39290060Y-11914205D01*
X39329556Y-11845796D01*
X39350000Y-11769496D01*
X39350000Y-11690504D01*
X39329556Y-11614204D01*
X39290060Y-11545795D01*
X39234205Y-11489940D01*
X39216988Y-11480000D01*
X39812361Y-11480000D01*
X39812360Y-11479999D01*
X39758952Y-11351061D01*
X39758947Y-11351051D01*
X39671401Y-11220030D01*
X39671398Y-11220026D01*
X39559973Y-11108601D01*
X39559969Y-11108598D01*
X39428948Y-11021052D01*
X39428939Y-11021047D01*
X39283351Y-10960743D01*
X39283343Y-10960741D01*
X39128797Y-10930000D01*
X38750000Y-10930000D01*
X38750000Y-11430000D01*
X38250000Y-11430000D01*
X38250000Y-10897557D01*
X38269685Y-10830518D01*
X38311998Y-10790171D01*
X38356435Y-10764516D01*
X38464516Y-10656435D01*
X38540940Y-10524065D01*
X38580500Y-10376424D01*
X38580500Y-10223576D01*
X38540940Y-10075935D01*
X38464516Y-9943565D01*
X38356435Y-9835484D01*
X38224065Y-9759060D01*
X38076424Y-9719500D01*
X37923576Y-9719500D01*
X37775935Y-9759060D01*
X37775932Y-9759061D01*
X37643568Y-9835482D01*
X37643562Y-9835486D01*
X37535486Y-9943562D01*
X37535482Y-9943568D01*
X37459061Y-10075932D01*
X37459060Y-10075935D01*
X37419500Y-10223576D01*
X37419500Y-10376424D01*
X37459060Y-10524065D01*
X37535484Y-10656435D01*
X37643565Y-10764516D01*
X37654230Y-10770673D01*
X37702446Y-10821238D01*
X37715671Y-10889845D01*
X37689704Y-10954710D01*
X37639685Y-10992622D01*
X37571061Y-11021047D01*
X37571051Y-11021052D01*
X37440030Y-11108598D01*
X37440026Y-11108601D01*
X37328601Y-11220026D01*
X37328598Y-11220030D01*
X37241052Y-11351051D01*
X37241047Y-11351061D01*
X37187639Y-11479999D01*
X37187639Y-11480000D01*
X37783012Y-11480000D01*
X37765795Y-11489940D01*
X37709940Y-11545795D01*
X37670444Y-11614204D01*
X37650000Y-11690504D01*
X37650000Y-11769496D01*
X37670444Y-11845796D01*
X37709940Y-11914205D01*
X37765795Y-11970060D01*
X37783012Y-11980000D01*
X37187639Y-11980000D01*
X37241047Y-12108938D01*
X37241053Y-12108949D01*
X37242168Y-12110618D01*
X37242483Y-12111625D01*
X37243922Y-12114317D01*
X37243411Y-12114589D01*
X37263047Y-12177295D01*
X37244563Y-12244675D01*
X37192585Y-12291366D01*
X37139173Y-12303510D01*
X35530120Y-12304884D01*
X35463064Y-12285257D01*
X35417264Y-12232492D01*
X35407261Y-12163342D01*
X35426918Y-12111984D01*
X35428950Y-12108943D01*
X35428952Y-12108938D01*
X35482361Y-11980000D01*
X34886988Y-11980000D01*
X34904205Y-11970060D01*
X34960060Y-11914205D01*
X34999556Y-11845796D01*
X35020000Y-11769496D01*
X35020000Y-11690504D01*
X34999556Y-11614204D01*
X34960060Y-11545795D01*
X34904205Y-11489940D01*
X34886988Y-11480000D01*
X35482361Y-11480000D01*
X35482360Y-11479999D01*
X35428952Y-11351061D01*
X35428947Y-11351051D01*
X35341401Y-11220030D01*
X35341398Y-11220026D01*
X35229973Y-11108601D01*
X35229969Y-11108598D01*
X35098948Y-11021052D01*
X35098939Y-11021047D01*
X34953351Y-10960743D01*
X34953343Y-10960741D01*
X34798797Y-10930000D01*
X34570000Y-10930000D01*
X34570000Y-11430000D01*
X34070000Y-11430000D01*
X34070000Y-10930000D01*
X33841202Y-10930000D01*
X33686656Y-10960741D01*
X33686648Y-10960743D01*
X33541060Y-11021047D01*
X33535683Y-11023922D01*
X33534409Y-11021540D01*
X33478772Y-11038868D01*
X33411420Y-11020281D01*
X33364809Y-10968231D01*
X33352748Y-10915187D01*
X33346709Y-8399997D01*
X49745131Y-8399997D01*
X49745131Y-8400002D01*
X49762498Y-8509658D01*
X49812904Y-8608585D01*
X49812909Y-8608592D01*
X49891407Y-8687090D01*
X49891410Y-8687092D01*
X49891413Y-8687095D01*
X49990339Y-8737500D01*
X49990341Y-8737501D01*
X50099998Y-8754869D01*
X50100000Y-8754869D01*
X50100002Y-8754869D01*
X50209658Y-8737501D01*
X50209659Y-8737500D01*
X50209661Y-8737500D01*
X50308587Y-8687095D01*
X50387095Y-8608587D01*
X50437500Y-8509661D01*
X50437500Y-8509659D01*
X50437501Y-8509658D01*
X50454869Y-8400002D01*
X50454869Y-8399997D01*
X50437501Y-8290341D01*
X50437500Y-8290339D01*
X50387095Y-8191413D01*
X50387092Y-8191410D01*
X50387090Y-8191407D01*
X50308592Y-8112909D01*
X50308588Y-8112906D01*
X50308587Y-8112905D01*
X50304743Y-8110946D01*
X50209658Y-8062498D01*
X50100002Y-8045131D01*
X50099998Y-8045131D01*
X49990341Y-8062498D01*
X49891414Y-8112904D01*
X49891407Y-8112909D01*
X49812909Y-8191407D01*
X49812904Y-8191414D01*
X49762498Y-8290341D01*
X49745131Y-8399997D01*
X33346709Y-8399997D01*
X33341907Y-6399997D01*
X40145131Y-6399997D01*
X40145131Y-6400002D01*
X40162498Y-6509658D01*
X40212904Y-6608585D01*
X40212909Y-6608592D01*
X40291407Y-6687090D01*
X40291410Y-6687092D01*
X40291413Y-6687095D01*
X40390339Y-6737500D01*
X40390341Y-6737501D01*
X40499998Y-6754869D01*
X40500000Y-6754869D01*
X40500002Y-6754869D01*
X40609658Y-6737501D01*
X40609659Y-6737500D01*
X40609661Y-6737500D01*
X40708587Y-6687095D01*
X40787095Y-6608587D01*
X40837500Y-6509661D01*
X40837500Y-6509659D01*
X40837501Y-6509658D01*
X40854869Y-6400002D01*
X40854869Y-6399997D01*
X40837501Y-6290341D01*
X40810577Y-6237500D01*
X40787095Y-6191413D01*
X40787092Y-6191410D01*
X40787090Y-6191407D01*
X40708592Y-6112909D01*
X40708588Y-6112906D01*
X40708587Y-6112905D01*
X40700112Y-6108587D01*
X40609658Y-6062498D01*
X40500002Y-6045131D01*
X40499998Y-6045131D01*
X40390341Y-6062498D01*
X40291414Y-6112904D01*
X40291407Y-6112909D01*
X40212909Y-6191407D01*
X40212904Y-6191414D01*
X40162498Y-6290341D01*
X40145131Y-6399997D01*
X33341907Y-6399997D01*
X33340707Y-5899997D01*
X52545131Y-5899997D01*
X52545131Y-5900002D01*
X52562498Y-6009658D01*
X52612904Y-6108585D01*
X52612909Y-6108592D01*
X52691407Y-6187090D01*
X52691410Y-6187092D01*
X52691413Y-6187095D01*
X52699890Y-6191414D01*
X52790341Y-6237501D01*
X52899998Y-6254869D01*
X52900000Y-6254869D01*
X52900002Y-6254869D01*
X53009658Y-6237501D01*
X53009659Y-6237500D01*
X53009661Y-6237500D01*
X53108587Y-6187095D01*
X53187095Y-6108587D01*
X53237500Y-6009661D01*
X53237500Y-6009659D01*
X53237501Y-6009658D01*
X53254869Y-5900002D01*
X53254869Y-5899997D01*
X53237501Y-5790341D01*
X53237500Y-5790339D01*
X53187095Y-5691413D01*
X53187092Y-5691410D01*
X53187090Y-5691407D01*
X53108592Y-5612909D01*
X53108588Y-5612906D01*
X53108587Y-5612905D01*
X53104743Y-5610946D01*
X53009658Y-5562498D01*
X52900002Y-5545131D01*
X52899998Y-5545131D01*
X52790341Y-5562498D01*
X52691414Y-5612904D01*
X52691407Y-5612909D01*
X52612909Y-5691407D01*
X52612904Y-5691414D01*
X52562498Y-5790341D01*
X52545131Y-5899997D01*
X33340707Y-5899997D01*
X33335891Y-3894148D01*
X33355415Y-3827062D01*
X33408109Y-3781181D01*
X33477243Y-3771071D01*
X33528782Y-3790749D01*
X33541051Y-3798947D01*
X33541060Y-3798952D01*
X33686648Y-3859256D01*
X33686656Y-3859258D01*
X33841202Y-3889999D01*
X33841206Y-3890000D01*
X34070000Y-3890000D01*
X34070000Y-3390000D01*
X34570000Y-3390000D01*
X34570000Y-3890000D01*
X34798794Y-3890000D01*
X34798797Y-3889999D01*
X34953343Y-3859258D01*
X34953351Y-3859256D01*
X35098939Y-3798952D01*
X35098948Y-3798947D01*
X35229969Y-3711401D01*
X35229973Y-3711398D01*
X35341398Y-3599973D01*
X35341401Y-3599969D01*
X35428947Y-3468948D01*
X35428952Y-3468938D01*
X35482361Y-3340000D01*
X34886988Y-3340000D01*
X34904205Y-3330060D01*
X34960060Y-3274205D01*
X34999556Y-3205796D01*
X35020000Y-3129496D01*
X35020000Y-3050504D01*
X34999556Y-2974204D01*
X34960060Y-2905795D01*
X34904205Y-2849940D01*
X34886988Y-2840000D01*
X35482361Y-2840000D01*
X35482360Y-2839999D01*
X37187639Y-2839999D01*
X37187639Y-2840000D01*
X37783012Y-2840000D01*
X37765795Y-2849940D01*
X37709940Y-2905795D01*
X37670444Y-2974204D01*
X37650000Y-3050504D01*
X37650000Y-3129496D01*
X37670444Y-3205796D01*
X37709940Y-3274205D01*
X37765795Y-3330060D01*
X37783012Y-3340000D01*
X37187639Y-3340000D01*
X37241047Y-3468938D01*
X37241052Y-3468948D01*
X37328598Y-3599969D01*
X37328601Y-3599973D01*
X37440026Y-3711398D01*
X37440030Y-3711401D01*
X37571051Y-3798947D01*
X37571064Y-3798954D01*
X37639684Y-3827377D01*
X37694088Y-3871217D01*
X37716153Y-3937512D01*
X37698874Y-4005211D01*
X37654234Y-4049324D01*
X37643568Y-4055482D01*
X37643562Y-4055486D01*
X37535486Y-4163562D01*
X37535482Y-4163568D01*
X37459061Y-4295932D01*
X37459060Y-4295935D01*
X37419500Y-4443576D01*
X37419500Y-4596424D01*
X37459060Y-4744065D01*
X37535484Y-4876435D01*
X37643565Y-4984516D01*
X37775935Y-5060940D01*
X37923576Y-5100500D01*
X37923578Y-5100500D01*
X38076422Y-5100500D01*
X38076424Y-5100500D01*
X38224065Y-5060940D01*
X38356435Y-4984516D01*
X38464516Y-4876435D01*
X38540940Y-4744065D01*
X38580500Y-4596424D01*
X38580500Y-4443576D01*
X38540940Y-4295935D01*
X38464516Y-4163565D01*
X38356435Y-4055484D01*
X38311998Y-4029828D01*
X38263784Y-3979261D01*
X38250000Y-3922442D01*
X38250000Y-3390000D01*
X38750000Y-3390000D01*
X38750000Y-3890000D01*
X39128794Y-3890000D01*
X39128797Y-3889999D01*
X39283343Y-3859258D01*
X39283351Y-3859256D01*
X39428939Y-3798952D01*
X39428948Y-3798947D01*
X39559969Y-3711401D01*
X39559973Y-3711398D01*
X39671398Y-3599973D01*
X39671401Y-3599969D01*
X39758947Y-3468948D01*
X39758952Y-3468938D01*
X39787509Y-3399997D01*
X41645131Y-3399997D01*
X41645131Y-3400002D01*
X41662498Y-3509658D01*
X41712904Y-3608585D01*
X41712909Y-3608592D01*
X41791407Y-3687090D01*
X41791410Y-3687092D01*
X41791413Y-3687095D01*
X41839111Y-3711398D01*
X41890341Y-3737501D01*
X41999998Y-3754869D01*
X42000000Y-3754869D01*
X42000002Y-3754869D01*
X42109658Y-3737501D01*
X42109659Y-3737500D01*
X42109661Y-3737500D01*
X42208587Y-3687095D01*
X42287095Y-3608587D01*
X42337500Y-3509661D01*
X42337500Y-3509659D01*
X42337501Y-3509658D01*
X42354869Y-3400002D01*
X42354869Y-3399997D01*
X44245131Y-3399997D01*
X44245131Y-3400002D01*
X44262498Y-3509658D01*
X44312904Y-3608585D01*
X44312909Y-3608592D01*
X44391407Y-3687090D01*
X44391410Y-3687092D01*
X44391413Y-3687095D01*
X44439111Y-3711398D01*
X44490341Y-3737501D01*
X44599998Y-3754869D01*
X44600000Y-3754869D01*
X44600002Y-3754869D01*
X44709658Y-3737501D01*
X44709659Y-3737500D01*
X44709661Y-3737500D01*
X44808587Y-3687095D01*
X44887095Y-3608587D01*
X44937500Y-3509661D01*
X44937500Y-3509659D01*
X44937501Y-3509658D01*
X44954869Y-3400002D01*
X44954869Y-3399997D01*
X44937501Y-3290341D01*
X44894423Y-3205796D01*
X44887095Y-3191413D01*
X44887092Y-3191410D01*
X44887090Y-3191407D01*
X44808592Y-3112909D01*
X44808588Y-3112906D01*
X44808587Y-3112905D01*
X44804743Y-3110946D01*
X44709658Y-3062498D01*
X44600002Y-3045131D01*
X44599998Y-3045131D01*
X44490341Y-3062498D01*
X44391414Y-3112904D01*
X44391407Y-3112909D01*
X44312909Y-3191407D01*
X44312904Y-3191414D01*
X44262498Y-3290341D01*
X44245131Y-3399997D01*
X42354869Y-3399997D01*
X42337501Y-3290341D01*
X42294423Y-3205796D01*
X42287095Y-3191413D01*
X42287092Y-3191410D01*
X42287090Y-3191407D01*
X42208592Y-3112909D01*
X42208588Y-3112906D01*
X42208587Y-3112905D01*
X42204743Y-3110946D01*
X42109658Y-3062498D01*
X42000002Y-3045131D01*
X41999998Y-3045131D01*
X41890341Y-3062498D01*
X41791414Y-3112904D01*
X41791407Y-3112909D01*
X41712909Y-3191407D01*
X41712904Y-3191414D01*
X41662498Y-3290341D01*
X41645131Y-3399997D01*
X39787509Y-3399997D01*
X39812361Y-3340000D01*
X39216988Y-3340000D01*
X39234205Y-3330060D01*
X39290060Y-3274205D01*
X39329556Y-3205796D01*
X39350000Y-3129496D01*
X39350000Y-3050504D01*
X39329556Y-2974204D01*
X39290060Y-2905795D01*
X39234205Y-2849940D01*
X39216988Y-2840000D01*
X39812361Y-2840000D01*
X39812360Y-2839999D01*
X39758952Y-2711061D01*
X39758947Y-2711051D01*
X39671401Y-2580030D01*
X39671398Y-2580026D01*
X39559973Y-2468601D01*
X39559969Y-2468598D01*
X39428948Y-2381052D01*
X39428939Y-2381047D01*
X39283351Y-2320743D01*
X39283343Y-2320741D01*
X39128797Y-2290000D01*
X38750000Y-2290000D01*
X38750000Y-2790000D01*
X38250000Y-2790000D01*
X38250000Y-2290000D01*
X37871202Y-2290000D01*
X37716656Y-2320741D01*
X37716648Y-2320743D01*
X37571060Y-2381047D01*
X37571051Y-2381052D01*
X37440030Y-2468598D01*
X37440026Y-2468601D01*
X37328601Y-2580026D01*
X37328598Y-2580030D01*
X37241052Y-2711051D01*
X37241047Y-2711061D01*
X37187639Y-2839999D01*
X35482360Y-2839999D01*
X35428952Y-2711061D01*
X35428947Y-2711051D01*
X35341401Y-2580030D01*
X35341398Y-2580026D01*
X35229973Y-2468601D01*
X35229969Y-2468598D01*
X35098948Y-2381052D01*
X35098939Y-2381047D01*
X34953351Y-2320743D01*
X34953343Y-2320741D01*
X34798797Y-2290000D01*
X34570000Y-2290000D01*
X34570000Y-2790000D01*
X34070000Y-2790000D01*
X34070000Y-2290000D01*
X33841202Y-2290000D01*
X33686656Y-2320741D01*
X33686648Y-2320743D01*
X33541060Y-2381047D01*
X33541051Y-2381052D01*
X33524928Y-2391826D01*
X33458250Y-2412704D01*
X33390870Y-2394219D01*
X33344180Y-2342240D01*
X33332037Y-2289024D01*
X33331343Y-1999997D01*
X47045131Y-1999997D01*
X47045131Y-2000002D01*
X47062498Y-2109658D01*
X47112904Y-2208585D01*
X47112909Y-2208592D01*
X47191407Y-2287090D01*
X47191410Y-2287092D01*
X47191413Y-2287095D01*
X47290339Y-2337500D01*
X47290341Y-2337501D01*
X47399998Y-2354869D01*
X47400000Y-2354869D01*
X47400002Y-2354869D01*
X47509658Y-2337501D01*
X47509659Y-2337500D01*
X47509661Y-2337500D01*
X47583265Y-2299997D01*
X51645131Y-2299997D01*
X51645131Y-2300002D01*
X51662498Y-2409658D01*
X51712904Y-2508585D01*
X51712909Y-2508592D01*
X51791407Y-2587090D01*
X51791410Y-2587092D01*
X51791413Y-2587095D01*
X51890339Y-2637500D01*
X51890341Y-2637501D01*
X51999998Y-2654869D01*
X52000000Y-2654869D01*
X52000002Y-2654869D01*
X52109658Y-2637501D01*
X52109659Y-2637500D01*
X52109661Y-2637500D01*
X52208587Y-2587095D01*
X52287095Y-2508587D01*
X52337500Y-2409661D01*
X52337500Y-2409659D01*
X52337501Y-2409658D01*
X52354869Y-2300002D01*
X52354869Y-2299997D01*
X52337501Y-2190341D01*
X52337500Y-2190339D01*
X52287095Y-2091413D01*
X52287092Y-2091410D01*
X52287090Y-2091407D01*
X52208592Y-2012909D01*
X52208588Y-2012906D01*
X52208587Y-2012905D01*
X52183263Y-2000002D01*
X52109658Y-1962498D01*
X52000002Y-1945131D01*
X51999998Y-1945131D01*
X51890341Y-1962498D01*
X51791414Y-2012904D01*
X51791407Y-2012909D01*
X51712909Y-2091407D01*
X51712904Y-2091414D01*
X51662498Y-2190341D01*
X51645131Y-2299997D01*
X47583265Y-2299997D01*
X47608587Y-2287095D01*
X47687095Y-2208587D01*
X47737500Y-2109661D01*
X47737500Y-2109659D01*
X47737501Y-2109658D01*
X47754869Y-2000002D01*
X47754869Y-1999997D01*
X47737501Y-1890341D01*
X47710577Y-1837500D01*
X47687095Y-1791413D01*
X47687092Y-1791410D01*
X47687090Y-1791407D01*
X47608592Y-1712909D01*
X47608588Y-1712906D01*
X47608587Y-1712905D01*
X47600112Y-1708587D01*
X47509658Y-1662498D01*
X47400002Y-1645131D01*
X47399998Y-1645131D01*
X47290341Y-1662498D01*
X47191414Y-1712904D01*
X47191407Y-1712909D01*
X47112909Y-1791407D01*
X47112904Y-1791414D01*
X47062498Y-1890341D01*
X47045131Y-1999997D01*
X33331343Y-1999997D01*
X33330143Y-1499997D01*
X45045131Y-1499997D01*
X45045131Y-1500002D01*
X45062498Y-1609658D01*
X45112904Y-1708585D01*
X45112909Y-1708592D01*
X45191407Y-1787090D01*
X45191410Y-1787092D01*
X45191413Y-1787095D01*
X45199890Y-1791414D01*
X45290341Y-1837501D01*
X45399998Y-1854869D01*
X45400000Y-1854869D01*
X45400002Y-1854869D01*
X45509658Y-1837501D01*
X45509659Y-1837500D01*
X45509661Y-1837500D01*
X45608587Y-1787095D01*
X45687095Y-1708587D01*
X45737500Y-1609661D01*
X45737500Y-1609659D01*
X45737501Y-1609658D01*
X45754869Y-1500002D01*
X45754869Y-1499997D01*
X45737501Y-1390341D01*
X45737500Y-1390339D01*
X45687095Y-1291413D01*
X45687092Y-1291410D01*
X45687090Y-1291407D01*
X45608592Y-1212909D01*
X45608588Y-1212906D01*
X45608587Y-1212905D01*
X45557922Y-1187090D01*
X45509658Y-1162498D01*
X45400002Y-1145131D01*
X45399998Y-1145131D01*
X45290341Y-1162498D01*
X45191414Y-1212904D01*
X45191407Y-1212909D01*
X45112909Y-1291407D01*
X45112904Y-1291414D01*
X45062498Y-1390341D01*
X45045131Y-1499997D01*
X33330143Y-1499997D01*
X33328702Y-899997D01*
X40645131Y-899997D01*
X40645131Y-900002D01*
X40662498Y-1009658D01*
X40712904Y-1108585D01*
X40712909Y-1108592D01*
X40791407Y-1187090D01*
X40791410Y-1187092D01*
X40791413Y-1187095D01*
X40890339Y-1237500D01*
X40890341Y-1237501D01*
X40999998Y-1254869D01*
X41000000Y-1254869D01*
X41000002Y-1254869D01*
X41109658Y-1237501D01*
X41109659Y-1237500D01*
X41109661Y-1237500D01*
X41208587Y-1187095D01*
X41287095Y-1108587D01*
X41337500Y-1009661D01*
X41337500Y-1009659D01*
X41337501Y-1009658D01*
X41354869Y-900002D01*
X41354869Y-899997D01*
X41337501Y-790341D01*
X41337500Y-790339D01*
X41287095Y-691413D01*
X41287092Y-691410D01*
X41287090Y-691407D01*
X41208592Y-612909D01*
X41208588Y-612906D01*
X41208587Y-612905D01*
X41183263Y-600002D01*
X41109658Y-562498D01*
X41000002Y-545131D01*
X40999998Y-545131D01*
X40890341Y-562498D01*
X40791414Y-612904D01*
X40791407Y-612909D01*
X40712909Y-691407D01*
X40712904Y-691414D01*
X40662498Y-790341D01*
X40645131Y-899997D01*
X33328702Y-899997D01*
X33327021Y-199997D01*
X42045131Y-199997D01*
X42045131Y-200002D01*
X42062498Y-309658D01*
X42112904Y-408585D01*
X42112909Y-408592D01*
X42166636Y-462319D01*
X42200121Y-523642D01*
X42195137Y-593334D01*
X42166636Y-637681D01*
X42112909Y-691407D01*
X42112904Y-691414D01*
X42062498Y-790341D01*
X42045131Y-899997D01*
X42045131Y-900002D01*
X42062498Y-1009658D01*
X42112904Y-1108585D01*
X42112909Y-1108592D01*
X42191407Y-1187090D01*
X42191410Y-1187092D01*
X42191413Y-1187095D01*
X42290339Y-1237500D01*
X42290341Y-1237501D01*
X42399998Y-1254869D01*
X42400000Y-1254869D01*
X42400002Y-1254869D01*
X42509658Y-1237501D01*
X42509659Y-1237500D01*
X42509661Y-1237500D01*
X42608587Y-1187095D01*
X42687095Y-1108587D01*
X42737500Y-1009661D01*
X42737500Y-1009659D01*
X42737501Y-1009658D01*
X42754869Y-900002D01*
X42754869Y-899997D01*
X42737501Y-790341D01*
X42737500Y-790339D01*
X42687095Y-691413D01*
X42687092Y-691410D01*
X42687090Y-691407D01*
X42633364Y-637681D01*
X42612787Y-599997D01*
X45745131Y-599997D01*
X45745131Y-600002D01*
X45762498Y-709658D01*
X45812904Y-808585D01*
X45812909Y-808592D01*
X45891407Y-887090D01*
X45891410Y-887092D01*
X45891413Y-887095D01*
X45916741Y-900000D01*
X45990341Y-937501D01*
X46099998Y-954869D01*
X46100000Y-954869D01*
X46100002Y-954869D01*
X46209658Y-937501D01*
X46209659Y-937500D01*
X46209661Y-937500D01*
X46283265Y-899997D01*
X47045131Y-899997D01*
X47045131Y-900002D01*
X47062498Y-1009658D01*
X47112904Y-1108585D01*
X47112909Y-1108592D01*
X47191407Y-1187090D01*
X47191410Y-1187092D01*
X47191413Y-1187095D01*
X47290339Y-1237500D01*
X47290341Y-1237501D01*
X47399998Y-1254869D01*
X47400000Y-1254869D01*
X47400002Y-1254869D01*
X47509658Y-1237501D01*
X47509659Y-1237500D01*
X47509661Y-1237500D01*
X47608587Y-1187095D01*
X47687095Y-1108587D01*
X47737500Y-1009661D01*
X47737500Y-1009659D01*
X47737501Y-1009658D01*
X47754869Y-900002D01*
X47754869Y-899997D01*
X47737501Y-790341D01*
X47737500Y-790339D01*
X47687095Y-691413D01*
X47687092Y-691410D01*
X47687090Y-691407D01*
X47608592Y-612909D01*
X47608588Y-612906D01*
X47608587Y-612905D01*
X47583263Y-600002D01*
X47509658Y-562498D01*
X47400002Y-545131D01*
X47399998Y-545131D01*
X47290341Y-562498D01*
X47191414Y-612904D01*
X47191407Y-612909D01*
X47112909Y-691407D01*
X47112904Y-691414D01*
X47062498Y-790341D01*
X47045131Y-899997D01*
X46283265Y-899997D01*
X46308587Y-887095D01*
X46387095Y-808587D01*
X46437500Y-709661D01*
X46437500Y-709659D01*
X46437501Y-709658D01*
X46454869Y-600002D01*
X46454869Y-599997D01*
X46437501Y-490341D01*
X46395848Y-408592D01*
X46387095Y-391413D01*
X46387092Y-391410D01*
X46387090Y-391407D01*
X46308592Y-312909D01*
X46308588Y-312906D01*
X46308587Y-312905D01*
X46302214Y-309658D01*
X46209658Y-262498D01*
X46100002Y-245131D01*
X46099998Y-245131D01*
X45990341Y-262498D01*
X45891414Y-312904D01*
X45891407Y-312909D01*
X45812909Y-391407D01*
X45812904Y-391414D01*
X45762498Y-490341D01*
X45745131Y-599997D01*
X42612787Y-599997D01*
X42599879Y-576358D01*
X42604863Y-506666D01*
X42633364Y-462319D01*
X42687090Y-408592D01*
X42687095Y-408587D01*
X42737500Y-309661D01*
X42737500Y-309659D01*
X42737501Y-309658D01*
X42754869Y-200002D01*
X42754869Y-199997D01*
X49445131Y-199997D01*
X49445131Y-200002D01*
X49462498Y-309658D01*
X49512904Y-408585D01*
X49512909Y-408592D01*
X49591407Y-487090D01*
X49591410Y-487092D01*
X49591413Y-487095D01*
X49663141Y-523642D01*
X49690341Y-537501D01*
X49799998Y-554869D01*
X49800000Y-554869D01*
X49800002Y-554869D01*
X49909658Y-537501D01*
X49909659Y-537500D01*
X49909661Y-537500D01*
X50008587Y-487095D01*
X50087095Y-408587D01*
X50137500Y-309661D01*
X50137500Y-309659D01*
X50137501Y-309658D01*
X50154869Y-200002D01*
X50154869Y-199997D01*
X50137501Y-90341D01*
X50137500Y-90339D01*
X50087095Y8587D01*
X50087092Y8590D01*
X50087090Y8593D01*
X50008592Y87091D01*
X50008588Y87094D01*
X50008587Y87095D01*
X50004743Y89054D01*
X49909658Y137502D01*
X49800002Y154869D01*
X49799998Y154869D01*
X49690341Y137502D01*
X49591414Y87096D01*
X49591407Y87091D01*
X49512909Y8593D01*
X49512904Y8586D01*
X49462498Y-90341D01*
X49445131Y-199997D01*
X42754869Y-199997D01*
X42737501Y-90341D01*
X42737500Y-90339D01*
X42687095Y8587D01*
X42687092Y8590D01*
X42687090Y8593D01*
X42608592Y87091D01*
X42608588Y87094D01*
X42608587Y87095D01*
X42604743Y89054D01*
X42509658Y137502D01*
X42400002Y154869D01*
X42399998Y154869D01*
X42290341Y137502D01*
X42191414Y87096D01*
X42191407Y87091D01*
X42112909Y8593D01*
X42112904Y8586D01*
X42062498Y-90341D01*
X42045131Y-199997D01*
X33327021Y-199997D01*
X33324140Y1000003D01*
X35645131Y1000003D01*
X35645131Y999998D01*
X35662498Y890342D01*
X35712904Y791415D01*
X35712909Y791408D01*
X35791407Y712910D01*
X35791410Y712908D01*
X35791413Y712905D01*
X35890339Y662500D01*
X35890341Y662499D01*
X35999998Y645131D01*
X36000000Y645131D01*
X36000002Y645131D01*
X36109658Y662499D01*
X36109659Y662500D01*
X36109661Y662500D01*
X36208587Y712905D01*
X36287095Y791413D01*
X36337500Y890339D01*
X36337500Y890341D01*
X36337501Y890342D01*
X36354869Y999998D01*
X36354869Y1000003D01*
X36337501Y1109659D01*
X36337500Y1109661D01*
X36287095Y1208587D01*
X36287092Y1208590D01*
X36287090Y1208593D01*
X36208592Y1287091D01*
X36208588Y1287094D01*
X36208587Y1287095D01*
X36204743Y1289054D01*
X36109658Y1337502D01*
X36000002Y1354869D01*
X35999998Y1354869D01*
X35890341Y1337502D01*
X35791414Y1287096D01*
X35791407Y1287091D01*
X35712909Y1208593D01*
X35712904Y1208586D01*
X35662498Y1109659D01*
X35645131Y1000003D01*
X33324140Y1000003D01*
X33321628Y2046352D01*
X33341152Y2113436D01*
X33393846Y2159317D01*
X33462980Y2169427D01*
X33483954Y2164575D01*
X33490342Y2162499D01*
X33599998Y2145131D01*
X33600000Y2145131D01*
X33600002Y2145131D01*
X33709658Y2162499D01*
X33709659Y2162500D01*
X33709661Y2162500D01*
X33808587Y2212905D01*
X33812315Y2216633D01*
X33873636Y2250121D01*
X33943328Y2245140D01*
X33987685Y2216633D01*
X33991413Y2212905D01*
X34076744Y2169427D01*
X34090341Y2162499D01*
X34199998Y2145131D01*
X34200000Y2145131D01*
X34200002Y2145131D01*
X34309658Y2162499D01*
X34309659Y2162500D01*
X34309661Y2162500D01*
X34408587Y2212905D01*
X34412315Y2216633D01*
X34473636Y2250121D01*
X34543328Y2245140D01*
X34587685Y2216633D01*
X34591413Y2212905D01*
X34676744Y2169427D01*
X34690341Y2162499D01*
X34799998Y2145131D01*
X34800000Y2145131D01*
X34800002Y2145131D01*
X34909658Y2162499D01*
X34909659Y2162500D01*
X34909661Y2162500D01*
X35008587Y2212905D01*
X35087095Y2291413D01*
X35137500Y2390339D01*
X35137500Y2390341D01*
X35137501Y2390342D01*
X35154869Y2499998D01*
X35154869Y2500003D01*
X35137501Y2609659D01*
X35137500Y2609661D01*
X35087095Y2708587D01*
X35087092Y2708590D01*
X35087090Y2708593D01*
X35008592Y2787091D01*
X35008588Y2787094D01*
X35008587Y2787095D01*
X35004743Y2789054D01*
X34909658Y2837502D01*
X34800002Y2854869D01*
X34799998Y2854869D01*
X34690341Y2837502D01*
X34591414Y2787096D01*
X34591407Y2787091D01*
X34587681Y2783364D01*
X34526358Y2749879D01*
X34456666Y2754863D01*
X34412319Y2783364D01*
X34408592Y2787091D01*
X34408588Y2787094D01*
X34408587Y2787095D01*
X34404743Y2789054D01*
X34309658Y2837502D01*
X34200002Y2854869D01*
X34199998Y2854869D01*
X34090341Y2837502D01*
X33991414Y2787096D01*
X33991407Y2787091D01*
X33987681Y2783364D01*
X33926358Y2749879D01*
X33856666Y2754863D01*
X33812319Y2783364D01*
X33808592Y2787091D01*
X33808588Y2787094D01*
X33808587Y2787095D01*
X33804743Y2789054D01*
X33709658Y2837502D01*
X33600002Y2854869D01*
X33599998Y2854869D01*
X33490341Y2837502D01*
X33481774Y2834717D01*
X33411933Y2832720D01*
X33352099Y2868799D01*
X33321270Y2931499D01*
X33319453Y2952340D01*
X33318379Y3400003D01*
X39245131Y3400003D01*
X39245131Y3399998D01*
X39262498Y3290342D01*
X39312904Y3191415D01*
X39312909Y3191408D01*
X39391407Y3112910D01*
X39391410Y3112908D01*
X39391413Y3112905D01*
X39433590Y3091415D01*
X39490341Y3062499D01*
X39599998Y3045131D01*
X39600000Y3045131D01*
X39600002Y3045131D01*
X39709658Y3062499D01*
X39709659Y3062500D01*
X39709661Y3062500D01*
X39808587Y3112905D01*
X39887095Y3191413D01*
X39937500Y3290339D01*
X39937500Y3290341D01*
X39937501Y3290342D01*
X39939031Y3300003D01*
X45045131Y3300003D01*
X45045131Y3299998D01*
X45062498Y3190342D01*
X45112904Y3091415D01*
X45112909Y3091408D01*
X45191407Y3012910D01*
X45191410Y3012908D01*
X45191413Y3012905D01*
X45290339Y2962500D01*
X45290341Y2962499D01*
X45399998Y2945131D01*
X45400000Y2945131D01*
X45400002Y2945131D01*
X45509658Y2962499D01*
X45509659Y2962500D01*
X45509661Y2962500D01*
X45608587Y3012905D01*
X45687095Y3091413D01*
X45737500Y3190339D01*
X45737500Y3190341D01*
X45737501Y3190342D01*
X45754869Y3299998D01*
X45754869Y3300003D01*
X45737501Y3409659D01*
X45718204Y3447531D01*
X45687095Y3508587D01*
X45687092Y3508590D01*
X45687090Y3508593D01*
X45608592Y3587091D01*
X45608588Y3587094D01*
X45608587Y3587095D01*
X45604743Y3589054D01*
X45509658Y3637502D01*
X45400002Y3654869D01*
X45399998Y3654869D01*
X45290341Y3637502D01*
X45191414Y3587096D01*
X45191407Y3587091D01*
X45112909Y3508593D01*
X45112904Y3508586D01*
X45062498Y3409659D01*
X45045131Y3300003D01*
X39939031Y3300003D01*
X39954869Y3399998D01*
X39954869Y3400003D01*
X39937501Y3509659D01*
X39909825Y3563977D01*
X39887095Y3608587D01*
X39887092Y3608590D01*
X39887090Y3608593D01*
X39808592Y3687091D01*
X39808588Y3687094D01*
X39808587Y3687095D01*
X39800112Y3691413D01*
X39709658Y3737502D01*
X39600002Y3754869D01*
X39599998Y3754869D01*
X39490341Y3737502D01*
X39391414Y3687096D01*
X39391407Y3687091D01*
X39312909Y3608593D01*
X39312904Y3608586D01*
X39262498Y3509659D01*
X39245131Y3400003D01*
X33318379Y3400003D01*
X33318265Y3447532D01*
X33337789Y3514617D01*
X33390483Y3560498D01*
X33459618Y3570608D01*
X33480563Y3563977D01*
X33481063Y3565514D01*
X33490337Y3562501D01*
X33490339Y3562500D01*
X33502979Y3560498D01*
X33599998Y3545131D01*
X33600000Y3545131D01*
X33600002Y3545131D01*
X33709658Y3562499D01*
X33709659Y3562500D01*
X33709661Y3562500D01*
X33808587Y3612905D01*
X33812315Y3616633D01*
X33873636Y3650121D01*
X33943328Y3645140D01*
X33987685Y3616633D01*
X33991413Y3612905D01*
X34074426Y3570608D01*
X34090341Y3562499D01*
X34199998Y3545131D01*
X34200000Y3545131D01*
X34200002Y3545131D01*
X34309658Y3562499D01*
X34309659Y3562500D01*
X34309661Y3562500D01*
X34408587Y3612905D01*
X34412315Y3616633D01*
X34473636Y3650121D01*
X34543328Y3645140D01*
X34587685Y3616633D01*
X34591413Y3612905D01*
X34674426Y3570608D01*
X34690341Y3562499D01*
X34799998Y3545131D01*
X34800000Y3545131D01*
X34800002Y3545131D01*
X34909658Y3562499D01*
X34909659Y3562500D01*
X34909661Y3562500D01*
X35008587Y3612905D01*
X35087095Y3691413D01*
X35137500Y3790339D01*
X35137500Y3790341D01*
X35137501Y3790342D01*
X35154869Y3899998D01*
X35154869Y3900003D01*
X35137501Y4009659D01*
X35137500Y4009661D01*
X35087095Y4108587D01*
X35083367Y4112315D01*
X35049879Y4173636D01*
X35054860Y4243328D01*
X35083367Y4287685D01*
X35083753Y4288071D01*
X35087095Y4291413D01*
X35137500Y4390339D01*
X35137500Y4390341D01*
X35137501Y4390342D01*
X35154869Y4499998D01*
X35154869Y4500003D01*
X35137501Y4609659D01*
X35137500Y4609661D01*
X35087095Y4708587D01*
X35087092Y4708590D01*
X35087090Y4708593D01*
X35008592Y4787091D01*
X35008588Y4787094D01*
X35008587Y4787095D01*
X34983263Y4799998D01*
X34983253Y4800003D01*
X43145131Y4800003D01*
X43145131Y4799998D01*
X43162498Y4690342D01*
X43212904Y4591415D01*
X43212909Y4591408D01*
X43291407Y4512910D01*
X43291410Y4512908D01*
X43291413Y4512905D01*
X43316741Y4500000D01*
X43390341Y4462499D01*
X43499998Y4445131D01*
X43500000Y4445131D01*
X43500002Y4445131D01*
X43609658Y4462499D01*
X43609659Y4462500D01*
X43609661Y4462500D01*
X43708587Y4512905D01*
X43787095Y4591413D01*
X43837500Y4690339D01*
X43837500Y4690341D01*
X43837501Y4690342D01*
X43854869Y4799998D01*
X43854869Y4800003D01*
X43837501Y4909659D01*
X43837145Y4910357D01*
X43787095Y5008587D01*
X43787092Y5008590D01*
X43787090Y5008593D01*
X43708592Y5087091D01*
X43708588Y5087094D01*
X43708587Y5087095D01*
X43657922Y5112910D01*
X43609658Y5137502D01*
X43500002Y5154869D01*
X43499998Y5154869D01*
X43390341Y5137502D01*
X43291414Y5087096D01*
X43291407Y5087091D01*
X43212909Y5008593D01*
X43212904Y5008586D01*
X43162498Y4909659D01*
X43145131Y4800003D01*
X34983253Y4800003D01*
X34909658Y4837502D01*
X34800002Y4854869D01*
X34799998Y4854869D01*
X34690341Y4837502D01*
X34591414Y4787096D01*
X34591407Y4787091D01*
X34587681Y4783364D01*
X34526358Y4749879D01*
X34456666Y4754863D01*
X34412319Y4783364D01*
X34408592Y4787091D01*
X34408588Y4787094D01*
X34408587Y4787095D01*
X34383263Y4799998D01*
X34309658Y4837502D01*
X34200002Y4854869D01*
X34199998Y4854869D01*
X34090341Y4837502D01*
X33991414Y4787096D01*
X33991407Y4787091D01*
X33987681Y4783364D01*
X33926358Y4749879D01*
X33856666Y4754863D01*
X33812319Y4783364D01*
X33808592Y4787091D01*
X33808588Y4787094D01*
X33808587Y4787095D01*
X33783263Y4799998D01*
X33709658Y4837502D01*
X33600002Y4854869D01*
X33599998Y4854869D01*
X33490340Y4837501D01*
X33481063Y4834486D01*
X33480220Y4837080D01*
X33426260Y4826956D01*
X33361524Y4853244D01*
X33321277Y4910357D01*
X33314656Y4950032D01*
X33313576Y5400003D01*
X39245131Y5400003D01*
X39245131Y5399998D01*
X39262498Y5290342D01*
X39312904Y5191415D01*
X39312909Y5191408D01*
X39391407Y5112910D01*
X39391410Y5112908D01*
X39391413Y5112905D01*
X39490339Y5062500D01*
X39490341Y5062499D01*
X39599998Y5045131D01*
X39600000Y5045131D01*
X39600002Y5045131D01*
X39709658Y5062499D01*
X39709659Y5062500D01*
X39709661Y5062500D01*
X39808587Y5112905D01*
X39887095Y5191413D01*
X39937500Y5290339D01*
X39937500Y5290341D01*
X39937501Y5290342D01*
X39954869Y5399998D01*
X39954869Y5400003D01*
X39937501Y5509659D01*
X39937500Y5509661D01*
X39887095Y5608587D01*
X39887092Y5608590D01*
X39887090Y5608593D01*
X39808592Y5687091D01*
X39808588Y5687094D01*
X39808587Y5687095D01*
X39783263Y5699998D01*
X39709658Y5737502D01*
X39600002Y5754869D01*
X39599998Y5754869D01*
X39490341Y5737502D01*
X39391414Y5687096D01*
X39391407Y5687091D01*
X39312909Y5608593D01*
X39312904Y5608586D01*
X39262498Y5509659D01*
X39245131Y5400003D01*
X33313576Y5400003D01*
X33312136Y6000003D01*
X41595131Y6000003D01*
X41595131Y5999998D01*
X41612498Y5890342D01*
X41662904Y5791415D01*
X41662909Y5791408D01*
X41741407Y5712910D01*
X41741410Y5712908D01*
X41741413Y5712905D01*
X41815292Y5675262D01*
X41840341Y5662499D01*
X41949998Y5645131D01*
X41950000Y5645131D01*
X41950002Y5645131D01*
X42059657Y5662499D01*
X42059658Y5662500D01*
X42059661Y5662500D01*
X42084709Y5675263D01*
X42153375Y5688159D01*
X42218115Y5661884D01*
X42258373Y5604778D01*
X42260187Y5597455D01*
X42262498Y5590343D01*
X42312904Y5491415D01*
X42312909Y5491408D01*
X42391407Y5412910D01*
X42391410Y5412908D01*
X42391413Y5412905D01*
X42416741Y5400000D01*
X42490341Y5362499D01*
X42599998Y5345131D01*
X42600000Y5345131D01*
X42600002Y5345131D01*
X42709658Y5362499D01*
X42709659Y5362500D01*
X42709661Y5362500D01*
X42808587Y5412905D01*
X42887095Y5491413D01*
X42937500Y5590339D01*
X42937500Y5590341D01*
X42937501Y5590342D01*
X42954869Y5699998D01*
X42954869Y5700003D01*
X42937501Y5809659D01*
X42937500Y5809661D01*
X42887095Y5908587D01*
X42887092Y5908590D01*
X42887090Y5908593D01*
X42808592Y5987091D01*
X42808588Y5987094D01*
X42808587Y5987095D01*
X42783263Y5999998D01*
X42709658Y6037502D01*
X42600002Y6054869D01*
X42599998Y6054869D01*
X42490341Y6037502D01*
X42465289Y6024737D01*
X42396620Y6011842D01*
X42331880Y6038120D01*
X42291624Y6095227D01*
X42289811Y6102549D01*
X42287501Y6109658D01*
X42287500Y6109660D01*
X42287500Y6109661D01*
X42237095Y6208587D01*
X42237092Y6208590D01*
X42237090Y6208593D01*
X42158592Y6287091D01*
X42158588Y6287094D01*
X42158587Y6287095D01*
X42150112Y6291413D01*
X42059658Y6337502D01*
X41950002Y6354869D01*
X41949998Y6354869D01*
X41840341Y6337502D01*
X41741414Y6287096D01*
X41741407Y6287091D01*
X41662909Y6208593D01*
X41662904Y6208586D01*
X41612498Y6109659D01*
X41595131Y6000003D01*
X33312136Y6000003D01*
X33306365Y8403847D01*
X44099500Y8403847D01*
X44099500Y7696154D01*
X44130261Y7541511D01*
X44130264Y7541499D01*
X44190602Y7395828D01*
X44190609Y7395815D01*
X44278210Y7264712D01*
X44278213Y7264708D01*
X44389707Y7153214D01*
X44389711Y7153211D01*
X44520814Y7065610D01*
X44520827Y7065603D01*
X44625596Y7022207D01*
X44666503Y7005263D01*
X44806810Y6977354D01*
X44821153Y6974501D01*
X44821156Y6974500D01*
X44821158Y6974500D01*
X44978844Y6974500D01*
X44978845Y6974501D01*
X45133497Y7005263D01*
X45279179Y7065606D01*
X45410289Y7153211D01*
X45521789Y7264711D01*
X45609394Y7395821D01*
X45669737Y7541503D01*
X45700500Y7696158D01*
X45700500Y8403842D01*
X45700500Y8403845D01*
X45700499Y8403847D01*
X45669738Y8558490D01*
X45669737Y8558497D01*
X45669735Y8558502D01*
X45609397Y8704173D01*
X45609390Y8704186D01*
X45592629Y8729270D01*
X46099500Y8729270D01*
X46099500Y7370731D01*
X46102353Y7340301D01*
X46102353Y7340299D01*
X46147206Y7212120D01*
X46147207Y7212118D01*
X46227850Y7102850D01*
X46337118Y7022207D01*
X46379845Y7007256D01*
X46465299Y6977354D01*
X46495730Y6974500D01*
X46495734Y6974500D01*
X47304270Y6974500D01*
X47334699Y6977354D01*
X47334701Y6977354D01*
X47398790Y6999781D01*
X47462882Y7022207D01*
X47572150Y7102850D01*
X47652793Y7212118D01*
X47680538Y7291408D01*
X47697646Y7340299D01*
X47697646Y7340301D01*
X47700500Y7370731D01*
X47700500Y7500003D01*
X56445131Y7500003D01*
X56445131Y7499998D01*
X56462498Y7390342D01*
X56512904Y7291415D01*
X56512909Y7291408D01*
X56591407Y7212910D01*
X56591410Y7212908D01*
X56591413Y7212905D01*
X56690339Y7162500D01*
X56690341Y7162499D01*
X56799998Y7145131D01*
X56800000Y7145131D01*
X56800002Y7145131D01*
X56909658Y7162499D01*
X56909659Y7162500D01*
X56909661Y7162500D01*
X57008587Y7212905D01*
X57087095Y7291413D01*
X57137500Y7390339D01*
X57137500Y7390341D01*
X57137501Y7390342D01*
X57154869Y7499998D01*
X57154869Y7500003D01*
X57137501Y7609659D01*
X57110577Y7662500D01*
X57087095Y7708587D01*
X57087092Y7708590D01*
X57087090Y7708593D01*
X57008592Y7787091D01*
X57008588Y7787094D01*
X57008587Y7787095D01*
X57000112Y7791413D01*
X56909658Y7837502D01*
X56800002Y7854869D01*
X56799998Y7854869D01*
X56690341Y7837502D01*
X56591414Y7787096D01*
X56591407Y7787091D01*
X56512909Y7708593D01*
X56512904Y7708586D01*
X56462498Y7609659D01*
X56445131Y7500003D01*
X47700500Y7500003D01*
X47700500Y8000003D01*
X53045131Y8000003D01*
X53045131Y7999998D01*
X53062498Y7890342D01*
X53112904Y7791415D01*
X53112909Y7791408D01*
X53191407Y7712910D01*
X53191410Y7712908D01*
X53191413Y7712905D01*
X53290339Y7662500D01*
X53290341Y7662499D01*
X53399998Y7645131D01*
X53400000Y7645131D01*
X53400002Y7645131D01*
X53509658Y7662499D01*
X53509659Y7662500D01*
X53509661Y7662500D01*
X53608587Y7712905D01*
X53687095Y7791413D01*
X53737500Y7890339D01*
X53737500Y7890341D01*
X53737501Y7890342D01*
X53754869Y7999998D01*
X53754869Y8000003D01*
X53737501Y8109659D01*
X53737500Y8109661D01*
X53687095Y8208587D01*
X53687092Y8208590D01*
X53687090Y8208593D01*
X53608592Y8287091D01*
X53608588Y8287094D01*
X53608587Y8287095D01*
X53604743Y8289054D01*
X53509658Y8337502D01*
X53400002Y8354869D01*
X53399998Y8354869D01*
X53290341Y8337502D01*
X53191414Y8287096D01*
X53191407Y8287091D01*
X53112909Y8208593D01*
X53112904Y8208586D01*
X53062498Y8109659D01*
X53045131Y8000003D01*
X47700500Y8000003D01*
X47700500Y8729270D01*
X47697646Y8759700D01*
X47697646Y8759702D01*
X47652793Y8887881D01*
X47652792Y8887883D01*
X47609319Y8946787D01*
X47572150Y8997150D01*
X47462882Y9077793D01*
X47462880Y9077794D01*
X47334700Y9122647D01*
X47304270Y9125500D01*
X47304266Y9125500D01*
X46495734Y9125500D01*
X46495730Y9125500D01*
X46465300Y9122647D01*
X46465298Y9122647D01*
X46337119Y9077794D01*
X46337117Y9077793D01*
X46227850Y8997150D01*
X46147207Y8887883D01*
X46147206Y8887881D01*
X46102353Y8759702D01*
X46102353Y8759700D01*
X46099500Y8729270D01*
X45592629Y8729270D01*
X45521789Y8835289D01*
X45521786Y8835293D01*
X45410292Y8946787D01*
X45410288Y8946790D01*
X45279185Y9034391D01*
X45279172Y9034398D01*
X45133501Y9094736D01*
X45133489Y9094739D01*
X44978845Y9125500D01*
X44978842Y9125500D01*
X44821158Y9125500D01*
X44821155Y9125500D01*
X44666510Y9094739D01*
X44666498Y9094736D01*
X44520827Y9034398D01*
X44520814Y9034391D01*
X44389711Y8946790D01*
X44389707Y8946787D01*
X44278213Y8835293D01*
X44278210Y8835289D01*
X44190609Y8704186D01*
X44190602Y8704173D01*
X44130264Y8558502D01*
X44130261Y8558490D01*
X44099500Y8403847D01*
X33306365Y8403847D01*
X33303253Y9700003D01*
X59345131Y9700003D01*
X59345131Y9699998D01*
X59362498Y9590342D01*
X59412904Y9491415D01*
X59412909Y9491408D01*
X59491407Y9412910D01*
X59491410Y9412908D01*
X59491413Y9412905D01*
X59590339Y9362500D01*
X59590341Y9362499D01*
X59699998Y9345131D01*
X59700000Y9345131D01*
X59700002Y9345131D01*
X59809658Y9362499D01*
X59809659Y9362500D01*
X59809661Y9362500D01*
X59908587Y9412905D01*
X59987095Y9491413D01*
X60037500Y9590339D01*
X60037500Y9590341D01*
X60037501Y9590342D01*
X60054869Y9699998D01*
X60054869Y9700003D01*
X60037501Y9809659D01*
X60037500Y9809661D01*
X59987095Y9908587D01*
X59987092Y9908590D01*
X59987090Y9908593D01*
X59908592Y9987091D01*
X59908588Y9987094D01*
X59908587Y9987095D01*
X59904743Y9989054D01*
X59809658Y10037502D01*
X59700002Y10054869D01*
X59699998Y10054869D01*
X59590341Y10037502D01*
X59491414Y9987096D01*
X59491407Y9987091D01*
X59412909Y9908593D01*
X59412904Y9908586D01*
X59362498Y9809659D01*
X59345131Y9700003D01*
X33303253Y9700003D01*
X33300625Y10794602D01*
X33304148Y10824248D01*
X33311237Y10853348D01*
X33331195Y10935276D01*
X33339569Y10958923D01*
X33391223Y11068176D01*
X33404178Y11089643D01*
X33476781Y11186274D01*
X33493793Y11204692D01*
X33584350Y11284718D01*
X33604729Y11299341D01*
X33709548Y11359501D01*
X33732454Y11369721D01*
X33847230Y11407544D01*
X33871727Y11412944D01*
X33997439Y11427545D01*
X34011794Y11428373D01*
X59811965Y11417232D01*
G37*
G04 #@! TD.AperFunction*
G04 #@! TD*
M02*
