M48
; DRILL file {KiCad 8.0.3} date 2024-06-26T13:16:16+0200
; FORMAT={-:-/ absolute / metric / decimal}
; #@! TF.CreationDate,2024-06-26T13:16:16+02:00
; #@! TF.GenerationSoftware,Kicad,Pcbnew,8.0.3
; #@! TF.FileFunction,MixedPlating,1,4
FMAT,2
METRIC
; #@! TA.AperFunction,Plated,PTH,ViaDrill
T1C0.200
; #@! TA.AperFunction,Plated,PTH,ComponentDrill
T2C0.300
; #@! TA.AperFunction,Plated,PTH,ComponentDrill
T3C0.600
; #@! TA.AperFunction,Plated,PTH,ComponentDrill
T4C0.750
; #@! TA.AperFunction,NonPlated,NPTH,ComponentDrill
T5C0.660
%
G90
G05
T1
X33.5Y10.8
X33.5Y9.8
X33.5Y8.8
X33.5Y7.8
X33.5Y6.8
X33.5Y1.8
X33.5Y0.8
X33.5Y-0.2
X33.5Y-1.2
X33.5Y-2.2
X33.6Y4.5
X33.6Y3.9
X33.6Y2.5
X33.6Y-4.2
X33.6Y-5.1
X33.6Y-6.1
X33.6Y-7.1
X33.6Y-8.1
X33.6Y-9.1
X33.6Y-10.1
X34.2Y4.5
X34.2Y3.9
X34.2Y2.5
X34.6Y11.1
X34.8Y4.5
X34.8Y3.9
X34.8Y2.5
X35.5Y5.6
X35.5Y4.8
X35.5Y4.0
X35.5Y3.2
X35.5Y2.4
X35.6Y11.1
X36.0Y1.0
X36.6Y11.1
X37.6Y11.1
X38.5Y4.9
X38.6Y11.1
X38.8Y-0.2
X39.0Y-1.9
X39.6Y11.1
X39.6Y5.4
X39.6Y3.4
X40.1Y0.1
X40.3Y5.8
X40.3Y5.2
X40.5Y-6.4
X40.6Y11.1
X40.9Y5.8
X40.9Y-4.0
X41.0Y-0.9
X41.3Y3.8
X41.3Y3.1
X41.3Y-12.0
X41.6Y11.1
X41.95Y6.0
X42.0Y-3.4
X42.1Y3.8
X42.1Y3.1
X42.3Y-12.0
X42.4Y-0.2
X42.4Y-0.9
X42.6Y11.1
X42.6Y5.7
X43.0Y-2.1
X43.3Y-12.0
X43.5Y4.8
X43.6Y11.1
X43.8Y0.3
X44.2Y0.9
X44.3Y-12.0
X44.4Y5.0
X44.6Y11.1
X44.6Y-2.7
X44.6Y-3.4
X45.1Y-10.1
X45.3Y-12.0
X45.4Y3.3
X45.4Y-1.5
X45.6Y11.1
X45.6Y1.1
X45.6Y0.5
X45.6Y-0.1
X46.1Y-0.6
X46.2Y-9.5
X46.3Y-4.2
X46.3Y-5.1
X46.3Y-6.0
X46.3Y-6.9
X46.6Y11.1
X46.8Y1.1
X46.8Y0.5
X46.8Y-0.1
X47.4Y1.1
X47.4Y0.5
X47.4Y-0.1
X47.4Y-0.9
X47.4Y-2.0
X47.6Y11.1
X47.7Y-4.2
X47.7Y-5.1
X47.7Y-6.0
X47.7Y-6.9
X47.9Y-0.5
X48.4Y-11.6
X48.6Y11.1
X48.7Y1.1
X48.7Y0.5
X48.7Y-0.1
X48.9Y-4.2
X48.9Y-5.1
X48.9Y-6.0
X48.9Y-6.9
X49.8Y-0.2
X50.1Y-8.4
X50.5Y-7.8
X50.6Y-11.8
X51.4Y10.3
X51.9Y-9.7
X52.0Y-1.6
X52.0Y-2.3
X52.4Y8.0
X52.9Y-5.2
X52.9Y-5.9
X53.1Y3.7
X53.4Y8.0
X53.5Y-8.2
X53.7Y1.4
X53.7Y0.4
X53.8Y-8.9
X53.8Y-9.9
X53.8Y-10.9
X53.9Y-4.9
X53.9Y-5.9
X54.8Y-10.9
X55.8Y-10.9
X56.8Y7.5
X56.8Y-10.9
X57.8Y-10.9
X58.8Y10.1
X58.8Y-10.9
X59.7Y9.7
X59.8Y-10.9
X60.2Y6.5
X60.2Y5.8
T2
X55.175Y-9.3
T4
X44.9Y8.05
X46.9Y8.05
T5
X38.0Y-4.52
X38.0Y-10.3
T3
X34.72Y-3.09G85X33.92Y-3.09
G05
X34.72Y-11.73G85X33.92Y-11.73
G05
X39.05Y-3.09G85X37.95Y-3.09
G05
X39.05Y-11.73G85X37.95Y-11.73
G05
M30
