G04 #@! TF.GenerationSoftware,KiCad,Pcbnew,8.0.3*
G04 #@! TF.CreationDate,2024-06-06T22:58:07+02:00*
G04 #@! TF.ProjectId,ESP32-C3,45535033-322d-4433-932e-6b696361645f,rev?*
G04 #@! TF.SameCoordinates,Original*
G04 #@! TF.FileFunction,Soldermask,Top*
G04 #@! TF.FilePolarity,Negative*
%FSLAX46Y46*%
G04 Gerber Fmt 4.6, Leading zero omitted, Abs format (unit mm)*
G04 Created by KiCad (PCBNEW 8.0.3) date 2024-06-06 22:58:07*
%MOMM*%
%LPD*%
G01*
G04 APERTURE LIST*
G04 Aperture macros list*
%AMRoundRect*
0 Rectangle with rounded corners*
0 $1 Rounding radius*
0 $2 $3 $4 $5 $6 $7 $8 $9 X,Y pos of 4 corners*
0 Add a 4 corners polygon primitive as box body*
4,1,4,$2,$3,$4,$5,$6,$7,$8,$9,$2,$3,0*
0 Add four circle primitives for the rounded corners*
1,1,$1+$1,$2,$3*
1,1,$1+$1,$4,$5*
1,1,$1+$1,$6,$7*
1,1,$1+$1,$8,$9*
0 Add four rect primitives between the rounded corners*
20,1,$1+$1,$2,$3,$4,$5,0*
20,1,$1+$1,$4,$5,$6,$7,0*
20,1,$1+$1,$6,$7,$8,$9,0*
20,1,$1+$1,$8,$9,$2,$3,0*%
G04 Aperture macros list end*
%ADD10RoundRect,0.150000X-0.512500X-0.150000X0.512500X-0.150000X0.512500X0.150000X-0.512500X0.150000X0*%
%ADD11RoundRect,0.140000X-0.170000X0.140000X-0.170000X-0.140000X0.170000X-0.140000X0.170000X0.140000X0*%
%ADD12RoundRect,0.135000X-0.185000X0.135000X-0.185000X-0.135000X0.185000X-0.135000X0.185000X0.135000X0*%
%ADD13RoundRect,0.140000X-0.140000X-0.170000X0.140000X-0.170000X0.140000X0.170000X-0.140000X0.170000X0*%
%ADD14RoundRect,0.140000X0.140000X0.170000X-0.140000X0.170000X-0.140000X-0.170000X0.140000X-0.170000X0*%
%ADD15RoundRect,0.135000X0.135000X0.185000X-0.135000X0.185000X-0.135000X-0.185000X0.135000X-0.185000X0*%
%ADD16RoundRect,0.218750X-0.218750X-0.256250X0.218750X-0.256250X0.218750X0.256250X-0.218750X0.256250X0*%
%ADD17RoundRect,0.135000X0.185000X-0.135000X0.185000X0.135000X-0.185000X0.135000X-0.185000X-0.135000X0*%
%ADD18RoundRect,0.062500X-0.375000X-0.062500X0.375000X-0.062500X0.375000X0.062500X-0.375000X0.062500X0*%
%ADD19RoundRect,0.062500X-0.062500X-0.375000X0.062500X-0.375000X0.062500X0.375000X-0.062500X0.375000X0*%
%ADD20R,1.600000X1.600000*%
%ADD21RoundRect,0.140000X0.170000X-0.140000X0.170000X0.140000X-0.170000X0.140000X-0.170000X-0.140000X0*%
%ADD22RoundRect,0.135000X-0.135000X-0.185000X0.135000X-0.185000X0.135000X0.185000X-0.135000X0.185000X0*%
%ADD23R,0.600000X0.700000*%
%ADD24C,0.660000*%
%ADD25R,1.140000X0.600000*%
%ADD26R,1.140000X0.300000*%
%ADD27O,2.100000X1.000000*%
%ADD28O,1.800000X1.000000*%
%ADD29R,1.500000X1.500000*%
%ADD30R,1.600000X1.400000*%
%ADD31RoundRect,0.200000X-0.200000X-0.275000X0.200000X-0.275000X0.200000X0.275000X-0.200000X0.275000X0*%
%ADD32RoundRect,0.250000X-0.625000X0.350000X-0.625000X-0.350000X0.625000X-0.350000X0.625000X0.350000X0*%
%ADD33O,1.750000X1.200000*%
%ADD34RoundRect,0.062500X0.337500X0.062500X-0.337500X0.062500X-0.337500X-0.062500X0.337500X-0.062500X0*%
%ADD35RoundRect,0.062500X0.062500X0.337500X-0.062500X0.337500X-0.062500X-0.337500X0.062500X-0.337500X0*%
%ADD36R,3.700000X3.700000*%
%ADD37RoundRect,0.150000X-0.625000X0.150000X-0.625000X-0.150000X0.625000X-0.150000X0.625000X0.150000X0*%
%ADD38RoundRect,0.250000X-0.650000X0.350000X-0.650000X-0.350000X0.650000X-0.350000X0.650000X0.350000X0*%
%ADD39R,1.400000X1.200000*%
G04 APERTURE END LIST*
D10*
G04 #@! TO.C,U5*
X48062500Y13050000D03*
X48062500Y12100000D03*
X48062500Y11150000D03*
X50337500Y11150000D03*
X50337500Y13050000D03*
G04 #@! TD*
D11*
G04 #@! TO.C,C3*
X54200000Y-7220000D03*
X54200000Y-8180000D03*
G04 #@! TD*
D12*
G04 #@! TO.C,R3*
X41300000Y-2190000D03*
X41300000Y-3210000D03*
G04 #@! TD*
D13*
G04 #@! TO.C,C12*
X50215000Y-9250000D03*
X51175000Y-9250000D03*
G04 #@! TD*
D14*
G04 #@! TO.C,C5*
X49180000Y-1300000D03*
X48220000Y-1300000D03*
G04 #@! TD*
D15*
G04 #@! TO.C,R18*
X43110000Y11500000D03*
X42090000Y11500000D03*
G04 #@! TD*
D16*
G04 #@! TO.C,D5*
X42962500Y13900000D03*
X44537500Y13900000D03*
G04 #@! TD*
D14*
G04 #@! TO.C,C9*
X48580000Y14300000D03*
X47620000Y14300000D03*
G04 #@! TD*
D17*
G04 #@! TO.C,R16*
X45800000Y4440000D03*
X45800000Y5460000D03*
G04 #@! TD*
D18*
G04 #@! TO.C,U2*
X44862500Y8950000D03*
X44862500Y8450000D03*
X44862500Y7950000D03*
X44862500Y7450000D03*
D19*
X45550000Y6762500D03*
X46050000Y6762500D03*
X46550000Y6762500D03*
X47050000Y6762500D03*
D18*
X47737500Y7450000D03*
X47737500Y7950000D03*
X47737500Y8450000D03*
X47737500Y8950000D03*
D19*
X47050000Y9637500D03*
X46550000Y9637500D03*
X46050000Y9637500D03*
X45550000Y9637500D03*
D20*
X46300000Y8200000D03*
G04 #@! TD*
D17*
G04 #@! TO.C,R10*
X40812500Y13390000D03*
X40812500Y14410000D03*
G04 #@! TD*
D11*
G04 #@! TO.C,C4*
X54350000Y-5020000D03*
X54350000Y-5980000D03*
G04 #@! TD*
D15*
G04 #@! TO.C,R13*
X49910000Y4400000D03*
X48890000Y4400000D03*
G04 #@! TD*
D11*
G04 #@! TO.C,C16*
X50215000Y-10390000D03*
X50215000Y-11350000D03*
G04 #@! TD*
D21*
G04 #@! TO.C,C11*
X44100000Y-1830000D03*
X44100000Y-870000D03*
G04 #@! TD*
D22*
G04 #@! TO.C,R5*
X44090000Y11500000D03*
X45110000Y11500000D03*
G04 #@! TD*
D23*
G04 #@! TO.C,D1*
X50200000Y2200000D03*
X48800000Y2200000D03*
X50200000Y3200000D03*
X48800000Y3200000D03*
G04 #@! TD*
D11*
G04 #@! TO.C,C6*
X51300000Y-7270000D03*
X51300000Y-8230000D03*
G04 #@! TD*
D24*
G04 #@! TO.C,U1*
X38900000Y3600000D03*
X38900000Y-2180000D03*
D25*
X39970000Y3910000D03*
X39970000Y3110000D03*
D26*
X39970000Y1960000D03*
X39970000Y960000D03*
X39970000Y460000D03*
X39970000Y-540000D03*
D25*
X39970000Y-1690000D03*
X39970000Y-2490000D03*
X39970000Y-2490000D03*
X39970000Y-1690000D03*
D26*
X39970000Y-1040000D03*
X39970000Y-40000D03*
X39970000Y1460000D03*
X39970000Y2460000D03*
D25*
X39970000Y3110000D03*
X39970000Y3910000D03*
D27*
X39400000Y5030000D03*
D28*
X35220000Y5030000D03*
D27*
X39400000Y-3610000D03*
D28*
X35220000Y-3610000D03*
G04 #@! TD*
D17*
G04 #@! TO.C,R14*
X51400000Y2290000D03*
X51400000Y3310000D03*
G04 #@! TD*
G04 #@! TO.C,R9*
X45800000Y13390000D03*
X45800000Y14410000D03*
G04 #@! TD*
D15*
G04 #@! TO.C,R11*
X43610000Y9800000D03*
X42590000Y9800000D03*
G04 #@! TD*
D29*
G04 #@! TO.C,SW1*
X52400000Y14700000D03*
D30*
X58400000Y14700000D03*
X52400000Y11400000D03*
X58400000Y11400000D03*
G04 #@! TD*
D14*
G04 #@! TO.C,C1*
X54330000Y-3200000D03*
X53370000Y-3200000D03*
G04 #@! TD*
D13*
G04 #@! TO.C,C20*
X48900000Y8200000D03*
X49860000Y8200000D03*
G04 #@! TD*
D17*
G04 #@! TO.C,R1*
X52350000Y-3210000D03*
X52350000Y-2190000D03*
G04 #@! TD*
G04 #@! TO.C,R7*
X40400000Y-7910000D03*
X40400000Y-6890000D03*
G04 #@! TD*
D21*
G04 #@! TO.C,C15*
X52350000Y-10230000D03*
X52350000Y-9270000D03*
G04 #@! TD*
D15*
G04 #@! TO.C,L1*
X53310000Y-7250000D03*
X52290000Y-7250000D03*
G04 #@! TD*
D16*
G04 #@! TO.C,D4*
X37925000Y13900000D03*
X39500000Y13900000D03*
G04 #@! TD*
D17*
G04 #@! TO.C,R2*
X41550000Y2190000D03*
X41550000Y3210000D03*
G04 #@! TD*
D31*
G04 #@! TO.C,R15*
X49075000Y9500000D03*
X50725000Y9500000D03*
G04 #@! TD*
D12*
G04 #@! TO.C,R8*
X40400000Y-9390000D03*
X40400000Y-10410000D03*
G04 #@! TD*
D15*
G04 #@! TO.C,R17*
X44810000Y5400000D03*
X43790000Y5400000D03*
G04 #@! TD*
D29*
G04 #@! TO.C,SW2*
X58500000Y6300000D03*
D30*
X52500000Y6300000D03*
X58500000Y9600000D03*
X52500000Y9600000D03*
G04 #@! TD*
D14*
G04 #@! TO.C,C21*
X43590000Y8200000D03*
X42630000Y8200000D03*
G04 #@! TD*
D21*
G04 #@! TO.C,C14*
X45100000Y-1830000D03*
X45100000Y-870000D03*
G04 #@! TD*
D32*
G04 #@! TO.C,J2*
X39420000Y10100000D03*
D33*
X39420000Y8100000D03*
G04 #@! TD*
D22*
G04 #@! TO.C,R4*
X42580000Y7200000D03*
X43600000Y7200000D03*
G04 #@! TD*
D15*
G04 #@! TO.C,L2*
X53360000Y-6000000D03*
X52340000Y-6000000D03*
G04 #@! TD*
D11*
G04 #@! TO.C,C7*
X51350000Y-5020000D03*
X51350000Y-5980000D03*
G04 #@! TD*
D34*
G04 #@! TO.C,U3*
X50050000Y-7250000D03*
X50050000Y-6750000D03*
X50050000Y-6250000D03*
X50050000Y-5750000D03*
X50050000Y-5250000D03*
X50050000Y-4750000D03*
X50050000Y-4250000D03*
X50050000Y-3750000D03*
D35*
X49350000Y-3050000D03*
X48850000Y-3050000D03*
X48350000Y-3050000D03*
X47850000Y-3050000D03*
X47350000Y-3050000D03*
X46850000Y-3050000D03*
X46350000Y-3050000D03*
X45850000Y-3050000D03*
D34*
X45150000Y-3750000D03*
X45150000Y-4250000D03*
X45150000Y-4750000D03*
X45150000Y-5250000D03*
X45150000Y-5750000D03*
X45150000Y-6250000D03*
X45150000Y-6750000D03*
X45150000Y-7250000D03*
D35*
X45850000Y-7950000D03*
X46350000Y-7950000D03*
X46850000Y-7950000D03*
X47350000Y-7950000D03*
X47850000Y-7950000D03*
X48350000Y-7950000D03*
X48850000Y-7950000D03*
X49350000Y-7950000D03*
D36*
X47600000Y-5500000D03*
G04 #@! TD*
D13*
G04 #@! TO.C,C2*
X52370000Y-5000000D03*
X53330000Y-5000000D03*
G04 #@! TD*
D22*
G04 #@! TO.C,R12*
X49090000Y1000000D03*
X50110000Y1000000D03*
G04 #@! TD*
D17*
G04 #@! TO.C,R6*
X51300000Y-3210000D03*
X51300000Y-2190000D03*
G04 #@! TD*
D37*
G04 #@! TO.C,J1*
X38470000Y-6700000D03*
X38470000Y-7700000D03*
X38470000Y-8700000D03*
D38*
X34595000Y-5400000D03*
X34595000Y-10000000D03*
G04 #@! TD*
D21*
G04 #@! TO.C,C19*
X46300000Y11320000D03*
X46300000Y12280000D03*
G04 #@! TD*
D39*
G04 #@! TO.C,Y1*
X48700000Y-9700000D03*
X46500000Y-9700000D03*
X46500000Y-11400000D03*
X48700000Y-11400000D03*
G04 #@! TD*
D21*
G04 #@! TO.C,C17*
X44950000Y-11114999D03*
X44950000Y-10154999D03*
G04 #@! TD*
M02*
