M48
; DRILL file {KiCad 8.0.2} date 2024-05-24T19:51:53+0200
; FORMAT={-:-/ absolute / inch / decimal}
; #@! TF.CreationDate,2024-05-24T19:51:53+02:00
; #@! TF.GenerationSoftware,Kicad,Pcbnew,8.0.2
; #@! TF.FileFunction,Plated,1,2,PTH
FMAT,2
INCH
; #@! TA.AperFunction,Plated,PTH,ViaDrill
T1C0.0118
; #@! TA.AperFunction,Plated,PTH,ComponentDrill
T2C0.0118
; #@! TA.AperFunction,Plated,PTH,ComponentDrill
T3C0.0236
; #@! TA.AperFunction,Plated,PTH,ComponentDrill
T4C0.0295
%
G90
G05
T1
X5.3071Y-3.5157
X5.3898Y-3.7441
X5.41Y-3.1024
X5.4213Y-3.748
X5.4291Y-2.9173
X5.4331Y-2.8819
X5.4449Y-3.7205
X5.4488Y-3.0768
X5.4764Y-3.122
X5.4803Y-3.0787
X5.5Y-2.811
X5.5Y-3.0394
X5.5Y-3.2264
X5.5098Y-3.1535
X5.5098Y-3.189
X5.5197Y-3.4173
X5.5551Y-3.6575
X5.5669Y-3.2106
X5.5709Y-3.2972
X5.5787Y-2.7913
X5.5866Y-2.9488
X5.5866Y-3.372
X5.5945Y-3.0551
X5.5984Y-2.874
X5.6142Y-2.7913
X5.6142Y-3.1575
X5.622Y-3.4724
X5.622Y-3.5394
X5.626Y-2.9882
X5.6496Y-3.3268
X5.6811Y-3.063
X5.689Y-3.4724
X5.689Y-3.5394
X5.7047Y-3.0
X5.7087Y-3.0394
X5.7126Y-2.8307
X5.7165Y-3.374
X5.7402Y-3.0
X5.7598Y-3.3937
X5.7776Y-3.3287
X5.7874Y-3.7283
X5.8071Y-3.689
X5.8189Y-3.4606
X5.8346Y-2.9213
X5.874Y-3.378
X5.874Y-3.4528
X5.878Y-3.6929
X5.9055Y-2.8268
X5.9055Y-2.9646
X5.9094Y-3.6161
X5.9094Y-3.75
X5.9252Y-3.4646
X5.9291Y-3.0669
X5.9291Y-3.2008
X5.9291Y-3.3346
X6.063Y-2.7126
X6.063Y-2.8465
X6.063Y-3.0669
X6.0748Y-2.9803
T2
X5.9685Y-3.6594
T4
X5.3354Y-2.8937
X5.3354Y-2.9724
T3
G00X5.1858Y-3.0933
M15
G01X5.1543Y-3.0933
M16
G05
G00X5.1858Y-3.4335
M15
G01X5.1543Y-3.4335
M16
G05
G00X5.3563Y-3.0933
M15
G01X5.313Y-3.0933
M16
G05
G00X5.3563Y-3.4335
M15
G01X5.313Y-3.4335
M16
G05
M30
